<svg xmlns="http://www.w3.org/2000/svg" xmlns:xlink="http://www.w3.org/1999/xlink" viewBox="0 0 1126.36 908.07"><defs><style>.cls-1,.cls-2,.cls-8{fill:none;}.cls-2,.cls-8{stroke:#000;stroke-linecap:round;stroke-linejoin:round;}.cls-2{stroke-width:1.5px;}.cls-3{fill:#d3e5fb;}.cls-4{fill:#3496f7;}.cls-5{fill:#fff;}.cls-6{fill:url(#New_Pattern_4);}.cls-7{fill:url(#New_Pattern_3);}.cls-8{stroke-width:4px;}</style><pattern id="New_Pattern_4" data-name="New Pattern 4" width="70" height="50" patternTransform="translate(0 -30)" patternUnits="userSpaceOnUse" viewBox="0 0 70 50"><rect class="cls-1" width="70" height="50"/><path class="cls-2" d="M8.89,100c-.05-7.08.29-14.17.29-21.25,0-4.32-.37-17.48-.29-28.09"/><path class="cls-2" d="M22.94,99.84c0-1.65.09-3.31.09-5,0-2.48-.21-5-.21-7.45s0-3.83.05-7.28c0-1.44-.06-2.9-.06-4.35,0-3.1.31-4.62.31-7.37,0-1.4-.27-4.94-.27-8.33q0-1.61.09-3.21V50.11"/><path class="cls-2" d="M36.74,99.84c0-9.46.33-18.09.33-27.56,0-3.7-.15-7.46-.15-11.2,0-3.35-.1-7.29-.18-10.75"/><path class="cls-2" d="M50.93,99.75c0-1.24-.07-2.75-.07-4,0-1.92,0-3.86,0-5.79,0-3.87,0-7.66,0-11.51a8.42,8.42,0,0,1-.08-1.22c0-.32.18-6.68.18-8,0-2.2-.21-3.25-.21-5.64,0-1.3.06-2.65.17-3.86,0-2.89,0-5.89,0-9.05"/><path class="cls-2" d="M65,99.71c0-8.34-.55-15.73-.36-24.06.18-8.13.16-17.71.36-25.19"/><path class="cls-2" d="M8.89,50c-.05-7.08.29-14.17.29-21.25,0-4.32-.37-17.48-.29-28.09"/><path class="cls-2" d="M22.94,49.84c0-1.65.09-3.31.09-5,0-2.48-.21-5-.21-7.45s0-3.83.05-7.28c0-1.44-.06-2.9-.06-4.35,0-3.1.31-4.62.31-7.37,0-1.4-.27-4.94-.27-8.33q0-1.6.09-3.21V.11"/><path class="cls-2" d="M36.74,49.84c0-9.46.33-18.09.33-27.56,0-3.7-.15-7.46-.15-11.2,0-3.35-.1-7.29-.18-10.75"/><path class="cls-2" d="M50.93,49.75c0-1.24-.07-2.75-.07-4,0-1.92,0-3.86,0-5.79,0-3.87,0-7.66,0-11.51a8.42,8.42,0,0,1-.08-1.22c0-.32.18-6.68.18-8,0-2.2-.21-3.25-.21-5.64,0-1.3.06-2.65.17-3.86,0-2.89,0-5.89,0-9"/><path class="cls-2" d="M65,49.71c0-8.34-.55-15.73-.36-24.06.18-8.13.16-17.71.36-25.19"/><path class="cls-2" d="M8.89,0c-.05-7.08.29-14.17.29-21.25,0-4.32-.37-17.48-.29-28.09"/><path class="cls-2" d="M22.94-.16c0-1.65.09-3.31.09-5,0-2.48-.21-5-.21-7.45s0-3.83.05-7.28c0-1.44-.06-2.9-.06-4.35,0-3.1.31-4.62.31-7.37,0-1.4-.27-4.94-.27-8.33q0-1.61.09-3.21v-6.71"/><path class="cls-2" d="M36.74-.16c0-9.46.33-18.09.33-27.56,0-3.7-.15-7.46-.15-11.2,0-3.35-.1-7.29-.18-10.75"/><path class="cls-2" d="M50.93-.25c0-1.24-.07-2.75-.07-4,0-1.92,0-3.86,0-5.79,0-3.87,0-7.66,0-11.51a8.42,8.42,0,0,1-.08-1.22c0-.32.18-6.68.18-8,0-2.2-.21-3.25-.21-5.64,0-1.3.06-2.65.17-3.86,0-2.89,0-5.89,0-9.05"/><path class="cls-2" d="M65-.29c0-8.34-.55-15.73-.36-24.06.18-8.13.16-17.71.36-25.19"/></pattern><pattern id="New_Pattern_3" data-name="New Pattern 3" width="40" height="40" patternTransform="translate(0 -30)" patternUnits="userSpaceOnUse" viewBox="0 0 40 40"><rect class="cls-1" width="40" height="40"/><path d="M36.18,30a1.9,1.9,0,0,0,1.91,1.91V28.09A1.9,1.9,0,0,0,36.18,30Z"/><path d="M40,33.82a1.9,1.9,0,0,0,1.91-1.91H38.09A1.9,1.9,0,0,0,40,33.82Z"/><path d="M40,26.18a1.9,1.9,0,0,0-1.91,1.91h3.82A1.9,1.9,0,0,0,40,26.18Z"/><path d="M16.18,40a1.9,1.9,0,0,0,1.91,1.91V38.09A1.9,1.9,0,0,0,16.18,40Z"/><path d="M21.91,38.09v3.82a1.91,1.91,0,0,0,0-3.82Z"/><path d="M20,36.18a1.9,1.9,0,0,0-1.91,1.91h3.82A1.9,1.9,0,0,0,20,36.18Z"/><path d="M1.91,28.09v3.82a1.91,1.91,0,0,0,0-3.82Z"/><path d="M36.18,10a1.9,1.9,0,0,0,1.91,1.91V8.09A1.9,1.9,0,0,0,36.18,10Z"/><path d="M40,13.82a1.9,1.9,0,0,0,1.91-1.91H38.09A1.9,1.9,0,0,0,40,13.82Z"/><path d="M40,6.18a1.9,1.9,0,0,0-1.91,1.91h3.82A1.9,1.9,0,0,0,40,6.18Z"/><path d="M18.79,16.37a1.92,1.92,0,0,0-1.21,2.42l3.63-1.21A1.92,1.92,0,0,0,18.79,16.37Z"/><path d="M22.42,21.21l-3.63,1.21a1.91,1.91,0,0,0,3.63-1.21Z"/><path d="M16.37,21.21a1.92,1.92,0,0,0,2.42,1.21l-1.21-3.63A1.92,1.92,0,0,0,16.37,21.21Z"/><path d="M23.63,18.79a1.92,1.92,0,0,0-2.42-1.21l1.21,3.63A1.92,1.92,0,0,0,23.63,18.79Z"/><path d="M1.91,8.09v3.82a1.91,1.91,0,0,0,0-3.82Z"/><path d="M20,3.82a1.9,1.9,0,0,0,1.91-1.91H18.09A1.9,1.9,0,0,0,20,3.82Z"/><path d="M0,33.82a1.9,1.9,0,0,0,1.91-1.91H-1.91A1.9,1.9,0,0,0,0,33.82Z"/><path d="M0,26.18a1.9,1.9,0,0,0-1.91,1.91H1.91A1.9,1.9,0,0,0,0,26.18Z"/><path d="M0,13.82a1.9,1.9,0,0,0,1.91-1.91H-1.91A1.9,1.9,0,0,0,0,13.82Z"/><path d="M0,6.18A1.9,1.9,0,0,0-1.91,8.09H1.91A1.9,1.9,0,0,0,0,6.18Z"/><path d="M16.18,0a1.9,1.9,0,0,0,1.91,1.91V-1.91A1.9,1.9,0,0,0,16.18,0Z"/><path d="M21.91-1.91V1.91A1.9,1.9,0,0,0,23.82,0,1.9,1.9,0,0,0,21.91-1.91Z"/></pattern></defs><g id="Layer_2" data-name="Layer 2"><g id="illustrations"><path class="cls-3" d="M728.09,441V304.54l151.62,90h235.75c5.69,42,8.9,89.52,8.9,139.87a1074.22,1074.22,0,0,1-7.11,125.79H938.37a283.11,283.11,0,0,0-59.27,6.28,116.64,116.64,0,0,1-137.58-85.87,41.65,41.65,0,0,0-13.43-21.52c-.58-.49-1.17-1-1.78-1.44L612.75,470.62a39.57,39.57,0,0,1-13.66-43.3,41.21,41.21,0,0,0,80.33-10.93Z"/><path d="M967.29,660.25h150c-12.8,107.74-41.56,182.81-75,182.81S980.1,768,967.29,660.25Z"/><path d="M1115.46,394.59H969.08c13.57-100.13,41.25-168.72,73.19-168.72S1101.9,294.45,1115.46,394.59Z"/><path class="cls-4" d="M919.71,135.15a56.6,56.6,0,0,1-5.23,113H728.09v-62H508.43a62,62,0,0,1,94.92-52.51A103.13,103.13,0,0,1,765.93,59.29a86.31,86.31,0,1,1,153.78,75.86Z"/><polygon class="cls-4" points="734.09 686.37 734.09 794.83 564.78 794.83 564.78 700.8 569.61 705.63 579.47 695.78 649.44 740.6 734.09 686.37"/><polygon class="cls-4" points="734.09 686.37 649.44 740.6 579.47 695.78 588.87 686.37 734.09 686.37"/><polygon points="728.09 186.14 728.09 248.11 653.31 248.11 728.09 186.14"/><path d="M728.09,186.14l-74.78,62h-82.9a62,62,0,0,1-62-62Z"/><path class="cls-5" d="M689.76,844.5v11.9a49.67,49.67,0,0,1-49.67,49.67H235.84a49.67,49.67,0,0,1-49.67-49.67V844.5a49.67,49.67,0,0,1,49.67-49.67H640.09A49.67,49.67,0,0,1,689.76,844.5Zm-28.16,6a28.81,28.81,0,1,0-28.81,28.81A28.81,28.81,0,0,0,661.6,850.45Zm-387.54,0a28.81,28.81,0,1,0-28.8,28.81A28.8,28.8,0,0,0,274.06,850.45Z"/><path class="cls-5" d="M655.3,404.21l24.12,12.18a41.21,41.21,0,0,1-80.33,10.93,39.36,39.36,0,0,1,6.36-12.22C617.12,399.91,638.2,395.58,655.3,404.21Z"/><circle class="cls-5" cx="632.79" cy="850.45" r="28.81"/><path class="cls-5" d="M245.26,821.64a28.81,28.81,0,1,1-28.81,28.81A28.8,28.8,0,0,1,245.26,821.64Z"/><circle class="cls-6" cx="632.79" cy="850.45" r="28.81"/><polygon points="448.89 603.05 445.14 527.24 580.61 534.54 542.53 573.23 622.27 652.97 569.61 705.63 490.28 626.31 451.97 665.23 448.89 603.05"/><polygon class="cls-4" points="522.62 686.37 522.62 794.83 353.31 794.83 353.31 686.37 437.96 740.6 522.62 686.37"/><polygon class="cls-4" points="522.62 686.37 437.96 740.6 353.31 686.37 522.62 686.37"/><rect class="cls-5" x="387" y="121.53" width="34.29" height="34.29" transform="translate(20.31 326.4) rotate(-45)"/><path class="cls-5" d="M653.31,248.11h-82.9a62,62,0,0,1-62-62H226.6a122.72,122.72,0,0,1-74,74V546.94l10.64.15c.13,1.13,1,9.81,1.7,17.23A18.43,18.43,0,0,0,176,579.59l20,8.62a18.44,18.44,0,0,0,18.69-2.46c5.85-4.62,12.78-9.91,13.69-10.6L255.46,603l0,0H448.89l-3.75-75.81,135.47,7.3-38.08,38.69,29.83,29.82H728.09V559.14c-.58-.5-1.17-1-1.78-1.44L612.75,470.62a39.59,39.59,0,0,1-7.3-55.52c11.67-15.19,32.75-19.52,49.85-10.89L728.09,441V248.11Z"/><path class="cls-7" d="M653.31,248.11h-82.9a62,62,0,0,1-62-62H226.6a122.72,122.72,0,0,1-74,74V546.94l10.64.15c.13,1.13,1,9.81,1.7,17.23A18.43,18.43,0,0,0,176,579.59l20,8.62a18.44,18.44,0,0,0,18.69-2.46c5.85-4.62,12.78-9.91,13.69-10.6L255.46,603l0,0H448.89l-3.75-75.81,135.47,7.3-38.08,38.69,29.83,29.82H728.09V559.14c-.58-.5-1.17-1-1.78-1.44L612.75,470.62a39.59,39.59,0,0,1-7.3-55.52c11.67-15.19,32.75-19.52,49.85-10.89L728.09,441V248.11Z"/><path d="M359.79,102.7l-17.18,4.66A33.5,33.5,0,0,0,319,130.94l-4.62,17.13-4.64-17.13a33.5,33.5,0,0,0-23.57-23.58l-17.16-4.66L286.21,98a33.57,33.57,0,0,0,23.57-23.59l4.64-17.12L319,74.45A33.57,33.57,0,0,0,342.61,98Z"/><path class="cls-3" d="M350.79,93.7l-17.18,4.66A33.5,33.5,0,0,0,310,121.94l-4.62,17.13-4.64-17.13a33.5,33.5,0,0,0-23.57-23.58L260.05,93.7,277.21,89a33.57,33.57,0,0,0,23.57-23.59l4.64-17.12L310,65.45A33.57,33.57,0,0,0,333.61,89Z"/><polygon class="cls-4" points="311.15 686.37 311.15 794.83 141.83 794.83 141.83 686.37 226.49 740.6 311.15 686.37"/><polygon class="cls-4" points="311.15 686.37 226.49 740.6 141.83 686.37 311.15 686.37"/><path class="cls-3" d="M179.24,581,196,588.21a18.44,18.44,0,0,0,18.69-2.46c5.85-4.62,12.78-9.91,13.69-10.6L255.46,603l0,0c-.79,1-6.22,7.7-11,13.36a18.46,18.46,0,0,0-3,18.62l8,20.22a18.43,18.43,0,0,0,15,11.48c7.4.87,16.05,2,17.18,2.19l-.25,17.45H215.55a73.72,73.72,0,1,0-73.72,73.71v34.75h29.46a18.46,18.46,0,0,0-9.82,14.2c-.87,7.4-2,16-2.19,17.17l-38.86-.55c-.13-1.14-1-9.81-1.7-17.23a18.43,18.43,0,0,0-11-15.28l-20-8.61A18.44,18.44,0,0,0,69,787c-5.85,4.61-12.78,9.91-13.7,10.59L28.2,769.71c.72-.89,6.21-7.67,11-13.39a18.41,18.41,0,0,0,3-18.61l-8-20.22a18.42,18.42,0,0,0-15-11.48c-7.4-.88-16-2-17.18-2.19L2.55,665c1.14-.13,9.81-1,17.23-1.7a18.43,18.43,0,0,0,15.28-11l8.61-20a18.4,18.4,0,0,0-2.46-18.69c-4.61-5.85-9.9-12.78-10.59-13.69l27.87-27.09c.89.71,7.67,6.2,13.39,11a18.44,18.44,0,0,0,18.61,3l20.23-8a18.44,18.44,0,0,0,11.47-15c.88-7.4,2-16,2.2-17.18l38.86.56c.13,1.13,1,9.81,1.7,17.23A18.43,18.43,0,0,0,176,579.59Z"/><path class="cls-6" d="M245.26,821.64a28.81,28.81,0,1,1-28.81,28.81A28.8,28.8,0,0,1,245.26,821.64Z"/><path class="cls-4" d="M152.61,186.14h74A122.72,122.72,0,0,1,202,227.08Z"/><path class="cls-4" d="M152.61,186.14,202,227.08a122.75,122.75,0,0,1-49.4,33Z"/><polygon class="cls-8" points="572.36 603.05 542.53 573.23 580.61 534.54 445.14 527.24 451.97 665.23 490.28 626.31 569.61 705.63 622.27 652.97 572.36 603.05"/><polyline class="cls-8" points="728.09 559.14 728.09 603.05 572.36 603.05"/><line class="cls-8" x1="448.9" y1="603.05" x2="255.44" y2="603.05"/><polyline class="cls-8" points="152.61 546.94 152.61 186.14 728.09 186.14 728.09 440.96"/><path class="cls-8" d="M508.43,186.14a62,62,0,0,1,94.92-52.51A103.13,103.13,0,0,1,765.93,59.29a86.31,86.31,0,1,1,153.78,75.86,56.6,56.6,0,0,1-5.23,113H570.41A62,62,0,0,1,508.43,186.14Z"/><path class="cls-8" d="M152.61,260.12a122.11,122.11,0,0,1-41.36,7.16V144.78H233.76a122.54,122.54,0,0,1-81.15,115.34Z"/><line class="cls-8" x1="476.56" y1="394.59" x2="728.09" y2="186.14"/><path class="cls-8" d="M152.61,186.14,418.75,406.69a33.85,33.85,0,0,0,43.21,0l14.59-12.1"/><polyline class="cls-8" points="728.09 603.05 476.56 394.59 476.55 394.59"/><line class="cls-8" x1="404.15" y1="394.59" x2="179.24" y2="580.99"/><line class="cls-8" x1="522.62" y1="794.83" x2="564.78" y2="794.83"/><line class="cls-8" x1="311.15" y1="794.83" x2="353.31" y2="794.83"/><path class="cls-8" d="M640.09,794.83a49.67,49.67,0,0,1,49.67,49.67v11.9a49.67,49.67,0,0,1-49.67,49.67H235.84a49.67,49.67,0,0,1-49.67-49.67V844.5a49.67,49.67,0,0,1,49.67-49.67"/><path class="cls-8" d="M274.06,850.45a28.81,28.81,0,1,0-28.8,28.81A28.8,28.8,0,0,0,274.06,850.45Z"/><circle class="cls-8" cx="632.79" cy="850.45" r="28.81"/><rect class="cls-8" x="141.83" y="686.37" width="169.32" height="108.46"/><polyline class="cls-8" points="141.83 686.37 226.49 740.6 311.15 686.37"/><rect class="cls-8" x="353.31" y="686.37" width="169.31" height="108.46"/><polyline class="cls-8" points="353.31 686.37 437.96 740.6 522.62 686.37"/><polyline class="cls-8" points="588.87 686.37 734.09 686.37 734.09 794.83 564.78 794.83 564.78 700.8"/><polyline class="cls-8" points="579.47 695.78 649.44 740.6 734.09 686.37"/><path class="cls-8" d="M739.76,446.85,655.3,404.21c-17.1-8.63-38.18-4.3-49.85,10.89a39.59,39.59,0,0,0,7.3,55.52s114.76,88,115.34,88.52a41.65,41.65,0,0,1,13.43,21.52A116.64,116.64,0,0,0,879.1,666.53a283.11,283.11,0,0,1,59.27-6.28h178.88"/><polyline class="cls-8" points="728.09 304.54 879.71 394.59 1115.46 394.59"/><path class="cls-8" d="M599.08,427.3v0a41.21,41.21,0,0,0,80.33-10.93"/><path class="cls-8" d="M967.29,660.25c12.81,107.73,41.56,182.81,75,182.81s62.17-75.07,75-182.81a1074.22,1074.22,0,0,0,7.11-125.79c0-50.35-3.21-97.88-8.9-139.87-13.56-100.14-41.25-168.72-73.19-168.72s-59.62,68.59-73.19,168.72"/><line class="cls-8" x1="1067.32" y1="431.06" x2="1067.32" y2="468.8"/><line class="cls-8" x1="1089.98" y1="431.06" x2="1089.98" y2="468.8"/><rect class="cls-8" x="387" y="121.53" width="34.29" height="34.29" transform="translate(20.31 326.4) rotate(-45)"/><path class="cls-8" d="M171.29,794.83a18.46,18.46,0,0,0-9.82,14.2c-.87,7.4-2,16-2.19,17.17l-38.86-.55c-.13-1.14-1-9.81-1.7-17.23a18.43,18.43,0,0,0-11-15.28l-20-8.61A18.44,18.44,0,0,0,69,787c-5.85,4.61-12.78,9.91-13.7,10.59L28.2,769.71c.72-.89,6.21-7.67,11-13.39a18.41,18.41,0,0,0,3-18.61l-8-20.22a18.42,18.42,0,0,0-15-11.48c-7.4-.88-16-2-17.18-2.19L2.55,665c1.14-.13,9.81-1,17.23-1.7a18.43,18.43,0,0,0,15.28-11l8.61-20a18.4,18.4,0,0,0-2.46-18.69c-4.61-5.85-9.9-12.78-10.59-13.69l27.87-27.09c.89.71,7.67,6.2,13.39,11a18.44,18.44,0,0,0,18.61,3l20.23-8a18.44,18.44,0,0,0,11.47-15c.88-7.4,2-16,2.2-17.18l38.86.56c.13,1.13,1,9.81,1.7,17.23A18.43,18.43,0,0,0,176,579.59l20,8.62a18.44,18.44,0,0,0,18.69-2.46c5.85-4.62,12.78-9.91,13.69-10.6L255.46,603l0,0c-.79,1-6.22,7.7-11,13.36a18.46,18.46,0,0,0-3,18.62l8,20.22a18.43,18.43,0,0,0,15,11.48c7.4.87,16.05,2,17.18,2.19l-.25,17.45"/><path class="cls-8" d="M215.55,686.37a73.72,73.72,0,1,0-73.72,73.71"/></g></g></svg>