<svg xmlns="http://www.w3.org/2000/svg" xmlns:xlink="http://www.w3.org/1999/xlink" viewBox="0 0 869.65 833.36"><defs><style>.cls-1,.cls-2,.cls-8,.cls-9{fill:none;}.cls-2,.cls-8{stroke:#000;}.cls-2,.cls-8,.cls-9{stroke-linecap:round;stroke-linejoin:round;}.cls-2{stroke-width:1.5px;}.cls-3{fill:#fff;}.cls-4{fill:#d3e5fb;}.cls-5{fill:#3496f7;}.cls-6{fill:url(#New_Pattern_4);}.cls-7{fill:url(#New_Pattern_3);}.cls-8,.cls-9{stroke-width:4px;}.cls-9{stroke:#fff;}</style><pattern id="New_Pattern_4" data-name="New Pattern 4" width="70" height="50" patternTransform="translate(-50.21 -30.95) scale(1.02)" patternUnits="userSpaceOnUse" viewBox="0 0 70 50"><rect class="cls-1" width="70" height="50"/><path class="cls-2" d="M8.89,100c-.05-7.08.29-14.17.29-21.25,0-4.32-.37-17.48-.29-28.09"/><path class="cls-2" d="M22.94,99.84c0-1.65.09-3.31.09-5,0-2.48-.21-5-.21-7.45s0-3.83.05-7.28c0-1.44-.06-2.9-.06-4.35,0-3.1.31-4.62.31-7.37,0-1.4-.27-4.94-.27-8.33q0-1.61.09-3.21V50.11"/><path class="cls-2" d="M36.74,99.84c0-9.46.33-18.09.33-27.56,0-3.7-.15-7.46-.15-11.2,0-3.35-.1-7.29-.18-10.75"/><path class="cls-2" d="M50.93,99.75c0-1.24-.07-2.75-.07-4,0-1.92,0-3.86,0-5.79,0-3.87,0-7.66,0-11.51a8.42,8.42,0,0,1-.08-1.22c0-.32.18-6.68.18-8,0-2.2-.21-3.25-.21-5.64,0-1.3.06-2.65.17-3.86,0-2.89,0-5.89,0-9.05"/><path class="cls-2" d="M65,99.71c0-8.34-.55-15.73-.36-24.06.18-8.13.16-17.71.36-25.19"/><path class="cls-2" d="M8.89,50c-.05-7.08.29-14.17.29-21.25,0-4.32-.37-17.48-.29-28.09"/><path class="cls-2" d="M22.94,49.84c0-1.65.09-3.31.09-5,0-2.48-.21-5-.21-7.45s0-3.83.05-7.28c0-1.44-.06-2.9-.06-4.35,0-3.1.31-4.62.31-7.37,0-1.4-.27-4.94-.27-8.33q0-1.6.09-3.21V.11"/><path class="cls-2" d="M36.74,49.84c0-9.46.33-18.09.33-27.56,0-3.7-.15-7.46-.15-11.2,0-3.35-.1-7.29-.18-10.75"/><path class="cls-2" d="M50.93,49.75c0-1.24-.07-2.75-.07-4,0-1.92,0-3.86,0-5.79,0-3.87,0-7.66,0-11.51a8.42,8.42,0,0,1-.08-1.22c0-.32.18-6.68.18-8,0-2.2-.21-3.25-.21-5.64,0-1.3.06-2.65.17-3.86,0-2.89,0-5.89,0-9"/><path class="cls-2" d="M65,49.71c0-8.34-.55-15.73-.36-24.06.18-8.13.16-17.71.36-25.19"/><path class="cls-2" d="M8.89,0c-.05-7.08.29-14.17.29-21.25,0-4.32-.37-17.48-.29-28.09"/><path class="cls-2" d="M22.94-.16c0-1.65.09-3.31.09-5,0-2.48-.21-5-.21-7.45s0-3.83.05-7.28c0-1.44-.06-2.9-.06-4.35,0-3.1.31-4.62.31-7.37,0-1.4-.27-4.94-.27-8.33q0-1.61.09-3.21v-6.71"/><path class="cls-2" d="M36.74-.16c0-9.46.33-18.09.33-27.56,0-3.7-.15-7.46-.15-11.2,0-3.35-.1-7.29-.18-10.75"/><path class="cls-2" d="M50.93-.25c0-1.24-.07-2.75-.07-4,0-1.92,0-3.86,0-5.79,0-3.87,0-7.66,0-11.51a8.42,8.42,0,0,1-.08-1.22c0-.32.18-6.68.18-8,0-2.2-.21-3.25-.21-5.64,0-1.3.06-2.65.17-3.86,0-2.89,0-5.89,0-9.05"/><path class="cls-2" d="M65-.29c0-8.34-.55-15.73-.36-24.06.18-8.13.16-17.71.36-25.19"/></pattern><pattern id="New_Pattern_3" data-name="New Pattern 3" width="40" height="40" patternTransform="translate(-39.98 -41.18) scale(1.02)" patternUnits="userSpaceOnUse" viewBox="0 0 40 40"><rect class="cls-1" width="40" height="40"/><path d="M36.18,30a1.9,1.9,0,0,0,1.91,1.91V28.09A1.9,1.9,0,0,0,36.18,30Z"/><path d="M40,33.82a1.9,1.9,0,0,0,1.91-1.91H38.09A1.9,1.9,0,0,0,40,33.82Z"/><path d="M40,26.18a1.9,1.9,0,0,0-1.91,1.91h3.82A1.9,1.9,0,0,0,40,26.18Z"/><path d="M16.18,40a1.9,1.9,0,0,0,1.91,1.91V38.09A1.9,1.9,0,0,0,16.18,40Z"/><path d="M21.91,38.09v3.82a1.91,1.91,0,0,0,0-3.82Z"/><path d="M20,36.18a1.9,1.9,0,0,0-1.91,1.91h3.82A1.9,1.9,0,0,0,20,36.18Z"/><path d="M1.91,28.09v3.82a1.91,1.91,0,0,0,0-3.82Z"/><path d="M36.18,10a1.9,1.9,0,0,0,1.91,1.91V8.09A1.9,1.9,0,0,0,36.18,10Z"/><path d="M40,13.82a1.9,1.9,0,0,0,1.91-1.91H38.09A1.9,1.9,0,0,0,40,13.82Z"/><path d="M40,6.18a1.9,1.9,0,0,0-1.91,1.91h3.82A1.9,1.9,0,0,0,40,6.18Z"/><path d="M18.79,16.37a1.92,1.92,0,0,0-1.21,2.42l3.63-1.21A1.92,1.92,0,0,0,18.79,16.37Z"/><path d="M22.42,21.21l-3.63,1.21a1.91,1.91,0,0,0,3.63-1.21Z"/><path d="M16.37,21.21a1.92,1.92,0,0,0,2.42,1.21l-1.21-3.63A1.92,1.92,0,0,0,16.37,21.21Z"/><path d="M23.63,18.79a1.92,1.92,0,0,0-2.42-1.21l1.21,3.63A1.92,1.92,0,0,0,23.63,18.79Z"/><path d="M1.91,8.09v3.82a1.91,1.91,0,0,0,0-3.82Z"/><path d="M20,3.82a1.9,1.9,0,0,0,1.91-1.91H18.09A1.9,1.9,0,0,0,20,3.82Z"/><path d="M0,33.82a1.9,1.9,0,0,0,1.91-1.91H-1.91A1.9,1.9,0,0,0,0,33.82Z"/><path d="M0,26.18a1.9,1.9,0,0,0-1.91,1.91H1.91A1.9,1.9,0,0,0,0,26.18Z"/><path d="M0,13.82a1.9,1.9,0,0,0,1.91-1.91H-1.91A1.9,1.9,0,0,0,0,13.82Z"/><path d="M0,6.18A1.9,1.9,0,0,0-1.91,8.09H1.91A1.9,1.9,0,0,0,0,6.18Z"/><path d="M16.18,0a1.9,1.9,0,0,0,1.91,1.91V-1.91A1.9,1.9,0,0,0,16.18,0Z"/><path d="M21.91-1.91V1.91A1.9,1.9,0,0,0,23.82,0,1.9,1.9,0,0,0,21.91-1.91Z"/></pattern></defs><g id="Layer_2" data-name="Layer 2"><g id="illustrations"><path class="cls-3" d="M810.44,260.44c17.33,1.15,15.29,19.16,7.54,26.77-16.64,16.35-31.85,33.07-47.53,51.72a95.15,95.15,0,0,1-69.1,33.74l-133.82,5.27a89.42,89.42,0,0,1-69.3-32.72l-18.15-22,64.3-57.55,15,18.27a21.46,21.46,0,0,0,16.54,7.8h89.27a36.8,36.8,0,0,0,32-18.69,119.12,119.12,0,0,0,12.3-31.47A16.17,16.17,0,0,1,738,235.3a38.58,38.58,0,0,0,.32,23.52q-1.85,6-4.15,11.8A22.08,22.08,0,0,0,738.65,294c.31.33,2.31,2.36,2.31,2.36a10.79,10.79,0,0,0,15.26.11c3.86-3.79,8.4-8,12.87-11.95a38.36,38.36,0,0,0,41.35-24.05Z"/><path d="M867.65,614.63q0,5.19-.37,10.3c-29.24,10.28-50.6,31.72-71.14,31.72-5.61,0-10.68-1-10.68-6.54,0-28.94,43.28-51.1,61.64-70.05,5-5.17,9-9.64,12.12-13.62A140.91,140.91,0,0,1,867.65,614.63Z"/><path class="cls-4" d="M746.57,220.48A38.23,38.23,0,1,1,738,235.3,38.19,38.19,0,0,1,746.57,220.48Z"/><path class="cls-3" d="M859.22,566.44c-3.16,4-7.1,8.45-12.12,13.62-18.36,19-61.64,41.11-61.64,70.05,0,5.54,5.07,6.54,10.68,6.54,20.54,0,41.9-21.44,71.14-31.72A140.34,140.34,0,0,1,843.94,693c-46,3.28-70,32.93-89.66,32.93-43.43,0-4.4-43.83-55.94-43.83-25.7,0-44.73,14.47-68.24,36a140.85,140.85,0,0,1-40.16-66.51c22.29-21.79,50.08-51.76,86.65-51.76,38.17,0,12.46,35.58,51.54,35.58,40.39,0,32.32-68.44,105.77-112.4A141.3,141.3,0,0,1,859.22,566.44Z"/><path d="M812.93,172.91H798a84.86,84.86,0,0,0-11.44-42.7l13-7.49A99.92,99.92,0,0,1,812.93,172.91Z"/><path class="cls-4" d="M785,486A141.47,141.47,0,0,1,833.9,523c-73.45,44-65.38,112.4-105.77,112.4-39.08,0-13.37-35.58-51.54-35.58-36.57,0-64.36,30-86.65,51.76a141.79,141.79,0,0,1,2.48-82.1H688.9v-91.1a137.43,137.43,0,0,1,22.63-4.26c4.85,18.21,30.91,17.15,30.91,35.76,0,7.25-15.77,21.25-15.77,32,0,6.38,6.85,8.56,13.09,8.56C765.1,550.4,772.38,517.11,785,486Z"/><path class="cls-5" d="M843.94,693A141.29,141.29,0,0,1,630.1,718.07c23.51-21.49,42.54-36,68.24-36,51.54,0,12.51,43.83,55.94,43.83C774,725.94,797.92,696.29,843.94,693Z"/><path class="cls-3" d="M799.5,122.72l-13,7.49a85.62,85.62,0,0,0-31.26-31.27l7.48-13A100.92,100.92,0,0,1,799.5,122.72Z"/><path class="cls-5" d="M798,172.91H734.05a21.43,21.43,0,0,0-6.27-15.17l8.12-42a2,2,0,0,0-3.71-1.38l-21.25,37.1v0a21.48,21.48,0,0,0-19.86,21.41H627.16a85.41,85.41,0,1,1,170.81,0Z"/><path class="cls-3" d="M791.23,42.92a40.92,40.92,0,0,1-33.66,40.26h0a100.41,100.41,0,0,0-91.26.66v0H522.8V2H750.31A40.92,40.92,0,0,1,791.23,42.92Z"/><path d="M762.75,86l-7.48,13a85,85,0,0,0-42.7-11.43v-15a99.77,99.77,0,0,1,45,10.64C759.32,84.06,761.05,85,762.75,86Z"/><path class="cls-3" d="M785,486c-12.59,31.07-19.87,64.36-45.21,64.36-6.24,0-13.09-2.18-13.09-8.56,0-10.73,15.77-24.73,15.77-32,0-18.61-26.06-17.55-30.91-35.76a142.2,142.2,0,0,1,14.82-.77A140.66,140.66,0,0,1,785,486Z"/><path class="cls-3" d="M734.93,113.64a2,2,0,0,1,1,2.12l-8.12,42a21.42,21.42,0,0,0-15.21-6.31c-.55,0-1.1,0-1.63.07v0l21.25-37.1A2,2,0,0,1,734.93,113.64Z"/><path class="cls-3" d="M727.78,157.74a21.49,21.49,0,1,1-16.84-6.24c.53-.05,1.08-.07,1.63-.07A21.42,21.42,0,0,1,727.78,157.74Z"/><path class="cls-3" d="M712.57,72.55v15a85,85,0,0,0-42.71,11.43l-7.48-13c1.29-.74,2.59-1.46,3.92-2.13A99.72,99.72,0,0,1,712.57,72.55Z"/><path d="M688.9,478.36v91.1H592.42A141.58,141.58,0,0,1,688.9,478.36Z"/><path class="cls-5" d="M688.9,424.34v54a141.58,141.58,0,0,0-96.48,91.1H543.79V424.34Z"/><polygon class="cls-6" points="537.1 703.06 665.39 831.36 537.1 831.36 537.1 703.06"/><path d="M662.38,86l7.48,13a85.72,85.72,0,0,0-31.27,31.27l-13-7.49A100.84,100.84,0,0,1,662.38,86Z"/><path class="cls-3" d="M625.63,122.72l13,7.49a85,85,0,0,0-11.43,42.7h-15A99.92,99.92,0,0,1,625.63,122.72Z"/><path class="cls-4" d="M240,313.35l-12.3,29.79-75.3-43.58,34.83-84.33C198.45,187.9,217,173,234.78,164.55c19.26-9.13,41.66-7.08,59.73,4.24,19.57,12.25,46.25,7.83,60.92-9.78,15.6-18.73,40.46-27.2,63.85-20.3,15.52,4.6,32,13.85,46.48,31.48l78.62,95.45-64.3,57.55-61.72-74.93V348.91H245.05Z"/><path d="M482.18,49a13.65,13.65,0,1,0-4-9.66,13.58,13.58,0,0,0,4,9.66ZM522.8,2V83.83H487.45a40.92,40.92,0,1,1,0-81.83Z"/><path class="cls-5" d="M352.83,466.07V689.92l42.51-129.23ZM323.53,779H245.05V348.91H418.36l76.92,171.24a97.38,97.38,0,0,1,3.5,71.09L430.09,795.82Z"/><path d="M491.82,25.7A13.65,13.65,0,1,1,482.18,49h0a13.64,13.64,0,0,1,9.64-23.29Z"/><path d="M462.56,819.41v12H306.31L323.53,779l106.56,16.81C438.43,809,447.09,815.26,462.56,819.41Z"/><path class="cls-3" d="M323.36,53.16a43.82,43.82,0,1,1-35.69,75.89A67.64,67.64,0,0,0,323.4,53.61v0C323.39,53.43,323.38,53.29,323.36,53.16Z"/><path d="M323.4,53.61a67.64,67.64,0,0,1-35.73,75.44h0a43.85,43.85,0,0,1-1-64.09A19.79,19.79,0,1,1,320.86,45a71,71,0,0,1,2.45,8.11l.09.41Z"/><polygon points="323.53 779.01 306.31 831.36 245.05 831.36 245.05 779.01 323.53 779.01"/><path class="cls-3" d="M227.65,343.14l-22.81,55.24a59.09,59.09,0,0,1-95.92,19.72L33.59,331.7A128.22,128.22,0,0,1,4.47,222.4c4-20.22,8.08-42.25,10.69-60.64a14.15,14.15,0,0,1,28.17,2v2.65a38.42,38.42,0,0,0,.33,43.54A113.28,113.28,0,0,0,43.43,223a15.73,15.73,0,0,0,25.29,11.8q6.3-4.85,12.38-9A38.21,38.21,0,0,0,103,214.18a13.48,13.48,0,0,1,12.67,7.27A13.75,13.75,0,0,1,110,239.58c-1,.52-1.9,1.07-2.85,1.62a30.88,30.88,0,0,0-6,48.73L138,326a2.31,2.31,0,0,0,3.76-.76l10.58-25.64Z"/><path class="cls-4" d="M194,415.55v91.7H120.39a58.17,58.17,0,0,0-58.17-58.17v-39h39.7l7,8A59.11,59.11,0,0,0,194,415.55Z"/><path d="M120.39,507.25H62.22V449.08A58.17,58.17,0,0,1,120.39,507.25Z"/><path class="cls-7" d="M62.22,507.25h58.17a58.17,58.17,0,1,1-58.17-58.17Z"/><path class="cls-5" d="M103.18,161.87A38.34,38.34,0,0,1,81.1,225.81a37.67,37.67,0,0,1-6,.48,38.35,38.35,0,1,1,28.12-64.42Z"/><polyline class="cls-8" points="306.31 831.36 395.34 560.69 327.68 410.08"/><line class="cls-8" x1="352.83" y1="689.92" x2="352.83" y2="466.07"/><path class="cls-8" d="M430.09,795.82l68.69-204.58a97.38,97.38,0,0,0-3.5-71.09L418.36,348.91H245.05V831.36"/><line class="cls-8" x1="190" y1="831.36" x2="813.03" y2="831.36"/><line class="cls-8" x1="245.05" y1="348.91" x2="230.18" y2="245.26"/><path class="cls-8" d="M245.05,779h78.48l106.56,16.81c8.34,13.17,17,19.44,32.47,23.59v12"/><path class="cls-8" d="M240,313.35l-35.11,85a59.09,59.09,0,0,1-95.92,19.72L33.59,331.7A128.22,128.22,0,0,1,4.47,222.4c4-20.22,8.08-42.25,10.69-60.64a14.15,14.15,0,0,1,28.17,2v2.65"/><path class="cls-8" d="M810.44,260.44a38.36,38.36,0,1,0-35.75,24.46A38.31,38.31,0,0,0,810.44,260.44Z"/><line class="cls-8" x1="774.69" y1="246.55" x2="746.57" y2="220.48"/><path class="cls-8" d="M43.66,209.94A38.34,38.34,0,1,1,81.1,225.81a37.67,37.67,0,0,1-6,.48A38.29,38.29,0,0,1,43.66,209.94Z"/><line class="cls-8" x1="75.06" y1="187.94" x2="103.18" y2="161.87"/><path class="cls-8" d="M43.66,209.94A113.28,113.28,0,0,0,43.43,223a15.73,15.73,0,0,0,25.29,11.8q6.3-4.85,12.38-9"/><path class="cls-8" d="M418.36,348.91V248.26l79.87,97a89.42,89.42,0,0,0,69.3,32.72l133.82-5.27a95.15,95.15,0,0,0,69.1-33.74c15.68-18.65,30.89-35.37,47.53-51.72,7.75-7.61,9.79-25.62-7.54-26.77"/><path class="cls-8" d="M738.34,258.82q-1.85,6-4.15,11.8A22.08,22.08,0,0,0,738.65,294c.31.33,2.31,2.36,2.31,2.36a10.79,10.79,0,0,0,15.26.11c3.86-3.79,8.4-8,12.87-11.95"/><path class="cls-8" d="M734.05,172.91h78.88A100.29,100.29,0,0,0,762.75,86q-2.55-1.47-5.19-2.79a100.41,100.41,0,0,0-91.26.66c-1.33.68-2.63,1.39-3.92,2.13a100.29,100.29,0,0,0-50.18,86.93h78.88"/><path class="cls-8" d="M627.16,172.91a85,85,0,0,1,11.43-42.7,85.87,85.87,0,0,1,31.27-31.27,85.41,85.41,0,0,1,128.11,74"/><path class="cls-8" d="M734.05,172.91a21.48,21.48,0,0,0-21.48-21.48c-.55,0-1.1,0-1.63.07a21.48,21.48,0,1,0,23.11,21.41Z"/><path class="cls-8" d="M710.94,151.48l21.25-37.1a2,2,0,0,1,3.71,1.38l-8.12,42"/><path class="cls-8" d="M666.3,83.83H487.45a40.92,40.92,0,1,1,0-81.83H750.31a40.91,40.91,0,0,1,7.26,81.18"/><line class="cls-8" x1="522.8" y1="2" x2="522.8" y2="83.83"/><path class="cls-9" d="M482.18,49a13.65,13.65,0,1,0-4-9.66,13.58,13.58,0,0,0,4,9.66Z"/><polyline class="cls-9" points="482.18 48.99 482.18 49 470.21 60.96"/><line class="cls-8" x1="480.08" y1="323.19" x2="544.38" y2="265.64"/><line class="cls-8" x1="152.35" y1="299.56" x2="227.65" y2="343.14"/><path class="cls-8" d="M103,214.18a13.48,13.48,0,0,1,12.67,7.27A13.75,13.75,0,0,1,110,239.58c-1,.52-1.9,1.07-2.85,1.62a30.88,30.88,0,0,0-6,48.73L138,326a2.31,2.31,0,0,0,3.76-.76l45.41-110C198.45,187.9,217,173,234.78,164.55c19.26-9.13,41.66-7.08,59.73,4.24,19.57,12.25,46.25,7.83,60.92-9.78,15.6-18.73,40.46-27.2,63.85-20.3,15.52,4.6,32,13.85,46.48,31.48l93.66,113.72a21.46,21.46,0,0,0,16.54,7.8h89.27a36.8,36.8,0,0,0,32-18.69,119.12,119.12,0,0,0,12.3-31.47A16.17,16.17,0,0,1,738,235.3"/><path class="cls-8" d="M323.4,53.56l-.09-.41A81.66,81.66,0,0,0,320.86,45l0-.08"/><path class="cls-8" d="M287.67,129.05A67.64,67.64,0,0,0,323.4,53.61"/><path class="cls-8" d="M323.4,53.61v0c0-.13,0-.27,0-.4A19.79,19.79,0,1,0,286.65,65a43.85,43.85,0,0,0,1,64.09h0a43.82,43.82,0,1,0,35.69-75.89h-.05"/><polyline class="cls-8" points="193.98 415.55 193.98 507.25 62.22 507.25 62.22 410.08 101.92 410.08"/><circle class="cls-8" cx="62.22" cy="507.25" r="58.17"/><polyline class="cls-8" points="537.1 831.36 537.1 703.06 665.39 831.36"/><path class="cls-8" d="M867.28,624.93q.38-5.11.37-10.3A141.38,141.38,0,0,0,711.53,474.1a138.49,138.49,0,0,0-22.63,4.26A141.33,141.33,0,1,0,867.28,624.93Z"/><polygon class="cls-8" points="688.9 478.36 688.9 569.46 543.79 569.46 543.79 424.34 688.9 424.34 688.9 478.36"/><line class="cls-8" x1="625.63" y1="122.72" x2="638.59" y2="130.21"/><line class="cls-8" x1="669.86" y1="98.94" x2="662.38" y2="85.98"/><line class="cls-8" x1="712.57" y1="72.55" x2="712.57" y2="87.51"/><line class="cls-8" x1="755.27" y1="98.94" x2="762.75" y2="85.98"/><line class="cls-8" x1="786.53" y1="130.21" x2="799.5" y2="122.72"/><path class="cls-8" d="M589.92,651.57h0c22.29-21.79,50.08-51.76,86.65-51.76,38.17,0,12.46,35.58,51.54,35.58,40.39,0,32.32-68.44,105.77-112.4"/><path class="cls-8" d="M630.09,718.08h0c23.51-21.49,42.54-36,68.24-36,51.54,0,12.51,43.83,55.94,43.83,19.71,0,43.64-29.65,89.66-32.93"/><path class="cls-8" d="M859.22,566.44c-3.16,4-7.1,8.45-12.12,13.62-18.36,19-61.64,41.11-61.64,70.05,0,5.54,5.07,6.54,10.68,6.54,20.54,0,41.9-21.44,71.14-31.72"/><path class="cls-8" d="M711.53,474.1c4.85,18.21,30.91,17.15,30.91,35.76,0,7.25-15.77,21.25-15.77,32,0,6.38,6.85,8.56,13.09,8.56,25.34,0,32.62-33.29,45.21-64.36v0"/></g></g></svg>