<svg xmlns="http://www.w3.org/2000/svg" xmlns:xlink="http://www.w3.org/1999/xlink" viewBox="0 0 889.39 799.35"><defs><style>.cls-1,.cls-4{fill:none;}.cls-2{fill:#3496f7;}.cls-3,.cls-5{fill:#fff;}.cls-4,.cls-5,.cls-6,.cls-8{stroke:#000;stroke-linecap:round;stroke-linejoin:round;stroke-width:4px;}.cls-6{fill:url(#New_Pattern_3);}.cls-7{fill:#d3e5fb;}</style><pattern id="New_Pattern_3" data-name="New Pattern 3" width="40" height="40" patternTransform="translate(-2480.02 -232.88)" patternUnits="userSpaceOnUse" viewBox="0 0 40 40"><rect class="cls-1" width="40" height="40"/><path d="M36.18,30a1.9,1.9,0,0,0,1.91,1.91V28.09A1.9,1.9,0,0,0,36.18,30Z"/><path d="M40,33.82a1.9,1.9,0,0,0,1.91-1.91H38.09A1.9,1.9,0,0,0,40,33.82Z"/><path d="M40,26.18a1.9,1.9,0,0,0-1.91,1.91h3.82A1.9,1.9,0,0,0,40,26.18Z"/><path d="M16.18,40a1.9,1.9,0,0,0,1.91,1.91V38.09A1.9,1.9,0,0,0,16.18,40Z"/><path d="M21.91,38.09v3.82a1.91,1.91,0,0,0,0-3.82Z"/><path d="M20,36.18a1.9,1.9,0,0,0-1.91,1.91h3.82A1.9,1.9,0,0,0,20,36.18Z"/><path d="M1.91,28.09v3.82a1.91,1.91,0,0,0,0-3.82Z"/><path d="M36.18,10a1.9,1.9,0,0,0,1.91,1.91V8.09A1.9,1.9,0,0,0,36.18,10Z"/><path d="M40,13.82a1.9,1.9,0,0,0,1.91-1.91H38.09A1.9,1.9,0,0,0,40,13.82Z"/><path d="M40,6.18a1.9,1.9,0,0,0-1.91,1.91h3.82A1.9,1.9,0,0,0,40,6.18Z"/><path d="M18.79,16.37a1.92,1.92,0,0,0-1.21,2.42l3.63-1.21A1.92,1.92,0,0,0,18.79,16.37Z"/><path d="M22.42,21.21l-3.63,1.21a1.91,1.91,0,0,0,3.63-1.21Z"/><path d="M16.37,21.21a1.92,1.92,0,0,0,2.42,1.21l-1.21-3.63A1.92,1.92,0,0,0,16.37,21.21Z"/><path d="M23.63,18.79a1.92,1.92,0,0,0-2.42-1.21l1.21,3.63A1.92,1.92,0,0,0,23.63,18.79Z"/><path d="M1.91,8.09v3.82a1.91,1.91,0,0,0,0-3.82Z"/><path d="M20,3.82a1.9,1.9,0,0,0,1.91-1.91H18.09A1.9,1.9,0,0,0,20,3.82Z"/><path d="M0,33.82a1.9,1.9,0,0,0,1.91-1.91H-1.91A1.9,1.9,0,0,0,0,33.82Z"/><path d="M0,26.18a1.9,1.9,0,0,0-1.91,1.91H1.91A1.9,1.9,0,0,0,0,26.18Z"/><path d="M0,13.82a1.9,1.9,0,0,0,1.91-1.91H-1.91A1.9,1.9,0,0,0,0,13.82Z"/><path d="M0,6.18A1.9,1.9,0,0,0-1.91,8.09H1.91A1.9,1.9,0,0,0,0,6.18Z"/><path d="M16.18,0a1.9,1.9,0,0,0,1.91,1.91V-1.91A1.9,1.9,0,0,0,16.18,0Z"/><path d="M21.91-1.91V1.91A1.9,1.9,0,0,0,23.82,0,1.9,1.9,0,0,0,21.91-1.91Z"/></pattern></defs><g id="Layer_2" data-name="Layer 2"><g id="illustrations"><circle class="cls-2" cx="108.91" cy="280.17" r="69.39" transform="translate(-166.21 159.07) rotate(-45)"/><polygon points="887.39 490.64 832.72 545.31 778.16 534.39 832.81 479.74 887.39 490.64"/><path class="cls-2" d="M752.37,560.19a138.93,138.93,0,1,1-196.49,0A138.91,138.91,0,0,1,752.37,560.19Zm-32.76,32.75a92.61,92.61,0,1,0,0,131A92.6,92.6,0,0,0,719.61,592.94Z"/><path class="cls-3" d="M719.61,592.94a92.61,92.61,0,1,1-131,0A92.59,92.59,0,0,1,719.61,592.94Zm-32.74,32.74a46.31,46.31,0,1,0,0,65.49A46.31,46.31,0,0,0,686.87,625.68Z"/><path class="cls-2" d="M686.87,625.68a46.31,46.31,0,1,1-65.5,0A46.31,46.31,0,0,1,686.87,625.68Z"/><polygon points="832.81 479.74 778.16 534.39 767.23 479.82 821.9 425.15 832.81 479.74"/><polygon class="cls-4" points="778.16 534.39 832.72 545.31 887.39 490.64 832.81 479.74 821.9 425.15 767.23 479.82 778.16 534.39"/><path class="cls-4" d="M752.35,756.66a138.93,138.93,0,1,0-196.46,0A138.91,138.91,0,0,0,752.35,756.66Z"/><path class="cls-4" d="M686.86,691.17a46.31,46.31,0,1,0-65.48,0A46.31,46.31,0,0,0,686.86,691.17Z"/><path class="cls-4" d="M719.6,723.91a92.61,92.61,0,1,0-131,0A92.59,92.59,0,0,0,719.6,723.91Z"/><path class="cls-5" d="M654.12,666.12A7.69,7.69,0,0,1,648.69,653L827.38,474.3a7.69,7.69,0,1,1,10.87,10.87L659.56,663.87A7.67,7.67,0,0,1,654.12,666.12Z"/><path class="cls-5" d="M655.08,127.52c3.49,19.2,20.4,33.38,39.91,32.7.6,0,1.21,0,1.81,0,35.19,0,56.7,31.47,52.21,61.08-2.13,14.09,7,27.26,20.78,31a77.25,77.25,0,0,1,57,73.5c.55,43-35.24,78.18-78.23,78.18H176.2A77.17,77.17,0,0,1,99,326.8c0-39.2,28.22-69,62.4-75.77a51.91,51.91,0,0,0,41.08-42.82c7-43.23,44.14-79.12,92.78-79.12A94.16,94.16,0,0,1,318,131.87c25.57,6.36,52.14-6.69,61.78-31.2A143.78,143.78,0,0,1,513.63,9.48C585.5,9.48,643.09,61.56,655.08,127.52Z"/><path class="cls-6" d="M655.08,127.52c3.49,19.2,20.4,33.38,39.91,32.7.6,0,1.21,0,1.81,0,35.19,0,56.7,31.47,52.21,61.08-2.13,14.09,7,27.26,20.78,31a77.25,77.25,0,0,1,57,73.5c.55,43-35.24,78.18-78.23,78.18H176.2A77.17,77.17,0,0,1,99,326.8c0-39.2,28.22-69,62.4-75.77a51.91,51.91,0,0,0,41.08-42.82c7-43.23,44.14-79.12,92.78-79.12A94.16,94.16,0,0,1,318,131.87c25.57,6.36,52.14-6.69,61.78-31.2A143.78,143.78,0,0,1,513.63,9.48C585.5,9.48,643.09,61.56,655.08,127.52Z"/><circle class="cls-2" cx="108.91" cy="280.17" r="69.39" transform="translate(-166.21 159.07) rotate(-45)"/><path d="M178.3,280.17a69,69,0,0,0-7.74-31.85,52.3,52.3,0,0,1-9.13,2.71C127.25,257.84,99,287.6,99,326.8a77,77,0,0,0,3.33,22.44c2.16.2,4.34.32,6.55.32A69.39,69.39,0,0,0,178.3,280.17Z"/><path d="M250,52.85l-27.75-7.54a16,16,0,0,1-11.17-11.12s-7.53-27.81-7.53-27.81L196,34.13a16,16,0,0,1-11.17,11.18l-27.77,7.54,27.77,7.54A16,16,0,0,1,196,71.57l7.54,27.76s7.52-27.77,7.53-27.82a16,16,0,0,1,11.17-11.12Z"/><path class="cls-7" d="M241.69,46.47l-27.75-7.54a16,16,0,0,1-11.17-11.12L195.24,0,187.7,27.75a16,16,0,0,1-11.17,11.18l-27.77,7.54L176.53,54A16,16,0,0,1,187.7,65.2L195.24,93l7.53-27.81A16,16,0,0,1,213.94,54Z"/><path class="cls-7" d="M558,332.32c0-.77-.07-1.55-.13-2.32a29.57,29.57,0,0,0-40-25.42c-25.11,9.63-48.69,18.31-71.54,26.27h0l17.13,13a56.89,56.89,0,0,0,59.6,5.72Zm-4,29.54a103.05,103.05,0,0,1-12.87,26.32c-22.63,33.69-67.14,62.95-129.12,81.53A242.23,242.23,0,0,1,397,507.84q-3.94,7.95-8.45,15.58h0l.44.67a44,44,0,0,0,23.28,17.62v0a44.64,44.64,0,0,0-1.19,33,43.67,43.67,0,0,0,5,9.89,44.57,44.57,0,0,0,13,12.78,43.17,43.17,0,0,0,2.66,43.56l1.67,2.49a43.16,43.16,0,0,0,36.47,19.18h0a93.46,93.46,0,0,1-59.28,66v61.59H23C47.17,618,85.13,477.85,163.76,369.57a236.38,236.38,0,0,1,191.35-97.21H706.92c25.1,0,46.12,20.53,45.64,45.62a44.76,44.76,0,0,1-44.75,43.88Z"/><path class="cls-7" d="M576.62,547.56a43.2,43.2,0,0,1-11.87,59.94l-58.08,38.88A58.52,58.52,0,0,0,427.6,632.3l-.29.11a43.27,43.27,0,0,1,1.77-35,44.75,44.75,0,0,0,49-.49l80.43-54.8a44.3,44.3,0,0,0,7.73-6.56,43,43,0,0,1,8.69,9.54Z"/><path class="cls-7" d="M463.13,528.34s92.31-61.32,93.18-62a44.74,44.74,0,0,1,2.22,75.74L490.09,588.7a58.58,58.58,0,0,0-79-14,44.64,44.64,0,0,1,1.19-33v0A44.55,44.55,0,0,0,451,536.37Z"/><path class="cls-7" d="M565.89,406.26a44.73,44.73,0,0,1-9.58,60.08q-1.3,1-2.7,2l-90.48,60.05A58.57,58.57,0,0,0,397,507.84h0a242.23,242.23,0,0,0,15.05-38.13c62-18.58,106.49-47.84,129.12-81.53A44.47,44.47,0,0,1,565.89,406.26Z"/><path class="cls-3" d="M558,332.32l-35,17.27a56.89,56.89,0,0,1-59.6-5.72l-17.13-13h0c22.85-8,46.43-16.64,71.54-26.27a29.57,29.57,0,0,1,40,25.42C557.93,330.77,558,331.55,558,332.32Z"/><path class="cls-3" d="M506.67,646.38l-13.32,8.91a43.18,43.18,0,0,1-59.94-11.87l-1.67-2.49a43.2,43.2,0,0,1-4.43-8.52l.29-.11a58.52,58.52,0,0,1,79.07,14.08Z"/><path class="cls-3" d="M490.09,588.7l-12,8.18a44.67,44.67,0,0,1-62-12.29,43.67,43.67,0,0,1-5-9.89,58.58,58.58,0,0,1,79,14Z"/><path class="cls-3" d="M463.13,528.34l-12.09,8a44.55,44.55,0,0,1-38.75,5.34A44,44,0,0,1,389,524.09l-.44-.67h0q4.5-7.62,8.45-15.58h0a58.57,58.57,0,0,1,66.12,20.5Z"/><path class="cls-4" d="M332.35,721.34a93.22,93.22,0,0,0,137.53-58.73"/><path class="cls-4" d="M554.05,361.86H707.81A44.76,44.76,0,0,0,752.56,318c.48-25.09-20.54-45.62-45.64-45.62H355.11a236.38,236.38,0,0,0-191.35,97.21C85.13,477.85,47.17,618,23,790.16H410.6v-61.6"/><path class="cls-4" d="M220.76,640A244.45,244.45,0,0,0,388.55,523.42q4.5-7.62,8.45-15.58a243.2,243.2,0,0,0,15.05-38.13c62-18.58,106.51-47.83,129.12-81.53A102.89,102.89,0,0,0,554,361.86a86.52,86.52,0,0,0,4-29.54c0-.77-.07-1.55-.13-2.32a29.57,29.57,0,0,0-40-25.42c-25.11,9.63-48.69,18.31-71.54,26.27-48.23,16.8-93.24,30.38-142.71,42.72"/><path class="cls-4" d="M566.26,535.52a43,43,0,0,1,8.69,9.54l1.67,2.5a43.2,43.2,0,0,1-11.87,59.94l-71.4,47.79a43.18,43.18,0,0,1-59.94-11.87l-1.67-2.49a43.17,43.17,0,0,1-2.66-43.56"/><path class="cls-4" d="M506.67,646.38A58.52,58.52,0,0,0,427.6,632.3"/><path class="cls-4" d="M556.31,466.34a44.74,44.74,0,0,1,2.22,75.74l-80.43,54.8a44.67,44.67,0,0,1-62-12.29,44.09,44.09,0,0,1-5-9.89,44.78,44.78,0,0,1,1.19-33"/><path class="cls-4" d="M490.09,588.7a58.58,58.58,0,0,0-79-14h0"/><path class="cls-4" d="M463.15,528.35h0A58.57,58.57,0,0,0,397,507.84"/><path class="cls-4" d="M388.57,523.42l.44.67a44.07,44.07,0,0,0,23.28,17.62A44.55,44.55,0,0,0,451,536.37s104.4-69.35,105.27-70a44.72,44.72,0,0,0-15.14-78.16"/><path class="cls-4" d="M446.28,330.86l17.13,13a56.89,56.89,0,0,0,59.6,5.72l35-17.27h0"/><polygon class="cls-2" points="714.99 14.38 573.27 212.97 442.05 155.56 625.9 56.38 381.72 129.16 288.12 88.22 714.99 14.38"/><polygon class="cls-2" points="625.9 56.38 442.05 155.56 407.78 250.31 381.72 129.16 625.9 56.38"/><polygon points="442.05 155.56 498.64 180.33 407.78 250.31 442.05 155.56"/><polyline class="cls-4" points="381.72 129.16 288.12 88.22 714.99 14.38 573.27 212.97 442.05 155.56"/><polygon class="cls-4" points="442.05 155.56 625.9 56.38 381.72 129.16 407.78 250.31 442.05 155.56"/><line class="cls-4" x1="407.78" y1="250.31" x2="498.64" y2="180.33"/><rect class="cls-4" x="122.08" y="111.44" width="41.12" height="41.12" transform="translate(-51.56 139.52) rotate(-45)"/><rect class="cls-8" x="2" y="753.14" width="409.09" height="37.02"/></g></g></svg>