<svg xmlns="http://www.w3.org/2000/svg" xmlns:xlink="http://www.w3.org/1999/xlink" viewBox="0 0 890.03 866.57"><defs><style>.cls-1,.cls-6,.cls-9{fill:none;}.cls-2,.cls-8{fill:#3496f7;}.cls-3,.cls-5{fill:#fff;}.cls-3,.cls-9{stroke:#fff;}.cls-3{stroke-miterlimit:10;}.cls-4{fill:#d3e5fb;}.cls-6,.cls-8{stroke:#000;}.cls-6,.cls-8,.cls-9{stroke-linecap:round;stroke-linejoin:round;stroke-width:4px;}.cls-7{fill:url(#New_Pattern_3);}</style><pattern id="New_Pattern_3" data-name="New Pattern 3" width="40" height="40" patternTransform="translate(0 30)" patternUnits="userSpaceOnUse" viewBox="0 0 40 40"><rect class="cls-1" width="40" height="40"/><path d="M36.18,30a1.9,1.9,0,0,0,1.91,1.91V28.09A1.9,1.9,0,0,0,36.18,30Z"/><path d="M40,33.82a1.9,1.9,0,0,0,1.91-1.91H38.09A1.9,1.9,0,0,0,40,33.82Z"/><path d="M40,26.18a1.9,1.9,0,0,0-1.91,1.91h3.82A1.9,1.9,0,0,0,40,26.18Z"/><path d="M16.18,40a1.9,1.9,0,0,0,1.91,1.91V38.09A1.9,1.9,0,0,0,16.18,40Z"/><path d="M21.91,38.09v3.82a1.91,1.91,0,0,0,0-3.82Z"/><path d="M20,36.18a1.9,1.9,0,0,0-1.91,1.91h3.82A1.9,1.9,0,0,0,20,36.18Z"/><path d="M1.91,28.09v3.82a1.91,1.91,0,0,0,0-3.82Z"/><path d="M36.18,10a1.9,1.9,0,0,0,1.91,1.91V8.09A1.9,1.9,0,0,0,36.18,10Z"/><path d="M40,13.82a1.9,1.9,0,0,0,1.91-1.91H38.09A1.9,1.9,0,0,0,40,13.82Z"/><path d="M40,6.18a1.9,1.9,0,0,0-1.91,1.91h3.82A1.9,1.9,0,0,0,40,6.18Z"/><path d="M18.79,16.37a1.92,1.92,0,0,0-1.21,2.42l3.63-1.21A1.92,1.92,0,0,0,18.79,16.37Z"/><path d="M22.42,21.21l-3.63,1.21a1.91,1.91,0,0,0,3.63-1.21Z"/><path d="M16.37,21.21a1.92,1.92,0,0,0,2.42,1.21l-1.21-3.63A1.92,1.92,0,0,0,16.37,21.21Z"/><path d="M23.63,18.79a1.92,1.92,0,0,0-2.42-1.21l1.21,3.63A1.92,1.92,0,0,0,23.63,18.79Z"/><path d="M1.91,8.09v3.82a1.91,1.91,0,0,0,0-3.82Z"/><path d="M20,3.82a1.9,1.9,0,0,0,1.91-1.91H18.09A1.9,1.9,0,0,0,20,3.82Z"/><path d="M0,33.82a1.9,1.9,0,0,0,1.91-1.91H-1.91A1.9,1.9,0,0,0,0,33.82Z"/><path d="M0,26.18a1.9,1.9,0,0,0-1.91,1.91H1.91A1.9,1.9,0,0,0,0,26.18Z"/><path d="M0,13.82a1.9,1.9,0,0,0,1.91-1.91H-1.91A1.9,1.9,0,0,0,0,13.82Z"/><path d="M0,6.18A1.9,1.9,0,0,0-1.91,8.09H1.91A1.9,1.9,0,0,0,0,6.18Z"/><path d="M16.18,0a1.9,1.9,0,0,0,1.91,1.91V-1.91A1.9,1.9,0,0,0,16.18,0Z"/><path d="M21.91-1.91V1.91A1.9,1.9,0,0,0,23.82,0,1.9,1.9,0,0,0,21.91-1.91Z"/></pattern></defs><g id="Layer_2" data-name="Layer 2"><g id="illustrations"><path class="cls-2" d="M720.94,282C900.81,459.06,887.8,826.39,887.83,826.49H63c0-.1-13-367.43,166.88-544.49l1.8-1.74c5.94-5.7,12-11.28,18.3-16.6,37.72-31.79,89.53-39.25,135-21.58,28.53,32.42,40.25,73.12,40.25,73.12l50.42-42.92,39.78,42.92s19-52.36,48.45-72.32h0a137.56,137.56,0,0,1,48.94-10.12,134.3,134.3,0,0,1,35.94,4.14,130.5,130.5,0,0,1,52.12,26.77c6.31,5.32,12.39,10.87,18.3,16.6Z"/><path class="cls-3" d="M769,58.88c11.08,3.27,16.19,19,11.41,35.24-4.42,15-15.8,25.09-26.28,23.87A31.7,31.7,0,1,1,694,137.47c-8.46,13.78-28.79,20-49.14,14a56.06,56.06,0,0,1-13.34-5.91l-61.58,54L614,126.38a29.33,29.33,0,0,1-1.72-20.53C615,97,621.8,90.23,630.82,86.43a43.33,43.33,0,1,1,60.66-60.32,37.92,37.92,0,0,1,71.69,24.55,39,39,0,0,1-3.7,8.53A15.73,15.73,0,0,1,769,58.88Zm-35.66,7.2a17.23,17.23,0,0,0-29.41-12.17l-12.4,12.41L679.12,53.91a17.2,17.2,0,0,0-24.35,0,17.26,17.26,0,0,0,0,24.36L691.54,115l36.77-36.75A17.15,17.15,0,0,0,733.35,66.08Z"/><path class="cls-4" d="M728.31,53.91a17.24,17.24,0,0,1,0,24.36L691.54,115,654.77,78.27A17.23,17.23,0,0,1,667,48.86a17.08,17.08,0,0,1,12.16,5l12.42,12.41,12.4-12.41A17.23,17.23,0,0,1,728.31,53.91Z"/><path class="cls-5" d="M538,134a19.23,19.23,0,0,1,0,38.46h-4V134Z"/><path d="M543.46,253.18a141.53,141.53,0,0,1,20.37-10.3c-29.44,20-48.45,72.32-48.45,72.32L475.6,272.28A129.49,129.49,0,0,0,543.46,253.18Z"/><path d="M534,134v38.46H522.12a63.14,63.14,0,0,0,2.68-15.1,64.68,64.68,0,0,0-3-23.36Z"/><path class="cls-5" d="M521.8,134a64.68,64.68,0,0,1,3,23.36,63.14,63.14,0,0,1-2.68,15.1,64.37,64.37,0,0,1-123.2,0,64.52,64.52,0,0,1,.33-38.46,62.34,62.34,0,0,1,4.82-11.18,65,65,0,0,1,11.33-15,18.83,18.83,0,0,1,25.34-.87c6.42,5.48,12.84,12.53,24.3,12.53,6.66,0,12.17-7.45,19.93-12.12a19,19,0,0,1,24,4,64.19,64.19,0,0,1,8,11.44h0A62.47,62.47,0,0,1,521.8,134Z"/><path d="M517,122.84a64.19,64.19,0,0,0-8-11.44,19,19,0,0,0-24-4c-7.76,4.67-13.27,12.12-19.93,12.12-11.46,0-17.88-7-24.3-12.53a18.83,18.83,0,0,0-25.34.87,65,65,0,0,0-11.33,15h0c7.52-26.62,30-45.93,56.47-45.93S509.47,96.23,517,122.84Z"/><path d="M475.6,272.28,425.18,315.2s-11.72-40.7-40.25-73.12a139.76,139.76,0,0,1,22.41,11.1A130.2,130.2,0,0,0,424,261.79h0a15.12,15.12,0,1,0,28.95,8.58,130.4,130.4,0,0,0,22.25,1.91Z"/><path class="cls-5" d="M453.06,264a15.82,15.82,0,0,1,.28,2.85,16.07,16.07,0,0,1-.39,3.42s0,0,0,.06A15.12,15.12,0,1,1,424,261.79s0-.08.05-.13a15.11,15.11,0,0,1,29,2.38Z"/><path d="M399.24,134h0a64.52,64.52,0,0,0-.33,38.46H387.08V134Z"/><path class="cls-5" d="M387.08,134v38.46H383A19.23,19.23,0,0,1,383,134Z"/><path class="cls-6" d="M563.83,242.88a141.53,141.53,0,0,0-20.37,10.3,129.49,129.49,0,0,1-67.86,19.1h-.41a130.4,130.4,0,0,1-22.25-1.91"/><path class="cls-6" d="M563.86,242.87a137.56,137.56,0,0,1,48.94-10.12,134.3,134.3,0,0,1,35.94,4.14,130.5,130.5,0,0,1,52.12,26.77c6.31,5.32,12.39,10.87,18.3,16.6l1.78,1.74C900.81,459.06,887.8,826.39,887.83,826.49H543.42"/><path class="cls-6" d="M424,261.79a130.2,130.2,0,0,1-16.64-8.61,139.76,139.76,0,0,0-22.41-11.1c-45.47-17.66-97.27-10.21-135,21.58-6.31,5.32-12.36,10.9-18.3,16.6l-1.8,1.74C50,459.06,63,826.39,63,826.49h371"/><path class="cls-6" d="M384.91,242.06l0,0c28.53,32.42,40.25,73.12,40.25,73.12l50.42-42.92,39.78,42.92s19-52.36,48.45-72.32h0"/><path class="cls-6" d="M517,122.84c-7.5-26.61-29.93-45.92-56.45-45.92s-48.95,19.31-56.47,45.93"/><path class="cls-6" d="M404.07,122.85a64.69,64.69,0,0,1,11.33-15,18.83,18.83,0,0,1,25.34-.87c6.42,5.48,12.84,12.53,24.3,12.53,6.66,0,12.17-7.45,19.93-12.12a19,19,0,0,1,24,4,64.19,64.19,0,0,1,8,11.44h0A62.47,62.47,0,0,1,521.8,134a64.93,64.93,0,0,1,3,23.36,63.64,63.64,0,0,1-2.68,15.1A64.38,64.38,0,1,1,399.25,134,63.06,63.06,0,0,1,404.07,122.85Z"/><path class="cls-6" d="M398.91,172.49H383A19.23,19.23,0,0,1,383,134h16.22"/><path class="cls-6" d="M522.12,172.49H538A19.23,19.23,0,0,0,538,134H521.8"/><line class="cls-6" x1="387.08" y1="134.03" x2="387.08" y2="172.49"/><line class="cls-6" x1="533.98" y1="134.03" x2="533.98" y2="172.49"/><path class="cls-6" d="M392.43,134V102.46a56.73,56.73,0,0,1,56.73-56.74h22.23a56.73,56.73,0,0,1,56.73,56.74V134"/><path class="cls-6" d="M527.68,172.49s7.75,69.15-74.67,89.1"/><path class="cls-6" d="M452.94,270.37s0,0,0-.06a16.07,16.07,0,0,0,.39-3.42,15.82,15.82,0,0,0-.28-2.85,15.11,15.11,0,0,0-29-2.38s0,.09-.05.13a15.12,15.12,0,1,0,28.95,8.58Z"/><path class="cls-6" d="M631.56,145.55a56.06,56.06,0,0,0,13.34,5.91c20.35,6,40.68-.21,49.14-14A31.7,31.7,0,1,0,754.14,118c10.48,1.22,21.86-8.87,26.28-23.87,4.78-16.2-.33-32-11.41-35.24a15.73,15.73,0,0,0-9.54.31,39,39,0,0,0,3.7-8.53,37.92,37.92,0,0,0-71.69-24.55,43.32,43.32,0,1,0-60.66,60.32c-9,3.8-15.87,10.54-18.5,19.42A29.33,29.33,0,0,0,614,126.38L570,199.59Z"/><path class="cls-6" d="M691.54,115,654.77,78.27A17.23,17.23,0,0,1,667,48.86a17.08,17.08,0,0,1,12.16,5l12.42,12.41,12.4-12.41a17.23,17.23,0,0,1,24.37,24.36Z"/><path class="cls-5" d="M775,621h0q18.64-21.16,36.48-43.35a209.09,209.09,0,0,0,10,29.71c36.52,85.28-28.28,143.07-28.39,143.19-43,43.74-104.57,33.12-146.24-3.63-19-16.81-33.89-39-40.72-63.85a27,27,0,0,0,16.19-24.46c-3.14-4.12-6.06-8.26-8.86-12.44,25.47,3.24,35.69-28.95,21.46-47,4.46,5.32,9.3,10.71,14.48,16.07a27.31,27.31,0,0,0,6.09-.36,26.93,26.93,0,0,0,0-53.08,44.19,44.19,0,0,1,34.94,7.85c9.4,7,18.68,13.61,27.59,19.65h0C740.78,604.75,761.13,616.46,775,621Z"/><path d="M742.93,461c33.58,19.38,50,53.84,36.63,77-10.8,18.71-37.8,24.29-65.51,15.43-6.57-21.7-20.81-37.11-44.69-37.11-1.86,0-3.73.1-5.61.27-7.93-11.87-11.67-24.64-10.11-36.1h0a45.07,45.07,0,0,0,20.83-20.3,44.93,44.93,0,0,1-23.63-62,44.88,44.88,0,0,1,28.42,40.71A23.35,23.35,0,0,1,709.09,449,94.86,94.86,0,0,1,742.93,461Z"/><path class="cls-2" d="M674.46,460.13a45.07,45.07,0,0,1-20.83,20.3,44.44,44.44,0,0,1-19.26,4.34,44.9,44.9,0,1,1,16.46-86.68,44.93,44.93,0,0,0,23.63,62Z"/><path class="cls-5" d="M655.47,561.79a26.93,26.93,0,0,1,0,53.08,27.31,27.31,0,0,1-6.09.36c-5.18-5.36-10-10.75-14.48-16.07v0q-5.89-7-10.82-14.09c1.58-2.31,3.25-4.59,5-6.87a44.08,44.08,0,0,1,26.42-16.39Z"/><path class="cls-5" d="M718.42,585.91c0,.89,0,1.85-.06,2.87l-.35.51h0c-8.91-6-18.19-12.65-27.59-19.65a44.19,44.19,0,0,0-34.94-7.85h0A44.08,44.08,0,0,0,629,578.18c-1.73,2.28-3.4,4.56-5,6.87-10.4,15.19-16.81,30.65-19.89,45.87a111.47,111.47,0,0,0,1.93,52.16c6.83,24.81,21.67,47,40.72,63.85q-7.87,6.74-15.89,13.36c-7.64-4.38-19.45-11.3-33.48-20.19-27.23-17.23-62.89-41.86-92.79-69.42h0c1.55-39-4.69-76.27-24.77-98.9-19.59-22.09-44.13-26.62-71-17.3,2.4-2.31,5-4.69,7.71-7.15,34.81-31.08,94.66-71.83,132.11-71.83,40.66,0,23,48.51,68.75,48.51,15.78,0,31.23-6.11,46.27-7.47,1.88-.17,3.75-.27,5.61-.27,23.88,0,38.12,15.41,44.69,37.11A113.09,113.09,0,0,1,718.42,585.91Z"/><path class="cls-4" d="M718.42,585.91c0,.89,0,1.85-.06,2.87l-.35.51h0c-8.91-6-18.19-12.65-27.59-19.65a44.19,44.19,0,0,0-34.94-7.85h0A44.08,44.08,0,0,0,629,578.18c-1.73,2.28-3.4,4.56-5,6.87-10.4,15.19-16.81,30.65-19.89,45.87a111.47,111.47,0,0,0,1.93,52.16c6.83,24.81,21.67,47,40.72,63.85q-7.87,6.74-15.89,13.36c-7.64-4.38-19.45-11.3-33.48-20.19-27.23-17.23-62.89-41.86-92.79-69.42h0c1.55-39-4.69-76.27-24.77-98.9-19.59-22.09-44.13-26.62-71-17.3,2.4-2.31,5-4.69,7.71-7.15,34.81-31.08,94.66-71.83,132.11-71.83,40.66,0,23,48.51,68.75,48.51,15.78,0,31.23-6.11,46.27-7.47,1.88-.17,3.75-.27,5.61-.27,23.88,0,38.12,15.41,44.69,37.11A113.09,113.09,0,0,1,718.42,585.91Z"/><path class="cls-5" d="M634.88,599.16c14.23,18.07,4,50.26-21.46,47-3.28-5-6.37-10-9.26-15.26,3.08-15.22,9.49-30.68,19.89-45.87q4.91,7,10.82,14.09Z"/><path class="cls-5" d="M622.28,658.62a27,27,0,0,1-16.19,24.46,111.47,111.47,0,0,1-1.93-52.16c2.89,5.21,6,10.28,9.26,15.26C616.22,650.36,619.14,654.5,622.28,658.62Z"/><path class="cls-5" d="M597.44,740.1c-27.23-17.23-62.89-41.86-92.79-69.42h0c1.55-39-4.69-76.27-24.77-98.9-19.59-22.09-44.13-26.62-71-17.3,2.4-2.31,5-4.69,7.71-7.15a111,111,0,0,0-8.16-25.76c-9.9-21.1-30.21-28.89-56.06-27.31-27.58,1.65-61.47,14-95.73,32.06a551.62,551.62,0,0,0-86.41,57.26q11.48,14.1,23.26,27.74c17.93-9.67,40.22-24.57,63.24-41.68a44.17,44.17,0,0,1,34.93-7.85h0a44.05,44.05,0,0,1,26.41,16.39c1.75,2.28,3.43,4.56,5,6.87a135.16,135.16,0,0,1,12.64,22.45,114.38,114.38,0,0,1,6.11,75.91c-4.64,18.34-13.38,36.32-25.27,53.49l2.93.89a1467.23,1467.23,0,0,0,118.9,92.84q24.33,17.1,50.05,33.94,25.75-16.86,50.06-33.94,13.68-9.63,26.91-19.35,34.08-25,65.48-51C623.28,755.91,611.47,749,597.44,740.1Z"/><path class="cls-7" d="M597.44,740.1c-27.23-17.23-62.89-41.86-92.79-69.42h0c1.55-39-4.69-76.27-24.77-98.9-19.59-22.09-44.13-26.62-71-17.3,2.4-2.31,5-4.69,7.71-7.15a111,111,0,0,0-8.16-25.76c-9.9-21.1-30.21-28.89-56.06-27.31-27.58,1.65-61.47,14-95.73,32.06a551.62,551.62,0,0,0-86.41,57.26q11.48,14.1,23.26,27.74c17.93-9.67,40.22-24.57,63.24-41.68a44.17,44.17,0,0,1,34.93-7.85h0a44.05,44.05,0,0,1,26.41,16.39c1.75,2.28,3.43,4.56,5,6.87a135.16,135.16,0,0,1,12.64,22.45,114.38,114.38,0,0,1,6.11,75.91c-4.64,18.34-13.38,36.32-25.27,53.49l2.93.89a1467.23,1467.23,0,0,0,118.9,92.84q24.33,17.1,50.05,33.94,25.75-16.86,50.06-33.94,13.68-9.63,26.91-19.35,34.08-25,65.48-51C623.28,755.91,611.47,749,597.44,740.1Z"/><path class="cls-2" d="M263.93,470.16a12.85,12.85,0,0,1-1.82-7.11l1.61-38.93a29.52,29.52,0,0,1,11.57-22.25,28.35,28.35,0,0,1,5-3.1A29.53,29.53,0,0,1,321,415.13l9.93,26.93c16.89-8.71,31.34-11.33,49-11.33a44.37,44.37,0,0,1,7.6.63,12.05,12.05,0,0,1,10,13.4l0,.2a12.05,12.05,0,0,1-10.83,10.57,111.47,111.47,0,0,0-13.95,2.07,25.35,25.35,0,0,0-20.18,23.93c-.17,5.76-.13,10.79-.11,12.72h0c-27.58,1.65-61.47,14-95.73,32.06-7.56-14.37-14.31-31.81-17.5-46.16a11.25,11.25,0,0,0,6-4.58A12.1,12.1,0,0,0,252,478h.65a12.19,12.19,0,0,0,11.28-7.89Z"/><path class="cls-5" d="M343.21,630.48a115.13,115.13,0,0,1-1.35,52.93,27,27,0,0,1-17-24.79h0q4.68-6.18,8.84-12.44C337.1,641.06,340.26,635.86,343.21,630.48Z"/><path class="cls-5" d="M335.75,607.5a115.46,115.46,0,0,1,7.46,23c-2.95,5.38-6.11,10.58-9.51,15.7-25.44,3.23-35.62-28.95-21.45-47l0,0c3.9-4.7,7.55-9.4,10.83-14.09A135.16,135.16,0,0,1,335.75,607.5Z"/><path class="cls-5" d="M297.79,615.23c5.19-5.36,10-10.75,14.46-16.07-14.17,18.07-4,50.25,21.45,47q-4.15,6.27-8.84,12.44h0a27,27,0,0,0,17,24.79c-4.64,18.34-13.38,36.32-25.27,53.49C304.9,753.81,290.15,770,273.3,785c-35.7,31.83-91.19,25.25-118.82-13.77-.07-.14-63.68-64.34-28.76-163.85a446.25,446.25,0,0,0,17.47-64.91v0a157.25,157.25,0,0,0,20.2,32.64q3.43,4.27,6.86,8.5,11.48,14.1,23.26,27.74c17.93-9.67,40.22-24.57,63.24-41.68a44.17,44.17,0,0,1,34.93-7.85,26.94,26.94,0,0,0,0,53.08A27.21,27.21,0,0,0,297.79,615.23Z"/><path class="cls-5" d="M318.11,578.18c1.75,2.28,3.43,4.56,5,6.87-3.28,4.69-6.93,9.39-10.83,14.09l0,0c-4.44,5.32-9.27,10.71-14.46,16.07a27.21,27.21,0,0,1-6.09-.36,26.94,26.94,0,0,1,0-53.08h0A44.05,44.05,0,0,1,318.11,578.18Z"/><path class="cls-2" d="M257.64,404.17a28.27,28.27,0,0,1,17.65-2.3,29.52,29.52,0,0,0-11.57,22.25l-1.61,38.93a12.85,12.85,0,0,0,1.82,7.11h0a12.19,12.19,0,0,1-11.28,7.89H252a12.23,12.23,0,0,1-11.68-12.7l1.53-37A27.83,27.83,0,0,1,248.71,411,28.14,28.14,0,0,1,257.64,404.17Z"/><path class="cls-4" d="M248.71,411a27.83,27.83,0,0,0-6.87,17.29l-1.53,37a12.14,12.14,0,0,0,4.85,10.24,11,11,0,0,1-9.19,5.08h-.6a11.15,11.15,0,0,1-10.64-11.55l1.4-33.72A25.53,25.53,0,0,1,248.71,411Z"/><path class="cls-5" d="M220.93,387.55v.27a44.43,44.43,0,0,1-44.43,44.43H157.86a56.55,56.55,0,0,0,26.67,58.85,73.52,73.52,0,0,1-14.05-1.86,70.92,70.92,0,0,1-11.28-3.57,72.8,72.8,0,0,1-29.79-22.48,73.6,73.6,0,0,1-14.26-30.94H46.42A44.42,44.42,0,0,1,2,387.82V317.07a44.43,44.43,0,0,1,44.42-44.43H176.5a44.43,44.43,0,0,1,44.43,44.43Zm-47.39-32a13,13,0,1,0-13,13A13,13,0,0,0,173.54,355.57Zm-49.08,0a13,13,0,1,0-13,13A13,13,0,0,0,124.46,355.57Zm-49.08,0a13,13,0,1,0-13,13A13,13,0,0,0,75.38,355.57Z"/><path d="M220.93,387.55v.27a44.43,44.43,0,0,1-44.43,44.43H157.86a56.55,56.55,0,0,0,26.67,58.85,73.52,73.52,0,0,1-14.05-1.86,70.92,70.92,0,0,1-11.28-3.57,72.8,72.8,0,0,1-29.79-22.48,73.6,73.6,0,0,1-14.26-30.94H46.42A44.42,44.42,0,0,1,2,387.82V317.07a44.43,44.43,0,0,1,44.42-44.43H176.5a44.43,44.43,0,0,1,44.43,44.43Zm-47.39-32a13,13,0,1,0-13,13A13,13,0,0,0,173.54,355.57Zm-49.08,0a13,13,0,1,0-13,13A13,13,0,0,0,124.46,355.57Zm-49.08,0a13,13,0,1,0-13,13A13,13,0,0,0,75.38,355.57Z"/><path d="M160.56,342.58a13,13,0,1,1-13,13A13,13,0,0,1,160.56,342.58Z"/><path class="cls-5" d="M129.41,463.19a72.8,72.8,0,0,0,29.79,22.48,70.92,70.92,0,0,0,11.28,3.57,73.52,73.52,0,0,0,14.05,1.86,56.41,56.41,0,0,1-26.67-58.85H176.5a44.43,44.43,0,0,0,44.43-44.43V333.41a157.5,157.5,0,0,1,176.61,31.95l90.93,90.95,91-90.95A157.39,157.39,0,0,1,813.55,575.08c-.69.87-1.39,1.74-2.08,2.58-12,14.73-24.05,29.24-36.48,43.35h0c-13.86-4.56-34.21-16.27-57-31.73l.35-.51c0-1,.06-2,.06-2.87a113.09,113.09,0,0,0-4.37-32.53c27.71,8.86,54.71,3.28,65.51-15.43,13.36-23.11-3-57.57-36.63-77a94.86,94.86,0,0,0-33.84-12,23.35,23.35,0,0,0-29.84-10.22,44.89,44.89,0,1,0-25.62,41.63h0c-1.56,11.46,2.18,24.23,10.11,36.1-15,1.36-30.49,7.47-46.27,7.47-45.73,0-28.09-48.51-68.75-48.51-37.45,0-97.3,40.75-132.11,71.83a111,111,0,0,0-8.16-25.76c-9.9-21.1-30.21-28.89-56.06-27.31h0c0-1.93-.06-7,.11-12.72a25.35,25.35,0,0,1,20.18-23.93,111.47,111.47,0,0,1,13.95-2.07A12.05,12.05,0,0,0,397.47,445l0-.2a12.05,12.05,0,0,0-10-13.4,44.37,44.37,0,0,0-7.6-.63c-17.69,0-32.14,2.62-49,11.33L321,415.13a29.53,29.53,0,0,0-40.61-16.36,28.35,28.35,0,0,0-5,3.1A28.05,28.05,0,0,0,248.71,411a25.53,25.53,0,0,0-22.58,24.36l-1.4,33.72a11.15,11.15,0,0,0,10.64,11.55h.6a11.38,11.38,0,0,0,3.2-.5c3.19,14.35,9.94,31.79,17.5,46.16a551.62,551.62,0,0,0-86.41,57.26q-3.44-4.22-6.86-8.5a156.73,156.73,0,0,1-34.55-96.32A155.58,155.58,0,0,1,129.41,463.19Z"/><path d="M111.47,342.58a13,13,0,1,1-13,13A13,13,0,0,1,111.47,342.58Z"/><path d="M62.4,342.58a13,13,0,1,1-13,13A13,13,0,0,1,62.4,342.58Z"/><path class="cls-6" d="M193.55,611.34S177.91,593,170.26,583.58q-3.44-4.22-6.86-8.5a156.73,156.73,0,0,1-34.55-96.32,155.58,155.58,0,0,1,.56-15.57"/><path class="cls-6" d="M220.93,333.41a157.5,157.5,0,0,1,176.61,31.95l90.93,90.95,91-90.95A157.39,157.39,0,0,1,813.55,575.08c-.69.87-1.39,1.74-2.08,2.58-12,14.73-24.05,29.24-36.48,43.35"/><path class="cls-6" d="M646.81,746.93q-7.87,6.74-15.89,13.36-31.45,26-65.48,51-13.23,9.72-26.91,19.35-24.3,17.11-50.06,33.94-25.74-16.86-50.05-33.94a1467.23,1467.23,0,0,1-118.9-92.84"/><path class="cls-6" d="M291.69,561.79a44.17,44.17,0,0,0-34.93,7.85c-23,17.11-45.32,32-63.24,41.68a152.51,152.51,0,0,1-17.62,8.34"/><path class="cls-6" d="M143.19,542.46a446.25,446.25,0,0,1-17.47,64.91c-34.92,99.51,28.69,163.71,28.76,163.85,27.63,39,83.12,45.6,118.82,13.77,16.85-15,31.59-31.19,43.29-48.09,11.88-17.18,20.63-35.15,25.27-53.49a115.54,115.54,0,0,0,1.35-52.93,117,117,0,0,0-7.46-23,137.76,137.76,0,0,0-12.64-22.45c-1.58-2.31-3.25-4.59-5-6.87a44.05,44.05,0,0,0-26.41-16.39"/><path class="cls-6" d="M655.47,561.79a44.19,44.19,0,0,1,34.94,7.85c9.4,7,18.68,13.61,27.59,19.65h0c22.77,15.46,43.11,27.19,57,31.73a39.13,39.13,0,0,0,9.28,2"/><path class="cls-6" d="M811.47,577.66a209.09,209.09,0,0,0,10,29.71c36.52,85.28-28.28,143.07-28.39,143.19-43,43.74-104.57,33.12-146.24-3.63-19.06-16.81-33.88-39-40.72-63.85a111.6,111.6,0,0,1-1.93-52.16,124.81,124.81,0,0,1,19.89-45.87c1.58-2.31,3.25-4.59,5-6.87a44.08,44.08,0,0,1,26.42-16.39"/><path class="cls-6" d="M408.91,554.48c2.4-2.31,4.95-4.69,7.71-7.15,34.76-31.14,94.66-71.83,132.11-71.83,40.66,0,23,48.51,68.75,48.51,15.78,0,31.23-6.12,46.27-7.47,1.88-.17,3.75-.27,5.61-.27,23.88,0,38.11,15.41,44.69,37.11a113.44,113.44,0,0,1,4.37,32.53c0,.89,0,1.85-.06,2.87"/><path class="cls-6" d="M650.83,398.09a44.93,44.93,0,0,0,23.63,62,45.22,45.22,0,0,1-20.83,20.3,44.91,44.91,0,1,1,25.62-41.63A23.35,23.35,0,0,1,709.09,449a94.86,94.86,0,0,1,33.84,12c33.58,19.38,50,53.84,36.63,77-10.8,18.71-37.8,24.29-65.51,15.43"/><path class="cls-6" d="M663.75,516.54c-7.93-11.87-11.67-24.64-10.11-36.1"/><path class="cls-6" d="M335.75,607.5c25-26.5,49.93-45,73.16-53,26.83-9.31,51.37-4.79,71,17.3,20.08,22.63,26.31,59.94,24.77,98.9-1.68,42.41-12.55,86.76-24.77,116.12"/><path class="cls-6" d="M170.26,583.58a550.92,550.92,0,0,1,86.41-57.26c34.26-18.1,68.15-30.4,95.73-32.06,25.85-1.57,46.16,6.21,56.06,27.31a111,111,0,0,1,8.16,25.76"/><path class="cls-6" d="M504.65,670.68c29.9,27.56,65.56,52.18,92.79,69.42,14,8.89,25.84,15.81,33.48,20.19"/><path class="cls-6" d="M597.44,740.1C585,758,558,783.39,558,801.79c0,4,3.1,7.13,7.43,9.49"/><path class="cls-8" d="M245.16,475.58a11,11,0,0,1-9.19,5.08h-.6a11.15,11.15,0,0,1-10.64-11.55l1.4-33.72A25.53,25.53,0,0,1,248.71,411"/><path class="cls-6" d="M275.29,401.87A28.05,28.05,0,0,0,248.71,411a27.91,27.91,0,0,0-6.87,17.29l-1.53,37A12.23,12.23,0,0,0,252,478h.65a12.19,12.19,0,0,0,11.28-7.89"/><path class="cls-6" d="M239.17,480.16c3.19,14.35,9.94,31.79,17.5,46.16"/><path class="cls-6" d="M302.1,438.13,296.88,424a3.8,3.8,0,0,0-2.19-2.27,3.89,3.89,0,0,0-3.39.23,4,4,0,0,0-2,3.31l-1.61,38.85a12.79,12.79,0,0,1-12.66,12.29h-.67a12.87,12.87,0,0,1-12.29-13.35l1.61-38.93a29.47,29.47,0,0,1,11.57-22.25,28.35,28.35,0,0,1,5-3.1A29.53,29.53,0,0,1,321,415.13l9.93,26.93c16.89-8.71,31.34-11.33,49-11.33a44.37,44.37,0,0,1,7.6.63,12.05,12.05,0,0,1,10,13.4l0,.2a12.05,12.05,0,0,1-10.83,10.57,111.47,111.47,0,0,0-13.95,2.07,25.35,25.35,0,0,0-20.18,23.93c-.17,5.76-.13,10.79-.11,12.72"/><path class="cls-6" d="M312.28,599.14c3.9-4.7,7.55-9.4,10.83-14.09"/><path class="cls-6" d="M224,679c27.55-21.1,53.26-42.49,73.84-63.79,5.18-5.37,10-10.75,14.46-16.07"/><path class="cls-6" d="M634.87,599.14q-5.89-7-10.82-14.09"/><path class="cls-6" d="M723.23,679c-27.59-21.1-53.31-42.48-73.87-63.79-5.18-5.37-10-10.75-14.48-16.07"/><path class="cls-6" d="M333.7,646.18c3.4-5.12,6.56-10.32,9.51-15.7"/><path class="cls-6" d="M271.81,716.09c22.39-21.63,39.42-39.44,53.05-57.47q4.68-6.18,8.84-12.44"/><path class="cls-6" d="M675.36,716.09C653,694.46,636,676.63,622.28,658.62c-3.12-4.12-6.08-8.25-8.86-12.44-3.3-5-6.37-10-9.26-15.26a0,0,0,0,1,0,0"/><path class="cls-6" d="M291.7,561.79h0a26.94,26.94,0,0,0,0,53.08,30.52,30.52,0,0,0,6.09.36h0"/><path class="cls-6" d="M655.45,561.79h0a26.93,26.93,0,0,1,0,53.08,30.65,30.65,0,0,1-6.09.36h0"/><path class="cls-6" d="M312.28,599.14l0,0c-14.17,18.07-4,50.25,21.45,47"/><path class="cls-6" d="M634.87,599.14v0c14.23,18.07,4,50.26-21.46,47"/><path class="cls-6" d="M324.88,658.62a27,27,0,0,0,17,24.79"/><path class="cls-6" d="M622.28,658.62a27,27,0,0,1-16.19,24.46h0"/><path class="cls-6" d="M129.41,463.19a72.8,72.8,0,0,0,29.79,22.48,70.92,70.92,0,0,0,11.28,3.57,73.52,73.52,0,0,0,14.05,1.86,56.41,56.41,0,0,1-26.67-58.85H176.5a44.43,44.43,0,0,0,44.43-44.43V317.07a44.43,44.43,0,0,0-44.43-44.43H46.42A44.43,44.43,0,0,0,2,317.07v70.75a44.42,44.42,0,0,0,44.42,44.43h68.73A73.3,73.3,0,0,0,129.41,463.19Z"/><path class="cls-9" d="M147.56,355.57a13,13,0,1,1,13,13A13,13,0,0,1,147.56,355.57Z"/><path class="cls-9" d="M98.47,355.57a13,13,0,1,1,13,13A13,13,0,0,1,98.47,355.57Z"/><path class="cls-9" d="M49.4,355.57a13,13,0,1,1,13,13A13,13,0,0,1,49.4,355.57Z"/></g></g></svg>