<svg xmlns="http://www.w3.org/2000/svg" xmlns:xlink="http://www.w3.org/1999/xlink" viewBox="0 0 1014.95 924.93"><defs><style>.cls-1,.cls-2,.cls-7{fill:none;}.cls-2,.cls-7{stroke:#000;stroke-linecap:round;stroke-linejoin:round;}.cls-2{stroke-width:1.5px;}.cls-3{fill:#d3e5fb;}.cls-4{fill:#3496f7;}.cls-5{fill:#fff;}.cls-6{fill:url(#New_Pattern_3);}.cls-7{stroke-width:4px;}.cls-8{fill:url(#New_Pattern_4);}</style><pattern id="New_Pattern_3" data-name="New Pattern 3" width="40" height="40" patternTransform="translate(-101.33 -123.17) scale(1.11)" patternUnits="userSpaceOnUse" viewBox="0 0 40 40"><rect class="cls-1" width="40" height="40"/><path d="M36.18,30a1.9,1.9,0,0,0,1.91,1.91V28.09A1.9,1.9,0,0,0,36.18,30Z"/><path d="M40,33.82a1.9,1.9,0,0,0,1.91-1.91H38.09A1.9,1.9,0,0,0,40,33.82Z"/><path d="M40,26.18a1.9,1.9,0,0,0-1.91,1.91h3.82A1.9,1.9,0,0,0,40,26.18Z"/><path d="M16.18,40a1.9,1.9,0,0,0,1.91,1.91V38.09A1.9,1.9,0,0,0,16.18,40Z"/><path d="M21.91,38.09v3.82a1.91,1.91,0,0,0,0-3.82Z"/><path d="M20,36.18a1.9,1.9,0,0,0-1.91,1.91h3.82A1.9,1.9,0,0,0,20,36.18Z"/><path d="M1.91,28.09v3.82a1.91,1.91,0,0,0,0-3.82Z"/><path d="M36.18,10a1.9,1.9,0,0,0,1.91,1.91V8.09A1.9,1.9,0,0,0,36.18,10Z"/><path d="M40,13.82a1.9,1.9,0,0,0,1.91-1.91H38.09A1.9,1.9,0,0,0,40,13.82Z"/><path d="M40,6.18a1.9,1.9,0,0,0-1.91,1.91h3.82A1.9,1.9,0,0,0,40,6.18Z"/><path d="M18.79,16.37a1.92,1.92,0,0,0-1.21,2.42l3.63-1.21A1.92,1.92,0,0,0,18.79,16.37Z"/><path d="M22.42,21.21l-3.63,1.21a1.91,1.91,0,0,0,3.63-1.21Z"/><path d="M16.37,21.21a1.92,1.92,0,0,0,2.42,1.21l-1.21-3.63A1.92,1.92,0,0,0,16.37,21.21Z"/><path d="M23.63,18.79a1.92,1.92,0,0,0-2.42-1.21l1.21,3.63A1.92,1.92,0,0,0,23.63,18.79Z"/><path d="M1.91,8.09v3.82a1.91,1.91,0,0,0,0-3.82Z"/><path d="M20,3.82a1.9,1.9,0,0,0,1.91-1.91H18.09A1.9,1.9,0,0,0,20,3.82Z"/><path d="M0,33.82a1.9,1.9,0,0,0,1.91-1.91H-1.91A1.9,1.9,0,0,0,0,33.82Z"/><path d="M0,26.18a1.9,1.9,0,0,0-1.91,1.91H1.91A1.9,1.9,0,0,0,0,26.18Z"/><path d="M0,13.82a1.9,1.9,0,0,0,1.91-1.91H-1.91A1.9,1.9,0,0,0,0,13.82Z"/><path d="M0,6.18A1.9,1.9,0,0,0-1.91,8.09H1.91A1.9,1.9,0,0,0,0,6.18Z"/><path d="M16.18,0a1.9,1.9,0,0,0,1.91,1.91V-1.91A1.9,1.9,0,0,0,16.18,0Z"/><path d="M21.91-1.91V1.91A1.9,1.9,0,0,0,23.82,0,1.9,1.9,0,0,0,21.91-1.91Z"/></pattern><pattern id="New_Pattern_4" data-name="New Pattern 4" width="70" height="50" patternTransform="translate(-134.65 -123.17) scale(1.11)" patternUnits="userSpaceOnUse" viewBox="0 0 70 50"><rect class="cls-1" width="70" height="50"/><path class="cls-2" d="M8.89,100c-.05-7.08.29-14.17.29-21.25,0-4.32-.37-17.48-.29-28.09"/><path class="cls-2" d="M22.94,99.84c0-1.65.09-3.31.09-5,0-2.48-.21-5-.21-7.45s0-3.83.05-7.28c0-1.44-.06-2.9-.06-4.35,0-3.1.31-4.62.31-7.37,0-1.4-.27-4.94-.27-8.33q0-1.61.09-3.21V50.11"/><path class="cls-2" d="M36.74,99.84c0-9.46.33-18.09.33-27.56,0-3.7-.15-7.46-.15-11.2,0-3.35-.1-7.29-.18-10.75"/><path class="cls-2" d="M50.93,99.75c0-1.24-.07-2.75-.07-4,0-1.92,0-3.86,0-5.79,0-3.87,0-7.66,0-11.51a8.42,8.42,0,0,1-.08-1.22c0-.32.18-6.68.18-8,0-2.2-.21-3.25-.21-5.64,0-1.3.06-2.65.17-3.86,0-2.89,0-5.89,0-9.05"/><path class="cls-2" d="M65,99.71c0-8.34-.55-15.73-.36-24.06.18-8.13.16-17.71.36-25.19"/><path class="cls-2" d="M8.89,50c-.05-7.08.29-14.17.29-21.25,0-4.32-.37-17.48-.29-28.09"/><path class="cls-2" d="M22.94,49.84c0-1.65.09-3.31.09-5,0-2.48-.21-5-.21-7.45s0-3.83.05-7.28c0-1.44-.06-2.9-.06-4.35,0-3.1.31-4.62.31-7.37,0-1.4-.27-4.94-.27-8.33q0-1.6.09-3.21V.11"/><path class="cls-2" d="M36.74,49.84c0-9.46.33-18.09.33-27.56,0-3.7-.15-7.46-.15-11.2,0-3.35-.1-7.29-.18-10.75"/><path class="cls-2" d="M50.93,49.75c0-1.24-.07-2.75-.07-4,0-1.92,0-3.86,0-5.79,0-3.87,0-7.66,0-11.51a8.42,8.42,0,0,1-.08-1.22c0-.32.18-6.68.18-8,0-2.2-.21-3.25-.21-5.64,0-1.3.06-2.65.17-3.86,0-2.89,0-5.89,0-9"/><path class="cls-2" d="M65,49.71c0-8.34-.55-15.73-.36-24.06.18-8.13.16-17.71.36-25.19"/><path class="cls-2" d="M8.89,0c-.05-7.08.29-14.17.29-21.25,0-4.32-.37-17.48-.29-28.09"/><path class="cls-2" d="M22.94-.16c0-1.65.09-3.31.09-5,0-2.48-.21-5-.21-7.45s0-3.83.05-7.28c0-1.44-.06-2.9-.06-4.35,0-3.1.31-4.62.31-7.37,0-1.4-.27-4.94-.27-8.33q0-1.61.09-3.21v-6.71"/><path class="cls-2" d="M36.74-.16c0-9.46.33-18.09.33-27.56,0-3.7-.15-7.46-.15-11.2,0-3.35-.1-7.29-.18-10.75"/><path class="cls-2" d="M50.93-.25c0-1.24-.07-2.75-.07-4,0-1.92,0-3.86,0-5.79,0-3.87,0-7.66,0-11.51a8.42,8.42,0,0,1-.08-1.22c0-.32.18-6.68.18-8,0-2.2-.21-3.25-.21-5.64,0-1.3.06-2.65.17-3.86,0-2.89,0-5.89,0-9.05"/><path class="cls-2" d="M65-.29c0-8.34-.55-15.73-.36-24.06.18-8.13.16-17.71.36-25.19"/></pattern></defs><g id="Layer_2" data-name="Layer 2"><g id="illustrations"><path class="cls-3" d="M900.77,249V249L847,195.31l-46.41,46.43h0A128.35,128.35,0,0,0,679.34,121L632.2,73.84l52.65-52.65C805,27.54,900.77,127.28,900.77,249Z"/><path class="cls-4" d="M847,195.31,900.77,249a226.93,226.93,0,0,1-39.5,128.1H672.67A128.3,128.3,0,0,0,800.83,249c0-2.42-.07-4.84-.21-7.22h0Z"/><path class="cls-5" d="M1013,427.09,928.84,343v34.14S665.54,377,662,376.68c-65.7-5.42-117.52-60.63-117.52-127.72a126.27,126.27,0,0,1,.67-13.1l-46.91,46.91-52.9-52.9c-.53,6.29-.8,12.67-.8,19.09A228.34,228.34,0,0,0,663.94,476.9q4.35.17,8.73.16H928.84V511.2Z"/><path class="cls-6" d="M1013,427.09,928.84,343v34.14S665.54,377,662,376.68c-65.7-5.42-117.52-60.63-117.52-127.72a126.27,126.27,0,0,1,.67-13.1l-46.91,46.91-52.9-52.9c-.53,6.29-.8,12.67-.8,19.09A228.34,228.34,0,0,0,663.94,476.9q4.35.17,8.73.16H928.84V511.2Z"/><path class="cls-4" d="M684.85,21.19,632.2,73.84,679.34,121q-3.32-.16-6.67-.16A128.33,128.33,0,0,0,545.18,235.86l-46.91,46.91-52.9-52.9a226.58,226.58,0,0,1,34.3-102.37,102.12,102.12,0,0,0-86.26-46.75,28.51,28.51,0,0,1-3.48-.23l-1.53,24.62L337.15,50.19,394.8,2l-1.44,23.23h.05A158.06,158.06,0,0,1,496.62,63.55,160.1,160.1,0,0,1,515.93,83.4,227.3,227.3,0,0,1,672.67,20.87Q678.81,20.87,684.85,21.19Z"/><path class="cls-5" d="M672.67,477.06h-8.9l.17-.16Q668.29,477.07,672.67,477.06Z"/><path class="cls-4" d="M663.94,476.9l-.17.16H441.66V377.12h42.42A228.09,228.09,0,0,0,663.94,476.9Z"/><path class="cls-7" d="M861.27,377.12A226.93,226.93,0,0,0,900.77,249V249c0-121.68-95.79-221.45-215.92-227.77q-6-.32-12.18-.32A227.3,227.3,0,0,0,515.93,83.4a160.1,160.1,0,0,0-19.31-19.85A158.06,158.06,0,0,0,393.41,25.23h-.05L394.8,2,337.15,50.19l51.25,55,1.53-24.62a28.51,28.51,0,0,0,3.48.23,102.12,102.12,0,0,1,86.26,46.75,226.94,226.94,0,0,0-34.3,102.37c-.53,6.29-.8,12.67-.8,19.09a226.78,226.78,0,0,0,39.51,128.16"/><path class="cls-7" d="M672.67,377.12c-3.59,0-7.13-.15-10.64-.44-65.7-5.52-117.52-60.63-117.52-127.72a129.1,129.1,0,0,1,.67-13.1c6.62-64.53,61.25-115,127.49-115q3.36,0,6.67.16c65.19,3.32,117.49,55.66,121.28,120.77.13,2.38.21,4.8.21,7.22A128.3,128.3,0,0,1,672.67,377.12Z"/><line class="cls-7" x1="672.67" y1="377.12" x2="861.27" y2="377.12"/><polyline class="cls-7" points="672.67 477.06 928.84 477.06 928.84 511.2 1012.95 427.09 928.84 342.98 928.84 377.12 861.27 377.12"/><path class="cls-7" d="M484.08,377.12H441.66v99.94h231q-4.38,0-8.73-.16A228.15,228.15,0,0,1,484.08,377.12Z"/><polyline class="cls-7" points="445.37 229.87 498.27 282.77 545.18 235.86"/><polyline class="cls-7" points="900.77 249.02 847.04 195.31 800.63 241.74"/><polyline class="cls-7" points="684.85 21.19 632.2 73.83 679.34 120.97"/><polyline class="cls-7" points="663.77 477.06 713.09 427.74 662.03 376.68"/><path class="cls-5" d="M349.6,245.21l-13.35,3.62a26.11,26.11,0,0,0-18.33,18.36l-3.6,13.3-3.62-13.3a26.05,26.05,0,0,0-18.31-18.36L279,245.21l13.35-3.62a26.06,26.06,0,0,0,18.31-18.33l3.62-13.34,3.6,13.34a26.13,26.13,0,0,0,18.33,18.33Z"/><path class="cls-5" d="M292.56,145.51l-20.81,5.66a40.6,40.6,0,0,0-28.57,28.58l-5.62,20.76-5.62-20.76a40.59,40.59,0,0,0-28.58-28.58l-20.81-5.66,20.81-5.65a40.62,40.62,0,0,0,28.58-28.59l5.62-20.77,5.62,20.77a40.63,40.63,0,0,0,28.57,28.59Z"/><path class="cls-5" d="M203.63,247.15l-8,2.17a15.6,15.6,0,0,0-11,11l-2.15,7.95-2.16-7.95a15.59,15.59,0,0,0-10.95-11l-8-2.17,8-2.16a15.56,15.56,0,0,0,10.95-11l2.16-8,2.15,8a15.57,15.57,0,0,0,11,11Z"/><path class="cls-7" d="M237.56,90.5l-5.62,20.77a40.62,40.62,0,0,1-28.58,28.59l-20.81,5.65,20.81,5.66a40.59,40.59,0,0,1,28.58,28.58l5.62,20.76,5.62-20.76a40.6,40.6,0,0,1,28.57-28.58l20.81-5.66-20.81-5.65a40.63,40.63,0,0,1-28.57-28.59Z"/><path class="cls-7" d="M182.55,226.08l-2.16,8a15.56,15.56,0,0,1-10.95,11l-8,2.16,8,2.17a15.59,15.59,0,0,1,10.95,11l2.16,7.95,2.15-7.95a15.6,15.6,0,0,1,11-11l8-2.17-8-2.16a15.57,15.57,0,0,1-11-11Z"/><path class="cls-7" d="M314.32,209.92l-3.62,13.34a26.06,26.06,0,0,1-18.31,18.33L279,245.21l13.35,3.62a26.05,26.05,0,0,1,18.31,18.36l3.62,13.3,3.6-13.3a26.11,26.11,0,0,1,18.33-18.36l13.35-3.62-13.35-3.62a26.13,26.13,0,0,1-18.33-18.33Z"/><path class="cls-5" d="M946,712.57V838.86H819.69V785.38a72.81,72.81,0,0,0,72.82-72.81Z"/><path class="cls-8" d="M946,712.57V838.86H819.69V785.38a72.81,72.81,0,0,0,72.82-72.81Z"/><path class="cls-5" d="M831.65,702.93a15.36,15.36,0,1,0-12,25v57.46A72.81,72.81,0,0,1,811,640.28a71.34,71.34,0,0,1,17.36,0,72.81,72.81,0,0,1,64.14,72.29H835.05A15.31,15.31,0,0,0,831.65,702.93Z"/><path d="M835.05,712.57h57.46a72.81,72.81,0,0,1-72.82,72.81V727.92A15.36,15.36,0,0,0,835.05,712.57Z"/><path class="cls-3" d="M839.51,605.31a8.69,8.69,0,0,1,0,17.37H799.87a8.69,8.69,0,1,1,0-17.37Z"/><path class="cls-5" d="M831.65,702.93a15.36,15.36,0,1,1-12-5.72A15.31,15.31,0,0,1,831.65,702.93Z"/><path class="cls-4" d="M828.37,640.27h0a71.34,71.34,0,0,0-17.36,0v-17.6h17.36Z"/><path d="M789.14,484.22l-32.63,32.64L676.14,436.5c-8.77,8.76-22.73,14.16-36.5,8.77l12-12c.74-.74,1.45-1.5,2.12-2.28,10.34-12.07,13.7-28.9,7.84-43.83,0-.11-.09-.22-.13-.35a23.49,23.49,0,0,1,5.24-25Z"/><path class="cls-4" d="M756.43,516.78,606,667.18v-5.49A138.57,138.57,0,0,0,540.75,544l113-113c-.67.79-1.38,1.54-2.12,2.28l-12,12c13.77,5.39,27.73,0,36.5-8.77Z"/><path d="M645.88,915.57H472.77V869.42H586.43c0-12.4,6.06-26.09,19.6-32v17a43.94,43.94,0,0,0,25.56,39.64l.33.15A23.72,23.72,0,0,1,645.88,915.57Z"/><path class="cls-4" d="M333.08,747.39v-87.2A136.63,136.63,0,0,1,470.35,523.71a134.59,134.59,0,0,1,70.4,20.3A138.57,138.57,0,0,1,606,661.69V837.4c-13.54,5.93-19.6,19.62-19.6,32H472.77V660.19a3.22,3.22,0,0,0-3.86-3.16,3.3,3.3,0,0,0-2.58,3.28V808.39c0,57.48-45.41,105.53-102.87,106.85-1.09,0-2.16,0-3.25,0-73.11,0-132.39-62-132.39-138.56V747.39Z"/><path class="cls-3" d="M238.88,658.23,166,585.31l17.48-67.63a44.41,44.41,0,0,1,54.11-31.9l1.89.67c18.38,6.41,33.71,19.16,44.4,35.43a41.62,41.62,0,0,0,11.91,11.85,42,42,0,0,0,25.68,6.88c19.39-1.22,38.21,6.84,49.78,22.45.37.49.72,1,1.07,1.48a136,136,0,0,0-39.21,95.65v87.2H227.82V701.06Z"/><path class="cls-5" d="M337.21,397.51a43.25,43.25,0,1,1-61.62,59.93,67.75,67.75,0,0,1,12.09-39.18,99.38,99.38,0,0,0,13.95-29.78,43.19,43.19,0,0,1,35.58,9Z"/><path d="M237.56,485.78a44.41,44.41,0,0,0-54.11,31.9l-32.82,127a110,110,0,0,1-71.69-80.28c79.84-3.92,74.51-82.41,74.51-124.51a78.18,78.18,0,0,1,127.72-60.47A59,59,0,0,1,330.6,376a14.23,14.23,0,0,1,6.62,21.46h0a43.19,43.19,0,0,0-35.58-9,99.38,99.38,0,0,1-13.95,29.78,67.75,67.75,0,0,0-12.09,39.18,63.81,63.81,0,0,0,6.74,27.94,125.21,125.21,0,0,1,13.43,48.35,41.62,41.62,0,0,1-11.91-11.85c-10.69-16.27-26-29-44.4-35.43Z"/><path class="cls-5" d="M116.75,889.2H105.57A16.62,16.62,0,0,0,91.48,897v.2a13.89,13.89,0,1,0,25.27-8Zm-10.7,33.31H40.21c-9,0-16.69-6.89-17.11-15.85A16.66,16.66,0,0,1,39.73,889.2H54.81A47.55,47.55,0,0,0,75,884.51l.88-.41a34.56,34.56,0,0,0,18.66-22.41L166,585.31l72.91,72.92-61,236.2c-8.83,34.17-15.29,28.09-71.81,28.08Z"/><path class="cls-5" d="M116.75,889.2a13.89,13.89,0,1,1-25.27,8V897a16.62,16.62,0,0,1,14.09-7.77Z"/><path class="cls-5" d="M40.21,922.51H19.13c-9,0-16.69-6.89-17.11-15.85A16.65,16.65,0,0,1,18.65,889.2H39.73A16.66,16.66,0,0,0,23.1,906.66C23.52,915.62,31.24,922.51,40.21,922.51Z"/><line class="cls-7" x1="165.97" y1="585.31" x2="238.88" y2="658.23"/><path class="cls-7" d="M237.56,485.78l1.89.67c18.38,6.41,33.71,19.16,44.4,35.43a41.62,41.62,0,0,0,11.91,11.85,42,42,0,0,0,25.68,6.88c19.39-1.22,38.21,6.84,49.78,22.45.37.49.72,1,1.07,1.48"/><path class="cls-7" d="M255.13,595.35,177.87,894.43c-8.83,34.17-15.29,28.09-71.81,28.08h0c-9,0-16.69-6.89-17.12-15.85a16.66,16.66,0,0,1,16.64-17.46h38"/><path class="cls-7" d="M43.45,889.2H54.81A47.55,47.55,0,0,0,75,884.51l.88-.41a34.56,34.56,0,0,0,18.66-22.41l88.89-344a44.47,44.47,0,0,1,65.45-27.24"/><path class="cls-7" d="M40.21,922.51c-9,0-16.69-6.89-17.11-15.85A16.66,16.66,0,0,1,39.73,889.2"/><line class="cls-7" x1="106.05" y1="922.51" x2="62.75" y2="922.51"/><path class="cls-7" d="M62.75,922.51H19.13c-9,0-16.69-6.89-17.11-15.85A16.65,16.65,0,0,1,18.65,889.2h24.8"/><path class="cls-7" d="M91.48,897v.2a13.89,13.89,0,1,0,25.27-8"/><path class="cls-7" d="M227.82,701.06v75.65c0,76.53,59.28,138.56,132.39,138.56,1.09,0,2.16,0,3.25,0,57.46-1.32,102.87-49.37,102.87-106.85V660.31a3.3,3.3,0,0,1,2.58-3.28,3.22,3.22,0,0,1,3.86,3.16V915.57H645.88a23.72,23.72,0,0,0-14-21.37l-.33-.15A43.94,43.94,0,0,1,606,854.41V661.69A138.56,138.56,0,0,0,540.75,544a134.49,134.49,0,0,0-70.4-20.3A136.63,136.63,0,0,0,333.08,660.19s0,169.07,0,169.83"/><path class="cls-7" d="M472.77,869.42H586.43c0-12.4,6.06-26.09,19.6-32"/><path class="cls-7" d="M756.43,516.78,676.14,436.5c-8.77,8.76-22.73,14.16-36.5,8.77l12-12c.74-.74,1.45-1.5,2.12-2.28,10.34-12.07,13.7-28.9,7.84-43.83,0-.11-.09-.22-.13-.35a23.49,23.49,0,0,1,5.24-25l122.4,122.4-32.63,32.64Z"/><line class="cls-7" x1="540.75" y1="544.01" x2="653.79" y2="430.97"/><line class="cls-7" x1="756.43" y1="516.78" x2="606.03" y2="667.18"/><path class="cls-7" d="M295.76,533.73a125.21,125.21,0,0,0-13.43-48.35,64,64,0,0,1-6.74-27.94,67.89,67.89,0,0,1,12.09-39.18,99.38,99.38,0,0,0,13.95-29.78,43.27,43.27,0,1,1-26,69"/><path class="cls-7" d="M337.22,397.5A14.23,14.23,0,0,0,330.6,376a59,59,0,0,0-49.43,3.37,78.18,78.18,0,0,0-127.72,60.47c0,42.1,5.33,120.59-74.51,124.51a110,110,0,0,0,71.69,80.28"/><line class="cls-7" x1="227.82" y1="747.39" x2="333.08" y2="747.39"/><path class="cls-7" d="M892.51,712.57a72.82,72.82,0,1,0-72.82,72.81A72.86,72.86,0,0,0,892.51,712.57Z"/><path class="cls-7" d="M835.05,712.57a15.36,15.36,0,1,0-15.36,15.35A15.31,15.31,0,0,0,835.05,712.57Z"/><line class="cls-7" x1="831.65" y1="702.93" x2="860.66" y2="679.58"/><polyline class="cls-7" points="835.05 712.57 945.98 712.57 945.98 838.86 819.69 838.86 819.69 727.92"/><path class="cls-7" d="M811,622.68H799.87a8.69,8.69,0,1,1,0-17.37h39.64a8.69,8.69,0,0,1,0,17.37Z"/><line class="cls-7" x1="828.37" y1="622.68" x2="828.37" y2="640.27"/><line class="cls-7" x1="811.01" y1="640.27" x2="811.01" y2="622.68"/><line class="cls-7" x1="732.01" y1="664.58" x2="701.22" y2="664.58"/><line class="cls-7" x1="720.54" y1="700.02" x2="681.23" y2="700.02"/><line class="cls-7" x1="722.39" y1="735.46" x2="656.17" y2="735.46"/></g></g></svg>