<svg xmlns="http://www.w3.org/2000/svg" xmlns:xlink="http://www.w3.org/1999/xlink" viewBox="0 0 832.16 881.37"><defs><style>.cls-1,.cls-2,.cls-9{fill:none;}.cls-2,.cls-9{stroke:#000;stroke-linecap:round;stroke-linejoin:round;}.cls-2{stroke-width:1.5px;}.cls-3{fill:#d3e5fb;}.cls-4{fill:#fff;}.cls-5{fill:#3496f7;}.cls-6{fill:url(#New_Pattern_3);}.cls-7{fill:url(#New_Pattern_4);}.cls-8{fill:url(#New_Pattern_4-3);}.cls-9{stroke-width:4px;}</style><pattern id="New_Pattern_3" data-name="New Pattern 3" width="40" height="40" patternTransform="translate(-30 -20)" patternUnits="userSpaceOnUse" viewBox="0 0 40 40"><rect class="cls-1" width="40" height="40"/><path d="M36.18,30a1.9,1.9,0,0,0,1.91,1.91V28.09A1.9,1.9,0,0,0,36.18,30Z"/><path d="M40,33.82a1.9,1.9,0,0,0,1.91-1.91H38.09A1.9,1.9,0,0,0,40,33.82Z"/><path d="M40,26.18a1.9,1.9,0,0,0-1.91,1.91h3.82A1.9,1.9,0,0,0,40,26.18Z"/><path d="M16.18,40a1.9,1.9,0,0,0,1.91,1.91V38.09A1.9,1.9,0,0,0,16.18,40Z"/><path d="M21.91,38.09v3.82a1.91,1.91,0,0,0,0-3.82Z"/><path d="M20,36.18a1.9,1.9,0,0,0-1.91,1.91h3.82A1.9,1.9,0,0,0,20,36.18Z"/><path d="M1.91,28.09v3.82a1.91,1.91,0,0,0,0-3.82Z"/><path d="M36.18,10a1.9,1.9,0,0,0,1.91,1.91V8.09A1.9,1.9,0,0,0,36.18,10Z"/><path d="M40,13.82a1.9,1.9,0,0,0,1.91-1.91H38.09A1.9,1.9,0,0,0,40,13.82Z"/><path d="M40,6.18a1.9,1.9,0,0,0-1.91,1.91h3.82A1.9,1.9,0,0,0,40,6.18Z"/><path d="M18.79,16.37a1.92,1.92,0,0,0-1.21,2.42l3.63-1.21A1.92,1.92,0,0,0,18.79,16.37Z"/><path d="M22.42,21.21l-3.63,1.21a1.91,1.91,0,0,0,3.63-1.21Z"/><path d="M16.37,21.21a1.92,1.92,0,0,0,2.42,1.21l-1.21-3.63A1.92,1.92,0,0,0,16.37,21.21Z"/><path d="M23.63,18.79a1.92,1.92,0,0,0-2.42-1.21l1.21,3.63A1.92,1.92,0,0,0,23.63,18.79Z"/><path d="M1.91,8.09v3.82a1.91,1.91,0,0,0,0-3.82Z"/><path d="M20,3.82a1.9,1.9,0,0,0,1.91-1.91H18.09A1.9,1.9,0,0,0,20,3.82Z"/><path d="M0,33.82a1.9,1.9,0,0,0,1.91-1.91H-1.91A1.9,1.9,0,0,0,0,33.82Z"/><path d="M0,26.18a1.9,1.9,0,0,0-1.91,1.91H1.91A1.9,1.9,0,0,0,0,26.18Z"/><path d="M0,13.82a1.9,1.9,0,0,0,1.91-1.91H-1.91A1.9,1.9,0,0,0,0,13.82Z"/><path d="M0,6.18A1.9,1.9,0,0,0-1.91,8.09H1.91A1.9,1.9,0,0,0,0,6.18Z"/><path d="M16.18,0a1.9,1.9,0,0,0,1.91,1.91V-1.91A1.9,1.9,0,0,0,16.18,0Z"/><path d="M21.91-1.91V1.91A1.9,1.9,0,0,0,23.82,0,1.9,1.9,0,0,0,21.91-1.91Z"/></pattern><pattern id="New_Pattern_4" data-name="New Pattern 4" width="70" height="50" patternTransform="translate(-64.67 -41.35) scale(1.05)" patternUnits="userSpaceOnUse" viewBox="0 0 70 50"><rect class="cls-1" width="70" height="50"/><path class="cls-2" d="M8.89,100c-.05-7.08.29-14.17.29-21.25,0-4.32-.37-17.48-.29-28.09"/><path class="cls-2" d="M22.94,99.84c0-1.65.09-3.31.09-5,0-2.48-.21-5-.21-7.45s0-3.83.05-7.28c0-1.44-.06-2.9-.06-4.35,0-3.1.31-4.62.31-7.37,0-1.4-.27-4.94-.27-8.33q0-1.61.09-3.21V50.11"/><path class="cls-2" d="M36.74,99.84c0-9.46.33-18.09.33-27.56,0-3.7-.15-7.46-.15-11.2,0-3.35-.1-7.29-.18-10.75"/><path class="cls-2" d="M50.93,99.75c0-1.24-.07-2.75-.07-4,0-1.92,0-3.86,0-5.79,0-3.87,0-7.66,0-11.51a8.42,8.42,0,0,1-.08-1.22c0-.32.18-6.68.18-8,0-2.2-.21-3.25-.21-5.64,0-1.3.06-2.65.17-3.86,0-2.89,0-5.89,0-9.05"/><path class="cls-2" d="M65,99.71c0-8.34-.55-15.73-.36-24.06.18-8.13.16-17.71.36-25.19"/><path class="cls-2" d="M8.89,50c-.05-7.08.29-14.17.29-21.25,0-4.32-.37-17.48-.29-28.09"/><path class="cls-2" d="M22.94,49.84c0-1.65.09-3.31.09-5,0-2.48-.21-5-.21-7.45s0-3.83.05-7.28c0-1.44-.06-2.9-.06-4.35,0-3.1.31-4.62.31-7.37,0-1.4-.27-4.94-.27-8.33q0-1.6.09-3.21V.11"/><path class="cls-2" d="M36.74,49.84c0-9.46.33-18.09.33-27.56,0-3.7-.15-7.46-.15-11.2,0-3.35-.1-7.29-.18-10.75"/><path class="cls-2" d="M50.93,49.75c0-1.24-.07-2.75-.07-4,0-1.92,0-3.86,0-5.79,0-3.87,0-7.66,0-11.51a8.42,8.42,0,0,1-.08-1.22c0-.32.18-6.68.18-8,0-2.2-.21-3.25-.21-5.64,0-1.3.06-2.65.17-3.86,0-2.89,0-5.89,0-9"/><path class="cls-2" d="M65,49.71c0-8.34-.55-15.73-.36-24.06.18-8.13.16-17.71.36-25.19"/><path class="cls-2" d="M8.89,0c-.05-7.08.29-14.17.29-21.25,0-4.32-.37-17.48-.29-28.09"/><path class="cls-2" d="M22.94-.16c0-1.65.09-3.31.09-5,0-2.48-.21-5-.21-7.45s0-3.83.05-7.28c0-1.44-.06-2.9-.06-4.35,0-3.1.31-4.62.31-7.37,0-1.4-.27-4.94-.27-8.33q0-1.61.09-3.21v-6.71"/><path class="cls-2" d="M36.74-.16c0-9.46.33-18.09.33-27.56,0-3.7-.15-7.46-.15-11.2,0-3.35-.1-7.29-.18-10.75"/><path class="cls-2" d="M50.93-.25c0-1.24-.07-2.75-.07-4,0-1.92,0-3.86,0-5.79,0-3.87,0-7.66,0-11.51a8.42,8.42,0,0,1-.08-1.22c0-.32.18-6.68.18-8,0-2.2-.21-3.25-.21-5.64,0-1.3.06-2.65.17-3.86,0-2.89,0-5.89,0-9.05"/><path class="cls-2" d="M65-.29c0-8.34-.55-15.73-.36-24.06.18-8.13.16-17.71.36-25.19"/></pattern><pattern id="New_Pattern_4-3" data-name="New Pattern 4" width="70" height="50" patternTransform="translate(-30 -20)" patternUnits="userSpaceOnUse" viewBox="0 0 70 50"><rect class="cls-1" width="70" height="50"/><path class="cls-2" d="M8.89,100c-.05-7.08.29-14.17.29-21.25,0-4.32-.37-17.48-.29-28.09"/><path class="cls-2" d="M22.94,99.84c0-1.65.09-3.31.09-5,0-2.48-.21-5-.21-7.45s0-3.83.05-7.28c0-1.44-.06-2.9-.06-4.35,0-3.1.31-4.62.31-7.37,0-1.4-.27-4.94-.27-8.33q0-1.61.09-3.21V50.11"/><path class="cls-2" d="M36.74,99.84c0-9.46.33-18.09.33-27.56,0-3.7-.15-7.46-.15-11.2,0-3.35-.1-7.29-.18-10.75"/><path class="cls-2" d="M50.93,99.75c0-1.24-.07-2.75-.07-4,0-1.92,0-3.86,0-5.79,0-3.87,0-7.66,0-11.51a8.42,8.42,0,0,1-.08-1.22c0-.32.18-6.68.18-8,0-2.2-.21-3.25-.21-5.64,0-1.3.06-2.65.17-3.86,0-2.89,0-5.89,0-9.05"/><path class="cls-2" d="M65,99.71c0-8.34-.55-15.73-.36-24.06.18-8.13.16-17.71.36-25.19"/><path class="cls-2" d="M8.89,50c-.05-7.08.29-14.17.29-21.25,0-4.32-.37-17.48-.29-28.09"/><path class="cls-2" d="M22.94,49.84c0-1.65.09-3.31.09-5,0-2.48-.21-5-.21-7.45s0-3.83.05-7.28c0-1.44-.06-2.9-.06-4.35,0-3.1.31-4.62.31-7.37,0-1.4-.27-4.94-.27-8.33q0-1.6.09-3.21V.11"/><path class="cls-2" d="M36.74,49.84c0-9.46.33-18.09.33-27.56,0-3.7-.15-7.46-.15-11.2,0-3.35-.1-7.29-.18-10.75"/><path class="cls-2" d="M50.93,49.75c0-1.24-.07-2.75-.07-4,0-1.92,0-3.86,0-5.79,0-3.87,0-7.66,0-11.51a8.42,8.42,0,0,1-.08-1.22c0-.32.18-6.68.18-8,0-2.2-.21-3.25-.21-5.64,0-1.3.06-2.65.17-3.86,0-2.89,0-5.89,0-9"/><path class="cls-2" d="M65,49.71c0-8.34-.55-15.73-.36-24.06.18-8.13.16-17.71.36-25.19"/><path class="cls-2" d="M8.89,0c-.05-7.08.29-14.17.29-21.25,0-4.32-.37-17.48-.29-28.09"/><path class="cls-2" d="M22.94-.16c0-1.65.09-3.31.09-5,0-2.48-.21-5-.21-7.45s0-3.83.05-7.28c0-1.44-.06-2.9-.06-4.35,0-3.1.31-4.62.31-7.37,0-1.4-.27-4.94-.27-8.33q0-1.61.09-3.21v-6.71"/><path class="cls-2" d="M36.74-.16c0-9.46.33-18.09.33-27.56,0-3.7-.15-7.46-.15-11.2,0-3.35-.1-7.29-.18-10.75"/><path class="cls-2" d="M50.93-.25c0-1.24-.07-2.75-.07-4,0-1.92,0-3.86,0-5.79,0-3.87,0-7.66,0-11.51a8.42,8.42,0,0,1-.08-1.22c0-.32.18-6.68.18-8,0-2.2-.21-3.25-.21-5.64,0-1.3.06-2.65.17-3.86,0-2.89,0-5.89,0-9.05"/><path class="cls-2" d="M65-.29c0-8.34-.55-15.73-.36-24.06.18-8.13.16-17.71.36-25.19"/></pattern></defs><g id="Layer_2" data-name="Layer 2"><g id="illustrations"><path class="cls-3" d="M434,530.2H549c-6.4,26.74-30.07,64.18-82.22,64.18a225.44,225.44,0,0,1-30.2-1.92l-2.6-3.87h0Z"/><path class="cls-4" d="M345.25,399.48c0,.69.76,33.8.76,33.9a12.51,12.51,0,0,1-20,10.06A12.52,12.52,0,0,1,303.69,450a12.52,12.52,0,0,1-24.92-1.73v-7.56c-.57-.44-1.13-.89-1.7-1.36,0,0-86.67-73.77-87.92-74.89-4.08-3.59-8-7.32-11.8-11.15a243.53,243.53,0,0,1-45.51-64l-3-6.11,73.44-40.26,4.65,9.47q3,6,6.39,11.76a159,159,0,0,0,20,26.65h0A159.28,159.28,0,0,0,247.14,304s85.19,72.5,85.7,73l23.79-6.77a12.51,12.51,0,1,1,6.86,24.07Z"/><path d="M586.34,651.55v31H517.11c-5.57-26.3-21.48-43.58-51.42-46.84l-29.1-43.24a225.44,225.44,0,0,0,30.2,1.92c52.15,0,75.82-37.44,82.22-64.18h37.33v51.86c-23.66,3.75-49.18,16.69-49.18,38.23,0,18.7,12.2,31.69,40.17,31.69C580.32,652,583.34,651.84,586.34,651.55Z"/><path class="cls-3" d="M517.11,682.54H497.2L465.69,635.7C495.63,639,511.54,656.24,517.11,682.54Z"/><path class="cls-3" d="M586.34,582.06v69.49c-3,.29-6,.43-9,.43-28,0-40.17-13-40.17-31.69C537.16,598.75,562.68,585.81,586.34,582.06Z"/><path class="cls-5" d="M497.2,682.54,530.44,732l-97.69,79.6h0L225.67,503.75l-.73-.21,10.36-35.91,43.47-26.95v7.56A12.52,12.52,0,0,0,303.69,450a12.52,12.52,0,0,0,22.36-6.53,12.47,12.47,0,0,0,11.5,1.78h0Z"/><path class="cls-4" d="M830.16,675.18V834.51h-81.5V675.18a28.54,28.54,0,0,0-57.08,0V683H610.07v-7.8a110,110,0,1,1,220.09,0Z"/><path class="cls-4" d="M497.33,272.64l-1.25-2.18a12.62,12.62,0,0,0-17.26-4.62,12.39,12.39,0,0,0-4,3.68,12.64,12.64,0,0,0-.76,13.29,12.63,12.63,0,0,0-20.9,14.08l14.24,26.84-51.7,32.07V148.73A214.41,214.41,0,0,1,586.34,250l-53.79,33.35-12-20.72A12.64,12.64,0,0,0,503.33,258a12.79,12.79,0,0,0-4.2,3.93,12.63,12.63,0,0,0-1.21,11.73Z"/><path class="cls-4" d="M337.55,726.19V838.07H284.14a58.46,58.46,0,0,0-58.47-58.46V726.19Z"/><path class="cls-6" d="M830.16,675.18V834.51h-81.5V675.18a28.54,28.54,0,0,0-57.08,0V683H610.07v-7.8a110,110,0,1,1,220.09,0Z"/><path class="cls-4" d="M808.48,443.45A13.5,13.5,0,1,1,795,457,13.51,13.51,0,0,1,808.48,443.45Z"/><rect class="cls-5" x="652.53" y="500.62" width="145.64" height="48.65"/><rect class="cls-4" x="612.23" y="279.98" width="167.08" height="29.93"/><polygon class="cls-5" points="779.32 309.91 721.1 352.81 721.1 384.67 670.45 416.19 670.45 352.81 612.23 309.91 779.32 309.91"/><circle class="cls-4" cx="763.88" cy="408.73" r="13.49"/><path class="cls-3" d="M748.49,248.11H695.78L721.4,202A52.7,52.7,0,0,1,748.49,248.11Z"/><path class="cls-4" d="M695.78,248.11h52.71A52.52,52.52,0,0,1,737.77,280h-84a52.73,52.73,0,0,1,67.62-78Z"/><circle class="cls-3" cx="696.01" cy="456.95" r="25.56"/><path class="cls-5" d="M652.53,706.75a65.66,65.66,0,1,1-48.39,110L633,790.28a26.44,26.44,0,1,0-6.95-17.87,25.12,25.12,0,0,0,.16,2.9l-39,4.3a68.43,68.43,0,0,1-.39-7.2,66.83,66.83,0,0,1,.91-10.94l24.46-20.1a22.28,22.28,0,0,0-12.75-7.65A65.55,65.55,0,0,1,652.53,706.75Z"/><path class="cls-4" d="M652.53,746a26.44,26.44,0,1,1-26.28,29.33,25.12,25.12,0,0,1-.16-2.9A26.43,26.43,0,0,1,652.53,746Z"/><path class="cls-4" d="M633,790.28l-28.9,26.52a65.45,65.45,0,0,1-16.89-37.19l39-4.3A26.28,26.28,0,0,0,633,790.28Z"/><path class="cls-4" d="M620.64,395.24a13.49,13.49,0,1,1-13.49,13.49A13.5,13.5,0,0,1,620.64,395.24Z"/><path d="M612.23,741.37l-146,120-33.48-49.77h0L530.44,732c17.19,19.62,47.41-2.83,69,1.77A22.28,22.28,0,0,1,612.23,741.37Z"/><polygon class="cls-5" points="514.78 372.59 590.73 498.14 438.82 498.14 514.78 372.59"/><path class="cls-7" d="M497.33,272.64l-1.25-2.18a12.62,12.62,0,0,0-17.26-4.62,12.39,12.39,0,0,0-4,3.68,12.64,12.64,0,0,0-.76,13.29,12.63,12.63,0,0,0-20.9,14.08l14.24,26.84-51.7,32.07V148.73A214.41,214.41,0,0,1,586.34,250l-53.79,33.35-12-20.72A12.64,12.64,0,0,0,503.33,258a12.79,12.79,0,0,0-4.2,3.93,12.63,12.63,0,0,0-1.21,11.73Z"/><path class="cls-4" d="M511.06,296.66l.2.34.11-.06-.2-.35Zm-37-13.85a12.6,12.6,0,0,1,.76-13.29,12.08,12.08,0,0,0,22.53,3.12l.59,1a12.63,12.63,0,0,1,1.21-11.73,12.09,12.09,0,0,0,22.42,2.39l11,19a47.32,47.32,0,0,1,.42,6.34c0,37.76-50.14,64.43-80.86,43.54l15.27-9.48-14.24-26.84a12.61,12.61,0,0,1-.34-12,12.1,12.1,0,0,0,21.8-1.09S474.1,282.9,474,282.81Z"/><path class="cls-4" d="M520.58,262.61l1,1.69a12.09,12.09,0,0,1-22.42-2.39,12.79,12.79,0,0,1,4.2-3.93A12.64,12.64,0,0,1,520.58,262.61Z"/><polygon class="cls-4" points="511.17 296.59 511.37 296.94 511.26 297 511.06 296.66 511.17 296.59"/><path class="cls-4" d="M496.08,270.46l1.25,2.18a12.08,12.08,0,0,1-22.53-3.12,12.39,12.39,0,0,1,4-3.68A12.62,12.62,0,0,1,496.08,270.46Z"/><path class="cls-4" d="M474.2,283.09l.4.68a12.1,12.1,0,0,1-21.8,1.09A12.64,12.64,0,0,1,474,282.81Z"/><path class="cls-4" d="M413.33,443.45A13.5,13.5,0,1,1,399.84,457,13.5,13.5,0,0,1,413.33,443.45Z"/><path class="cls-4" d="M415.68,148.73V355.8L307.23,171.38a213.66,213.66,0,0,1,108.45-22.65Z"/><path class="cls-5" d="M307.23,171.38,415.68,355.8,233.31,290.75h0a159,159,0,0,1-20-26.65,213.76,213.76,0,0,1,77.41-83.45Q298.86,175.61,307.23,171.38Z"/><path d="M415.68,355.8l-43.1,26.72a12.53,12.53,0,0,0-15.95-12.31L332.84,377c-.51-.47-1-.94-1.56-1.39L247.14,304a159.28,159.28,0,0,1-13.83-13.26Z"/><path class="cls-8" d="M337.55,726.19V838.07H284.14a58.46,58.46,0,0,0-58.47-58.46V726.19Z"/><path class="cls-3" d="M202.28,242.87l-73.44,40.26L84.15,192.2h0L75,173.52a41.67,41.67,0,0,1-4.27-19.68c.55-18.56,14-34.22,32-38.68q4.47-1.11,9.74-2.19c22.2-4.56,45.5,1.25,62.37,16.35a54.47,54.47,0,0,0,66.36,4.85c23.61-15.62,54.23-16.31,77.53-.24a93,93,0,0,1,23.83,23.39,213.22,213.22,0,0,0-35.29,14.06q-8.37,4.25-16.5,9.27a213.76,213.76,0,0,0-77.41,83.45q-3.42-5.73-6.39-11.76Z"/><path d="M278.77,440.68l-57.38,35.58a213.86,213.86,0,0,1-32.25-111.82h0C190.4,365.55,278.2,440.24,278.77,440.68Z"/><path d="M259.28,33A54.56,54.56,0,0,1,249,38.67,55.37,55.37,0,0,1,227.32,43,55.59,55.59,0,0,1,194.2,32.16,56.06,56.06,0,0,1,160.41,67.3a46.63,46.63,0,0,1-3.78-18.45C156.63-.25,226.84-18.82,259.28,33Z"/><path class="cls-4" d="M249,38.68A46.75,46.75,0,0,1,160.41,67.3,56.06,56.06,0,0,0,194.2,32.16,55.59,55.59,0,0,0,227.32,43,55.37,55.37,0,0,0,249,38.67Z"/><path class="cls-5" d="M221.39,476.26l13.91-8.63L137.62,806.19l-120-35.77C55.3,634.8,116.55,425.88,135.92,353.28h41.43c3.79,3.83,7.72,7.56,11.8,11.15h0A213.86,213.86,0,0,0,221.39,476.26Z"/><path class="cls-3" d="M177.35,353.28H135.92L84.15,192.2l47.69,97A243.53,243.53,0,0,0,177.35,353.28Z"/><path d="M137.62,806.19c-8.2,30.73,46.35,42.7,37.74,73.18L2,827.67c4.48-16.77,9.77-36.13,15.64-57.25Z"/><line class="cls-9" x1="530.44" y1="731.95" x2="337.55" y2="445.23"/><line class="cls-9" x1="235.3" y1="467.63" x2="137.62" y2="806.19"/><line class="cls-9" x1="135.92" y1="353.28" x2="177.35" y2="353.28"/><path class="cls-9" d="M233.3,290.75a159,159,0,0,1-20-26.65q-3.42-5.72-6.39-11.76L169.7,176.59"/><path class="cls-9" d="M345.25,399.48l18.24-5.2a12.5,12.5,0,0,0,9.09-11.76,12.15,12.15,0,0,0-.48-3.7,12.51,12.51,0,0,0-15.47-8.61L332.84,377c-.51-.47-1-.94-1.56-1.39L247.14,304a159.28,159.28,0,0,1-13.83-13.26"/><path class="cls-9" d="M278.77,440.68v7.56A12.52,12.52,0,0,0,303.69,450a12.52,12.52,0,0,0,22.36-6.53,12.47,12.47,0,0,0,11.5,1.78A12.53,12.53,0,0,0,346,433.38c0-.1-.76-33.91-.76-33.91"/><line class="cls-9" x1="128.84" y1="283.13" x2="202.28" y2="242.87"/><path class="cls-9" d="M84.15,192.19,75,173.52a41.67,41.67,0,0,1-4.27-19.68c.55-18.56,14-34.22,32-38.68q4.47-1.11,9.74-2.19c22.2-4.56,45.5,1.25,62.37,16.35a54.47,54.47,0,0,0,66.36,4.85c23.61-15.62,54.23-16.31,77.53-.24a93,93,0,0,1,23.83,23.39"/><path class="cls-9" d="M189.14,364.44a213.86,213.86,0,0,0,32.25,111.82l57.38-35.58c-.57-.44-1.13-.89-1.7-1.36,0,0-86.67-73.77-87.92-74.89-4.06-3.61-8-7.32-11.8-11.15a243.3,243.3,0,0,1-45.51-64l-47.69-97"/><path class="cls-9" d="M511.06,296.66,498.7,275.24a13.11,13.11,0,0,1-.78-1.6,12.63,12.63,0,0,1,1.21-11.73,12.79,12.79,0,0,1,4.2-3.93,12.64,12.64,0,0,1,17.25,4.63l12,20.72"/><polygon class="cls-9" points="511.06 296.66 511.17 296.59 511.37 296.94 511.26 297 511.06 296.66"/><path class="cls-9" d="M452.11,333.21C482.83,354.1,533,327.43,533,289.67a47.32,47.32,0,0,0-.42-6.34L586.34,250a214.47,214.47,0,0,0-279.11-78.6q-8.37,4.25-16.5,9.27a213.76,213.76,0,0,0-77.41,83.45h0"/><path class="cls-9" d="M489.68,309.91s-15.58-27-15.64-27.1a12.63,12.63,0,0,1,22-12.35l1.84,3.18"/><path class="cls-9" d="M372.58,382.52l94.8-58.79-14.24-26.84A12.63,12.63,0,0,1,474,282.81a2.19,2.19,0,0,1,.2.25"/><path class="cls-9" d="M499.13,261.91a12.09,12.09,0,0,0,22.42,2.39"/><path class="cls-9" d="M474.8,269.52a12.08,12.08,0,0,0,22.53,3.12,1.51,1.51,0,0,0,.15-.28"/><path class="cls-9" d="M452.8,284.86a12.1,12.1,0,0,0,21.8-1.09"/><polyline class="cls-9" points="307.23 171.38 415.68 355.8 415.68 148.73"/><polyline class="cls-9" points="415.68 355.8 233.31 290.75 233.29 290.75"/><path class="cls-9" d="M17.3,770.31l120.32,35.88c-8.2,30.73,46.35,42.7,37.74,73.18L2,827.67C6.48,810.9,116.55,425.88,135.92,353.28L84.15,192.2h0"/><path class="cls-9" d="M432.75,811.55,530.44,732c17.19,19.62,47.41-2.82,69,1.77a22.34,22.34,0,0,1,12.75,7.65l-146,120L225.67,503.75"/><path class="cls-9" d="M160.41,67.3A56.06,56.06,0,0,0,194.2,32.16,55.59,55.59,0,0,0,227.32,43,55.55,55.55,0,0,0,249,38.67,55.12,55.12,0,0,0,259.28,33C226.84-18.82,156.63-.25,156.63,48.85A46.74,46.74,0,1,0,249,38.68"/><path class="cls-9" d="M830.16,834.51h-81.5V675.18a28.54,28.54,0,0,0-57.08,0V683H610.07v-7.8a110,110,0,1,1,220.09,0Z"/><rect class="cls-9" x="652.53" y="500.62" width="145.64" height="48.65"/><circle class="cls-9" cx="696.01" cy="456.95" r="25.56"/><path class="cls-9" d="M587.77,761.47a66.83,66.83,0,0,0-.91,10.94,68.29,68.29,0,0,0,.39,7.2,65.69,65.69,0,1,0,12.23-45.89"/><path class="cls-9" d="M633,790.28a26.44,26.44,0,1,0-6.95-17.87,25.12,25.12,0,0,0,.16,2.9A26.41,26.41,0,0,0,633,790.28Z"/><line class="cls-9" x1="633.04" y1="790.28" x2="604.14" y2="816.8"/><line class="cls-9" x1="587.25" y1="779.61" x2="626.25" y2="775.31"/><polyline class="cls-9" points="434 588.59 434 530.2 586.34 530.2 586.34 682.54 497.2 682.54"/><polygon class="cls-9" points="590.73 498.14 514.78 372.59 438.82 498.14 590.73 498.14"/><path class="cls-9" d="M284.14,838.07a58.46,58.46,0,0,0-58.47-58.46V726.19H337.55V838.07Z"/><rect class="cls-9" x="612.23" y="279.98" width="167.08" height="29.93"/><polyline class="cls-9" points="612.23 309.91 670.45 352.81 670.45 416.19 721.1 384.67 721.1 352.81 779.32 309.91"/><path class="cls-9" d="M737.77,280a52.72,52.72,0,1,0-84,0"/><polyline class="cls-9" points="748.49 248.11 695.78 248.11 721.4 202.03"/><polyline class="cls-9" points="796.09 396.06 808.49 396.06 808.49 421.42"/><circle class="cls-9" cx="763.88" cy="408.73" r="13.49"/><polyline class="cls-9" points="753.69 444.27 766.08 444.27 766.08 469.63"/><polyline class="cls-9" points="753.69 352.03 766.08 352.03 766.08 377.39"/><polyline class="cls-9" points="556.94 352.03 569.34 352.03 569.34 377.39"/><path class="cls-9" d="M634.14,408.73a13.5,13.5,0,1,0-13.5,13.49A13.5,13.5,0,0,0,634.14,408.73Z"/><polyline class="cls-9" points="610.46 444.27 622.84 444.27 622.84 469.63"/><polyline class="cls-9" points="610.46 352.03 622.84 352.03 622.84 377.39"/><path class="cls-9" d="M822,457a13.5,13.5,0,1,0-13.5,13.49A13.51,13.51,0,0,0,822,457Z"/><path class="cls-9" d="M426.82,457a13.49,13.49,0,1,0-13.49,13.49A13.5,13.5,0,0,0,426.82,457Z"/><path class="cls-9" d="M436.59,592.46a225.44,225.44,0,0,0,30.2,1.92c52.15,0,75.82-37.44,82.22-64.18"/><path class="cls-9" d="M465.69,635.7c29.94,3.26,45.85,20.54,51.42,46.84"/><path class="cls-9" d="M586.34,582.06c-23.66,3.75-49.18,16.69-49.18,38.23,0,18.7,12.2,31.69,40.17,31.69,3,0,6-.14,9-.43"/></g></g></svg>