<svg xmlns="http://www.w3.org/2000/svg" xmlns:xlink="http://www.w3.org/1999/xlink" viewBox="0 0 1006.71 941.14"><defs><style>.cls-1,.cls-2,.cls-8,.cls-9{fill:none;}.cls-2,.cls-8{stroke:#000;}.cls-2,.cls-8,.cls-9{stroke-linecap:round;stroke-linejoin:round;}.cls-2{stroke-width:1.5px;}.cls-3{fill:#fff;}.cls-4{fill:url(#New_Pattern_4);}.cls-5{fill:#d3e5fb;}.cls-6{fill:#3496f7;}.cls-7{fill:url(#New_Pattern_4-3);}.cls-8,.cls-9{stroke-width:4px;}.cls-9{stroke:#fff;}.cls-10{fill:url(#New_Pattern_3);}</style><pattern id="New_Pattern_4" data-name="New Pattern 4" width="70" height="50" patternTransform="translate(-120.23 -79.04) scale(1.07)" patternUnits="userSpaceOnUse" viewBox="0 0 70 50"><rect class="cls-1" width="70" height="50"/><path class="cls-2" d="M8.89,100c-.05-7.08.29-14.17.29-21.25,0-4.32-.37-17.48-.29-28.09"/><path class="cls-2" d="M22.94,99.84c0-1.65.09-3.31.09-5,0-2.48-.21-5-.21-7.45s0-3.83.05-7.28c0-1.44-.06-2.9-.06-4.35,0-3.1.31-4.62.31-7.37,0-1.4-.27-4.94-.27-8.33q0-1.61.09-3.21V50.11"/><path class="cls-2" d="M36.74,99.84c0-9.46.33-18.09.33-27.56,0-3.7-.15-7.46-.15-11.2,0-3.35-.1-7.29-.18-10.75"/><path class="cls-2" d="M50.93,99.75c0-1.24-.07-2.75-.07-4,0-1.92,0-3.86,0-5.79,0-3.87,0-7.66,0-11.51a8.42,8.42,0,0,1-.08-1.22c0-.32.18-6.68.18-8,0-2.2-.21-3.25-.21-5.64,0-1.3.06-2.65.17-3.86,0-2.89,0-5.89,0-9.05"/><path class="cls-2" d="M65,99.71c0-8.34-.55-15.73-.36-24.06.18-8.13.16-17.71.36-25.19"/><path class="cls-2" d="M8.89,50c-.05-7.08.29-14.17.29-21.25,0-4.32-.37-17.48-.29-28.09"/><path class="cls-2" d="M22.94,49.84c0-1.65.09-3.31.09-5,0-2.48-.21-5-.21-7.45s0-3.83.05-7.28c0-1.44-.06-2.9-.06-4.35,0-3.1.31-4.62.31-7.37,0-1.4-.27-4.94-.27-8.33q0-1.6.09-3.21V.11"/><path class="cls-2" d="M36.74,49.84c0-9.46.33-18.09.33-27.56,0-3.7-.15-7.46-.15-11.2,0-3.35-.1-7.29-.18-10.75"/><path class="cls-2" d="M50.93,49.75c0-1.24-.07-2.75-.07-4,0-1.92,0-3.86,0-5.79,0-3.87,0-7.66,0-11.51a8.42,8.42,0,0,1-.08-1.22c0-.32.18-6.68.18-8,0-2.2-.21-3.25-.21-5.64,0-1.3.06-2.65.17-3.86,0-2.89,0-5.89,0-9"/><path class="cls-2" d="M65,49.71c0-8.34-.55-15.73-.36-24.06.18-8.13.16-17.71.36-25.19"/><path class="cls-2" d="M8.89,0c-.05-7.08.29-14.17.29-21.25,0-4.32-.37-17.48-.29-28.09"/><path class="cls-2" d="M22.94-.16c0-1.65.09-3.31.09-5,0-2.48-.21-5-.21-7.45s0-3.83.05-7.28c0-1.44-.06-2.9-.06-4.35,0-3.1.31-4.62.31-7.37,0-1.4-.27-4.94-.27-8.33q0-1.61.09-3.21v-6.71"/><path class="cls-2" d="M36.74-.16c0-9.46.33-18.09.33-27.56,0-3.7-.15-7.46-.15-11.2,0-3.35-.1-7.29-.18-10.75"/><path class="cls-2" d="M50.93-.25c0-1.24-.07-2.75-.07-4,0-1.92,0-3.86,0-5.79,0-3.87,0-7.66,0-11.51a8.42,8.42,0,0,1-.08-1.22c0-.32.18-6.68.18-8,0-2.2-.21-3.25-.21-5.64,0-1.3.06-2.65.17-3.86,0-2.89,0-5.89,0-9.05"/><path class="cls-2" d="M65-.29c0-8.34-.55-15.73-.36-24.06.18-8.13.16-17.71.36-25.19"/></pattern><pattern id="New_Pattern_4-3" data-name="New Pattern 4" width="70" height="50" patternTransform="translate(0 -30)" patternUnits="userSpaceOnUse" viewBox="0 0 70 50"><rect class="cls-1" width="70" height="50"/><path class="cls-2" d="M8.89,100c-.05-7.08.29-14.17.29-21.25,0-4.32-.37-17.48-.29-28.09"/><path class="cls-2" d="M22.94,99.84c0-1.65.09-3.31.09-5,0-2.48-.21-5-.21-7.45s0-3.83.05-7.28c0-1.44-.06-2.9-.06-4.35,0-3.1.31-4.62.31-7.37,0-1.4-.27-4.94-.27-8.33q0-1.61.09-3.21V50.11"/><path class="cls-2" d="M36.74,99.84c0-9.46.33-18.09.33-27.56,0-3.7-.15-7.46-.15-11.2,0-3.35-.1-7.29-.18-10.75"/><path class="cls-2" d="M50.93,99.75c0-1.24-.07-2.75-.07-4,0-1.92,0-3.86,0-5.79,0-3.87,0-7.66,0-11.51a8.42,8.42,0,0,1-.08-1.22c0-.32.18-6.68.18-8,0-2.2-.21-3.25-.21-5.64,0-1.3.06-2.65.17-3.86,0-2.89,0-5.89,0-9.05"/><path class="cls-2" d="M65,99.71c0-8.34-.55-15.73-.36-24.06.18-8.13.16-17.71.36-25.19"/><path class="cls-2" d="M8.89,50c-.05-7.08.29-14.17.29-21.25,0-4.32-.37-17.48-.29-28.09"/><path class="cls-2" d="M22.94,49.84c0-1.65.09-3.31.09-5,0-2.48-.21-5-.21-7.45s0-3.83.05-7.28c0-1.44-.06-2.9-.06-4.35,0-3.1.31-4.62.31-7.37,0-1.4-.27-4.94-.27-8.33q0-1.6.09-3.21V.11"/><path class="cls-2" d="M36.74,49.84c0-9.46.33-18.09.33-27.56,0-3.7-.15-7.46-.15-11.2,0-3.35-.1-7.29-.18-10.75"/><path class="cls-2" d="M50.93,49.75c0-1.24-.07-2.75-.07-4,0-1.92,0-3.86,0-5.79,0-3.87,0-7.66,0-11.51a8.42,8.42,0,0,1-.08-1.22c0-.32.18-6.68.18-8,0-2.2-.21-3.25-.21-5.64,0-1.3.06-2.65.17-3.86,0-2.89,0-5.89,0-9"/><path class="cls-2" d="M65,49.71c0-8.34-.55-15.73-.36-24.06.18-8.13.16-17.71.36-25.19"/><path class="cls-2" d="M8.89,0c-.05-7.08.29-14.17.29-21.25,0-4.32-.37-17.48-.29-28.09"/><path class="cls-2" d="M22.94-.16c0-1.65.09-3.31.09-5,0-2.48-.21-5-.21-7.45s0-3.83.05-7.28c0-1.44-.06-2.9-.06-4.35,0-3.1.31-4.62.31-7.37,0-1.4-.27-4.94-.27-8.33q0-1.61.09-3.21v-6.71"/><path class="cls-2" d="M36.74-.16c0-9.46.33-18.09.33-27.56,0-3.7-.15-7.46-.15-11.2,0-3.35-.1-7.29-.18-10.75"/><path class="cls-2" d="M50.93-.25c0-1.24-.07-2.75-.07-4,0-1.92,0-3.86,0-5.79,0-3.87,0-7.66,0-11.51a8.42,8.42,0,0,1-.08-1.22c0-.32.18-6.68.18-8,0-2.2-.21-3.25-.21-5.64,0-1.3.06-2.65.17-3.86,0-2.89,0-5.89,0-9.05"/><path class="cls-2" d="M65-.29c0-8.34-.55-15.73-.36-24.06.18-8.13.16-17.71.36-25.19"/></pattern><pattern id="New_Pattern_3" data-name="New Pattern 3" width="40" height="40" patternTransform="translate(-55.96 -100.46) scale(1.07)" patternUnits="userSpaceOnUse" viewBox="0 0 40 40"><rect class="cls-1" width="40" height="40"/><path d="M36.18,30a1.9,1.9,0,0,0,1.91,1.91V28.09A1.9,1.9,0,0,0,36.18,30Z"/><path d="M40,33.82a1.9,1.9,0,0,0,1.91-1.91H38.09A1.9,1.9,0,0,0,40,33.82Z"/><path d="M40,26.18a1.9,1.9,0,0,0-1.91,1.91h3.82A1.9,1.9,0,0,0,40,26.18Z"/><path d="M16.18,40a1.9,1.9,0,0,0,1.91,1.91V38.09A1.9,1.9,0,0,0,16.18,40Z"/><path d="M21.91,38.09v3.82a1.91,1.91,0,0,0,0-3.82Z"/><path d="M20,36.18a1.9,1.9,0,0,0-1.91,1.91h3.82A1.9,1.9,0,0,0,20,36.18Z"/><path d="M1.91,28.09v3.82a1.91,1.91,0,0,0,0-3.82Z"/><path d="M36.18,10a1.9,1.9,0,0,0,1.91,1.91V8.09A1.9,1.9,0,0,0,36.18,10Z"/><path d="M40,13.82a1.9,1.9,0,0,0,1.91-1.91H38.09A1.9,1.9,0,0,0,40,13.82Z"/><path d="M40,6.18a1.9,1.9,0,0,0-1.91,1.91h3.82A1.9,1.9,0,0,0,40,6.18Z"/><path d="M18.79,16.37a1.92,1.92,0,0,0-1.21,2.42l3.63-1.21A1.92,1.92,0,0,0,18.79,16.37Z"/><path d="M22.42,21.21l-3.63,1.21a1.91,1.91,0,0,0,3.63-1.21Z"/><path d="M16.37,21.21a1.92,1.92,0,0,0,2.42,1.21l-1.21-3.63A1.92,1.92,0,0,0,16.37,21.21Z"/><path d="M23.63,18.79a1.92,1.92,0,0,0-2.42-1.21l1.21,3.63A1.92,1.92,0,0,0,23.63,18.79Z"/><path d="M1.91,8.09v3.82a1.91,1.91,0,0,0,0-3.82Z"/><path d="M20,3.82a1.9,1.9,0,0,0,1.91-1.91H18.09A1.9,1.9,0,0,0,20,3.82Z"/><path d="M0,33.82a1.9,1.9,0,0,0,1.91-1.91H-1.91A1.9,1.9,0,0,0,0,33.82Z"/><path d="M0,26.18a1.9,1.9,0,0,0-1.91,1.91H1.91A1.9,1.9,0,0,0,0,26.18Z"/><path d="M0,13.82a1.9,1.9,0,0,0,1.91-1.91H-1.91A1.9,1.9,0,0,0,0,13.82Z"/><path d="M0,6.18A1.9,1.9,0,0,0-1.91,8.09H1.91A1.9,1.9,0,0,0,0,6.18Z"/><path d="M16.18,0a1.9,1.9,0,0,0,1.91,1.91V-1.91A1.9,1.9,0,0,0,16.18,0Z"/><path d="M21.91-1.91V1.91A1.9,1.9,0,0,0,23.82,0,1.9,1.9,0,0,0,21.91-1.91Z"/></pattern></defs><g id="Layer_2" data-name="Layer 2"><g id="illustrations"><path d="M942.55,381.43v80.22A29.53,29.53,0,0,1,913,491.19H898.35A65.08,65.08,0,0,0,924.05,531a65.11,65.11,0,0,1-58.21-39.81H808.49A29.54,29.54,0,0,1,779,461.65V381.43a29.55,29.55,0,0,1,29.54-29.54H913A29.54,29.54,0,0,1,942.55,381.43ZM904.78,421a10.33,10.33,0,1,0-10.32,10.33A10.32,10.32,0,0,0,904.78,421Zm-34.92,0a10.33,10.33,0,1,0-10.32,10.33A10.32,10.32,0,0,0,869.86,421Zm-34.92,0a10.33,10.33,0,1,0-10.32,10.33A10.33,10.33,0,0,0,834.94,421Z"/><path d="M894.46,410.67A10.33,10.33,0,1,1,884.13,421,10.32,10.32,0,0,1,894.46,410.67Z"/><path d="M859.54,410.67A10.33,10.33,0,1,1,849.21,421,10.32,10.32,0,0,1,859.54,410.67Z"/><path d="M824.62,410.67A10.33,10.33,0,1,1,814.29,421,10.33,10.33,0,0,1,824.62,410.67Z"/><path class="cls-3" d="M820.13,491.19V764.05H765.57V540.43h-218V764.05H454.5a77.77,77.77,0,0,0-148.16,0H197.83V262.82l25.07,23.65L367.35,141.74H820.13V351.89H808.49A29.55,29.55,0,0,0,779,381.43v80.22a29.54,29.54,0,0,0,29.54,29.54Zm-97.22,7.48V407.13H631.39v91.54ZM554.74,337.35V245.83H463.22v91.52Zm-168.18,0V245.83H295v91.52Z"/><polygon class="cls-3" points="276.19 141.75 221.34 196.7 197.83 174.35 197.83 141.75 276.19 141.75"/><path class="cls-4" d="M820.13,491.19V764.05H765.57V540.43h-218V764.05H454.5a77.77,77.77,0,0,0-148.16,0H197.83V262.82l25.07,23.65L367.35,141.74H820.13V351.89H808.49A29.55,29.55,0,0,0,779,381.43v80.22a29.54,29.54,0,0,0,29.54,29.54Zm-97.22,7.48V407.13H631.39v91.54ZM554.74,337.35V245.83H463.22v91.52Zm-168.18,0V245.83H295v91.52Z"/><rect class="cls-3" x="547.57" y="764.05" width="218" height="31.58"/><path class="cls-3" d="M765.57,540.43V764.05h-218V540.43ZM620.3,612.3a13.81,13.81,0,1,0-13.8,13.8A13.81,13.81,0,0,0,620.3,612.3Zm0,55.73a13.81,13.81,0,1,0-13.8,13.8A13.81,13.81,0,0,0,620.3,668Zm0,55.73a13.81,13.81,0,1,0-13.8,13.8A13.81,13.81,0,0,0,620.3,723.76Z"/><rect class="cls-3" x="631.39" y="407.13" width="91.52" height="91.54"/><path class="cls-5" d="M606.5,598.49a13.81,13.81,0,1,1-13.81,13.81A13.81,13.81,0,0,1,606.5,598.49Z"/><path class="cls-5" d="M606.5,654.22A13.81,13.81,0,1,1,592.69,668,13.81,13.81,0,0,1,606.5,654.22Z"/><path class="cls-5" d="M606.5,710a13.81,13.81,0,1,1-13.81,13.81A13.81,13.81,0,0,1,606.5,710Z"/><rect class="cls-6" x="463.22" y="245.83" width="91.52" height="91.52"/><path class="cls-3" d="M484.9,807.62v71h-71V857.87a77.86,77.86,0,0,0,41.64-50.25Z"/><path class="cls-3" d="M458.17,787.7a77.37,77.37,0,0,1-2.59,19.92H413.94v50.25a77.8,77.8,0,0,1-107.6-93.82H454.5A77.75,77.75,0,0,1,458.17,787.7Z"/><path d="M413.94,807.62h41.64a77.86,77.86,0,0,1-41.64,50.25Z"/><path class="cls-6" d="M454.5,764.05H306.34a77.77,77.77,0,0,1,148.16,0Z"/><rect class="cls-3" x="295.04" y="245.83" width="91.52" height="91.52"/><polygon class="cls-6" points="340.88 76.93 386.56 122.49 222.9 286.47 112.33 182.14 157.93 136.43 221.34 196.7 340.88 76.93"/><polygon class="cls-7" points="276.19 141.75 221.34 196.7 197.83 174.35 197.83 141.75 276.19 141.75"/><path d="M160.18,509.66l-20.07,5.45a39.19,39.19,0,0,0-27.57,27.58l-5.41,20-5.43-20a39.14,39.14,0,0,0-27.57-27.58l-20.07-5.45,20.07-5.45a39.16,39.16,0,0,0,27.57-27.58l5.43-20,5.41,20a39.21,39.21,0,0,0,27.57,27.58Z"/><path class="cls-6" d="M149.18,500.66l-20.08,5.45a39.18,39.18,0,0,0-27.56,27.58l-5.42,20-5.43-20a39.11,39.11,0,0,0-27.56-27.58L43.06,520.66l20.07-25.45a39.13,39.13,0,0,0,27.56-27.58l5.43-20,5.42,20a39.2,39.2,0,0,0,27.56,27.58Z"/><path class="cls-3" d="M53.06,416.51l-10,2.73A19.57,19.57,0,0,0,29.25,433l-2.72,10-2.71-10A19.58,19.58,0,0,0,10,419.24L0,416.51l10-2.72A19.6,19.6,0,0,0,23.82,400l2.71-10,2.72,10A19.58,19.58,0,0,0,43,413.79Z"/><path class="cls-8" d="M142.77,374.31l-2.71,10a19.6,19.6,0,0,1-13.78,13.78l-10,2.72,10,2.73a19.62,19.62,0,0,1,13.78,13.79l2.71,10,2.72-10a19.58,19.58,0,0,1,13.77-13.79l10-2.73-10-2.72a19.57,19.57,0,0,1-13.77-13.78Z"/><polyline class="cls-8" points="547.57 764.05 197.83 764.05 197.83 262.82"/><polyline class="cls-8" points="820.13 491.19 820.13 764.05 765.57 764.05"/><polyline class="cls-8" points="197.83 174.35 197.83 141.75 276.19 141.75"/><polyline class="cls-8" points="367.36 141.75 820.13 141.75 820.13 351.89"/><rect class="cls-8" x="295.04" y="245.83" width="91.52" height="91.52"/><rect class="cls-8" x="463.22" y="245.83" width="91.52" height="91.52"/><rect class="cls-8" x="631.39" y="407.13" width="91.52" height="91.54"/><polygon class="cls-8" points="276.19 141.75 340.88 76.93 386.56 122.49 222.9 286.47 112.33 182.14 157.93 136.43 221.34 196.7 276.19 141.75"/><polygon class="cls-8" points="765.57 764.05 765.57 795.63 547.57 795.63 547.57 540.43 765.57 540.43 765.57 764.05"/><path class="cls-8" d="M620.3,612.3a13.81,13.81,0,1,0-13.8,13.8A13.81,13.81,0,0,0,620.3,612.3Z"/><line class="cls-8" x1="643.91" y1="612.3" x2="713.66" y2="612.3"/><path class="cls-8" d="M620.3,668a13.81,13.81,0,1,0-13.8,13.8A13.81,13.81,0,0,0,620.3,668Z"/><line class="cls-8" x1="643.91" y1="668.03" x2="713.66" y2="668.03"/><path class="cls-8" d="M620.3,723.76a13.81,13.81,0,1,0-13.8,13.8A13.81,13.81,0,0,0,620.3,723.76Z"/><line class="cls-8" x1="643.91" y1="723.76" x2="713.66" y2="723.76"/><path class="cls-8" d="M820.13,351.89H913a29.54,29.54,0,0,1,29.53,29.54v80.22A29.53,29.53,0,0,1,913,491.19H898.35A65.08,65.08,0,0,0,924.05,531a65.11,65.11,0,0,1-58.21-39.81H808.49A29.54,29.54,0,0,1,779,461.65V381.43a29.55,29.55,0,0,1,29.54-29.54Z"/><path class="cls-9" d="M834.94,421a10.33,10.33,0,1,0-10.32,10.33A10.33,10.33,0,0,0,834.94,421Z"/><path class="cls-9" d="M869.86,421a10.33,10.33,0,1,0-10.32,10.33A10.32,10.32,0,0,0,869.86,421Z"/><path class="cls-9" d="M904.78,421a10.33,10.33,0,1,0-10.32,10.33A10.32,10.32,0,0,0,904.78,421Z"/><path class="cls-8" d="M455.58,807.62a77.69,77.69,0,1,0-41.64,50.25A77.37,77.37,0,0,0,455.58,807.62Z"/><polygon class="cls-8" points="455.58 807.62 484.9 807.62 484.9 878.59 413.94 878.59 413.94 807.62 455.58 807.62"/><path class="cls-5" d="M727,317.43l-46.39,43.12a11.64,11.64,0,0,0-1.56-3.06c-5.71-8.05-20.5-7.34-33,1.57a37.47,37.47,0,0,0-12.7,14.87c-.54-.49-1.08-1-1.59-1.57a24.63,24.63,0,0,1-4.83-25.92,24.18,24.18,0,0,1,6.1-8.9l65.31-60.7a55.5,55.5,0,0,0,5.36-5.71,58.76,58.76,0,0,0,12.93-43.5l-1.35-12.3a496.63,496.63,0,0,0-10.57-49.72c-4.17-15.42-22.56-21.32-35.23-11.6-.08.07-.17.13-.25.21-25.51,19.93-53.86,32.81-81.86,42.93-7,2.53-14,4.88-20.84,7.13a24.34,24.34,0,0,1-7.66,1.23,24.67,24.67,0,0,1-18.49-8.36h0a24.75,24.75,0,0,1-6.12-15.45,48.92,48.92,0,0,0,11.93-.81c18.79-3.57,32-16.8,29.63-29.57a16.12,16.12,0,0,0-.68-2.52C632.06,126,676.62,90.72,703.43,29.37A68.36,68.36,0,0,0,709.06,2h166V122c0,157.46-37.69,178.69-76.76,184.6Z"/><path class="cls-3" d="M703.69,271.12h0a55.5,55.5,0,0,1-5.36,5.71l-31,28.8v-29Z"/><path class="cls-3" d="M680.64,360.55l-14.07,13.08a24.62,24.62,0,0,1-33.22.3,37.47,37.47,0,0,1,12.7-14.87c12.53-8.91,27.32-9.62,33-1.57A11.64,11.64,0,0,1,680.64,360.55Z"/><path class="cls-3" d="M667.35,276.63v29L633,337.54a24.18,24.18,0,0,0-6.1,8.9H518.07V197.15h22.31a24.67,24.67,0,0,0,18.49,8.36,24.34,24.34,0,0,0,7.66-1.23c6.88-2.25,13.86-4.6,20.84-7.13h80Z"/><path class="cls-3" d="M575.81,151.32c2.4,12.77-10.84,26-29.63,29.57a48.92,48.92,0,0,1-11.93.81,24.66,24.66,0,0,1,17-24.25q12.28-4,23.91-8.65A16.12,16.12,0,0,1,575.81,151.32Z"/><path class="cls-8" d="M811.14,204.81,812,233.7a78.78,78.78,0,0,1-66.93,80.24l-17.1,2.6"/><path class="cls-8" d="M540.37,197.15a24.65,24.65,0,0,1,10.85-39.7q12.28-4,23.91-8.65C632.05,126,676.62,90.72,703.43,29.37A68.36,68.36,0,0,0,709.06,2h166V122c0,157.46-37.69,178.69-76.76,184.6L727,317.43"/><path class="cls-8" d="M764.49,212l1.12,10.19a108.22,108.22,0,0,1-33.73,90.7l-65.31,60.7a24.62,24.62,0,0,1-33.22.3c-.54-.49-1.08-1-1.59-1.57a24.67,24.67,0,0,1-4.83-25.92,24.38,24.38,0,0,1,6.1-8.9l65.31-60.7a55.5,55.5,0,0,0,5.36-5.71,58.76,58.76,0,0,0,12.93-43.5l-1.35-12.3a496.63,496.63,0,0,0-10.57-49.72c-4.17-15.42-22.56-21.32-35.23-11.6-.08.07-.17.13-.25.21-25.51,19.93-53.86,32.8-81.86,42.93-7,2.53-14,4.88-20.84,7.13a24.34,24.34,0,0,1-7.66,1.23,24.67,24.67,0,0,1-18.49-8.36"/><line class="cls-8" x1="667.35" y1="276.63" x2="703.69" y2="271.12"/><path class="cls-8" d="M633.35,373.93a37.47,37.47,0,0,1,12.7-14.87c12.53-8.91,27.32-9.62,33-1.57a11.64,11.64,0,0,1,1.56,3.06"/><path class="cls-8" d="M575.13,148.8a16.12,16.12,0,0,1,.68,2.52c2.4,12.77-10.84,26-29.63,29.57a48.92,48.92,0,0,1-11.93.81"/><polyline class="cls-8" points="587.37 197.15 667.35 197.15 667.35 305.64"/><polyline class="cls-8" points="626.92 346.44 518.07 346.44 518.07 197.15 540.38 197.15"/><path class="cls-6" d="M808.59,676l-21.1-41c-11.53-5.6-33.1-16.43-52.78-28.35C751.46,624,779.74,652.11,808.59,676Zm10.64-84.34,6,.46a47.2,47.2,0,0,1,38.81,26.35l37.45,76.7a28.42,28.42,0,0,0,25.54,16h77.65V889.09H836.34c-46.6,0-67-31.8-83.3-57.34-11.68-18.27-22-34.34-40.82-44,5.65-.78,10-3.26,11.92-7.33,4.07-8.75-4.81-21.53-19.85-28.55a47.52,47.52,0,0,0-15.15-4.3,26.41,26.41,0,0,1,32.75-13.12c41.18,15.06,60.06,45.05,75.62,68.88a.61.61,0,0,1,.07.1,7.27,7.27,0,0,0,12.42-.3c11-19.37,11.37-47.57-20.47-74.65l-.06,0q-3.36-2.86-7.2-5.68c-50.54-40.57-99.56-94-101.95-96.65a26.39,26.39,0,0,1,.53-36.18c2.62,6.46,9.32,12.64,18.35,16.07,12.54,4.77,25.27,2.57,30.22-4.74-6.26-6.55-10-10.59-10.11-10.76a26.47,26.47,0,0,0-15.72-8.32,26.39,26.39,0,0,1,1.8-27.73c3.21,5.51,9.28,10.56,17.12,13.54,13.89,5.27,28,2,31.54-7.27a12.21,12.21,0,0,0,.78-3.62c25.9,16.7,62.71,33.82,63.15,34S818.82,591.48,819.23,591.69Z"/><path class="cls-3" d="M787.49,635l21.1,41c-28.85-23.92-57.13-52-73.88-69.34C754.39,618.61,776,629.44,787.49,635Z"/><path class="cls-3" d="M789.47,728.39q-3.6-2.79-7.2-5.68Q786.11,725.53,789.47,728.39Z"/><path class="cls-3" d="M754.83,557.05a12.21,12.21,0,0,1-.78,3.62c-3.53,9.29-17.65,12.54-31.54,7.27-7.84-3-13.91-8-17.12-13.54h0c.19-.26.38-.52.58-.77a26.41,26.41,0,0,1,37-4.83C746.49,551.47,750.51,554.26,754.83,557.05Z"/><path class="cls-3" d="M704.29,751.82c15,7,23.92,19.8,19.85,28.55-1.91,4.07-6.27,6.55-11.92,7.33a75.55,75.55,0,0,0-8.47-3.71A26.37,26.37,0,0,1,688,750.13a27.63,27.63,0,0,1,1.11-2.61A47.52,47.52,0,0,1,704.29,751.82Z"/><path class="cls-3" d="M703.59,582.13a26.47,26.47,0,0,1,15.72,8.32c.15.17,3.85,4.21,10.11,10.76-4.95,7.31-17.68,9.51-30.22,4.74-9-3.43-15.73-9.61-18.35-16.07.37-.38.76-.76,1.15-1.11A26.35,26.35,0,0,1,703.59,582.13Z"/><path class="cls-8" d="M789.53,728.43C821.37,755.51,821,783.71,810,803.08a7.27,7.27,0,0,1-12.42.3.61.61,0,0,0-.07-.1c-15.56-23.83-34.44-53.82-75.62-68.88a26.43,26.43,0,0,0-32.75,13.12,27.63,27.63,0,0,0-1.11,2.61A26.37,26.37,0,0,0,703.75,784a75.55,75.55,0,0,1,8.47,3.71c18.83,9.73,29.14,25.78,40.82,44,16.35,25.54,36.7,57.34,83.3,57.34h168.37V711.16H927.06a28.42,28.42,0,0,1-25.54-16l-37.45-76.7a47.2,47.2,0,0,0-38.81-26.35l-6-.46"/><path class="cls-8" d="M782.27,722.71q3.84,2.82,7.2,5.68"/><path class="cls-8" d="M734.71,606.69c16.75,17.3,45,45.41,73.88,69.34,9.3,7.72,18.67,15,27.71,21.34"/><path class="cls-8" d="M789.53,728.43l-.06,0q-3.6-2.79-7.2-5.68c-50.53-40.59-99.56-94-101.95-96.65a26.39,26.39,0,0,1,.53-36.18c.37-.38.76-.76,1.15-1.11a26.42,26.42,0,0,1,37.31,1.68c.15.17,13.47,14.26,15.38,16.23"/><path class="cls-8" d="M808.59,676l-21.1-41c-11.53-5.6-33.1-16.43-52.78-28.35h0"/><path class="cls-8" d="M705.39,554.39c.19-.26.38-.52.58-.77a26.41,26.41,0,0,1,37-4.83c3.5,2.68,7.52,5.47,11.84,8.26,25.9,16.7,62.71,33.82,63.15,34s.84.41,1.25.62A26.29,26.29,0,0,1,830.37,603L879.3,698"/><path class="cls-8" d="M703.59,582.13a26.39,26.39,0,0,1,1.8-27.73"/><path class="cls-8" d="M729.42,601.21c-4.95,7.31-17.68,9.51-30.22,4.74-9-3.43-15.73-9.61-18.35-16.07"/><path class="cls-8" d="M754.83,557h0a12.21,12.21,0,0,1-.78,3.62c-3.53,9.29-17.65,12.54-31.54,7.27-7.84-3-13.91-8-17.12-13.54h0"/><path class="cls-8" d="M689.14,747.52a47.52,47.52,0,0,1,15.15,4.3c15,7,23.92,19.8,19.85,28.55-1.91,4.07-6.27,6.55-11.92,7.33"/><path class="cls-3" d="M313.66,400.84c-.82,1.68-1.62,3.39-2.37,5.12A130.15,130.15,0,0,0,545.58,519q2.32-4.4,4.35-9A130.15,130.15,0,0,0,313.66,400.84ZM493,314.77A156.17,156.17,0,0,1,388.57,608.35a154.21,154.21,0,0,1-20.33-7.24,159.2,159.2,0,0,1-18.91-9.8A156.18,156.18,0,0,1,493,314.77Z"/><path class="cls-3" d="M547.56,400.84a129.91,129.91,0,0,1,2.37,109.08q-2,4.63-4.35,9H466.4V400.84Z"/><path class="cls-3" d="M407.33,400.84V520.66H316.57A129.92,129.92,0,0,1,311.29,406c.75-1.73,1.55-3.44,2.37-5.12Z"/><path class="cls-10" d="M547.56,400.84a129.91,129.91,0,0,1,2.37,109.08q-2,4.63-4.35,9H466.4V400.84Z"/><path d="M547.56,400.84H466.4V519h79.18a130.15,130.15,0,0,1-229,1.71h90.76V400.84H313.66a130.14,130.14,0,0,1,233.9,0Z"/><path class="cls-10" d="M407.33,400.84V520.66H316.57A129.92,129.92,0,0,1,311.29,406c.75-1.73,1.55-3.44,2.37-5.12Z"/><path class="cls-3" d="M368.24,601.11a154.21,154.21,0,0,0,20.33,7.24h0c-.07.21-.15.41-.23.6l-28.1,68.56-43.8-15.17s32.8-70.87,32.89-71A159.2,159.2,0,0,0,368.24,601.11Z"/><path class="cls-5" d="M380.25,684.45c20.95,8.77,4.74,46.41-21.47,46.41h-.08a1.8,1.8,0,0,0-1.16,3.18c13,10.77,2.5,45.65-24.47,45.65h-2.2a3.94,3.94,0,0,0-3.09,6.38c10.63,13.45-1.92,42.46-26.18,42.46H75.38v-166H222.45l34.49-31.13a47.28,47.28,0,0,1,50.74-8.16l22.51,9.43-13.75,29.7Z"/><path class="cls-3" d="M298.33,828.53l-38,92.66a28.92,28.92,0,0,1-53.51-21.94c.15-.36.35-.81.51-1.17l32.19-69.55Z"/><path class="cls-8" d="M330.19,632.65l-22.51-9.43a47.28,47.28,0,0,0-50.74,8.16l-34.49,31.13H75.38v166H301.6"/><path class="cls-8" d="M301.6,828.53c24.26,0,36.81-29,26.18-42.46a3.94,3.94,0,0,1,3.09-6.38h2.2c27,0,37.51-34.88,24.47-45.65a1.8,1.8,0,0,1,1.16-3.18h.08c26.21,0,42.42-37.64,21.47-46.41l-63.81-22.1"/><path class="cls-8" d="M388.57,608.36c-.07.21-.15.41-.23.6l-28.1,68.56"/><path class="cls-8" d="M298.33,828.53l-38,92.66a28.92,28.92,0,0,1-53.51-21.94c.15-.36.35-.81.51-1.17l32.19-69.55"/><path class="cls-8" d="M316.44,662.35s32.8-70.87,32.89-71"/><path class="cls-8" d="M388.57,608.35c73.95,20.69,153.68-15.67,185.21-88a156.17,156.17,0,1,0-224.45,71,159.2,159.2,0,0,0,18.91,9.8A155.66,155.66,0,0,0,388.57,608.35Z"/><path class="cls-8" d="M545.58,519q2.32-4.4,4.35-9a130.16,130.16,0,0,0-67.35-171.3c-64.16-28-138.47-.06-168.92,62.22-.82,1.69-1.62,3.39-2.37,5.12A130.15,130.15,0,0,0,545.58,519Z"/><polyline class="cls-8" points="313.65 400.84 407.33 400.84 407.33 520.66 316.56 520.66"/><polyline class="cls-8" points="545.58 518.95 466.4 518.95 466.4 400.84 547.56 400.84"/></g></g></svg>