<svg xmlns="http://www.w3.org/2000/svg" xmlns:xlink="http://www.w3.org/1999/xlink" viewBox="0 0 915.07 844.88"><defs><style>.cls-1,.cls-2,.cls-8,.cls-9{fill:none;}.cls-2,.cls-8{stroke:#000;}.cls-2,.cls-8,.cls-9{stroke-linecap:round;stroke-linejoin:round;}.cls-2{stroke-width:1.5px;}.cls-3{fill:#fff;}.cls-4{fill:#d3e5fb;}.cls-5{fill:#3496f7;}.cls-6{fill:url(#New_Pattern_4);}.cls-7{fill:url(#New_Pattern_3);}.cls-8,.cls-9{stroke-width:4px;}.cls-9{stroke:#fff;}</style><pattern id="New_Pattern_4" data-name="New Pattern 4" width="70" height="50" patternTransform="translate(-2288.31 -421.22) scale(1.04)" patternUnits="userSpaceOnUse" viewBox="0 0 70 50"><rect class="cls-1" width="70" height="50"/><path class="cls-2" d="M8.89,100c-.05-7.08.29-14.17.29-21.25,0-4.32-.37-17.48-.29-28.09"/><path class="cls-2" d="M22.94,99.84c0-1.65.09-3.31.09-5,0-2.48-.21-5-.21-7.45s0-3.83.05-7.28c0-1.44-.06-2.9-.06-4.35,0-3.1.31-4.62.31-7.37,0-1.4-.27-4.94-.27-8.33q0-1.61.09-3.21V50.11"/><path class="cls-2" d="M36.74,99.84c0-9.46.33-18.09.33-27.56,0-3.7-.15-7.46-.15-11.2,0-3.35-.1-7.29-.18-10.75"/><path class="cls-2" d="M50.93,99.75c0-1.24-.07-2.75-.07-4,0-1.92,0-3.86,0-5.79,0-3.87,0-7.66,0-11.51a8.42,8.42,0,0,1-.08-1.22c0-.32.18-6.68.18-8,0-2.2-.21-3.25-.21-5.64,0-1.3.06-2.65.17-3.86,0-2.89,0-5.89,0-9.05"/><path class="cls-2" d="M65,99.71c0-8.34-.55-15.73-.36-24.06.18-8.13.16-17.71.36-25.19"/><path class="cls-2" d="M8.89,50c-.05-7.08.29-14.17.29-21.25,0-4.32-.37-17.48-.29-28.09"/><path class="cls-2" d="M22.94,49.84c0-1.65.09-3.31.09-5,0-2.48-.21-5-.21-7.45s0-3.83.05-7.28c0-1.44-.06-2.9-.06-4.35,0-3.1.31-4.62.31-7.37,0-1.4-.27-4.94-.27-8.33q0-1.6.09-3.21V.11"/><path class="cls-2" d="M36.74,49.84c0-9.46.33-18.09.33-27.56,0-3.7-.15-7.46-.15-11.2,0-3.35-.1-7.29-.18-10.75"/><path class="cls-2" d="M50.93,49.75c0-1.24-.07-2.75-.07-4,0-1.92,0-3.86,0-5.79,0-3.87,0-7.66,0-11.51a8.42,8.42,0,0,1-.08-1.22c0-.32.18-6.68.18-8,0-2.2-.21-3.25-.21-5.64,0-1.3.06-2.65.17-3.86,0-2.89,0-5.89,0-9"/><path class="cls-2" d="M65,49.71c0-8.34-.55-15.73-.36-24.06.18-8.13.16-17.71.36-25.19"/><path class="cls-2" d="M8.89,0c-.05-7.08.29-14.17.29-21.25,0-4.32-.37-17.48-.29-28.09"/><path class="cls-2" d="M22.94-.16c0-1.65.09-3.31.09-5,0-2.48-.21-5-.21-7.45s0-3.83.05-7.28c0-1.44-.06-2.9-.06-4.35,0-3.1.31-4.62.31-7.37,0-1.4-.27-4.94-.27-8.33q0-1.61.09-3.21v-6.71"/><path class="cls-2" d="M36.74-.16c0-9.46.33-18.09.33-27.56,0-3.7-.15-7.46-.15-11.2,0-3.35-.1-7.29-.18-10.75"/><path class="cls-2" d="M50.93-.25c0-1.24-.07-2.75-.07-4,0-1.92,0-3.86,0-5.79,0-3.87,0-7.66,0-11.51a8.42,8.42,0,0,1-.08-1.22c0-.32.18-6.68.18-8,0-2.2-.21-3.25-.21-5.64,0-1.3.06-2.65.17-3.86,0-2.89,0-5.89,0-9.05"/><path class="cls-2" d="M65-.29c0-8.34-.55-15.73-.36-24.06.18-8.13.16-17.71.36-25.19"/></pattern><pattern id="New_Pattern_3" data-name="New Pattern 3" width="40" height="40" patternTransform="translate(-2586.28 -244.1) scale(1.04)" patternUnits="userSpaceOnUse" viewBox="0 0 40 40"><rect class="cls-1" width="40" height="40"/><path d="M36.18,30a1.9,1.9,0,0,0,1.91,1.91V28.09A1.9,1.9,0,0,0,36.18,30Z"/><path d="M40,33.82a1.9,1.9,0,0,0,1.91-1.91H38.09A1.9,1.9,0,0,0,40,33.82Z"/><path d="M40,26.18a1.9,1.9,0,0,0-1.91,1.91h3.82A1.9,1.9,0,0,0,40,26.18Z"/><path d="M16.18,40a1.9,1.9,0,0,0,1.91,1.91V38.09A1.9,1.9,0,0,0,16.18,40Z"/><path d="M21.91,38.09v3.82a1.91,1.91,0,0,0,0-3.82Z"/><path d="M20,36.18a1.9,1.9,0,0,0-1.91,1.91h3.82A1.9,1.9,0,0,0,20,36.18Z"/><path d="M1.91,28.09v3.82a1.91,1.91,0,0,0,0-3.82Z"/><path d="M36.18,10a1.9,1.9,0,0,0,1.91,1.91V8.09A1.9,1.9,0,0,0,36.18,10Z"/><path d="M40,13.82a1.9,1.9,0,0,0,1.91-1.91H38.09A1.9,1.9,0,0,0,40,13.82Z"/><path d="M40,6.18a1.9,1.9,0,0,0-1.91,1.91h3.82A1.9,1.9,0,0,0,40,6.18Z"/><path d="M18.79,16.37a1.92,1.92,0,0,0-1.21,2.42l3.63-1.21A1.92,1.92,0,0,0,18.79,16.37Z"/><path d="M22.42,21.21l-3.63,1.21a1.91,1.91,0,0,0,3.63-1.21Z"/><path d="M16.37,21.21a1.92,1.92,0,0,0,2.42,1.21l-1.21-3.63A1.92,1.92,0,0,0,16.37,21.21Z"/><path d="M23.63,18.79a1.92,1.92,0,0,0-2.42-1.21l1.21,3.63A1.92,1.92,0,0,0,23.63,18.79Z"/><path d="M1.91,8.09v3.82a1.91,1.91,0,0,0,0-3.82Z"/><path d="M20,3.82a1.9,1.9,0,0,0,1.91-1.91H18.09A1.9,1.9,0,0,0,20,3.82Z"/><path d="M0,33.82a1.9,1.9,0,0,0,1.91-1.91H-1.91A1.9,1.9,0,0,0,0,33.82Z"/><path d="M0,26.18a1.9,1.9,0,0,0-1.91,1.91H1.91A1.9,1.9,0,0,0,0,26.18Z"/><path d="M0,13.82a1.9,1.9,0,0,0,1.91-1.91H-1.91A1.9,1.9,0,0,0,0,13.82Z"/><path d="M0,6.18A1.9,1.9,0,0,0-1.91,8.09H1.91A1.9,1.9,0,0,0,0,6.18Z"/><path d="M16.18,0a1.9,1.9,0,0,0,1.91,1.91V-1.91A1.9,1.9,0,0,0,16.18,0Z"/><path d="M21.91-1.91V1.91A1.9,1.9,0,0,0,23.82,0,1.9,1.9,0,0,0,21.91-1.91Z"/></pattern></defs><g id="Layer_2" data-name="Layer 2"><g id="illustrations"><path class="cls-3" d="M270,354.06a18.37,18.37,0,1,1-18.38,18.36A18.35,18.35,0,0,1,270,354.06Z"/><path class="cls-4" d="M869.05,114.36l-15.72,4.28a16.36,16.36,0,0,0-4.47,2,16.72,16.72,0,0,0-2,4.47l-4.26,15.73-4.27-15.73a16.41,16.41,0,0,0-2-4.47,16.3,16.3,0,0,0-4.46-2l-15.73-4.28,15.73-4.27a16.63,16.63,0,0,0,4.46-2,16.41,16.41,0,0,0,2-4.47l4.27-15.73,4.26,15.73a16.72,16.72,0,0,0,2,4.47,16.7,16.7,0,0,0,4.47,2Z"/><path d="M816.2,149v82a15.2,15.2,0,0,1-15.2,15.2H728.67a48.76,48.76,0,0,1-46.24,39.21,37.67,37.67,0,0,0,17.8-39.21H673.39a15.2,15.2,0,0,1-15.21-15.2V149a15.19,15.19,0,0,1,15.21-15.19H801A15.19,15.19,0,0,1,816.2,149Zm-37.65,43.09a8.66,8.66,0,1,0-8.66,8.66A8.65,8.65,0,0,0,778.55,192.12Zm-32.7,0a8.66,8.66,0,1,0-8.65,8.66A8.65,8.65,0,0,0,745.85,192.12Zm-32.7,0a8.66,8.66,0,1,0-8.66,8.66A8.66,8.66,0,0,0,713.15,192.12Z"/><path class="cls-4" d="M792.64,345.13l-29.86,8.1a31.14,31.14,0,0,0-8.47,3.73,31.29,31.29,0,0,0-3.72,8.47l-8.1,29.86-8.11-29.86a31.92,31.92,0,0,0-3.72-8.47,31.2,31.2,0,0,0-8.48-3.73l-29.85-8.1,29.85-8.1a31.2,31.2,0,0,0,8.48-3.73,31.92,31.92,0,0,0,3.72-8.47L742.49,295l8.1,29.86a31.29,31.29,0,0,0,3.72,8.47,31.14,31.14,0,0,0,8.47,3.73Z"/><path class="cls-3" d="M769.89,183.47a8.66,8.66,0,1,1-8.65,8.65A8.65,8.65,0,0,1,769.89,183.47Z"/><path class="cls-3" d="M737.2,183.47a8.66,8.66,0,1,1-8.67,8.65A8.65,8.65,0,0,1,737.2,183.47Z"/><path class="cls-4" d="M740.57,72.64l-21.48,5.83A22,22,0,0,0,713,81.15a22.11,22.11,0,0,0-2.68,6.09l-5.83,21.48-5.83-21.48A22.7,22.7,0,0,0,696,81.15a22.24,22.24,0,0,0-6.11-2.68l-21.47-5.83,21.47-5.83A22.54,22.54,0,0,0,696,64.13a22.63,22.63,0,0,0,2.67-6.1l5.83-21.47L710.32,58a22,22,0,0,0,2.68,6.1,22.28,22.28,0,0,0,6.09,2.68Z"/><path class="cls-3" d="M704.49,183.47a8.66,8.66,0,1,1-8.66,8.65A8.66,8.66,0,0,1,704.49,183.47Z"/><path class="cls-5" d="M677.32,574.82a177.91,177.91,0,0,1-4.11,40.07c-1.17,5.33-2.58,10.62-4.25,15.83l-33.29,104.1C618,737.16,600.32,753.37,591.05,769H502.1l54.27-174.29a60.38,60.38,0,0,0-3.9-45.88L494,436.29a44.87,44.87,0,0,0,19.39-16.67c15.83-24.39,32.73-52,49.28-88.65a134.7,134.7,0,0,1,29.79,38.41l64.89,125A178.86,178.86,0,0,1,677.32,574.82Z"/><path class="cls-3" d="M669,630.72c1.67-5.21,3.08-10.5,4.25-15.83h0a16,16,0,0,0,1.7.08A17.73,17.73,0,0,0,689,586.46a61.4,61.4,0,0,0-11.7-11.64h0a178.86,178.86,0,0,0-19.94-80.47l-23.35-45a203.42,203.42,0,0,1,75.5-14.3c112.61.2,203.74,91.64,203.54,204.25S821.43,843.08,708.82,842.88a204.4,204.4,0,0,1-51.2-6.58h0c-1.55-24.09-12-43.72-34.87-49.78l17.25-52a31.37,31.37,0,0,0-4.32.3l5.8-18.16a123.91,123.91,0,0,0,170.82-35,17.73,17.73,0,1,0-29.5-19.68,88.41,88.41,0,0,1-129.92,19.11Zm153.26-19.17a17.71,17.71,0,0,0,3.3-24.85,60.51,60.51,0,0,0-96-.17,17.74,17.74,0,1,0,28.09,21.66,25,25,0,0,1,39.75.07A17.73,17.73,0,0,0,822.22,611.55Z"/><path class="cls-6" d="M669,630.72c1.67-5.21,3.08-10.5,4.25-15.83h0a16,16,0,0,0,1.7.08A17.73,17.73,0,0,0,689,586.46a61.4,61.4,0,0,0-11.7-11.64h0a178.86,178.86,0,0,0-19.94-80.47l-23.35-45a203.42,203.42,0,0,1,75.5-14.3c112.61.2,203.74,91.64,203.54,204.25S821.43,843.08,708.82,842.88a204.4,204.4,0,0,1-51.2-6.58h0c-1.55-24.09-12-43.72-34.87-49.78l17.25-52a31.37,31.37,0,0,0-4.32.3l5.8-18.16a123.91,123.91,0,0,0,170.82-35,17.73,17.73,0,1,0-29.5-19.68,88.41,88.41,0,0,1-129.92,19.11Zm153.26-19.17a17.71,17.71,0,0,0,3.3-24.85,60.51,60.51,0,0,0-96-.17,17.74,17.74,0,1,0,28.09,21.66,25,25,0,0,1,39.75.07A17.73,17.73,0,0,0,822.22,611.55Z"/><path d="M657.83,842.88H481.27l15.91-58.28h87.59a48.1,48.1,0,0,1,6.28-15.6c9.27-15.63,27-31.84,44.62-34.18a31.37,31.37,0,0,1,4.32-.3l-17.25,52c22.9,6.06,33.32,25.69,34.87,49.78Q657.84,839.54,657.83,842.88Z"/><path class="cls-4" d="M419.88,288c-6-7.11-12.35-14.55-19.21-22.57a40.34,40.34,0,0,0,1.18-9.77,40.88,40.88,0,0,0-25.19-37.75v-8.07l3-1.46,22.6,4.49a2.58,2.58,0,0,0,.39,0c3.68,0,6.67-10.41,6.67-23.27s-3-23.27-6.67-23.27a1.72,1.72,0,0,0-.39,0l-22.6,4.49-56.95-27.56h0l42.61-31.48c8.57-7.19,38.59-15.59,55.09,9.21a47.83,47.83,0,0,0-1,9.64A46.73,46.73,0,0,0,432,162.61h0c3.59,18.56,13.53,31.61,27.6,37.56,15.9,6.7,44.63-.92,63.42-9.16,15.44-6.75,57.75-3.44,66.31,43.41a71.62,71.62,0,0,1-2.82,35.73c-7.74,22.89-15.71,42.94-23.78,60.81-16.55,36.67-33.45,64.26-49.28,88.65a45,45,0,0,1-70.67,6.51c-19.78-21-45.46-51.09-70.18-83.55q-4.32-5.65-8.6-11.4Zm28.61,33.11c7.81,8.8,15.93,17.63,25,27,4.85-10.32,9.48-20.45,14-30.7Z"/><path d="M541.79,2a53.36,53.36,0,1,1-27.64,99h0a15.19,15.19,0,0,0,.39-3.39,15,15,0,0,0-15-15,15.26,15.26,0,0,0-3.39.39A53.37,53.37,0,0,1,541.79,2Z"/><path class="cls-6" d="M552.47,548.83a60.38,60.38,0,0,1,3.9,45.88l-37,118.9A204.27,204.27,0,0,1,540.09,525Z"/><path class="cls-3" d="M514.53,97.62a15.19,15.19,0,0,1-.39,3.39,15,15,0,0,1-5.68,8.68,47.16,47.16,0,0,0-21-21A15,15,0,0,1,496.13,83a15.26,15.26,0,0,1,3.39-.39A15,15,0,0,1,514.53,97.62Z"/><path d="M513.41,130.7c0,1,0,2-.1,3-1,.07-2,.11-3,.11a47,47,0,0,1-47-47c0-1,0-2,.1-3,1-.07,2-.11,3-.11a47,47,0,0,1,47,47Z"/><path class="cls-3" d="M510.29,133.84c1,0,2,0,3-.11a47,47,0,0,1-93.84-3,47.83,47.83,0,0,1,1-9.64,47,47,0,0,1,43-37.23c-.07,1-.1,2-.1,3A47,47,0,0,0,510.29,133.84Zm-34,14.12a7.17,7.17,0,1,0-7.16,7.17A7.17,7.17,0,0,0,476.32,148Z"/><path class="cls-3" d="M502.1,769h88.95a48.1,48.1,0,0,0-6.28,15.6H497.18c.82-2.57,2.55-8.06,4.9-15.6Z"/><path class="cls-5" d="M448.49,321.11l39-3.66c-4.55,10.25-9.18,20.38-14,30.7C464.42,338.74,456.3,329.91,448.49,321.11Z"/><path class="cls-3" d="M469.16,140.79A7.17,7.17,0,1,1,462,148,7.17,7.17,0,0,1,469.16,140.79Z"/><path class="cls-5" d="M454.51,435.09,321,765.31H220.12a95.65,95.65,0,0,0-16-26.24l71.47-176.82h0L348.89,381a134.51,134.51,0,0,1,23.67-38.36h0c24.72,32.46,50.4,62.59,70.18,83.55A45,45,0,0,0,454.51,435.09Z"/><path class="cls-3" d="M419.88,288,364,331.18c-12-16.2-23.61-32.76-34-48.87h0l0-.06a40.6,40.6,0,0,1-9.84-26.58,41.94,41.94,0,0,1,.26-4.65,40.74,40.74,0,0,1,5.76-16.72l15-7.28v6.28a17.73,17.73,0,1,0,35.46,0V217.91a40.88,40.88,0,0,1,25.19,37.75,40.34,40.34,0,0,1-1.18,9.77C407.53,273.45,413.85,280.89,419.88,288Z"/><path d="M402.69,166.37c3.68,0,6.67,10.41,6.67,23.27s-3,23.27-6.67,23.27a2.58,2.58,0,0,1-.39,0l-22.6-4.49.53-.26c2.6-1.26,4.6-9.05,4.6-18.48s-2-17.22-4.6-18.48l-.53-.26,22.6-4.49A1.72,1.72,0,0,1,402.69,166.37Z"/><path class="cls-3" d="M380.23,171.16c2.6,1.26,4.6,9.05,4.6,18.48s-2,17.22-4.6,18.48L227.45,282.06c11.12-5.93,20-35.68,22.19-73.85.35-6,.53-12.22.53-18.57s-.18-12.57-.53-18.57c-2.2-38.17-11.07-67.92-22.19-73.85Z"/><path class="cls-3" d="M376.66,217.91v15.38a17.73,17.73,0,1,1-35.46,0V227l35.46-17.17Z"/><path class="cls-4" d="M227.45,282.06l98.71-47.77A40.74,40.74,0,0,0,320.4,251c-26.77,16.18-53.84,32.28-83.56,51.07-27.91,17.62-64.32-1.38-64.68-34.39-.51-46.75.22-87.19,1.25-138.89H203c-4,16.35-6.45,37.61-6.45,60.84,0,51.63,12,93.49,26.79,93.49a8.58,8.58,0,0,0,3.72-.89Z"/><path class="cls-3" d="M321,765.31l-7.79,19.29h-87.6a94.58,94.58,0,0,0-5.53-19.29Z"/><path d="M313.25,784.6,292.5,842.88H134.86a58.3,58.3,0,0,1,43.36-56.36l21.77-52c1.43,1.48,2.83,3,4.15,4.55a95.65,95.65,0,0,1,16,26.24,94.58,94.58,0,0,1,5.53,19.29Z"/><path class="cls-3" d="M288.82,53.48a11.83,11.83,0,0,1-3.89,16.27c-28.49,17.54-26.49,29.43-35.1,38.29L227.09,97a8.44,8.44,0,0,0-3.72-.89c-8.13,0-15.42,12.66-20.34,32.65H173.41l.9-45h.05c0-3.56-.17-7.49-.48-11.61a41.44,41.44,0,0,1,22.7-25.43,43.43,43.43,0,0,1,18-3.85,44.32,44.32,0,0,1,4.78.26A42.6,42.6,0,0,1,249,59.88c.78,1.63,1.66,3.41,2.68,5.4a168.06,168.06,0,0,1,20.92-15.69A11.8,11.8,0,0,1,288.82,53.48Z"/><path class="cls-3" d="M275.61,562.25l-12.51,31A50.38,50.38,0,0,0,225.26,642H117.55a157.52,157.52,0,0,1,15.07-67.45h66V503.89a157.29,157.29,0,0,1,77-20Z"/><path class="cls-7" d="M275.61,562.25l-12.51,31A50.38,50.38,0,0,0,225.26,642H117.55a157.52,157.52,0,0,1,15.07-67.45h66V503.89a157.29,157.29,0,0,1,77-20Z"/><path class="cls-3" d="M249.64,171.07c.35,6,.53,12.21.53,18.57s-.18,12.57-.53,18.57c-18-2.29-31.18-9.74-31.18-18.57S231.65,173.35,249.64,171.07Z"/><path class="cls-3" d="M233.35,28.81C243.07,44,242.81,47,249,59.88a42.6,42.6,0,0,0-29.64-16.75c-5.58-11-12.28-23.4-19.44-34.81A45.07,45.07,0,0,1,233.35,28.81Z"/><path d="M227.09,97l.36.18c11.12,5.93,20,35.68,22.19,73.85-18,2.28-31.18,9.73-31.18,18.57s13.19,16.28,31.18,18.57c-2.2,38.17-11.07,67.92-22.19,73.85l-.36.18a8.58,8.58,0,0,1-3.72.89c-14.79,0-26.79-41.86-26.79-93.49,0-23.23,2.43-44.49,6.45-60.84,4.92-20,12.21-32.65,20.34-32.65A8.44,8.44,0,0,1,227.09,97Z"/><path class="cls-3" d="M219.32,43.13a44.32,44.32,0,0,0-4.78-.26,43.43,43.43,0,0,0-18,3.85h0a263.57,263.57,0,0,0-19.19-34.77,18.56,18.56,0,0,1,3.07-1.39,45.32,45.32,0,0,1,19.42-2.23C207,19.73,213.74,32.09,219.32,43.13Z"/><path d="M198.64,503.89v70.65h-66A158.81,158.81,0,0,1,198.64,503.89Z"/><path class="cls-3" d="M198.64,471.37v32.52a158.81,158.81,0,0,0-66,70.65H110.7c.22-3.48.34-6.89.34-10.22a166.47,166.47,0,0,0-2.66-29.2C134.84,510.48,169.9,490.87,198.64,471.37Z"/><path class="cls-5" d="M198.64,421.73v49.64c-28.74,19.5-63.8,39.11-90.26,63.75-5.88-32.77-22-65.35-51.91-65.62a118.09,118.09,0,0,0,17.31-62.12,139.82,139.82,0,0,0-1-16.91h43.38A108.87,108.87,0,0,0,110.38,425c0,17,5.48,36.25,23.2,36.25C157.07,461.27,165.65,431,198.64,421.73Z"/><path class="cls-3" d="M198.64,390.47v31.26c-33,9.26-41.57,39.54-65.06,39.54-17.72,0-23.2-19.22-23.2-36.25a108.87,108.87,0,0,1,5.76-34.55Z"/><path class="cls-3" d="M196.58,46.71h0a41.44,41.44,0,0,0-22.7,25.43c-1-13.74-3.39-29.64-5.33-41.07a18.52,18.52,0,0,1,8.84-19.14A263.57,263.57,0,0,1,196.58,46.71Z"/><polygon points="117.33 192.84 15.77 208.21 13.31 176.37 117.33 192.84"/><polygon points="116.64 220.86 83.71 301.41 56.4 282.24 116.64 220.86"/><path class="cls-3" d="M111,564.32c0,3.33-.12,6.74-.34,10.22H77.87c7.1-14.65,17.82-27.62,30.51-39.42A166.47,166.47,0,0,1,111,564.32Z"/><polygon points="84.68 112.28 104.03 158.86 65.32 124.54 84.68 112.28"/><path class="cls-3" d="M108.38,535.12C95.69,546.92,85,559.89,77.87,574.54H2V523a112.08,112.08,0,0,1,8.06-17.75c14.29-.7,33-13.95,46.41-35.7C86.41,469.77,102.5,502.35,108.38,535.12Z"/><path class="cls-3" d="M72.76,390.47a139.82,139.82,0,0,1,1,16.91A118.09,118.09,0,0,1,56.47,469.5h-.38c-18.24,0-35.05,16.18-46,35.71-.41,0-.81,0-1.21,0A36.47,36.47,0,0,1,2,504.58V390.47Z"/><path class="cls-3" d="M56.09,469.49h.38c-13.44,21.75-32.12,35-46.41,35.7C21,485.67,37.85,469.49,56.09,469.49Z"/><path class="cls-3" d="M8.85,505.24c.4,0,.8,0,1.21,0A112.08,112.08,0,0,0,2,523V504.58A36.47,36.47,0,0,0,8.85,505.24Z"/><path class="cls-8" d="M657.62,836.3a204.4,204.4,0,0,0,51.2,6.58c112.61.2,204.06-90.93,204.25-203.54s-90.93-204-203.54-204.25a203.42,203.42,0,0,0-75.5,14.3"/><path class="cls-8" d="M540.09,525a204.27,204.27,0,0,0-20.72,188.61"/><path class="cls-8" d="M652.87,681.05a88.41,88.41,0,0,0,129.92-19.11,17.73,17.73,0,1,1,29.5,19.68,123.91,123.91,0,0,1-170.82,35"/><path class="cls-8" d="M743.51,615.1a17.73,17.73,0,0,1-14-28.57,60.51,60.51,0,0,1,96,.17,17.73,17.73,0,0,1-28.16,21.56,25,25,0,0,0-39.75-.07A17.76,17.76,0,0,1,743.51,615.1Z"/><path class="cls-8" d="M673.22,614.89a16,16,0,0,0,1.7.08A17.73,17.73,0,0,0,689,586.46a61.4,61.4,0,0,0-11.7-11.64"/><path class="cls-8" d="M682.43,285.46a37.67,37.67,0,0,0,17.8-39.21H673.39a15.2,15.2,0,0,1-15.21-15.2V149a15.19,15.19,0,0,1,15.21-15.19H801A15.19,15.19,0,0,1,816.2,149v82a15.2,15.2,0,0,1-15.2,15.2H728.67a48.76,48.76,0,0,1-46.24,39.21Z"/><path class="cls-9" d="M713.15,192.12a8.66,8.66,0,1,0-8.66,8.66A8.66,8.66,0,0,0,713.15,192.12Z"/><path class="cls-9" d="M745.85,192.12a8.66,8.66,0,1,0-8.65,8.66A8.65,8.65,0,0,0,745.85,192.12Z"/><path class="cls-9" d="M778.55,192.12a8.66,8.66,0,1,0-8.66,8.66A8.65,8.65,0,0,0,778.55,192.12Z"/><path class="cls-8" d="M792.64,345.13,762.78,337a31.14,31.14,0,0,1-8.47-3.73,31.29,31.29,0,0,1-3.72-8.47L742.49,295l-8.11,29.86a31.92,31.92,0,0,1-3.72,8.47,31.2,31.2,0,0,1-8.48,3.73l-29.85,8.1,29.85,8.1a31.2,31.2,0,0,1,8.48,3.73,31.92,31.92,0,0,1,3.72,8.47l8.11,29.86,8.1-29.86a31.29,31.29,0,0,1,3.72-8.47,31.14,31.14,0,0,1,8.47-3.73Z"/><path class="cls-8" d="M740.57,72.64l-21.48-5.83A22.28,22.28,0,0,1,713,64.13a22,22,0,0,1-2.68-6.1l-5.83-21.47L698.66,58a22.63,22.63,0,0,1-2.67,6.1,22.54,22.54,0,0,1-6.11,2.68l-21.47,5.83,21.47,5.83A22.24,22.24,0,0,1,696,81.15a22.7,22.7,0,0,1,2.67,6.09l5.83,21.48,5.83-21.48A22.11,22.11,0,0,1,713,81.15a22,22,0,0,1,6.09-2.68Z"/><path class="cls-8" d="M869.05,114.36l-15.72-4.27a16.7,16.7,0,0,1-4.47-2,16.72,16.72,0,0,1-2-4.47l-4.26-15.73-4.27,15.73a16.41,16.41,0,0,1-2,4.47,16.63,16.63,0,0,1-4.46,2l-15.73,4.27,15.73,4.28a16.3,16.3,0,0,1,4.46,2,16.41,16.41,0,0,1,2,4.47l4.27,15.73,4.26-15.73a16.72,16.72,0,0,1,2-4.47,16.36,16.36,0,0,1,4.47-2Z"/><path class="cls-8" d="M288.34,372.42A18.37,18.37,0,1,0,270,390.8,18.35,18.35,0,0,0,288.34,372.42Z"/><polygon class="cls-8" points="116.64 220.86 56.4 282.24 83.71 301.41 116.64 220.86"/><polygon class="cls-8" points="117.33 192.84 13.31 176.37 15.77 208.21 117.33 192.84"/><polygon class="cls-8" points="104.03 158.86 65.32 124.54 84.68 112.28 104.03 158.86"/><path class="cls-8" d="M263.1,593.2A50.38,50.38,0,0,0,225.26,642H117.55A158,158,0,0,1,275.61,483.91v78.33"/><polygon class="cls-8" points="198.64 503.89 198.64 574.54 2 574.54 2 390.46 198.64 390.46 198.64 503.89"/><path class="cls-8" d="M2,504.58a36.47,36.47,0,0,0,6.85.66c.4,0,.8,0,1.21,0,14.29-.75,33-13.95,46.41-35.7a118.18,118.18,0,0,0,17.31-62.12,139.82,139.82,0,0,0-1-16.91"/><path class="cls-8" d="M2,523a112.08,112.08,0,0,1,8.06-17.75c11-19.53,27.79-35.71,46-35.71h.38c29.94.27,46,32.85,51.91,65.62a166.47,166.47,0,0,1,2.66,29.2c0,3.33-.12,6.74-.34,10.22"/><path class="cls-8" d="M77.87,574.54c7.1-14.65,17.83-27.62,30.51-39.42,26.48-24.62,61.52-44.25,90.26-63.75"/><path class="cls-8" d="M116.14,390.47A108.87,108.87,0,0,0,110.38,425c0,17,5.48,36.25,23.2,36.25,23.49,0,32.07-30.28,65.06-39.54"/><path class="cls-8" d="M513.31,133.73c.06-1,.1-2,.1-3a46.74,46.74,0,0,0-4.95-21,47,47,0,0,0-42-26c-1,0-2,0-3,.11a47,47,0,0,0-43,37.23,47.83,47.83,0,0,0-1,9.64,47,47,0,0,0,93.84,3Z"/><path class="cls-8" d="M463.41,83.83c-.07,1-.1,2-.1,3a47,47,0,0,0,47,47c1,0,2,0,3-.11h0"/><path class="cls-8" d="M514.15,101a53.32,53.32,0,1,0-18-18"/><path class="cls-8" d="M508.46,109.69a15,15,0,0,0,5.68-8.68,15.19,15.19,0,0,0,.39-3.39,15,15,0,0,0-15-15,15.26,15.26,0,0,0-3.39.39,15,15,0,0,0-8.67,5.69"/><path class="cls-8" d="M476.32,148a7.17,7.17,0,1,0-7.16,7.17A7.17,7.17,0,0,0,476.32,148Z"/><path class="cls-8" d="M326.16,234.29A40.59,40.59,0,0,0,320.4,251a41.94,41.94,0,0,0-.26,4.65A40.6,40.6,0,0,0,330,282.24"/><path class="cls-8" d="M249,59.88a42.67,42.67,0,0,0-29.64-16.75,44.32,44.32,0,0,0-4.78-.26,43.43,43.43,0,0,0-18,3.85,41.47,41.47,0,0,0-22.7,25.43"/><path class="cls-8" d="M320.4,251c-26.77,16.18-53.84,32.28-83.56,51.07-27.91,17.62-64.32-1.38-64.68-34.39-.51-46.75.2-87.19,1.25-138.89l.9-45h.05c0-3.56-.18-7.49-.48-11.61-1-13.74-3.39-29.64-5.33-41.07a18.14,18.14,0,0,1,11.91-20.53,45.42,45.42,0,0,1,52.89,18.26C243.07,44,242.81,47,249,59.88c.78,1.63,1.66,3.41,2.68,5.4a168.06,168.06,0,0,1,20.92-15.69,11.83,11.83,0,0,1,12.37,20.16c-28.49,17.54-26.49,29.43-35.1,38.29"/><path class="cls-8" d="M322.75,143.33l42.61-31.48c8.57-7.19,38.59-15.59,55.09,9.21"/><path class="cls-8" d="M376.66,217.91a40.88,40.88,0,0,1,25.19,37.75,40.34,40.34,0,0,1-1.18,9.77c6.86,8,38.24,44.91,47.82,55.68,7.82,8.79,15.93,17.63,25,27,4.85-10.32,9.48-20.45,14-30.7,9.07-20.43,17.83-41.33,27.38-65.28"/><path class="cls-8" d="M432,162.62c3.59,18.56,13.53,31.61,27.6,37.56,15.9,6.7,44.63-.92,63.42-9.16,15.44-6.75,57.75-3.44,66.31,43.41a71.62,71.62,0,0,1-2.82,35.73c-7.74,22.89-15.71,42.94-23.78,60.81-16.55,36.67-33.45,64.26-49.28,88.65a45,45,0,0,1-70.67,6.51c-19.78-21-45.44-51.11-70.18-83.55q-4.32-5.65-8.6-11.4c-12-16.19-23.61-32.76-34-48.87h0l0-.06"/><path class="cls-8" d="M177.39,11.94a263.57,263.57,0,0,1,19.19,34.77"/><path class="cls-8" d="M199.88,8.31h0c7.16,11.41,13.86,23.77,19.44,34.81"/><path class="cls-8" d="M227.45,282.06c11.12-5.93,20-35.68,22.19-73.85.35-6,.53-12.22.53-18.57s-.18-12.57-.53-18.57c-2.23-38.17-11.07-67.92-22.19-73.85"/><path class="cls-8" d="M227.09,97a8.44,8.44,0,0,0-3.72-.89c-8.13,0-15.42,12.66-20.34,32.65-4,16.35-6.45,37.61-6.45,60.84,0,51.63,12,93.49,26.79,93.49a8.58,8.58,0,0,0,3.72-.89"/><path class="cls-8" d="M227.09,97l153.14,74.12c2.6,1.26,4.6,9.05,4.6,18.48s-2,17.22-4.6,18.48L227.09,282.24"/><path class="cls-8" d="M379.7,170.9l22.6-4.49a1.72,1.72,0,0,1,.39,0c3.68,0,6.67,10.41,6.67,23.27s-3,23.27-6.67,23.27a2.58,2.58,0,0,1-.39,0l-22.6-4.49"/><path class="cls-8" d="M249.64,208.21c-18-2.29-31.18-9.74-31.18-18.57s13.19-16.29,31.18-18.57"/><path class="cls-8" d="M562.7,331a134.7,134.7,0,0,1,29.79,38.41l64.89,125a179.68,179.68,0,0,1,15.83,120.54c-1.17,5.33-2.58,10.62-4.25,15.83l-33.29,104.1"/><path class="cls-8" d="M502.1,769l54.27-174.29a60.38,60.38,0,0,0-3.9-45.88L494,436.29"/><path class="cls-8" d="M497.18,784.6c.82-2.57,2.55-8.06,4.9-15.6"/><line class="cls-8" x1="454.51" y1="435.09" x2="313.25" y2="784.6"/><line class="cls-8" x1="363.97" y1="331.18" x2="419.88" y2="288"/><line class="cls-8" x1="173.41" y1="128.8" x2="203.03" y2="128.8"/><path class="cls-8" d="M376.66,209.84v23.45a17.73,17.73,0,1,1-35.46,0V227"/><path class="cls-8" d="M204.14,739.07c-1.33-1.56-2.72-3.07-4.15-4.55l-21.77,52a58.3,58.3,0,0,0-43.36,56.36H292.5l20.75-58.28h-87.6a94.58,94.58,0,0,0-5.53-19.29A96.44,96.44,0,0,0,204.14,739.07Z"/><path class="cls-8" d="M657.61,836.3c.14,2.16.22,4.35.22,6.58H481.27l15.91-58.28h87.59a48.1,48.1,0,0,1,6.28-15.6c9.27-15.63,27-31.82,44.62-34.18a33,33,0,0,1,4.32-.3l-17.25,52C645.64,792.58,656,812.21,657.61,836.3Z"/><path class="cls-8" d="M204.14,739.07l71.47-176.82h0L348.89,381a134.51,134.51,0,0,1,23.67-38.36"/><polyline class="cls-8" points="448.49 321.11 487.48 317.45 487.49 317.45"/><line class="cls-8" x1="481.27" y1="842.88" x2="292.5" y2="842.88"/><line class="cls-8" x1="220.13" y1="765.31" x2="321.04" y2="765.31"/><line class="cls-8" x1="502.08" y1="769" x2="591.05" y2="769"/></g></g></svg>