<svg xmlns="http://www.w3.org/2000/svg" xmlns:xlink="http://www.w3.org/1999/xlink" viewBox="0 0 1003.27 820.45"><defs><style>.cls-1,.cls-2,.cls-8{fill:none;}.cls-2,.cls-8{stroke:#000;stroke-linecap:round;stroke-linejoin:round;}.cls-2{stroke-width:1.5px;}.cls-3{fill:#fff;}.cls-4{fill:#d3e5fb;}.cls-5{fill:#3496f7;}.cls-6{fill:url(#New_Pattern_4);}.cls-7{fill:url(#New_Pattern_3);}.cls-8{stroke-width:4px;}</style><pattern id="New_Pattern_4" data-name="New Pattern 4" width="70" height="50" patternTransform="translate(0 -30)" patternUnits="userSpaceOnUse" viewBox="0 0 70 50"><rect class="cls-1" width="70" height="50"/><path class="cls-2" d="M8.89,100c-.05-7.08.29-14.17.29-21.25,0-4.32-.37-17.48-.29-28.09"/><path class="cls-2" d="M22.94,99.84c0-1.65.09-3.31.09-5,0-2.48-.21-5-.21-7.45s0-3.83.05-7.28c0-1.44-.06-2.9-.06-4.35,0-3.1.31-4.62.31-7.37,0-1.4-.27-4.94-.27-8.33q0-1.61.09-3.21V50.11"/><path class="cls-2" d="M36.74,99.84c0-9.46.33-18.09.33-27.56,0-3.7-.15-7.46-.15-11.2,0-3.35-.1-7.29-.18-10.75"/><path class="cls-2" d="M50.93,99.75c0-1.24-.07-2.75-.07-4,0-1.92,0-3.86,0-5.79,0-3.87,0-7.66,0-11.51a8.42,8.42,0,0,1-.08-1.22c0-.32.18-6.68.18-8,0-2.2-.21-3.25-.21-5.64,0-1.3.06-2.65.17-3.86,0-2.89,0-5.89,0-9.05"/><path class="cls-2" d="M65,99.71c0-8.34-.55-15.73-.36-24.06.18-8.13.16-17.71.36-25.19"/><path class="cls-2" d="M8.89,50c-.05-7.08.29-14.17.29-21.25,0-4.32-.37-17.48-.29-28.09"/><path class="cls-2" d="M22.94,49.84c0-1.65.09-3.31.09-5,0-2.48-.21-5-.21-7.45s0-3.83.05-7.28c0-1.44-.06-2.9-.06-4.35,0-3.1.31-4.62.31-7.37,0-1.4-.27-4.94-.27-8.33q0-1.6.09-3.21V.11"/><path class="cls-2" d="M36.74,49.84c0-9.46.33-18.09.33-27.56,0-3.7-.15-7.46-.15-11.2,0-3.35-.1-7.29-.18-10.75"/><path class="cls-2" d="M50.93,49.75c0-1.24-.07-2.75-.07-4,0-1.92,0-3.86,0-5.79,0-3.87,0-7.66,0-11.51a8.42,8.42,0,0,1-.08-1.22c0-.32.18-6.68.18-8,0-2.2-.21-3.25-.21-5.64,0-1.3.06-2.65.17-3.86,0-2.89,0-5.89,0-9"/><path class="cls-2" d="M65,49.71c0-8.34-.55-15.73-.36-24.06.18-8.13.16-17.71.36-25.19"/><path class="cls-2" d="M8.89,0c-.05-7.08.29-14.17.29-21.25,0-4.32-.37-17.48-.29-28.09"/><path class="cls-2" d="M22.94-.16c0-1.65.09-3.31.09-5,0-2.48-.21-5-.21-7.45s0-3.83.05-7.28c0-1.44-.06-2.9-.06-4.35,0-3.1.31-4.62.31-7.37,0-1.4-.27-4.94-.27-8.33q0-1.61.09-3.21v-6.71"/><path class="cls-2" d="M36.74-.16c0-9.46.33-18.09.33-27.56,0-3.7-.15-7.46-.15-11.2,0-3.35-.1-7.29-.18-10.75"/><path class="cls-2" d="M50.93-.25c0-1.24-.07-2.75-.07-4,0-1.92,0-3.86,0-5.79,0-3.87,0-7.66,0-11.51a8.42,8.42,0,0,1-.08-1.22c0-.32.18-6.68.18-8,0-2.2-.21-3.25-.21-5.64,0-1.3.06-2.65.17-3.86,0-2.89,0-5.89,0-9.05"/><path class="cls-2" d="M65-.29c0-8.34-.55-15.73-.36-24.06.18-8.13.16-17.71.36-25.19"/></pattern><pattern id="New_Pattern_3" data-name="New Pattern 3" width="40" height="40" patternTransform="translate(0 -30)" patternUnits="userSpaceOnUse" viewBox="0 0 40 40"><rect class="cls-1" width="40" height="40"/><path d="M36.18,30a1.9,1.9,0,0,0,1.91,1.91V28.09A1.9,1.9,0,0,0,36.18,30Z"/><path d="M40,33.82a1.9,1.9,0,0,0,1.91-1.91H38.09A1.9,1.9,0,0,0,40,33.82Z"/><path d="M40,26.18a1.9,1.9,0,0,0-1.91,1.91h3.82A1.9,1.9,0,0,0,40,26.18Z"/><path d="M16.18,40a1.9,1.9,0,0,0,1.91,1.91V38.09A1.9,1.9,0,0,0,16.18,40Z"/><path d="M21.91,38.09v3.82a1.91,1.91,0,0,0,0-3.82Z"/><path d="M20,36.18a1.9,1.9,0,0,0-1.91,1.91h3.82A1.9,1.9,0,0,0,20,36.18Z"/><path d="M1.91,28.09v3.82a1.91,1.91,0,0,0,0-3.82Z"/><path d="M36.18,10a1.9,1.9,0,0,0,1.91,1.91V8.09A1.9,1.9,0,0,0,36.18,10Z"/><path d="M40,13.82a1.9,1.9,0,0,0,1.91-1.91H38.09A1.9,1.9,0,0,0,40,13.82Z"/><path d="M40,6.18a1.9,1.9,0,0,0-1.91,1.91h3.82A1.9,1.9,0,0,0,40,6.18Z"/><path d="M18.79,16.37a1.92,1.92,0,0,0-1.21,2.42l3.63-1.21A1.92,1.92,0,0,0,18.79,16.37Z"/><path d="M22.42,21.21l-3.63,1.21a1.91,1.91,0,0,0,3.63-1.21Z"/><path d="M16.37,21.21a1.92,1.92,0,0,0,2.42,1.21l-1.21-3.63A1.92,1.92,0,0,0,16.37,21.21Z"/><path d="M23.63,18.79a1.92,1.92,0,0,0-2.42-1.21l1.21,3.63A1.92,1.92,0,0,0,23.63,18.79Z"/><path d="M1.91,8.09v3.82a1.91,1.91,0,0,0,0-3.82Z"/><path d="M20,3.82a1.9,1.9,0,0,0,1.91-1.91H18.09A1.9,1.9,0,0,0,20,3.82Z"/><path d="M0,33.82a1.9,1.9,0,0,0,1.91-1.91H-1.91A1.9,1.9,0,0,0,0,33.82Z"/><path d="M0,26.18a1.9,1.9,0,0,0-1.91,1.91H1.91A1.9,1.9,0,0,0,0,26.18Z"/><path d="M0,13.82a1.9,1.9,0,0,0,1.91-1.91H-1.91A1.9,1.9,0,0,0,0,13.82Z"/><path d="M0,6.18A1.9,1.9,0,0,0-1.91,8.09H1.91A1.9,1.9,0,0,0,0,6.18Z"/><path d="M16.18,0a1.9,1.9,0,0,0,1.91,1.91V-1.91A1.9,1.9,0,0,0,16.18,0Z"/><path d="M21.91-1.91V1.91A1.9,1.9,0,0,0,23.82,0,1.9,1.9,0,0,0,21.91-1.91Z"/></pattern></defs><g id="Layer_2" data-name="Layer 2"><g id="illustrations"><path class="cls-3" d="M923.81,142.63a19.64,19.64,0,0,1,19.53,17.48A18.67,18.67,0,0,0,932.1,177.2c0,.56,0,1.12.07,1.69,0,.37.08.74.13,1.11a19.65,19.65,0,0,1-27.69-13.63,19.05,19.05,0,0,1-.43-4.09,19.63,19.63,0,0,1,19.63-19.65Z"/><path class="cls-3" d="M920.45,226.48a7.56,7.56,0,0,1,0,15.12H909.13v21.49a7.56,7.56,0,1,1-15.12,0V241.6H864.39a7.55,7.55,0,0,1-5.68-12.54L893.86,189a7.56,7.56,0,0,1,11.37,10l-24.15,27.53H894v-1.95a7.56,7.56,0,1,1,15.12,0v1.95Z"/><path d="M904.61,166.37A19.65,19.65,0,0,0,932.3,180a18.66,18.66,0,0,0,18,15.87l6.31.16v93.13H833.76V166.37h43.12a19.65,19.65,0,0,0,27.56,0ZM928,234a7.56,7.56,0,0,0-7.56-7.56H909.13v-1.95a7.56,7.56,0,1,0-15.12,0v1.95H881.08L905.23,199a7.56,7.56,0,0,0-11.37-10l-35.15,40.08a7.55,7.55,0,0,0,5.68,12.54H894v21.49a7.56,7.56,0,1,0,15.12,0V241.6h11.32A7.55,7.55,0,0,0,928,234Z"/><path class="cls-3" d="M904.18,162.28a19.05,19.05,0,0,0,.43,4.09h-.17a19.65,19.65,0,0,1-27.56,0h0a19.65,19.65,0,1,1,33-18A19.62,19.62,0,0,0,904.18,162.28Z"/><path class="cls-3" d="M843.83,484.53c2.36,2.39,4.8,4.81,7.26,7.25,8.56-60.32,13.49-117.31,16.13-154.84a25.67,25.67,0,0,0-7.35-19.87c-1.24-1.25-2.61-2.6-4.11-4a16.62,16.62,0,0,0-15.5-4.22c-17.19,4.39-33.24-9.61-32.67-26.3a26.18,26.18,0,0,1,26.17-25.28v31.92h122.8V196l-6.31-.16a18.61,18.61,0,0,1-18-15.87c0-.37-.1-.74-.13-1.11,0-.57-.07-1.13-.07-1.69a18.58,18.58,0,0,1,18.63-18.6h7.16A37.59,37.59,0,0,1,993.16,183c24,64.36-10.4,329.22-35.93,452.31C947.1,684.17,887.94,703.37,851,670.84c-35.21-31-64.9-57.15-92.46-82.86-.12-1.05-.26-2.1-.39-3.15h0Z"/><path d="M761.44,122.53,744,127.25A34,34,0,0,0,720.1,151.2l-4.72,17.4-4.7-17.4a34.05,34.05,0,0,0-23.94-23.95l-17.42-4.72,17.42-4.72a34,34,0,0,0,23.94-23.94l4.7-17.39,4.72,17.39A34,34,0,0,0,744,117.81Z"/><path class="cls-4" d="M751.44,112.53,734,117.25A34,34,0,0,0,710.1,141.2l-4.72,17.4-4.7-17.4a34.05,34.05,0,0,0-23.94-23.95l-17.42-4.72,17.42-4.72a34,34,0,0,0,23.94-23.94l4.7-17.39,4.72,17.39A34,34,0,0,0,734,107.81Z"/><path d="M771.15,818.13H379.93c.56-10.43,1-20.47,1.34-30.54.46-13.18.73-26.38.83-40.5H769.82Q770.89,781.53,771.15,818.13Z"/><path class="cls-3" d="M758.53,177.85a6,6,0,1,1-6,6A6,6,0,0,1,758.53,177.85Z"/><path class="cls-5" d="M758.15,584.82h0c.13,1,.27,2.1.39,3.15,6,50,9.52,102.48,11.28,159.11H382.1c.07-9.16.07-18.71,0-28.89,53.34-16.53,108.94-35.32,131.77-43.22,1.31-.45,2.61-.94,3.88-1.46,28.84-10,67.25-31,67.25-31,35.6-21.56,56.28-28.48,91-38.22,4.17-1.18,8.53-2.38,13.15-3.66a16.26,16.26,0,0,0,11.65-18.42,16.45,16.45,0,0,0-1-3.52h0a16.17,16.17,0,0,0-6.81-7.75l4.36-.75a16.21,16.21,0,0,0,13.44-17.14,17.08,17.08,0,0,0-.66-3.6,16.27,16.27,0,0,0-10.19-10.58,16.42,16.42,0,0,0,1.54-10.82,16.71,16.71,0,0,0-15.94-13c-92.12-2.42-103.65,9.22-115.77,9A9.43,9.43,0,0,1,561,511.93c2.37-8.12,3.76-13.56,6.34-26.2a21.08,21.08,0,0,0-2.47-14.84h0a21.08,21.08,0,0,0-10.3-8.95c-10.8-4.39-23.42,1.31-27.8,12.1-.86,2.12-1.71,4.19-2.59,6.22-3.37,8-6.89,15.69-11.24,24A28.47,28.47,0,0,1,497.22,518a81.75,81.75,0,0,0-32.66,21.32,46.47,46.47,0,0,1-18.44,11.89c-26,9.28-48.72,17-68.56,23.42q-1.72-32.56-3.95-65.43c-11.14,19.42-21.65,39.16-31.35,59.24h0L215.92,505.69l2.31-5.31c39-88.68,93.52-191.66,139.87-202.7,15.68-5.46,29-7.81,40.61-7.89,58.35-.44,74.73,56.1,141.3,62.39,45.74,4.33,69.51-44.51,153.18-20.26a69.4,69.4,0,0,1,40.89,25.79c37.34,48.67,65.93,82.77,109.75,126.82Z"/><path class="cls-3" d="M705.68,228.54a16.53,16.53,0,1,1-16.53,16.52A16.53,16.53,0,0,1,705.68,228.54Z"/><path class="cls-3" d="M710.78,553.05a16.21,16.21,0,0,1-13.44,17.14l-13.44,2.3a15.76,15.76,0,0,1-1.8-5.93c-.92-9.5,6.77-18,17.19-19a20.1,20.1,0,0,1,10.83,1.91A17.08,17.08,0,0,1,710.78,553.05Z"/><path class="cls-3" d="M701.47,528.05a16.42,16.42,0,0,1-1.54,10.82h0a16.23,16.23,0,0,1-13.16,8.59l-13.62,1a15.9,15.9,0,0,1-1.22-6.08c0-9.54,8.49-17.26,19-17.26A20.21,20.21,0,0,1,701.47,528.05Z"/><path class="cls-3" d="M699.79,578.69h0a16.45,16.45,0,0,1,1,3.52,16.26,16.26,0,0,1-11.65,18.42c-4.62,1.28-9,2.48-13.15,3.66h0a15.81,15.81,0,0,1-2.38-5.74c-1.88-9.35,4.91-18.6,15.17-20.65A20.08,20.08,0,0,1,699.79,578.69Z"/><path class="cls-3" d="M332.88,588.58c13-3.86,27.83-8.43,44.68-13.92,19.84-6.44,42.52-14.14,68.56-23.42a46.47,46.47,0,0,0,18.44-11.89A81.75,81.75,0,0,1,497.22,518,28.47,28.47,0,0,0,513,504.26c4.35-8.32,7.87-16,11.24-24,4.47,5.74,10.83,9.33,17.9,9.33,10.39,0,19.26-7.76,22.79-18.69a21.08,21.08,0,0,1,2.47,14.84c-2.58,12.64-4,18.08-6.34,26.2a9.43,9.43,0,0,0,8.75,12.13c12.12.2,23.65-11.44,115.77-9a16.71,16.71,0,0,1,15.94,13,20.21,20.21,0,0,0-10.6-2.94c-10.46,0-19,7.72-19,17.26a15.9,15.9,0,0,0,1.22,6.08l13.62-1a16.23,16.23,0,0,0,13.16-8.59h0a16.27,16.27,0,0,1,10.19,10.58,20.1,20.1,0,0,0-10.83-1.91c-10.42,1-18.11,9.52-17.19,19a15.76,15.76,0,0,0,1.8,5.93l9.08-1.55a16.17,16.17,0,0,1,6.81,7.75,20.08,20.08,0,0,0-11-.8c-10.26,2.05-17.05,11.3-15.17,20.65a15.81,15.81,0,0,0,2.38,5.74h0C641.29,614,620.61,621,585,642.51c0,0-38.41,21-67.25,31-1.27.52-2.57,1-3.88,1.46-22.83,7.9-78.43,26.69-131.77,43.22-45.62,14.12-89.58,26.58-110,29.18a92.47,92.47,0,0,1-23,.43c-29.26-3.12-55-20.08-70.15-44.25a93.38,93.38,0,0,1-12.27-30,95.45,95.45,0,0,1,2.15-48c0-.1.67-2.1.67-2.13,4-11.45,12.22-34.21,23.51-62.66h0c6.65-16.76,14.37-35.51,22.88-55.07l126.33,62.78h0Q337.45,578.46,332.88,588.58Z"/><path d="M592.36,109.71a32,32,0,0,1,0,63.9H513.14l-4.21,30.6H479.72a24.76,24.76,0,0,0-16.12-5.93c11.27-75.82,97-66.24,97-66.24A22.33,22.33,0,0,1,583,109.71Z"/><path class="cls-3" d="M588.8,173.61a70.52,70.52,0,1,1-111,75.25L462.18,248a24.87,24.87,0,1,1,17.54-43.77h29.21l4.21-30.6Z"/><path class="cls-3" d="M564.88,470.89c-3.53,10.93-12.4,18.69-22.79,18.69-7.07,0-13.43-3.59-17.9-9.33.88-2,1.73-4.1,2.59-6.22,4.38-10.79,17-16.49,27.8-12.1a21.08,21.08,0,0,1,10.3,8.95Z"/><path class="cls-3" d="M398.71,289.78h0c-11.63.08-24.93,2.43-40.61,7.89-46.35,11-100.91,114-139.87,202.7H140.59A221.43,221.43,0,0,0,74.5,463.82V97H398.71Zm-56.18-14.5v-95h-95v95ZM215.1,360.38V265.33h-95v95.05Zm0-132.62v-95h-95v95Zm-71.51,168a6.81,6.81,0,1,0-6.81,6.82A6.81,6.81,0,0,0,143.59,395.73Zm0,27.62a6.81,6.81,0,1,0-6.81,6.81A6.82,6.82,0,0,0,143.59,423.35Zm0,27.6a6.81,6.81,0,1,0-6.81,6.83A6.81,6.81,0,0,0,143.59,451Z"/><path class="cls-6" d="M398.71,289.78h0c-11.63.08-24.93,2.43-40.61,7.89-46.35,11-100.91,114-139.87,202.7H140.59A221.43,221.43,0,0,0,74.5,463.82V97H398.71Zm-56.18-14.5v-95h-95v95ZM215.1,360.38V265.33h-95v95.05Zm0-132.62v-95h-95v95Zm-71.51,168a6.81,6.81,0,1,0-6.81,6.82A6.81,6.81,0,0,0,143.59,395.73Zm0,27.62a6.81,6.81,0,1,0-6.81,6.81A6.82,6.82,0,0,0,143.59,423.35Zm0,27.6a6.81,6.81,0,1,0-6.81,6.83A6.81,6.81,0,0,0,143.59,451Z"/><path class="cls-4" d="M342.53,180.24v95h-95v-95ZM314.66,249.7a7.56,7.56,0,0,0-7.56-7.57h-9.34c7.5-7.74,14.74-17.83,14.74-27.87,0-12.92-10.38-19.88-20.15-19.88a20.41,20.41,0,0,0-13.69,5.09,20.07,20.07,0,0,0-6.43,15.21,7.57,7.57,0,1,0,15.13,0c0-4.51,3.13-5.18,5-5.18,1.18,0,5,.35,5,4.76,0,8.46-14.27,22.17-24.4,29.23a7.56,7.56,0,0,0,4.32,13.78h29.8A7.56,7.56,0,0,0,314.66,249.7Z"/><path d="M307.1,242.13a7.57,7.57,0,0,1,0,15.14H277.3A7.56,7.56,0,0,1,273,243.49c10.13-7.06,24.4-20.77,24.4-29.23,0-4.41-3.85-4.76-5-4.76-1.86,0-5,.67-5,5.18a7.57,7.57,0,1,1-15.13,0,20.07,20.07,0,0,1,6.43-15.21,20.41,20.41,0,0,1,13.69-5.09c9.77,0,20.15,7,20.15,19.88,0,10-7.24,20.13-14.74,27.87Z"/><path class="cls-3" d="M249.13,747.81v70.64H74.5V733.58a30,30,0,0,0,30-30H179C194.14,727.73,219.87,744.69,249.13,747.81Z"/><path class="cls-7" d="M249.13,747.81v70.64H74.5V733.58a30,30,0,0,0,30-30H179C194.14,727.73,219.87,744.69,249.13,747.81Z"/><path class="cls-3" d="M247.48,12.37A10.37,10.37,0,1,1,237.11,2,10.36,10.36,0,0,1,247.48,12.37Z"/><path class="cls-3" d="M215.1,265.33v95.05h-95V265.33Zm-25.6,57a22,22,0,0,0-6.67-15.81,17.62,17.62,0,0,0-8.19-25c-6.9-3-14.67-1.4-20.84,4.3A7.56,7.56,0,0,0,164.08,297c1-.88,2.82-2.27,4.5-1.53a2.51,2.51,0,0,1-1,4.8h-.17a7.56,7.56,0,0,0,0,15.12A7,7,0,0,1,169.57,329c-4,1.3-8.58-1.09-12.55-6.54a7.56,7.56,0,0,0-12.24,8.89c6.22,8.54,14.28,13.16,22.51,13.16a22.26,22.26,0,0,0,22.21-22.13Z"/><path class="cls-5" d="M215.1,132.72v95h-95v-95Zm-36,71.56V158.6a7.56,7.56,0,0,0-7.56-7.57h-17a7.57,7.57,0,0,0,0,15.13H164v38.12a7.57,7.57,0,1,0,15.13,0Z"/><path d="M182.83,306.56a22.17,22.17,0,0,1-15.54,37.94c-8.23,0-16.29-4.62-22.51-13.16A7.56,7.56,0,0,1,157,322.45c4,5.45,8.54,7.84,12.55,6.54a7,7,0,0,0-2.17-13.61,7.56,7.56,0,0,1,0-15.12h.17a2.51,2.51,0,0,0,1-4.8c-1.68-.74-3.53.65-4.5,1.53a7.56,7.56,0,0,1-10.28-11.1c6.17-5.7,13.94-7.3,20.84-4.3a17.62,17.62,0,0,1,8.19,25Z"/><path class="cls-3" d="M179.09,158.6v45.68a7.57,7.57,0,1,1-15.13,0V166.16h-9.4a7.57,7.57,0,0,1,0-15.13h17A7.56,7.56,0,0,1,179.09,158.6Z"/><path class="cls-3" d="M136.78,388.92a6.82,6.82,0,1,1-6.81,6.81A6.81,6.81,0,0,1,136.78,388.92Z"/><path class="cls-3" d="M136.78,416.52a6.82,6.82,0,1,1-6.81,6.83A6.82,6.82,0,0,1,136.78,416.52Z"/><path class="cls-3" d="M136.78,444.14A6.82,6.82,0,1,1,130,451,6.81,6.81,0,0,1,136.78,444.14Z"/><path d="M74.5,463.82a221.43,221.43,0,0,1,66.09,36.56H74.5Z"/><path class="cls-3" d="M104.51,703.56h-30v30a30,30,0,1,1,30-30Z"/><path d="M74.5,703.56h30a30,30,0,0,1-30,30Z"/><path class="cls-4" d="M193,560.77c-11.29,28.45-19.55,51.21-23.51,62.66,0,0-.63,2-.67,2.13a95.45,95.45,0,0,0-2.15,48H115.82A113.94,113.94,0,0,0,2,559.72V451.65a220.92,220.92,0,0,1,72.5,12.17v36.56h66.09A224,224,0,0,1,193,560.76Z"/><path class="cls-8" d="M733.24,448.45a1128.67,1128.67,0,0,1,24.91,136.37"/><path class="cls-8" d="M377.56,574.66q-1.72-32.56-3.95-65.43c-11.14,19.42-21.65,39.16-31.35,59.24-3.21,6.66-9.42,20.2-9.44,20.24"/><path class="cls-8" d="M193,560.76c6.65-16.76,14.36-35.51,22.88-55.07.76-1.75,1.53-3.54,2.31-5.31,38.86-88.73,93.52-191.66,139.87-202.7,15.68-5.46,29-7.81,40.61-7.89,58.35-.43,74.73,56.1,141.3,62.39,45.74,4.33,69.51-44.51,153.18-20.26a69.4,69.4,0,0,1,40.89,25.79c37.34,48.67,66,82.68,109.75,126.82,2.37,2.39,4.8,4.81,7.26,7.25"/><path class="cls-8" d="M517.76,673.52c-1.27.52-2.57,1-3.88,1.46-22.83,7.9-78.43,26.7-131.77,43.22-45.62,14.12-89.58,26.58-110,29.18a92.47,92.47,0,0,1-23,.43c-29.26-3.14-55-20.09-70.15-44.25a93.61,93.61,0,0,1-12.27-30,95.45,95.45,0,0,1,2.15-48c0-.1.67-2.1.67-2.13,4-11.45,12.22-34.21,23.51-62.66"/><path class="cls-8" d="M701.48,528.06h0a20.21,20.21,0,0,0-10.6-2.94c-10.46,0-19,7.72-19,17.26a15.9,15.9,0,0,0,1.22,6.08"/><path class="cls-8" d="M699.93,538.87a16.22,16.22,0,0,1,10.19,10.58,16.47,16.47,0,0,1,.66,3.6,16.21,16.21,0,0,1-13.44,17.14l-13.44,2.3c-35.94,6.21-57.28,11.12-95.64,29.44"/><path class="cls-8" d="M564.88,470.88a21.08,21.08,0,0,0-10.3-8.95c-10.8-4.39-23.42,1.31-27.8,12.1-.86,2.12-1.72,4.18-2.59,6.22-3.4,8-6.89,15.69-11.24,24A28.47,28.47,0,0,1,497.22,518a81.75,81.75,0,0,0-32.66,21.32,46.47,46.47,0,0,1-18.44,11.89c-26,9.28-48.73,17-68.56,23.42-16.86,5.48-31.64,10.06-44.68,13.92C307.8,596,289.22,600.77,275,604.24"/><path class="cls-8" d="M577.14,567.74c38.68-13.88,60.26-16.59,96-19.28h0l13.62-1a16.23,16.23,0,0,0,13.16-8.59h0a16.42,16.42,0,0,0,1.54-10.82,16.7,16.7,0,0,0-15.94-13c-92.12-2.42-103.65,9.22-115.77,9A9.43,9.43,0,0,1,561,511.93c2.37-8.12,3.76-13.56,6.34-26.2a21.08,21.08,0,0,0-2.47-14.84"/><path class="cls-8" d="M710.12,549.45a20.1,20.1,0,0,0-10.83-1.91c-10.42,1-18.11,9.52-17.19,19a15.76,15.76,0,0,0,1.8,5.93h0"/><path class="cls-8" d="M699.8,578.69a16.45,16.45,0,0,1,1,3.52,16.26,16.26,0,0,1-11.65,18.42L676,604.29c-34.74,9.79-55.43,16.66-91,38.22,0,0-38.41,21-67.25,31l-.07,0"/><path class="cls-8" d="M693,570.94a16.17,16.17,0,0,1,6.81,7.75"/><path class="cls-8" d="M699.8,578.69h0a20.08,20.08,0,0,0-11-.8c-10.26,2.05-17.05,11.3-15.17,20.65a15.81,15.81,0,0,0,2.38,5.74"/><path class="cls-8" d="M524.19,480.25c4.47,5.74,10.83,9.33,17.9,9.33,10.39,0,19.26-7.76,22.79-18.69h0"/><line class="cls-8" x1="769.81" y1="747.09" x2="382.1" y2="747.09"/><line class="cls-8" x1="215.92" y1="505.69" x2="342.25" y2="568.47"/><path class="cls-8" d="M382.11,718.2c.06,10.18.06,19.73,0,28.89-.11,14.12-.37,27.32-.83,40.5-.33,10.07-.78,20.11-1.34,30.54H771.15q-.3-36.64-1.33-71C768.06,690.46,764.44,638,758.54,588c-.12-1.05-.26-2.1-.39-3.15h0l85.68-100.29"/><path class="cls-8" d="M833.76,257.24a26.18,26.18,0,0,0-26.17,25.28c-.57,16.69,15.48,30.69,32.67,26.3a16.62,16.62,0,0,1,15.5,4.22c1.5,1.43,2.87,2.78,4.11,4a25.67,25.67,0,0,1,7.35,19.87c-2.64,37.53-7.58,94.52-16.13,154.84-2.74,19.32-5.84,39-9.36,58.44"/><path class="cls-8" d="M964.89,196.24l-14.64-.37a18.61,18.61,0,0,1-18-15.87c0-.37-.1-.74-.13-1.11,0-.57-.07-1.13-.07-1.69a18.58,18.58,0,0,1,18.63-18.6h7.16A37.59,37.59,0,0,1,993.16,183c24,64.36-10.4,329.22-35.93,452.31C947.1,684.17,887.94,703.37,851,670.84c-35.21-31-64.9-57.15-92.46-82.86h0"/><path class="cls-8" d="M876.88,166.37a19.65,19.65,0,0,0,27.56,0l.12-.13"/><path class="cls-8" d="M909.91,148.4a19.65,19.65,0,1,0-33,18"/><line class="cls-8" x1="904.44" y1="166.37" x2="904.59" y2="166.37"/><path class="cls-8" d="M932.3,180a19.65,19.65,0,0,1-27.69-13.63,19.05,19.05,0,0,1-.43-4.09,19.64,19.64,0,0,1,39.16-2.17"/><polyline class="cls-8" points="956.56 196.03 956.56 289.16 833.76 289.16 833.76 166.37 876.88 166.37"/><path class="cls-8" d="M920.45,226.48H909.13v-1.95a7.56,7.56,0,1,0-15.12,0v1.95H881.08L905.23,199a7.56,7.56,0,0,0-11.37-10l-35.15,40.08a7.55,7.55,0,0,0,5.68,12.54H894v21.49a7.56,7.56,0,1,0,15.12,0V241.6h11.32a7.56,7.56,0,0,0,0-15.12Z"/><path class="cls-8" d="M722.21,245.06a16.53,16.53,0,1,0-16.53,16.53A16.53,16.53,0,0,0,722.21,245.06Z"/><path class="cls-5" d="M764.56,185.46a7.6,7.6,0,1,0-7.6,7.6A7.61,7.61,0,0,0,764.56,185.46Z"/><path class="cls-8" d="M588.8,173.61a70.52,70.52,0,1,1-111,75.25L462.18,248a24.87,24.87,0,1,1,17.54-43.77h29.21l4.21-30.6h79.22a31.95,31.95,0,0,0,0-63.9H583A22.33,22.33,0,0,0,560.65,132s-85.78-9.58-97,66.24"/><polyline class="cls-8" points="561 205.63 561 239.09 548.59 239.09"/><path class="cls-8" d="M470.14,210.11a13.42,13.42,0,0,0-4.92-.94,13.19,13.19,0,0,0-13.13,12"/><polyline class="cls-8" points="218.23 500.38 74.5 500.38 74.5 97.02 398.71 97.02 398.71 289.78"/><polyline class="cls-8" points="249.13 747.81 249.13 818.45 74.5 818.45 74.5 703.56 178.97 703.56"/><path class="cls-8" d="M166.71,673.54H115.82A113.94,113.94,0,0,0,2,559.72V451.65a220.92,220.92,0,0,1,72.5,12.17,221.43,221.43,0,0,1,66.09,36.56A224.13,224.13,0,0,1,193,560.76h0"/><path class="cls-8" d="M104.51,703.56a30,30,0,1,0-30,30A30,30,0,0,0,104.51,703.56Z"/><path class="cls-8" d="M243.71,20.38a10.37,10.37,0,1,0-6.6,2.37A10.36,10.36,0,0,0,243.71,20.38Z"/><line class="cls-8" x1="166.28" y1="97.02" x2="230.45" y2="20.33"/><line class="cls-8" x1="243.71" y1="20.38" x2="306.93" y2="97.02"/><rect class="cls-8" x="120.05" y="132.72" width="95.05" height="95.04"/><path class="cls-8" d="M171.53,211.86a7.58,7.58,0,0,1-7.57-7.58V166.16h-9.4a7.57,7.57,0,0,1,0-15.13h17a7.56,7.56,0,0,1,7.56,7.57v45.68A7.58,7.58,0,0,1,171.53,211.86Z"/><rect class="cls-8" x="247.48" y="180.24" width="95.05" height="95.04"/><path class="cls-8" d="M307.1,257.27H277.3A7.56,7.56,0,0,1,273,243.49c10.13-7.06,24.4-20.77,24.4-29.23,0-4.41-3.85-4.76-5-4.76-1.86,0-5,.67-5,5.18a7.57,7.57,0,1,1-15.13,0,20.07,20.07,0,0,1,6.43-15.21,20.41,20.41,0,0,1,13.69-5.09c9.77,0,20.15,7,20.15,19.88,0,10-7.24,20.13-14.74,27.87h9.34a7.57,7.57,0,0,1,0,15.14Z"/><rect class="cls-8" x="120.05" y="265.33" width="95.05" height="95.05"/><path class="cls-8" d="M182.83,306.56a17.62,17.62,0,0,0-8.19-25c-6.9-3-14.67-1.4-20.84,4.3A7.56,7.56,0,0,0,164.08,297c1-.88,2.82-2.27,4.5-1.53a2.51,2.51,0,0,1-1,4.8h-.17a7.56,7.56,0,0,0,0,15.12A7,7,0,0,1,169.57,329c-4,1.3-8.58-1.09-12.55-6.54a7.56,7.56,0,0,0-12.24,8.89c6.22,8.54,14.28,13.16,22.51,13.16a22.11,22.11,0,0,0,15.54-37.94Z"/><path class="cls-8" d="M143.59,395.73a6.81,6.81,0,1,0-6.81,6.82A6.81,6.81,0,0,0,143.59,395.73Z"/><line class="cls-8" x1="160.28" y1="395.02" x2="215.1" y2="395.02"/><path class="cls-8" d="M143.59,423.35a6.81,6.81,0,1,0-6.81,6.81A6.82,6.82,0,0,0,143.59,423.35Z"/><line class="cls-8" x1="160.28" y1="422.64" x2="215.1" y2="422.64"/><path class="cls-8" d="M143.59,451a6.81,6.81,0,1,0-6.81,6.83A6.81,6.81,0,0,0,143.59,451Z"/><line class="cls-8" x1="160.28" y1="450.25" x2="215.1" y2="450.25"/></g></g></svg>