<svg xmlns="http://www.w3.org/2000/svg" xmlns:xlink="http://www.w3.org/1999/xlink" viewBox="0 0 973.07 904.91"><defs><style>.cls-1,.cls-2,.cls-7,.cls-9{fill:none;}.cls-2,.cls-7{stroke:#000;}.cls-2,.cls-7,.cls-9{stroke-linecap:round;stroke-linejoin:round;}.cls-2{stroke-width:1.5px;}.cls-3{fill:#fff;}.cls-4{fill:#3496f7;}.cls-5{fill:#d3e5fb;}.cls-6{fill:url(#New_Pattern_4);}.cls-7,.cls-9{stroke-width:4px;}.cls-8{fill:url(#New_Pattern_3);}.cls-9{stroke:#fff;}</style><pattern id="New_Pattern_4" data-name="New Pattern 4" width="70" height="50" patternTransform="translate(0 -30)" patternUnits="userSpaceOnUse" viewBox="0 0 70 50"><rect class="cls-1" width="70" height="50"/><path class="cls-2" d="M8.89,100c-.05-7.08.29-14.17.29-21.25,0-4.32-.37-17.48-.29-28.09"/><path class="cls-2" d="M22.94,99.84c0-1.65.09-3.31.09-5,0-2.48-.21-5-.21-7.45s0-3.83.05-7.28c0-1.44-.06-2.9-.06-4.35,0-3.1.31-4.62.31-7.37,0-1.4-.27-4.94-.27-8.33q0-1.61.09-3.21V50.11"/><path class="cls-2" d="M36.74,99.84c0-9.46.33-18.09.33-27.56,0-3.7-.15-7.46-.15-11.2,0-3.35-.1-7.29-.18-10.75"/><path class="cls-2" d="M50.93,99.75c0-1.24-.07-2.75-.07-4,0-1.92,0-3.86,0-5.79,0-3.87,0-7.66,0-11.51a8.42,8.42,0,0,1-.08-1.22c0-.32.18-6.68.18-8,0-2.2-.21-3.25-.21-5.64,0-1.3.06-2.65.17-3.86,0-2.89,0-5.89,0-9.05"/><path class="cls-2" d="M65,99.71c0-8.34-.55-15.73-.36-24.06.18-8.13.16-17.71.36-25.19"/><path class="cls-2" d="M8.89,50c-.05-7.08.29-14.17.29-21.25,0-4.32-.37-17.48-.29-28.09"/><path class="cls-2" d="M22.94,49.84c0-1.65.09-3.31.09-5,0-2.48-.21-5-.21-7.45s0-3.83.05-7.28c0-1.44-.06-2.9-.06-4.35,0-3.1.31-4.62.31-7.37,0-1.4-.27-4.94-.27-8.33q0-1.6.09-3.21V.11"/><path class="cls-2" d="M36.74,49.84c0-9.46.33-18.09.33-27.56,0-3.7-.15-7.46-.15-11.2,0-3.35-.1-7.29-.18-10.75"/><path class="cls-2" d="M50.93,49.75c0-1.24-.07-2.75-.07-4,0-1.92,0-3.86,0-5.79,0-3.87,0-7.66,0-11.51a8.42,8.42,0,0,1-.08-1.22c0-.32.18-6.68.18-8,0-2.2-.21-3.25-.21-5.64,0-1.3.06-2.65.17-3.86,0-2.89,0-5.89,0-9"/><path class="cls-2" d="M65,49.71c0-8.34-.55-15.73-.36-24.06.18-8.13.16-17.71.36-25.19"/><path class="cls-2" d="M8.89,0c-.05-7.08.29-14.17.29-21.25,0-4.32-.37-17.48-.29-28.09"/><path class="cls-2" d="M22.94-.16c0-1.65.09-3.31.09-5,0-2.48-.21-5-.21-7.45s0-3.83.05-7.28c0-1.44-.06-2.9-.06-4.35,0-3.1.31-4.62.31-7.37,0-1.4-.27-4.94-.27-8.33q0-1.61.09-3.21v-6.71"/><path class="cls-2" d="M36.74-.16c0-9.46.33-18.09.33-27.56,0-3.7-.15-7.46-.15-11.2,0-3.35-.1-7.29-.18-10.75"/><path class="cls-2" d="M50.93-.25c0-1.24-.07-2.75-.07-4,0-1.92,0-3.86,0-5.79,0-3.87,0-7.66,0-11.51a8.42,8.42,0,0,1-.08-1.22c0-.32.18-6.68.18-8,0-2.2-.21-3.25-.21-5.64,0-1.3.06-2.65.17-3.86,0-2.89,0-5.89,0-9.05"/><path class="cls-2" d="M65-.29c0-8.34-.55-15.73-.36-24.06.18-8.13.16-17.71.36-25.19"/></pattern><pattern id="New_Pattern_3" data-name="New Pattern 3" width="40" height="40" patternTransform="translate(0 -30)" patternUnits="userSpaceOnUse" viewBox="0 0 40 40"><rect class="cls-1" width="40" height="40"/><path d="M36.18,30a1.9,1.9,0,0,0,1.91,1.91V28.09A1.9,1.9,0,0,0,36.18,30Z"/><path d="M40,33.82a1.9,1.9,0,0,0,1.91-1.91H38.09A1.9,1.9,0,0,0,40,33.82Z"/><path d="M40,26.18a1.9,1.9,0,0,0-1.91,1.91h3.82A1.9,1.9,0,0,0,40,26.18Z"/><path d="M16.18,40a1.9,1.9,0,0,0,1.91,1.91V38.09A1.9,1.9,0,0,0,16.18,40Z"/><path d="M21.91,38.09v3.82a1.91,1.91,0,0,0,0-3.82Z"/><path d="M20,36.18a1.9,1.9,0,0,0-1.91,1.91h3.82A1.9,1.9,0,0,0,20,36.18Z"/><path d="M1.91,28.09v3.82a1.91,1.91,0,0,0,0-3.82Z"/><path d="M36.18,10a1.9,1.9,0,0,0,1.91,1.91V8.09A1.9,1.9,0,0,0,36.18,10Z"/><path d="M40,13.82a1.9,1.9,0,0,0,1.91-1.91H38.09A1.9,1.9,0,0,0,40,13.82Z"/><path d="M40,6.18a1.9,1.9,0,0,0-1.91,1.91h3.82A1.9,1.9,0,0,0,40,6.18Z"/><path d="M18.79,16.37a1.92,1.92,0,0,0-1.21,2.42l3.63-1.21A1.92,1.92,0,0,0,18.79,16.37Z"/><path d="M22.42,21.21l-3.63,1.21a1.91,1.91,0,0,0,3.63-1.21Z"/><path d="M16.37,21.21a1.92,1.92,0,0,0,2.42,1.21l-1.21-3.63A1.92,1.92,0,0,0,16.37,21.21Z"/><path d="M23.63,18.79a1.92,1.92,0,0,0-2.42-1.21l1.21,3.63A1.92,1.92,0,0,0,23.63,18.79Z"/><path d="M1.91,8.09v3.82a1.91,1.91,0,0,0,0-3.82Z"/><path d="M20,3.82a1.9,1.9,0,0,0,1.91-1.91H18.09A1.9,1.9,0,0,0,20,3.82Z"/><path d="M0,33.82a1.9,1.9,0,0,0,1.91-1.91H-1.91A1.9,1.9,0,0,0,0,33.82Z"/><path d="M0,26.18a1.9,1.9,0,0,0-1.91,1.91H1.91A1.9,1.9,0,0,0,0,26.18Z"/><path d="M0,13.82a1.9,1.9,0,0,0,1.91-1.91H-1.91A1.9,1.9,0,0,0,0,13.82Z"/><path d="M0,6.18A1.9,1.9,0,0,0-1.91,8.09H1.91A1.9,1.9,0,0,0,0,6.18Z"/><path d="M16.18,0a1.9,1.9,0,0,0,1.91,1.91V-1.91A1.9,1.9,0,0,0,16.18,0Z"/><path d="M21.91-1.91V1.91A1.9,1.9,0,0,0,23.82,0,1.9,1.9,0,0,0,21.91-1.91Z"/></pattern></defs><g id="Layer_2" data-name="Layer 2"><g id="illustrations"><rect class="cls-3" x="350.39" y="865.4" width="112.54" height="37.51"/><rect class="cls-3" x="350.39" y="827.89" width="112.54" height="37.51"/><rect class="cls-3" x="350.39" y="790.37" width="112.54" height="37.52"/><rect class="cls-3" x="202.13" y="865.4" width="112.54" height="37.51"/><rect class="cls-3" x="202.13" y="827.89" width="112.54" height="37.51"/><rect class="cls-3" x="202.13" y="790.37" width="112.54" height="37.52"/><rect class="cls-4" x="258.4" y="386.96" width="21.76" height="39.94"/><path class="cls-5" d="M258.4,458A17.44,17.44,0,1,1,241,475.4,17.43,17.43,0,0,1,258.4,458Z"/><path class="cls-5" d="M258.4,387V426.9H187.06a53.83,53.83,0,0,0-37.28-24V387Z"/><path class="cls-3" d="M187.06,426.9a53.84,53.84,0,1,1-37.28-24v24Z"/><path class="cls-6" d="M187.06,426.9a53.84,53.84,0,1,1-37.28-24v24Z"/><path d="M187.06,426.9H149.78v-24A53.83,53.83,0,0,1,187.06,426.9Z"/><rect class="cls-3" x="53.88" y="865.4" width="112.54" height="37.51"/><rect class="cls-3" x="53.88" y="827.89" width="112.54" height="37.51"/><rect class="cls-3" x="53.88" y="790.37" width="112.54" height="37.52"/><polygon class="cls-7" points="462.93 865.4 462.93 902.91 350.38 902.91 350.38 790.37 462.93 790.37 462.93 865.4"/><line class="cls-7" x1="350.39" y1="827.89" x2="462.93" y2="827.89"/><line class="cls-7" x1="350.39" y1="865.4" x2="462.93" y2="865.4"/><polygon class="cls-7" points="314.67 865.4 314.67 902.91 202.13 902.91 202.13 790.37 314.67 790.37 314.67 865.4"/><line class="cls-7" x1="202.13" y1="827.89" x2="314.67" y2="827.89"/><line class="cls-7" x1="202.13" y1="865.4" x2="314.67" y2="865.4"/><polygon class="cls-7" points="166.41 865.4 166.41 902.91 53.88 902.91 53.88 790.37 166.41 790.37 166.41 865.4"/><line class="cls-7" x1="53.88" y1="827.89" x2="166.42" y2="827.89"/><line class="cls-7" x1="53.88" y1="865.4" x2="166.42" y2="865.4"/><line class="cls-7" x1="258.4" y1="320.83" x2="258.4" y2="457.97"/><line class="cls-7" x1="258.4" y1="492.84" x2="258.4" y2="790.37"/><path class="cls-7" d="M258.4,492.84A17.44,17.44,0,1,0,241,475.4,17.44,17.44,0,0,0,258.4,492.84Z"/><polygon class="cls-7" points="258.39 386.96 280.15 386.96 280.15 426.9 149.78 426.9 149.78 386.96 258.39 386.96"/><path class="cls-7" d="M149.78,402.86a55.18,55.18,0,0,0-8-.59,53.84,53.84,0,1,0,8,.59Z"/><path class="cls-3" d="M765,391H750l-15.48-35.85,19-20.75a46.89,46.89,0,0,1,34.6-15.24h71.73l57.72-46.94c11.86,13.32,25,28.43,40.3,44.71a48.79,48.79,0,0,1,8,55.34c-8.37,16.68-25.77,26.89-44.43,26.89H823.79a10.1,10.1,0,0,0-9.9-8.16Z"/><path class="cls-5" d="M917.54,272.2l-57.72,46.94H788.09a46.89,46.89,0,0,0-34.6,15.24l-19,20.75L702.1,280.06a13,13,0,0,0-12-7.86H610.34c39.17-37.5,72.75-56.91,116.74-35a60.23,60.23,0,0,0,59.91-3.7C844.52,195.35,871.22,220.19,917.54,272.2Z"/><path class="cls-3" d="M890.83,612.54V902.91h-53V612.54ZM878,737.72V716H853.36v21.71Z"/><path class="cls-6" d="M890.83,612.54V902.91h-53V612.54ZM878,737.72V716H853.36v21.71Z"/><rect x="853.36" y="716.01" width="24.62" height="21.71"/><path d="M857.07,178.79h-66a40.83,40.83,0,0,0,2.4-13.18c0-1.24-.09-2.46-.22-3.66a41,41,0,0,1-44.57-22.68,40.83,40.83,0,0,1-30.87,14c-1.35,0-2.69-.06-4-.19a37.34,37.34,0,0,0,.25,25.66H663.55a35.76,35.76,0,0,0,34.09-26.91,56.76,56.76,0,0,1,107.16-7.71A56.75,56.75,0,0,0,857.07,178.79Z"/><path class="cls-4" d="M851.85,533.81c2.58,12.22,3.63,33.55-12,53.8a64.85,64.85,0,0,1-45.21,24.93H782.11a64.73,64.73,0,0,1-33.49-13.3L583.36,473.72a213.49,213.49,0,0,0-33.67-21l-4.31-2.16a65,65,0,0,0-94.08,58.13v63.16l-55.63,55.63-55.26-55.26c19.12-19.12,3.23-48-30.17-43.16L481.41,357.93a114.37,114.37,0,0,1,41.7-26.61q2.39-.88,4.81-1.64a115.31,115.31,0,0,1,105.41,18.6L786.48,464.72H842.6c.29,3,3.15,30.51,3.15,30.51A377.94,377.94,0,0,0,851.85,533.81Z"/><path class="cls-5" d="M842.6,464.72H786.48l-70.43-53.55h97.84A10.09,10.09,0,0,0,824,401.08a9.6,9.6,0,0,0-.19-1.94H838.4Q839.47,432,842.6,464.72Z"/><path class="cls-3" d="M837.85,872v30.91H777.21C785.75,863.5,815.08,884.77,837.85,872Z"/><path class="cls-3" d="M837.85,757.35V872c-22.77,12.77-52.1-8.5-60.64,30.91H702.42c8.27-15.62,16.69-31.48,28.5-43.94C747.18,841.8,782,829.69,782,810.9c0-5.15-1.88-10.29-1.88-15.3C780.15,773.36,816.14,779.75,837.85,757.35Z"/><path class="cls-8" d="M837.85,757.35V872c-22.77,12.77-52.1-8.5-60.64,30.91H702.42c8.27-15.62,16.69-31.48,28.5-43.94C747.18,841.8,782,829.69,782,810.9c0-5.15-1.88-10.29-1.88-15.3C780.15,773.36,816.14,779.75,837.85,757.35Z"/><path class="cls-3" d="M837.85,663.07v94.28c-21.71,22.4-57.7,16-57.7,38.25,0,5,1.88,10.15,1.88,15.3,0,18.79-34.85,30.9-51.11,48.07-11.81,12.46-20.23,28.32-28.5,43.94H618.87c20.8-50,76.6-60,76.6-88,0-18.54-43.32-7-43.32-29.84,0-32.17,84.07-88.6,97.49-88.6,20,0-5.68,25.48,24.81,25.48C799.36,721.9,815.19,683.38,837.85,663.07Z"/><path class="cls-3" d="M837.85,612.54v50.53c-22.66,20.31-38.49,58.83-63.4,58.83-30.49,0-4.84-25.48-24.81-25.48-13.42,0-97.49,56.43-97.49,88.6,0,22.89,43.32,11.3,43.32,29.84,0,28.08-55.8,38-76.6,88H581.3V726.68c5.39-9.47,13.38-17.19,28.69-22.64,17.65-6.28,40.67-.93,56.08-13.56,15.16-12.43,10.29-34,24-46.66,17.48-16.11,37.25-5.82,48.28-31.28Z"/><path class="cls-8" d="M837.85,612.54v50.53c-22.66,20.31-38.49,58.83-63.4,58.83-30.49,0-4.84-25.48-24.81-25.48-13.42,0-97.49,56.43-97.49,88.6,0,22.89,43.32,11.3,43.32,29.84,0,28.08-55.8,38-76.6,88H581.3V726.68c5.39-9.47,13.38-17.19,28.69-22.64,17.65-6.28,40.67-.93,56.08-13.56,15.16-12.43,10.29-34,24-46.66,17.48-16.11,37.25-5.82,48.28-31.28Z"/><path d="M823.79,399.14a10.37,10.37,0,0,1,.19,1.94,10.09,10.09,0,0,1-10.09,10.09H758.72L750,391h63.89a10,10,0,0,1,7.13,3A10.23,10.23,0,0,1,823.79,399.14Z"/><path class="cls-3" d="M791.05,178.79a40.72,40.72,0,1,1-77.28-25.66c1.33.13,2.67.19,4,.19a40.83,40.83,0,0,0,30.87-14A41,41,0,0,0,793.23,162c.13,1.2.2,2.42.22,3.66A40.83,40.83,0,0,1,791.05,178.79Z"/><path class="cls-4" d="M782.11,612.54H617.78A99.17,99.17,0,0,1,608,608.3L581.3,594.93V811.14H503.15c0-27-31.68-36.26-51.85-9.19V508.73a65,65,0,0,1,94.08-58.13l4.31,2.16a213.49,213.49,0,0,1,33.67,21L748.62,599.24A64.73,64.73,0,0,0,782.11,612.54Z"/><path class="cls-3" d="M750,391l8.72,20.19H716.05l-82.72-62.89a115.31,115.31,0,0,0-105.41-18.6L513,295.08h0l-7.33-17a4.24,4.24,0,0,1,3.89-5.91H690.15a13,13,0,0,1,12,7.86Z"/><path d="M617.78,612.54h120.6c-11,25.46-30.8,15.17-48.28,31.28-13.74,12.66-8.87,34.23-24,46.66C650.66,703.11,627.64,697.76,610,704c-15.31,5.45-23.3,13.17-28.69,22.64V612.54Z"/><path d="M581.3,811.14v91.77H417.85c-13.28,0-22.86-13-18.55-25.59C405.23,860.07,417,848,438,833.53c2.9-13.63,7.64-24,13.27-31.58,20.17-27.07,51.85-17.85,51.85,9.19Z"/><path class="cls-3" d="M496.94,311.66l26.17,19.66a114.37,114.37,0,0,0-41.7,26.61l-24.34,24.34-41.79-31.88a28.28,28.28,0,0,0-17.16-5.8H395a15.54,15.54,0,0,1-14.61-10.24l-6.49-17.93a10.65,10.65,0,0,0,4.49-.13c6.68-1.65,10.52-9.42,8.57-17.37a15.79,15.79,0,0,0-8.09-10.53c.24-.11.48-.2.73-.29a15,15,0,0,1,19.21,9l8.59,23.73h59.3a53.86,53.86,0,0,0,29.86-8.92Z"/><path class="cls-3" d="M468.7,212a54.48,54.48,0,0,1,52.12,60.16H509.54a4.24,4.24,0,0,0-3.89,5.91l7.33,17h0a54.8,54.8,0,0,1-16,16.58l-.37.25a53.86,53.86,0,0,1-29.86,8.92h-59.3l-8.59-23.73a15,15,0,0,0-19.21-9l-.73.29a15.17,15.17,0,0,0-8.05,8.15,15,15,0,0,0-19-8.44c-.33.12-.66.25-1,.39a14.9,14.9,0,0,0-7.8,8.05h0a15,15,0,0,0-19-8.44c-.42.15-.82.32-1.21.5a15,15,0,0,0-7.79,18.71l4.9,13.52H64.23C30.53,320.83,2.44,294,2,260.33a61.35,61.35,0,0,1,81.74-58.64,144.35,144.35,0,0,1,1-52.8A143,143,0,0,1,336.16,88.43l-85.35,85.5L187.4,113.66l-45.59,45.71L252.37,263.71l150.7-151a75.8,75.8,0,0,1,42,103.76A54.33,54.33,0,0,1,468.7,212Z"/><polygon class="cls-4" points="370.36 54.17 416.02 99.73 252.37 263.71 141.81 159.37 187.4 113.66 250.81 173.93 370.36 54.17"/><path d="M395.67,627.52l-64.89,64.89L215.2,576.84c-9.39-9.4-6.95-25.39,5-31.21,16.38-8,33.26-8.27,58.35-3.58,11.67-7.59,22.37-11.59,31.7-12.95,33.4-4.88,49.29,24,30.17,43.16Z"/><path class="cls-3" d="M395,344.59H367.42a15.8,15.8,0,0,1-14.86-10.42l-6.39-17.67a10.61,10.61,0,0,0,4-.21c6.69-1.65,10.52-9.42,8.57-17.37a15.84,15.84,0,0,0-7.88-10.43c.32-.14.64-.27,1-.39a15,15,0,0,1,19,8.44,14.9,14.9,0,0,0-.22,10.77l9.79,27A15.54,15.54,0,0,0,395,344.59Z"/><path class="cls-3" d="M387,298.92c1.95,7.95-1.89,15.72-8.57,17.37a10.65,10.65,0,0,1-4.49.13l-3.3-9.11a15,15,0,0,1,8.27-18.92A15.79,15.79,0,0,1,387,298.92Z"/><path class="cls-3" d="M367.42,344.59H339a14.84,14.84,0,0,1-14-9.79l-6.61-18.25a10.62,10.62,0,0,0,3.54-.26c6.68-1.65,10.52-9.42,8.56-17.37a15.88,15.88,0,0,0-7.66-10.32c.39-.18.79-.35,1.21-.5a15,15,0,0,1,19,8.44h0a14.9,14.9,0,0,0-.22,10.77l3.32,9.19h0l6.39,17.67A15.8,15.8,0,0,0,367.42,344.59Z"/><path class="cls-3" d="M358.74,298.92c1.95,7.95-1.88,15.72-8.57,17.37a10.61,10.61,0,0,1-4,.21h0l-3.32-9.19a15,15,0,0,1,8-18.82A15.84,15.84,0,0,1,358.74,298.92Z"/><path class="cls-3" d="M330.51,298.92c2,7.95-1.88,15.72-8.56,17.37a10.62,10.62,0,0,1-3.54.26l-3.35-9.24a15,15,0,0,1,7.79-18.71A15.88,15.88,0,0,1,330.51,298.92Z"/><line class="cls-7" x1="451.3" y1="571.89" x2="395.67" y2="627.52"/><path class="cls-7" d="M310.24,529.1,481.41,357.93a115,115,0,0,1,41.7-26.61q2.39-.87,4.81-1.64a115.66,115.66,0,0,1,105.41,18.6L786.48,464.72"/><path class="cls-7" d="M782.11,612.54a64.73,64.73,0,0,1-33.49-13.3L583.36,473.72a213.49,213.49,0,0,0-33.67-21l-4.31-2.16a65,65,0,0,0-94.08,58.13V802"/><path class="cls-7" d="M581.3,811.14V594.93L608,608.3a99.17,99.17,0,0,0,9.77,4.24"/><polyline class="cls-7" points="581.29 902.91 890.83 902.91 890.83 612.54 581.29 612.54"/><line class="cls-7" x1="837.85" y1="902.91" x2="837.85" y2="612.54"/><path class="cls-7" d="M838.4,399.14q1.07,32.83,4.2,65.58c.28,3,3.15,30.51,3.15,30.51a377.94,377.94,0,0,0,6.1,38.58c2.58,12.22,3.63,33.55-12,53.8a64.85,64.85,0,0,1-45.21,24.93"/><path class="cls-7" d="M581.3,902.91H417.85c-13.28,0-22.86-13-18.55-25.59C405.23,860.07,417,848,438,833.53c2.9-13.63,7.63-24,13.27-31.58,20.16-27.07,51.85-17.85,51.85,9.19H581.3Z"/><line class="cls-9" x1="442.5" y1="839.56" x2="463.39" y2="856.59"/><line class="cls-9" x1="452.95" y1="827.27" x2="473.84" y2="844.3"/><path class="cls-7" d="M330.78,692.41,215.2,576.84c-9.39-9.4-6.95-25.39,5-31.21,16.38-8,33.26-8.27,58.35-3.58,11.67-7.59,22.37-11.58,31.7-12.95,33.4-4.87,49.29,24,30.17,43.16l55.26,55.26Z"/><line class="cls-9" x1="277.43" y1="549.47" x2="280.16" y2="576.28"/><line class="cls-9" x1="293.5" y1="548.17" x2="296.24" y2="574.98"/><line class="cls-7" x1="496.94" y1="311.66" x2="523.11" y2="331.32"/><path class="cls-7" d="M610.34,272.2c39.17-37.5,72.75-56.91,116.74-35a60.23,60.23,0,0,0,59.91-3.7c57.53-38.12,84.23-13.28,130.55,38.73,11.86,13.32,25,28.43,40.3,44.71a48.79,48.79,0,0,1,8,55.34c-8.37,16.68-25.77,26.89-44.43,26.89H823.8"/><path class="cls-7" d="M513,295.07l-7.33-17a4.24,4.24,0,0,1,3.89-5.91H690.15a13,13,0,0,1,12,7.86l56.62,131.11H716.05"/><line class="cls-7" x1="527.92" y1="329.68" x2="512.98" y2="295.08"/><path class="cls-7" d="M758.72,411.17h55.17A10.09,10.09,0,0,0,824,401.08a10.37,10.37,0,0,0-.19-1.94,10.23,10.23,0,0,0-2.77-5.2,10,10,0,0,0-7.13-3H750"/><path class="cls-7" d="M877,319.14H788.09a46.89,46.89,0,0,0-34.6,15.24l-19,20.75"/><line class="cls-7" x1="764.06" y1="355.08" x2="744.64" y2="378.56"/><path class="cls-7" d="M786,360l-14,16.83A34.74,34.74,0,0,0,765,391"/><path class="cls-7" d="M798.83,391A11.93,11.93,0,0,0,787,380.54"/><line class="cls-7" x1="859.82" y1="319.14" x2="917.54" y2="272.2"/><path class="cls-7" d="M367.42,344.59H339a14.84,14.84,0,0,1-14-9.79l-10-27.49a15,15,0,0,1,7.79-18.71c.39-.18.79-.35,1.21-.5a15,15,0,0,1,19,8.44"/><line class="cls-7" x1="395.01" y1="344.59" x2="374.09" y2="344.59"/><path class="cls-7" d="M457.07,382.27l-41.79-31.88a28.28,28.28,0,0,0-17.16-5.8"/><path class="cls-7" d="M320,320.83H64.23C30.53,320.83,2.44,294,2,260.33a61.35,61.35,0,0,1,81.74-58.64,144.35,144.35,0,0,1,1-52.8A143,143,0,0,1,336.16,88.43"/><path class="cls-7" d="M403.07,112.73a75.8,75.8,0,0,1,42,103.76,54.46,54.46,0,0,1,75.77,55.71"/><path class="cls-7" d="M513,295.07h0a54.8,54.8,0,0,1-16,16.58l-.37.25a53.86,53.86,0,0,1-29.86,8.92h-59.3l-8.59-23.73a15,15,0,0,0-19.21-9l-.73.29a15.21,15.21,0,0,0-8.05,8.15,14.9,14.9,0,0,0-.22,10.77l9.79,27A15.54,15.54,0,0,0,395,344.59h3.11"/><path class="cls-7" d="M346.17,316.5l6.39,17.67a15.8,15.8,0,0,0,14.86,10.42h6.67"/><path class="cls-7" d="M370.83,296.54a15,15,0,0,0-19-8.44c-.33.12-.66.25-1,.39a15,15,0,0,0-8,18.82l3.32,9.19"/><path class="cls-7" d="M322.85,288.6a15.88,15.88,0,0,1,7.66,10.32c2,7.95-1.88,15.72-8.56,17.37a10.62,10.62,0,0,1-3.54.26"/><path class="cls-7" d="M350.86,288.49a15.84,15.84,0,0,1,7.88,10.43c1.95,7.95-1.88,15.72-8.57,17.37a10.61,10.61,0,0,1-4,.21h0"/><path class="cls-7" d="M378.88,288.39A15.79,15.79,0,0,1,387,298.92c1.95,7.95-1.89,15.72-8.57,17.37a10.65,10.65,0,0,1-4.49.13"/><polygon class="cls-7" points="336.15 88.43 370.36 54.17 416.02 99.73 252.37 263.71 141.81 159.37 187.4 113.66 250.81 173.93 336.15 88.43"/><rect class="cls-7" x="853.36" y="716.01" width="24.62" height="21.71"/><line class="cls-7" x1="854.58" y1="697.02" x2="877.98" y2="697.02"/><line class="cls-7" x1="854.58" y1="678.02" x2="877.98" y2="678.02"/><path class="cls-7" d="M581.3,726.68c5.39-9.47,13.38-17.19,28.69-22.64,17.65-6.28,40.67-.93,56.08-13.56,15.16-12.43,10.29-34,24-46.66,17.48-16.11,37.25-5.82,48.28-31.28"/><path class="cls-7" d="M618.87,902.91c20.8-50,76.6-60,76.6-88,0-18.54-43.32-7-43.32-29.84,0-32.17,84.07-88.6,97.49-88.6,20,0-5.68,25.48,24.81,25.48,24.91,0,40.74-38.52,63.4-58.83"/><path class="cls-7" d="M702.42,902.91c8.27-15.62,16.69-31.48,28.5-43.94C747.18,841.8,782,829.69,782,810.9c0-5.15-1.88-10.29-1.88-15.3,0-22.24,36-15.85,57.7-38.25"/><path class="cls-7" d="M777.21,902.91c8.54-39.41,37.87-18.14,60.64-30.91"/><line class="cls-7" x1="663.18" y1="178.79" x2="714.02" y2="178.79"/><path class="cls-7" d="M791,178.79h66a56.75,56.75,0,0,1-52.27-34.62,56.76,56.76,0,0,0-107.16,7.71,35.76,35.76,0,0,1-34.09,26.91"/><path class="cls-7" d="M714,178.79a37.34,37.34,0,0,1-.25-25.66c1.33.13,2.67.19,4,.19a40.83,40.83,0,0,0,30.87-14A41,41,0,0,0,793.23,162c.13,1.2.2,2.42.22,3.66A40.93,40.93,0,0,1,714,178.79Z"/><line class="cls-7" x1="786.48" y1="464.72" x2="842.6" y2="464.72"/><path d="M622.75,76.84,603.88,82a36.88,36.88,0,0,0-25.93,26l-5.09,18.82-5.12-18.82A36.86,36.86,0,0,0,541.84,82L523,76.84l18.87-5.13a36.82,36.82,0,0,0,25.9-25.92L572.86,27,578,45.79a36.84,36.84,0,0,0,25.93,25.92Z"/><path class="cls-5" d="M612.75,65.83,593.88,71A36.89,36.89,0,0,0,568,96.9l-5.09,18.82L557.74,96.9A36.86,36.86,0,0,0,531.83,71L513,65.83l18.86-5.12a36.82,36.82,0,0,0,25.91-25.92l5.12-18.85L568,34.79a36.84,36.84,0,0,0,25.93,25.92Z"/><path class="cls-7" d="M488.33,27l-9.44,2.56a18.45,18.45,0,0,0-13,13l-2.54,9.41-2.56-9.41a18.43,18.43,0,0,0-13-13L438.44,27l9.43-2.57a18.41,18.41,0,0,0,13-13L463.39,2l2.54,9.42a18.43,18.43,0,0,0,13,13Z"/></g></g></svg>