<svg xmlns="http://www.w3.org/2000/svg" xmlns:xlink="http://www.w3.org/1999/xlink" viewBox="0 0 1014.2 892.4"><defs><style>.cls-1,.cls-2,.cls-8,.cls-9{fill:none;}.cls-2,.cls-8{stroke:#000;}.cls-2,.cls-8,.cls-9{stroke-linecap:round;stroke-linejoin:round;}.cls-2{stroke-width:1.5px;}.cls-3{fill:#3496f7;}.cls-4{fill:#d3e5fb;}.cls-5{fill:#fff;}.cls-6{fill:url(#New_Pattern_4);}.cls-7{fill:url(#New_Pattern_3);}.cls-8{stroke-width:4px;}.cls-9{stroke:#fff;stroke-width:6px;}</style><pattern id="New_Pattern_4" data-name="New Pattern 4" width="70" height="50" patternTransform="translate(0 -30)" patternUnits="userSpaceOnUse" viewBox="0 0 70 50"><rect class="cls-1" width="70" height="50"/><path class="cls-2" d="M8.89,100c-.05-7.08.29-14.17.29-21.25,0-4.32-.37-17.48-.29-28.09"/><path class="cls-2" d="M22.94,99.84c0-1.65.09-3.31.09-5,0-2.48-.21-5-.21-7.45s0-3.83.05-7.28c0-1.44-.06-2.9-.06-4.35,0-3.1.31-4.62.31-7.37,0-1.4-.27-4.94-.27-8.33q0-1.61.09-3.21V50.11"/><path class="cls-2" d="M36.74,99.84c0-9.46.33-18.09.33-27.56,0-3.7-.15-7.46-.15-11.2,0-3.35-.1-7.29-.18-10.75"/><path class="cls-2" d="M50.93,99.75c0-1.24-.07-2.75-.07-4,0-1.92,0-3.86,0-5.79,0-3.87,0-7.66,0-11.51a8.42,8.42,0,0,1-.08-1.22c0-.32.18-6.68.18-8,0-2.2-.21-3.25-.21-5.64,0-1.3.06-2.65.17-3.86,0-2.89,0-5.89,0-9.05"/><path class="cls-2" d="M65,99.71c0-8.34-.55-15.73-.36-24.06.18-8.13.16-17.71.36-25.19"/><path class="cls-2" d="M8.89,50c-.05-7.08.29-14.17.29-21.25,0-4.32-.37-17.48-.29-28.09"/><path class="cls-2" d="M22.94,49.84c0-1.65.09-3.31.09-5,0-2.48-.21-5-.21-7.45s0-3.83.05-7.28c0-1.44-.06-2.9-.06-4.35,0-3.1.31-4.62.31-7.37,0-1.4-.27-4.94-.27-8.33q0-1.6.09-3.21V.11"/><path class="cls-2" d="M36.74,49.84c0-9.46.33-18.09.33-27.56,0-3.7-.15-7.46-.15-11.2,0-3.35-.1-7.29-.18-10.75"/><path class="cls-2" d="M50.93,49.75c0-1.24-.07-2.75-.07-4,0-1.92,0-3.86,0-5.79,0-3.87,0-7.66,0-11.51a8.42,8.42,0,0,1-.08-1.22c0-.32.18-6.68.18-8,0-2.2-.21-3.25-.21-5.64,0-1.3.06-2.65.17-3.86,0-2.89,0-5.89,0-9"/><path class="cls-2" d="M65,49.71c0-8.34-.55-15.73-.36-24.06.18-8.13.16-17.71.36-25.19"/><path class="cls-2" d="M8.89,0c-.05-7.08.29-14.17.29-21.25,0-4.32-.37-17.48-.29-28.09"/><path class="cls-2" d="M22.94-.16c0-1.65.09-3.31.09-5,0-2.48-.21-5-.21-7.45s0-3.83.05-7.28c0-1.44-.06-2.9-.06-4.35,0-3.1.31-4.62.31-7.37,0-1.4-.27-4.94-.27-8.33q0-1.61.09-3.21v-6.71"/><path class="cls-2" d="M36.74-.16c0-9.46.33-18.09.33-27.56,0-3.7-.15-7.46-.15-11.2,0-3.35-.1-7.29-.18-10.75"/><path class="cls-2" d="M50.93-.25c0-1.24-.07-2.75-.07-4,0-1.92,0-3.86,0-5.79,0-3.87,0-7.66,0-11.51a8.42,8.42,0,0,1-.08-1.22c0-.32.18-6.68.18-8,0-2.2-.21-3.25-.21-5.64,0-1.3.06-2.65.17-3.86,0-2.89,0-5.89,0-9.05"/><path class="cls-2" d="M65-.29c0-8.34-.55-15.73-.36-24.06.18-8.13.16-17.71.36-25.19"/></pattern><pattern id="New_Pattern_3" data-name="New Pattern 3" width="40" height="40" patternTransform="translate(0 -30)" patternUnits="userSpaceOnUse" viewBox="0 0 40 40"><rect class="cls-1" width="40" height="40"/><path d="M36.18,30a1.9,1.9,0,0,0,1.91,1.91V28.09A1.9,1.9,0,0,0,36.18,30Z"/><path d="M40,33.82a1.9,1.9,0,0,0,1.91-1.91H38.09A1.9,1.9,0,0,0,40,33.82Z"/><path d="M40,26.18a1.9,1.9,0,0,0-1.91,1.91h3.82A1.9,1.9,0,0,0,40,26.18Z"/><path d="M16.18,40a1.9,1.9,0,0,0,1.91,1.91V38.09A1.9,1.9,0,0,0,16.18,40Z"/><path d="M21.91,38.09v3.82a1.91,1.91,0,0,0,0-3.82Z"/><path d="M20,36.18a1.9,1.9,0,0,0-1.91,1.91h3.82A1.9,1.9,0,0,0,20,36.18Z"/><path d="M1.91,28.09v3.82a1.91,1.91,0,0,0,0-3.82Z"/><path d="M36.18,10a1.9,1.9,0,0,0,1.91,1.91V8.09A1.9,1.9,0,0,0,36.18,10Z"/><path d="M40,13.82a1.9,1.9,0,0,0,1.91-1.91H38.09A1.9,1.9,0,0,0,40,13.82Z"/><path d="M40,6.18a1.9,1.9,0,0,0-1.91,1.91h3.82A1.9,1.9,0,0,0,40,6.18Z"/><path d="M18.79,16.37a1.92,1.92,0,0,0-1.21,2.42l3.63-1.21A1.92,1.92,0,0,0,18.79,16.37Z"/><path d="M22.42,21.21l-3.63,1.21a1.91,1.91,0,0,0,3.63-1.21Z"/><path d="M16.37,21.21a1.92,1.92,0,0,0,2.42,1.21l-1.21-3.63A1.92,1.92,0,0,0,16.37,21.21Z"/><path d="M23.63,18.79a1.92,1.92,0,0,0-2.42-1.21l1.21,3.63A1.92,1.92,0,0,0,23.63,18.79Z"/><path d="M1.91,8.09v3.82a1.91,1.91,0,0,0,0-3.82Z"/><path d="M20,3.82a1.9,1.9,0,0,0,1.91-1.91H18.09A1.9,1.9,0,0,0,20,3.82Z"/><path d="M0,33.82a1.9,1.9,0,0,0,1.91-1.91H-1.91A1.9,1.9,0,0,0,0,33.82Z"/><path d="M0,26.18a1.9,1.9,0,0,0-1.91,1.91H1.91A1.9,1.9,0,0,0,0,26.18Z"/><path d="M0,13.82a1.9,1.9,0,0,0,1.91-1.91H-1.91A1.9,1.9,0,0,0,0,13.82Z"/><path d="M0,6.18A1.9,1.9,0,0,0-1.91,8.09H1.91A1.9,1.9,0,0,0,0,6.18Z"/><path d="M16.18,0a1.9,1.9,0,0,0,1.91,1.91V-1.91A1.9,1.9,0,0,0,16.18,0Z"/><path d="M21.91-1.91V1.91A1.9,1.9,0,0,0,23.82,0,1.9,1.9,0,0,0,21.91-1.91Z"/></pattern></defs><g id="Layer_2" data-name="Layer 2"><g id="illustrations"><polygon class="cls-3" points="564.62 129.98 577.71 101.58 590.8 129.98 564.62 129.98"/><path class="cls-3" d="M690.43,148.46a20.37,20.37,0,0,0,12.89,19l-9.77,11.43H401.79V63.39H714.88v65.09a21,21,0,0,0-4.07-.4A20.38,20.38,0,0,0,690.43,148.46ZM503.28,130l-13.09-28.4L477.1,130Zm87.52,0-13.09-28.4L564.61,130Z"/><polygon class="cls-3" points="503.28 129.98 477.1 129.98 490.19 101.58 503.28 129.98"/><path class="cls-4" d="M889,556.43l-6.16,4.71a15.77,15.77,0,0,1-25.32-11.64,15.44,15.44,0,0,1,1.09-6.68c2.31,4.36,9.51,5.66,16.53,2.84,7.34-2.95,11.71-9.27,9.77-14.11-1.23-3-4.63-4.79-8.83-4.94l9.22-7.05a16.21,16.21,0,0,1,3.59-2.07,15.79,15.79,0,0,1,18.52,5c.54,1,1.15,2,1.81,3,5.15,8.21,13.45,19,19.56,26.64a43.52,43.52,0,0,0-18.17,18.58C904.39,566.69,897,561.82,889,556.43Z"/><path class="cls-5" d="M175.51,456.21l9.7,6.67a16.63,16.63,0,0,1-15.64,11,16.43,16.43,0,0,1-7.66-1.87l-3.37-2.33a16.44,16.44,0,0,1-5-7.89,15,15,0,0,1,21.93-5.56Z"/><path class="cls-5" d="M153.58,461.77a16.44,16.44,0,0,0,5,7.89l-6.25-4.29A14.76,14.76,0,0,1,153.58,461.77Z"/><path class="cls-4" d="M770.5,616.31l62.38-70.73h0a14.5,14.5,0,0,0,1.26,1.93,15.78,15.78,0,0,0,22.1,3l1.26-1a15.77,15.77,0,0,0,25.32,11.64l6.16-4.71c8,5.39,15.4,10.26,21.61,14.31a43.52,43.52,0,0,1,18.17-18.58c1.17-.63,2.34-1.21,3.5-1.73a18.34,18.34,0,0,1,25.52,14.1s11.86,78.52,11.94,79.6a44.25,44.25,0,0,1-44.11,47.8,46.74,46.74,0,0,1-14.45-2.18,537.39,537.39,0,0,1-54.32-20.16C824.19,655.24,796.69,638.27,770.5,616.31Z"/><path class="cls-5" d="M950.44,749.91a70.52,70.52,0,1,1-79.26,70.73H980.8Z"/><path class="cls-6" d="M950.44,749.91a70.52,70.52,0,1,1-79.26,70.73H980.8Z"/><path d="M950.44,749.91l30.36,70.73H871.18c0-.25,0-.5,0-.75a70.56,70.56,0,0,1,79.27-70Z"/><path class="cls-5" d="M770.5,616.31c26.19,22,53.69,38.93,86.35,53.28H712.13C677,594,657.38,547.38,654.43,477.3A74.67,74.67,0,0,1,762,407.18a344,344,0,0,1,39,22.94A46.22,46.22,0,0,0,840.47,436c19.45-6.05,55.29-2.59,105.32,62.06,73.76,95.33,68.77,141.7,23.94,146.09-.08-1.08-.2-2.17-.37-3.25l-11.57-76.35a18.34,18.34,0,0,0-25.52-14.1c-1.16.52-2.33,1.1-3.5,1.73-6.11-7.65-14.41-18.43-19.56-26.64a15.79,15.79,0,0,0-20.33-8,15.77,15.77,0,0,0-25.34-12.3l-3.45,2.64a15.77,15.77,0,0,0-25-15.69L818.26,505a15.77,15.77,0,0,0,13.51,27.8,15.7,15.7,0,0,0,1.12,12.79h0Z"/><path class="cls-3" d="M925.62,692.09l24.82,57.82a70.56,70.56,0,0,0-79.27,70c0,.25,0,.5,0,.75H756v-59h5.77A53.33,53.33,0,0,0,815,711.4l2.44-41.81h39.4a537.39,537.39,0,0,0,54.32,20.16,46.74,46.74,0,0,0,14.45,2.18Z"/><path class="cls-5" d="M907.4,522.51a15.82,15.82,0,0,1,1.81,3C908.55,524.47,907.94,523.46,907.4,522.51Z"/><path class="cls-4" d="M858.6,542.82a15.44,15.44,0,0,0-1.09,6.68l-1.26,1a15.78,15.78,0,0,1-22.1-3,14.5,14.5,0,0,1-1.26-1.93,15.82,15.82,0,0,1-1.12-12.79,14.65,14.65,0,0,1,.93-2.16c2,4.73,9.5,6.21,16.76,3.3s11.71-9.26,9.76-14.11c-1.17-2.94-4.4-4.66-8.39-4.91l12.71-9.72a15.77,15.77,0,0,1,25.34,12.3,16.21,16.21,0,0,0-3.59,2.07l-9.22,7.05h0l-12.38,9.47A15.53,15.53,0,0,0,858.6,542.82Z"/><path class="cls-5" d="M884.9,531.55c1.94,4.84-2.43,11.16-9.77,14.11-7,2.82-14.22,1.52-16.53-2.84a15.53,15.53,0,0,1,5.08-6.74l12.38-9.47h0C880.27,526.76,883.67,528.5,884.9,531.55Z"/><path class="cls-4" d="M832.7,530.63a14.65,14.65,0,0,0-.93,2.16,15.76,15.76,0,0,1-19.66-16.38c3.06,3,9.26,3.66,15.32,1.23,7.34-2.94,11.72-9.26,9.77-14.11-1.39-3.47-5.63-5.24-10.62-4.9l8.48-6.49a15.77,15.77,0,0,1,25,15.69l-23,17.57A15.67,15.67,0,0,0,832.7,530.63Z"/><path class="cls-5" d="M859.22,519.82c1.95,4.85-2.42,11.16-9.76,14.11s-14.72,1.43-16.76-3.3a15.55,15.55,0,0,1,4.4-5.23l13.73-10.49C854.82,515.16,858.05,516.88,859.22,519.82Z"/><path d="M836.24,284.18c16.43,24.49,3.69,90.41,3.69,90.41H762.7l31.48-87.11H721.7C749.16,241.36,807.5,241.37,836.24,284.18Z"/><path class="cls-5" d="M837.2,503.53c1.95,4.85-2.43,11.17-9.77,14.11-6.06,2.43-12.26,1.8-15.32-1.23A15.74,15.74,0,0,1,818.26,505l8.32-6.36C831.57,498.29,835.81,500.06,837.2,503.53Z"/><path class="cls-3" d="M817.45,669.59,815,711.4a53.33,53.33,0,0,1-53.24,50.21H704.89q-.27-5.62-.27-11.31c0-20.61,2.6-61.62,7.51-80.71Z"/><path class="cls-5" d="M794.18,287.48l-27.1,75a53,53,0,0,1-29.4-75Z"/><path d="M767.08,362.47H707.43s18.53-15.05,25.14-39.3A53.09,53.09,0,0,0,767.08,362.47Z"/><path class="cls-4" d="M718.3,167.42l38.14,44.65H665.17l38.15-44.65a20.28,20.28,0,0,0,7.49,1.42,20,20,0,0,0,7.49-1.43Z"/><path class="cls-3" d="M714.94,820a239.69,239.69,0,0,1-10.05-58.43H756v59H715.12Z"/><path class="cls-5" d="M714.88,128.48a20.38,20.38,0,0,1,3.42,38.93,20,20,0,0,1-7.49,1.43,20.38,20.38,0,0,1,0-40.76A21,21,0,0,1,714.88,128.48Z"/><path class="cls-5" d="M704.89,761.61A237.72,237.72,0,0,0,714.94,820H386.39l-22-113.81h0L355.58,661A56.22,56.22,0,0,0,407,623c10.47-30.71,15.17-59.74,18-88.94,3.43-35.38,4.1-71,9-110.17,1.78-14.33-3.46-29.35-12.7-41.95A222,222,0,0,1,446.46,367c23.73-12,52.16-7.47,72,10.19a74.23,74.23,0,0,0,87.91,7.93C629.05,371.26,657.82,372,679,388a221.72,221.72,0,0,1,20.52,17.56h0a74.68,74.68,0,0,0-45.1,71.72c3,70.08,22.58,116.69,57.7,192.29-4.91,19.09-7.51,60.1-7.51,80.71Q704.62,756,704.89,761.61Zm-67-161.35a91.4,91.4,0,1,0-91.4,91.4A91.4,91.4,0,0,0,637.92,600.26Z"/><path class="cls-5" d="M550.76,247.51A49.51,49.51,0,1,1,501.25,297,49.5,49.5,0,0,1,550.76,247.51Z"/><path class="cls-7" d="M704.89,761.61A237.72,237.72,0,0,0,714.94,820H386.39l-22-113.81h0L355.58,661A56.22,56.22,0,0,0,407,623c10.47-30.71,15.17-59.74,18-88.94,3.43-35.38,4.1-71,9-110.17,1.78-14.33-3.46-29.35-12.7-41.95A222,222,0,0,1,446.46,367c23.73-12,52.16-7.47,72,10.19a74.23,74.23,0,0,0,87.91,7.93C629.05,371.26,657.82,372,679,388a221.72,221.72,0,0,1,20.52,17.56h0a74.68,74.68,0,0,0-45.1,71.72c3,70.08,22.58,116.69,57.7,192.29-4.91,19.09-7.51,60.1-7.51,80.71Q704.62,756,704.89,761.61Zm-67-161.35a91.4,91.4,0,1,0-91.4,91.4A91.4,91.4,0,0,0,637.92,600.26Z"/><path d="M546.52,508.86a91.4,91.4,0,1,1-91.4,91.4A91.4,91.4,0,0,1,546.52,508.86Zm30.23,64.94v-.07a28.93,28.93,0,0,0-3.56-14.79,23.1,23.1,0,0,0-10.38-9.36,38.06,38.06,0,0,0-16.37-3.22A32.81,32.81,0,0,0,530.63,550a25,25,0,0,0-10.31,10.46,37.64,37.64,0,0,0-4,16.55V577h20.84V577q.07-5.51,2.53-8.55a8.34,8.34,0,0,1,6.87-3,8.8,8.8,0,0,1,6.93,2.76q2.46,2.75,2.46,7.74v.07a17.74,17.74,0,0,1-1.21,6.64,28,28,0,0,1-3,5.58q-1.77,2.54-4.92,6.2-4,4.7-6.39,8.22a34.55,34.55,0,0,0-4.1,8.51,35.1,35.1,0,0,0-1.69,11.31h20.11a24.73,24.73,0,0,1,1.39-8.48,30.14,30.14,0,0,1,3.41-6.79c1.35-2,3.22-4.38,5.62-7.26a94.58,94.58,0,0,0,6.12-7.89,33.59,33.59,0,0,0,3.89-8A30.76,30.76,0,0,0,576.75,573.8Zm-21.94,80.36V634.05H534.7v20.11Z"/><polygon class="cls-5" points="558.33 2 608.67 63.39 508 63.39 558.33 2"/><path class="cls-7" d="M550.76,247.51A49.51,49.51,0,1,1,501.25,297,49.5,49.5,0,0,1,550.76,247.51Z"/><path class="cls-5" d="M576.75,573.73v.07a30.76,30.76,0,0,1-1.58,10.2,33.59,33.59,0,0,1-3.89,8,94.58,94.58,0,0,1-6.12,7.89c-2.4,2.88-4.27,5.31-5.62,7.26a30.14,30.14,0,0,0-3.41,6.79,24.73,24.73,0,0,0-1.39,8.48H534.63a35.1,35.1,0,0,1,1.69-11.31,34.55,34.55,0,0,1,4.1-8.51q2.43-3.52,6.39-8.22,3.15-3.66,4.92-6.2a28,28,0,0,0,3-5.58,17.74,17.74,0,0,0,1.21-6.64v-.07q0-5-2.46-7.74a8.8,8.8,0,0,0-6.93-2.76,8.34,8.34,0,0,0-6.87,3q-2.46,3-2.53,8.55V577H516.28V577a37.64,37.64,0,0,1,4-16.55A25,25,0,0,1,530.63,550a32.81,32.81,0,0,1,15.81-3.59,38.06,38.06,0,0,1,16.37,3.22,23.1,23.1,0,0,1,10.38,9.36A28.93,28.93,0,0,1,576.75,573.73Z"/><rect class="cls-5" x="534.7" y="634.05" width="20.11" height="20.11"/><path d="M423.84,234.88l15,17.59h-36l15-17.59a8.05,8.05,0,0,0,5.9,0Z"/><path class="cls-4" d="M320.36,486.81c-18.53,2.6-73.6,11.34-81.88,12.72l-63-43.32a15,15,0,0,0-21.93,5.56,14.76,14.76,0,0,0-1.29,3.6l-5.71-3.93A15.06,15.06,0,0,0,124.64,467h0a15.09,15.09,0,0,0,.09,13.81h0A15,15,0,0,0,111.81,485h0L46.42,471.82C62,447,102.68,388.45,168.31,337.08c24.66-19.3,63.3-10.88,77.65,12.43a61,61,0,0,0,92.32,13.81c26.68-23.56,63.59-7.81,83,18.57,9.24,12.6,14.48,27.62,12.7,41.95-4.88,39.17-5.55,74.79-9,110.17l-111.4-20.22Z"/><path class="cls-5" d="M420.89,219.38a8,8,0,1,1-8,8A8,8,0,0,1,420.89,219.38Z"/><path class="cls-5" d="M313.55,513.79,425,534c-2.82,29.2-7.52,58.23-18,88.94a56.14,56.14,0,0,1-66.07,36.55c-9.81-2.32-19.48-4.73-29.13-7.29-34.58-9.16-68.84-20.12-108-34.58l20.8-4.6C273.3,602.2,303.62,553.39,313.55,513.79Z"/><path class="cls-3" d="M364.35,706.23l22,113.81H259.8l-25-95.87V820H201.9a147.76,147.76,0,0,0-93.73-96.64V637.25c22.2-4.65,30.81-5,59.5-11.72l36.13-7.9c39.12,14.46,73.38,25.42,108,34.58a55.52,55.52,0,0,0,52.58,54Z"/><path class="cls-3" d="M355.58,661l8.76,45.25a55.52,55.52,0,0,1-52.58-54c9.65,2.56,19.32,5,29.13,7.29A56.33,56.33,0,0,0,355.58,661Z"/><path class="cls-3" d="M323,125.17l26.21,30.68H286.51l26.21-30.68a14,14,0,0,0,10.3,0Z"/><path class="cls-5" d="M324.26,253.93a47.12,47.12,0,1,1-54.32,75.31,31.28,31.28,0,0,0,10.61-37.87A82.12,82.12,0,0,0,324.26,253.93Z"/><path d="M329.67,237A26,26,0,0,1,327.21,248a26.32,26.32,0,0,1-3.56,5.6c.2.1.41.19.61.3a82.12,82.12,0,0,1-43.71,37.44,31.28,31.28,0,0,1-10.61,37.87,47.13,47.13,0,0,1,13.54-75.56A26.13,26.13,0,1,1,329.67,237Z"/><path class="cls-5" d="M317.87,98.14a14,14,0,1,1-14,14A14,14,0,0,1,317.87,98.14Z"/><path class="cls-5" d="M327.21,248c-.9,2-1.89,4-2.95,5.9-.2-.11-.41-.2-.61-.3A26.32,26.32,0,0,0,327.21,248Z"/><path class="cls-5" d="M127.72,521.43c12.44-3.15,26.4-6.33,44.22-9.89,10.83-2.16,83.65-14.85,93.09-16.37,18.42-2.93,36.8-5.76,55.33-8.36l-6.81,27c-9.93,39.6-40.25,88.41-89,99.24l-56.93,12.5c-28.69,6.67-37.3,7.07-59.5,11.72-5.47,1.15-20.87,4.63-23.35,5.16C36.12,652.8-8.46,607.24,4.17,557.19c3.52-14,27.83-60.65,35-73.15,0,0,2.43-4.49,7.28-12.22L111.8,485h0a4.89,4.89,0,0,0-.4.39,14.74,14.74,0,0,0-2.46,3.49A15,15,0,0,0,112,506.63Z"/><path class="cls-5" d="M185.21,462.88l53.27,36.65c-10.6,1.78-20.3,3.45-29.23,5h0L161.91,472a16.43,16.43,0,0,0,7.66,1.87A16.63,16.63,0,0,0,185.21,462.88Z"/><path class="cls-5" d="M209.25,504.55h0c-14.22,2.52-26.48,4.82-37.31,7l-41.06-28.25a14.86,14.86,0,0,0-6.15-2.45h0a15.09,15.09,0,0,1-.09-13.81,16.63,16.63,0,0,0,31.64,1.09l2.26,1.55a16,16,0,0,0,3.37,2.33Z"/><path class="cls-4" d="M208.28,863.06H156.87a95.56,95.56,0,0,0-10.16-43H201.9A147.25,147.25,0,0,1,208.28,863.06Z"/><path d="M201.9,820H146.71a96.3,96.3,0,0,0-38.54-40.54V723.4A147.76,147.76,0,0,1,201.9,820Z"/><path class="cls-5" d="M140.58,490l31.36,21.57c-17.82,3.56-31.78,6.74-44.22,9.89L112,506.63A15,15,0,0,1,109,488.86,16.62,16.62,0,0,0,140.58,490Z"/><path class="cls-5" d="M158.54,469.66l3.37,2.33A16,16,0,0,1,158.54,469.66Z"/><path class="cls-5" d="M152.29,465.37l4,2.74A16.63,16.63,0,0,1,124.64,467h0a15.06,15.06,0,0,1,21.94-5.57Z"/><path class="cls-3" d="M146.71,820H108.17V779.5A96.3,96.3,0,0,1,146.71,820Z"/><path class="cls-5" d="M130.88,483.29l9.7,6.68A16.62,16.62,0,0,1,109,488.86a14.74,14.74,0,0,1,2.46-3.49,4.89,4.89,0,0,1,.4-.39,15.05,15.05,0,0,1,19.07-1.69Z"/><path class="cls-4" d="M108.17,723.4v56.1a95.49,95.49,0,0,0-47.31-12.45V715.64A147.2,147.2,0,0,1,108.17,723.4Z"/><path class="cls-8" d="M329.5,450.56l-15.95,63.23c-9.93,39.6-40.25,88.41-89,99.24l-56.93,12.5c-28.69,6.67-37.3,7.06-59.5,11.72-5.47,1.15-20.87,4.63-23.35,5.16C36.12,652.8-8.46,607.24,4.17,557.19c3.52-14,27.83-60.65,35-73.15,0,0,2.43-4.49,7.28-12.22C62,447,102.68,388.45,168.31,337.08c24.66-19.3,63.3-10.88,77.65,12.43a61,61,0,0,0,92.32,13.81c26.68-23.56,63.59-7.81,83,18.57,9.24,12.6,14.48,27.62,12.7,41.95-4.88,39.17-5.56,74.79-9,110.17-2.83,29.2-7.52,58.23-18,88.94a56.14,56.14,0,0,1-66.07,36.55c-9.81-2.32-19.48-4.73-29.13-7.29-34.58-9.17-68.84-20.12-108-34.58"/><path class="cls-8" d="M320.36,486.81c-18.53,2.6-102.18,16.17-111.11,17.75-14.22,2.52-26.48,4.82-37.31,7-17.82,3.56-31.78,6.74-44.22,9.89C105.66,527,88.4,532.55,62.89,539.94"/><line class="cls-8" x1="313.55" y1="513.79" x2="424.95" y2="534.01"/><path class="cls-8" d="M127.73,521.44,112,506.63A15.06,15.06,0,0,1,109,488.86a14.74,14.74,0,0,1,2.46-3.49,4.89,4.89,0,0,1,.4-.39,15.05,15.05,0,0,1,19.07-1.69l41.06,28.25"/><path class="cls-8" d="M109,488.86A16.62,16.62,0,0,0,140.58,490"/><path class="cls-8" d="M124.64,467a16.63,16.63,0,0,0,31.64,1.09"/><path class="cls-8" d="M152.29,465.37a14.76,14.76,0,0,1,1.29-3.6,15,15,0,0,1,21.93-5.56l63,43.32"/><path class="cls-8" d="M124.73,480.83a15.09,15.09,0,0,1-.09-13.81h0a15.06,15.06,0,0,1,21.94-5.57l62.67,43.11"/><path class="cls-8" d="M153.58,461.77a16.56,16.56,0,0,0,5,7.89,16.33,16.33,0,0,0,3.37,2.33,16.63,16.63,0,0,0,23.3-9.11"/><line class="cls-8" x1="46.42" y1="471.82" x2="111.8" y2="484.97"/><line class="cls-8" x1="167.02" y1="453.56" x2="175.33" y2="429.72"/><path class="cls-8" d="M269.94,329.24a31.28,31.28,0,0,0,10.61-37.87,82.12,82.12,0,0,0,43.71-37.44c1.06-1.92,2-3.9,2.95-5.9l.24-.52"/><path class="cls-8" d="M324.26,253.93c-.2-.11-.41-.2-.61-.3a26.32,26.32,0,0,0,3.56-5.6,26.13,26.13,0,1,0-43.73,5.65,47.12,47.12,0,1,0,67.26,42.61C350.74,277.67,339.75,262,324.26,253.93Z"/><line class="cls-8" x1="364.34" y1="706.23" x2="355.58" y2="660.98"/><polyline class="cls-8" points="108.17 637.25 108.17 820.04 234.79 820.04 234.79 724.17 259.8 820.04 386.39 820.04 364.35 706.23"/><path class="cls-8" d="M311.76,652.21a55.52,55.52,0,0,0,52.58,54h0"/><path class="cls-8" d="M925.62,692.09,980.8,820.64H715.12l-.18-.6a240.65,240.65,0,0,1-10.05-58.43q-.27-5.62-.27-11.31c0-20.61,2.6-61.62,7.51-80.71C677,594,657.38,547.38,654.43,477.3A74.67,74.67,0,0,1,762,407.18a344,344,0,0,1,39,22.94A46.22,46.22,0,0,0,840.47,436c19.45-6.05,55.29-2.59,105.32,62.06,73.76,95.33,68.77,141.7,23.94,146.09"/><path class="cls-8" d="M687.67,527.67c29.15,36.9,55.27,65.53,82.83,88.64,26.19,22,53.69,38.93,86.35,53.28a537.39,537.39,0,0,0,54.32,20.16,47,47,0,0,0,14.45,2.18,44.25,44.25,0,0,0,44.11-47.8c-.08-1.08-.2-2.17-.37-3.25l-11.57-76.35a18.34,18.34,0,0,0-25.52-14.1c-1.16.52-2.33,1.1-3.5,1.73a43.35,43.35,0,0,0-18.17,18.58"/><path class="cls-8" d="M790,479.8c6.31,7.21,16.24,16,28,25.43"/><path class="cls-8" d="M857.51,549.5l-1.26,1a15.78,15.78,0,0,1-22.1-3,14.5,14.5,0,0,1-1.26-1.93,15.82,15.82,0,0,1-1.12-12.79,14.65,14.65,0,0,1,.93-2.16,15.67,15.67,0,0,1,4.4-5.23l26.44-20.21a15.77,15.77,0,0,1,25.34,12.3"/><path class="cls-8" d="M889,556.43c8,5.39,41,26.79,41,26.79"/><path class="cls-8" d="M860.09,507.83a15.77,15.77,0,0,0-25-15.69L818.26,505a15.77,15.77,0,0,0,13.51,27.8"/><path class="cls-8" d="M876.07,526.61l9.22-7.05a16.21,16.21,0,0,1,3.59-2.07,15.79,15.79,0,0,1,20.33,8"/><path class="cls-8" d="M903.15,545.6l-20.32,15.54a15.77,15.77,0,0,1-19.15-25.06l12.38-9.47"/><path class="cls-8" d="M907.4,522.51c.54,1,1.15,2,1.81,3,5.15,8.21,13.45,19,19.56,26.64"/><path class="cls-8" d="M826.58,498.63c5-.34,9.23,1.43,10.62,4.9,1.95,4.85-2.43,11.17-9.77,14.11-6.06,2.43-12.26,1.8-15.32-1.23"/><path class="cls-8" d="M850.83,514.91c4,.25,7.22,2,8.39,4.91,1.95,4.85-2.42,11.16-9.76,14.11s-14.72,1.43-16.76-3.3h0"/><path class="cls-8" d="M876.06,526.61h0c4.2.15,7.6,1.89,8.83,4.94,1.94,4.84-2.43,11.16-9.77,14.11-7,2.82-14.22,1.52-16.53-2.84a0,0,0,0,1,0,0"/><line class="cls-8" x1="770.5" y1="616.31" x2="832.88" y2="545.58"/><line class="cls-8" x1="712.13" y1="669.59" x2="856.85" y2="669.59"/><path class="cls-8" d="M704.88,761.61h56.89A53.33,53.33,0,0,0,815,711.4l2.44-41.81"/><line class="cls-8" x1="756" y1="761.61" x2="756" y2="820.64"/><line class="cls-8" x1="386.39" y1="820.04" x2="715.12" y2="820.04"/><path class="cls-8" d="M699.53,405.57A221.72,221.72,0,0,0,679,388c-21.19-16-50-16.75-72.63-2.91a74.23,74.23,0,0,1-87.91-7.93c-19.85-17.66-48.28-22.16-72-10.19a222,222,0,0,0-25.23,14.91"/><path class="cls-8" d="M600.26,297a49.51,49.51,0,1,0-49.5,49.51A49.5,49.5,0,0,0,600.26,297Z"/><path class="cls-8" d="M737.68,287.48a52.74,52.74,0,0,0-6.21,24.9,53,53,0,0,0,35.61,50.09H707.43s18.53-15.05,25.14-39.3"/><path class="cls-8" d="M721.7,287.48c27.46-46.12,85.8-46.11,114.54-3.3,16.43,24.49,3.69,90.41,3.69,90.41H762.7l31.48-87.11Z"/><polyline class="cls-8" points="693.55 178.85 401.79 178.85 401.79 63.39 714.88 63.39 714.88 128.49"/><polyline class="cls-9" points="431.84 101.58 449.87 140.71 467.91 101.58"/><line class="cls-9" x1="477.09" y1="129.98" x2="472.15" y2="140.71"/><polyline class="cls-9" points="508.22 140.71 490.19 101.58 477.1 129.98"/><line class="cls-9" x1="477.09" y1="129.98" x2="503.28" y2="129.98"/><line class="cls-9" x1="564.61" y1="129.98" x2="559.67" y2="140.71"/><polyline class="cls-9" points="595.74 140.71 577.71 101.58 564.62 129.98"/><line class="cls-9" x1="564.61" y1="129.98" x2="590.8" y2="129.98"/><path class="cls-9" d="M548.52,108.51a19.57,19.57,0,1,0,.49,24.65"/><polyline class="cls-9" points="608.72 140.71 608.72 101.58 639.71 140.71 639.71 101.58"/><line class="cls-9" x1="650.43" y1="101.58" x2="678.53" y2="101.58"/><line class="cls-9" x1="664.89" y1="101.58" x2="664.89" y2="140.71"/><path class="cls-8" d="M323,125.17a14,14,0,1,0-5.15,1A14,14,0,0,0,323,125.17Z"/><polyline class="cls-8" points="312.72 125.17 286.51 155.85 349.23 155.85 323.02 125.17"/><path class="cls-8" d="M718.3,167.41a20.38,20.38,0,0,0-3.42-38.93,21,21,0,0,0-4.07-.4,20.38,20.38,0,1,0,7.49,39.33Z"/><polyline class="cls-8" points="703.32 167.42 665.17 212.07 756.44 212.07 718.3 167.42"/><path class="cls-8" d="M423.84,234.88a8.05,8.05,0,1,0-2.95.56A8,8,0,0,0,423.84,234.88Z"/><polyline class="cls-8" points="417.94 234.88 402.91 252.47 438.87 252.47 423.84 234.88"/><polyline class="cls-8" points="508 63.39 558.33 2 608.67 63.39"/><circle class="cls-8" cx="546.52" cy="600.26" r="91.4"/><path class="cls-8" d="M536.32,611.08a34.55,34.55,0,0,1,4.1-8.51q2.43-3.52,6.39-8.22,3.15-3.66,4.92-6.2a28,28,0,0,0,3-5.58,17.74,17.74,0,0,0,1.21-6.64v-.07q0-5-2.46-7.74a8.8,8.8,0,0,0-6.93-2.76,8.34,8.34,0,0,0-6.87,3q-2.46,3-2.53,8.55V577H516.28V577a37.64,37.64,0,0,1,4-16.55A25,25,0,0,1,530.63,550a32.81,32.81,0,0,1,15.81-3.59,38.06,38.06,0,0,1,16.37,3.22,23.1,23.1,0,0,1,10.38,9.36,28.93,28.93,0,0,1,3.56,14.79v.07a30.76,30.76,0,0,1-1.58,10.2,33.59,33.59,0,0,1-3.89,8,94.58,94.58,0,0,1-6.12,7.89c-2.4,2.88-4.27,5.31-5.62,7.26a30.14,30.14,0,0,0-3.41,6.79,24.73,24.73,0,0,0-1.39,8.48H534.63A35.1,35.1,0,0,1,536.32,611.08Z"/><rect class="cls-8" x="534.7" y="634.05" width="20.11" height="20.11"/><path class="cls-8" d="M871.18,820.64c1,38.59,31.81,69.76,70.5,69.76a70.52,70.52,0,1,0-70.51-70.51C871.17,820.14,871.17,820.39,871.18,820.64Z"/><path class="cls-8" d="M108.17,779.5a95.49,95.49,0,0,0-47.31-12.45V715.64A147.28,147.28,0,0,1,208.28,863.06H156.87a95.69,95.69,0,0,0-10.16-43A96.42,96.42,0,0,0,108.17,779.5Z"/></g></g></svg>