<svg xmlns="http://www.w3.org/2000/svg" xmlns:xlink="http://www.w3.org/1999/xlink" viewBox="0 0 914.83 906.03"><defs><style>.cls-1,.cls-2,.cls-8{fill:none;}.cls-2,.cls-8{stroke:#000;stroke-linecap:round;stroke-linejoin:round;}.cls-2{stroke-width:1.5px;}.cls-3{fill:#3496f7;}.cls-4{fill:#d3e5fb;}.cls-5{fill:#fff;}.cls-6{fill:url(#New_Pattern_3);}.cls-7{fill:url(#New_Pattern_4);}.cls-8{stroke-width:4px;}</style><pattern id="New_Pattern_3" data-name="New Pattern 3" width="40" height="40" patternTransform="translate(-28.79 -94.27) scale(1.05)" patternUnits="userSpaceOnUse" viewBox="0 0 40 40"><rect class="cls-1" width="40" height="40"/><path d="M36.18,30a1.9,1.9,0,0,0,1.91,1.91V28.09A1.9,1.9,0,0,0,36.18,30Z"/><path d="M40,33.82a1.9,1.9,0,0,0,1.91-1.91H38.09A1.9,1.9,0,0,0,40,33.82Z"/><path d="M40,26.18a1.9,1.9,0,0,0-1.91,1.91h3.82A1.9,1.9,0,0,0,40,26.18Z"/><path d="M16.18,40a1.9,1.9,0,0,0,1.91,1.91V38.09A1.9,1.9,0,0,0,16.18,40Z"/><path d="M21.91,38.09v3.82a1.91,1.91,0,0,0,0-3.82Z"/><path d="M20,36.18a1.9,1.9,0,0,0-1.91,1.91h3.82A1.9,1.9,0,0,0,20,36.18Z"/><path d="M1.91,28.09v3.82a1.91,1.91,0,0,0,0-3.82Z"/><path d="M36.18,10a1.9,1.9,0,0,0,1.91,1.91V8.09A1.9,1.9,0,0,0,36.18,10Z"/><path d="M40,13.82a1.9,1.9,0,0,0,1.91-1.91H38.09A1.9,1.9,0,0,0,40,13.82Z"/><path d="M40,6.18a1.9,1.9,0,0,0-1.91,1.91h3.82A1.9,1.9,0,0,0,40,6.18Z"/><path d="M18.79,16.37a1.92,1.92,0,0,0-1.21,2.42l3.63-1.21A1.92,1.92,0,0,0,18.79,16.37Z"/><path d="M22.42,21.21l-3.63,1.21a1.91,1.91,0,0,0,3.63-1.21Z"/><path d="M16.37,21.21a1.92,1.92,0,0,0,2.42,1.21l-1.21-3.63A1.92,1.92,0,0,0,16.37,21.21Z"/><path d="M23.63,18.79a1.92,1.92,0,0,0-2.42-1.21l1.21,3.63A1.92,1.92,0,0,0,23.63,18.79Z"/><path d="M1.91,8.09v3.82a1.91,1.91,0,0,0,0-3.82Z"/><path d="M20,3.82a1.9,1.9,0,0,0,1.91-1.91H18.09A1.9,1.9,0,0,0,20,3.82Z"/><path d="M0,33.82a1.9,1.9,0,0,0,1.91-1.91H-1.91A1.9,1.9,0,0,0,0,33.82Z"/><path d="M0,26.18a1.9,1.9,0,0,0-1.91,1.91H1.91A1.9,1.9,0,0,0,0,26.18Z"/><path d="M0,13.82a1.9,1.9,0,0,0,1.91-1.91H-1.91A1.9,1.9,0,0,0,0,13.82Z"/><path d="M0,6.18A1.9,1.9,0,0,0-1.91,8.09H1.91A1.9,1.9,0,0,0,0,6.18Z"/><path d="M16.18,0a1.9,1.9,0,0,0,1.91,1.91V-1.91A1.9,1.9,0,0,0,16.18,0Z"/><path d="M21.91-1.91V1.91A1.9,1.9,0,0,0,23.82,0,1.9,1.9,0,0,0,21.91-1.91Z"/></pattern><pattern id="New_Pattern_4" data-name="New Pattern 4" width="70" height="50" patternTransform="translate(-49.84 -73.22) scale(1.05)" patternUnits="userSpaceOnUse" viewBox="0 0 70 50"><rect class="cls-1" width="70" height="50"/><path class="cls-2" d="M8.89,100c-.05-7.08.29-14.17.29-21.25,0-4.32-.37-17.48-.29-28.09"/><path class="cls-2" d="M22.94,99.84c0-1.65.09-3.31.09-5,0-2.48-.21-5-.21-7.45s0-3.83.05-7.28c0-1.44-.06-2.9-.06-4.35,0-3.1.31-4.62.31-7.37,0-1.4-.27-4.94-.27-8.33q0-1.61.09-3.21V50.11"/><path class="cls-2" d="M36.74,99.84c0-9.46.33-18.09.33-27.56,0-3.7-.15-7.46-.15-11.2,0-3.35-.1-7.29-.18-10.75"/><path class="cls-2" d="M50.93,99.75c0-1.24-.07-2.75-.07-4,0-1.92,0-3.86,0-5.79,0-3.87,0-7.66,0-11.51a8.42,8.42,0,0,1-.08-1.22c0-.32.18-6.68.18-8,0-2.2-.21-3.25-.21-5.64,0-1.3.06-2.65.17-3.86,0-2.89,0-5.89,0-9.05"/><path class="cls-2" d="M65,99.71c0-8.34-.55-15.73-.36-24.06.18-8.13.16-17.71.36-25.19"/><path class="cls-2" d="M8.89,50c-.05-7.08.29-14.17.29-21.25,0-4.32-.37-17.48-.29-28.09"/><path class="cls-2" d="M22.94,49.84c0-1.65.09-3.31.09-5,0-2.48-.21-5-.21-7.45s0-3.83.05-7.28c0-1.44-.06-2.9-.06-4.35,0-3.1.31-4.62.31-7.37,0-1.4-.27-4.94-.27-8.33q0-1.6.09-3.21V.11"/><path class="cls-2" d="M36.74,49.84c0-9.46.33-18.09.33-27.56,0-3.7-.15-7.46-.15-11.2,0-3.35-.1-7.29-.18-10.75"/><path class="cls-2" d="M50.93,49.75c0-1.24-.07-2.75-.07-4,0-1.92,0-3.86,0-5.79,0-3.87,0-7.66,0-11.51a8.42,8.42,0,0,1-.08-1.22c0-.32.18-6.68.18-8,0-2.2-.21-3.25-.21-5.64,0-1.3.06-2.65.17-3.86,0-2.89,0-5.89,0-9"/><path class="cls-2" d="M65,49.71c0-8.34-.55-15.73-.36-24.06.18-8.13.16-17.71.36-25.19"/><path class="cls-2" d="M8.89,0c-.05-7.08.29-14.17.29-21.25,0-4.32-.37-17.48-.29-28.09"/><path class="cls-2" d="M22.94-.16c0-1.65.09-3.31.09-5,0-2.48-.21-5-.21-7.45s0-3.83.05-7.28c0-1.44-.06-2.9-.06-4.35,0-3.1.31-4.62.31-7.37,0-1.4-.27-4.94-.27-8.33q0-1.61.09-3.21v-6.71"/><path class="cls-2" d="M36.74-.16c0-9.46.33-18.09.33-27.56,0-3.7-.15-7.46-.15-11.2,0-3.35-.1-7.29-.18-10.75"/><path class="cls-2" d="M50.93-.25c0-1.24-.07-2.75-.07-4,0-1.92,0-3.86,0-5.79,0-3.87,0-7.66,0-11.51a8.42,8.42,0,0,1-.08-1.22c0-.32.18-6.68.18-8,0-2.2-.21-3.25-.21-5.64,0-1.3.06-2.65.17-3.86,0-2.89,0-5.89,0-9.05"/><path class="cls-2" d="M65-.29c0-8.34-.55-15.73-.36-24.06.18-8.13.16-17.71.36-25.19"/></pattern></defs><g id="Layer_2" data-name="Layer 2"><g id="illustrations"><path class="cls-3" d="M505.65,373.6a79.49,79.49,0,1,1-85.4,134c23.59-22.83,30.9-64.86,27.94-85.23C472,411.19,493.32,389.18,505.65,373.6Z"/><path class="cls-3" d="M60.36,263.57h0a16.86,16.86,0,0,1,5.75-2.95c8.73-2.53,17.87,2.62,20.78,11.23,0,0,11.59,34.66,11.77,35.14a37.51,37.51,0,0,0,22.23,21.57l34.88,15.88a5.67,5.67,0,0,0,8-5.26c-.31-13.68-5.23-25.78-10.12-34.51a14.18,14.18,0,0,1,7.64-20.23,14.57,14.57,0,0,1,16.26,5c9.26,11.87,24.25,35.05,21.32,57.67a.2.2,0,0,1,0,.07L152,587.1,196.8,578l15.25,116.88-96.67,17.66A74.73,74.73,0,0,1,27.23,625.7c17.89-97.26,36-177,45.19-237.72,1.29-8.5-2.17-17-9.63-21.3l-14.57-8.35a72,72,0,0,1-32.39-39.39L2.89,280.75A16.84,16.84,0,0,1,31.24,264a16.83,16.83,0,0,1,29.12-.38Z"/><polygon points="207.84 184.79 158.56 218.99 158.56 150.6 207.84 184.79"/><path class="cls-4" d="M246.86,161.91a73.5,73.5,0,1,1-34.81-41.74v41.74ZM158.56,219l49.28-34.2L158.56,150.6Z"/><path class="cls-3" d="M281.27,92.68v69.23H246.86a73.68,73.68,0,0,0-34.81-41.74V92.68Z"/><polygon class="cls-5" points="437.59 129.11 437.59 227.58 331.1 227.58 331.1 92.68 437.59 92.68 437.59 129.11"/><path class="cls-5" d="M538,26.54a15,15,0,0,1,0,30,15.39,15.39,0,0,1-3-.31,15,15,0,0,1,3-29.73Z"/><path class="cls-5" d="M398.3,41.56a15,15,0,0,1-12,14.71,15.39,15.39,0,0,1-3,.31,15,15,0,1,1,15-15Z"/><path class="cls-5" d="M460.66,2a15,15,0,1,1-15,15A15,15,0,0,1,460.66,2Z"/><path class="cls-4" d="M535,56.27l-15.09,72.84H437.59V92.68H393.88l-7.54-36.41a15,15,0,0,0,10.23-7.7h0l35.26,18.6,21.34-37.12h0a15,15,0,0,0,15,0h0l21.32,37.12,35.28-18.6A15,15,0,0,0,535,56.27Z"/><path class="cls-3" d="M691.67,139.55c0,.14,0,.28,0,.43s0,.29,0,.43v.37c0,.12,0,.24,0,.37a1.62,1.62,0,0,1,0,.21c0,.22,0,.43,0,.65H642.45c-.05-.67-.09-1.35-.09-2A24.66,24.66,0,0,1,667,115.32a26.64,26.64,0,0,1,3.6.26V58.81L613.69,91.74V142H592.64V85.66a10.5,10.5,0,0,1,5.25-9.1l78-45.1a10.52,10.52,0,0,1,15.79,9.11Z"/><path class="cls-6" d="M785,142v70.81l-23.27-3.92-15.34-33.49-17,32.66-36.58,4.23,15,15.28H535V142h57.67v17.34a27.23,27.23,0,0,0-3.28-.22,24.66,24.66,0,1,0,0,49.32c11.79,0,21.93-8.23,24.07-19.36,0-.06,0-.11.05-.18a27.68,27.68,0,0,0,.53-5.12,25.2,25.2,0,0,0-.32-4V142h28.76a24.65,24.65,0,0,0,49.14,0H785Z"/><polygon class="cls-4" points="798.04 215.02 770.93 239.96 776.33 276.39 744.25 258.31 711.26 274.7 718.55 238.6 692.76 212.3 729.34 208.07 746.39 175.41 761.73 208.9 798.04 215.02"/><path class="cls-3" d="M871.71,270.28a16.85,16.85,0,0,1,30.1,13.43l-8.45,39.43A72,72,0,0,1,865.7,366l-13.5,10a20,20,0,0,0-7.13,22.26l64,195.52a74.73,74.73,0,0,1-70.77,98,75.56,75.56,0,0,1-12.58-1.05L717.62,674.37,734.4,557.2,778,565.32,714.74,372.15c-5.52-22.14,6.71-46.9,14.54-59.74a14.56,14.56,0,0,1,15.58-6.81,14.17,14.17,0,0,1,9.91,19.21c-3.85,9.25-7.35,21.83-6.08,35.45a5.67,5.67,0,0,0,8.57,4.3l32.83-19.79a37.69,37.69,0,0,0,19.59-24c.13-.5.25-1,.36-1.52l7.29-34.74c1.91-8.89,10.39-15.06,19.35-13.55a17.14,17.14,0,0,1,6.06,2.27,16.85,16.85,0,0,1,29-3Z"/><path class="cls-5" d="M700.28,783.8A45.29,45.29,0,1,1,655,829.08h45.3Z"/><path class="cls-7" d="M700.28,729.17V783.8A45.29,45.29,0,0,0,655,829.08H633.09V729.17Z"/><rect class="cls-3" x="524.47" y="729.17" width="108.63" height="99.91"/><path class="cls-4" d="M734.4,557.2,717.62,674.37l-84.53-12.75v67.55H524.47v99.91H633.09V904H448.24A141.53,141.53,0,0,0,306.71,762.5c-1.26,0-2.51,0-3.76,0l-2.22-83.92-88.68,16.21L196.8,578l100.78-20.59c10.48-2.1,20.24-3.74,29.17-5.05,28.44-4.14,56.78,6.46,76.27,27.57A86.43,86.43,0,0,0,531.75,578C557,548.9,594.9,533.91,633,539.57,662.16,543.91,698.68,550.55,734.4,557.2Z"/><path class="cls-4" d="M388.31,904h-81.6l-2.17-81.57c.71,0,1.44,0,2.17,0A81.61,81.61,0,0,1,388.31,904Z"/><path class="cls-6" d="M303,762.54l1.59,59.92A81.61,81.61,0,0,0,225.1,904H165.17A141.55,141.55,0,0,1,303,762.54Z"/><path d="M246.86,161.91H212.05V120.17A73.68,73.68,0,0,1,246.86,161.91Z"/><path d="M700.28,783.8v45.28H655A45.29,45.29,0,0,1,700.28,783.8Z"/><path d="M691.59,142h0a24.65,24.65,0,0,1-49.14,0Z"/><path d="M613.69,179.79a25.2,25.2,0,0,1,.32,4,27.68,27.68,0,0,1-.53,5.12c0,.07,0,.12-.05.18-2.14,11.13-12.28,19.36-24.07,19.36a24.66,24.66,0,1,1,0-49.32,27.23,27.23,0,0,1,3.28.22V142h21.05Z"/><path d="M448.24,904H388.31a81.61,81.61,0,0,0-81.6-81.6c-.73,0-1.46,0-2.17,0L303,762.54c1.25,0,2.5,0,3.76,0A141.53,141.53,0,0,1,448.24,904Z"/><path d="M515.88,349.52a31.6,31.6,0,0,1-4.9,17c-.83,1.18-1.74,2.44-2.74,3.76l0,.05c-.79,1.07-1.65,2.16-2.55,3.3-12.33,15.58-33.64,37.59-57.46,48.77,3,20.37-4.35,62.4-27.94,85.23a78.91,78.91,0,0,1-15.94-14.36,65.72,65.72,0,1,1-13.16-80.79A79.59,79.59,0,0,1,455,363.06a32,32,0,1,1,60.9-13.54Z"/><polygon class="cls-8" points="158.56 150.6 207.84 184.79 158.56 218.99 158.56 150.6"/><polygon class="cls-8" points="785 212.82 798.04 215.02 770.93 239.96 776.33 276.39 744.25 258.31 711.26 274.7 718.55 238.6 692.76 212.3 729.34 208.07 746.39 175.41 761.73 208.9 785 212.82"/><path class="cls-8" d="M809.25,345.69l9.2-6.79a38.33,38.33,0,0,0,14.72-22.83l8.45-39.42a17.6,17.6,0,0,1,1.12-3.4,16.85,16.85,0,0,1,29-3"/><path class="cls-8" d="M716.64,378a40.86,40.86,0,0,1-1.9-5.83c-5.48-22.14,6.71-46.9,14.54-59.74a14.56,14.56,0,0,1,15.58-6.81,14.17,14.17,0,0,1,9.91,19.21c-3.85,9.25-7.35,21.83-6.08,35.45a5.67,5.67,0,0,0,8.57,4.3l32.83-19.79a37.69,37.69,0,0,0,19.59-24c.13-.5.25-1,.36-1.52l7.29-34.74c1.91-8.89,10.39-15.06,19.35-13.55a17.14,17.14,0,0,1,6.06,2.27"/><path class="cls-8" d="M198.89,347.14,152,587.1s165.78-33.48,174.71-34.79c28.44-4.14,56.78,6.46,76.27,27.57A86.43,86.43,0,0,0,531.75,578C557,548.9,594.9,533.91,633,539.57c29.16,4.34,65.68,11,101.4,17.63L778,565.32,714.74,372.15"/><path class="cls-8" d="M75.73,335.28,65,329.11a38.36,38.36,0,0,1-17.25-21L34.79,270a16.84,16.84,0,1,0-31.9,10.8l12.94,38.19a72,72,0,0,0,32.39,39.39l14.57,8.35c7.46,4.29,10.92,12.8,9.63,21.3-9.17,60.7-27.3,140.46-45.19,237.72a74.73,74.73,0,0,0,88.15,86.79l185.35-33.87,6,225.41H633.09V661.62l192.62,29.06a75.56,75.56,0,0,0,12.58,1.05,74.73,74.73,0,0,0,70.77-98l-64-195.52A20,20,0,0,1,852.2,376l13.5-10a72,72,0,0,0,27.66-42.86l8.45-39.43a16.85,16.85,0,0,0-30.1-13.43,16.66,16.66,0,0,0-2.83,6.37l-8.45,39.42a38.38,38.38,0,0,1-14.72,22.83l-10,7.37"/><path class="cls-8" d="M102,331.67,92.05,326a38.37,38.37,0,0,1-17.26-21L61.87,266.81a16,16,0,0,0-1.51-3.24,16.83,16.83,0,0,0-29.12.38"/><path class="cls-8" d="M197.68,353.08a39.86,39.86,0,0,0,1.21-5.94.2.2,0,0,0,0-.07c2.93-22.62-12.06-45.8-21.32-57.67a14.57,14.57,0,0,0-16.26-5,14.18,14.18,0,0,0-7.64,20.23c4.89,8.73,9.81,20.83,10.12,34.51a5.67,5.67,0,0,1-8,5.26L120.9,328.55A37.51,37.51,0,0,1,98.67,307c-.18-.48-.36-1-.53-1.46L86.9,271.84c-2.91-8.61-12.05-13.76-20.78-11.23a16.86,16.86,0,0,0-5.75,2.95"/><line class="cls-8" x1="196.8" y1="577.95" x2="212.05" y2="694.83"/><line class="cls-8" x1="734.4" y1="557.2" x2="717.62" y2="674.37"/><path class="cls-8" d="M508.24,370.25a29.87,29.87,0,0,0,2.74-3.76,31.93,31.93,0,1,0-56-3.43,79.59,79.59,0,0,0-63.83,49.39,65.7,65.7,0,1,0,13.16,80.79A79.49,79.49,0,1,0,505.65,373.6"/><path class="cls-8" d="M511.08,366.37s-1.84,2.56-2.84,3.88l0,.05c-.79,1.07-1.65,2.16-2.55,3.3-12.35,15.56-33.64,37.59-57.46,48.77,3,20.37-4.35,62.4-27.94,85.23h0"/><path class="cls-8" d="M496.79,410c8.92,11.64,15.71,17.12,27.68,27l-13.84,13.78"/><polygon class="cls-8" points="700.28 783.8 700.28 829.08 524.47 829.08 524.47 729.17 700.28 729.17 700.28 783.8"/><path class="cls-8" d="M655,829.08a45.29,45.29,0,1,0,45.3-45.28A45.3,45.3,0,0,0,655,829.08Z"/><path class="cls-8" d="M388.31,904a81.61,81.61,0,0,0-81.6-81.6c-.73,0-1.46,0-2.17,0A81.66,81.66,0,0,0,225.1,904H165.17c0-76.91,61.35-139.85,137.78-141.49,1.25,0,2.5,0,3.76,0A141.53,141.53,0,0,1,448.24,904"/><polyline class="cls-8" points="396.58 48.57 431.85 67.17 453.18 30.05"/><polyline class="cls-8" points="468.14 30.05 489.46 67.17 524.74 48.57"/><polyline class="cls-8" points="534.97 56.27 519.88 129.11 437.59 129.11"/><line class="cls-8" x1="393.88" y1="92.68" x2="386.34" y2="56.27"/><path class="cls-8" d="M396.57,48.57a15,15,0,1,0-13.28,8,15.39,15.39,0,0,0,3-.31A15,15,0,0,0,396.57,48.57Z"/><path class="cls-8" d="M468.14,30a15,15,0,1,0-7.48,2A15,15,0,0,0,468.14,30Z"/><path class="cls-8" d="M535,56.27a15.39,15.39,0,0,0,3,.31,15,15,0,1,0-3-.31Z"/><polyline class="cls-8" points="707.74 227.58 534.97 227.58 534.97 142.01 785 142.01 785 212.82"/><polygon class="cls-8" points="437.59 129.11 437.59 227.58 331.1 227.58 331.1 92.68 437.59 92.68 437.59 129.11"/><path class="cls-8" d="M212.05,120.17a73.45,73.45,0,1,0,34.81,41.74A73.12,73.12,0,0,0,212.05,120.17Z"/><polygon class="cls-8" points="212.05 120.17 212.05 92.68 281.27 92.68 281.27 161.91 212.05 161.91 212.05 120.17"/><path class="cls-8" d="M691.59,142c0-.22,0-.43,0-.65a1.62,1.62,0,0,0,0-.21c0-.13,0-.25,0-.37v-.37c0-.14,0-.28,0-.43s0-.29,0-.43v-99a10.52,10.52,0,0,0-15.79-9.11l-78,45.1a10.5,10.5,0,0,0-5.25,9.1v73.69a27.23,27.23,0,0,0-3.28-.22,24.66,24.66,0,1,0,0,49.32c11.79,0,21.93-8.23,24.07-19.36,0-.06,0-.11.05-.18a27.68,27.68,0,0,0,.53-5.12,25.2,25.2,0,0,0-.32-4v-88l56.93-32.93v56.77a26.64,26.64,0,0,0-3.6-.26A24.66,24.66,0,0,0,642.36,140c0,.68,0,1.36.09,2a24.65,24.65,0,0,0,49.14,0Z"/><line class="cls-8" x1="359.5" y1="124.68" x2="409.2" y2="124.68"/><line class="cls-8" x1="359.5" y1="146.97" x2="409.2" y2="146.97"/><line class="cls-8" x1="359.5" y1="169.25" x2="409.2" y2="169.25"/><line class="cls-8" x1="359.5" y1="191.53" x2="409.2" y2="191.53"/></g></g></svg>