<svg xmlns="http://www.w3.org/2000/svg" xmlns:xlink="http://www.w3.org/1999/xlink" viewBox="0 0 1078.11 909.61"><defs><style>.cls-1,.cls-2,.cls-8,.cls-9{fill:none;}.cls-2,.cls-8{stroke:#000;}.cls-2,.cls-8,.cls-9{stroke-linecap:round;stroke-linejoin:round;}.cls-2{stroke-width:1.5px;}.cls-3{fill:#3496f7;}.cls-4{fill:#fff;}.cls-5{fill:#d3e5fb;}.cls-6{fill:url(#New_Pattern_3);}.cls-7{fill:url(#New_Pattern_4);}.cls-8{stroke-width:4px;}.cls-9{stroke:#3496f7;stroke-width:10px;}</style><pattern id="New_Pattern_3" data-name="New Pattern 3" width="40" height="40" patternTransform="translate(-1.76 3.58) scale(1.02)" patternUnits="userSpaceOnUse" viewBox="0 0 40 40"><rect class="cls-1" width="40" height="40"/><path d="M36.18,30a1.9,1.9,0,0,0,1.91,1.91V28.09A1.9,1.9,0,0,0,36.18,30Z"/><path d="M40,33.82a1.9,1.9,0,0,0,1.91-1.91H38.09A1.9,1.9,0,0,0,40,33.82Z"/><path d="M40,26.18a1.9,1.9,0,0,0-1.91,1.91h3.82A1.9,1.9,0,0,0,40,26.18Z"/><path d="M16.18,40a1.9,1.9,0,0,0,1.91,1.91V38.09A1.9,1.9,0,0,0,16.18,40Z"/><path d="M21.91,38.09v3.82a1.91,1.91,0,0,0,0-3.82Z"/><path d="M20,36.18a1.9,1.9,0,0,0-1.91,1.91h3.82A1.9,1.9,0,0,0,20,36.18Z"/><path d="M1.91,28.09v3.82a1.91,1.91,0,0,0,0-3.82Z"/><path d="M36.18,10a1.9,1.9,0,0,0,1.91,1.91V8.09A1.9,1.9,0,0,0,36.18,10Z"/><path d="M40,13.82a1.9,1.9,0,0,0,1.91-1.91H38.09A1.9,1.9,0,0,0,40,13.82Z"/><path d="M40,6.18a1.9,1.9,0,0,0-1.91,1.91h3.82A1.9,1.9,0,0,0,40,6.18Z"/><path d="M18.79,16.37a1.92,1.92,0,0,0-1.21,2.42l3.63-1.21A1.92,1.92,0,0,0,18.79,16.37Z"/><path d="M22.42,21.21l-3.63,1.21a1.91,1.91,0,0,0,3.63-1.21Z"/><path d="M16.37,21.21a1.92,1.92,0,0,0,2.42,1.21l-1.21-3.63A1.92,1.92,0,0,0,16.37,21.21Z"/><path d="M23.63,18.79a1.92,1.92,0,0,0-2.42-1.21l1.21,3.63A1.92,1.92,0,0,0,23.63,18.79Z"/><path d="M1.91,8.09v3.82a1.91,1.91,0,0,0,0-3.82Z"/><path d="M20,3.82a1.9,1.9,0,0,0,1.91-1.91H18.09A1.9,1.9,0,0,0,20,3.82Z"/><path d="M0,33.82a1.9,1.9,0,0,0,1.91-1.91H-1.91A1.9,1.9,0,0,0,0,33.82Z"/><path d="M0,26.18a1.9,1.9,0,0,0-1.91,1.91H1.91A1.9,1.9,0,0,0,0,26.18Z"/><path d="M0,13.82a1.9,1.9,0,0,0,1.91-1.91H-1.91A1.9,1.9,0,0,0,0,13.82Z"/><path d="M0,6.18A1.9,1.9,0,0,0-1.91,8.09H1.91A1.9,1.9,0,0,0,0,6.18Z"/><path d="M16.18,0a1.9,1.9,0,0,0,1.91,1.91V-1.91A1.9,1.9,0,0,0,16.18,0Z"/><path d="M21.91-1.91V1.91A1.9,1.9,0,0,0,23.82,0,1.9,1.9,0,0,0,21.91-1.91Z"/></pattern><pattern id="New_Pattern_4" data-name="New Pattern 4" width="70" height="50" patternTransform="translate(8.41 -47.3) scale(1.02)" patternUnits="userSpaceOnUse" viewBox="0 0 70 50"><rect class="cls-1" width="70" height="50"/><path class="cls-2" d="M8.89,100c-.05-7.08.29-14.17.29-21.25,0-4.32-.37-17.48-.29-28.09"/><path class="cls-2" d="M22.94,99.84c0-1.65.09-3.31.09-5,0-2.48-.21-5-.21-7.45s0-3.83.05-7.28c0-1.44-.06-2.9-.06-4.35,0-3.1.31-4.62.31-7.37,0-1.4-.27-4.94-.27-8.33q0-1.61.09-3.21V50.11"/><path class="cls-2" d="M36.74,99.84c0-9.46.33-18.09.33-27.56,0-3.7-.15-7.46-.15-11.2,0-3.35-.1-7.29-.18-10.75"/><path class="cls-2" d="M50.93,99.75c0-1.24-.07-2.75-.07-4,0-1.92,0-3.86,0-5.79,0-3.87,0-7.66,0-11.51a8.42,8.42,0,0,1-.08-1.22c0-.32.18-6.68.18-8,0-2.2-.21-3.25-.21-5.64,0-1.3.06-2.65.17-3.86,0-2.89,0-5.89,0-9.05"/><path class="cls-2" d="M65,99.71c0-8.34-.55-15.73-.36-24.06.18-8.13.16-17.71.36-25.19"/><path class="cls-2" d="M8.89,50c-.05-7.08.29-14.17.29-21.25,0-4.32-.37-17.48-.29-28.09"/><path class="cls-2" d="M22.94,49.84c0-1.65.09-3.31.09-5,0-2.48-.21-5-.21-7.45s0-3.83.05-7.28c0-1.44-.06-2.9-.06-4.35,0-3.1.31-4.62.31-7.37,0-1.4-.27-4.94-.27-8.33q0-1.6.09-3.21V.11"/><path class="cls-2" d="M36.74,49.84c0-9.46.33-18.09.33-27.56,0-3.7-.15-7.46-.15-11.2,0-3.35-.1-7.29-.18-10.75"/><path class="cls-2" d="M50.93,49.75c0-1.24-.07-2.75-.07-4,0-1.92,0-3.86,0-5.79,0-3.87,0-7.66,0-11.51a8.42,8.42,0,0,1-.08-1.22c0-.32.18-6.68.18-8,0-2.2-.21-3.25-.21-5.64,0-1.3.06-2.65.17-3.86,0-2.89,0-5.89,0-9"/><path class="cls-2" d="M65,49.71c0-8.34-.55-15.73-.36-24.06.18-8.13.16-17.71.36-25.19"/><path class="cls-2" d="M8.89,0c-.05-7.08.29-14.17.29-21.25,0-4.32-.37-17.48-.29-28.09"/><path class="cls-2" d="M22.94-.16c0-1.65.09-3.31.09-5,0-2.48-.21-5-.21-7.45s0-3.83.05-7.28c0-1.44-.06-2.9-.06-4.35,0-3.1.31-4.62.31-7.37,0-1.4-.27-4.94-.27-8.33q0-1.61.09-3.21v-6.71"/><path class="cls-2" d="M36.74-.16c0-9.46.33-18.09.33-27.56,0-3.7-.15-7.46-.15-11.2,0-3.35-.1-7.29-.18-10.75"/><path class="cls-2" d="M50.93-.25c0-1.24-.07-2.75-.07-4,0-1.92,0-3.86,0-5.79,0-3.87,0-7.66,0-11.51a8.42,8.42,0,0,1-.08-1.22c0-.32.18-6.68.18-8,0-2.2-.21-3.25-.21-5.64,0-1.3.06-2.65.17-3.86,0-2.89,0-5.89,0-9.05"/><path class="cls-2" d="M65-.29c0-8.34-.55-15.73-.36-24.06.18-8.13.16-17.71.36-25.19"/></pattern></defs><g id="Layer_2" data-name="Layer 2"><g id="illustrations"><path class="cls-3" d="M738.8,2V105.21a86.29,86.29,0,0,1-20.22,2.38,86.92,86.92,0,0,1-13-1V34.1H633.07A87.3,87.3,0,0,1,634.22,2Z"/><path class="cls-4" d="M172.12,241.48l-6.55,3.1V34.1h467.5a86.53,86.53,0,0,0,72.52,72.52V457.05H609a78.29,78.29,0,0,0-81.84-27.67c0-.89.06-1.78.06-2.68a62.1,62.1,0,0,0-73.58-60.93A51.84,51.84,0,0,0,443.92,380a51.28,51.28,0,0,0-20.06,77H165.57V356.9l14.29-49.14a62.4,62.4,0,0,0,1.49-6.41,39.5,39.5,0,0,1,17.27-25.83l28.8-19.08a18.57,18.57,0,0,0,6.55-7.56A18.91,18.91,0,0,0,235.55,238a18.52,18.52,0,0,0-2.15-6.18,18,18,0,0,0-2.8-3.8,18.68,18.68,0,0,0-21.41-4Zm492.09,93.75-27.92-48.08-27.92,48.08ZM611.87,159.61l34.42-34.42L611.87,90.77l-34.42,34.42ZM579.53,308.93a25.64,25.64,0,1,0-25.64,25.64A25.63,25.63,0,0,0,579.53,308.93ZM532.2,226.09a25.63,25.63,0,1,0-25.63,25.63A25.63,25.63,0,0,0,532.2,226.09Zm-94.52,22.34V200.6H389.85v47.83ZM392.81,124.94a25.64,25.64,0,1,0-25.63,25.64A25.63,25.63,0,0,0,392.81,124.94Zm-9.24,215.32-11.5-11.47h0V293.3H257.4v41.27h81.11l-46.67,46.75-26.93-25.17-25.36,25.44,53.17,49.71ZM348.56,217a16.44,16.44,0,0,0-28.06-11.62l-5.76,5.77L309,205.42a16.44,16.44,0,0,0-23.24,23.25l29,29,29-29A16.43,16.43,0,0,0,348.56,217Z"/><path d="M633.07,34.1h72.52v72.52A86.53,86.53,0,0,1,633.07,34.1Z"/><path d="M1061,368.67A109,109,0,0,1,879.57,488.82a110.13,110.13,0,0,1-6.35-9.61A109,109,0,0,1,1061,368.67Zm-50.24,129.46A86.09,86.09,0,1,0,892.94,467.6,86.09,86.09,0,0,0,1010.79,498.13Z"/><path class="cls-4" d="M1041.31,380.28a86.08,86.08,0,1,1-117.85-30.53A86.09,86.09,0,0,1,1041.31,380.28Z"/><path class="cls-4" d="M909.48,253.77l-20.18,5.48A39.39,39.39,0,0,0,861.6,287l-5.45,20.14L850.69,287A39.29,39.29,0,0,0,823,259.25l-20.17-5.48L823,248.31a39.34,39.34,0,0,0,27.69-27.74l5.46-20.12,5.45,20.12a39.44,39.44,0,0,0,27.7,27.74Z"/><path class="cls-3" d="M660.21,907.61h-.7a63.1,63.1,0,0,1-63.09-63.09V779.76H722.59V589.7a59,59,0,0,0-.61-8.6h0a18.23,18.23,0,0,0,12.08-2.56l20.54-12.66a13.73,13.73,0,0,0,12.38,0l3.19-1.61a13.75,13.75,0,0,0,7.55-12.67L782,549a13.61,13.61,0,0,0,10.87-.63l3.2-1.61a13.7,13.7,0,0,0,7.49-11.05l4.12-2.54a15.53,15.53,0,0,0,10.36,1.61h0a36.84,36.84,0,0,1,12-7.27s-8.43-29.16-8.54-29.65a24.87,24.87,0,0,1-.59-5.33,24.13,24.13,0,0,1,.51-5,24.48,24.48,0,0,1,11.73-16.25,11.32,11.32,0,0,1,15.29,3.9s13.94,23,14.39,23.91a39.4,39.4,0,0,1,.36,35l-20.91,43.3L719.05,869.07A63.35,63.35,0,0,1,660.21,907.61Z"/><path d="M861.44,496.47l-12.93-21.28a11.39,11.39,0,0,0-1.52-2l18.36-10.3h0a108.62,108.62,0,0,0,7.86,16.28,110.13,110.13,0,0,0,6.35,9.61l-16.66,10.27h0C862.45,498.21,862,497.34,861.44,496.47Z"/><path class="cls-3" d="M822,499.32l8.15,28.16a36.84,36.84,0,0,0-12,7.27h0a15.53,15.53,0,0,1-10.36-1.61,15.14,15.14,0,0,1-6.33-6.44,2.12,2.12,0,0,0-.11-.21L789.38,502.9a15.52,15.52,0,0,1,27.72-14l4.47,8.89C821.68,498.32,821.81,498.83,822,499.32Z"/><path class="cls-4" d="M821.57,497.83l-4.06-8.05,4-2.24a24.13,24.13,0,0,0-.51,5A24.87,24.87,0,0,0,821.57,497.83Z"/><path d="M812.11,182.92l-8.35,2.27a16.28,16.28,0,0,0-11.45,11.46L790.05,205l-2.26-8.34a16.22,16.22,0,0,0-11.46-11.46L768,182.92l8.33-2.25a16.3,16.3,0,0,0,11.46-11.48l2.26-8.33,2.26,8.33a16.36,16.36,0,0,0,11.45,11.48Z"/><path d="M802.17,528.3l-.8-1.6a15.31,15.31,0,0,0,6.33,6.44l-4.12,2.54A13.5,13.5,0,0,0,802.17,528.3Z"/><path d="M774.46,542.25A13.6,13.6,0,0,0,782,549l-4.29,2.65a13.65,13.65,0,0,0-1.46-5.77Z"/><path class="cls-3" d="M762.77,519.06l-1.81-3.6A13.72,13.72,0,0,1,767.05,497l3.2-1.6a13.72,13.72,0,0,1,18.43,6.08l12.58,25a2.12,2.12,0,0,1,.11.21l.8,1.6a13.5,13.5,0,0,1,1.41,7.38,13.7,13.7,0,0,1-7.49,11.05l-3.2,1.61a13.74,13.74,0,0,1-18.43-6.09Z"/><path class="cls-3" d="M741.15,514.58l3.19-1.61a13.72,13.72,0,0,1,18.43,6.09l13.5,26.79a13.73,13.73,0,0,1-6.09,18.44L767,565.9a13.74,13.74,0,0,1-18.44-6.09l-12.3-24.43h0L735.06,533A13.74,13.74,0,0,1,741.15,514.58Z"/><path d="M736.24,535.38h0l12.3,24.43a13.73,13.73,0,0,0,6.06,6.07l-20.54,12.66A18.23,18.23,0,0,1,722,581.1h0a60.08,60.08,0,0,0-12.39-28.78,18.73,18.73,0,0,1,5.28-4.92l.65-.38Z"/><path class="cls-5" d="M596.42,779.76v64.76a62.83,62.83,0,0,0,17.86,44H375.53a457.14,457.14,0,0,1-72.14-176.43q-2.52-14-4.18-28.33L158.55,628.25C172.17,591,190.78,539.36,201.69,509l76.12,24.08a75.85,75.85,0,0,0,48.75-.94l1.26-.45c40.86-14.74,86.33-1.94,115.23,30.5a75.65,75.65,0,0,0,86.87,19A78.22,78.22,0,0,0,623.68,521h0c33.42-4.24,67.79,8.09,85.9,31.3A60.08,60.08,0,0,1,722,581.1a59,59,0,0,1,.61,8.6V779.76Z"/><polygon class="cls-4" points="636.29 287.15 664.21 335.23 608.37 335.23 636.29 287.15"/><rect class="cls-5" x="587.53" y="100.85" width="48.68" height="48.68" transform="translate(90.69 469.32) rotate(-45)"/><path d="M625.35,504.93a78.18,78.18,0,1,1-136.16-52.38A51.3,51.3,0,0,1,443.92,380a51.84,51.84,0,0,1,9.69-14.25,62.1,62.1,0,0,1,73.58,60.93c0,.9,0,1.79-.06,2.68a78.17,78.17,0,0,1,98.22,75.55Z"/><path class="cls-4" d="M553.89,283.3a25.64,25.64,0,1,1-25.63,25.63A25.63,25.63,0,0,1,553.89,283.3Z"/><path class="cls-4" d="M506.57,200.45a25.64,25.64,0,1,1-25.63,25.64A25.63,25.63,0,0,1,506.57,200.45Z"/><path class="cls-3" d="M489.19,452.55a78.24,78.24,0,0,0-15.09,24.64A51.29,51.29,0,0,1,443.92,380a51.3,51.3,0,0,0,45.27,72.53Z"/><rect class="cls-3" x="389.85" y="200.6" width="47.83" height="47.83"/><path class="cls-4" d="M367.18,99.31a25.64,25.64,0,1,1-25.64,25.63A25.63,25.63,0,0,1,367.18,99.31Z"/><polygon class="cls-3" points="338.51 334.57 358.15 314.9 383.57 340.26 292.72 431.3 239.55 381.59 264.91 356.15 291.84 381.32 338.51 334.57"/><path class="cls-4" d="M375.53,888.5H330.05V853.16H259.37V888.5h-59.8a95.22,95.22,0,0,1,128.73-89A458.65,458.65,0,0,0,375.53,888.5Z"/><polygon class="cls-4" points="372.08 293.3 372.08 328.77 372.06 328.79 358.15 314.9 338.51 334.57 257.4 334.57 257.4 293.3 372.08 293.3"/><path class="cls-4" d="M303.39,712.07a455.75,455.75,0,0,0,24.91,87.39,95.22,95.22,0,0,0-128.73,89h-81.5A176.63,176.63,0,0,1,294.71,711.86C297.62,711.86,300.51,711.92,303.39,712.07Z"/><path class="cls-6" d="M375.53,888.5H330.05V853.16H259.37V888.5h-59.8a95.22,95.22,0,0,1,128.73-89A458.65,458.65,0,0,0,375.53,888.5Z"/><polygon class="cls-7" points="372.08 293.3 372.08 328.77 372.06 328.79 358.15 314.9 338.51 334.57 257.4 334.57 257.4 293.3 372.08 293.3"/><path class="cls-5" d="M343.75,205.42a16.45,16.45,0,0,1,0,23.25l-29,29-29-29A16.44,16.44,0,1,1,309,205.42l5.77,5.77,5.76-5.77A16.44,16.44,0,0,1,343.75,205.42Z"/><rect x="259.37" y="853.16" width="70.68" height="35.34"/><path class="cls-7" d="M303.39,712.07a455.75,455.75,0,0,0,24.91,87.39,95.22,95.22,0,0,0-128.73,89h-81.5A176.63,176.63,0,0,1,294.71,711.86C297.62,711.86,300.51,711.92,303.39,712.07Z"/><path class="cls-3" d="M233.62,240.92a20.13,20.13,0,0,0,1.91-2.9h0A18.91,18.91,0,0,1,234,248.88a18.57,18.57,0,0,1-6.55,7.56l-28.8,19.08a39.5,39.5,0,0,0-17.27,25.83,62.4,62.4,0,0,1-1.49,6.41l-6,20.57-73-25.11h0a36.92,36.92,0,0,0-26.31-33.45h0l10.39-30.89a54.55,54.55,0,0,1,28.94-32.19l51.72-23.74v61.65l32.78-15.45h0a19.76,19.76,0,0,0,35.26,11.78Z"/><path class="cls-4" d="M235.55,238h0a20.13,20.13,0,0,1-1.91,2.9,19.76,19.76,0,0,1-35.26-11.78h0L209.19,224a18.68,18.68,0,0,1,21.41,4,18,18,0,0,1,2.8,3.8A18.52,18.52,0,0,1,235.55,238Z"/><path class="cls-3" d="M128.11,485.71,201.69,509c-10.91,30.36-29.52,82-43.14,119.25L66.43,591.92a96.62,96.62,0,0,1-60.57-118L51,339.68A36.44,36.44,0,0,0,64,342a36.87,36.87,0,0,0,29.73-15l73.25,25.19Z"/><path class="cls-4" d="M100.83,303.22l73.05,25.11-6.94,23.87L93.69,327a36.7,36.7,0,0,0,7.18-21.89C100.87,304.48,100.86,303.85,100.83,303.22Z"/><path class="cls-4" d="M70.94,268.88a36.9,36.9,0,0,1-23.09,65.69,37.26,37.26,0,0,1-7-.66h0A36.91,36.91,0,0,1,64,268.22,37.29,37.29,0,0,1,70.94,268.88Z"/><path d="M84.76,297.66a36.8,36.8,0,0,0-13.82-28.78,34.64,34.64,0,0,1,3.58.88,36.92,36.92,0,0,1,26.31,33.45h0c0,.63,0,1.26,0,1.9a36.89,36.89,0,0,1-60,28.79,36.93,36.93,0,0,0,43.88-36.25Z"/><path class="cls-8" d="M596.42,702.43V844.52a63.1,63.1,0,0,0,63.09,63.09h.7"/><path class="cls-8" d="M303.4,712.07h0c-2.88-.15-5.77-.21-8.68-.21A176.63,176.63,0,0,0,118.07,888.5H614.28"/><path class="cls-8" d="M328.3,799.46a95.22,95.22,0,0,0-128.73,89"/><polyline class="cls-8" points="330.05 888.5 330.05 853.16 259.37 853.16 259.37 888.5"/><path class="cls-8" d="M165.57,182.93l-51.72,23.74a54.55,54.55,0,0,0-28.94,32.19L74.52,269.75"/><path class="cls-8" d="M51,339.68,5.86,473.89a96.62,96.62,0,0,0,60.57,118l232.78,91.82q1.67,14.29,4.18,28.33A457.14,457.14,0,0,0,375.53,888.5"/><path class="cls-8" d="M198.36,229.14a19.76,19.76,0,0,0,35.26,11.78,20.13,20.13,0,0,0,1.91-2.9"/><path class="cls-8" d="M818.06,534.75c-9.53,8.34-20.36,25.28-14.52,57.7"/><path class="cls-8" d="M659.51,907.6h.7a63.35,63.35,0,0,0,58.84-38.54l123.3-291.63,20.91-43.3a39.46,39.46,0,0,0-.36-35c-.45-.89-.93-1.76-1.46-2.63l-12.93-21.28a11.32,11.32,0,0,0-15.29-3.9,24.51,24.51,0,0,0-11.73,16.25,24.37,24.37,0,0,0,.08,10.29c.11.49.24,1,.39,1.49l8.15,28.16a36.84,36.84,0,0,0-12,7.27"/><polyline class="cls-8" points="165.57 356.9 165.57 457.05 423.85 457.05"/><path class="cls-8" d="M774.46,542.25l1.81,3.6a13.73,13.73,0,0,1-6.09,18.44L767,565.9a13.74,13.74,0,0,1-18.44-6.09l-12.3-24.43"/><path class="cls-8" d="M736.24,535.38,735.06,533a13.74,13.74,0,0,1,6.09-18.44l3.19-1.61a13.72,13.72,0,0,1,18.43,6.09"/><path class="cls-8" d="M801.37,526.7l.8,1.6a13.74,13.74,0,0,1-6.08,18.43l-3.2,1.61a13.74,13.74,0,0,1-18.43-6.09L761,515.46A13.72,13.72,0,0,1,767.05,497l3.2-1.6a13.72,13.72,0,0,1,18.43,6.08l.7,1.39"/><path class="cls-8" d="M818.07,534.75h0a15.59,15.59,0,0,1-10.36-1.61,15.14,15.14,0,0,1-6.33-6.44,2.12,2.12,0,0,0-.11-.21L789.38,502.9a15.52,15.52,0,0,1,27.72-14l4.47,8.89"/><path class="cls-8" d="M879.57,488.82a110.43,110.43,0,1,0-6.35-9.61A110.13,110.13,0,0,0,879.57,488.82Z"/><path class="cls-8" d="M1010.79,498.13A86.09,86.09,0,1,0,892.94,467.6,86.09,86.09,0,0,0,1010.79,498.13Z"/><line class="cls-8" x1="879.57" y1="488.82" x2="862.91" y2="499.09"/><line class="cls-8" x1="807.7" y1="533.14" x2="803.31" y2="535.85"/><line class="cls-8" x1="782.31" y1="548.79" x2="777.51" y2="551.76"/><path class="cls-8" d="M754.87,565.71l-20.8,12.83A18.23,18.23,0,0,1,722,581.1"/><path class="cls-8" d="M709.59,552.32a18.73,18.73,0,0,1,5.28-4.92l.65-.38,20.72-11.64h0"/><line class="cls-8" x1="817.51" y1="489.78" x2="821.49" y2="487.54"/><line class="cls-8" x1="846.99" y1="473.23" x2="865.35" y2="462.93"/><path class="cls-8" d="M596.42,779.76H722.59V589.7a60.06,60.06,0,0,0-13-37.38c-18.11-23.21-52.48-35.54-85.9-31.3"/><path class="cls-8" d="M529.92,581.17a75.65,75.65,0,0,1-86.87-19c-28.9-32.44-74.37-45.24-115.23-30.5l-1.26.45a75.85,75.85,0,0,1-48.75.94l-149.7-47.37,51.75-177.95a62.4,62.4,0,0,0,1.49-6.41,39.5,39.5,0,0,1,17.27-25.83l28.8-19.08a18.57,18.57,0,0,0,6.55-7.56A18.84,18.84,0,0,0,235.55,238a18.3,18.3,0,0,0-2.15-6.18,18,18,0,0,0-2.8-3.8,18.68,18.68,0,0,0-21.41-4l-43.62,20.54V34.1h540v423H609"/><path class="cls-8" d="M633.07,34.1A87.3,87.3,0,0,1,634.22,2H738.8V105.21a86.29,86.29,0,0,1-20.22,2.38,86.92,86.92,0,0,1-13-1A86.64,86.64,0,0,1,633.07,34.1Z"/><path class="cls-8" d="M609,457.05a78.29,78.29,0,0,0-81.84-27.67c0-.89.06-1.78.06-2.68a62.1,62.1,0,0,0-73.58-60.93A51.84,51.84,0,0,0,443.92,380a51.3,51.3,0,0,0,45.27,72.53A78.15,78.15,0,1,0,609,457.05Z"/><path class="cls-8" d="M474.1,477.19A51.29,51.29,0,0,1,443.92,380"/><line class="cls-8" x1="100.83" y1="303.22" x2="173.88" y2="328.33"/><line class="cls-8" x1="100.82" y1="303.21" x2="100.83" y2="303.21"/><polyline class="cls-8" points="166.94 352.2 93.69 327.01 93.68 327.01"/><path class="cls-8" d="M40.88,333.91a36.89,36.89,0,0,0,60-28.79c0-.64,0-1.27,0-1.9h0a37,37,0,0,0-26.31-33.45,34.64,34.64,0,0,0-3.58-.88,37.29,37.29,0,0,0-7-.66,36.91,36.91,0,0,0-23.09,65.69Z"/><path class="cls-8" d="M40.87,333.91h0a36.93,36.93,0,0,0,43.88-36.25,36.8,36.8,0,0,0-13.82-28.78"/><polyline class="cls-8" points="428.37 100.86 451.91 100.86 451.91 149.03"/><polyline class="cls-8" points="269.14 100.86 292.68 100.86 292.68 149.03"/><path class="cls-9" d="M392.81,124.94a25.64,25.64,0,1,0-25.63,25.64A25.63,25.63,0,0,0,392.81,124.94Z"/><polyline class="cls-8" points="567.76 202 591.29 202 591.29 250.17"/><path class="cls-8" d="M532.2,226.09a25.63,25.63,0,1,0-25.63,25.63A25.63,25.63,0,0,0,532.2,226.09Z"/><path class="cls-8" d="M579.53,308.93a25.64,25.64,0,1,0-25.64,25.64A25.63,25.63,0,0,0,579.53,308.93Z"/><polyline class="cls-8" points="232.46 88.27 210.74 88.27 210.74 162.11 232.46 162.11"/><polyline class="cls-8" points="501.89 88.27 523.62 88.27 523.62 162.11 501.89 162.11"/><rect class="cls-8" x="587.53" y="100.85" width="48.68" height="48.68" transform="translate(90.69 469.32) rotate(-45)"/><path class="cls-8" d="M314.74,257.68l-29-29A16.44,16.44,0,1,1,309,205.42l5.77,5.77,5.76-5.77a16.44,16.44,0,0,1,23.25,23.25Z"/><rect class="cls-8" x="389.85" y="200.6" width="47.83" height="47.83"/><polyline class="cls-8" points="338.52 334.57 257.4 334.57 257.4 293.3 372.08 293.3 372.08 328.77"/><polyline class="cls-8" points="406.67 333.31 406.67 296.49 490.11 296.49 490.11 333.31"/><polygon class="cls-8" points="608.37 335.23 636.29 287.15 664.21 335.23 608.37 335.23"/><polygon class="cls-8" points="338.51 334.57 358.15 314.9 383.57 340.26 292.72 431.3 239.55 381.59 264.91 356.15 291.84 381.32 338.51 334.57"/><path class="cls-8" d="M158.55,628.25C172.17,591,190.78,539.36,201.69,509"/><path class="cls-8" d="M856.15,200.45l-5.46,20.12A39.34,39.34,0,0,1,823,248.31l-20.17,5.46L823,259.25A39.29,39.29,0,0,1,850.69,287l5.46,20.14L861.6,287a39.39,39.39,0,0,1,27.7-27.72l20.18-5.48-20.18-5.46a39.44,39.44,0,0,1-27.7-27.74Z"/><path class="cls-8" d="M790.05,160.86l-2.26,8.33a16.3,16.3,0,0,1-11.46,11.48L768,182.92l8.33,2.27a16.22,16.22,0,0,1,11.46,11.46l2.26,8.34,2.26-8.34a16.28,16.28,0,0,1,11.45-11.46l8.35-2.27-8.35-2.25a16.36,16.36,0,0,1-11.45-11.48Z"/></g></g></svg>