<svg xmlns="http://www.w3.org/2000/svg" xmlns:xlink="http://www.w3.org/1999/xlink" viewBox="0 0 1003.77 833.64"><defs><style>.cls-1,.cls-6{fill:none;}.cls-2{fill:#3496f7;}.cls-3{fill:#fff;}.cls-4{fill:url(#New_Pattern_3);}.cls-5{fill:#d3e5fb;}.cls-6{stroke:#000;stroke-linecap:round;stroke-linejoin:round;stroke-width:4px;}</style><pattern id="New_Pattern_3" data-name="New Pattern 3" width="40" height="40" patternTransform="translate(0 -30)" patternUnits="userSpaceOnUse" viewBox="0 0 40 40"><rect class="cls-1" width="40" height="40"/><path d="M36.18,30a1.9,1.9,0,0,0,1.91,1.91V28.09A1.9,1.9,0,0,0,36.18,30Z"/><path d="M40,33.82a1.9,1.9,0,0,0,1.91-1.91H38.09A1.9,1.9,0,0,0,40,33.82Z"/><path d="M40,26.18a1.9,1.9,0,0,0-1.91,1.91h3.82A1.9,1.9,0,0,0,40,26.18Z"/><path d="M16.18,40a1.9,1.9,0,0,0,1.91,1.91V38.09A1.9,1.9,0,0,0,16.18,40Z"/><path d="M21.91,38.09v3.82a1.91,1.91,0,0,0,0-3.82Z"/><path d="M20,36.18a1.9,1.9,0,0,0-1.91,1.91h3.82A1.9,1.9,0,0,0,20,36.18Z"/><path d="M1.91,28.09v3.82a1.91,1.91,0,0,0,0-3.82Z"/><path d="M36.18,10a1.9,1.9,0,0,0,1.91,1.91V8.09A1.9,1.9,0,0,0,36.18,10Z"/><path d="M40,13.82a1.9,1.9,0,0,0,1.91-1.91H38.09A1.9,1.9,0,0,0,40,13.82Z"/><path d="M40,6.18a1.9,1.9,0,0,0-1.91,1.91h3.82A1.9,1.9,0,0,0,40,6.18Z"/><path d="M18.79,16.37a1.92,1.92,0,0,0-1.21,2.42l3.63-1.21A1.92,1.92,0,0,0,18.79,16.37Z"/><path d="M22.42,21.21l-3.63,1.21a1.91,1.91,0,0,0,3.63-1.21Z"/><path d="M16.37,21.21a1.92,1.92,0,0,0,2.42,1.21l-1.21-3.63A1.92,1.92,0,0,0,16.37,21.21Z"/><path d="M23.63,18.79a1.92,1.92,0,0,0-2.42-1.21l1.21,3.63A1.92,1.92,0,0,0,23.63,18.79Z"/><path d="M1.91,8.09v3.82a1.91,1.91,0,0,0,0-3.82Z"/><path d="M20,3.82a1.9,1.9,0,0,0,1.91-1.91H18.09A1.9,1.9,0,0,0,20,3.82Z"/><path d="M0,33.82a1.9,1.9,0,0,0,1.91-1.91H-1.91A1.9,1.9,0,0,0,0,33.82Z"/><path d="M0,26.18a1.9,1.9,0,0,0-1.91,1.91H1.91A1.9,1.9,0,0,0,0,26.18Z"/><path d="M0,13.82a1.9,1.9,0,0,0,1.91-1.91H-1.91A1.9,1.9,0,0,0,0,13.82Z"/><path d="M0,6.18A1.9,1.9,0,0,0-1.91,8.09H1.91A1.9,1.9,0,0,0,0,6.18Z"/><path d="M16.18,0a1.9,1.9,0,0,0,1.91,1.91V-1.91A1.9,1.9,0,0,0,16.18,0Z"/><path d="M21.91-1.91V1.91A1.9,1.9,0,0,0,23.82,0,1.9,1.9,0,0,0,21.91-1.91Z"/></pattern></defs><g id="Layer_2" data-name="Layer 2"><g id="illustrations"><path class="cls-2" d="M264,785.36v46.28H45.28A452.88,452.88,0,0,1,66.47,694.36h71.91a14.55,14.55,0,0,0,14.56-14.55V631.53l91.6,102.77A76.94,76.94,0,0,1,264,785.36Z"/><path class="cls-2" d="M790.42,482.58c-7.31,7.38-47.48,47.18-59.68,59a85.67,85.67,0,0,0-98.81-15.36l-.09,0a44.06,44.06,0,0,1-20.06,4.79,44.58,44.58,0,0,1-43.22-34.33c0-.12,0-.23-.08-.35-8.94-37.32-42.06-65.31-82.06-65.31A84.18,84.18,0,0,0,484,599.39h0a44.43,44.43,0,0,0,35.19,55.32,75.06,75.06,0,0,0-.61,9.54,73.35,73.35,0,0,0,18.11,48.37,100.94,100.94,0,0,1-104.46-21.76c-46.31-44.23-109.65-99.63-196.69-186.14q-11.75-11.67-24.08-24.12A452.25,452.25,0,0,1,433.93,382v.65H569.85A452.82,452.82,0,0,1,790.42,482.58Z"/><path class="cls-2" d="M954.16,831.64H861.29a152.53,152.53,0,0,0,9.55-22.39,150.76,150.76,0,0,0-38.71-156.77l53.77-60.2A451.76,451.76,0,0,1,954.16,831.64Z"/><path class="cls-3" d="M536.64,712.63a100.87,100.87,0,0,0,35-21.76c39.36-37.61,91-83.28,159.14-149.28,12.2-11.83,95.39-95.32,114.62-115.42a10.75,10.75,0,0,0,.43-14.36l-50.13-59,98.91-94.42c18.87,22,40.16,46.51,63.72,73.14,19.75,22.26,37.54,39.27,42.46,75A108.18,108.18,0,0,1,979.9,486.7C977.34,490,784.37,706,759.24,734.3a76.85,76.85,0,0,0-19.42,51.06v46.28H264V785.36a76.94,76.94,0,0,0-19.41-51.06l-91.6-102.77V585.92a14.56,14.56,0,0,0-14.56-14.56H99.19c-43.73-48.92-73.06-81.74-75.31-84.66A108.14,108.14,0,0,1,3,406.53c4.92-35.69,22.7-52.7,42.45-75,21-23.78,40.26-45.87,57.58-66L207,354.21l-49,57.6a10.73,10.73,0,0,0,.43,14.36c18.52,19.35,69.24,70.78,77.07,78.56,87,86.51,150.38,141.91,196.69,186.14a101,101,0,0,0,104.46,21.76Z"/><path class="cls-4" d="M536.64,712.63a100.87,100.87,0,0,0,35-21.76c39.36-37.61,91-83.28,159.14-149.28,12.2-11.83,95.39-95.32,114.62-115.42a10.75,10.75,0,0,0,.43-14.36l-50.13-59,98.91-94.42c18.87,22,40.16,46.51,63.72,73.14,19.75,22.26,37.54,39.27,42.46,75A108.18,108.18,0,0,1,979.9,486.7C977.34,490,784.37,706,759.24,734.3a76.85,76.85,0,0,0-19.42,51.06v46.28H264V785.36a76.94,76.94,0,0,0-19.41-51.06l-91.6-102.77V585.92a14.56,14.56,0,0,0-14.56-14.56H99.19c-43.73-48.92-73.06-81.74-75.31-84.66A108.14,108.14,0,0,1,3,406.53c4.92-35.69,22.7-52.7,42.45-75,21-23.78,40.26-45.87,57.58-66L207,354.21l-49,57.6a10.73,10.73,0,0,0,.43,14.36c18.52,19.35,69.24,70.78,77.07,78.56,87,86.51,150.38,141.91,196.69,186.14a101,101,0,0,0,104.46,21.76Z"/><path d="M832.13,652.48a150.76,150.76,0,0,1,38.71,156.77,152.53,152.53,0,0,1-9.55,22.39H739.82V785.36a76.85,76.85,0,0,1,19.42-51.06Z"/><path class="cls-5" d="M761.49,52.09a34.58,34.58,0,0,1,8.36,27.15,246.08,246.08,0,0,1-4.37,24.47c-1.53,6.61-3.46,13.64-5.87,20.92h0L742.47,107.5c1.47-5.34,2.65-10.46,3.61-15.26,1.14-5.74,2-11,2.55-15.68a13.17,13.17,0,0,0-13.08-14.79H643.12V40.38h92.43A34.62,34.62,0,0,1,761.49,52.09Z"/><path class="cls-5" d="M711.1,201.81a14.78,14.78,0,0,0,5.74,3.56,161.47,161.47,0,0,0-17,4.07l-7.78-26.67Z"/><path d="M670.67,517a85.35,85.35,0,0,1,60.07,24.61c-68.1,66-119.78,111.67-159.14,149.28a100.87,100.87,0,0,1-35,21.76,73.35,73.35,0,0,1-18.11-48.37,75.06,75.06,0,0,1,.61-9.54A44.43,44.43,0,0,1,484,599.4h0c.82,0,1.64,0,2.47,0A84.25,84.25,0,0,0,547.71,573l.66-.7c-.51-.29-1-.56-1.56-.83a84,84,0,0,1-9.15-24.12,25.8,25.8,0,1,0-31-35.84c-12.18-9.84-19.68-26.17-26.67-51.1a427.72,427.72,0,0,1-67.61,14.86,84.15,84.15,0,0,1,74.07-44.15c40,0,73.12,28,82.06,65.31,0,.12,0,.23.08.35a44.58,44.58,0,0,0,43.22,34.33,44.06,44.06,0,0,0,20.06-4.79l.09,0A85.16,85.16,0,0,1,670.67,517Z"/><path class="cls-5" d="M671.93,230.32h0c-29.41,14.94-64.54,22.43-105,22.43q-11.79,0-24.19-.84a140.94,140.94,0,0,0,42.4-21.11c30.52-1.94,57.14-8.91,79.67-20.86A53.25,53.25,0,0,0,671.93,230.32Z"/><path class="cls-5" d="M645.31,296.05A19,19,0,1,1,626.36,315,19,19,0,0,1,645.31,296.05Z"/><path class="cls-5" d="M585.09,230.81a140.38,140.38,0,0,1-75,26.85c-2.71.16-5.43.24-8.18.24s-5.47-.08-8.18-.24a141.21,141.21,0,0,1-133.06-141v-97a8.3,8.3,0,0,1,8.3-8.29H634.83a8.29,8.29,0,0,1,8.29,8.29v97A141.07,141.07,0,0,1,585.09,230.81Zm7.08-135.68L558.53,61.57,497.23,123,461.6,89.71,428,123.38l70.36,65.77Z"/><polygon points="558.53 61.57 592.17 95.13 498.38 189.15 428.02 123.38 461.6 89.71 497.23 123.02 558.53 61.57"/><path class="cls-5" d="M569.85,380.6v2H433.93v-2A18.86,18.86,0,0,1,449.73,362c33.63-5.71,37.33-30.19,37.33-47.56a30.89,30.89,0,0,0,29.65,0c0,17.37,3.71,41.85,37.34,47.56A18.87,18.87,0,0,1,569.85,380.6Z"/><path class="cls-5" d="M516.71,314.48a30.89,30.89,0,0,1-29.65,0h0a30.86,30.86,0,0,1,6.65-56.81c2.71.16,5.43.24,8.18.24s5.47-.08,8.18-.24a30.86,30.86,0,0,1,6.64,56.82Z"/><path class="cls-5" d="M418.7,230.81a141.07,141.07,0,0,0,42.38,21.11q-12.39.84-24.18.84c-40.5,0-75.63-7.49-105-22.43A53.24,53.24,0,0,0,339,210C361.55,221.9,388.17,228.87,418.7,230.81Z"/><path class="cls-5" d="M360.65,40.38V61.77H268.23a13.17,13.17,0,0,0-13.08,14.79c.59,4.66,1.41,9.94,2.55,15.68,1,4.8,2.14,9.92,3.61,15.26l-17.14,17.13c-2.41-7.28-4.34-14.31-5.87-20.92a246.08,246.08,0,0,1-4.37-24.47,34.56,34.56,0,0,1,34.3-38.86Z"/><path class="cls-5" d="M311.72,182.76l-7.79,26.68a161.33,161.33,0,0,0-17-4.07,14.78,14.78,0,0,0,5.74-3.56Z"/><path class="cls-5" d="M152.94,631.53v48.28a14.55,14.55,0,0,1-14.56,14.55H44.5a14.55,14.55,0,0,1-14.56-14.55V585.92A14.57,14.57,0,0,1,44.5,571.36h93.88a14.56,14.56,0,0,1,14.56,14.56ZM90.32,664.25l42.76-50.5-15.62-13.21L87.9,635.46,66,617,52.81,632.64Z"/><polygon points="133.08 613.75 90.32 664.25 52.81 632.64 66 617 87.9 635.46 117.46 600.54 133.08 613.75"/><path d="M142,116.59l-20.69,5.61a40.38,40.38,0,0,0-28.4,28.43l-5.59,20.65-5.6-20.65a40.38,40.38,0,0,0-28.4-28.43l-20.69-5.61L53.35,111a40.4,40.4,0,0,0,28.4-28.43l5.6-20.64,5.59,20.64A40.4,40.4,0,0,0,121.34,111Z"/><path class="cls-2" d="M132,106.59l-20.69,5.61a40.38,40.38,0,0,0-28.4,28.43l-5.59,20.65-5.6-20.65a40.38,40.38,0,0,0-28.4-28.43l-20.69-5.61L43.35,101a40.4,40.4,0,0,0,28.4-28.43l5.6-20.64,5.59,20.64A40.4,40.4,0,0,0,111.34,101Z"/><path class="cls-6" d="M798,142.48c-3.81-4.77-5.77-7.27-5.79-7.29-.67-.7-1.31-1.42-2-2.11"/><path class="cls-6" d="M739.82,831.64V785.36a76.85,76.85,0,0,1,19.42-51.06C784.37,706,977.34,490,979.9,486.7a108.18,108.18,0,0,0,20.85-80.17c-4.92-35.69-22.71-52.7-42.46-75-23.56-26.63-44.85-51.14-63.72-73.14-48.9-57-81.52-97.24-95.13-114.22"/><path class="cls-6" d="M299.13,831.64h655A451.76,451.76,0,0,0,885.9,592.28"/><path class="cls-6" d="M790.42,482.58a452.82,452.82,0,0,0-220.57-100"/><path class="cls-6" d="M433.93,382a452.25,452.25,0,0,0-222.52,98.66"/><path class="cls-6" d="M66.47,694.36A452.88,452.88,0,0,0,45.28,831.64H299.13"/><path class="cls-6" d="M152.94,631.53l91.6,102.77A76.94,76.94,0,0,1,264,785.36v46.28"/><path class="cls-6" d="M213.51,133.08c-.67.69-1.34,1.39-2,2.11,0,0-2,2.52-5.78,7.29"/><path class="cls-6" d="M739.78,287.42c15.65,18.27,88.12,103.31,106,124.39a10.75,10.75,0,0,1-.43,14.36c-19.23,20.1-102.42,103.59-114.62,115.42C662.65,607.6,611,653.26,571.6,690.87a100.95,100.95,0,0,1-139.42,0c-46.31-44.23-109.65-99.63-196.69-186.14-7.83-7.78-58.55-59.21-77.07-78.56a10.73,10.73,0,0,1-.43-14.36C175.43,391.25,248.06,306,264,287.42"/><path class="cls-6" d="M692.05,182.76,690,175.58a15,15,0,0,0-14.43-10.81H675A11.27,11.27,0,0,0,664.27,176v26.69a52.54,52.54,0,0,0,.49,7.22,53.42,53.42,0,0,0,7.17,20.37,52.65,52.65,0,0,0,19.45,18.89c15.11,8.47,33.76,21.13,48.29,38.08l.11.13"/><path class="cls-6" d="M773,217.35c-15.41-9.93-28.56-13.9-43.53-13.37a91.15,91.15,0,0,0-12.61,1.39,164,164,0,0,0-17,4.07l-7.78-26.67"/><path class="cls-6" d="M230.8,217.35c15.41-9.93,28.55-13.9,43.52-13.37a91.29,91.29,0,0,1,12.62,1.39,161.33,161.33,0,0,1,17,4.07l9.89-33.86a15,15,0,0,1,14.42-10.81h.53A11.27,11.27,0,0,1,339.51,176v26.69a53.59,53.59,0,0,1-7.66,27.6,52.85,52.85,0,0,1-19.45,18.88c-15.12,8.47-33.76,21.13-48.3,38.08l-.11.13"/><path class="cls-6" d="M735,183.85a14.92,14.92,0,0,1,1.42,9.94,15.3,15.3,0,0,1-4.2,7.8,15.62,15.62,0,0,1-2.82,2.23"/><path class="cls-6" d="M268.74,183.85a14.86,14.86,0,0,0-1.42,9.94,15.49,15.49,0,0,0,7,10"/><path class="cls-6" d="M716.84,205.37a14.78,14.78,0,0,1-5.74-3.56l-19.05-19.05"/><path class="cls-6" d="M286.94,205.37a14.78,14.78,0,0,0,5.74-3.56l19-19.05"/><path class="cls-6" d="M727.84,103.71c3.46-2.86,7-5.65,10.19-8.14a16.36,16.36,0,0,1,8.05-3.33"/><path class="cls-6" d="M724.06,106.87c1.24-1.05,2.5-2.11,3.77-3.16"/><path class="cls-6" d="M722.36,108.33l.12-.1,1.57-1.35"/><path class="cls-6" d="M275.94,103.71c-3.47-2.86-7-5.65-10.2-8.14a16.29,16.29,0,0,0-8-3.33"/><path class="cls-6" d="M279.72,106.87c-1.24-1.05-2.5-2.11-3.77-3.16"/><path class="cls-6" d="M281.42,108.33l-.12-.1-1.57-1.35"/><path class="cls-6" d="M765.48,103.71c7.74,9.11,33.84,40.36,34,40.5"/><path class="cls-6" d="M238.3,103.71c-7.75,9.11-33.85,40.36-34,40.5-14.46,17.44-49,60.59-101.28,121.37-17.32,20.12-36.55,42.21-57.58,66C25.73,353.83,8,370.84,3,406.53A108.14,108.14,0,0,0,23.88,486.7c2.25,2.92,31.58,35.74,75.31,84.66"/><path class="cls-6" d="M750.52,157.44a14.82,14.82,0,0,0,21,0l8.3-8a10.84,10.84,0,0,0,.34-15.28l-.54-.56a10.82,10.82,0,0,0-13.05-2l-24-24.05c1.47-5.34,2.65-10.46,3.61-15.26,1.14-5.74,2-11,2.55-15.68a13.17,13.17,0,0,0-13.08-14.79H643.12"/><path class="cls-6" d="M724.06,106.87h0a13.25,13.25,0,0,0-1.17,1c-.14.13-.27.25-.4.39a14.93,14.93,0,0,0-.12,21"/><path class="cls-6" d="M279.72,106.87h0a14.88,14.88,0,0,1,1.17,1l.4.39a14.94,14.94,0,0,1,.12,21l-28.17,28.16a14.81,14.81,0,0,1-20.94,0l-8.31-8a10.85,10.85,0,0,1-.34-15.28l.54-.56a10.83,10.83,0,0,1,13.06-2l24.05-24.05c-1.47-5.34-2.66-10.46-3.61-15.26-1.15-5.74-2-11-2.55-15.68a13.17,13.17,0,0,1,13.08-14.79h92.42"/><path class="cls-6" d="M360.65,40.38V19.66a8.3,8.3,0,0,1,8.3-8.29H634.83a8.29,8.29,0,0,1,8.29,8.29v97a141,141,0,0,1-133,141c-2.71.16-5.43.24-8.18.24s-5.47-.08-8.18-.24a141.21,141.21,0,0,1-133.06-141Z"/><path class="cls-6" d="M585.07,230.81h0c30.52-1.94,57.14-8.91,79.67-20.86"/><path class="cls-6" d="M418.7,230.81C388.17,228.87,361.55,221.9,339,210"/><path class="cls-6" d="M643.12,40.38h92.43a34.56,34.56,0,0,1,34.3,38.86,246.08,246.08,0,0,1-4.37,24.47c-1.53,6.61-3.46,13.64-5.87,20.92"/><path class="cls-6" d="M360.65,40.38H268.23a34.56,34.56,0,0,0-34.3,38.86,246.08,246.08,0,0,0,4.37,24.47c1.53,6.61,3.46,13.64,5.87,20.92"/><path class="cls-6" d="M671.92,230.33c-29.41,14.94-64.54,22.43-105,22.43q-11.79,0-24.19-.84"/><path class="cls-6" d="M331.85,230.33c29.42,14.94,64.55,22.43,105,22.43q11.79,0,24.18-.84"/><path class="cls-6" d="M697.49,125.36c14.2-15.5,26.85-23.75,30.34-21.65h0"/><path class="cls-6" d="M736.08,184.89l-38.59-38.58a14.82,14.82,0,0,1-.13-20.82"/><path class="cls-6" d="M722.36,129.28l35.5,35.51a14.81,14.81,0,1,1-20.94,20.94l-.84-.83"/><path class="cls-6" d="M306.28,125.36c-14.19-15.5-26.85-23.75-30.33-21.65h0"/><path class="cls-6" d="M281.42,129.28l-35.51,35.51a14.81,14.81,0,1,0,21,20.94l39.42-39.42a14.8,14.8,0,0,0,.13-20.82"/><path class="cls-6" d="M675,164.78a15.1,15.1,0,0,1,2.64-17.36,266.23,266.23,0,0,1,19.71-21.93l.13-.13"/><path class="cls-6" d="M328.77,164.78a15.1,15.1,0,0,0-2.65-17.36,266.23,266.23,0,0,0-19.71-21.93l-.13-.13"/><path class="cls-6" d="M736.46,193.79a14.41,14.41,0,0,0-27.2,6.17"/><path class="cls-6" d="M267.32,193.79a14.41,14.41,0,0,1,27.2,6.17"/><path class="cls-6" d="M762.2,175.49a0,0,0,0,0,0,0,14.41,14.41,0,0,0-26.14,8.37c0,.35,0,.69,0,1h0"/><path class="cls-6" d="M241.58,175.49a0,0,0,0,1,0,0,14.41,14.41,0,0,1,26.14,8.37c0,.35,0,.7,0,1.05"/><path class="cls-6" d="M487.06,314.48a30.86,30.86,0,1,0,23-56.82"/><path class="cls-6" d="M493.71,257.66a30.86,30.86,0,0,0-6.65,56.81"/><path class="cls-6" d="M487.06,314.47h0c0,17.37-3.7,41.85-37.33,47.56a18.86,18.86,0,0,0-15.8,18.56v2H569.85v-2A18.87,18.87,0,0,0,554.05,362c-33.63-5.71-37.34-30.19-37.34-47.56h0"/><polygon class="cls-6" points="428.02 123.38 461.6 89.71 497.23 123.02 558.53 61.57 592.17 95.13 498.38 189.15 428.02 123.38"/><path class="cls-6" d="M547.71,573l.66-.7c-.51-.29-1-.56-1.56-.83"/><path class="cls-6" d="M568.48,496.38a84.19,84.19,0,1,0-84.53,103c.82,0,1.64,0,2.47,0A83.94,83.94,0,0,0,547.71,573"/><path class="cls-6" d="M412.35,475.22A427.72,427.72,0,0,0,480,460.36c7,24.93,14.49,41.26,26.67,51.1a25.79,25.79,0,1,1,31,35.84,85.15,85.15,0,0,0,9.15,24.12c.29.52.59,1,.9,1.53"/><path class="cls-6" d="M568.48,496.38c0,.12,0,.23.08.35a44.58,44.58,0,0,0,43.22,34.33,44.06,44.06,0,0,0,20.06-4.79"/><path class="cls-6" d="M484,599.4a44.43,44.43,0,0,0,35.19,55.32,75.06,75.06,0,0,0-.61,9.54,73.35,73.35,0,0,0,18.11,48.37h0"/><path class="cls-6" d="M861.29,831.64a152.53,152.53,0,0,0,9.55-22.39,150.76,150.76,0,0,0-38.71-156.77"/><path class="cls-6" d="M730.74,541.59a85.67,85.67,0,0,0-98.81-15.36l-.09,0"/><path class="cls-6" d="M450.79,503.07c-6.19,12.14-11.88,18.09-20.62,28L443,539.8"/><path class="cls-6" d="M664.27,315a19,19,0,1,0-19,19A19,19,0,0,0,664.27,315Z"/><path class="cls-6" d="M170.25,2l-2.83,10.44a20.47,20.47,0,0,1-14.37,14.38l-10.46,2.84,10.46,2.84a20.42,20.42,0,0,1,14.37,14.38l2.83,10.44,2.82-10.44A20.42,20.42,0,0,1,187.44,32.5l10.47-2.84-10.47-2.84a20.47,20.47,0,0,1-14.37-14.38Z"/><path class="cls-6" d="M152.94,631.53v48.28a14.55,14.55,0,0,1-14.56,14.55H44.5a14.55,14.55,0,0,1-14.56-14.55V585.92A14.57,14.57,0,0,1,44.5,571.36h93.88a14.56,14.56,0,0,1,14.56,14.56Z"/><polygon class="cls-6" points="90.32 664.25 52.81 632.64 66 617 87.9 635.46 117.46 600.54 133.08 613.75 90.32 664.25"/><line class="cls-6" x1="795.66" y1="352.85" x2="894.57" y2="258.43"/><line class="cls-6" x1="103.06" y1="265.58" x2="206.95" y2="354.21"/></g></g></svg>