<svg xmlns="http://www.w3.org/2000/svg" xmlns:xlink="http://www.w3.org/1999/xlink" viewBox="0 0 893.78 839.17"><defs><style>.cls-1,.cls-2,.cls-6{fill:none;}.cls-2,.cls-6{stroke:#000;stroke-linecap:round;stroke-linejoin:round;}.cls-2{stroke-width:1.5px;}.cls-3{fill:#fff;}.cls-4{fill:url(#New_Pattern_4);}.cls-5{fill:#3496f7;}.cls-6{stroke-width:4px;}.cls-7{fill:#d3e5fb;}.cls-8{fill:url(#New_Pattern_3);}</style><pattern id="New_Pattern_4" data-name="New Pattern 4" width="70" height="50" patternTransform="translate(0 -30)" patternUnits="userSpaceOnUse" viewBox="0 0 70 50"><rect class="cls-1" width="70" height="50"/><path class="cls-2" d="M8.89,100c-.05-7.08.29-14.17.29-21.25,0-4.32-.37-17.48-.29-28.09"/><path class="cls-2" d="M22.94,99.84c0-1.65.09-3.31.09-5,0-2.48-.21-5-.21-7.45s0-3.83.05-7.28c0-1.44-.06-2.9-.06-4.35,0-3.1.31-4.62.31-7.37,0-1.4-.27-4.94-.27-8.33q0-1.61.09-3.21V50.11"/><path class="cls-2" d="M36.74,99.84c0-9.46.33-18.09.33-27.56,0-3.7-.15-7.46-.15-11.2,0-3.35-.1-7.29-.18-10.75"/><path class="cls-2" d="M50.93,99.75c0-1.24-.07-2.75-.07-4,0-1.92,0-3.86,0-5.79,0-3.87,0-7.66,0-11.51a8.42,8.42,0,0,1-.08-1.22c0-.32.18-6.68.18-8,0-2.2-.21-3.25-.21-5.64,0-1.3.06-2.65.17-3.86,0-2.89,0-5.89,0-9.05"/><path class="cls-2" d="M65,99.71c0-8.34-.55-15.73-.36-24.06.18-8.13.16-17.71.36-25.19"/><path class="cls-2" d="M8.89,50c-.05-7.08.29-14.17.29-21.25,0-4.32-.37-17.48-.29-28.09"/><path class="cls-2" d="M22.94,49.84c0-1.65.09-3.31.09-5,0-2.48-.21-5-.21-7.45s0-3.83.05-7.28c0-1.44-.06-2.9-.06-4.35,0-3.1.31-4.62.31-7.37,0-1.4-.27-4.94-.27-8.33q0-1.6.09-3.21V.11"/><path class="cls-2" d="M36.74,49.84c0-9.46.33-18.09.33-27.56,0-3.7-.15-7.46-.15-11.2,0-3.35-.1-7.29-.18-10.75"/><path class="cls-2" d="M50.93,49.75c0-1.24-.07-2.75-.07-4,0-1.92,0-3.86,0-5.79,0-3.87,0-7.66,0-11.51a8.42,8.42,0,0,1-.08-1.22c0-.32.18-6.68.18-8,0-2.2-.21-3.25-.21-5.64,0-1.3.06-2.65.17-3.86,0-2.89,0-5.89,0-9"/><path class="cls-2" d="M65,49.71c0-8.34-.55-15.73-.36-24.06.18-8.13.16-17.71.36-25.19"/><path class="cls-2" d="M8.89,0c-.05-7.08.29-14.17.29-21.25,0-4.32-.37-17.48-.29-28.09"/><path class="cls-2" d="M22.94-.16c0-1.65.09-3.31.09-5,0-2.48-.21-5-.21-7.45s0-3.83.05-7.28c0-1.44-.06-2.9-.06-4.35,0-3.1.31-4.62.31-7.37,0-1.4-.27-4.94-.27-8.33q0-1.61.09-3.21v-6.71"/><path class="cls-2" d="M36.74-.16c0-9.46.33-18.09.33-27.56,0-3.7-.15-7.46-.15-11.2,0-3.35-.1-7.29-.18-10.75"/><path class="cls-2" d="M50.93-.25c0-1.24-.07-2.75-.07-4,0-1.92,0-3.86,0-5.79,0-3.87,0-7.66,0-11.51a8.42,8.42,0,0,1-.08-1.22c0-.32.18-6.68.18-8,0-2.2-.21-3.25-.21-5.64,0-1.3.06-2.65.17-3.86,0-2.89,0-5.89,0-9.05"/><path class="cls-2" d="M65-.29c0-8.34-.55-15.73-.36-24.06.18-8.13.16-17.71.36-25.19"/></pattern><pattern id="New_Pattern_3" data-name="New Pattern 3" width="40" height="40" patternTransform="translate(0 -30)" patternUnits="userSpaceOnUse" viewBox="0 0 40 40"><rect class="cls-1" width="40" height="40"/><path d="M36.18,30a1.9,1.9,0,0,0,1.91,1.91V28.09A1.9,1.9,0,0,0,36.18,30Z"/><path d="M40,33.82a1.9,1.9,0,0,0,1.91-1.91H38.09A1.9,1.9,0,0,0,40,33.82Z"/><path d="M40,26.18a1.9,1.9,0,0,0-1.91,1.91h3.82A1.9,1.9,0,0,0,40,26.18Z"/><path d="M16.18,40a1.9,1.9,0,0,0,1.91,1.91V38.09A1.9,1.9,0,0,0,16.18,40Z"/><path d="M21.91,38.09v3.82a1.91,1.91,0,0,0,0-3.82Z"/><path d="M20,36.18a1.9,1.9,0,0,0-1.91,1.91h3.82A1.9,1.9,0,0,0,20,36.18Z"/><path d="M1.91,28.09v3.82a1.91,1.91,0,0,0,0-3.82Z"/><path d="M36.18,10a1.9,1.9,0,0,0,1.91,1.91V8.09A1.9,1.9,0,0,0,36.18,10Z"/><path d="M40,13.82a1.9,1.9,0,0,0,1.91-1.91H38.09A1.9,1.9,0,0,0,40,13.82Z"/><path d="M40,6.18a1.9,1.9,0,0,0-1.91,1.91h3.82A1.9,1.9,0,0,0,40,6.18Z"/><path d="M18.79,16.37a1.92,1.92,0,0,0-1.21,2.42l3.63-1.21A1.92,1.92,0,0,0,18.79,16.37Z"/><path d="M22.42,21.21l-3.63,1.21a1.91,1.91,0,0,0,3.63-1.21Z"/><path d="M16.37,21.21a1.92,1.92,0,0,0,2.42,1.21l-1.21-3.63A1.92,1.92,0,0,0,16.37,21.21Z"/><path d="M23.63,18.79a1.92,1.92,0,0,0-2.42-1.21l1.21,3.63A1.92,1.92,0,0,0,23.63,18.79Z"/><path d="M1.91,8.09v3.82a1.91,1.91,0,0,0,0-3.82Z"/><path d="M20,3.82a1.9,1.9,0,0,0,1.91-1.91H18.09A1.9,1.9,0,0,0,20,3.82Z"/><path d="M0,33.82a1.9,1.9,0,0,0,1.91-1.91H-1.91A1.9,1.9,0,0,0,0,33.82Z"/><path d="M0,26.18a1.9,1.9,0,0,0-1.91,1.91H1.91A1.9,1.9,0,0,0,0,26.18Z"/><path d="M0,13.82a1.9,1.9,0,0,0,1.91-1.91H-1.91A1.9,1.9,0,0,0,0,13.82Z"/><path d="M0,6.18A1.9,1.9,0,0,0-1.91,8.09H1.91A1.9,1.9,0,0,0,0,6.18Z"/><path d="M16.18,0a1.9,1.9,0,0,0,1.91,1.91V-1.91A1.9,1.9,0,0,0,16.18,0Z"/><path d="M21.91-1.91V1.91A1.9,1.9,0,0,0,23.82,0,1.9,1.9,0,0,0,21.91-1.91Z"/></pattern></defs><g id="Layer_2" data-name="Layer 2"><g id="illustrations"><path class="cls-3" d="M455.2,175.63h0V322.5H224.78V23.75h48.7v18.6h133V23.75h48.7V66.94a64.68,64.68,0,0,0,0,108.69Z"/><path class="cls-4" d="M455.2,175.63h0V322.5H224.78V23.75h48.7v18.6h133V23.75h48.7V66.94a64.68,64.68,0,0,0,0,108.69Z"/><path d="M490.27,56.61a64.66,64.66,0,1,1-35.08,10.33A64.68,64.68,0,0,1,490.27,56.61Zm39.38,51.12L514.4,92.52l-27.78,27.85-16.15-15.09-15.21,15.25,31.88,29.81Z"/><polygon class="cls-3" points="514.4 92.52 529.65 107.73 487.14 150.34 455.26 120.53 470.47 105.28 486.62 120.37 514.4 92.52"/><path class="cls-5" d="M406.49,23.75v18.6h-133V18.42h34a40.36,40.36,0,0,1,65,0h34Z"/><path class="cls-6" d="M455.2,175.63a64.68,64.68,0,1,0-29.61-54.34A64.38,64.38,0,0,0,455.2,175.63Z"/><path class="cls-6" d="M273.48,23.75V18.42h34a40.36,40.36,0,0,1,65,0h34V42.35h-133Z"/><polyline class="cls-6" points="406.49 23.75 455.19 23.75 455.19 66.94"/><polyline class="cls-6" points="455.19 175.64 455.19 322.5 224.78 322.5 224.78 23.75 273.48 23.75"/><polygon class="cls-6" points="455.26 120.53 470.47 105.28 486.62 120.37 514.4 92.52 529.65 107.73 487.14 150.34 455.26 120.53"/><path class="cls-3" d="M858.83,542.68H840.51a39.94,39.94,0,0,1-36.18-22.86c-.28-.6-.6-1.32-.85-1.93L787.15,479,857.49,446h0c15.82,33.11,25.75,54.38,30.86,66.35a42.69,42.69,0,0,1-4.54,41.58l-20.14,28.16a12.36,12.36,0,0,1-20.59-13.64Z"/><path class="cls-7" d="M726.13,334.34v46.27h-139c-4.46-32.91-5.67-51.43,0-84.29l-59.61,51.5A58.21,58.21,0,0,1,454,349.91l-86.53-66.6A170,170,0,0,0,364.89,225l46.34-39.53,81.3,100.94,71.1-61.21a32.84,32.84,0,0,1,46.31,3.46,33.36,33.36,0,0,1,4.11,6,55.69,55.69,0,0,0,45.77,23.77c17.76,0,33.09-8.8,43.67-21.17,0,0,0,0,0,0,.68-.79,1.34-1.59,2-2.41h0a32.85,32.85,0,0,1,54.08,7.88c44.9,93.13,76.71,158.85,97.94,203.27h0l-87.56,41.18Z"/><path class="cls-5" d="M740.17,456.44a73,73,0,0,1-71.75,86.24h-56.6a16.11,16.11,0,0,0-11.35,4.69l-252,251.16-77.87-77.87L551.87,439.44l35.28-58.83h139Z"/><path class="cls-3" d="M705.47,234.82c-.63.82-1.29,1.62-2,2.41C704.12,236.4,704.77,235.59,705.47,234.82Z"/><path class="cls-3" d="M274.19,138.44a9.43,9.43,0,0,1,6.29-7.55l17.81-6.69a168.15,168.15,0,0,0-46.82-23.56h0A10.33,10.33,0,0,1,264,86.15c22.38,7.5,76.16,26.66,102.26,45.91.91.68,1.8,1.36,2.64,2a38.4,38.4,0,0,1,4.53,4.41c.33.38.75.88,1.06,1.27l36.78,45.68L364.89,225a168,168,0,0,0-27.59-61.77c-4.52-6.3-9-5.94-15.62-8.42A71.07,71.07,0,0,0,298,150.12c-2.2,0-4.59,0-7.2,0q-2.94,0-6.29.2C277.31,150.66,273.29,144.17,274.19,138.44Z"/><path class="cls-3" d="M342.61,244a142,142,0,0,0-5.47-25.43,144.27,144.27,0,0,0-46.32-68.39v0c2.61,0,5,0,7.2,0a71.07,71.07,0,0,1,23.66,4.67c6.64,2.48,11.1,2.12,15.62,8.42a168.31,168.31,0,0,1,31.56,99.18,170,170,0,0,1-1.4,20.92c-9.68,74.51-68.35,134-142.25,145.24a168.09,168.09,0,0,1-26.22,1.9,170.74,170.74,0,0,1-24.31-1.88A168.93,168.93,0,0,1,31,262.5c-.51-93,75.1-169.41,168.07-169.87a168.28,168.28,0,0,1,99.18,31.57l-17.81,6.69a9.43,9.43,0,0,0-6.29,7.55A143.75,143.75,0,1,0,343.64,265c0-1.14,0-2.29,0-3.44A143.2,143.2,0,0,0,342.61,244Z"/><path class="cls-3" d="M366.22,132.06c.9.63,1.78,1.31,2.64,2C368,133.42,367.13,132.74,366.22,132.06Z"/><path d="M348.45,798.46l-29,29-13.3-13.3,10.92-10.92-1.64,0a51.14,51.14,0,0,1-35.19-15l-44.68-44.69-1-29.78c18.05,7.37,37.44,20.3,43.49,14.25Z"/><path class="cls-3" d="M343.68,261.54c0,1.15,0,2.3,0,3.44l-13.47-10.37L342.61,244A143.2,143.2,0,0,1,343.68,261.54Z"/><path class="cls-3" d="M337.14,218.56,313.2,191.22a39.9,39.9,0,0,1-9.8-29.46A143.53,143.53,0,0,1,337.14,218.56Z"/><path class="cls-3" d="M237.34,798.53A37.42,37.42,0,1,1,162.55,801c0-.79,0-1.67,0-2.45L172.6,492h54.69l7.27,221.77c-11.71-4.78-22.87-7.23-29.45-.65l30.43,30.43Z"/><path d="M234.56,713.81l1,29.78-30.43-30.43C211.69,706.58,222.85,709,234.56,713.81Z"/><path class="cls-5" d="M225.21,428.55,227.29,492H172.6l.63-19.19a13.17,13.17,0,0,0,.86-26.24l.59-18A170.74,170.74,0,0,0,199,430.45,168.09,168.09,0,0,0,225.21,428.55Z"/><path d="M174.09,446.61a13.17,13.17,0,0,1-.86,26.24Z"/><path class="cls-6" d="M368.86,134.09c-.84-.67-1.73-1.35-2.64-2-26-19.33-79.88-38.41-102.26-45.91a10.33,10.33,0,0,0-12.49,14.48"/><path class="cls-6" d="M840.06,542.68h28.81a7.24,7.24,0,0,0,5.33-12.13,7.09,7.09,0,0,0-4.7-2.31A63.13,63.13,0,0,1,837,516.61"/><line class="cls-6" x1="726.13" y1="380.61" x2="726.13" y2="296.32"/><path class="cls-6" d="M278.05,728.06c-6.05,6.05-25.44-6.88-43.49-14.25-11.71-4.78-22.87-7.23-29.45-.65l75.11,75.12a51.14,51.14,0,0,0,35.19,15l1.64,0-10.92,10.92,13.3,13.3,29-29"/><path class="cls-6" d="M840.51,542.68a39.94,39.94,0,0,1-36.18-22.86c-.28-.6-.6-1.32-.85-1.93L787.15,479"/><path class="cls-6" d="M337.15,218.57,313.2,191.22a39.9,39.9,0,0,1-9.8-29.46"/><path class="cls-6" d="M703.5,237.23c.68-.79,1.34-1.59,2-2.41"/><path class="cls-6" d="M366.22,132.06c.9.63,1.78,1.31,2.64,2a39.21,39.21,0,0,1,4.53,4.41c.33.38.75.88,1.06,1.27L492.53,286.39l71.1-61.21a32.84,32.84,0,0,1,46.31,3.46,33.36,33.36,0,0,1,4.11,6,55.69,55.69,0,0,0,45.77,23.77c17.76,0,33.09-8.8,43.67-21.17"/><path class="cls-6" d="M703.49,237.25s0,0,0,0c.62-.83,1.27-1.64,2-2.41h0a32.85,32.85,0,0,1,54.08,7.88c44.9,93.13,123.69,257.65,128.8,269.62a42.69,42.69,0,0,1-4.54,41.58l-20.14,28.16a12.36,12.36,0,0,1-20.59-13.64l15.74-25.73"/><polyline class="cls-6" points="857.49 445.96 769.93 487.14 726.13 334.34"/><path class="cls-6" d="M274.21,138.45h0A143.75,143.75,0,1,0,200,405.28c78.23,0,141.75-62.5,143.69-140.3,0-1.14,0-2.29,0-3.44A145.21,145.21,0,0,0,342.61,244a144,144,0,0,0-51.79-93.82"/><path class="cls-6" d="M290.82,150.13q-2.94,0-6.29.2c-7.22.33-11.23-6.16-10.34-11.89a9.43,9.43,0,0,1,6.29-7.55l17.81-6.69a168.28,168.28,0,0,0-99.18-31.57c-93,.46-168.58,76.9-168.07,169.87A168.93,168.93,0,0,0,174.68,428.57,170.74,170.74,0,0,0,199,430.45a168.09,168.09,0,0,0,26.22-1.9c73.9-11.22,132.58-70.73,142.25-145.24A170,170,0,0,0,364.89,225a168,168,0,0,0-27.59-61.77c-4.52-6.3-9-5.94-15.62-8.42A71.07,71.07,0,0,0,298,150.12C295.82,150.08,293.43,150.09,290.82,150.13Z"/><line class="cls-6" x1="411.24" y1="185.44" x2="364.89" y2="224.98"/><polyline class="cls-6" points="342.62 243.98 330.17 254.61 343.64 264.98"/><path class="cls-6" d="M367.46,283.31,454,349.91a58.21,58.21,0,0,0,73.55-2.09l59.61-51.5c-5.67,32.86-4.46,51.38,0,84.29l-35.28,58.83L270.65,720.66l77.87,77.87,252-251.16a16.11,16.11,0,0,1,11.35-4.69h56.6a73,73,0,0,0,71.75-86.24l-14-75.83h-139"/><path class="cls-6" d="M225.21,428.55l12.13,370A37.42,37.42,0,1,1,162.55,801c0-.79,0-1.67,0-2.45l12.13-369.95"/><line class="cls-6" x1="172.6" y1="492.04" x2="227.29" y2="492.04"/><path class="cls-6" d="M173.23,472.85a13.17,13.17,0,0,0,.86-26.24"/><path d="M716.29,209.21H667.14c.29-1.42.57-2.83.83-4.23,3.25-17.46,4-33-.83-48.32,0,0-14.49,3.13-39.85,3.37a5.29,5.29,0,0,0-4.68,2.95c-.42.86-.8,1.73-1.14,2.63-.15-1.47-.36-3-.63-4.55a22.39,22.39,0,0,1,10.74-23.37c7-4,15.77-5,22.79-1.63,14.12-8.79,27.36,4.71,31.5,20.21C689.38,169.39,716.29,209.21,716.29,209.21Z"/><path class="cls-3" d="M667.14,156.66C672,172,671.22,187.52,668,205a32.17,32.17,0,0,1-16.33,4.43c-.8,0-1.6,0-2.41-.09a32.43,32.43,0,0,1-29.1-25.23,30.45,30.45,0,0,1-.71-5,32.34,32.34,0,0,1,2.05-13.49c.34-.9.72-1.77,1.14-2.63a5.29,5.29,0,0,1,4.68-2.95C652.65,159.79,667.14,156.66,667.14,156.66Z"/><path d="M651.64,209.41H606c5.88-7.71,11.42-15.51,14.09-25.32h0a32.43,32.43,0,0,0,29.1,25.23C650,209.38,650.84,209.41,651.64,209.41Z"/><path class="cls-6" d="M668,205a32.17,32.17,0,0,1-16.33,4.43c-.8,0-1.6,0-2.41-.09a32.49,32.49,0,0,1-29.1-25.23,31.57,31.57,0,0,1-.71-5,32.34,32.34,0,0,1,2.05-13.49c.34-.9.72-1.77,1.14-2.63a5.29,5.29,0,0,1,4.68-2.95c25.36-.24,39.85-3.37,39.85-3.37C672,172,671.22,187.52,668,205c-.26,1.4-.54,2.81-.83,4.23h49.15s-26.91-39.82-30.42-52.94c-4.14-15.5-17.38-29-31.5-20.21-7-3.38-15.77-2.35-22.79,1.63a22.39,22.39,0,0,0-10.74,23.37c.27,1.56.48,3.08.63,4.55"/><path class="cls-6" d="M620.12,184.09c-2.67,9.81-8.21,17.61-14.09,25.32h45.61"/><path class="cls-7" d="M261.39,205.48v117h-117v-117Zm-17.77,78.76a.53.53,0,0,0,.14-.44l-2.68-14.45a.48.48,0,0,0-.3-.36.49.49,0,0,0-.47,0L228,277.09a.66.66,0,0,0-.14.15.48.48,0,0,0-.08.32.52.52,0,0,0,.31.41l3.77,1.61a32.83,32.83,0,0,1-60.34-6.18l-6.72,2A40.08,40.08,0,0,0,203,303.84a39.42,39.42,0,0,0,27.52-11.06l.64-.63a39.86,39.86,0,0,0,7.21-9.8l4.69,2a.48.48,0,0,0,.2,0,.51.51,0,0,0,.31-.11ZM235,256.37l6.83-1.63a39.88,39.88,0,0,0-75.11-7.1l-4-1.68a.5.5,0,0,0-.51.07l0,0h0a.51.51,0,0,0-.13.44L164.7,261a.46.46,0,0,0,.29.37.34.34,0,0,0,.19,0,.44.44,0,0,0,.28-.08l12.28-8.06a.48.48,0,0,0,.22-.47.47.47,0,0,0-.3-.41l-4.54-1.93a33.81,33.81,0,0,1,2.59-4.64A32.83,32.83,0,0,1,235,256.37Z"/><path d="M243.76,283.8a.53.53,0,0,1-.14.44l0,0a.51.51,0,0,1-.31.11.48.48,0,0,1-.2,0l-4.69-2a39.86,39.86,0,0,1-7.21,9.8l-.64.63A39.42,39.42,0,0,1,203,303.84a40.08,40.08,0,0,1-38.18-28.44l6.72-2a32.85,32.85,0,0,0,60.34,6.18L228.12,278a.52.52,0,0,1-.31-.41.48.48,0,0,1,.08-.32.66.66,0,0,1,.14-.15L240.31,269a.49.49,0,0,1,.47,0,.48.48,0,0,1,.3.36Z"/><path d="M241.78,254.74,235,256.37a32.83,32.83,0,0,0-59.24-10.6,33.81,33.81,0,0,0-2.59,4.64l4.54,1.93a.47.47,0,0,1,.3.41.48.48,0,0,1-.22.47l-12.28,8.06a.44.44,0,0,1-.28.08.34.34,0,0,1-.19,0,.46.46,0,0,1-.29-.37L162,246.51a.51.51,0,0,1,.13-.44h0l0,0a.5.5,0,0,1,.51-.07l4,1.68a39.85,39.85,0,0,1,75.11,7.1Z"/><rect class="cls-6" x="144.38" y="205.48" width="117.01" height="117.02"/><path class="cls-6" d="M243.62,284.24a.53.53,0,0,0,.14-.44l-2.68-14.45a.48.48,0,0,0-.3-.36.49.49,0,0,0-.47,0L228,277.09a.66.66,0,0,0-.14.15.48.48,0,0,0-.08.32.52.52,0,0,0,.31.41l3.77,1.61a32.83,32.83,0,0,1-60.34-6.18l-6.72,2A40.08,40.08,0,0,0,203,303.84a39.42,39.42,0,0,0,27.52-11.06l.64-.63a39.86,39.86,0,0,0,7.21-9.8l4.69,2a.48.48,0,0,0,.2,0,.51.51,0,0,0,.31-.11Z"/><path class="cls-6" d="M162.14,246.07a.51.51,0,0,0-.13.44L164.7,261a.46.46,0,0,0,.29.37.34.34,0,0,0,.19,0,.44.44,0,0,0,.28-.08l12.28-8.06a.48.48,0,0,0,.22-.47.47.47,0,0,0-.3-.41l-4.54-1.93a33.81,33.81,0,0,1,2.59-4.64A32.83,32.83,0,0,1,235,256.37l6.83-1.63a39.88,39.88,0,0,0-75.11-7.1l-4-1.68a.5.5,0,0,0-.51.07l0,0Z"/><path class="cls-5" d="M117,695.88H48A41.47,41.47,0,0,0,6.78,654.41V584.89A111,111,0,0,1,117,695.88Z"/><path class="cls-3" d="M115.73,724.28V834H6V724.28ZM60.88,830.59l51.46-51.46L60.88,727.68,9.43,779.13Z"/><polygon class="cls-7" points="112.34 779.13 60.88 830.59 9.43 779.13 60.88 727.68 112.34 779.13"/><path class="cls-3" d="M60.88,459.73A58.88,58.88,0,1,1,2,518.61,58.89,58.89,0,0,1,60.88,459.73Zm20.55,58.88a20.55,20.55,0,1,0-20.55,20.55A20.55,20.55,0,0,0,81.43,518.61Z"/><path d="M60.88,498.06a20.55,20.55,0,1,1-20.54,20.55A20.55,20.55,0,0,1,60.88,498.06Z"/><path class="cls-3" d="M48,695.88H6.78V654.41A41.47,41.47,0,0,1,48,695.88Z"/><rect class="cls-6" x="6.03" y="724.28" width="109.7" height="109.7"/><polygon class="cls-6" points="60.88 727.68 9.43 779.13 60.88 830.59 112.34 779.13 60.88 727.68"/><path class="cls-6" d="M48,695.88H117a111,111,0,0,0-110.25-111v111Z"/><path class="cls-6" d="M48,695.88A41.47,41.47,0,0,0,6.78,654.41"/><path class="cls-6" d="M119.77,518.61a58.89,58.89,0,1,0-58.89,58.88A58.89,58.89,0,0,0,119.77,518.61Z"/><path class="cls-6" d="M81.43,518.61a20.55,20.55,0,1,0-20.55,20.55A20.55,20.55,0,0,0,81.43,518.61Z"/><path class="cls-5" d="M705.05,447.06a55,55,0,1,1-77.78,77.79L528.4,426a12,12,0,0,0-16.93,0l-79.55,79.56H276.35l184.9-184.9a83,83,0,0,1,117.37,0Z"/><path d="M376.45,505.53v37.15H357.64V527.24l-4.51,4.35a39.62,39.62,0,0,1-27.5,11.09H214.78c0-23.66,54.2-26.92,61.57-37.15Z"/><path class="cls-6" d="M668.42,542.68c-14.62.44-30-6.67-41.15-17.83L528.4,426a12,12,0,0,0-16.93,0l-79.55,79.56H276.35l184.9-184.9a83,83,0,0,1,117.37,0s127.42,127.44,127.9,128"/><path class="cls-6" d="M276.35,505.53C269,515.76,214.78,519,214.78,542.68H325.63a39.62,39.62,0,0,0,27.5-11.09l4.51-4.35v15.44h18.81V505.53"/><path class="cls-3" d="M840.06,542.68V834H650.64c-11.88-55.61-47-63.35-59.89-63.35-10.74,0-20.53,3.74-30.56,3.74-50.57,0-20.14-72.91-80.55-72.91-4.79,0-9.67.27-14.45.27-66.61,0-12.82-109.7-97.55-109.73V542.68Z"/><path class="cls-3" d="M650.64,834h-283V592c84.73,0,30.94,109.73,97.55,109.73,4.78,0,9.66-.27,14.45-.27,60.41,0,30,72.91,80.55,72.91,10,0,19.82-3.74,30.56-3.74C603.65,770.63,638.76,778.37,650.64,834Z"/><path class="cls-8" d="M650.64,834h-283V592c84.73,0,30.94,109.73,97.55,109.73,4.78,0,9.66-.27,14.45-.27,60.41,0,30,72.91,80.55,72.91,10,0,19.82-3.74,30.56-3.74C603.65,770.63,638.76,778.37,650.64,834Z"/><polygon class="cls-6" points="367.64 592 367.64 542.68 840.06 542.68 840.06 833.98 367.64 833.98 367.64 592"/><path class="cls-6" d="M367.64,592c84.73,0,30.94,109.73,97.55,109.73,4.78,0,9.66-.27,14.45-.27,60.41,0,30,72.91,80.55,72.91,10,0,19.82-3.74,30.56-3.74,12.9,0,48,7.74,59.89,63.35"/><path class="cls-5" d="M879.09,746.12V834H727.45V747a163.24,163.24,0,0,0,67.94,17.72v3.52a7.09,7.09,0,0,0,7.1,7.09H817a7.08,7.08,0,0,0,7.09-7.09V763.5A162.08,162.08,0,0,0,879.09,746.12Z"/><path class="cls-5" d="M879.09,705.36v40.76a162.08,162.08,0,0,1-55,17.38v-2a7.08,7.08,0,0,0-7.09-7.09H802.49a7.09,7.09,0,0,0-7.1,7.09v3.23A163.24,163.24,0,0,1,727.45,747V705.36a25.69,25.69,0,0,0-25.69-25.69H853.39A25.7,25.7,0,0,1,879.09,705.36Z"/><path class="cls-3" d="M831.81,679.67h-14s-3.05-31.31-34.4-35.4a53.16,53.16,0,0,1,7-.44C828.32,643.83,831.81,679.67,831.81,679.67Z"/><path class="cls-3" d="M824.12,763.5v4.77a7.08,7.08,0,0,1-7.09,7.09H802.49a7.09,7.09,0,0,1-7.1-7.09v-6.75a7.09,7.09,0,0,1,7.1-7.09H817a7.08,7.08,0,0,1,7.09,7.09Z"/><path class="cls-3" d="M817.83,679.67H749s3.05-31.31,34.4-35.4C814.78,648.36,817.83,679.67,817.83,679.67Z"/><path class="cls-3" d="M776.44,643.83h14a53.16,53.16,0,0,0-7,.44c-31.35,4.09-34.4,35.4-34.4,35.4h-14S738.54,643.83,776.44,643.83Z"/><path d="M727.45,747v87H676.07V705.36a25.69,25.69,0,0,1,51.38,0Z"/><path class="cls-6" d="M701.76,679.67a25.69,25.69,0,0,0-25.69,25.69V834h51.38V705.36A25.69,25.69,0,0,0,701.76,679.67Z"/><path class="cls-6" d="M701.76,679.67H853.39a25.7,25.7,0,0,1,25.7,25.69V834H727.45"/><path class="cls-6" d="M824.12,763.5a162.08,162.08,0,0,0,55-17.38"/><path class="cls-6" d="M727.45,747a163.24,163.24,0,0,0,67.94,17.72"/><path class="cls-6" d="M824.12,763.5v4.77a7.08,7.08,0,0,1-7.09,7.09H802.49a7.09,7.09,0,0,1-7.1-7.09v-6.75a7.09,7.09,0,0,1,7.1-7.09H817a7.08,7.08,0,0,1,7.09,7.09Z"/><path class="cls-6" d="M749,679.67s3.05-31.28,34.4-35.4a53.16,53.16,0,0,1,7-.44c37.9,0,41.39,35.84,41.39,35.84"/><path class="cls-6" d="M783.43,644.27c31.35,4.09,34.4,35.4,34.4,35.4"/><path class="cls-6" d="M735.05,679.67s3.49-35.84,41.39-35.84h14"/></g></g></svg>