<svg xmlns="http://www.w3.org/2000/svg" xmlns:xlink="http://www.w3.org/1999/xlink" viewBox="0 0 859.54 964.79"><defs><style>.cls-1,.cls-2,.cls-8{fill:none;}.cls-2,.cls-8{stroke:#000;stroke-linecap:round;stroke-linejoin:round;}.cls-2{stroke-width:1.5px;}.cls-3{fill:#3496f7;}.cls-4{fill:#d3e5fb;}.cls-5{fill:#fff;}.cls-6{fill:url(#New_Pattern_3);}.cls-7{fill:url(#New_Pattern_4);}.cls-8{stroke-width:4px;}</style><pattern id="New_Pattern_3" data-name="New Pattern 3" width="40" height="40" patternTransform="translate(-23.01 -67.09) scale(1.03)" patternUnits="userSpaceOnUse" viewBox="0 0 40 40"><rect class="cls-1" width="40" height="40"/><path d="M36.18,30a1.9,1.9,0,0,0,1.91,1.91V28.09A1.9,1.9,0,0,0,36.18,30Z"/><path d="M40,33.82a1.9,1.9,0,0,0,1.91-1.91H38.09A1.9,1.9,0,0,0,40,33.82Z"/><path d="M40,26.18a1.9,1.9,0,0,0-1.91,1.91h3.82A1.9,1.9,0,0,0,40,26.18Z"/><path d="M16.18,40a1.9,1.9,0,0,0,1.91,1.91V38.09A1.9,1.9,0,0,0,16.18,40Z"/><path d="M21.91,38.09v3.82a1.91,1.91,0,0,0,0-3.82Z"/><path d="M20,36.18a1.9,1.9,0,0,0-1.91,1.91h3.82A1.9,1.9,0,0,0,20,36.18Z"/><path d="M1.91,28.09v3.82a1.91,1.91,0,0,0,0-3.82Z"/><path d="M36.18,10a1.9,1.9,0,0,0,1.91,1.91V8.09A1.9,1.9,0,0,0,36.18,10Z"/><path d="M40,13.82a1.9,1.9,0,0,0,1.91-1.91H38.09A1.9,1.9,0,0,0,40,13.82Z"/><path d="M40,6.18a1.9,1.9,0,0,0-1.91,1.91h3.82A1.9,1.9,0,0,0,40,6.18Z"/><path d="M18.79,16.37a1.92,1.92,0,0,0-1.21,2.42l3.63-1.21A1.92,1.92,0,0,0,18.79,16.37Z"/><path d="M22.42,21.21l-3.63,1.21a1.91,1.91,0,0,0,3.63-1.21Z"/><path d="M16.37,21.21a1.92,1.92,0,0,0,2.42,1.21l-1.21-3.63A1.92,1.92,0,0,0,16.37,21.21Z"/><path d="M23.63,18.79a1.92,1.92,0,0,0-2.42-1.21l1.21,3.63A1.92,1.92,0,0,0,23.63,18.79Z"/><path d="M1.91,8.09v3.82a1.91,1.91,0,0,0,0-3.82Z"/><path d="M20,3.82a1.9,1.9,0,0,0,1.91-1.91H18.09A1.9,1.9,0,0,0,20,3.82Z"/><path d="M0,33.82a1.9,1.9,0,0,0,1.91-1.91H-1.91A1.9,1.9,0,0,0,0,33.82Z"/><path d="M0,26.18a1.9,1.9,0,0,0-1.91,1.91H1.91A1.9,1.9,0,0,0,0,26.18Z"/><path d="M0,13.82a1.9,1.9,0,0,0,1.91-1.91H-1.91A1.9,1.9,0,0,0,0,13.82Z"/><path d="M0,6.18A1.9,1.9,0,0,0-1.91,8.09H1.91A1.9,1.9,0,0,0,0,6.18Z"/><path d="M16.18,0a1.9,1.9,0,0,0,1.91,1.91V-1.91A1.9,1.9,0,0,0,16.18,0Z"/><path d="M21.91-1.91V1.91A1.9,1.9,0,0,0,23.82,0,1.9,1.9,0,0,0,21.91-1.91Z"/></pattern><pattern id="New_Pattern_4" data-name="New Pattern 4" width="70" height="50" patternTransform="translate(-33.3 -56.79) scale(1.03)" patternUnits="userSpaceOnUse" viewBox="0 0 70 50"><rect class="cls-1" width="70" height="50"/><path class="cls-2" d="M8.89,100c-.05-7.08.29-14.17.29-21.25,0-4.32-.37-17.48-.29-28.09"/><path class="cls-2" d="M22.94,99.84c0-1.65.09-3.31.09-5,0-2.48-.21-5-.21-7.45s0-3.83.05-7.28c0-1.44-.06-2.9-.06-4.35,0-3.1.31-4.62.31-7.37,0-1.4-.27-4.94-.27-8.33q0-1.61.09-3.21V50.11"/><path class="cls-2" d="M36.74,99.84c0-9.46.33-18.09.33-27.56,0-3.7-.15-7.46-.15-11.2,0-3.35-.1-7.29-.18-10.75"/><path class="cls-2" d="M50.93,99.75c0-1.24-.07-2.75-.07-4,0-1.92,0-3.86,0-5.79,0-3.87,0-7.66,0-11.51a8.42,8.42,0,0,1-.08-1.22c0-.32.18-6.68.18-8,0-2.2-.21-3.25-.21-5.64,0-1.3.06-2.65.17-3.86,0-2.89,0-5.89,0-9.05"/><path class="cls-2" d="M65,99.71c0-8.34-.55-15.73-.36-24.06.18-8.13.16-17.71.36-25.19"/><path class="cls-2" d="M8.89,50c-.05-7.08.29-14.17.29-21.25,0-4.32-.37-17.48-.29-28.09"/><path class="cls-2" d="M22.94,49.84c0-1.65.09-3.31.09-5,0-2.48-.21-5-.21-7.45s0-3.83.05-7.28c0-1.44-.06-2.9-.06-4.35,0-3.1.31-4.62.31-7.37,0-1.4-.27-4.94-.27-8.33q0-1.6.09-3.21V.11"/><path class="cls-2" d="M36.74,49.84c0-9.46.33-18.09.33-27.56,0-3.7-.15-7.46-.15-11.2,0-3.35-.1-7.29-.18-10.75"/><path class="cls-2" d="M50.93,49.75c0-1.24-.07-2.75-.07-4,0-1.92,0-3.86,0-5.79,0-3.87,0-7.66,0-11.51a8.42,8.42,0,0,1-.08-1.22c0-.32.18-6.68.18-8,0-2.2-.21-3.25-.21-5.64,0-1.3.06-2.65.17-3.86,0-2.89,0-5.89,0-9"/><path class="cls-2" d="M65,49.71c0-8.34-.55-15.73-.36-24.06.18-8.13.16-17.71.36-25.19"/><path class="cls-2" d="M8.89,0c-.05-7.08.29-14.17.29-21.25,0-4.32-.37-17.48-.29-28.09"/><path class="cls-2" d="M22.94-.16c0-1.65.09-3.31.09-5,0-2.48-.21-5-.21-7.45s0-3.83.05-7.28c0-1.44-.06-2.9-.06-4.35,0-3.1.31-4.62.31-7.37,0-1.4-.27-4.94-.27-8.33q0-1.61.09-3.21v-6.71"/><path class="cls-2" d="M36.74-.16c0-9.46.33-18.09.33-27.56,0-3.7-.15-7.46-.15-11.2,0-3.35-.1-7.29-.18-10.75"/><path class="cls-2" d="M50.93-.25c0-1.24-.07-2.75-.07-4,0-1.92,0-3.86,0-5.79,0-3.87,0-7.66,0-11.51a8.42,8.42,0,0,1-.08-1.22c0-.32.18-6.68.18-8,0-2.2-.21-3.25-.21-5.64,0-1.3.06-2.65.17-3.86,0-2.89,0-5.89,0-9.05"/><path class="cls-2" d="M65-.29c0-8.34-.55-15.73-.36-24.06.18-8.13.16-17.71.36-25.19"/></pattern></defs><g id="Layer_2" data-name="Layer 2"><g id="illustrations"><path d="M531.71,903.58l3.76,59.21H699.72l-2.39-18.08s-42.47,1.28-46.89-63.84l-1.11-17.82h-.09c-25.46,9.34-12.34,40.52-12.34,40.52Z"/><path class="cls-3" d="M636.9,903.58s-13.12-31.18,12.34-40.52h.09L630,553.18H509.44l22.27,350.4Z"/><path class="cls-4" d="M452.79,815.24H205V962.79h43.74a75.78,75.78,0,0,1,151.55,0h52.49Z"/><path class="cls-5" d="M22.81,120.68A12.32,12.32,0,0,0,3.65,135.77l28.66,49.64L97.9,291.15l79.89-45.65-18.62-26.71-4-6.29a18.32,18.32,0,0,1,1.62-21.91l15.37-17.65a13.35,13.35,0,0,0-2.4-19.7,13.64,13.64,0,0,0-16.06.53l-11,8.37a44,44,0,0,1-26.66,9H105A17.08,17.08,0,0,1,90.2,162.6L66.66,121.83a12.57,12.57,0,0,0-16.57-5.1,12.39,12.39,0,0,0-4.43,3.89l-.79-1.39A12.34,12.34,0,0,0,28,114.72a12.2,12.2,0,0,0-5.21,6Z"/><path class="cls-5" d="M24.89,492.46H169.1L109.9,624a144.32,144.32,0,0,0,190-70.81H263.21V423.66L261.48,425A62.69,62.69,0,0,1,171,407.87L136,352.06A144.29,144.29,0,0,0,24.89,492.46Z"/><path class="cls-5" d="M641.44,214.47l14.68,12.18h59.75v49.52l29.2,24.21H807V222.12c-18.75,1.34-17.17,21.42-39.4,21.42-23.84,0-42.43-62.22-66.49-62.22-12.47,0-25.21,15.74-38.47,15.74-10.07,0-12.47-10.22-21.15-20Z"/><path class="cls-6" d="M24.89,492.46H169.1L109.9,624a144.32,144.32,0,0,0,190-70.81H263.21V423.66L261.48,425A62.69,62.69,0,0,1,171,407.87L136,352.06A144.29,144.29,0,0,0,24.89,492.46Z"/><path d="M169.1,492.46H24.89a144,144,0,0,0,7.2,45.11Z"/><path class="cls-3" d="M169.1,492.46l-137,45.11A144.6,144.6,0,0,0,109.9,624Z"/><polygon class="cls-3" points="53.74 25.65 122.47 117.29 132.61 2 53.74 25.65"/><path class="cls-4" d="M97.9,291.15,171,407.87A62.69,62.69,0,0,0,261.48,425l1.73-1.29V300.82l-28.56,26.23L177.79,245.5Z"/><polygon points="132.61 2 122.47 117.29 185.29 25.65 132.61 2"/><path class="cls-5" d="M231,154.62l10.12,2.75A19.71,19.71,0,0,1,255,171.26l2.73,10.09,2.74-10.09a19.66,19.66,0,0,1,13.87-13.89l10.1-2.75-10.1-2.73A19.71,19.71,0,0,1,260.45,138l-2.74-10.08L255,138a19.76,19.76,0,0,1-13.87,13.9Z"/><path class="cls-5" d="M450.64,354.72c0-.22,0-.44,0-.65A104.22,104.22,0,0,1,657.2,334.42l34.4-4.78a60.32,60.32,0,0,1,24.27,1.57V226.65H263.21V553.18H715.87V439.91a71,71,0,0,1-24.08-23.86l-12.24-20s-29.72,2.16-30,2.16h-.3a104.21,104.21,0,0,1-94.43,60.08C497.51,458.27,452.24,411.94,450.64,354.72ZM310.1,378.84V280.48H418v98.36ZM315.83,522l24.11-49.05,10.11,20.57,34.23-69.62L432.5,522Zm142.79,0V476.81h33.9V522Zm54.54,0V501.58h33.9V522Zm54.53,0V476.81h33.9V522Zm54.54,0V492.46h33.89V522Z"/><path class="cls-5" d="M291.33,88.37l17.59,4.78a34.34,34.34,0,0,1,24.14,24.16l4.75,17.56,4.76-17.56A34.27,34.27,0,0,1,366.7,93.15l17.58-4.78L366.7,83.62a34.31,34.31,0,0,1-24.13-24.18L337.81,41.9l-4.75,17.54a34.38,34.38,0,0,1-24.14,24.18Z"/><path d="M296.32,796.92l3.09,18.32H464.13a59.82,59.82,0,0,0,.28-25.64l-4.54-38.13-3.24.38H348.71s-2.74-19.7-17.62-28.71l3.2,30.83C342.75,795,296.32,796.92,296.32,796.92Z"/><polygon class="cls-5" points="310.1 336.3 310.1 378.84 418 378.84 418 343.11 373.62 311.31 337.58 348.26 317.83 330.63 310.1 336.3"/><polygon class="cls-3" points="310.1 280.48 310.1 336.3 317.83 330.63 337.58 348.26 373.62 311.31 418 343.11 418 280.48 310.1 280.48"/><path class="cls-3" d="M313.42,553.18l17.67,170c14.88,9,17.62,28.71,17.62,28.71H456.63l3.24-.38L436.2,553.18Z"/><polygon class="cls-4" points="339.94 472.94 315.83 521.99 364.05 521.99 339.94 472.94"/><path class="cls-4" d="M344,226.65H656.12l-49.25-40.82a46.09,46.09,0,0,0-35-10.27l-.41,0a45.18,45.18,0,0,0-26.35,12.51,76.92,76.92,0,0,1-102.91,4.64,47.71,47.71,0,0,0-29-10.68h-.39a48.48,48.48,0,0,0-34.16,12.75Z"/><polygon class="cls-5" points="368.06 456.89 350.06 493.51 364.05 521.99 432.5 521.99 400.51 456.89 368.06 456.89"/><polygon points="384.28 423.89 368.06 456.89 400.51 456.89 384.28 423.89"/><path class="cls-4" d="M450.63,354.07c0,.21,0,.43,0,.65h52.1c0-.22,0-.44,0-.65a52,52,0,0,1,15.21-36.8L481,280.48A103.93,103.93,0,0,0,450.63,354.07Z"/><path class="cls-5" d="M502.74,354.72h-52.1a104.22,104.22,0,0,0,198.63,43.47,11,11,0,0,1-6.65-19.46l-1.19.09A11,11,0,0,1,639.12,357l4.58-.64a11,11,0,0,1,3.61-20.57l9.89-1.38a104.17,104.17,0,0,0-42.75-65.84l-29.81,42.73a52.11,52.11,0,1,1-81.9,43.41Z"/><path class="cls-5" d="M454.53,115.85a38.69,38.69,0,1,0,64.24,36.81C498.93,130.64,483.48,122.54,454.53,115.85Z"/><rect x="458.62" y="476.81" width="33.9" height="45.18"/><path d="M481,105.32a38.46,38.46,0,0,0-26.51,10.53c29,6.69,44.4,14.79,64.24,36.81a38.93,38.93,0,0,0-.34-18.65,22.11,22.11,0,0,0,14.78-28.23,13,13,0,1,0-13.93-13.93,22.11,22.11,0,0,0-28.23,14.78A38.86,38.86,0,0,0,481,105.32Z"/><path d="M481,280.48l36.9,36.79a52.11,52.11,0,0,1,66.7-6l29.81-42.73A104.22,104.22,0,0,0,481,280.48Z"/><path class="cls-5" d="M502.73,354.07c0,.21,0,.43,0,.65.89,28.46,23.54,51.45,52.1,51.45a52.11,52.11,0,1,0-52.11-52.1Z"/><rect x="513.16" y="501.58" width="33.9" height="20.41"/><path d="M556.55,62a6.5,6.5,0,1,0,6.5,6.5A6.48,6.48,0,0,0,556.55,62Z"/><rect x="567.69" y="476.81" width="33.9" height="45.18"/><rect x="622.23" y="492.46" width="33.89" height="29.53"/><path class="cls-5" d="M679.55,396l12.24,20a71.47,71.47,0,0,0,37.45,30.12L749.09,453l29.75-91.59-34-17-12.55-15.91A29.67,29.67,0,0,0,715.87,318v13.2a60.32,60.32,0,0,0-24.27-1.57l-44.29,6.16a11,11,0,0,0-3.61,20.57l-4.58.64a11,11,0,0,0,2.31,21.81l1.19-.09a11,11,0,0,0,6.65,19.46h.3a7.09,7.09,0,0,0,.79,0Z"/><path class="cls-7" d="M641.44,214.47l14.68,12.18h59.75v49.52l29.2,24.21H807V222.12c-18.75,1.34-17.17,21.42-39.4,21.42-23.84,0-42.43-62.22-66.49-62.22-12.47,0-25.21,15.74-38.47,15.74-10.07,0-12.47-10.22-21.15-20Z"/><path class="cls-3" d="M641.44,134.87V177c8.68,9.82,11.08,20,21.15,20,13.26,0,26-15.74,38.47-15.74,24.06,0,42.65,62.22,66.49,62.22,22.23,0,20.65-20.08,39.4-21.42V134.87Z"/><path class="cls-4" d="M715.87,276.17V318a29.67,29.67,0,0,1,16.47,10.51l12.55,15.91,34,17L749.09,453h0l40,13.82a51.71,51.71,0,0,0,62.45-24.38c11.75-21.85,5.85-49-13.24-64.87Z"/><path class="cls-8" d="M656.12,226.65l-49.25-40.82a46.09,46.09,0,0,0-35-10.27l-.41,0a45.18,45.18,0,0,0-26.35,12.51,76.92,76.92,0,0,1-102.91,4.64,47.71,47.71,0,0,0-29-10.68h-.39a48.48,48.48,0,0,0-34.16,12.75L344,226.65"/><path class="cls-8" d="M643.7,356.37a11,11,0,0,1,3.61-20.57l44.29-6.16a60.32,60.32,0,0,1,24.27,1.57V226.65H263.21V553.18H715.87V439.93"/><path class="cls-8" d="M702,348.26,639.12,357a11,11,0,0,0,2.31,21.81l1.19-.09"/><path class="cls-8" d="M702.56,369.86l-54.51,6.5a10.8,10.8,0,0,0-5.43,2.37,11,11,0,0,0,6.65,19.46h.3a7.09,7.09,0,0,0,.79,0l55.93-4.05"/><path class="cls-8" d="M749.09,453l-19.85-6.86a71.47,71.47,0,0,1-37.45-30.12l-12.24-20"/><path class="cls-8" d="M715.87,276.17,838.26,377.61c19.09,15.83,25,43,13.24,64.87a51.71,51.71,0,0,1-62.45,24.38l-40-13.82"/><path class="cls-8" d="M749.09,453h0l29.75-91.59-34-17-12.55-15.91A29.67,29.67,0,0,0,715.87,318"/><path class="cls-8" d="M649.27,398.19a104.21,104.21,0,0,1-94.43,60.08c-57.33,0-102.6-46.33-104.2-103.55,0-.22,0-.44,0-.65A104.22,104.22,0,0,1,657.2,334.42"/><path class="cls-8" d="M502.74,354.72c0-.22,0-.44,0-.65a52.11,52.11,0,1,1,52.11,52.1C526.28,406.17,503.63,383.18,502.74,354.72Z"/><line class="cls-8" x1="481.04" y1="280.48" x2="517.94" y2="317.27"/><polyline class="cls-8" points="584.64 311.31 614.45 268.58 614.45 268.57"/><line class="cls-8" x1="450.63" y1="354.72" x2="502.74" y2="354.72"/><polygon class="cls-8" points="310.1 336.3 310.1 378.84 418 378.84 418 280.48 310.1 280.48 310.1 336.3"/><polyline class="cls-8" points="418 343.11 373.62 311.31 337.58 348.26 317.83 330.63 310.1 336.3"/><rect class="cls-8" x="622.23" y="492.46" width="33.89" height="29.53"/><rect class="cls-8" x="567.69" y="476.81" width="33.9" height="45.18"/><rect class="cls-8" x="513.16" y="501.58" width="33.9" height="20.41"/><rect class="cls-8" x="458.62" y="476.81" width="33.9" height="45.18"/><polyline class="cls-8" points="364.05 521.99 432.5 521.99 384.28 423.89 350.06 493.51"/><polygon class="cls-8" points="364.05 521.99 339.94 472.94 315.83 521.99 364.05 521.99"/><line class="cls-8" x1="400.51" y1="456.89" x2="368.06" y2="456.89"/><path class="cls-8" d="M299.93,553.18A144.23,144.23,0,1,1,136,352.06"/><polyline class="cls-8" points="109.9 624 109.9 623.99 169.1 492.46 24.89 492.46"/><line class="cls-8" x1="169.1" y1="492.46" x2="32.09" y2="537.57"/><path class="cls-8" d="M454.53,115.85a38.7,38.7,0,0,1,36.52-9.22,22.11,22.11,0,0,1,28.23-14.78,13,13,0,1,1,13.93,13.93A22.11,22.11,0,0,1,518.43,134a38.7,38.7,0,1,1-63.9-18.16Z"/><path class="cls-8" d="M550.06,68.51a6.5,6.5,0,1,1,6.49,6.5A6.48,6.48,0,0,1,550.06,68.51Z"/><path class="cls-8" d="M518.77,152.66c-19.84-22-35.29-30.12-64.24-36.81h0"/><path class="cls-8" d="M337.81,41.9l4.76,17.54A34.31,34.31,0,0,0,366.7,83.62l17.58,4.75L366.7,93.15a34.27,34.27,0,0,0-24.13,24.16l-4.76,17.56-4.75-17.56a34.34,34.34,0,0,0-24.14-24.16l-17.59-4.78,17.59-4.75a34.38,34.38,0,0,0,24.14-24.18Z"/><path class="cls-8" d="M257.71,127.91,260.45,138a19.71,19.71,0,0,0,13.87,13.9l10.1,2.73-10.1,2.75a19.66,19.66,0,0,0-13.87,13.89l-2.74,10.09L255,171.26a19.71,19.71,0,0,0-13.87-13.89L231,154.62l10.12-2.73A19.76,19.76,0,0,0,255,138Z"/><path class="cls-8" d="M73.53,168.87,44.87,119.23A12.34,12.34,0,0,0,28,114.72a12.2,12.2,0,0,0-5.21,6"/><path class="cls-8" d="M263.21,423.66,261.48,425A62.69,62.69,0,0,1,171,407.87L3.65,135.77A12.32,12.32,0,0,1,25,123.45l28.66,49.64"/><path class="cls-8" d="M45.66,120.62a12.39,12.39,0,0,1,4.43-3.89,12.57,12.57,0,0,1,16.57,5.1L90.2,162.6A17.08,17.08,0,0,0,105,171.13h11a44,44,0,0,0,26.66-9l11-8.37a13.64,13.64,0,0,1,16.06-.53,13.35,13.35,0,0,1,2.4,19.7l-15.37,17.65a18.32,18.32,0,0,0-1.62,21.91l79.5,114.55,28.56-26.23"/><line class="cls-8" x1="177.79" y1="245.5" x2="97.9" y2="291.15"/><polygon class="cls-8" points="132.61 2 185.29 25.65 122.47 117.29 53.74 25.65 132.61 2"/><line class="cls-8" x1="132.61" y1="2" x2="122.47" y2="117.29"/><path class="cls-8" d="M509.44,553.18l26,409.61H699.72l-2.39-18.08s-42.47,1.28-46.89-63.84L630,553.18"/><path class="cls-8" d="M299.41,815.24H205V962.79h43.74a75.78,75.78,0,0,1,151.55,0h52.49V815.24Z"/><path class="cls-8" d="M299.41,815.24l-3.09-18.32s46.43-1.88,38-42.95L313.42,553.18"/><path class="cls-8" d="M436.2,553.18,464.41,789.6a59.82,59.82,0,0,1-.28,25.64H452.79"/><path class="cls-8" d="M456.63,751.85H348.71s-2.74-19.7-17.62-28.71a1.64,1.64,0,0,0-.22-.14"/><path class="cls-8" d="M531.46,903.58H636.9s-13.12-31.18,12.34-40.52"/><polyline class="cls-8" points="745.07 300.38 806.95 300.38 806.95 134.87 641.44 134.87 641.44 214.47"/><path class="cls-8" d="M807,222.12c-18.75,1.34-17.17,21.42-39.4,21.42-23.84,0-42.43-62.22-66.49-62.22-12.47,0-25.21,15.74-38.47,15.74-10.07,0-12.47-10.22-21.15-20"/></g></g></svg>