<svg xmlns="http://www.w3.org/2000/svg" xmlns:xlink="http://www.w3.org/1999/xlink" viewBox="0 0 935.54 892.27"><defs><style>.cls-1,.cls-2,.cls-9{fill:none;}.cls-2,.cls-9{stroke:#000;stroke-linecap:round;stroke-linejoin:round;}.cls-2{stroke-width:1.5px;}.cls-3{fill:#fff;}.cls-4{fill:#8282d9;}.cls-5{fill:#ffb2e5;}.cls-6{fill:url(#New_Pattern);}.cls-7{fill:url(#New_Pattern_2);}.cls-8{fill:#d7ccff;}.cls-9{stroke-width:4px;}</style><pattern id="New_Pattern" data-name="New Pattern" width="70" height="50" patternTransform="translate(-204.11 -63.41) scale(1.1)" patternUnits="userSpaceOnUse" viewBox="0 0 70 50"><rect class="cls-1" width="70" height="50"/><path class="cls-2" d="M8.89,100c-.05-7.08.29-14.17.29-21.25,0-4.32-.37-17.48-.29-28.09"/><path class="cls-2" d="M22.94,99.84c0-1.65.09-3.31.09-5,0-2.48-.21-5-.21-7.45s0-3.83.05-7.28c0-1.44-.06-2.9-.06-4.35,0-3.1.31-4.62.31-7.37,0-1.4-.27-4.94-.27-8.33q0-1.61.09-3.21V50.11"/><path class="cls-2" d="M36.74,99.84c0-9.46.33-18.09.33-27.56,0-3.7-.15-7.46-.15-11.2,0-3.35-.1-7.29-.18-10.75"/><path class="cls-2" d="M50.93,99.75c0-1.24-.07-2.75-.07-4,0-1.92,0-3.86,0-5.79,0-3.87,0-7.66,0-11.51a8.42,8.42,0,0,1-.08-1.22c0-.32.18-6.68.18-8,0-2.2-.21-3.25-.21-5.64,0-1.3.06-2.65.17-3.86,0-2.89,0-5.89,0-9.05"/><path class="cls-2" d="M65,99.71c0-8.34-.55-15.73-.36-24.06.18-8.13.16-17.71.36-25.19"/><path class="cls-2" d="M8.89,50c-.05-7.08.29-14.17.29-21.25,0-4.32-.37-17.48-.29-28.09"/><path class="cls-2" d="M22.94,49.84c0-1.65.09-3.31.09-5,0-2.48-.21-5-.21-7.45s0-3.83.05-7.28c0-1.44-.06-2.9-.06-4.35,0-3.1.31-4.62.31-7.37,0-1.4-.27-4.94-.27-8.33q0-1.6.09-3.21V.11"/><path class="cls-2" d="M36.74,49.84c0-9.46.33-18.09.33-27.56,0-3.7-.15-7.46-.15-11.2,0-3.35-.1-7.29-.18-10.75"/><path class="cls-2" d="M50.93,49.75c0-1.24-.07-2.75-.07-4,0-1.92,0-3.86,0-5.79,0-3.87,0-7.66,0-11.51a8.42,8.42,0,0,1-.08-1.22c0-.32.18-6.68.18-8,0-2.2-.21-3.25-.21-5.64,0-1.3.06-2.65.17-3.86,0-2.89,0-5.89,0-9"/><path class="cls-2" d="M65,49.71c0-8.34-.55-15.73-.36-24.06.18-8.13.16-17.71.36-25.19"/><path class="cls-2" d="M8.89,0c-.05-7.08.29-14.17.29-21.25,0-4.32-.37-17.48-.29-28.09"/><path class="cls-2" d="M22.94-.16c0-1.65.09-3.31.09-5,0-2.48-.21-5-.21-7.45s0-3.83.05-7.28c0-1.44-.06-2.9-.06-4.35,0-3.1.31-4.62.31-7.37,0-1.4-.27-4.94-.27-8.33q0-1.61.09-3.21v-6.71"/><path class="cls-2" d="M36.74-.16c0-9.46.33-18.09.33-27.56,0-3.7-.15-7.46-.15-11.2,0-3.35-.1-7.29-.18-10.75"/><path class="cls-2" d="M50.93-.25c0-1.24-.07-2.75-.07-4,0-1.92,0-3.86,0-5.79,0-3.87,0-7.66,0-11.51a8.42,8.42,0,0,1-.08-1.22c0-.32.18-6.68.18-8,0-2.2-.21-3.25-.21-5.64,0-1.3.06-2.65.17-3.86,0-2.89,0-5.89,0-9.05"/><path class="cls-2" d="M65-.29c0-8.34-.55-15.73-.36-24.06.18-8.13.16-17.71.36-25.19"/></pattern><pattern id="New_Pattern_2" data-name="New Pattern 2" width="40" height="40" patternTransform="translate(-61.53 -85.34) scale(1.1)" patternUnits="userSpaceOnUse" viewBox="0 0 40 40"><rect class="cls-1" width="40" height="40"/><path d="M36.18,30a1.9,1.9,0,0,0,1.91,1.91V28.09A1.9,1.9,0,0,0,36.18,30Z"/><path d="M40,33.82a1.9,1.9,0,0,0,1.91-1.91H38.09A1.9,1.9,0,0,0,40,33.82Z"/><path d="M40,26.18a1.9,1.9,0,0,0-1.91,1.91h3.82A1.9,1.9,0,0,0,40,26.18Z"/><path d="M16.18,40a1.9,1.9,0,0,0,1.91,1.91V38.09A1.9,1.9,0,0,0,16.18,40Z"/><path d="M21.91,38.09v3.82a1.91,1.91,0,0,0,0-3.82Z"/><path d="M20,36.18a1.9,1.9,0,0,0-1.91,1.91h3.82A1.9,1.9,0,0,0,20,36.18Z"/><path d="M1.91,28.09v3.82a1.91,1.91,0,0,0,0-3.82Z"/><path d="M36.18,10a1.9,1.9,0,0,0,1.91,1.91V8.09A1.9,1.9,0,0,0,36.18,10Z"/><path d="M40,13.82a1.9,1.9,0,0,0,1.91-1.91H38.09A1.9,1.9,0,0,0,40,13.82Z"/><path d="M40,6.18a1.9,1.9,0,0,0-1.91,1.91h3.82A1.9,1.9,0,0,0,40,6.18Z"/><path d="M18.79,16.37a1.92,1.92,0,0,0-1.21,2.42l3.63-1.21A1.92,1.92,0,0,0,18.79,16.37Z"/><path d="M22.42,21.21l-3.63,1.21a1.91,1.91,0,0,0,3.63-1.21Z"/><path d="M16.37,21.21a1.92,1.92,0,0,0,2.42,1.21l-1.21-3.63A1.92,1.92,0,0,0,16.37,21.21Z"/><path d="M23.63,18.79a1.92,1.92,0,0,0-2.42-1.21l1.21,3.63A1.92,1.92,0,0,0,23.63,18.79Z"/><path d="M1.91,8.09v3.82a1.91,1.91,0,0,0,0-3.82Z"/><path d="M20,3.82a1.9,1.9,0,0,0,1.91-1.91H18.09A1.9,1.9,0,0,0,20,3.82Z"/><path d="M0,33.82a1.9,1.9,0,0,0,1.91-1.91H-1.91A1.9,1.9,0,0,0,0,33.82Z"/><path d="M0,26.18a1.9,1.9,0,0,0-1.91,1.91H1.91A1.9,1.9,0,0,0,0,26.18Z"/><path d="M0,13.82a1.9,1.9,0,0,0,1.91-1.91H-1.91A1.9,1.9,0,0,0,0,13.82Z"/><path d="M0,6.18A1.9,1.9,0,0,0-1.91,8.09H1.91A1.9,1.9,0,0,0,0,6.18Z"/><path d="M16.18,0a1.9,1.9,0,0,0,1.91,1.91V-1.91A1.9,1.9,0,0,0,16.18,0Z"/><path d="M21.91-1.91V1.91A1.9,1.9,0,0,0,23.82,0,1.9,1.9,0,0,0,21.91-1.91Z"/></pattern></defs><g id="Layer_2" data-name="Layer 2"><g id="illustrations"><path d="M873.42,783.62l26.23,64.88-36.59,14.79-8.49-21c-8.75,12.28-18.48,23.62-35.73,34.89a81.25,81.25,0,0,1-44.48,13.07H743.64a9,9,0,0,1-9-9c0-4.27,3.24-7.2,7.19-8.83,15.55-6.43,29.93-10.52,29.93-47.67h0Z"/><path class="cls-3" d="M886.51,508.63a13.68,13.68,0,0,1-9.25,9.08,13.45,13.45,0,0,1-3.84.55,13.7,13.7,0,0,1-13.15-9.86l-13.22-57.66c-5.28,13.39-11.77,23-16.64,28.09a13.71,13.71,0,1,1-19.88-18.89c5.26-5.54,18.64-27.41,18.45-61.66v-.08a78.16,78.16,0,0,0-2.87-21.85l-26.67-90.91a20.91,20.91,0,0,0-7.31-11.21L777.73,263,835,195.08h0l11.18,10.08a109.11,109.11,0,0,1,38.22,58.53L923.2,444.6l10,35.5a13.71,13.71,0,0,1-10.38,16.37,13.47,13.47,0,0,1-3,.34,13.76,13.76,0,0,1-8.9-3.29l2,7.66a13.71,13.71,0,0,1-26.37,7.45Z"/><path class="cls-4" d="M723,710.1v110H613.34V522.42l5-3.47a17.24,17.24,0,0,0,4.44-24l-9.47-13.78V362.85a55.14,55.14,0,0,1,1.54-13h34.93A85.17,85.17,0,0,0,678.1,345h64.46l34.83,191.12a342.56,342.56,0,0,0,21.77,72.66l74.26,174.8L771.74,824.74Z"/><path class="cls-5" d="M835,195.07h0L777.73,263l-15.45-12.1c4.58-16.11,9.34-32.88,13.66-51.37,7.29-31.2-3.87-60.75-24.67-80Z"/><path class="cls-5" d="M735,252.38H647.23v9.73H605.3c-2.86-23.4-5.15-45.61-6.58-68.39a83.63,83.63,0,0,1,1.91-23.92c4.2-18.57,20.2-31.76,39.12-33.89a39.32,39.32,0,0,0,26.92-15.4c14.65-19.54,41.46-25.76,63.52-15.27a84.16,84.16,0,0,1,19.51,12.87l1.57,1.42c20.8,19.21,32,48.76,24.67,80-4.32,18.49-9.08,35.26-13.66,51.37-8.89,31.37-17,60.19-19.72,94.18H678.1A85.19,85.19,0,0,0,735,264.7Z"/><path class="cls-3" d="M751.27,119.53l-1.57-1.42C750.23,118.57,750.76,119,751.27,119.53Z"/><path class="cls-3" d="M678.1,345a85.17,85.17,0,0,1-28.29,4.81H548.61a44.72,44.72,0,0,0-38,21.2,32.26,32.26,0,0,1-43.88,10.81l-28.23-16.68a22.86,22.86,0,0,1-7.82-31.7l5.3-8.57a132.45,132.45,0,0,1,112.67-62.8h98.62v-9.73H735V264.7A85.19,85.19,0,0,1,678.1,345Z"/><path d="M723,820.08v70H683.54V867.43c-20.21,12.87-41.82,22.63-90.51,22.63H559.54a11.48,11.48,0,0,1-2.88-22.59c17.83-4.63,30.53-13,42.15-26.74a167.72,167.72,0,0,0,14.53-20.65Z"/><path class="cls-3" d="M669.64,35.07a49.39,49.39,0,1,1-95,21.3,86.21,86.21,0,0,0,54.11-26.7,32.46,32.46,0,0,0,10.89,7.57A32.69,32.69,0,0,0,669.64,35.07Z"/><path d="M643.43,8.53a49.25,49.25,0,0,1,26.21,26.54,32.69,32.69,0,0,1-30,2.17,32.46,32.46,0,0,1-10.89-7.57,86.21,86.21,0,0,1-54.11,26.7c-2.3.23-4.6.33-6.91.41h-.6a27.69,27.69,0,0,1-11.09-2.21A27.39,27.39,0,1,1,591.23,17,49.38,49.38,0,0,1,643.43,8.53Z"/><path class="cls-3" d="M622.81,495a17.24,17.24,0,0,1-4.44,24l-96.86,66.66a17.28,17.28,0,0,1-24-4.44L483,560.09a23.08,23.08,0,0,0-16.92-9.92L330.78,537.65,304.66,573l4-88.52L331.2,521.5H456.44S421.13,470.16,421,469.85c-6.42-4.67-13.31-9.31-20.53-13.81a34.56,34.56,0,0,1-16.25-31,35.25,35.25,0,0,1,15.46-27.26l43.46-29.91,18.8,11.1h0l-51.56,35.48a14.79,14.79,0,0,0,.58,24.73c5.87,3.67,11.53,7.42,16.94,11.2l100.7-69.29a13.16,13.16,0,0,1,18.29,3.39l27,39.19-10.92-69.24a27.41,27.41,0,0,0-1.17-4.64h20.46c.1.52,14.2,89.85,14.2,89.85a97.25,97.25,0,0,0,16,40Z"/><path class="cls-3" d="M598.81,840.73c-11.62,13.79-24.32,22.11-42.15,26.74a11.48,11.48,0,0,0,2.88,22.59H504C496.4,884.91,492,879,492,871.67c0-16.63,28.52-24.94,28.52-38.25,0-26.66-42.69-16.38-77.5-33.51V698.67c25.07,8.26,49.39,23.56,53.6,30.57,11.4,18.92-10.94,50.44,39.6,50.44,3.94,0,7.87-.15,11.73-.15C599.68,779.53,569.59,812.41,598.81,840.73Z"/><path class="cls-6" d="M622.81,495a17.24,17.24,0,0,1-4.44,24l-96.86,66.66a17.28,17.28,0,0,1-24-4.44L483,560.09a23.08,23.08,0,0,0-16.92-9.92L330.78,537.65,304.66,573l4-88.52L331.2,521.5H456.44S421.13,470.16,421,469.85c-6.42-4.67-13.31-9.31-20.53-13.81a34.56,34.56,0,0,1-16.25-31,35.25,35.25,0,0,1,15.46-27.26l43.46-29.91,18.8,11.1h0l-51.56,35.48a14.79,14.79,0,0,0,.58,24.73c5.87,3.67,11.53,7.42,16.94,11.2l100.7-69.29a13.16,13.16,0,0,1,18.29,3.39l27,39.19-10.92-69.24a27.41,27.41,0,0,0-1.17-4.64h20.46c.1.52,14.2,89.85,14.2,89.85a97.25,97.25,0,0,0,16,40Z"/><path class="cls-5" d="M613.34,769.84v50.24a167.72,167.72,0,0,1-14.53,20.65c-29.22-28.32.87-61.2-50.91-61.2-3.86,0-7.79.15-11.73.15-50.54,0-28.2-31.52-39.6-50.44-4.21-7-28.53-22.31-53.6-30.57v-60.1c11.14,12.33,34,8.41,51,22.79,15.71,13.26,15.21,36.23,31.52,48.42,18,13.49,41.72,6.37,59.52,21.72C600,744.35,602,760.09,613.34,769.84Z"/><path class="cls-7" d="M598.81,840.73c-11.62,13.79-24.32,22.11-42.15,26.74a11.48,11.48,0,0,0,2.88,22.59H504C496.4,884.91,492,879,492,871.67c0-16.63,28.52-24.94,28.52-38.25,0-26.66-42.69-16.38-77.5-33.51V698.67c25.07,8.26,49.39,23.56,53.6,30.57,11.4,18.92-10.94,50.44,39.6,50.44,3.94,0,7.87-.15,11.73-.15C599.68,779.53,569.59,812.41,598.81,840.73Z"/><path class="cls-4" d="M548.05,151.53l-11.82,3.2A23.13,23.13,0,0,0,520,171l-3.19,11.79L513.58,171a23.11,23.11,0,0,0-16.22-16.27l-11.84-3.2,11.84-3.21a23.08,23.08,0,0,0,16.22-16.25l3.21-11.81L520,132.07a23.1,23.1,0,0,0,16.25,16.25Z"/><path class="cls-8" d="M520.47,833.42c0,13.31-28.52,21.62-28.52,38.25,0,7.28,4.45,13.24,12.05,18.39H443V799.91C477.78,817,520.47,806.76,520.47,833.42Z"/><path d="M487.86,89.35,469,94.47a36.89,36.89,0,0,0-25.92,26L438,139.24l-5.12-18.82a36.87,36.87,0,0,0-25.91-25.95l-18.86-5.12,18.86-5.13A36.83,36.83,0,0,0,432.85,58.3L438,39.46l5.09,18.84A36.85,36.85,0,0,0,469,84.22Z"/><path class="cls-5" d="M477.86,78.34,459,83.47a36.89,36.89,0,0,0-25.92,25.94L428,128.23l-5.12-18.82a36.9,36.9,0,0,0-25.91-25.94l-18.86-5.13,18.86-5.12A36.85,36.85,0,0,0,422.85,47.3L428,28.45l5.09,18.85A36.85,36.85,0,0,0,459,73.22Z"/><path class="cls-4" d="M396.84,204.72v99.59l-1.92,0A114.91,114.91,0,0,0,280,419.2H180.43a213.54,213.54,0,0,1,38-122h41.84v-45a213.64,213.64,0,0,1,134.6-47.47Z"/><path class="cls-3" d="M367.94,139l-8.9,2.42a17.38,17.38,0,0,0-12.23,12.24l-2.4,8.87L342,153.68a17.36,17.36,0,0,0-12.22-12.24l-8.9-2.42,8.9-2.42A17.35,17.35,0,0,0,342,124.37l2.41-8.88,2.4,8.88A17.36,17.36,0,0,0,359,136.6Z"/><path class="cls-3" d="M365.3,696.28c-4.14,18.51-13.36,38.37-27.35,56.81s-30.62,32.69-47.32,41.68C294.78,776.26,304,756.41,318,738S348.6,705.28,365.3,696.28Z"/><path d="M322.65,794.77,319.37,872a18.84,18.84,0,0,1-18.82,18H241.37a18.82,18.82,0,0,1-18.82-18l-3.28-77.25Z"/><path class="cls-3" d="M271,574.21c14.05,30.79,22.36,69,22.36,110.28S285,764,271,794.77c-14-30.8-22.36-69-22.36-110.28S256.91,605,271,574.21Z"/><path d="M260.32,252.18v45H218.48A215.77,215.77,0,0,1,260.32,252.18Z"/><path class="cls-3" d="M260.32,193.53v58.65a215.77,215.77,0,0,0-41.84,45h-38V193.53Z"/><path class="cls-3" d="M223.93,738c14,18.45,23.2,38.3,27.36,56.81-16.71-9-33.33-23.22-47.33-41.68s-23.19-38.3-27.35-56.81C193.31,705.28,210,719.5,223.93,738Z"/><path class="cls-4" d="M92.34,533.8a70.92,70.92,0,1,1,70.91,70.92A70.92,70.92,0,0,1,92.34,533.8Zm25.78,0a45.14,45.14,0,1,0,45.13-45.13A45.14,45.14,0,0,0,118.12,533.8Z"/><path class="cls-3" d="M118.12,533.8a45.14,45.14,0,1,1,45.13,45.13A45.14,45.14,0,0,1,118.12,533.8Zm25.8,0a19.34,19.34,0,1,0,19.33-19.34A19.33,19.33,0,0,0,143.92,533.8Z"/><path class="cls-4" d="M143.92,533.8a19.34,19.34,0,1,1,19.33,19.34A19.33,19.33,0,0,1,143.92,533.8Z"/><polygon class="cls-3" points="60.97 533.8 40.28 554.49 2 554.49 22.7 533.8 60.97 533.8"/><polygon class="cls-3" points="60.97 533.8 22.7 533.8 2 513.11 40.28 513.11 60.97 533.8"/><path class="cls-9" d="M516.79,120.26l-3.21,11.81a23.08,23.08,0,0,1-16.22,16.25l-11.84,3.21,11.84,3.2A23.11,23.11,0,0,1,513.58,171l3.21,11.79L520,171a23.13,23.13,0,0,1,16.25-16.27l11.82-3.2-11.82-3.21A23.1,23.1,0,0,1,520,132.07Z"/><path class="cls-9" d="M344.41,115.49,342,124.37a17.35,17.35,0,0,1-12.22,12.23l-8.9,2.42,8.9,2.42A17.36,17.36,0,0,1,342,153.68l2.41,8.87,2.4-8.87A17.38,17.38,0,0,1,359,141.44l8.9-2.42L359,136.6a17.36,17.36,0,0,1-12.23-12.23Z"/><path class="cls-9" d="M723,401.42V890.06H683.54V867.43c-20.21,12.87-41.82,22.63-90.51,22.63H559.54a11.48,11.48,0,0,1-2.88-22.59c17.83-4.63,30.53-13,42.15-26.74a167.72,167.72,0,0,0,14.53-20.65H723"/><line class="cls-9" x1="613.34" y1="820.08" x2="613.34" y2="522.42"/><path class="cls-9" d="M613.34,481.17V362.85a55.14,55.14,0,0,1,1.54-13"/><path class="cls-9" d="M678,345h64.52l34.83,191.12a342.56,342.56,0,0,0,21.77,72.66l74.26,174.8"/><line class="cls-9" x1="771.74" y1="824.74" x2="723.01" y2="710.08"/><path class="cls-9" d="M873.42,783.62l26.23,64.88-36.59,14.79-8.49-21c-8.75,12.28-18.48,23.62-35.73,34.89a81.25,81.25,0,0,1-44.48,13.07H743.64a9,9,0,0,1-9-9c0-4.27,3.24-7.2,7.19-8.83,15.55-6.43,29.93-10.52,29.93-47.67h0Z"/><path class="cls-9" d="M605.3,262.11c-2.86-23.4-5.15-45.61-6.58-68.39a83.63,83.63,0,0,1,1.91-23.92c4.2-18.57,20.2-31.76,39.12-33.89a39.32,39.32,0,0,0,26.92-15.4c14.65-19.54,41.46-25.76,63.52-15.27a84.7,84.7,0,0,1,19.51,12.87c.53.46,1.06.94,1.57,1.42,20.73,19.28,32,48.76,24.67,80-4.32,18.49-9.08,35.26-13.66,51.37-8.89,31.36-17,60.19-19.72,94.18"/><path class="cls-9" d="M735,151.53V264.7a85.06,85.06,0,0,1-85.15,85.15H548.61a44.72,44.72,0,0,0-38,21.2,32.26,32.26,0,0,1-43.88,10.81l-28.23-16.68a22.86,22.86,0,0,1-7.82-31.7l5.3-8.57a132.45,132.45,0,0,1,112.67-62.8h98.62V215.88"/><path class="cls-9" d="M886.51,508.63a13.68,13.68,0,0,1-9.25,9.08,13.45,13.45,0,0,1-3.84.55,13.7,13.7,0,0,1-13.15-9.86l-13.22-57.66"/><path class="cls-9" d="M910.93,493.52l2,7.66a13.71,13.71,0,0,1-26.37,7.45l-.21-.7-12.89-63.66"/><path class="cls-9" d="M749.7,118.11l96.52,87a109.11,109.11,0,0,1,38.22,58.53L923.2,444.6l10,35.5a13.71,13.71,0,0,1-10.38,16.37,13.47,13.47,0,0,1-3,.34,13.72,13.72,0,0,1-13.37-10.71l-10.13-45.23"/><path class="cls-9" d="M762.28,250.86l29.85,23.37a20.91,20.91,0,0,1,7.31,11.21l26.67,90.91A78.16,78.16,0,0,1,829,398.2v.08c.19,34.25-13.19,56.12-18.45,61.66a13.71,13.71,0,0,0,19.88,18.89c4.87-5.13,11.36-14.7,16.64-28.09,1-2.61,2-5.37,2.93-8.26a33.12,33.12,0,0,0,16.26-52.27"/><line class="cls-9" x1="777.73" y1="262.96" x2="835.04" y2="195.08"/><line class="cls-9" x1="647.23" y1="252.38" x2="734.96" y2="252.38"/><path class="cls-9" d="M669.64,35.07a32.69,32.69,0,0,1-30,2.17,32.46,32.46,0,0,1-10.89-7.57,86.16,86.16,0,0,1-54.11,26.7q-3.45.35-6.91.41"/><path class="cls-9" d="M567.75,56.78h-.6a27.69,27.69,0,0,1-11.09-2.21A27.39,27.39,0,1,1,591.23,17a49.42,49.42,0,1,1-16.57,39.41"/><path class="cls-9" d="M559.54,890.06H443V638.57c11.14,12.33,34,8.41,51,22.79,15.71,13.26,15.21,36.23,31.52,48.42,18,13.49,41.72,6.37,59.52,21.72,14.91,12.85,17,28.59,28.3,38.34"/><path class="cls-9" d="M225.72,881.72a18.82,18.82,0,0,0,15.65,8.34h59.18a18.84,18.84,0,0,0,18.82-18l3.28-77.25H219.27L222.55,872A18.87,18.87,0,0,0,225.72,881.72Z"/><path class="cls-9" d="M271,794.77c14.05-30.8,22.36-69,22.36-110.28S285,605,271,574.21c-14,30.79-22.36,69-22.36,110.28S256.91,764,271,794.77Z"/><path class="cls-9" d="M290.63,794.77c16.7-9,33.34-23.22,47.32-41.68s23.21-38.3,27.35-56.81C348.6,705.28,332,719.5,318,738S294.78,776.26,290.63,794.77Z"/><path class="cls-9" d="M251.29,794.77c-16.71-9-33.33-23.22-47.33-41.68s-23.19-38.3-27.35-56.81c16.7,9,33.34,23.22,47.32,41.68S247.13,776.26,251.29,794.77Z"/><path class="cls-9" d="M182.6,533.8a19.34,19.34,0,1,0-19.35,19.34A19.35,19.35,0,0,0,182.6,533.8Z"/><path class="cls-9" d="M208.39,533.8a45.14,45.14,0,1,0-45.14,45.13A45.14,45.14,0,0,0,208.39,533.8Z"/><path class="cls-9" d="M234.18,533.8a70.92,70.92,0,1,0-70.93,70.92A70.92,70.92,0,0,0,234.18,533.8Z"/><polygon class="cls-9" points="22.7 533.8 2 554.49 40.28 554.49 60.97 533.8 40.28 513.11 2 513.11 22.7 533.8"/><line class="cls-9" x1="163.25" y1="533.8" x2="22.7" y2="533.8"/><path class="cls-9" d="M260.32,252.18a213.56,213.56,0,0,1,134.6-47.47h1.92v99.59l-1.92,0A114.91,114.91,0,0,0,280,419.2H180.43a213.46,213.46,0,0,1,38-122A215.77,215.77,0,0,1,260.32,252.18Z"/><polygon class="cls-9" points="260.32 252.18 260.32 297.19 180.43 297.19 180.43 193.53 260.32 193.53 260.32 252.18"/><line class="cls-9" x1="206.57" y1="224.17" x2="234.18" y2="224.17"/><line class="cls-9" x1="206.57" y1="240.97" x2="234.18" y2="240.97"/><line class="cls-9" x1="206.57" y1="257.77" x2="234.18" y2="257.77"/><path class="cls-9" d="M461.89,379l-51.56,35.48a14.79,14.79,0,0,0,.58,24.73c5.87,3.67,11.53,7.42,16.94,11.2l100.7-69.29a13.16,13.16,0,0,1,18.29,3.39l27,39.19-10.92-69.24a27.41,27.41,0,0,0-1.17-4.64"/><path class="cls-9" d="M582.17,349.85c.1.52,14.2,89.85,14.2,89.85a97.25,97.25,0,0,0,16,40L622.81,495a17.24,17.24,0,0,1-4.44,24l-96.86,66.66a17.28,17.28,0,0,1-24-4.44L483,560.09a23.08,23.08,0,0,0-16.92-9.92L330.78,537.65,304.66,573l4-88.52L331.2,521.5H456.44S421.13,470.16,421,469.85c-6.42-4.67-13.31-9.31-20.53-13.81a34.56,34.56,0,0,1-16.25-31,35.25,35.25,0,0,1,15.46-27.26l43.46-29.91"/><path class="cls-9" d="M443,799.91c34.81,17.13,77.5,6.85,77.5,33.51,0,13.31-28.52,21.62-28.52,38.25,0,7.28,4.45,13.24,12.05,18.39"/><path class="cls-9" d="M443,698.67c25.07,8.26,49.39,23.56,53.6,30.57,11.4,18.92-10.94,50.44,39.6,50.44,3.94,0,7.87-.15,11.73-.15,51.78,0,21.69,32.88,50.91,61.2"/></g></g></svg>