<svg xmlns="http://www.w3.org/2000/svg" xmlns:xlink="http://www.w3.org/1999/xlink" viewBox="0 0 1019.15 844.67"><defs><style>.cls-1,.cls-2,.cls-9{fill:none;}.cls-2,.cls-9{stroke:#000;stroke-linecap:round;stroke-linejoin:round;}.cls-2{stroke-width:1.5px;}.cls-3{fill:#8282d9;}.cls-4{fill:#fff;}.cls-5{fill:url(#New_Pattern_2);}.cls-6{fill:#ffb2e5;}.cls-7{fill:#d7ccff;}.cls-8{fill:url(#New_Pattern);}.cls-9{stroke-width:4px;}</style><pattern id="New_Pattern_2" data-name="New Pattern 2" width="40" height="40" patternTransform="translate(0 -30)" patternUnits="userSpaceOnUse" viewBox="0 0 40 40"><rect class="cls-1" width="40" height="40"/><path d="M36.18,30a1.9,1.9,0,0,0,1.91,1.91V28.09A1.9,1.9,0,0,0,36.18,30Z"/><path d="M40,33.82a1.9,1.9,0,0,0,1.91-1.91H38.09A1.9,1.9,0,0,0,40,33.82Z"/><path d="M40,26.18a1.9,1.9,0,0,0-1.91,1.91h3.82A1.9,1.9,0,0,0,40,26.18Z"/><path d="M16.18,40a1.9,1.9,0,0,0,1.91,1.91V38.09A1.9,1.9,0,0,0,16.18,40Z"/><path d="M21.91,38.09v3.82a1.91,1.91,0,0,0,0-3.82Z"/><path d="M20,36.18a1.9,1.9,0,0,0-1.91,1.91h3.82A1.9,1.9,0,0,0,20,36.18Z"/><path d="M1.91,28.09v3.82a1.91,1.91,0,0,0,0-3.82Z"/><path d="M36.18,10a1.9,1.9,0,0,0,1.91,1.91V8.09A1.9,1.9,0,0,0,36.18,10Z"/><path d="M40,13.82a1.9,1.9,0,0,0,1.91-1.91H38.09A1.9,1.9,0,0,0,40,13.82Z"/><path d="M40,6.18a1.9,1.9,0,0,0-1.91,1.91h3.82A1.9,1.9,0,0,0,40,6.18Z"/><path d="M18.79,16.37a1.92,1.92,0,0,0-1.21,2.42l3.63-1.21A1.92,1.92,0,0,0,18.79,16.37Z"/><path d="M22.42,21.21l-3.63,1.21a1.91,1.91,0,0,0,3.63-1.21Z"/><path d="M16.37,21.21a1.92,1.92,0,0,0,2.42,1.21l-1.21-3.63A1.92,1.92,0,0,0,16.37,21.21Z"/><path d="M23.63,18.79a1.92,1.92,0,0,0-2.42-1.21l1.21,3.63A1.92,1.92,0,0,0,23.63,18.79Z"/><path d="M1.91,8.09v3.82a1.91,1.91,0,0,0,0-3.82Z"/><path d="M20,3.82a1.9,1.9,0,0,0,1.91-1.91H18.09A1.9,1.9,0,0,0,20,3.82Z"/><path d="M0,33.82a1.9,1.9,0,0,0,1.91-1.91H-1.91A1.9,1.9,0,0,0,0,33.82Z"/><path d="M0,26.18a1.9,1.9,0,0,0-1.91,1.91H1.91A1.9,1.9,0,0,0,0,26.18Z"/><path d="M0,13.82a1.9,1.9,0,0,0,1.91-1.91H-1.91A1.9,1.9,0,0,0,0,13.82Z"/><path d="M0,6.18A1.9,1.9,0,0,0-1.91,8.09H1.91A1.9,1.9,0,0,0,0,6.18Z"/><path d="M16.18,0a1.9,1.9,0,0,0,1.91,1.91V-1.91A1.9,1.9,0,0,0,16.18,0Z"/><path d="M21.91-1.91V1.91A1.9,1.9,0,0,0,23.82,0,1.9,1.9,0,0,0,21.91-1.91Z"/></pattern><pattern id="New_Pattern" data-name="New Pattern" width="70" height="50" patternTransform="translate(10 -30)" patternUnits="userSpaceOnUse" viewBox="0 0 70 50"><rect class="cls-1" width="70" height="50"/><path class="cls-2" d="M8.89,100c-.05-7.08.29-14.17.29-21.25,0-4.32-.37-17.48-.29-28.09"/><path class="cls-2" d="M22.94,99.84c0-1.65.09-3.31.09-5,0-2.48-.21-5-.21-7.45s0-3.83.05-7.28c0-1.44-.06-2.9-.06-4.35,0-3.1.31-4.62.31-7.37,0-1.4-.27-4.94-.27-8.33q0-1.61.09-3.21V50.11"/><path class="cls-2" d="M36.74,99.84c0-9.46.33-18.09.33-27.56,0-3.7-.15-7.46-.15-11.2,0-3.35-.1-7.29-.18-10.75"/><path class="cls-2" d="M50.93,99.75c0-1.24-.07-2.75-.07-4,0-1.92,0-3.86,0-5.79,0-3.87,0-7.66,0-11.51a8.42,8.42,0,0,1-.08-1.22c0-.32.18-6.68.18-8,0-2.2-.21-3.25-.21-5.64,0-1.3.06-2.65.17-3.86,0-2.89,0-5.89,0-9.05"/><path class="cls-2" d="M65,99.71c0-8.34-.55-15.73-.36-24.06.18-8.13.16-17.71.36-25.19"/><path class="cls-2" d="M8.89,50c-.05-7.08.29-14.17.29-21.25,0-4.32-.37-17.48-.29-28.09"/><path class="cls-2" d="M22.94,49.84c0-1.65.09-3.31.09-5,0-2.48-.21-5-.21-7.45s0-3.83.05-7.28c0-1.44-.06-2.9-.06-4.35,0-3.1.31-4.62.31-7.37,0-1.4-.27-4.94-.27-8.33q0-1.6.09-3.21V.11"/><path class="cls-2" d="M36.74,49.84c0-9.46.33-18.09.33-27.56,0-3.7-.15-7.46-.15-11.2,0-3.35-.1-7.29-.18-10.75"/><path class="cls-2" d="M50.93,49.75c0-1.24-.07-2.75-.07-4,0-1.92,0-3.86,0-5.79,0-3.87,0-7.66,0-11.51a8.42,8.42,0,0,1-.08-1.22c0-.32.18-6.68.18-8,0-2.2-.21-3.25-.21-5.64,0-1.3.06-2.65.17-3.86,0-2.89,0-5.89,0-9"/><path class="cls-2" d="M65,49.71c0-8.34-.55-15.73-.36-24.06.18-8.13.16-17.71.36-25.19"/><path class="cls-2" d="M8.89,0c-.05-7.08.29-14.17.29-21.25,0-4.32-.37-17.48-.29-28.09"/><path class="cls-2" d="M22.94-.16c0-1.65.09-3.31.09-5,0-2.48-.21-5-.21-7.45s0-3.83.05-7.28c0-1.44-.06-2.9-.06-4.35,0-3.1.31-4.62.31-7.37,0-1.4-.27-4.94-.27-8.33q0-1.61.09-3.21v-6.71"/><path class="cls-2" d="M36.74-.16c0-9.46.33-18.09.33-27.56,0-3.7-.15-7.46-.15-11.2,0-3.35-.1-7.29-.18-10.75"/><path class="cls-2" d="M50.93-.25c0-1.24-.07-2.75-.07-4,0-1.92,0-3.86,0-5.79,0-3.87,0-7.66,0-11.51a8.42,8.42,0,0,1-.08-1.22c0-.32.18-6.68.18-8,0-2.2-.21-3.25-.21-5.64,0-1.3.06-2.65.17-3.86,0-2.89,0-5.89,0-9.05"/><path class="cls-2" d="M65-.29c0-8.34-.55-15.73-.36-24.06.18-8.13.16-17.71.36-25.19"/></pattern></defs><g id="Layer_2" data-name="Layer 2"><g id="illustrations"><path class="cls-3" d="M919.12,544.32A154.67,154.67,0,1,1,751.32,581l36.43,36.43a102.74,102.74,0,1,0,6.75-6.54L758,574.47a154.68,154.68,0,0,1,161.08-30.15Z"/><path class="cls-4" d="M862.65,585.17a103,103,0,1,1-74.9,32.3l36.44,36.45a51.42,51.42,0,1,0,6.87-6.43L794.5,610.93A102.64,102.64,0,0,1,862.65,585.17Z"/><path class="cls-4" d="M919.12,544.31h0A154.68,154.68,0,0,0,758,574.47l-6.3-6.3V521.91l-56.82-56.82v46.26l-15.68-15.68a4.7,4.7,0,1,0-6.65,6.64l16.62,16.63H641.07l56.82,56.81H746l5.3,5.29a154.6,154.6,0,0,0-28.36,41c-53.23.34-34,55.27-55.08,76.37-25,25-59.94-15-84,9.06-19.57,19.57-7.34,34.79-25.83,53.29-24.64,24.63-73.32-17.11-86.33,59.49H331V698.43h110.1V578.33H551.19V458.22H661.3V338.11H919.12Z"/><path class="cls-5" d="M919.12,544.31h0A154.68,154.68,0,0,0,758,574.47l-6.3-6.3V521.91l-56.82-56.82v46.26l-15.68-15.68a4.7,4.7,0,1,0-6.65,6.64l16.62,16.63H641.07l56.82,56.81H746l5.3,5.29a154.6,154.6,0,0,0-28.36,41c-53.23.34-34,55.27-55.08,76.37-25,25-59.94-15-84,9.06-19.57,19.57-7.34,34.79-25.83,53.29-24.64,24.63-73.32-17.11-86.33,59.49H331V698.43h110.1V578.33H551.19V458.22H661.3V338.11H919.12Z"/><path class="cls-6" d="M911.38,19.16V76A108.68,108.68,0,0,1,802.7,184.71H791.63A108.67,108.67,0,0,1,683,76V19.16Zm-93.73,78,18.29-19.26-26.12-4.81L797.16,49.71,784.51,73.07l-26.12,4.81,18.3,19.26-3.49,26.33,24-11.46,24,11.46Z"/><path class="cls-3" d="M862.65,636.67a51.5,51.5,0,1,1-38.46,17.25l36,36a4.7,4.7,0,1,0,6.65-6.64l-35.79-35.79A51.3,51.3,0,0,1,862.65,636.67Z"/><path d="M866.85,683.28a4.7,4.7,0,1,1-6.65,6.64L672.59,502.31a4.7,4.7,0,1,1,6.65-6.64Z"/><path class="cls-6" d="M861.82,308.17v29.94H732.51V308.17a15.8,15.8,0,0,1,15.8-15.8A38.67,38.67,0,0,0,787,253.7V232.6a28.39,28.39,0,0,0,20.37,0v21.1A38.67,38.67,0,0,0,846,292.37,15.8,15.8,0,0,1,861.82,308.17Z"/><polygon points="835.94 77.88 817.65 97.14 821.13 123.47 797.16 112.01 773.2 123.47 776.69 97.14 758.39 77.88 784.51 73.07 797.16 49.71 809.82 73.07 835.94 77.88"/><path class="cls-4" d="M815.14,184.32a28.3,28.3,0,1,1-36,0l0-.32a108.14,108.14,0,0,0,12.41.71H802.7a108.09,108.09,0,0,0,12.4-.71Z"/><path d="M782.52,820.29H660.69c1.8-9,3.29-18.09,13.58-28.39,20.48-20.48,48.85,5.53,72.28-1.8A154.56,154.56,0,0,0,782.52,820.29Z"/><polygon class="cls-4" points="751.74 542.96 751.74 568.17 694.92 511.35 694.92 465.09 751.74 521.91 751.74 542.96"/><polygon class="cls-4" points="746.02 575.75 697.89 575.75 641.07 518.94 689.21 518.94 746.02 575.75"/><path d="M746.55,790.1c-23.43,7.33-51.8-18.68-72.28,1.8-10.29,10.3-11.78,19.39-13.58,28.39H570.54c9.66-57,45.86-25.92,64.18-44.23,13.75-13.76,4.66-25.07,19.21-39.62,17.22-17.23,42,9.79,60.39-4.91A154,154,0,0,0,746.55,790.1Z"/><path d="M723,622.08a155.09,155.09,0,0,0-8.64,109.45c-18.43,14.7-43.17-12.32-60.39,4.91-14.55,14.55-5.46,25.86-19.21,39.62-18.32,18.31-54.52-12.73-64.18,44.23h-98.8c13-76.6,61.69-34.86,86.33-59.49,18.49-18.5,6.26-33.72,25.83-53.29,24-24,58.94,16,84-9.06C689,677.35,669.73,622.42,723,622.08Z"/><path d="M620,143.18a8.92,8.92,0,0,1,5.08.45,9.09,9.09,0,0,1,5,11.75c-20.61,51.61-11.5,29.32-36.14,80.14l-50-24.14,3-4.92a30.91,30.91,0,0,0,3.81-22.17l-5.54-26.9a9.17,9.17,0,0,1,6.62-10.83,9,9,0,0,1,10.57,5.78l3.88,11.21a5.19,5.19,0,0,0,6.62,3.16l.09,0a8.7,8.7,0,0,0,5.48-5.18l13.75-37.07a9,9,0,0,1,12.06-5.05,8.75,8.75,0,0,1,4.77,5.43l.08,0a8.95,8.95,0,0,1,14.05,10Z"/><path class="cls-4" d="M419.42,290.43l-28.89,48.4h-12.1l19.24-107a46.83,46.83,0,0,0,12,1.54,47.69,47.69,0,0,0,5-.26A77,77,0,0,1,452,238.9c22.2,9.18,31.95,17.38,57.51,29.54l34.42-57.06,50,24.14-47.19,87.32a30,30,0,0,1-38.88,11.45C469,315.26,450.43,302.93,419.42,290.43Z"/><path class="cls-4" d="M564.19,23.33l-8.07,2.19A15.76,15.76,0,0,0,545,36.62l-2.18,8.05-2.18-8.05a15.77,15.77,0,0,0-11.09-11.1l-8.07-2.19,8.07-2.19a15.78,15.78,0,0,0,11.09-11.09l2.18-8L545,10.05a15.76,15.76,0,0,0,11.08,11.09Z"/><path class="cls-4" d="M508.8,70l-14.1,3.83a27.52,27.52,0,0,0-19.36,19.37l-3.81,14.07-3.81-14.07a27.5,27.5,0,0,0-19.36-19.37L434.26,70l14.1-3.83a27.52,27.52,0,0,0,19.36-19.37l3.81-14.07,3.81,14.07A27.54,27.54,0,0,0,494.7,66.2Z"/><path class="cls-3" d="M481.53,381.75a42.75,42.75,0,0,1-9.56,27l-110.91,137-46.12-61.52,58.82-73.53H245.29a35.92,35.92,0,0,1-35.53-30.6h0a96,96,0,0,1,9.43-41.22H438.63a42.91,42.91,0,0,1,42.9,42.92Z"/><path d="M435.73,142.57A34.53,34.53,0,1,1,384,188l16.37-25.18A25.16,25.16,0,0,1,412.61,153l15.43-5.8A17.69,17.69,0,0,0,435.73,142.57Z"/><path class="cls-3" d="M440.8,130.19a17.65,17.65,0,0,1-12.76,17L412.61,153a25.16,25.16,0,0,0-12.21,9.82L384,188a34.53,34.53,0,0,1,21.79-54.41,17.65,17.65,0,1,1,35-3.35Z"/><path class="cls-7" d="M397.67,231.83l-19.24,107H335l-16.12-15.74L385.89,227A46.22,46.22,0,0,0,397.67,231.83Z"/><path class="cls-4" d="M385.89,227l-67.05,96.12L335,338.83H219.19a95.38,95.38,0,0,1,11.47-18.3l49.69-62.36h-59a22.91,22.91,0,0,0-18.08,8.93l-52.44,68.53-46.49-38,51.28-67a83.26,83.26,0,0,1,65.73-32.46H301a235.26,235.26,0,0,1,33.67,2.42,79.65,79.65,0,0,1,42.8,20.17A47,47,0,0,0,385.89,227Z"/><polygon class="cls-4" points="373.76 410.66 318.84 479.31 303.1 410.66 373.76 410.66"/><path d="M314.94,484.19l46.12,61.52c-40,50.66-10.49,62.45-46.5,75.95a4.26,4.26,0,0,1-5.71-3.28L291.54,513.44Z"/><path class="cls-3" d="M303.1,410.66l15.74,68.65-27.3,34.13,14.3,86.67c-18.24,37.4-38.23,77.72-48.92,97.1H165.11l67-117.38a81.34,81.34,0,0,0,8.47-59.25l-28.23-118a95.53,95.53,0,0,1-2.63-22.55,35.92,35.92,0,0,0,35.53,30.6Z"/><path d="M283,744.68a6.78,6.78,0,0,1-6.74,7.84H133.52l31.59-55.31h91.81c-.22.42-.45.82-.67,1.22C231.33,743.47,277.18,710.15,283,744.68Z"/><path class="cls-6" d="M255.43,819.1c0,.39,0,.79,0,1.19H218.56c0-.4,0-.79,0-1.19a29.74,29.74,0,0,0-59.47,0c0,.4,0,.79,0,1.19H122.29c0-.4,0-.8,0-1.19a66.58,66.58,0,1,1,133.15,0Z"/><path class="cls-4" d="M181.39,474.25v77.63H47.4V475.05a144.21,144.21,0,0,0,60,15.66v3.11a6.27,6.27,0,0,0,6.27,6.27h12.85a6.27,6.27,0,0,0,6.27-6.27v-4.21A143.19,143.19,0,0,0,181.39,474.25Z"/><path class="cls-4" d="M181.39,438.23v36a143.19,143.19,0,0,1-48.57,15.36v-1.75a6.26,6.26,0,0,0-6.27-6.27H113.7a6.27,6.27,0,0,0-6.27,6.27v2.85a144.21,144.21,0,0,1-60-15.66V438.23a22.7,22.7,0,0,0-22.7-22.7h134A22.71,22.71,0,0,1,181.39,438.23Z"/><path d="M103.89,382.77l-3.69,4.92a9.46,9.46,0,0,1-13.26,1.89,9.77,9.77,0,0,1-1.85-1.84l-1.6,2.14a9.46,9.46,0,0,1-7.58,3.79,9.24,9.24,0,0,1-5.68-1.89l-.58-.47c1.85-9.05,4.76-19.05,9.29-26.92h0l1.11-1.47a11.12,11.12,0,0,0,1.37-2.38h0a12,12,0,0,0,.19-8.86l-.09-.24a30.17,30.17,0,0,1,4.09-29.24l18.77-24.53,46.49,38-12.66,16.54c-.76,1-1.44,2.08-2.11,3.15-.13.21-.27.41-.42.61L117,380.8a9.47,9.47,0,0,1-13.14,2Z"/><path class="cls-4" d="M139.61,415.53H127.26s-.91-20.77-7.09-38.92l7.26-9.67C138.24,386.4,139.61,415.53,139.61,415.53Z"/><path d="M132.82,489.61v4.21a6.27,6.27,0,0,1-6.27,6.27H113.7a6.27,6.27,0,0,1-6.27-6.27v-6a6.27,6.27,0,0,1,6.27-6.27h12.85a6.26,6.26,0,0,1,6.27,6.27Z"/><path class="cls-4" d="M127.26,415.53H66.47a170.27,170.27,0,0,1,3.18-24.22l.58.47a9.24,9.24,0,0,0,5.68,1.89,9.46,9.46,0,0,0,7.58-3.79l1.6-2.14a9.77,9.77,0,0,0,1.85,1.84,9.46,9.46,0,0,0,13.26-1.89l3.69-4.92a9.47,9.47,0,0,0,13.14-2l3.14-4.19C126.35,394.76,127.26,415.53,127.26,415.53Z"/><path class="cls-4" d="M69.65,391.31a170.27,170.27,0,0,0-3.18,24.22H54.11a152,152,0,0,1,6.24-34.45c2.23-7,5.26-13.93,9.34-19.46a29.2,29.2,0,0,1,11.93-10,12,12,0,0,1-.19,8.86h0c-.87,1.21-1.7,2.5-2.48,3.85h0C74.41,372.26,71.5,382.26,69.65,391.31Z"/><path class="cls-4" d="M81.42,360.53a11.12,11.12,0,0,1-1.37,2.38l-1.11,1.47C79.72,363,80.55,361.74,81.42,360.53Z"/><path d="M55.62,361.9a10,10,0,0,1,14.07-.28c-4.08,5.53-7.11,12.45-9.34,19.46l-4.75-5.26A10.23,10.23,0,0,1,55.62,361.9Z"/><path class="cls-4" d="M47.4,475.05v76.83H2V438.23a22.7,22.7,0,0,1,45.4,0Z"/><path class="cls-8" d="M47.4,475.05v76.83H2V438.23a22.7,22.7,0,0,1,45.4,0Z"/><path class="cls-9" d="M69.64,391.3h0l.58.47a9.24,9.24,0,0,0,5.68,1.89,9.46,9.46,0,0,0,7.58-3.79L102.14,365a9.43,9.43,0,0,0,1.63-7.91"/><path class="cls-9" d="M120.65,355.77a9.46,9.46,0,0,1-1.79,7.05L100.2,387.69a9.46,9.46,0,0,1-13.26,1.89,9.77,9.77,0,0,1-1.85-1.84"/><path class="cls-9" d="M60.35,381.08l-4.75-5.26a10.23,10.23,0,0,1,0-13.92,10,10,0,0,1,14.07-.28"/><line class="cls-9" x1="104.39" y1="297.65" x2="150.88" y2="335.63"/><path class="cls-9" d="M24.7,415.53A22.7,22.7,0,0,0,2,438.23V551.88H47.4V438.23A22.7,22.7,0,0,0,24.7,415.53Z"/><path class="cls-9" d="M24.7,415.53h134a22.71,22.71,0,0,1,22.71,22.7V551.88H47.4"/><path class="cls-9" d="M132.82,489.61a143.19,143.19,0,0,0,48.57-15.36"/><path class="cls-9" d="M47.4,475.05a144.21,144.21,0,0,0,60,15.66"/><path class="cls-9" d="M132.82,489.61v4.21a6.27,6.27,0,0,1-6.27,6.27H113.7a6.27,6.27,0,0,1-6.27-6.27v-6a6.27,6.27,0,0,1,6.27-6.27h12.85a6.26,6.26,0,0,1,6.27,6.27Z"/><path class="cls-9" d="M78.94,364.38c.78-1.35,1.61-2.64,2.48-3.85"/><path class="cls-9" d="M66.47,415.53a172,172,0,0,1,3.18-24.22c1.86-9.05,4.76-19.05,9.29-26.92"/><path class="cls-9" d="M139.61,415.53s-1.37-29.13-12.18-48.59"/><path class="cls-9" d="M120.17,376.61c6.18,18.15,7.09,38.92,7.09,38.92"/><path class="cls-9" d="M54.11,415.53a152.6,152.6,0,0,1,6.24-34.45c2.24-7,5.26-13.93,9.34-19.46a29.2,29.2,0,0,1,11.93-10"/><path class="cls-9" d="M609,124.81a8.75,8.75,0,0,0-4.77-5.43,9,9,0,0,0-12.06,5.05L578.38,161.5a8.7,8.7,0,0,1-5.48,5.18l-.09,0a5.19,5.19,0,0,1-6.62-3.16l-3.88-11.21a9,9,0,0,0-10.57-5.78,9.17,9.17,0,0,0-6.62,10.83l5.54,26.9a30.91,30.91,0,0,1-3.81,22.17l-37.39,62C483.9,256.28,474.15,248.08,452,238.9a77,77,0,0,0-37.35-5.79,47.33,47.33,0,0,1-16.93-1.28,47.39,47.39,0,0,1-20.18-11.07,79.65,79.65,0,0,0-42.8-20.17A235.26,235.26,0,0,0,301,198.17H221.4a83.26,83.26,0,0,0-65.73,32.46l-70,91.55a30.17,30.17,0,0,0-4.09,29.24l.09.24a12,12,0,0,1-.19,8.86h0a11.12,11.12,0,0,1-1.37,2.38l-1.11,1.47h0"/><path class="cls-9" d="M595.09,167.91l13.72-37a9.48,9.48,0,0,0,.15-6.13"/><path class="cls-9" d="M609,124.79a8.95,8.95,0,0,1,14.05,10l-16,43.09"/><path class="cls-9" d="M620,143.18a8.92,8.92,0,0,1,5.08.45,9.18,9.18,0,0,1,5,11.75c-8.76,23.58-27.8,63.89-36.14,80.14l-47.19,87.32a30,30,0,0,1-38.88,11.45c-38.86-19-57.4-31.36-88.41-43.86"/><path class="cls-9" d="M209.76,380.05a95.95,95.95,0,0,1,20.9-59.52l49.69-62.36h-59a22.91,22.91,0,0,0-18.08,8.93l-65.1,85.07c-.76,1-1.44,2.08-2.11,3.15-.13.21-.27.41-.42.61L117,380.8a9.47,9.47,0,0,1-13.14,2"/><path class="cls-9" d="M305.84,600.11c-18.24,37.4-38.44,77.61-48.92,97.1-.22.42-.45.82-.67,1.22-24.92,45,20.93,11.72,26.77,46.25a6.78,6.78,0,0,1-6.74,7.84H133.52l98.63-172.69a81.34,81.34,0,0,0,8.47-59.25l-28.23-118a95.53,95.53,0,0,1-2.63-22.55"/><line class="cls-9" x1="318.84" y1="479.31" x2="303.1" y2="410.66"/><line class="cls-9" x1="426.37" y1="278.78" x2="390.53" y2="338.83"/><path class="cls-9" d="M219.18,338.83H438.63A42.9,42.9,0,0,1,472,408.73l-110.91,137c-40,50.67-10.49,62.45-46.5,75.95a4.26,4.26,0,0,1-5.71-3.28L291.54,513.44l82.22-102.78H245.29a35.92,35.92,0,0,1-35.53-30.6h0"/><line class="cls-9" x1="165.11" y1="697.21" x2="256.92" y2="697.21"/><line class="cls-9" x1="314.94" y1="484.19" x2="361.06" y2="545.71"/><line class="cls-9" x1="543.88" y1="211.38" x2="593.9" y2="235.52"/><path class="cls-9" d="M428,147.15a17.65,17.65,0,1,0-22.22-13.61,34.54,34.54,0,1,0,29.91,9"/><path class="cls-9" d="M428,147.15,412.61,153a25.16,25.16,0,0,0-12.21,9.82L384,188"/><polyline class="cls-9" points="385.89 226.97 318.84 323.09 334.96 338.83"/><line class="cls-9" x1="378.43" y1="338.83" x2="397.67" y2="231.83"/><path class="cls-9" d="M255.42,820.29c0-.4,0-.8,0-1.19a66.58,66.58,0,1,0-133.15,0c0,.39,0,.79,0,1.19h36.86c0-.4,0-.79,0-1.19a29.74,29.74,0,0,1,59.47,0c0,.4,0,.79,0,1.19Z"/><polyline class="cls-9" points="919.12 544.31 919.12 338.11 661.3 338.11 661.3 458.22 551.19 458.22 551.19 578.33 441.08 578.33 441.08 698.43 330.98 698.43 330.98 820.29 782.52 820.29"/><path class="cls-9" d="M751.32,581a154.53,154.53,0,1,0,6.72-6.57"/><path class="cls-9" d="M824.19,653.92a51.42,51.42,0,1,0,6.87-6.43"/><path class="cls-9" d="M787.75,617.47a102.74,102.74,0,1,0,6.75-6.54"/><path class="cls-9" d="M689.21,518.94l-16.62-16.63a4.7,4.7,0,1,1,6.65-6.64L866.85,683.28a4.7,4.7,0,1,1-6.65,6.64Z"/><polyline class="cls-9" points="746.02 575.75 697.89 575.75 641.07 518.94 689.21 518.94"/><polyline class="cls-9" points="694.92 511.35 694.92 465.09 751.74 521.91 751.74 568.17"/><path class="cls-9" d="M911.38,19.16V76A108.68,108.68,0,0,1,802.7,184.71H791.63A108.67,108.67,0,0,1,683,76V19.16"/><line class="cls-9" x1="683.47" y1="19.16" x2="910.86" y2="19.16"/><path class="cls-9" d="M779.18,184.32a28.31,28.31,0,1,0,36,0"/><path class="cls-9" d="M787,232.6v21.1a38.67,38.67,0,0,1-38.67,38.67,15.8,15.8,0,0,0-15.8,15.8v29.94"/><path class="cls-9" d="M807.35,232.6v21.1A38.67,38.67,0,0,0,846,292.37a15.8,15.8,0,0,1,15.8,15.8v29.94"/><path class="cls-9" d="M680.52,141.48a15.62,15.62,0,1,0,15.61,15.62,31.12,31.12,0,0,0-18.88-28.61l-27.11-11.58a49.85,49.85,0,0,1-30.25-45.84V39.21a20,20,0,0,1,20.05-20h43.53"/><path class="cls-9" d="M913.81,141.48A15.62,15.62,0,1,1,898.2,157.1a31.1,31.1,0,0,1,18.88-28.61l27.11-11.58a49.85,49.85,0,0,0,30.25-45.84V39.21a20.05,20.05,0,0,0-20.05-20H910.86"/><polygon class="cls-9" points="835.94 77.88 817.65 97.14 821.13 123.47 797.16 112.01 773.2 123.47 776.69 97.14 758.39 77.88 784.51 73.07 797.16 49.71 809.82 73.07 835.94 77.88"/><path class="cls-9" d="M471.53,32.76l-3.81,14.07A27.52,27.52,0,0,1,448.36,66.2L434.26,70l14.1,3.83a27.5,27.5,0,0,1,19.36,19.37l3.81,14.07,3.81-14.07A27.52,27.52,0,0,1,494.7,73.86L508.8,70,494.7,66.2a27.54,27.54,0,0,1-19.36-19.37Z"/><path class="cls-9" d="M542.86,2l-2.18,8.05a15.78,15.78,0,0,1-11.09,11.09l-8.07,2.19,8.07,2.19a15.77,15.77,0,0,1,11.09,11.1l2.18,8.05L545,36.62a15.76,15.76,0,0,1,11.08-11.1l8.07-2.19-8.07-2.19A15.76,15.76,0,0,1,545,10.05Z"/><path class="cls-9" d="M471.74,820.29c13-76.6,61.69-34.86,86.33-59.49,18.49-18.5,6.26-33.72,25.83-53.29,24-24,58.94,16,84-9.06,21.1-21.1,1.85-76,55.08-76.37"/><path class="cls-9" d="M660.69,820.29c1.8-9,3.29-18.09,13.58-28.39,20.48-20.48,48.85,5.53,72.28-1.8"/><path class="cls-9" d="M570.54,820.29c9.66-57,45.86-25.92,64.18-44.23,13.75-13.76,4.66-25.07,19.21-39.62,17.22-17.23,42,9.79,60.39-4.91"/></g></g></svg>