<svg xmlns="http://www.w3.org/2000/svg" xmlns:xlink="http://www.w3.org/1999/xlink" viewBox="0 0 994.72 853.36"><defs><style>.cls-1,.cls-2,.cls-9{fill:none;}.cls-2,.cls-9{stroke:#000;stroke-linecap:round;stroke-linejoin:round;}.cls-2{stroke-width:1.5px;}.cls-3{fill:#fff;}.cls-4{fill:#8282d9;}.cls-5{fill:#ffb2e5;}.cls-6{fill:#d7ccff;}.cls-7{fill:url(#New_Pattern);}.cls-8{fill:url(#New_Pattern_2);}.cls-9{stroke-width:4px;}.cls-10{fill:#373a3a;}</style><pattern id="New_Pattern" data-name="New Pattern" width="70" height="50" patternTransform="translate(0 -30)" patternUnits="userSpaceOnUse" viewBox="0 0 70 50"><rect class="cls-1" width="70" height="50"/><path class="cls-2" d="M8.89,100c-.05-7.08.29-14.17.29-21.25,0-4.32-.37-17.48-.29-28.09"/><path class="cls-2" d="M22.94,99.84c0-1.65.09-3.31.09-5,0-2.48-.21-5-.21-7.45s0-3.83.05-7.28c0-1.44-.06-2.9-.06-4.35,0-3.1.31-4.62.31-7.37,0-1.4-.27-4.94-.27-8.33q0-1.61.09-3.21V50.11"/><path class="cls-2" d="M36.74,99.84c0-9.46.33-18.09.33-27.56,0-3.7-.15-7.46-.15-11.2,0-3.35-.1-7.29-.18-10.75"/><path class="cls-2" d="M50.93,99.75c0-1.24-.07-2.75-.07-4,0-1.92,0-3.86,0-5.79,0-3.87,0-7.66,0-11.51a8.42,8.42,0,0,1-.08-1.22c0-.32.18-6.68.18-8,0-2.2-.21-3.25-.21-5.64,0-1.3.06-2.65.17-3.86,0-2.89,0-5.89,0-9.05"/><path class="cls-2" d="M65,99.71c0-8.34-.55-15.73-.36-24.06.18-8.13.16-17.71.36-25.19"/><path class="cls-2" d="M8.89,50c-.05-7.08.29-14.17.29-21.25,0-4.32-.37-17.48-.29-28.09"/><path class="cls-2" d="M22.94,49.84c0-1.65.09-3.31.09-5,0-2.48-.21-5-.21-7.45s0-3.83.05-7.28c0-1.44-.06-2.9-.06-4.35,0-3.1.31-4.62.31-7.37,0-1.4-.27-4.94-.27-8.33q0-1.6.09-3.21V.11"/><path class="cls-2" d="M36.74,49.84c0-9.46.33-18.09.33-27.56,0-3.7-.15-7.46-.15-11.2,0-3.35-.1-7.29-.18-10.75"/><path class="cls-2" d="M50.93,49.75c0-1.24-.07-2.75-.07-4,0-1.92,0-3.86,0-5.79,0-3.87,0-7.66,0-11.51a8.42,8.42,0,0,1-.08-1.22c0-.32.18-6.68.18-8,0-2.2-.21-3.25-.21-5.64,0-1.3.06-2.65.17-3.86,0-2.89,0-5.89,0-9"/><path class="cls-2" d="M65,49.71c0-8.34-.55-15.73-.36-24.06.18-8.13.16-17.71.36-25.19"/><path class="cls-2" d="M8.89,0c-.05-7.08.29-14.17.29-21.25,0-4.32-.37-17.48-.29-28.09"/><path class="cls-2" d="M22.94-.16c0-1.65.09-3.31.09-5,0-2.48-.21-5-.21-7.45s0-3.83.05-7.28c0-1.44-.06-2.9-.06-4.35,0-3.1.31-4.62.31-7.37,0-1.4-.27-4.94-.27-8.33q0-1.61.09-3.21v-6.71"/><path class="cls-2" d="M36.74-.16c0-9.46.33-18.09.33-27.56,0-3.7-.15-7.46-.15-11.2,0-3.35-.1-7.29-.18-10.75"/><path class="cls-2" d="M50.93-.25c0-1.24-.07-2.75-.07-4,0-1.92,0-3.86,0-5.79,0-3.87,0-7.66,0-11.51a8.42,8.42,0,0,1-.08-1.22c0-.32.18-6.68.18-8,0-2.2-.21-3.25-.21-5.64,0-1.3.06-2.65.17-3.86,0-2.89,0-5.89,0-9.05"/><path class="cls-2" d="M65-.29c0-8.34-.55-15.73-.36-24.06.18-8.13.16-17.71.36-25.19"/></pattern><pattern id="New_Pattern_2" data-name="New Pattern 2" width="40" height="40" patternTransform="translate(0 -30)" patternUnits="userSpaceOnUse" viewBox="0 0 40 40"><rect class="cls-1" width="40" height="40"/><path d="M36.18,30a1.9,1.9,0,0,0,1.91,1.91V28.09A1.9,1.9,0,0,0,36.18,30Z"/><path d="M40,33.82a1.9,1.9,0,0,0,1.91-1.91H38.09A1.9,1.9,0,0,0,40,33.82Z"/><path d="M40,26.18a1.9,1.9,0,0,0-1.91,1.91h3.82A1.9,1.9,0,0,0,40,26.18Z"/><path d="M16.18,40a1.9,1.9,0,0,0,1.91,1.91V38.09A1.9,1.9,0,0,0,16.18,40Z"/><path d="M21.91,38.09v3.82a1.91,1.91,0,0,0,0-3.82Z"/><path d="M20,36.18a1.9,1.9,0,0,0-1.91,1.91h3.82A1.9,1.9,0,0,0,20,36.18Z"/><path d="M1.91,28.09v3.82a1.91,1.91,0,0,0,0-3.82Z"/><path d="M36.18,10a1.9,1.9,0,0,0,1.91,1.91V8.09A1.9,1.9,0,0,0,36.18,10Z"/><path d="M40,13.82a1.9,1.9,0,0,0,1.91-1.91H38.09A1.9,1.9,0,0,0,40,13.82Z"/><path d="M40,6.18a1.9,1.9,0,0,0-1.91,1.91h3.82A1.9,1.9,0,0,0,40,6.18Z"/><path d="M18.79,16.37a1.92,1.92,0,0,0-1.21,2.42l3.63-1.21A1.92,1.92,0,0,0,18.79,16.37Z"/><path d="M22.42,21.21l-3.63,1.21a1.91,1.91,0,0,0,3.63-1.21Z"/><path d="M16.37,21.21a1.92,1.92,0,0,0,2.42,1.21l-1.21-3.63A1.92,1.92,0,0,0,16.37,21.21Z"/><path d="M23.63,18.79a1.92,1.92,0,0,0-2.42-1.21l1.21,3.63A1.92,1.92,0,0,0,23.63,18.79Z"/><path d="M1.91,8.09v3.82a1.91,1.91,0,0,0,0-3.82Z"/><path d="M20,3.82a1.9,1.9,0,0,0,1.91-1.91H18.09A1.9,1.9,0,0,0,20,3.82Z"/><path d="M0,33.82a1.9,1.9,0,0,0,1.91-1.91H-1.91A1.9,1.9,0,0,0,0,33.82Z"/><path d="M0,26.18a1.9,1.9,0,0,0-1.91,1.91H1.91A1.9,1.9,0,0,0,0,26.18Z"/><path d="M0,13.82a1.9,1.9,0,0,0,1.91-1.91H-1.91A1.9,1.9,0,0,0,0,13.82Z"/><path d="M0,6.18A1.9,1.9,0,0,0-1.91,8.09H1.91A1.9,1.9,0,0,0,0,6.18Z"/><path d="M16.18,0a1.9,1.9,0,0,0,1.91,1.91V-1.91A1.9,1.9,0,0,0,16.18,0Z"/><path d="M21.91-1.91V1.91A1.9,1.9,0,0,0,23.82,0,1.9,1.9,0,0,0,21.91-1.91Z"/></pattern></defs><g id="Layer_2" data-name="Layer 2"><g id="illustrations"><path class="cls-3" d="M552.05,343.77a9.05,9.05,0,0,0,6.29,6.27h.06L574,354.29l-15.58,4.23h-.06a9.09,9.09,0,0,0-6.29,6.27s0,.06,0,.09l-4.23,15.58-4.23-15.58a.06.06,0,0,0,0-.05,9,9,0,0,0-6.28-6.31h-.06l-15.59-4.23,15.59-4.24h.06a9,9,0,0,0,6.28-6.3,0,0,0,0,0,0,0l4.23-15.6L552,343.7S552.05,343.74,552.05,343.77Z"/><path class="cls-3" d="M569.24,450.69a15,15,0,0,0-10.49-10.49.24.24,0,0,0-.1,0l-26-7.06,26-7.05.1,0a15,15,0,0,0,10.49-10.49s0-.06,0-.09l7.06-26,7,26a.58.58,0,0,1,0,.14A15,15,0,0,0,593.88,426a.29.29,0,0,1,.1,0l26,7.05-26,7.06-.1,0a14.81,14.81,0,0,0-10.49,10.44.7.7,0,0,1,0,.14l-7,26-7.06-26S569.24,450.72,569.24,450.69Z"/><polygon class="cls-3" points="417.42 603.57 358.25 603.57 387.84 562.58 417.42 603.57"/><path d="M992.72,851.36H850.84c0-35.16,28.57-17.85,20.14-55.9,0,0,0-.06,0-.09L866.2,774c10.35-2.16,19.23,10.15,25.42,22.62h89.46Z"/><path class="cls-4" d="M806.43,505.21,736.07,796.59H649.38c-1.82-13.34-6.38-26.15-17.22-26.15L706.89,461A9.82,9.82,0,0,0,720.64,453a9.82,9.82,0,0,0,12.62-1.07l.32-.32a9.8,9.8,0,0,0,2.85-6.32,9.82,9.82,0,0,0,7.69-2.85l.32-.32a9.8,9.8,0,0,0,0-13.88l-1.66-1.67a38.42,38.42,0,0,0,1.71-9.64,8,8,0,0,0,3.86-14.52l-19.5-14A40.83,40.83,0,0,1,760.05,374h84.74l.06-.06a74.43,74.43,0,0,0,46.82,20.48c3.76,15.89,57.22,251.43,89.41,402.21H891.62c-6.19-12.47-15.07-24.78-25.42-22.62Z"/><path d="M805.74,151.06a11.62,11.62,0,1,0-16.16-15.18c-1.45-10.5-.25-22.58,5.16-37.56A41,41,0,0,1,806,96.64c23-.25,41.62,18.9,41.7,41.94,0,.92,0,1.84.06,2.74a42.29,42.29,0,0,0,36.65,39.94c35.73,5.08,61.73,34.9,52.12,67.2a34,34,0,0,1-1.54,6.93,74.93,74.93,0,0,1-42.6,139l-.71-.05a75.72,75.72,0,0,1-46.82-20.48,74.75,74.75,0,0,1-11-95.59l.85-1.26a50.63,50.63,0,0,1-25-32.27.75.75,0,0,1,0-.16,50.31,50.31,0,0,1-1.45-12,50.93,50.93,0,0,1,1.6-12.68h0a49.44,49.44,0,0,1,3.83-10.16,27.34,27.34,0,0,0-1.43-27.38c-.75-1.13-1.49-2.26-2.24-3.37-5.32-8-10.5-15.53-14.39-23.65a65.71,65.71,0,0,0,9.6-4l.52-.28Z"/><path class="cls-3" d="M914.13,412.28a34.9,34.9,0,0,1-6.49,50.85q-10.29-44.89-16-68.75l.71.05a75.29,75.29,0,0,0,41.61-10h0Z"/><path class="cls-5" d="M844.85,373.9l-.06.06H760.05a40.69,40.69,0,0,0-20.19,5.34L725.3,291.59,692.18,321l-49.4-50.24c52.58-49.34,66.1-71.9,96.62-71.9,23.18,0,33.55,16.25,70.44,21a50.93,50.93,0,0,0-1.6,12.68,50.31,50.31,0,0,0,1.45,12,.75.75,0,0,0,0,.16c2.87,13.57,11.69,25.41,24.12,33.53a74.75,74.75,0,0,0,11,95.59Z"/><path class="cls-3" d="M834.7,277.05l-.85,1.26c-12.43-8.12-21.25-20-24.12-33.53A50.63,50.63,0,0,0,834.7,277.05Z"/><path class="cls-3" d="M811.66,140.93a11.63,11.63,0,0,1-5.92,10.13h0l-.52.28a65.71,65.71,0,0,1-9.6,4C799.51,163.46,804.69,171,810,179a42.67,42.67,0,0,1-6.5,0,41.26,41.26,0,0,1-8.77-80.72c-5.41,15-6.61,27.06-5.16,37.56a11.62,11.62,0,0,1,22.08,5.05Z"/><polygon class="cls-3" points="786.81 711.83 786.81 851.36 722.85 851.36 756.54 711.83 786.81 711.83"/><path class="cls-3" d="M728.85,388.45l19.5,14a8,8,0,0,1-7.72,14l-13-5.32-.44,1.08a9.81,9.81,0,0,0-10.63,2.15l-.33.32a9.9,9.9,0,0,0-2.63,4.76h0a9.8,9.8,0,0,0-9.9,2.41l-.32.32a9.83,9.83,0,0,0-2.87,7.09A9.72,9.72,0,0,0,701,432h-.3a9.82,9.82,0,0,0-6.94,16.76l4.53,4.52,0,0a39.24,39.24,0,0,1-5.42-1.43,34.77,34.77,0,0,1-16.7-10.49L618.29,376a62.24,62.24,0,0,1,5.25-87.63c7-6.21,13.34-12.08,19.24-17.6L692.18,321,679.8,332a5.21,5.21,0,0,0-.44,7.36l26,29.37a92.07,92.07,0,0,0,15.27,13.78Z"/><path class="cls-3" d="M744.44,428.25a9.8,9.8,0,0,1,0,13.88l-.32.32a9.82,9.82,0,0,1-7.69,2.85,9.8,9.8,0,0,0-2.85-7.56l-13.25-13.25a10.75,10.75,0,0,0,11.07-9.29Z"/><path class="cls-3" d="M740.63,416.38a8.07,8.07,0,0,0,3.86.56,38.42,38.42,0,0,1-1.71,9.64l-12.29-12.29a10,10,0,0,0-3.25-2.15l.44-1.08Z"/><path class="cls-3" d="M733.58,437.74a9.83,9.83,0,0,1,0,13.88l-.32.32A9.82,9.82,0,0,1,720.64,453a9.84,9.84,0,0,0-2.82-8l-10.17-10.16A9.77,9.77,0,0,0,701,432a9.72,9.72,0,0,1-.45-2.82h.09a10.74,10.74,0,0,0,14.84-.35,10.46,10.46,0,0,0,2.73-4.65h0a10.72,10.72,0,0,0,2.1.29Z"/><path d="M736.07,796.59l-13.22,54.77H591.12c0-35.19,24.56-12.67,35.77-59.1l5.27-21.82c10.84,0,15.4,12.81,17.22,26.15Z"/><path class="cls-3" d="M730.49,414.29l.91.91a10.75,10.75,0,0,1-11.07,9.29l-2.7-2.7a9.75,9.75,0,0,0-4-2.41h0a9.9,9.9,0,0,1,2.63-4.76l.33-.32a9.81,9.81,0,0,1,10.63-2.15A10,10,0,0,1,730.49,414.29Z"/><path class="cls-3" d="M717.82,445.05a9.82,9.82,0,0,1-6.94,16.76,9.81,9.81,0,0,1-6.94-2.88l-10.17-10.16a9.81,9.81,0,0,1-2.87-6.8,10.5,10.5,0,0,0,17.48-6.35Z"/><path class="cls-3" d="M718.54,422.7l1.79,1.79a10.72,10.72,0,0,1-2.1-.29h0A9.78,9.78,0,0,0,718.54,422.7Z"/><path class="cls-3" d="M717.63,421.79l.91.91a11.13,11.13,0,0,1-.32,1.5,10.74,10.74,0,0,1-17.57,5h-.09a9.79,9.79,0,0,1,2.87-7.09l.32-.32a9.84,9.84,0,0,1,13.88,0Z"/><path class="cls-3" d="M707.65,434.89l.73.73A10.5,10.5,0,0,1,690.9,442a9.82,9.82,0,0,1,9.81-10h.3A9.77,9.77,0,0,1,707.65,434.89Z"/><path class="cls-3" d="M646.31,711.83l-19.42,80.43c-11.21,46.43-35.77,23.91-35.77,59.1H547.8v-78a61.5,61.5,0,0,0,61.5-61.5Z"/><rect x="527.67" y="638.04" width="104.49" height="49.19"/><circle class="cls-6" cx="602.72" cy="597.07" r="26.41"/><polygon class="cls-3" points="603.52 113.26 523.17 113.26 489.14 147.3 569.48 147.3 603.52 113.26"/><polygon class="cls-3" points="490.46 156.7 523.17 189.41 603.52 189.41 570.81 156.7 490.46 156.7"/><polygon class="cls-7" points="603.52 113.26 523.17 113.26 489.14 147.3 569.48 147.3 603.52 113.26"/><polygon class="cls-7" points="490.46 156.7 523.17 189.41 603.52 189.41 570.81 156.7 490.46 156.7"/><path d="M593,147.3a4.7,4.7,0,1,1,0,9.4H357.67a4.7,4.7,0,1,1,0-9.4Z"/><path d="M552.49,550.48l-7.94,2.15A68.89,68.89,0,0,0,496.1,601l-2.19,8.06-2.16-8a68.84,68.84,0,0,0-48.44-48.47l-8-2.17,8-2.17a68.87,68.87,0,0,0,48.44-48.48l2.16-7.95,2.19,8.06a68.9,68.9,0,0,0,48.45,48.39Z"/><path class="cls-3" d="M493.9,480.37a70.11,70.11,0,1,1-70.11,70.11A70.11,70.11,0,0,1,493.9,480.37Zm50.65,72.26,7.94-2.15-7.94-2.15a68.9,68.9,0,0,1-48.45-48.39l-2.19-8.06-2.16,7.95a68.87,68.87,0,0,1-48.44,48.48l-8,2.17,8,2.17a68.84,68.84,0,0,1,48.44,48.47l2.16,8L496.1,601A68.89,68.89,0,0,1,544.55,552.63Z"/><path class="cls-7" d="M493.9,480.37a70.11,70.11,0,1,1-70.11,70.11A70.11,70.11,0,0,1,493.9,480.37Zm50.65,72.26,7.94-2.15-7.94-2.15a68.9,68.9,0,0,1-48.45-48.39l-2.19-8.06-2.16,7.95a68.87,68.87,0,0,1-48.44,48.48l-8,2.17,8,2.17a68.84,68.84,0,0,1,48.44,48.47l2.16,8L496.1,601A68.89,68.89,0,0,1,544.55,552.63Z"/><path class="cls-5" d="M519.72,750V851.36h-65V750A58.86,58.86,0,1,0,337,750V851.36H272V750a123.86,123.86,0,1,1,247.72,0Z"/><path class="cls-4" d="M490.46,156.7l17.82,17.82a150,150,0,1,1-.17-46.19l-19,19H472.37a112.5,112.5,0,1,0,0,9.4Z"/><path class="cls-5" d="M493.9,410.48v45.27H425C442.78,434.35,475.19,423.63,493.9,410.48Z"/><path class="cls-4" d="M493.9,379.23v31.25c-18.71,13.15-51.12,23.87-68.9,45.27H390.1c6.69-8.24,18.17-10.64,18.17-19.06,0-4.51-4.9-15.47-22.36-15.47-16.53,0-42.12,6.76-67.93,19.57V392.07c11.44.85,23.1,2.44,38.6-5C400.73,366,391.31,349,417.51,330.4h59.4c-21.32,21.57-46,35.26-46,52.34,0,9.58,3.42,16.35,12.93,16.35C458.66,399.09,480,383.61,493.9,379.23Z"/><path class="cls-5" d="M493.9,330.4v48.83c-13.91,4.38-35.24,19.86-50,19.86-9.51,0-12.93-6.77-12.93-16.35,0-17.08,24.63-30.77,46-52.34Z"/><path class="cls-3" d="M472.37,147.3H434.82a75,75,0,1,0,0,9.4h37.55a112.5,112.5,0,1,1,0-9.4Z"/><path class="cls-4" d="M434.82,147.3H397.17a37.5,37.5,0,1,0,0,9.4h37.65a75,75,0,1,1,0-9.4Z"/><path class="cls-5" d="M318,330.4h99.53C391.31,349,400.73,366,356.58,387.09c-15.5,7.42-27.16,5.83-38.6,5Z"/><path class="cls-5" d="M385.91,421.22c17.46,0,22.36,11,22.36,15.47,0,8.42-11.48,10.82-18.17,19.06H318v-15C343.79,428,369.38,421.22,385.91,421.22Z"/><path class="cls-3" d="M397.17,147.3h-39.5a4.7,4.7,0,1,0,0,9.4h39.5a37.5,37.5,0,1,1,0-9.4Z"/><path class="cls-4" d="M372.32,480.37v21.36a118.87,118.87,0,0,1-237.73,0V480.37h55v21.36a63.87,63.87,0,0,0,127.73,0V480.37Z"/><polygon points="289.96 362.17 289.96 423.98 223.26 423.98 223.26 463.95 152.38 393.07 223.26 322.19 223.26 362.17 289.96 362.17"/><polygon class="cls-3" points="245.95 816.38 245.95 851.17 211.17 851.17 245.95 816.38"/><polygon class="cls-3" points="245.95 781.59 245.95 816.38 211.17 781.59 245.95 781.59"/><path class="cls-3" d="M246,701.09v34.25H235.78c0-.29,0-.59,0-.88A116.66,116.66,0,0,0,231,701.09Z"/><rect class="cls-4" x="186.57" y="791.78" width="49.2" height="49.2" transform="translate(-515.36 388.33) rotate(-44.99)"/><path d="M235.79,734.46c0,.29,0,.59,0,.88H118.89V701.09H231A116.66,116.66,0,0,1,235.79,734.46Z"/><path class="cls-3" d="M118.89,735.34H235.78a116.2,116.2,0,0,1-9.89,46.25H176.38v54.68A116.9,116.9,0,1,1,231,701.09H118.89Z"/><path class="cls-8" d="M118.89,735.34H235.78a116.2,116.2,0,0,1-9.89,46.25H176.38v54.68A116.9,116.9,0,1,1,231,701.09H118.89Z"/><polygon class="cls-3" points="211.17 781.59 176.38 816.38 176.38 781.59 211.17 781.59"/><polygon class="cls-3" points="211.17 851.17 176.38 851.17 176.38 816.38 211.17 851.17"/><circle class="cls-3" cx="112.59" cy="577.49" r="17.64"/><polyline class="cls-9" points="722.85 851.36 786.81 851.36 786.81 711.83 756.54 711.83"/><path class="cls-9" d="M646.31,711.83h-37a61.5,61.5,0,0,1-61.5,61.5v78h43.32"/><line class="cls-9" x1="870.96" y1="795.37" x2="806.43" y2="505.21"/><path class="cls-9" d="M844.79,374H760.05a40.83,40.83,0,0,0-31.2,14.49l0,0"/><path class="cls-9" d="M706.89,461a9.68,9.68,0,0,1-2.95-2l-10.17-10.16A9.82,9.82,0,0,1,700.71,432h.3a9.77,9.77,0,0,1,6.64,2.87l10.17,10.16A9.81,9.81,0,0,1,706.89,461Z"/><path class="cls-9" d="M690.9,442a10.5,10.5,0,0,0,17.48-6.35"/><path class="cls-9" d="M701,432a9.72,9.72,0,0,1-.45-2.82,9.83,9.83,0,0,1,2.87-7.09l.32-.32a9.84,9.84,0,0,1,13.88,0l16,15.95a9.83,9.83,0,0,1,0,13.88l-.32.32A9.82,9.82,0,0,1,720.64,453"/><path class="cls-9" d="M713.65,419.37a9.9,9.9,0,0,1,2.63-4.76l.33-.32a9.81,9.81,0,0,1,10.63-2.15,10,10,0,0,1,3.25,2.15l14,14a9.8,9.8,0,0,1,0,13.88l-.32.32a9.82,9.82,0,0,1-7.69,2.85"/><path class="cls-9" d="M742.78,426.58a38.42,38.42,0,0,0,1.71-9.64"/><path class="cls-9" d="M736.07,796.59l70.86-293.45a91.23,91.23,0,0,0,31.2-69.29c0-3.08-.15-6.13-.44-9.13"/><path class="cls-9" d="M706.89,461l-80,331.3c-11.21,46.43-35.77,23.91-35.77,59.1H722.85l13.22-54.77"/><path class="cls-9" d="M700.65,429.2a10.74,10.74,0,0,0,17.57-5,11.13,11.13,0,0,0,.32-1.5"/><path class="cls-9" d="M718.23,424.2a10.75,10.75,0,0,0,13.17-9"/><path class="cls-9" d="M685.93,392.36a19.92,19.92,0,0,0,26.93,17.34,16.94,16.94,0,0,1,11.18-.14l16.59,6.82a8,8,0,0,0,7.72-14l-27.73-19.87a92.07,92.07,0,0,1-15.27-13.78l-26-29.37a5.21,5.21,0,0,1,.44-7.36l45.5-40.45,14.56,87.71"/><path class="cls-9" d="M809.84,219.9c-36.89-4.76-47.26-21-70.44-21-30.52,0-44,22.6-96.62,71.9-5.9,5.52-12.28,11.39-19.24,17.6A62.24,62.24,0,0,0,618.29,376l57.86,65.38a34.77,34.77,0,0,0,16.7,10.49,39.24,39.24,0,0,0,5.42,1.43"/><path class="cls-9" d="M794.74,98.32c-5.41,15-6.61,27.06-5.16,37.56a11.62,11.62,0,1,1,16.16,15.18l-.52.28"/><path class="cls-9" d="M809.73,244.78c2.87,13.57,11.69,25.41,24.12,33.53"/><path class="cls-9" d="M805.74,151.05l-.52.28a65.71,65.71,0,0,1-9.6,4c3.89,8.12,9,15.69,14.39,23.65.75,1.11,1.49,2.24,2.24,3.37a27.34,27.34,0,0,1,1.43,27.38,49.44,49.44,0,0,0-3.83,10.16h0a50.93,50.93,0,0,0-1.6,12.68,50.31,50.31,0,0,0,1.45,12,.75.75,0,0,0,0,.16,50.63,50.63,0,0,0,25,32.27l-.85,1.26a74.75,74.75,0,0,0,11,95.59,75.8,75.8,0,0,0,46.82,20.48l.71.05a74.93,74.93,0,0,0,42.6-139,34,34,0,0,0,1.54-6.93c9.61-32.3-16.39-62.12-52.12-67.2a42.29,42.29,0,0,1-36.65-39.94c0-.9-.06-1.82-.06-2.74-.08-23-18.67-42.19-41.7-41.94a41.25,41.25,0,0,0-2.48,82.4,42.67,42.67,0,0,0,6.5,0"/><line class="cls-9" x1="642.77" y1="270.78" x2="692.18" y2="321.03"/><path class="cls-9" d="M891.67,394.38c3.76,15.89,97.07,438.18,101.05,457H850.84c0-35.16,28.57-17.85,20.14-55.9,0,0,0-.06,0-.09"/><path class="cls-9" d="M632.16,770.44c10.84,0,15.4,12.81,17.22,26.15h86.69"/><path class="cls-9" d="M866.2,774c10.35-2.16,19.23,10.15,25.42,22.62h89.46"/><line class="cls-9" x1="933.99" y1="384.41" x2="905.64" y2="424.19"/><path class="cls-9" d="M907.64,463.13a34.9,34.9,0,0,0,6.49-50.85"/><path class="cls-9" d="M519.72,851.36h-65V750A58.86,58.86,0,1,0,337,750V851.36H272V750a123.86,123.86,0,1,1,247.72,0Z"/><path class="cls-9" d="M253.46,620.59A119,119,0,0,1,134.59,501.73V480.37h55v21.36a63.87,63.87,0,0,0,127.73,0V480.37h55v21.36A119,119,0,0,1,253.46,620.59Z"/><circle class="cls-9" cx="493.9" cy="550.48" r="70.11"/><polygon class="cls-9" points="493.9 379.23 493.9 330.4 317.98 330.4 317.98 455.75 493.9 455.75 493.9 379.23"/><path class="cls-9" d="M225.89,781.59a120.29,120.29,0,0,0,9.89-46.25c0-.29,0-.59,0-.88a116.84,116.84,0,1,0-59.41,101.81"/><polygon class="cls-9" points="417.42 603.57 387.84 562.58 358.25 603.57 417.42 603.57"/><polygon class="cls-9" points="245.95 816.38 245.95 851.17 176.38 851.17 176.38 781.59 245.95 781.59 245.95 816.38"/><rect class="cls-9" x="186.57" y="791.78" width="49.2" height="49.2" transform="translate(-515.48 388.53) rotate(-45.01)"/><polygon class="cls-9" points="223.26 322.19 152.38 393.07 223.26 463.95 223.26 423.98 289.96 423.98 289.96 362.17 223.26 362.17 223.26 322.19"/><path class="cls-9" d="M508.11,128.33a150,150,0,1,0,.17,46.19"/><path class="cls-9" d="M397.17,147.3a37.5,37.5,0,1,0,0,9.4"/><path class="cls-9" d="M434.82,147.3a75,75,0,1,0,0,9.4"/><path class="cls-9" d="M472.37,147.3a112.5,112.5,0,1,0,0,9.4"/><rect class="cls-9" x="527.67" y="638.04" width="104.49" height="49.19"/><polygon class="cls-9" points="235.78 735.34 118.89 735.34 118.89 701.09 245.95 701.09 245.95 735.34 235.78 735.34"/><circle class="cls-9" cx="602.72" cy="597.07" r="26.41"/><circle class="cls-9" cx="112.59" cy="577.49" r="17.64"/><path class="cls-9" d="M552.49,550.48l-7.94-2.15a68.9,68.9,0,0,1-48.45-48.39l-2.19-8.06-2.16,7.95a68.87,68.87,0,0,1-48.44,48.48l-8,2.17,8,2.17a68.84,68.84,0,0,1,48.44,48.47l2.16,8L496.1,601a68.89,68.89,0,0,1,48.45-48.39Z"/><path class="cls-9" d="M569.48,147.3H593a4.7,4.7,0,1,1,0,9.4H357.67a4.7,4.7,0,1,1,0-9.4Z"/><polyline class="cls-9" points="489.14 147.3 523.17 113.26 603.52 113.26 569.48 147.3"/><polyline class="cls-9" points="570.81 156.7 603.52 189.41 523.17 189.41 490.46 156.7"/><path class="cls-9" d="M620,433.11l-26-7.05a.29.29,0,0,0-.1,0,15,15,0,0,1-10.49-10.44.58.58,0,0,0,0-.14l-7-26-7.06,26s0,.06,0,.09A15,15,0,0,1,558.75,426l-.1,0-26,7.05,26,7.06a.24.24,0,0,1,.1,0,15,15,0,0,1,10.49,10.49s0,.06,0,.09l7.06,26,7-26a.7.7,0,0,0,0-.14,14.81,14.81,0,0,1,10.49-10.44l.1,0Z"/><path class="cls-10" d="M568.1,354.29,556,351h0a7,7,0,0,1-4.87-4.86s0,0,0-.05L547.8,334l-3.28,12.1a0,0,0,0,1,0,0,7,7,0,0,1-4.87,4.88h0l-12.09,3.29,12.09,3.28h0a7,7,0,0,1,4.87,4.89s0,0,0,0l3.28,12.08,3.28-12.08s0-.05,0-.07a7,7,0,0,1,4.87-4.86h0Z"/><path class="cls-9" d="M318,392.07c11.44.85,23.1,2.44,38.6-5C400.73,366,391.31,349,417.51,330.4"/><path class="cls-9" d="M476.91,330.4c-21.32,21.57-46,35.26-46,52.34,0,9.58,3.42,16.35,12.93,16.35,14.77,0,36.1-15.48,50-19.86"/><path class="cls-9" d="M493.9,410.48c-18.71,13.15-51.12,23.87-68.9,45.27"/><path class="cls-9" d="M318,440.79c25.81-12.81,51.4-19.57,67.93-19.57,17.46,0,22.36,11,22.36,15.47,0,8.42-11.48,10.82-18.17,19.06"/></g></g></svg>