<svg xmlns="http://www.w3.org/2000/svg" xmlns:xlink="http://www.w3.org/1999/xlink" viewBox="0 0 1073.61 906.07"><defs><style>.cls-1,.cls-10,.cls-2,.cls-6{fill:none;}.cls-2,.cls-6{stroke:#000;}.cls-10,.cls-2,.cls-6{stroke-linecap:round;stroke-linejoin:round;}.cls-2{stroke-width:1.5px;}.cls-3{fill:#fff;}.cls-4{fill:url(#New_Pattern);}.cls-5{fill:url(#New_Pattern_2);}.cls-10,.cls-6{stroke-width:4px;}.cls-7{fill:#d7ccff;}.cls-8{fill:#8282d9;}.cls-9{fill:#ffb2e5;}.cls-10{stroke:#fff;}</style><pattern id="New_Pattern" data-name="New Pattern" width="70" height="50" patternTransform="translate(0 -30)" patternUnits="userSpaceOnUse" viewBox="0 0 70 50"><rect class="cls-1" width="70" height="50"/><path class="cls-2" d="M8.89,100c-.05-7.08.29-14.17.29-21.25,0-4.32-.37-17.48-.29-28.09"/><path class="cls-2" d="M22.94,99.84c0-1.65.09-3.31.09-5,0-2.48-.21-5-.21-7.45s0-3.83.05-7.28c0-1.44-.06-2.9-.06-4.35,0-3.1.31-4.62.31-7.37,0-1.4-.27-4.94-.27-8.33q0-1.61.09-3.21V50.11"/><path class="cls-2" d="M36.74,99.84c0-9.46.33-18.09.33-27.56,0-3.7-.15-7.46-.15-11.2,0-3.35-.1-7.29-.18-10.75"/><path class="cls-2" d="M50.93,99.75c0-1.24-.07-2.75-.07-4,0-1.92,0-3.86,0-5.79,0-3.87,0-7.66,0-11.51a8.42,8.42,0,0,1-.08-1.22c0-.32.18-6.68.18-8,0-2.2-.21-3.25-.21-5.64,0-1.3.06-2.65.17-3.86,0-2.89,0-5.89,0-9.05"/><path class="cls-2" d="M65,99.71c0-8.34-.55-15.73-.36-24.06.18-8.13.16-17.71.36-25.19"/><path class="cls-2" d="M8.89,50c-.05-7.08.29-14.17.29-21.25,0-4.32-.37-17.48-.29-28.09"/><path class="cls-2" d="M22.94,49.84c0-1.65.09-3.31.09-5,0-2.48-.21-5-.21-7.45s0-3.83.05-7.28c0-1.44-.06-2.9-.06-4.35,0-3.1.31-4.62.31-7.37,0-1.4-.27-4.94-.27-8.33q0-1.6.09-3.21V.11"/><path class="cls-2" d="M36.74,49.84c0-9.46.33-18.09.33-27.56,0-3.7-.15-7.46-.15-11.2,0-3.35-.1-7.29-.18-10.75"/><path class="cls-2" d="M50.93,49.75c0-1.24-.07-2.75-.07-4,0-1.92,0-3.86,0-5.79,0-3.87,0-7.66,0-11.51a8.42,8.42,0,0,1-.08-1.22c0-.32.18-6.68.18-8,0-2.2-.21-3.25-.21-5.64,0-1.3.06-2.65.17-3.86,0-2.89,0-5.89,0-9"/><path class="cls-2" d="M65,49.71c0-8.34-.55-15.73-.36-24.06.18-8.13.16-17.71.36-25.19"/><path class="cls-2" d="M8.89,0c-.05-7.08.29-14.17.29-21.25,0-4.32-.37-17.48-.29-28.09"/><path class="cls-2" d="M22.94-.16c0-1.65.09-3.31.09-5,0-2.48-.21-5-.21-7.45s0-3.83.05-7.28c0-1.44-.06-2.9-.06-4.35,0-3.1.31-4.62.31-7.37,0-1.4-.27-4.94-.27-8.33q0-1.61.09-3.21v-6.71"/><path class="cls-2" d="M36.74-.16c0-9.46.33-18.09.33-27.56,0-3.7-.15-7.46-.15-11.2,0-3.35-.1-7.29-.18-10.75"/><path class="cls-2" d="M50.93-.25c0-1.24-.07-2.75-.07-4,0-1.92,0-3.86,0-5.79,0-3.87,0-7.66,0-11.51a8.42,8.42,0,0,1-.08-1.22c0-.32.18-6.68.18-8,0-2.2-.21-3.25-.21-5.64,0-1.3.06-2.65.17-3.86,0-2.89,0-5.89,0-9.05"/><path class="cls-2" d="M65-.29c0-8.34-.55-15.73-.36-24.06.18-8.13.16-17.71.36-25.19"/></pattern><pattern id="New_Pattern_2" data-name="New Pattern 2" width="40" height="40" patternTransform="translate(0 -30)" patternUnits="userSpaceOnUse" viewBox="0 0 40 40"><rect class="cls-1" width="40" height="40"/><path d="M36.18,30a1.9,1.9,0,0,0,1.91,1.91V28.09A1.9,1.9,0,0,0,36.18,30Z"/><path d="M40,33.82a1.9,1.9,0,0,0,1.91-1.91H38.09A1.9,1.9,0,0,0,40,33.82Z"/><path d="M40,26.18a1.9,1.9,0,0,0-1.91,1.91h3.82A1.9,1.9,0,0,0,40,26.18Z"/><path d="M16.18,40a1.9,1.9,0,0,0,1.91,1.91V38.09A1.9,1.9,0,0,0,16.18,40Z"/><path d="M21.91,38.09v3.82a1.91,1.91,0,0,0,0-3.82Z"/><path d="M20,36.18a1.9,1.9,0,0,0-1.91,1.91h3.82A1.9,1.9,0,0,0,20,36.18Z"/><path d="M1.91,28.09v3.82a1.91,1.91,0,0,0,0-3.82Z"/><path d="M36.18,10a1.9,1.9,0,0,0,1.91,1.91V8.09A1.9,1.9,0,0,0,36.18,10Z"/><path d="M40,13.82a1.9,1.9,0,0,0,1.91-1.91H38.09A1.9,1.9,0,0,0,40,13.82Z"/><path d="M40,6.18a1.9,1.9,0,0,0-1.91,1.91h3.82A1.9,1.9,0,0,0,40,6.18Z"/><path d="M18.79,16.37a1.92,1.92,0,0,0-1.21,2.42l3.63-1.21A1.92,1.92,0,0,0,18.79,16.37Z"/><path d="M22.42,21.21l-3.63,1.21a1.91,1.91,0,0,0,3.63-1.21Z"/><path d="M16.37,21.21a1.92,1.92,0,0,0,2.42,1.21l-1.21-3.63A1.92,1.92,0,0,0,16.37,21.21Z"/><path d="M23.63,18.79a1.92,1.92,0,0,0-2.42-1.21l1.21,3.63A1.92,1.92,0,0,0,23.63,18.79Z"/><path d="M1.91,8.09v3.82a1.91,1.91,0,0,0,0-3.82Z"/><path d="M20,3.82a1.9,1.9,0,0,0,1.91-1.91H18.09A1.9,1.9,0,0,0,20,3.82Z"/><path d="M0,33.82a1.9,1.9,0,0,0,1.91-1.91H-1.91A1.9,1.9,0,0,0,0,33.82Z"/><path d="M0,26.18a1.9,1.9,0,0,0-1.91,1.91H1.91A1.9,1.9,0,0,0,0,26.18Z"/><path d="M0,13.82a1.9,1.9,0,0,0,1.91-1.91H-1.91A1.9,1.9,0,0,0,0,13.82Z"/><path d="M0,6.18A1.9,1.9,0,0,0-1.91,8.09H1.91A1.9,1.9,0,0,0,0,6.18Z"/><path d="M16.18,0a1.9,1.9,0,0,0,1.91,1.91V-1.91A1.9,1.9,0,0,0,16.18,0Z"/><path d="M21.91-1.91V1.91A1.9,1.9,0,0,0,23.82,0,1.9,1.9,0,0,0,21.91-1.91Z"/></pattern></defs><g id="Layer_2" data-name="Layer 2"><g id="illustrations"><path class="cls-3" d="M1071.61,900h-63V854.89l43.78-43.77C1058.82,828.25,1071.61,842.8,1071.61,900Z"/><path class="cls-3" d="M1064.69,685.51V717.8c0,9.58-2.17,17.82-4.9,26L1008.65,795V713.8c.64.06,1.28.09,1.93.09a20,20,0,0,0,20.05-20v-8.34a17,17,0,0,1,34.06,0Z"/><path class="cls-3" d="M1008.65,795l51.14-51.14c-4.64,13.92-10.9,27.7-10.9,47.7a53.48,53.48,0,0,0,3.54,19.6l-43.78,43.77Z"/><path class="cls-3" d="M1008.65,854.89V900H921.92V658.58L990.53,590V693.85a20,20,0,0,0,18.12,19.95Z"/><path class="cls-3" d="M823.27,819.48V900h-143V800.56c1-.07,1.9-.11,2.86-.11A19.87,19.87,0,0,1,703,820.31v12a14.75,14.75,0,0,0,14.74,14.75,29.12,29.12,0,0,0,29.12-29.13V701.45a36,36,0,0,1,36-36,18.81,18.81,0,0,1,18.81,18.81v30.44a13.13,13.13,0,0,0,13.12,13.13,25.17,25.17,0,0,0,8.45-1.45Z"/><path class="cls-3" d="M990.53,524.21v3.85l-68.61,68.61V537.83l54.64-54.63A66.92,66.92,0,0,1,990.53,524.21Z"/><path class="cls-4" d="M1008.65,854.89V900H921.92V658.58L990.53,590V693.85a20,20,0,0,0,18.12,19.95Z"/><path class="cls-4" d="M823.27,819.48V900h-143V800.56c1-.07,1.9-.11,2.86-.11A19.87,19.87,0,0,1,703,820.31v12a14.75,14.75,0,0,0,14.74,14.75,29.12,29.12,0,0,0,29.12-29.13V701.45a36,36,0,0,1,36-36,18.81,18.81,0,0,1,18.81,18.81v30.44a13.13,13.13,0,0,0,13.12,13.13,25.17,25.17,0,0,0,8.45-1.45Z"/><path class="cls-5" d="M662.93,176.73a55,55,0,0,0,31.67,49.82h0l-21.06,45a104.66,104.66,0,0,1-60.28-94.81Z"/><path class="cls-5" d="M576.42,176.73H526.75a55,55,0,0,0-31.67-49.83l21.06-45A104.67,104.67,0,0,1,576.42,176.73Z"/><polygon class="cls-3" points="990.53 528.06 990.53 589.96 921.92 658.58 921.92 596.67 990.53 528.06"/><path class="cls-4" d="M990.53,524.21v3.85l-68.61,68.61V537.83l54.64-54.63A66.92,66.92,0,0,1,990.53,524.21Z"/><path class="cls-3" d="M976.56,483.2l-54.64,54.63V457.06h1.46A67,67,0,0,1,976.56,483.2Z"/><path class="cls-3" d="M823.27,847.93V726.35a25.27,25.27,0,0,0,16.81-23.81V611.17L921.92,693V900H823.27Z"/><path class="cls-3" d="M921.92,628.79V693l-81.84-81.84v-87a67.16,67.16,0,0,1,67.16-67.15h14.68Z"/><polygon class="cls-3" points="680.27 894.49 680.27 900.04 645.86 900.04 645.86 860.09 680.27 894.49"/><path class="cls-3" d="M680.27,847.93v46.56l-34.41-34.4V837.72a36.9,36.9,0,0,1,5.21-19Z"/><path class="cls-3" d="M680.27,800.56v47.37l-29.2-29.2a37.26,37.26,0,0,1,29.2-18.17Z"/><path class="cls-6" d="M645.86,860.09V900h425.75c0-57.24-12.8-71.79-19.18-88.92a53.48,53.48,0,0,1-3.54-19.6c0-20,6.26-33.78,10.9-47.7,2.73-8.2,4.9-16.44,4.9-26V685.51a17,17,0,0,0-34.06,0v8.34a20,20,0,0,1-20.05,20c-.65,0-1.29,0-1.93-.09a20,20,0,0,1-18.12-19.95V524.21a67.14,67.14,0,0,0-67.15-67.15H907.24a67.16,67.16,0,0,0-67.16,67.15V702.54a25.24,25.24,0,0,1-25.26,25.26,13.13,13.13,0,0,1-13.12-13.13V684.23a18.81,18.81,0,0,0-18.81-18.81,36,36,0,0,0-36,36V817.93a29.12,29.12,0,0,1-29.12,29.13A14.75,14.75,0,0,1,703,832.31v-12a19.87,19.87,0,0,0-19.87-19.86c-1,0-1.91,0-2.86.11a37.29,37.29,0,0,0-34.41,37.16Z"/><line class="cls-6" x1="680.27" y1="800.56" x2="680.27" y2="900.04"/><line class="cls-6" x1="823.27" y1="726.35" x2="823.27" y2="900.04"/><line class="cls-6" x1="921.92" y1="900.04" x2="921.92" y2="457.06"/><line class="cls-6" x1="1008.65" y1="713.8" x2="1008.65" y2="900.04"/><line class="cls-6" x1="680.27" y1="847.93" x2="651.06" y2="818.72"/><line class="cls-6" x1="823.27" y1="819.48" x2="791.81" y2="788.02"/><line class="cls-6" x1="823.27" y1="847.93" x2="882.2" y2="789"/><line class="cls-6" x1="823.27" y1="793.64" x2="882.2" y2="734.71"/><line class="cls-6" x1="921.92" y1="658.58" x2="990.53" y2="589.96"/><line class="cls-6" x1="1008.65" y1="794.96" x2="1059.79" y2="743.82"/><line class="cls-6" x1="1008.65" y1="854.89" x2="1052.43" y2="811.12"/><line class="cls-6" x1="921.92" y1="596.67" x2="990.53" y2="528.06"/><line class="cls-6" x1="921.92" y1="537.83" x2="976.56" y2="483.2"/><line class="cls-6" x1="921.92" y1="693.01" x2="840.08" y2="611.17"/><line class="cls-6" x1="921.92" y1="628.79" x2="874.58" y2="581.45"/><line class="cls-6" x1="680.27" y1="894.49" x2="645.86" y2="860.09"/><path class="cls-3" d="M673.54,271.54a104.69,104.69,0,1,0-60.28-94.81A104.1,104.1,0,0,0,673.54,271.54Zm262.69-241v521.3H253.44V30.55ZM900,103.23a7.46,7.46,0,0,0-7.47-7.46H866.11a7.47,7.47,0,0,0,0,14.93h26.42a7.48,7.48,0,0,0,7.47-7.47Zm0,39.47a7.47,7.47,0,0,0-7.47-7.47H866.11a7.47,7.47,0,0,0,0,14.94h26.42A7.48,7.48,0,0,0,900,142.7Zm0,39.47a7.46,7.46,0,0,0-7.47-7.47H866.11a7.47,7.47,0,0,0,0,14.94h26.42a7.48,7.48,0,0,0,7.47-7.47Zm0,39.47a7.46,7.46,0,0,0-7.47-7.47H866.11a7.47,7.47,0,0,0,0,14.93h26.42a7.46,7.46,0,0,0,7.47-7.46Zm0,39.46a7.46,7.46,0,0,0-7.47-7.46H866.11a7.47,7.47,0,0,0,0,14.93h26.42A7.48,7.48,0,0,0,900,261.1ZM716.83,406.73H896.61c-3.19-17.32-8.51-42.45-21.58-42.45-6.61,0-14.26,6-21.09,6-16.41,0-17.19-45.27-33.62-45.27-33.94,0-17.13,58.39-46.5,58.39-7.61,0-15.88-4.19-24.14-4.19C734.88,379.24,725.36,393.18,716.83,406.73Zm165,100.19V470.16H853.21v36.76Zm-43.87,0V488.18H809.35v18.74Zm-75.51,0V474H733.84v32.93Zm-43.87,0V433.4H690v73.52Zm-75.51,0V469.44H614.46v37.48Zm-43.87,0V478.3H570.59v28.62ZM471.75,281.4A104.68,104.68,0,1,0,367.07,176.73,104.67,104.67,0,0,0,471.75,281.4Zm52,225.52V456.76H495.08v50.16Zm-43.87,0V478.3H451.21v28.62Z"/><path class="cls-3" d="M892.53,95.77a7.47,7.47,0,0,1,0,14.93H866.11a7.47,7.47,0,0,1,0-14.93Z"/><path class="cls-3" d="M892.53,135.23a7.47,7.47,0,0,1,0,14.94H866.11a7.47,7.47,0,0,1,0-14.94Z"/><path class="cls-3" d="M892.53,174.7a7.47,7.47,0,0,1,0,14.94H866.11a7.47,7.47,0,0,1,0-14.94Z"/><path class="cls-3" d="M892.53,214.17a7.47,7.47,0,1,1,0,14.93H866.11a7.47,7.47,0,0,1,0-14.93Z"/><path class="cls-3" d="M892.53,253.64a7.47,7.47,0,0,1,0,14.93H866.11a7.47,7.47,0,1,1,0-14.93Z"/><path d="M896.61,406.73H716.83c8.53-13.55,18-27.49,32.85-27.49,8.26,0,16.53,4.19,24.14,4.19,29.37,0,12.56-58.39,46.5-58.39,16.43,0,17.21,45.27,33.62,45.27,6.83,0,14.48-6,21.09-6C888.1,364.28,893.42,389.41,896.61,406.73Z"/><rect class="cls-7" x="853.21" y="470.16" width="28.63" height="36.76"/><rect class="cls-8" x="809.35" y="488.18" width="28.62" height="18.74"/><rect class="cls-7" x="733.84" y="473.99" width="28.62" height="32.93"/><path class="cls-3" d="M717.93,121.72a55,55,0,1,1-55,55A55,55,0,0,1,717.93,121.72Z"/><rect class="cls-8" x="689.97" y="433.4" width="28.62" height="73.52"/><rect x="511.71" y="551.85" width="166.26" height="32.15"/><path class="cls-3" d="M662.93,176.73a55,55,0,0,0,31.67,49.82h0l-21.06,45a104.66,104.66,0,0,1-60.28-94.81Z"/><path class="cls-3" d="M576.42,176.73H526.75a55,55,0,0,0-31.67-49.83l21.06-45A104.67,104.67,0,0,1,576.42,176.73Z"/><path class="cls-5" d="M662.93,176.73a55,55,0,0,0,31.67,49.82h0l-21.06,45a104.66,104.66,0,0,1-60.28-94.81Z"/><rect class="cls-7" x="614.46" y="469.44" width="28.62" height="37.48"/><path class="cls-8" d="M613.26,176.73a104.62,104.62,0,1,1,60.28,94.81l21.06-45h0a55,55,0,1,0-31.67-49.82Z"/><rect class="cls-8" x="570.59" y="478.3" width="28.62" height="28.62"/><path class="cls-5" d="M576.42,176.73H526.75a55,55,0,0,0-31.67-49.83l21.06-45A104.67,104.67,0,0,1,576.42,176.73Z"/><path class="cls-8" d="M526.75,176.73h49.67a104.62,104.62,0,1,1-60.28-94.82l-21.06,45a55,55,0,1,0,31.67,49.83Z"/><rect class="cls-7" x="495.08" y="456.76" width="28.62" height="50.16"/><path class="cls-3" d="M495.08,126.9a55,55,0,1,1-23.33-5.18A55,55,0,0,1,495.08,126.9Z"/><rect class="cls-8" x="451.21" y="478.3" width="28.62" height="28.62"/><polygon class="cls-6" points="511.71 551.85 253.44 551.85 253.44 30.55 936.23 30.55 936.23 551.85 511.71 551.85"/><path class="cls-6" d="M576.42,176.73A104.68,104.68,0,1,0,471.75,281.4,104.7,104.7,0,0,0,576.42,176.73Z"/><path class="cls-6" d="M526.75,176.73a55,55,0,1,0-55,55A55,55,0,0,0,526.75,176.73Z"/><line class="cls-6" x1="576.42" y1="176.73" x2="526.75" y2="176.73"/><line class="cls-6" x1="495.08" y1="126.9" x2="516.14" y2="81.91"/><path class="cls-6" d="M613.26,176.73A104.68,104.68,0,1,0,717.93,72.05,104.7,104.7,0,0,0,613.26,176.73Z"/><path class="cls-6" d="M662.93,176.73a55,55,0,1,0,55-55A55,55,0,0,0,662.93,176.73Z"/><line class="cls-6" x1="613.26" y1="176.73" x2="662.93" y2="176.73"/><polyline class="cls-6" points="694.6 226.56 673.54 271.54 673.54 271.55"/><path class="cls-6" d="M892.53,110.7H866.11a7.47,7.47,0,0,1,0-14.93h26.42a7.47,7.47,0,0,1,0,14.93Z"/><path class="cls-6" d="M892.53,150.17H866.11a7.47,7.47,0,0,1,0-14.94h26.42a7.47,7.47,0,0,1,0,14.94Z"/><path class="cls-6" d="M892.53,189.64H866.11a7.47,7.47,0,0,1,0-14.94h26.42a7.47,7.47,0,0,1,0,14.94Z"/><path class="cls-6" d="M892.53,229.1H866.11a7.47,7.47,0,0,1,0-14.93h26.42a7.47,7.47,0,1,1,0,14.93Z"/><path class="cls-6" d="M892.53,268.57H866.11a7.47,7.47,0,1,1,0-14.93h26.42a7.47,7.47,0,0,1,0,14.93Z"/><path class="cls-6" d="M716.83,406.73c8.53-13.55,18-27.49,32.85-27.49,8.26,0,16.53,4.19,24.14,4.19,29.37,0,12.56-58.39,46.5-58.39,16.43,0,17.21,45.27,33.62,45.27,6.83,0,14.48-6,21.09-6,13.07,0,18.39,25.13,21.58,42.45Z"/><rect class="cls-6" x="451.21" y="478.3" width="28.62" height="28.62"/><rect class="cls-6" x="495.08" y="456.76" width="28.62" height="50.16"/><line class="cls-6" x1="451.41" y1="520.92" x2="523.7" y2="520.92"/><rect class="cls-6" x="570.59" y="478.3" width="28.62" height="28.62"/><rect class="cls-6" x="614.46" y="469.44" width="28.62" height="37.48"/><line class="cls-6" x1="570.79" y1="520.92" x2="643.08" y2="520.92"/><rect class="cls-6" x="689.97" y="433.4" width="28.62" height="73.52"/><rect class="cls-6" x="733.84" y="473.99" width="28.62" height="32.93"/><line class="cls-6" x1="690.17" y1="520.92" x2="762.46" y2="520.92"/><rect class="cls-6" x="809.35" y="488.18" width="28.62" height="18.74"/><rect class="cls-6" x="853.21" y="470.16" width="28.63" height="36.76"/><line class="cls-6" x1="809.55" y1="520.92" x2="881.84" y2="520.92"/><polyline class="cls-6" points="677.97 551.85 677.97 584 511.71 584 511.71 551.85"/><line class="cls-6" x1="560.28" y1="584" x2="431.1" y2="900.04"/><line class="cls-6" x1="629.4" y1="584" x2="758.58" y2="900.04"/><line class="cls-6" x1="516.69" y1="690.66" x2="672.99" y2="690.66"/><path class="cls-9" d="M681.45,315.73a17.5,17.5,0,0,1,5.4,34.56l-1.52.29a17.51,17.51,0,0,1-11.39,26.87l-59.39,11.06a155.64,155.64,0,0,1-19.72,2.39l-210.31,12-34.89-92c6.21-8.27,11.75-19.9,16.59-32.84H433.5v24.87H543.21A26.18,26.18,0,0,0,565,291.19,201.69,201.69,0,0,0,581.35,261a17.5,17.5,0,0,1,32.27,13.56,231.33,231.33,0,0,1-16,30.61l63.94-11.91a17.5,17.5,0,0,1,19.9,22.45Z"/><polygon points="439.49 828.82 439.49 844.68 499.8 878.54 499.8 904.07 287.43 904.07 287.43 878.54 282.53 875.79 282.53 804.58 439.49 804.58 439.49 828.82"/><path class="cls-8" d="M282.53,547.91,229.58,804.58H82.6L146,497.35a16.67,16.67,0,0,0,20.55-12.54l1.09-4.94,4.17,2.88A16.68,16.68,0,0,0,197,463.33l-28.8-73.41h0l16.31-79H349.63L421.37,500.1A279.06,279.06,0,0,1,439.49,599V804.58h-157Z"/><path class="cls-3" d="M366.22,278c-4.84,12.94-10.38,24.57-16.59,32.84H184.46l21.06-109.4-60.85,29.14L104.9,138.79l120-57.46c48.38-23.17,69.83,33.52,95.27,44.35s44.31-17.44,80-3.83l.13.05A50,50,0,0,1,433.5,169V278Z"/><path d="M375.46,59l14.65,30.1a104.22,104.22,0,0,1-19.22,10C342.09,110.46,311,88.85,311,57.9V37.76a35.6,35.6,0,0,1,3-14.32C334.47,32.69,336.57,59,336.57,59h38.89Z"/><path class="cls-9" d="M382.41,35.58a35.67,35.67,0,0,1-7,23.44H336.57S334.47,32.69,314,23.44a35.76,35.76,0,0,1,68.46,12.14Z"/><polygon points="221.91 841.75 287.43 878.54 287.43 904.07 62.07 904.07 82.6 804.58 229.58 804.58 221.91 841.75"/><polygon class="cls-3" points="282.53 804.58 282.53 875.79 221.91 841.75 282.53 547.91 282.53 804.58"/><polygon class="cls-3" points="144.67 230.62 205.52 201.48 168.15 389.91 111.84 246.34 144.67 230.62"/><path class="cls-9" d="M90.29,465.28,6.38,251.42a63.82,63.82,0,0,1,31.71-80.63l66.81-32,39.77,91.83-32.83,15.72,56.31,143.57h0L197,463.33a16.68,16.68,0,0,1-25.15,19.42l-4.17-2.88-1.09,4.94A16.67,16.67,0,0,1,140.78,495l-4.17-2.88L135.52,497A16.64,16.64,0,0,1,125.34,509l-21.65,8.52a17.14,17.14,0,0,1-22.13-9.55l-8.88-22.59a15,15,0,0,1,17.58-20Zm13.52,34.46-.14-.36.06.16A1.19,1.19,0,0,1,103.81,499.74Z"/><path class="cls-3" d="M103.67,499.38l.14.36a1.19,1.19,0,0,0-.08-.2Z"/><line class="cls-6" x1="282.53" y1="547.91" x2="282.53" y2="875.79"/><line class="cls-6" x1="82.6" y1="804.58" x2="229.57" y2="804.58"/><line class="cls-6" x1="282.53" y1="804.58" x2="439.49" y2="804.58"/><polyline class="cls-6" points="287.43 904.07 287.43 878.54 221.91 841.75 282.53 547.91 282.53 547.9 322.76 352.91"/><path class="cls-6" d="M168.15,389.91l16.31-79H349.63L421.37,500.1A279.06,279.06,0,0,1,439.49,599V844.68l60.31,33.86v25.53H62.07L146,497.35"/><path class="cls-6" d="M349.63,310.88c6.21-8.27,11.75-19.9,16.59-32.84,15.6-41.71,23.89-97,23.89-97"/><path class="cls-6" d="M90.26,465.29a15,15,0,0,0-17.58,20l8.88,22.59a17.14,17.14,0,0,0,22.13,9.55L125.34,509A16.64,16.64,0,0,0,135.52,497l1.09-4.95,4.17,2.88a16.67,16.67,0,0,0,25.76-10.14l1.09-4.94,4.17,2.88A16.68,16.68,0,0,0,197,463.33l-28.8-73.41h0L111.84,246.34l93.68-44.86-21.06,109.4"/><line class="cls-6" x1="144.67" y1="230.62" x2="104.9" y2="138.79"/><path class="cls-6" d="M612.08,353.37,667.53,343a17.5,17.5,0,0,1,6.41,34.41l-59.39,11.06a155.64,155.64,0,0,1-19.72,2.39l-210.31,12"/><path class="cls-6" d="M103.89,499.93l-.08-.19a1.19,1.19,0,0,0-.08-.2l-.06-.16"/><path class="cls-6" d="M400.14,121.85c-35.66-13.61-54.62,14.62-80,3.83S273.28,58.16,224.9,81.33L38.09,170.79A63.82,63.82,0,0,0,6.38,251.42l97.43,248.32"/><line class="cls-6" x1="366.22" y1="278.04" x2="433.5" y2="278.04"/><path class="cls-6" d="M400.14,121.85l.13.05A50,50,0,0,1,433.5,169v133.9H543.21A26.18,26.18,0,0,0,565,291.19,201.69,201.69,0,0,0,581.35,261a17.5,17.5,0,0,1,32.27,13.56,231.33,231.33,0,0,1-16,30.61l63.94-11.91a17.5,17.5,0,0,1,19.9,22.45"/><path class="cls-6" d="M612.08,328.62s69-12.85,69.37-12.89a17.5,17.5,0,0,1,5.4,34.56l-1.52.29"/><path class="cls-6" d="M375.46,59H336.57S334.47,32.69,314,23.44"/><path class="cls-6" d="M375.46,59h0A35.76,35.76,0,1,0,311,37.76V57.9c0,30.95,31.12,52.56,59.92,41.24a104.22,104.22,0,0,0,19.22-10Z"/><line class="cls-10" x1="221.91" y1="841.75" x2="204.61" y2="851.55"/><line class="cls-10" x1="225.61" y1="823.8" x2="204.61" y2="835.7"/><line class="cls-10" x1="439.49" y1="844.68" x2="422.2" y2="854.48"/><line class="cls-10" x1="439.49" y1="828.82" x2="422.2" y2="838.63"/></g></g></svg>