<svg xmlns="http://www.w3.org/2000/svg" xmlns:xlink="http://www.w3.org/1999/xlink" viewBox="0 0 1051.59 840.01"><defs><style>.cls-1,.cls-2,.cls-9{fill:none;}.cls-2,.cls-9{stroke:#000;stroke-linecap:round;stroke-linejoin:round;}.cls-2{stroke-width:1.5px;}.cls-3{fill:#ffb2e5;}.cls-4{fill:#8282d9;}.cls-5{fill:#fff;}.cls-6{fill:url(#New_Pattern_2);}.cls-7{fill:url(#New_Pattern);}.cls-8{fill:#d7ccff;}.cls-9{stroke-width:4px;}</style><pattern id="New_Pattern_2" data-name="New Pattern 2" width="40" height="40" patternTransform="translate(-24.02 -14.68) scale(1.03)" patternUnits="userSpaceOnUse" viewBox="0 0 40 40"><rect class="cls-1" width="40" height="40"/><path d="M36.18,30a1.9,1.9,0,0,0,1.91,1.91V28.09A1.9,1.9,0,0,0,36.18,30Z"/><path d="M40,33.82a1.9,1.9,0,0,0,1.91-1.91H38.09A1.9,1.9,0,0,0,40,33.82Z"/><path d="M40,26.18a1.9,1.9,0,0,0-1.91,1.91h3.82A1.9,1.9,0,0,0,40,26.18Z"/><path d="M16.18,40a1.9,1.9,0,0,0,1.91,1.91V38.09A1.9,1.9,0,0,0,16.18,40Z"/><path d="M21.91,38.09v3.82a1.91,1.91,0,0,0,0-3.82Z"/><path d="M20,36.18a1.9,1.9,0,0,0-1.91,1.91h3.82A1.9,1.9,0,0,0,20,36.18Z"/><path d="M1.91,28.09v3.82a1.91,1.91,0,0,0,0-3.82Z"/><path d="M36.18,10a1.9,1.9,0,0,0,1.91,1.91V8.09A1.9,1.9,0,0,0,36.18,10Z"/><path d="M40,13.82a1.9,1.9,0,0,0,1.91-1.91H38.09A1.9,1.9,0,0,0,40,13.82Z"/><path d="M40,6.18a1.9,1.9,0,0,0-1.91,1.91h3.82A1.9,1.9,0,0,0,40,6.18Z"/><path d="M18.79,16.37a1.92,1.92,0,0,0-1.21,2.42l3.63-1.21A1.92,1.92,0,0,0,18.79,16.37Z"/><path d="M22.42,21.21l-3.63,1.21a1.91,1.91,0,0,0,3.63-1.21Z"/><path d="M16.37,21.21a1.92,1.92,0,0,0,2.42,1.21l-1.21-3.63A1.92,1.92,0,0,0,16.37,21.21Z"/><path d="M23.63,18.79a1.92,1.92,0,0,0-2.42-1.21l1.21,3.63A1.92,1.92,0,0,0,23.63,18.79Z"/><path d="M1.91,8.09v3.82a1.91,1.91,0,0,0,0-3.82Z"/><path d="M20,3.82a1.9,1.9,0,0,0,1.91-1.91H18.09A1.9,1.9,0,0,0,20,3.82Z"/><path d="M0,33.82a1.9,1.9,0,0,0,1.91-1.91H-1.91A1.9,1.9,0,0,0,0,33.82Z"/><path d="M0,26.18a1.9,1.9,0,0,0-1.91,1.91H1.91A1.9,1.9,0,0,0,0,26.18Z"/><path d="M0,13.82a1.9,1.9,0,0,0,1.91-1.91H-1.91A1.9,1.9,0,0,0,0,13.82Z"/><path d="M0,6.18A1.9,1.9,0,0,0-1.91,8.09H1.91A1.9,1.9,0,0,0,0,6.18Z"/><path d="M16.18,0a1.9,1.9,0,0,0,1.91,1.91V-1.91A1.9,1.9,0,0,0,16.18,0Z"/><path d="M21.91-1.91V1.91A1.9,1.9,0,0,0,23.82,0,1.9,1.9,0,0,0,21.91-1.91Z"/></pattern><pattern id="New_Pattern" data-name="New Pattern" width="70" height="50" patternTransform="translate(-24.02 -35.37) scale(1.03)" patternUnits="userSpaceOnUse" viewBox="0 0 70 50"><rect class="cls-1" width="70" height="50"/><path class="cls-2" d="M8.89,100c-.05-7.08.29-14.17.29-21.25,0-4.32-.37-17.48-.29-28.09"/><path class="cls-2" d="M22.94,99.84c0-1.65.09-3.31.09-5,0-2.48-.21-5-.21-7.45s0-3.83.05-7.28c0-1.44-.06-2.9-.06-4.35,0-3.1.31-4.62.31-7.37,0-1.4-.27-4.94-.27-8.33q0-1.61.09-3.21V50.11"/><path class="cls-2" d="M36.74,99.84c0-9.46.33-18.09.33-27.56,0-3.7-.15-7.46-.15-11.2,0-3.35-.1-7.29-.18-10.75"/><path class="cls-2" d="M50.93,99.75c0-1.24-.07-2.75-.07-4,0-1.92,0-3.86,0-5.79,0-3.87,0-7.66,0-11.51a8.42,8.42,0,0,1-.08-1.22c0-.32.18-6.68.18-8,0-2.2-.21-3.25-.21-5.64,0-1.3.06-2.65.17-3.86,0-2.89,0-5.89,0-9.05"/><path class="cls-2" d="M65,99.71c0-8.34-.55-15.73-.36-24.06.18-8.13.16-17.71.36-25.19"/><path class="cls-2" d="M8.89,50c-.05-7.08.29-14.17.29-21.25,0-4.32-.37-17.48-.29-28.09"/><path class="cls-2" d="M22.94,49.84c0-1.65.09-3.31.09-5,0-2.48-.21-5-.21-7.45s0-3.83.05-7.28c0-1.44-.06-2.9-.06-4.35,0-3.1.31-4.62.31-7.37,0-1.4-.27-4.94-.27-8.33q0-1.6.09-3.21V.11"/><path class="cls-2" d="M36.74,49.84c0-9.46.33-18.09.33-27.56,0-3.7-.15-7.46-.15-11.2,0-3.35-.1-7.29-.18-10.75"/><path class="cls-2" d="M50.93,49.75c0-1.24-.07-2.75-.07-4,0-1.92,0-3.86,0-5.79,0-3.87,0-7.66,0-11.51a8.42,8.42,0,0,1-.08-1.22c0-.32.18-6.68.18-8,0-2.2-.21-3.25-.21-5.64,0-1.3.06-2.65.17-3.86,0-2.89,0-5.89,0-9"/><path class="cls-2" d="M65,49.71c0-8.34-.55-15.73-.36-24.06.18-8.13.16-17.71.36-25.19"/><path class="cls-2" d="M8.89,0c-.05-7.08.29-14.17.29-21.25,0-4.32-.37-17.48-.29-28.09"/><path class="cls-2" d="M22.94-.16c0-1.65.09-3.31.09-5,0-2.48-.21-5-.21-7.45s0-3.83.05-7.28c0-1.44-.06-2.9-.06-4.35,0-3.1.31-4.62.31-7.37,0-1.4-.27-4.94-.27-8.33q0-1.61.09-3.21v-6.71"/><path class="cls-2" d="M36.74-.16c0-9.46.33-18.09.33-27.56,0-3.7-.15-7.46-.15-11.2,0-3.35-.1-7.29-.18-10.75"/><path class="cls-2" d="M50.93-.25c0-1.24-.07-2.75-.07-4,0-1.92,0-3.86,0-5.79,0-3.87,0-7.66,0-11.51a8.42,8.42,0,0,1-.08-1.22c0-.32.18-6.68.18-8,0-2.2-.21-3.25-.21-5.64,0-1.3.06-2.65.17-3.86,0-2.89,0-5.89,0-9.05"/><path class="cls-2" d="M65-.29c0-8.34-.55-15.73-.36-24.06.18-8.13.16-17.71.36-25.19"/></pattern></defs><g id="Layer_2" data-name="Layer 2"><g id="illustrations"><path class="cls-3" d="M1014,551a30.86,30.86,0,0,1-14.08,6.51c-8.48,2.52-16.24-2.42-18-10-1.88-8.37-12.46-42.58-21.39-60.2l-.22-.4v0h0l0-.05c-.47-.93-3.26-6.47-17.05-33.76h0c-1.77-18-3.31-33.86-4.54-46.83q-2.5-26.35-2.5-52.82V302.08l31.65,1v48.26a53.68,53.68,0,0,0,5.74,24.11l42.25,83.66c7.69,13.66,21,20,28.61,22.55a7.58,7.58,0,0,1,5,7.79c0,.07,0,.12,0,.18a7.56,7.56,0,0,1-7.9,7c-5.38-.27-11.51-.84-16.14-1.32,1.54,11,.79,23.24-.43,35.13A30.61,30.61,0,0,1,1014,551Z"/><path d="M1025.27,838H879.9l-3.77-45.64H977.94l.47,4.52a13,13,0,0,0,7.7,10.52C1004.32,815.52,1025.27,817.14,1025.27,838Z"/><path class="cls-4" d="M846.59,435.24a51.93,51.93,0,0,1-10.5,6.07L702.38,499.06V687H598.94V531.75a163.43,163.43,0,0,0,51.72-119.51v-.77h-4a99.56,99.56,0,0,1,12-6.2l123.6-53.38V336.13h154v17.26q0,26.46,2.5,52.82c1.23,13,2.77,28.84,4.54,46.83h0c9.19,93.08,24.63,242.68,34.64,339.32H876.13Z"/><path class="cls-5" d="M960.38,486.86h0l0,0Z"/><path class="cls-5" d="M960.38,486.86l0,0a0,0,0,0,0,0,0Z"/><path d="M925.76,139.69a48.48,48.48,0,0,1-3.43,18,81.35,81.35,0,0,1-51.08-65.89,36.59,36.59,0,0,1,5.06-.49h1A48.43,48.43,0,0,1,925.76,139.69Z"/><path class="cls-3" d="M906.83,149.56a36.62,36.62,0,1,1-35.58-57.8A81.2,81.2,0,0,0,906.83,149.56Z"/><path class="cls-5" d="M871.24,91.64a49.77,49.77,0,0,1,5.07-.37,36.59,36.59,0,0,0-5.06.49S871.24,91.68,871.24,91.64Z"/><path d="M871.25,91.76a36.64,36.64,0,0,0-28.77,47.38h0a78.84,78.84,0,0,1-17.81,11s5-50.78,46.58-58.51C871.24,91.68,871.25,91.72,871.25,91.76Z"/><path class="cls-3" d="M843.76,837.19H756V726.42H702.38V632.84C785,664,843.75,743.7,843.76,837.19Z"/><path class="cls-5" d="M782.25,252.46l-44.12,22-29-54.91,84.06-41.86c46.84-20.19,43.79,17.28,77.6,17.28H871c19.48,0,37.26-8.79,51.07-8.79,6.86,0,45.89-1.3,45.89,33.38v83.55l-31.65-1v34.05h-154Z"/><rect class="cls-5" x="333.22" y="726.42" width="422.77" height="110.77"/><path class="cls-4" d="M735.51,38.16V99a65.85,65.85,0,0,0-65.85,65.84c0,.86,0,1.71.05,2.56H608.87c0-.85,0-1.7,0-2.56A126.63,126.63,0,0,1,735.51,38.16Z"/><path d="M702.38,687v39.41H556.08c0-15.08,20.71-17.25,36.94-23.65a9.39,9.39,0,0,0,5.92-8.73v-7Z"/><path class="cls-5" d="M650.66,411.47v.77a163.95,163.95,0,1,1-327.89,0v-.77h67.71v.77a96.23,96.23,0,0,0,192.46,0v-.77Z"/><polygon class="cls-5" points="561.27 282.64 561.27 319.75 412.16 319.75 412.16 189.67 561.27 189.67 561.27 282.64"/><path class="cls-6" d="M650.66,411.47v.77a163.95,163.95,0,1,1-327.89,0v-.77h67.71v.77a96.23,96.23,0,0,0,192.46,0v-.77Z"/><path class="cls-5" d="M642.23,37.44l-13.41,3.64a26.17,26.17,0,0,0-18.41,18.43l-3.62,13.38-3.63-13.38a26.14,26.14,0,0,0-18.41-18.43l-13.4-3.64,13.4-3.63a26.16,26.16,0,0,0,18.41-18.43L606.79,2l3.62,13.38a26.19,26.19,0,0,0,18.41,18.43Z"/><path class="cls-3" d="M731.57,277.69a178.5,178.5,0,0,1-79.32,18.56,176.35,176.35,0,0,1-31.34-2.8l-59.64-10.81V219.55L632,232.37a116,116,0,0,0,71.93-10.23l5.26-2.63,29,54.91h0Z"/><path class="cls-3" d="M598.94,692.1V694a9.39,9.39,0,0,1-5.92,8.73c-16.23,6.4-36.94,8.57-36.94,23.65H437.25q5.17-8.77,11.12-17h95.55V634.6a217.27,217.27,0,0,1,55-14.13Z"/><polygon class="cls-7" points="561.27 282.64 561.27 319.75 412.16 319.75 412.16 189.67 561.27 189.67 561.27 282.64"/><path class="cls-4" d="M543.92,671.63v37.79H429.5v-39a56.51,56.51,0,0,1,13.38-1.56c30.61,0,19.83,27.7,56.76,27.7C516.29,696.52,525.59,682.34,543.92,671.63Z"/><path class="cls-5" d="M543.92,647.55v24.08c-18.33,10.71-27.63,24.89-44.28,24.89-36.93,0-26.15-27.7-56.76-27.7a56.51,56.51,0,0,0-13.38,1.56V627.49c26.37-9.3,47.37,2.21,72.9-32.5h30.41c-16.09,42.67-61.35,46.08-61.35,62.06,0,6.3,6.34,7.08,12.64,7.08C508.54,664.13,515.66,651.7,543.92,647.55Z"/><path class="cls-4" d="M543.92,634.6v12.95c-28.26,4.15-35.38,16.58-59.82,16.58-6.3,0-12.64-.78-12.64-7.08,0-16,45.26-19.39,61.35-62.06h11.11Z"/><path d="M486.71,346.06a66.18,66.18,0,1,1-66.17,66.18A66.18,66.18,0,0,1,486.71,346.06Zm25.44,66.18a25.44,25.44,0,1,0-25.44,25.44A25.43,25.43,0,0,0,512.15,412.24Z"/><polygon points="486.71 88.09 528.83 167.66 444.6 167.66 455.74 146.62 455.74 146.61 486.71 88.09"/><path class="cls-5" d="M486.71,386.81a25.44,25.44,0,1,1-25.44,25.43A25.43,25.43,0,0,1,486.71,386.81Z"/><path class="cls-4" d="M429.5,595h72.9c-25.53,34.71-46.53,23.2-72.9,32.5Z"/><path class="cls-8" d="M480.27,16.3a26.88,26.88,0,0,1,26.88,26.89c0,14.68-11.77,26.29-26.37,26.88h-.51a26.79,26.79,0,0,1-18.9-7.77,9.63,9.63,0,0,0-.12-4.13,9.81,9.81,0,0,0-6.7-7.1h0a27.36,27.36,0,0,1-1.17-7.88A26.89,26.89,0,0,1,480.27,16.3Z"/><path class="cls-5" d="M440.91,80.47a9.3,9.3,0,0,0,1.57-7.61L454,70.08a9.89,9.89,0,0,0,7.38-7.77,26.79,26.79,0,0,0,18.9,7.77h.51a9.86,9.86,0,0,1-6.31,4.79l-35.81,8.67Z"/><path class="cls-5" d="M317.9,224.81a8.9,8.9,0,0,0-4.11-.64V200.31a179.26,179.26,0,0,0,28.35,2.26h51.53V89.44a31.73,31.73,0,0,1,22.12-30.37l.72-.2,32.85-8a9.89,9.89,0,0,1,11.89,7.27,9.63,9.63,0,0,1,.12,4.13A9.89,9.89,0,0,1,454,70.08l-11.51,2.78a9.3,9.3,0,0,1-1.57,7.61l-2.25,3.06,30.62-7.42,2.14,1.75a9.2,9.2,0,0,1-11.6,14.27l-4.08-3.33v57.82l-11.14,21h11.14v22H412.16v75H388.68a7.34,7.34,0,0,0-4.63-4.81,7.52,7.52,0,0,0,.85-3.41,7,7,0,0,0-.16-1.52,7.57,7.57,0,0,0-7.25-5.91c-41.92-1.11-47.16,4.19-52.69,4.09a4.29,4.29,0,0,1-4-5.51c1.08-3.69,1.71-6.18,2.89-11.93a9.67,9.67,0,0,0-5.82-10.83Z"/><path class="cls-5" d="M418.42,58.4l-1.74.42Q417.54,58.58,418.42,58.4Z"/><path class="cls-5" d="M416.51,58.87l-.72.2C416,59,416.26,58.93,416.51,58.87Z"/><path class="cls-4" d="M227.94,632.83l-25.25,114.1a31.18,31.18,0,0,0-28.14,23.29H89.32l51.74-190.71a115.63,115.63,0,0,0-2.38-68.27c-21.44-61.57-49-137.2-3.6-191.49l12.24,37.55a31.05,31.05,0,0,0,43.21,18.24l56-27.56L368.18,726.42h-35v43.8H268.39Z"/><polygon points="333.23 770.22 333.23 816.18 281.92 816.18 268.39 770.22 333.23 770.22"/><path class="cls-5" d="M313.79,224.17a8.9,8.9,0,0,1,4.11.64,9.67,9.67,0,0,1,5.82,10.83c-1.18,5.75-1.81,8.24-2.89,11.93a4.29,4.29,0,0,0,4,5.51c5.53.1,10.77-5.2,52.69-4.09a7.57,7.57,0,0,1,7.25,5.91,7,7,0,0,1,.16,1.52,7.52,7.52,0,0,1-.85,3.41,7.39,7.39,0,0,1-1.18,14.25l-2,.33A7.49,7.49,0,0,1,384,278a7.11,7.11,0,0,1,.47,1.59,7.38,7.38,0,0,1-5.29,8.38l-6,1.68C357.36,294,348,297.17,331.75,307c0,0-17.48,9.56-30.6,14.11h0L190.53,375.54a31,31,0,0,1-43.21-18.24l-19-58.46,58.79-19.92L195.24,304l77.09-37.93a37.27,37.27,0,0,1,19.46-15.76,13,13,0,0,0,7.17-6.27c2-3.78,3.58-7.27,5.11-10.92.4-.92.79-1.86,1.18-2.83A10,10,0,0,1,313.79,224.17Z"/><path class="cls-3" d="M187.06,278.92l-58.79,19.92L97.72,205.06A31,31,0,0,1,117.63,166c39-13.11,40.8,27,72.47,32.76a43.67,43.67,0,0,0,9.24.67c36-1,45.61-17.76,92-4.13a177.77,177.77,0,0,0,22.43,5.06v23.86a10,10,0,0,0-8.54,6.15c-.39,1-.78,1.91-1.18,2.83-1.53,3.65-3.13,7.14-5.11,10.92a13,13,0,0,1-7.17,6.27,37.27,37.27,0,0,0-19.46,15.76L195.24,304Z"/><path d="M197,772.72l34.93,43.46H76.86l12.46-46h85.23a31.18,31.18,0,0,1,28.14-23.29Z"/><path class="cls-5" d="M228.41,85a34.08,34.08,0,0,1-17.91,63.07c-.74,0-1.49,0-2.22-.08a34.31,34.31,0,0,1-30-22.9,38.89,38.89,0,0,0,32-33.69,19.25,19.25,0,0,0,3.06.23A20.32,20.32,0,0,0,228.4,85Z"/><path d="M213.34,50.76a20.44,20.44,0,0,1,0,40.88,19.25,19.25,0,0,1-3.06-.23,38.89,38.89,0,0,1-32,33.69,34.07,34.07,0,0,0,30,22.9h0c.11,1,.19,1.9.26,2.86a60.39,60.39,0,0,1-18.44,47.84c-31.67-5.77-33.43-45.87-72.47-32.76a31,31,0,0,0-19.91,39.11l9.71,29.78A54.48,54.48,0,0,1,2,215.52c0-36,32.91-59.21,64.15-53.69a19.33,19.33,0,0,0,22.46-16.15,60.61,60.61,0,0,1,84.26-45.81,39.12,39.12,0,0,1,20.41-24.68,21,21,0,0,1-.38-4A20.43,20.43,0,0,1,213.34,50.76Z"/><path class="cls-9" d="M756,837.19h87.77C843.75,743.7,785,664,702.38,632.84"/><path class="cls-9" d="M598.94,620.47a217.27,217.27,0,0,0-55,14.13"/><path class="cls-9" d="M448.37,709.42q-5.94,8.22-11.12,17"/><path class="cls-9" d="M606.79,2l-3.63,13.38a26.16,26.16,0,0,1-18.41,18.43l-13.4,3.63,13.4,3.64a26.14,26.14,0,0,1,18.41,18.43l3.63,13.38,3.62-13.38a26.17,26.17,0,0,1,18.41-18.43l13.41-3.64-13.41-3.63a26.19,26.19,0,0,1-18.41-18.43Z"/><path class="cls-9" d="M738.13,274.43l-6.56,3.26a178.5,178.5,0,0,1-79.32,18.56,176.35,176.35,0,0,1-31.34-2.8l-59.64-10.81"/><line class="cls-9" x1="782.25" y1="252.46" x2="738.13" y2="274.42"/><path class="cls-9" d="M384.05,259.83a7.39,7.39,0,0,1-1.18,14.25l-6.12,1.05c-16.35,2.85-26.06,5.06-43.53,13.39"/><path class="cls-9" d="M322.59,228.89a9.6,9.6,0,0,0-4.69-4.08,9,9,0,0,0-4.11-.64,10,10,0,0,0-8.54,6.15c-.39,1-.78,1.91-1.18,2.83-1.53,3.65-3.13,7.14-5.11,10.92a13,13,0,0,1-7.17,6.27,37.27,37.27,0,0,0-19.46,15.76L195.24,304l-23.56-72.35"/><path class="cls-9" d="M328.17,273c17.6-6.33,27.42-7.56,43.68-8.78h0l6.2-.45a7.36,7.36,0,0,0,6-3.9h0a7.52,7.52,0,0,0,.85-3.41,7,7,0,0,0-.16-1.52,7.57,7.57,0,0,0-7.25-5.91c-41.92-1.11-47.16,4.19-52.69,4.09a4.29,4.29,0,0,1-4-5.51c1.08-3.69,1.71-6.18,2.89-11.93a9.62,9.62,0,0,0-1.13-6.75"/><path class="cls-9" d="M416.68,58.82q.85-.24,1.74-.42"/><path class="cls-9" d="M301.15,321.09l0,0L190.53,375.54a31,31,0,0,1-43.21-18.24L97.72,205.06A31,31,0,0,1,117.63,166c39-13.11,40.81,26.92,72.47,32.76a44.34,44.34,0,0,0,9.24.67c36-1,45.61-17.76,92-4.13a178.16,178.16,0,0,0,22.43,5.06,179.26,179.26,0,0,0,28.35,2.26h51.53V89.44a31.73,31.73,0,0,1,22.12-30.37l.72-.2"/><path class="cls-9" d="M380.88,274.41A7.49,7.49,0,0,1,384,278a7.11,7.11,0,0,1,.47,1.59,7.38,7.38,0,0,1-5.29,8.38l-6,1.68C357.36,294,348,297.17,331.75,307c0,0-17.48,9.56-30.6,14.11h0"/><path class="cls-9" d="M135.08,319.75c-45.44,54.29-17.84,129.92,3.6,191.49a115.63,115.63,0,0,1,2.38,68.27L76.86,816.18H231.92L197,772.72,236.76,593a242.22,242.22,0,0,0,2.07-94.19L221.7,401.24"/><line class="cls-9" x1="246.52" y1="347.98" x2="368.18" y2="726.42"/><polyline class="cls-9" points="227.94 632.83 281.92 816.18 333.23 816.18"/><rect class="cls-9" x="333.22" y="726.42" width="422.77" height="110.77"/><line class="cls-9" x1="128.27" y1="298.84" x2="187.06" y2="278.92"/><path class="cls-9" d="M202.69,746.93a31.18,31.18,0,0,0-28.14,23.29H89.32"/><line class="cls-9" x1="268.39" y1="770.22" x2="333.22" y2="770.22"/><path class="cls-9" d="M228.41,85a34.08,34.08,0,0,1-17.91,63.07c-.74,0-1.49,0-2.22-.08a34.31,34.31,0,0,1-30-22.9,38.89,38.89,0,0,0,32-33.69,19.25,19.25,0,0,0,3.06.23A20.44,20.44,0,1,0,192.9,71.2a21,21,0,0,0,.38,4,39.12,39.12,0,0,0-20.41,24.68,60.61,60.61,0,0,0-84.26,45.81,19.33,19.33,0,0,1-22.46,16.15C34.91,156.31,2,179.49,2,215.52a54.48,54.48,0,0,0,105.43,19.32"/><path class="cls-9" d="M190.09,198.72h0a60.39,60.39,0,0,0,18.44-47.84c-.07-1-.15-1.91-.26-2.86"/><polygon class="cls-9" points="561.27 282.64 561.27 319.75 412.16 319.75 412.16 189.67 561.27 189.67 561.27 282.64"/><path class="cls-9" d="M415.39,59.2l.4-.13c.24-.08.47-.14.72-.2l32.85-8a9.89,9.89,0,0,1,11.89,7.27,9.63,9.63,0,0,1,.12,4.13A9.87,9.87,0,0,1,454,70.08l-11.51,2.78"/><line class="cls-9" x1="388.68" y1="264.64" x2="412.16" y2="264.64"/><line class="cls-9" x1="455.74" y1="189.67" x2="455.74" y2="167.66"/><path class="cls-9" d="M455.74,146.61V88.8l4.08,3.33a9.2,9.2,0,0,0,11.6-14.27l-2.14-1.75"/><path class="cls-9" d="M480.78,70.07a9.86,9.86,0,0,1-6.31,4.79l-35.81,8.67"/><path class="cls-9" d="M461.37,62.31a26.79,26.79,0,0,0,18.9,7.77h.51c14.6-.59,26.37-12.2,26.37-26.88a26.89,26.89,0,1,0-53.77,0,27.36,27.36,0,0,0,1.17,7.88"/><path class="cls-9" d="M410.38,90.59l15.55-21.14a9.3,9.3,0,1,1,15,11L429.24,96.33a32,32,0,0,1-5.51,28"/><polygon class="cls-9" points="455.74 167.66 444.6 167.66 455.74 146.62 455.74 146.61 486.71 88.09 528.83 167.66 455.74 167.66"/><circle class="cls-9" cx="486.71" cy="412.24" r="66.18"/><path class="cls-9" d="M512.15,412.24a25.44,25.44,0,1,0-25.44,25.44A25.43,25.43,0,0,0,512.15,412.24Z"/><path class="cls-9" d="M646.62,411.47H582.94v.77a96.23,96.23,0,0,1-192.46,0v-.77H322.77v.77a163.95,163.95,0,0,0,327.89,0v-.77Z"/><polygon class="cls-9" points="543.92 671.63 543.92 709.42 429.5 709.42 429.5 594.99 543.92 594.99 543.92 671.63"/><path class="cls-9" d="M846.59,435.24a51.93,51.93,0,0,1-10.5,6.07L702.38,499.06V726.42"/><path class="cls-9" d="M646.62,411.47a99.56,99.56,0,0,1,12-6.2l123.6-53.38V231.8"/><path class="cls-9" d="M561.27,219.55,632,232.37a116,116,0,0,0,71.93-10.23l89.32-44.49c46.84-20.19,43.79,17.28,77.6,17.28H871c19.48,0,37.26-8.79,51.07-8.79,6.86,0,45.89-1.3,45.89,33.38V351.33a53.68,53.68,0,0,0,5.74,24.11l42.25,83.66"/><path class="cls-9" d="M960.35,486.81c-.47-.93-3.26-6.47-17.05-33.76"/><path class="cls-9" d="M960.38,486.86l0,0Z"/><path class="cls-9" d="M960.39,486.89v0l0,.06Z"/><path class="cls-9" d="M1000,557.48c-8.48,2.52-16.24-2.42-18-10-1.88-8.37-12.46-42.58-21.39-60.2l-.22-.4v0h0l0-.05a0,0,0,0,1,0,0l0,0"/><path class="cls-9" d="M1014.17,516.67c1.09,11.88-.12,22.45-.14,34.3a30.86,30.86,0,0,1-14.08,6.51c-.74-6-1.25-11.13-2-16.32a150.88,150.88,0,0,0-3.15-16.55"/><path class="cls-9" d="M1014,551a30.61,30.61,0,0,0,11-20.57c1.22-11.89,2-24.09.43-35.13,4.63.48,10.76,1.05,16.14,1.32a7.56,7.56,0,0,0,7.9-7c0-.06,0-.11,0-.18a7.58,7.58,0,0,0-5-7.79c-7.58-2.59-20.92-8.89-28.61-22.55"/><polyline class="cls-9" points="709.17 219.51 738.13 274.42 738.13 274.43"/><line class="cls-9" x1="936.26" y1="302.08" x2="967.91" y2="303.07"/><line class="cls-9" x1="782.25" y1="336.13" x2="936.26" y2="336.13"/><path class="cls-9" d="M876.31,91.27a38.2,38.2,0,0,0-5.06.49,36.62,36.62,0,1,0,35.58,57.8"/><path class="cls-9" d="M906.83,149.56a80.93,80.93,0,0,0,15.5,8.09,48.48,48.48,0,0,0-45-66.39h-1a49.77,49.77,0,0,0-5.07.37s0,.08,0,.12A81.18,81.18,0,0,0,906.83,149.56Z"/><path class="cls-9" d="M842.47,139.14a78.84,78.84,0,0,1-17.81,11s5-50.78,46.58-58.51"/><path class="cls-9" d="M608.87,167.36h60.84c0-.85-.05-1.7-.05-2.56A65.85,65.85,0,0,1,735.51,99V38.16A126.63,126.63,0,0,0,608.86,164.8C608.86,165.66,608.86,166.51,608.87,167.36Z"/><path class="cls-9" d="M556.08,726.42c0-15.08,20.71-17.25,36.94-23.65a9.39,9.39,0,0,0,5.92-8.73V531.77"/><path class="cls-9" d="M843.76,401,879.9,838h145.37c0-20.87-20.95-22.49-39.16-30.6a13,13,0,0,1-7.7-10.52c-.16-1.49-25.92-250.76-35.11-343.84h0c-1.77-18-3.31-33.86-4.54-46.83q-2.5-26.35-2.5-52.82V254.71"/><line class="cls-9" x1="876.13" y1="792.37" x2="977.94" y2="792.37"/><line class="cls-9" x1="598.94" y1="687.01" x2="702.38" y2="687.01"/><line class="cls-9" x1="313.79" y1="224.16" x2="313.79" y2="200.31"/><path class="cls-9" d="M429.5,627.49c26.37-9.3,47.37,2.21,72.9-32.5"/><path class="cls-9" d="M429.5,670.38a56.51,56.51,0,0,1,13.38-1.56c30.61,0,19.83,27.7,56.76,27.7,16.65,0,26-14.18,44.28-24.89"/><path class="cls-9" d="M532.81,595c-16.09,42.67-61.35,46.08-61.35,62.06,0,6.3,6.34,7.08,12.64,7.08,24.44,0,31.56-12.43,59.82-16.58"/></g></g></svg>