<svg xmlns="http://www.w3.org/2000/svg" xmlns:xlink="http://www.w3.org/1999/xlink" viewBox="0 0 786.55 835.21"><defs><style>.cls-1,.cls-2,.cls-9{fill:none;}.cls-2,.cls-9{stroke:#000;stroke-linecap:round;stroke-linejoin:round;}.cls-2{stroke-width:1.5px;}.cls-3{fill:#ffb2e5;}.cls-4{fill:#fff;}.cls-5{fill:#8282d9;}.cls-6{fill:url(#New_Pattern);}.cls-7{fill:#d7ccff;}.cls-8{fill:url(#New_Pattern_2);}.cls-9{stroke-width:4px;}</style><pattern id="New_Pattern" data-name="New Pattern" width="70" height="50" patternTransform="translate(0 -30)" patternUnits="userSpaceOnUse" viewBox="0 0 70 50"><rect class="cls-1" width="70" height="50"/><path class="cls-2" d="M8.89,100c-.05-7.08.29-14.17.29-21.25,0-4.32-.37-17.48-.29-28.09"/><path class="cls-2" d="M22.94,99.84c0-1.65.09-3.31.09-5,0-2.48-.21-5-.21-7.45s0-3.83.05-7.28c0-1.44-.06-2.9-.06-4.35,0-3.1.31-4.62.31-7.37,0-1.4-.27-4.94-.27-8.33q0-1.61.09-3.21V50.11"/><path class="cls-2" d="M36.74,99.84c0-9.46.33-18.09.33-27.56,0-3.7-.15-7.46-.15-11.2,0-3.35-.1-7.29-.18-10.75"/><path class="cls-2" d="M50.93,99.75c0-1.24-.07-2.75-.07-4,0-1.92,0-3.86,0-5.79,0-3.87,0-7.66,0-11.51a8.42,8.42,0,0,1-.08-1.22c0-.32.18-6.68.18-8,0-2.2-.21-3.25-.21-5.64,0-1.3.06-2.65.17-3.86,0-2.89,0-5.89,0-9.05"/><path class="cls-2" d="M65,99.71c0-8.34-.55-15.73-.36-24.06.18-8.13.16-17.71.36-25.19"/><path class="cls-2" d="M8.89,50c-.05-7.08.29-14.17.29-21.25,0-4.32-.37-17.48-.29-28.09"/><path class="cls-2" d="M22.94,49.84c0-1.65.09-3.31.09-5,0-2.48-.21-5-.21-7.45s0-3.83.05-7.28c0-1.44-.06-2.9-.06-4.35,0-3.1.31-4.62.31-7.37,0-1.4-.27-4.94-.27-8.33q0-1.6.09-3.21V.11"/><path class="cls-2" d="M36.74,49.84c0-9.46.33-18.09.33-27.56,0-3.7-.15-7.46-.15-11.2,0-3.35-.1-7.29-.18-10.75"/><path class="cls-2" d="M50.93,49.75c0-1.24-.07-2.75-.07-4,0-1.92,0-3.86,0-5.79,0-3.87,0-7.66,0-11.51a8.42,8.42,0,0,1-.08-1.22c0-.32.18-6.68.18-8,0-2.2-.21-3.25-.21-5.64,0-1.3.06-2.65.17-3.86,0-2.89,0-5.89,0-9"/><path class="cls-2" d="M65,49.71c0-8.34-.55-15.73-.36-24.06.18-8.13.16-17.71.36-25.19"/><path class="cls-2" d="M8.89,0c-.05-7.08.29-14.17.29-21.25,0-4.32-.37-17.48-.29-28.09"/><path class="cls-2" d="M22.94-.16c0-1.65.09-3.31.09-5,0-2.48-.21-5-.21-7.45s0-3.83.05-7.28c0-1.44-.06-2.9-.06-4.35,0-3.1.31-4.62.31-7.37,0-1.4-.27-4.94-.27-8.33q0-1.61.09-3.21v-6.71"/><path class="cls-2" d="M36.74-.16c0-9.46.33-18.09.33-27.56,0-3.7-.15-7.46-.15-11.2,0-3.35-.1-7.29-.18-10.75"/><path class="cls-2" d="M50.93-.25c0-1.24-.07-2.75-.07-4,0-1.92,0-3.86,0-5.79,0-3.87,0-7.66,0-11.51a8.42,8.42,0,0,1-.08-1.22c0-.32.18-6.68.18-8,0-2.2-.21-3.25-.21-5.64,0-1.3.06-2.65.17-3.86,0-2.89,0-5.89,0-9.05"/><path class="cls-2" d="M65-.29c0-8.34-.55-15.73-.36-24.06.18-8.13.16-17.71.36-25.19"/></pattern><pattern id="New_Pattern_2" data-name="New Pattern 2" width="40" height="40" patternTransform="translate(0 -30)" patternUnits="userSpaceOnUse" viewBox="0 0 40 40"><rect class="cls-1" width="40" height="40"/><path d="M36.18,30a1.9,1.9,0,0,0,1.91,1.91V28.09A1.9,1.9,0,0,0,36.18,30Z"/><path d="M40,33.82a1.9,1.9,0,0,0,1.91-1.91H38.09A1.9,1.9,0,0,0,40,33.82Z"/><path d="M40,26.18a1.9,1.9,0,0,0-1.91,1.91h3.82A1.9,1.9,0,0,0,40,26.18Z"/><path d="M16.18,40a1.9,1.9,0,0,0,1.91,1.91V38.09A1.9,1.9,0,0,0,16.18,40Z"/><path d="M21.91,38.09v3.82a1.91,1.91,0,0,0,0-3.82Z"/><path d="M20,36.18a1.9,1.9,0,0,0-1.91,1.91h3.82A1.9,1.9,0,0,0,20,36.18Z"/><path d="M1.91,28.09v3.82a1.91,1.91,0,0,0,0-3.82Z"/><path d="M36.18,10a1.9,1.9,0,0,0,1.91,1.91V8.09A1.9,1.9,0,0,0,36.18,10Z"/><path d="M40,13.82a1.9,1.9,0,0,0,1.91-1.91H38.09A1.9,1.9,0,0,0,40,13.82Z"/><path d="M40,6.18a1.9,1.9,0,0,0-1.91,1.91h3.82A1.9,1.9,0,0,0,40,6.18Z"/><path d="M18.79,16.37a1.92,1.92,0,0,0-1.21,2.42l3.63-1.21A1.92,1.92,0,0,0,18.79,16.37Z"/><path d="M22.42,21.21l-3.63,1.21a1.91,1.91,0,0,0,3.63-1.21Z"/><path d="M16.37,21.21a1.92,1.92,0,0,0,2.42,1.21l-1.21-3.63A1.92,1.92,0,0,0,16.37,21.21Z"/><path d="M23.63,18.79a1.92,1.92,0,0,0-2.42-1.21l1.21,3.63A1.92,1.92,0,0,0,23.63,18.79Z"/><path d="M1.91,8.09v3.82a1.91,1.91,0,0,0,0-3.82Z"/><path d="M20,3.82a1.9,1.9,0,0,0,1.91-1.91H18.09A1.9,1.9,0,0,0,20,3.82Z"/><path d="M0,33.82a1.9,1.9,0,0,0,1.91-1.91H-1.91A1.9,1.9,0,0,0,0,33.82Z"/><path d="M0,26.18a1.9,1.9,0,0,0-1.91,1.91H1.91A1.9,1.9,0,0,0,0,26.18Z"/><path d="M0,13.82a1.9,1.9,0,0,0,1.91-1.91H-1.91A1.9,1.9,0,0,0,0,13.82Z"/><path d="M0,6.18A1.9,1.9,0,0,0-1.91,8.09H1.91A1.9,1.9,0,0,0,0,6.18Z"/><path d="M16.18,0a1.9,1.9,0,0,0,1.91,1.91V-1.91A1.9,1.9,0,0,0,16.18,0Z"/><path d="M21.91-1.91V1.91A1.9,1.9,0,0,0,23.82,0,1.9,1.9,0,0,0,21.91-1.91Z"/></pattern></defs><g id="Layer_2" data-name="Layer 2"><g id="illustrations"><polygon class="cls-3" points="101.75 405.31 120.57 430.4 89.21 429.88 71.17 455.53 61.98 425.55 32.01 416.32 57.68 398.31 57.2 366.95 82.26 385.8 111.93 375.65 101.75 405.31"/><rect class="cls-4" x="55.41" y="542.69" width="27.52" height="93.02"/><path class="cls-5" d="M82.93,635.71v-93h22.65a24.19,24.19,0,0,0,21.76-12.61c4.84-9.09,7-18.37,7-34.57a13.76,13.76,0,0,1,12.81-13.83,13.47,13.47,0,0,1,14.14,13.46c0,22-2.15,36.39-8.94,48.17l6.33.08c19.26.24,35.44,15.35,36.09,34.61,0,.67,0,1.35,0,2,0,30.89-25.67,55.68-56.56,55.68Z"/><polygon class="cls-4" points="49.72 233.84 85.88 258.93 49.72 284.01 49.72 233.84"/><path d="M60.93,200A58.94,58.94,0,1,1,2,258.93,58.94,58.94,0,0,1,60.93,200Zm24.95,58.94L49.72,233.84V284Z"/><path class="cls-4" d="M784.55,385.72v73.64A15.57,15.57,0,0,1,769,474.93H695.35a15.58,15.58,0,0,1-15.58-15.57V385.72a15.59,15.59,0,0,1,15.58-15.58H769A15.58,15.58,0,0,1,784.55,385.72Zm-25,30.13a13.31,13.31,0,0,0-22.72-9.41l-4.66,4.66-4.65-4.66a13.31,13.31,0,0,0-18.83,18.82l23.48,23.48,23.48-23.48A13.26,13.26,0,0,0,759.54,415.85Z"/><path d="M755.64,406.44a13.3,13.3,0,0,1,0,18.82l-23.48,23.48-23.48-23.48a13.31,13.31,0,0,1,18.83-18.82l4.65,4.66,4.66-4.66A13.3,13.3,0,0,1,755.64,406.44Z"/><path class="cls-4" d="M739.29,221.24a12.46,12.46,0,0,1,9.5,14.08l-.14.88a12.4,12.4,0,0,1-14.23,10.24l-38.6-6.32a12.38,12.38,0,0,1-10.23-14.23l0-.12a12.62,12.62,0,0,0,23.8-5.83,12.35,12.35,0,0,0-.56-3.71S739.05,221.18,739.29,221.24Z"/><path class="cls-4" d="M734.51,247l3.28.54A12.41,12.41,0,0,1,748,261.73l-.14.88a12.39,12.39,0,0,1-14.23,10.22l-52.6-8.6A12.34,12.34,0,0,1,671,254.75l.12,0a13.88,13.88,0,0,0,8.77,3.06c7.42,0,13.44-5.65,13.44-12.61a11.82,11.82,0,0,0-1.17-5.14v0Z"/><path class="cls-4" d="M744.52,190.25a13.53,13.53,0,0,1,2.62,18.87c0,.07-3,4.07-7.85,12.12-.24-.06-.48-.11-.73-.15l-11.93-2V191.7A13.5,13.5,0,0,1,744.52,190.25Z"/><path class="cls-4" d="M705.46,474.93H744a103.65,103.65,0,0,1-96.65,92.19V528.83A65.48,65.48,0,0,0,705.46,474.93Z"/><path class="cls-4" d="M676.52,287.5a12.39,12.39,0,0,1-3.7-7.41h.1a12.61,12.61,0,0,0,20.78-13.57l38,6.21A12.39,12.39,0,0,1,741.9,287l-.15.88a12.39,12.39,0,0,1-14.22,10.24l-44.41-7.27A12.32,12.32,0,0,1,676.52,287.5Z"/><polygon points="736.76 103.43 697.62 146.33 717.86 91.17 736.76 103.43"/><path class="cls-4" d="M727.53,298.07a12.4,12.4,0,0,0,8.17-1.49c-8.66,16.33-25.33,26.69-36.15,30.87l-128,49.47-68.15-60.67,4.47-32.6h47v5.58a3.6,3.6,0,0,0,4.9,3.36L654.51,256v21A10.48,10.48,0,0,0,665,287.5h11.54a12.32,12.32,0,0,0,6.6,3.3Z"/><path class="cls-5" d="M726.63,245.17v.49l-41.45-6.77A12.38,12.38,0,0,0,671,249.11l-.15.89a12,12,0,0,0,.15,4.75A12.34,12.34,0,0,0,681,264.23l12.57,2v0l.09.21-6.43-1.05A12.38,12.38,0,0,0,673,275.68l-.15.9a12.55,12.55,0,0,0-.07,3.51,12.39,12.39,0,0,0,3.7,7.41H665A10.48,10.48,0,0,1,654.51,277V180.1A10.46,10.46,0,0,1,665,169.63h51.19a10.46,10.46,0,0,1,10.46,10.47v39L700,214.77A12.39,12.39,0,0,0,685.73,225l-.14.88a12.38,12.38,0,0,0,10.23,14.23ZM680.11,191a6.85,6.85,0,1,0-6.85,6.84A6.85,6.85,0,0,0,680.11,191Z"/><path class="cls-6" d="M720,734.11v99.1H670.86a63.82,63.82,0,1,0-127.64,0H494.05v-99.1Z"/><path class="cls-4" d="M708.85,216.23a12.35,12.35,0,0,1,.56,3.71,12.62,12.62,0,0,1-23.8,5.83l.12-.76A12.39,12.39,0,0,1,700,214.77Z"/><path class="cls-4" d="M693.7,266.51a12.61,12.61,0,0,1-20.78,13.57h-.1a12.55,12.55,0,0,1,.07-3.51l.15-.9a12.38,12.38,0,0,1,14.23-10.22Z"/><path class="cls-4" d="M692.12,240a11.82,11.82,0,0,1,1.17,5.14c0,7-6,12.61-13.44,12.61a13.88,13.88,0,0,1-8.77-3.06l-.12,0a12,12,0,0,1-.15-4.75l.15-.89a12.38,12.38,0,0,1,14.22-10.22l6.94,1.12Z"/><path d="M685,723.05v11.06H523V689.58H647.36S659.23,723.05,685,723.05Z"/><path class="cls-7" d="M682,91.6l-14.61,4a28.51,28.51,0,0,0-20.06,20.07l-3.95,14.58-4-14.58a28.49,28.49,0,0,0-20.06-20.07l-14.61-4,14.61-4a28.51,28.51,0,0,0,20.06-20.07l4-14.58,3.95,14.58a28.53,28.53,0,0,0,20.06,20.07Z"/><path class="cls-4" d="M673.26,184.14a6.84,6.84,0,1,1-6.84,6.84A6.85,6.85,0,0,1,673.26,184.14Z"/><path class="cls-5" d="M440.18,426.48v362.2H315.83V509.15a83.61,83.61,0,0,0,15.64-4.88c41.95-17.81,61.13-67.61,43.14-109.48l-11.14-25.92,26.91-11.57a82.09,82.09,0,0,0,42.24-41.05h70.76L613.32,414.1a101.72,101.72,0,0,1,34,75.87V689.58H523V510.52a23,23,0,0,0-7.71-17.18Z"/><polygon points="636.24 177.1 599.01 163.29 607.35 150.54 636.24 177.1"/><path class="cls-4" d="M599.14,53,592,54.92a14.06,14.06,0,0,0-9.87,9.88L580.16,72l-1.95-7.16a14,14,0,0,0-9.86-9.88L561.17,53,568.35,51a14,14,0,0,0,9.86-9.87L580.16,34l1.93,7.17A14,14,0,0,0,592,51Z"/><path class="cls-3" d="M507.85,283.65l-4.47,32.6H432.62a82.22,82.22,0,0,0,.72-67.85c-14.41-32.86-47.95-51.34-82-48.84L299.28,292.2h0l-77.67-31c.29-.53,75.5-134.37,75.5-134.37a41.51,41.51,0,0,1,36.29-21.15h.35a65.06,65.06,0,0,1,47.84,21,69.11,69.11,0,0,0,51.05,22.43c8,0,17.49-2.31,26-5.1a81,81,0,0,1,51.18.3c27.06,9.21,45,34.92,45,63.5v75.83Z"/><path d="M469.87,25.15c14.4-4.81,28.6,25.83,2.77,59-.19-.2-.36-.41-.54-.61a124.18,124.18,0,0,1-25.38-43.41,124.13,124.13,0,0,1-23.62,2.25,123,123,0,0,1-26.85-2.93,122.53,122.53,0,0,1-22.46-7.27C418.31,6.2,459.21-7.18,469.87,25.15Z"/><path class="cls-4" d="M472.1,83.52a41.38,41.38,0,0,1-2.22,4v0a44,44,0,1,1-73.62-48.06h0a123,123,0,0,0,26.85,2.93,124.13,124.13,0,0,0,23.62-2.25A123.7,123.7,0,0,0,472.1,83.52Z"/><path d="M285.87,821.11c20.44-5.61,30-32.43,30-32.43H440.18v44.53H278.23V822.15A28.2,28.2,0,0,0,285.87,821.11Z"/><path class="cls-8" d="M433.34,248.4a82.48,82.48,0,0,1-43,108.9l-26.91,11.57,11.14,25.92c18,41.87-1.19,91.67-43.14,109.48a83.61,83.61,0,0,1-15.64,4.88,79.11,79.11,0,0,1-12.19,1.56l-1-.61a31.93,31.93,0,0,0,4.1-15.37,52.65,52.65,0,0,0-.83-11.57c3.09,1.61,6,3,8.6,4.09a110.81,110.81,0,0,0,11.23,4.28,13.81,13.81,0,0,0,4.09.62A14,14,0,0,0,343,482.67h0l.13-.38a13.85,13.85,0,0,0-9.24-17.49,160.85,160.85,0,0,1-27-15.49,51.28,51.28,0,0,1-21.19-41.59v-73a70.38,70.38,0,0,1,9-34.43l56.6-100.71C385.39,197.06,418.93,215.54,433.34,248.4Z"/><path class="cls-4" d="M333.93,464.79a13.85,13.85,0,0,1,9.24,17.49l-.13.38a16.46,16.46,0,0,0-28.54,4.59c-2.59-1.12-5.51-2.48-8.6-4.09a52.65,52.65,0,0,1,.83,11.57,31.93,31.93,0,0,1-4.1,15.37c-19.27,32.62-99.81-1.83-99.81-72.59V334.7a153.32,153.32,0,0,1,18.78-73.47l77.67,31h0l-4.54,8.07a70.38,70.38,0,0,0-9,34.43v73a51.28,51.28,0,0,0,21.19,41.59A160.85,160.85,0,0,0,333.93,464.79Z"/><path class="cls-7" d="M315.83,628.91V788.68s-9.52,26.82-30,32.43h-.22V628.91Z"/><path class="cls-5" d="M311.69,111.74h0a41.19,41.19,0,0,0-14.61,15.11l-9.68,17.22a29.59,29.59,0,0,1-4.35.32H210.84A113.07,113.07,0,0,1,154,182a112.42,112.42,0,0,0,18.07-37.58h-20.5A28.62,28.62,0,0,1,123,115.78V30.61A28.61,28.61,0,0,1,151.58,2H283.07a28.61,28.61,0,0,1,28.62,28.61ZM263,57.74a5.18,5.18,0,0,0-5.18-5.18H240.28l2.9-15a5.18,5.18,0,0,0-10.18-2l-3.27,16.93H206.24l2.89-15a5.18,5.18,0,1,0-10.17-2l-3.28,16.93H176.21a5.18,5.18,0,0,0,0,10.36h17.47l-3.74,19.4H171.48a5.19,5.19,0,0,0,0,10.37h16.45l-3.74,19.38a5.2,5.2,0,0,0,4.1,6.07,4.89,4.89,0,0,0,1,.1,5.2,5.2,0,0,0,5.09-4.21l4.12-21.34H222l-3.74,19.38a5.21,5.21,0,0,0,4.11,6.07,4.73,4.73,0,0,0,1,.1,5.18,5.18,0,0,0,5.09-4.21l4.12-21.34h20.52a5.19,5.19,0,0,0,0-10.37H234.53l3.75-19.4h19.51A5.18,5.18,0,0,0,263,57.74Z"/><path class="cls-4" d="M257.79,52.56a5.18,5.18,0,1,1,0,10.36H238.28l-3.75,19.4h18.52a5.19,5.19,0,0,1,0,10.37H232.53L228.41,114a5.18,5.18,0,0,1-5.09,4.21,4.73,4.73,0,0,1-1-.1,5.21,5.21,0,0,1-4.11-6.07L222,92.69H198.49L194.37,114a5.2,5.2,0,0,1-5.09,4.21,4.89,4.89,0,0,1-1-.1,5.2,5.2,0,0,1-4.1-6.07l3.74-19.38H171.48a5.19,5.19,0,0,1,0-10.37h18.46l3.74-19.4H176.21a5.18,5.18,0,0,1,0-10.36h19.47L199,35.63a5.18,5.18,0,1,1,10.17,2l-2.89,15h23.49L233,35.63a5.18,5.18,0,0,1,10.18,2l-2.9,15ZM224,82.32l3.74-19.4H204.24l-3.75,19.4Z"/><rect class="cls-6" x="198.78" y="692.69" width="57.39" height="128.43"/><path class="cls-8" d="M229.67,246.84s-7.78,13.86-8.07,14.39a153.09,153.09,0,0,0-18.78,73.47v78.1l-56-130.35Z"/><polygon class="cls-5" points="227.72 62.92 223.98 82.32 200.49 82.32 204.24 62.92 227.72 62.92"/><rect x="111.92" y="755.04" width="57.39" height="66.07"/><rect class="cls-4" x="25.05" y="791.79" width="57.39" height="29.33"/><path class="cls-9" d="M503.38,316.25,613.32,414.1a101.72,101.72,0,0,1,34,75.87V689.58"/><path class="cls-9" d="M523,734.11V510.52a23,23,0,0,0-7.71-17.18l-75.11-66.86"/><path class="cls-9" d="M685,734.11H720v99.1H670.86a63.82,63.82,0,1,0-127.64,0H494.05v-99.1Z"/><path class="cls-9" d="M523,689.58H647.36s11.87,33.47,37.6,33.47v11.06"/><path class="cls-9" d="M440.18,788.68H315.83s-9.53,26.8-30,32.43a28.6,28.6,0,0,1-7.64,1v11.06h162V400.71"/><polyline class="cls-9" points="518.3 207.55 503.38 316.25 432.63 316.25"/><line class="cls-9" x1="315.83" y1="509.15" x2="315.83" y2="788.68"/><path class="cls-9" d="M343,482.67a14,14,0,0,1-13.22,9.48,13.81,13.81,0,0,1-4.09-.62,114.81,114.81,0,0,1-11.23-4.28c-2.59-1.12-5.51-2.48-8.6-4.09a52.65,52.65,0,0,1,.83,11.57,32.08,32.08,0,0,1-4.1,15.37c-19.34,32.58-99.81-1.83-99.81-72.59V334.7a153.09,153.09,0,0,1,18.78-73.47c.29-.53,75.5-134.37,75.5-134.37a41.27,41.27,0,0,1,14.61-15.11,41.76,41.76,0,0,1,21.68-6h.35a3.53,3.53,0,0,1,.46,0"/><path class="cls-9" d="M303.64,510.71a79.11,79.11,0,0,0,12.19-1.56,83.61,83.61,0,0,0,15.64-4.88c41.95-17.81,61.13-67.61,43.14-109.48l-11.14-25.92,26.91-11.57a82.48,82.48,0,0,0,43-108.9c-14.41-32.86-47.95-51.34-82-48.84l-56.6,100.71a70.38,70.38,0,0,0-9,34.43v73a51.28,51.28,0,0,0,21.19,41.59,160.85,160.85,0,0,0,27,15.49,13.85,13.85,0,0,1,9.24,17.49l-.13.38"/><polyline class="cls-9" points="202.82 412.8 146.81 282.45 229.67 246.84"/><path class="cls-9" d="M333.39,105.71h.35a65.06,65.06,0,0,1,47.84,21,69.11,69.11,0,0,0,51.05,22.43c8,0,17.49-2.31,26-5.1a81,81,0,0,1,51.18.3c27.06,9.21,45,34.92,45,63.5v81.41a3.6,3.6,0,0,0,4.9,3.36L654.51,256"/><line class="cls-9" x1="221.6" y1="261.23" x2="299.27" y2="292.2"/><line class="cls-9" x1="554.86" y1="283.65" x2="507.85" y2="283.65"/><path class="cls-9" d="M676.77,287.5H665A10.48,10.48,0,0,1,654.51,277V180.1A10.46,10.46,0,0,1,665,169.63h51.19a10.46,10.46,0,0,1,10.46,10.47v39"/><line class="cls-9" x1="726.63" y1="245.17" x2="726.63" y2="245.67"/><path class="cls-9" d="M680.11,191a6.85,6.85,0,1,0-6.85,6.84A6.85,6.85,0,0,0,680.11,191Z"/><path class="cls-9" d="M571.53,376.92l128-49.47c10.82-4.18,27.69-14.44,36.15-30.87.06-.11.12-.21.17-.32"/><path class="cls-9" d="M734.51,247h0c-.09-.19-.19-.37-.28-.54"/><path class="cls-9" d="M735.7,296.58a12.4,12.4,0,0,1-8.17,1.49l-44.41-7.27a12.37,12.37,0,0,1-10.3-10.71,12.55,12.55,0,0,1,.07-3.51l.15-.9a12.38,12.38,0,0,1,14.23-10.22l44.4,7.26A12.39,12.39,0,0,1,741.9,287l-.15.88A12.37,12.37,0,0,1,735.7,296.58Z"/><path class="cls-9" d="M739.29,221.24a12.46,12.46,0,0,1,9.5,14.08l-.14.88a12.4,12.4,0,0,1-14.23,10.24l-38.6-6.32a12.38,12.38,0,0,1-10.23-14.23l.14-.88A12.39,12.39,0,0,1,700,214.77S739.05,221.18,739.29,221.24Z"/><path class="cls-9" d="M734.51,247l3.28.54A12.41,12.41,0,0,1,748,261.73l-.14.88a12.39,12.39,0,0,1-14.23,10.22l-52.6-8.6A12.38,12.38,0,0,1,671,254.75a12.19,12.19,0,0,1-.15-4.75l.15-.89a12.38,12.38,0,0,1,14.22-10.22Z"/><path class="cls-9" d="M672.92,280.08a12.62,12.62,0,0,0,21.77-8.69,12.37,12.37,0,0,0-1-4.88l-.09-.21"/><path class="cls-9" d="M685.61,225.77a12.62,12.62,0,0,0,23.8-5.83,12.35,12.35,0,0,0-.56-3.71"/><path class="cls-9" d="M671.08,254.72a13.88,13.88,0,0,0,8.77,3.06c7.42,0,13.44-5.65,13.44-12.61a11.82,11.82,0,0,0-1.17-5.14"/><path class="cls-9" d="M343,482.67h0a16.46,16.46,0,0,0-28.54,4.59"/><path class="cls-9" d="M726.63,191.7a13.48,13.48,0,0,1,20.51,17.42c0,.07-3,4.07-7.85,12.12v0"/><path class="cls-9" d="M469.88,87.48a41.38,41.38,0,0,0,2.22-4"/><path class="cls-9" d="M396.25,39.44A44,44,0,1,0,469.87,87.5"/><path class="cls-9" d="M472.64,84.13c-.19-.2-.36-.41-.54-.61a124.18,124.18,0,0,1-25.38-43.41,124.13,124.13,0,0,1-23.62,2.25,124.25,124.25,0,0,1-26.85-2.93,123.55,123.55,0,0,1-22.46-7.27c44.52-26,85.42-39.34,96.08-7,14.4-4.81,28.58,25.82,2.77,59-.87,1.11-1.78,2.23-2.76,3.35v0"/><path class="cls-9" d="M287.42,144.08a29.59,29.59,0,0,1-4.35.32H210.84A113.07,113.07,0,0,1,154,182a112.42,112.42,0,0,0,18.07-37.58h-20.5A28.62,28.62,0,0,1,123,115.78V30.61A28.61,28.61,0,0,1,151.58,2H283.07a28.61,28.61,0,0,1,28.62,28.61v81.13"/><circle class="cls-9" cx="60.93" cy="258.93" r="58.93"/><polygon class="cls-9" points="49.72 233.84 85.88 258.93 49.72 284.01 49.72 233.84"/><polygon class="cls-9" points="111.93 375.65 101.75 405.31 120.57 430.4 89.21 429.88 71.17 455.53 61.98 425.55 32.01 416.32 57.68 398.31 57.2 366.95 82.26 385.8 111.93 375.65"/><path class="cls-9" d="M82.93,542.69h22.65a24.19,24.19,0,0,0,21.76-12.61c4.84-9.09,7-18.37,7-34.57a13.76,13.76,0,0,1,12.81-13.83,13.47,13.47,0,0,1,14.14,13.46c0,22-2.15,36.39-8.94,48.17l6.33.08c19.26.24,35.44,15.35,36.09,34.61,0,.67,0,1.35,0,2,0,30.89-25.67,55.68-56.56,55.68H55.41v-93Z"/><line class="cls-9" x1="82.93" y1="542.69" x2="82.93" y2="635.71"/><rect class="cls-9" x="25.05" y="791.79" width="57.39" height="29.33"/><rect class="cls-9" x="111.92" y="755.04" width="57.39" height="66.07"/><rect class="cls-9" x="198.78" y="692.69" width="57.39" height="128.43"/><polyline class="cls-9" points="285.91 821.11 285.65 821.11 285.65 628.91 315.83 628.91"/><path class="cls-9" d="M643.34,53l-4,14.58a28.51,28.51,0,0,1-20.06,20.07l-14.61,4,14.61,4a28.49,28.49,0,0,1,20.06,20.07l4,14.58,3.95-14.58a28.51,28.51,0,0,1,20.06-20.07l14.61-4-14.61-4a28.53,28.53,0,0,1-20.06-20.07Z"/><path class="cls-9" d="M580.16,34l-1.95,7.17A14,14,0,0,1,568.35,51L561.17,53l7.18,1.94a14,14,0,0,1,9.86,9.88L580.16,72l1.93-7.16A14.06,14.06,0,0,1,592,54.92L599.14,53,592,51a14,14,0,0,1-9.87-9.87Z"/><polygon class="cls-9" points="697.62 146.33 717.86 91.17 736.76 103.43 697.62 146.33"/><polygon class="cls-9" points="636.24 177.1 599.01 163.29 607.35 150.54 636.24 177.1"/><path class="cls-9" d="M732.16,448.74l-23.48-23.48a13.31,13.31,0,0,1,18.83-18.82l4.65,4.66,4.66-4.66a13.31,13.31,0,1,1,18.82,18.82Z"/><path class="cls-9" d="M705.46,474.93H695.35a15.58,15.58,0,0,1-15.58-15.57V385.72a15.59,15.59,0,0,1,15.58-15.58H769a15.58,15.58,0,0,1,15.57,15.58v73.64A15.57,15.57,0,0,1,769,474.93Z"/><path class="cls-9" d="M647.36,528.83a65.48,65.48,0,0,0,58.1-53.9"/><path class="cls-9" d="M647.36,567.12A103.65,103.65,0,0,0,744,474.93"/></g></g></svg>