<svg xmlns="http://www.w3.org/2000/svg" xmlns:xlink="http://www.w3.org/1999/xlink" viewBox="0 0 1053.95 788.02"><defs><style>.cls-1,.cls-2,.cls-6{fill:none;}.cls-2,.cls-3,.cls-4,.cls-5,.cls-6{stroke:#000;stroke-linecap:round;stroke-linejoin:round;}.cls-2{stroke-width:1.5px;}.cls-3,.cls-7{fill:#fff;}.cls-3,.cls-4,.cls-5,.cls-6{stroke-width:4px;}.cls-4{fill:url(#New_Pattern);}.cls-5{fill:#d7ccff;}.cls-8{fill:#8282d9;}.cls-9{fill:url(#New_Pattern_2);}.cls-10{fill:#ffb2e5;}</style><pattern id="New_Pattern" data-name="New Pattern" width="70" height="50" patternTransform="translate(0 30)" patternUnits="userSpaceOnUse" viewBox="0 0 70 50"><rect class="cls-1" width="70" height="50"/><path class="cls-2" d="M8.89,100c-.05-7.08.29-14.17.29-21.25,0-4.32-.37-17.48-.29-28.09"/><path class="cls-2" d="M22.94,99.84c0-1.65.09-3.31.09-5,0-2.48-.21-5-.21-7.45s0-3.83.05-7.28c0-1.44-.06-2.9-.06-4.35,0-3.1.31-4.62.31-7.37,0-1.4-.27-4.94-.27-8.33q0-1.61.09-3.21V50.11"/><path class="cls-2" d="M36.74,99.84c0-9.46.33-18.09.33-27.56,0-3.7-.15-7.46-.15-11.2,0-3.35-.1-7.29-.18-10.75"/><path class="cls-2" d="M50.93,99.75c0-1.24-.07-2.75-.07-4,0-1.92,0-3.86,0-5.79,0-3.87,0-7.66,0-11.51a8.42,8.42,0,0,1-.08-1.22c0-.32.18-6.68.18-8,0-2.2-.21-3.25-.21-5.64,0-1.3.06-2.65.17-3.86,0-2.89,0-5.89,0-9.05"/><path class="cls-2" d="M65,99.71c0-8.34-.55-15.73-.36-24.06.18-8.13.16-17.71.36-25.19"/><path class="cls-2" d="M8.89,50c-.05-7.08.29-14.17.29-21.25,0-4.32-.37-17.48-.29-28.09"/><path class="cls-2" d="M22.94,49.84c0-1.65.09-3.31.09-5,0-2.48-.21-5-.21-7.45s0-3.83.05-7.28c0-1.44-.06-2.9-.06-4.35,0-3.1.31-4.62.31-7.37,0-1.4-.27-4.94-.27-8.33q0-1.6.09-3.21V.11"/><path class="cls-2" d="M36.74,49.84c0-9.46.33-18.09.33-27.56,0-3.7-.15-7.46-.15-11.2,0-3.35-.1-7.29-.18-10.75"/><path class="cls-2" d="M50.93,49.75c0-1.24-.07-2.75-.07-4,0-1.92,0-3.86,0-5.79,0-3.87,0-7.66,0-11.51a8.42,8.42,0,0,1-.08-1.22c0-.32.18-6.68.18-8,0-2.2-.21-3.25-.21-5.64,0-1.3.06-2.65.17-3.86,0-2.89,0-5.89,0-9"/><path class="cls-2" d="M65,49.71c0-8.34-.55-15.73-.36-24.06.18-8.13.16-17.71.36-25.19"/><path class="cls-2" d="M8.89,0c-.05-7.08.29-14.17.29-21.25,0-4.32-.37-17.48-.29-28.09"/><path class="cls-2" d="M22.94-.16c0-1.65.09-3.31.09-5,0-2.48-.21-5-.21-7.45s0-3.83.05-7.28c0-1.44-.06-2.9-.06-4.35,0-3.1.31-4.62.31-7.37,0-1.4-.27-4.94-.27-8.33q0-1.61.09-3.21v-6.71"/><path class="cls-2" d="M36.74-.16c0-9.46.33-18.09.33-27.56,0-3.7-.15-7.46-.15-11.2,0-3.35-.1-7.29-.18-10.75"/><path class="cls-2" d="M50.93-.25c0-1.24-.07-2.75-.07-4,0-1.92,0-3.86,0-5.79,0-3.87,0-7.66,0-11.51a8.42,8.42,0,0,1-.08-1.22c0-.32.18-6.68.18-8,0-2.2-.21-3.25-.21-5.64,0-1.3.06-2.65.17-3.86,0-2.89,0-5.89,0-9.05"/><path class="cls-2" d="M65-.29c0-8.34-.55-15.73-.36-24.06.18-8.13.16-17.71.36-25.19"/></pattern><pattern id="New_Pattern_2" data-name="New Pattern 2" width="40" height="40" patternTransform="translate(0 30)" patternUnits="userSpaceOnUse" viewBox="0 0 40 40"><rect class="cls-1" width="40" height="40"/><path d="M36.18,30a1.9,1.9,0,0,0,1.91,1.91V28.09A1.9,1.9,0,0,0,36.18,30Z"/><path d="M40,33.82a1.9,1.9,0,0,0,1.91-1.91H38.09A1.9,1.9,0,0,0,40,33.82Z"/><path d="M40,26.18a1.9,1.9,0,0,0-1.91,1.91h3.82A1.9,1.9,0,0,0,40,26.18Z"/><path d="M16.18,40a1.9,1.9,0,0,0,1.91,1.91V38.09A1.9,1.9,0,0,0,16.18,40Z"/><path d="M21.91,38.09v3.82a1.91,1.91,0,0,0,0-3.82Z"/><path d="M20,36.18a1.9,1.9,0,0,0-1.91,1.91h3.82A1.9,1.9,0,0,0,20,36.18Z"/><path d="M1.91,28.09v3.82a1.91,1.91,0,0,0,0-3.82Z"/><path d="M36.18,10a1.9,1.9,0,0,0,1.91,1.91V8.09A1.9,1.9,0,0,0,36.18,10Z"/><path d="M40,13.82a1.9,1.9,0,0,0,1.91-1.91H38.09A1.9,1.9,0,0,0,40,13.82Z"/><path d="M40,6.18a1.9,1.9,0,0,0-1.91,1.91h3.82A1.9,1.9,0,0,0,40,6.18Z"/><path d="M18.79,16.37a1.92,1.92,0,0,0-1.21,2.42l3.63-1.21A1.92,1.92,0,0,0,18.79,16.37Z"/><path d="M22.42,21.21l-3.63,1.21a1.91,1.91,0,0,0,3.63-1.21Z"/><path d="M16.37,21.21a1.92,1.92,0,0,0,2.42,1.21l-1.21-3.63A1.92,1.92,0,0,0,16.37,21.21Z"/><path d="M23.63,18.79a1.92,1.92,0,0,0-2.42-1.21l1.21,3.63A1.92,1.92,0,0,0,23.63,18.79Z"/><path d="M1.91,8.09v3.82a1.91,1.91,0,0,0,0-3.82Z"/><path d="M20,3.82a1.9,1.9,0,0,0,1.91-1.91H18.09A1.9,1.9,0,0,0,20,3.82Z"/><path d="M0,33.82a1.9,1.9,0,0,0,1.91-1.91H-1.91A1.9,1.9,0,0,0,0,33.82Z"/><path d="M0,26.18a1.9,1.9,0,0,0-1.91,1.91H1.91A1.9,1.9,0,0,0,0,26.18Z"/><path d="M0,13.82a1.9,1.9,0,0,0,1.91-1.91H-1.91A1.9,1.9,0,0,0,0,13.82Z"/><path d="M0,6.18A1.9,1.9,0,0,0-1.91,8.09H1.91A1.9,1.9,0,0,0,0,6.18Z"/><path d="M16.18,0a1.9,1.9,0,0,0,1.91,1.91V-1.91A1.9,1.9,0,0,0,16.18,0Z"/><path d="M21.91-1.91V1.91A1.9,1.9,0,0,0,23.82,0,1.9,1.9,0,0,0,21.91-1.91Z"/></pattern></defs><g id="Layer_2" data-name="Layer 2"><g id="illustrations"><path class="cls-3" d="M754,503.31A94.93,94.93,0,1,0,849,598.24,94.93,94.93,0,0,0,754,503.31Zm0,129.91a35,35,0,1,1,35-35A35,35,0,0,1,754,633.22Z"/><path class="cls-4" d="M754,503.31A94.93,94.93,0,1,0,849,598.24,94.93,94.93,0,0,0,754,503.31Zm0,129.91a35,35,0,1,1,35-35A35,35,0,0,1,754,633.22Z"/><circle class="cls-5" cx="573.36" cy="598.24" r="36.79" transform="translate(-255.09 580.64) rotate(-45)"/><circle class="cls-6" cx="470.93" cy="598.24" r="10.56"/><path class="cls-7" d="M1051.57,201a13.68,13.68,0,0,1-10.08,16.49l-24.14,5.81a13.66,13.66,0,0,1-14.17-5.11l26.64-9.73a12.79,12.79,0,0,0,8.41-12A12.35,12.35,0,0,0,1038,194a13,13,0,0,0-1.16-3.37A13.69,13.69,0,0,1,1051.57,201Z"/><path class="cls-7" d="M1035.41,219a13,13,0,0,1,15.16,9.7l.31,1.29a13,13,0,0,1-9.58,15.69l-5.3,1.28h0l-20.13,4.84h0a13,13,0,0,1-15.64-9.6l-.31-1.29a13,13,0,0,1,9.6-15.69l25.49-6.14Z"/><path class="cls-7" d="M1035.94,247.09A13,13,0,0,1,1049.6,257l.31,1.29a13,13,0,0,1-9.59,15.69l-20.55,4.95a13,13,0,0,1-15.7-9.58l-.3-1.3a13,13,0,0,1,9.59-15.68l2.46-.6h0l18.1-4.36A12,12,0,0,1,1035.94,247.09Z"/><path class="cls-7" d="M1003.18,218.17a13.66,13.66,0,0,0,14.17,5.11l-7.88,1.91a13,13,0,0,0-9.6,15.69l.31,1.29a13,13,0,0,0,15.64,9.6l-2.46.6a13,13,0,0,0-9.59,15.68l.3,1.3a13.09,13.09,0,0,0,2.54,5.13c-.59.14-1.19.29-1.79.42L887,300a98.15,98.15,0,0,1-20.57,2.18,99.16,99.16,0,0,1-57.94-18.68l-22.71-16.38,45.7-70.72,26.19,18.89a14.88,14.88,0,0,0,11.8,2.47l114.74-24.47,38.25-9.32a12.32,12.32,0,0,1,1.7-.29,12.85,12.85,0,0,1,12.71,6.88A13,13,0,0,1,1038,194a12.35,12.35,0,0,1,.25,2.48,12.79,12.79,0,0,1-8.41,12Z"/><path class="cls-8" d="M1024.11,77.49v80.05c-101.44,48.61-94.78-65.3-170.84-34.77C926.16,64.36,958.89,150.78,1024.11,77.49Z"/><path class="cls-7" d="M831.43,196.43l-45.7,70.72L723.12,222l-56.46,96.1H581.94V214.2c0-23.42-19.15-43.12-42.56-42.83a41.88,41.88,0,0,0-13.69,2.46,39.63,39.63,0,0,1-15,2.56c-14.91-.64-32.42-8.81-39.82-24.32h0a40.68,40.68,0,0,0-2.38-6.56,41.1,41.1,0,0,0-5.88-9.34h0A52.92,52.92,0,0,0,480,121c12.48,13,36.76,8.16,39.42-6.56a46.32,46.32,0,0,0,13.93,14.72A45.82,45.82,0,0,0,602,106.31c13.57,13.08,22.05,26.85,35.32,32.08,22.19,8.77,40.82,2.35,67.74-7.21,2-.73,4.09-1.46,6.22-2.21a42,42,0,0,1,35.56,6.49Z"/><path class="cls-9" d="M831.43,196.43l-45.7,70.72L723.12,222l-56.46,96.1H581.94V214.2c0-23.42-19.15-43.12-42.56-42.83a41.88,41.88,0,0,0-13.69,2.46,39.63,39.63,0,0,1-15,2.56c-14.91-.64-32.42-8.81-39.82-24.32h0a40.68,40.68,0,0,0-2.38-6.56,41.1,41.1,0,0,0-5.88-9.34h0A52.92,52.92,0,0,0,480,121c12.48,13,36.76,8.16,39.42-6.56a46.32,46.32,0,0,0,13.93,14.72A45.82,45.82,0,0,0,602,106.31c13.57,13.08,22.05,26.85,35.32,32.08,22.19,8.77,40.82,2.35,67.74-7.21,2-.73,4.09-1.46,6.22-2.21a42,42,0,0,1,35.56,6.49Z"/><path class="cls-7" d="M789,364.68A13.67,13.67,0,1,1,789,392H717.92c-1-16-4.48-23.67-7.27-27.33Z"/><path class="cls-7" d="M791.15,576,654.57,657.32,619.88,595l52.17-32.54h0l46.06-28.73,4.15,7.47c3.65,6.55,7.8,10.49,12.27,12.86C752.2,563.48,774.84,548.63,791.15,576Z"/><circle class="cls-7" cx="761.21" cy="405.68" r="13.67"/><path d="M763.37,42.1H681.16V63.25h-9.34s-8.93-18.07-18.45-21.15a16.3,16.3,0,0,0-4.82-.72,16.12,16.12,0,0,0-7.63,1.9C646.31,21.65,664.29,2,691.75,2,744.48,2,763.37,42.1,763.37,42.1Z"/><circle class="cls-7" cx="751.88" cy="433.01" r="13.67"/><path class="cls-7" d="M717.92,392h43.29a13.67,13.67,0,1,0,0,27.33h-44.9a80.61,80.61,0,0,0,1.88-18.06Q718.19,396.24,717.92,392Z"/><path class="cls-7" d="M716.32,419.34h35.56a13.67,13.67,0,0,0,0,27.33H690.4A22.51,22.51,0,0,0,709,436.82a50.39,50.39,0,0,0,7.3-17.48Z"/><path class="cls-7" d="M660.34,94.27A45.48,45.48,0,0,1,650,75.92l-7.7-3.29c-.21-.1-.42-.18-.63-.3A16.25,16.25,0,0,1,653.37,42.1c9.52,3.08,18.45,21.15,18.45,21.15h9.34V42.1h53.3a45.72,45.72,0,0,1-74.12,52.17Z"/><path d="M716.85,451.9a149.46,149.46,0,0,1,17.68,102.17c-4.47-2.37-8.62-6.31-12.27-12.86l-52.63-94.54h44.18Z"/><path class="cls-8" d="M718.11,533.74l-46.06,28.73-89.67-159a65.62,65.62,0,0,0-57.15-33.39H453.55a89.23,89.23,0,0,0-.73-60.91H519a126.17,126.17,0,0,1,104,54.72q3.33,4.84,6.23,10Z"/><path class="cls-7" d="M717.92,392q.27,4.23.27,9.27a80.61,80.61,0,0,1-1.88,18.06,50.39,50.39,0,0,1-7.3,17.48,22.51,22.51,0,0,1-18.61,9.85H669.63L629.15,374q-2.89-5.19-6.23-10h18.23a44.92,44.92,0,0,0,33.08-14.52l25.62-27.85a10.63,10.63,0,0,1,17,12.55l-14.92,25.53a3.36,3.36,0,0,0,2.9,5.06h5.82C713.44,368.34,716.93,376,717.92,392Z"/><polygon points="654.57 657.32 706.23 626.55 663.68 719.23 524.88 719.23 599.07 557.65 654.57 657.32"/><path class="cls-7" d="M705.09,131.18a41.43,41.43,0,0,1,6.22-2.21C709.18,129.72,707.11,130.45,705.09,131.18Z"/><path class="cls-7" d="M657,733.86c-12,26,45.6,20.82,34.43,52.16H494.22l30.66-66.79h138.8l-1.44,3.14h0l0,0h0l-.09.19-.08.18a.59.59,0,0,1,0,.08c.22-.46.2-.42-.16.35l-.1.21c.35-.75.31-.65-.2.44l-.14.32c0,.09-.09.2-.14.29l-.15.34-.1.21-.28.63c-.05.09-.09.19-.14.28Zm-86.85,19.31a15.5,15.5,0,1,0-15.49,15.5A15.49,15.49,0,0,0,570.12,753.17Z"/><path class="cls-8" d="M672.05,562.47h0L619.88,595,528.12,430.2a10.48,10.48,0,0,0-9.16-5.38H398a89,89,0,0,0,55.51-54.72h71.68a65.62,65.62,0,0,1,57.15,33.39Z"/><path d="M666.66,318.1V356a44.93,44.93,0,0,1-25.51,7.94H622.92a126.21,126.21,0,0,0-41-37.86V318.1Z"/><polygon class="cls-7" points="662.27 722.3 662.24 722.38 662.24 722.37 662.27 722.3"/><path class="cls-7" d="M662.24,722.38l0,.06h0Z"/><path class="cls-7" d="M662.21,722.44l-.09.19Z"/><path class="cls-7" d="M662,722.81l-.2.43c.36-.77.38-.81.16-.35A.59.59,0,0,0,662,722.81Z"/><path class="cls-7" d="M661.74,723.45l-.2.44C662.05,722.8,662.09,722.7,661.74,723.45Z"/><path class="cls-7" d="M661.4,724.21l-.14.29C661.31,724.41,661.36,724.3,661.4,724.21Z"/><path class="cls-7" d="M661.23,724.57l-.08.2a.21.21,0,0,0,0,.07Z"/><path class="cls-7" d="M660.73,725.68l-.24.5.1-.22C660.64,725.87,660.68,725.77,660.73,725.68Z"/><path class="cls-7" d="M650,75.92a45.48,45.48,0,0,0,10.37,18.35,37.33,37.33,0,0,1-18.7-21.92v0c.21.12.42.2.63.3l.1,0Z"/><path class="cls-7" d="M597.79,67a45.8,45.8,0,0,1-64.42,62.16c8.13-6.17,13.9-13.12,19.27-20.28a18.22,18.22,0,1,1,20-24.8A87.69,87.69,0,0,1,597.79,67Z"/><path d="M608.31,62.7q-5.68,2-10.52,4.25A87.69,87.69,0,0,0,572.67,84a18.22,18.22,0,1,0-20,24.8c-5.37,7.16-11.14,14.11-19.27,20.28a46.32,46.32,0,0,1-13.93-14.72C516.78,129.11,492.5,134,480,121a52.92,52.92,0,0,1-17.35,15.2h0A41.92,41.92,0,0,0,430.31,121H327.49a64.89,64.89,0,0,1,98.59-72.41,52.62,52.62,0,0,1,75,10.38,30.78,30.78,0,0,1,16,4.87C522.4,33.71,577.51,24.31,608.31,62.7Z"/><path class="cls-7" d="M581.94,318.1v7.95a126,126,0,0,0-63-16.86H497.84V288.33h84.1Z"/><path class="cls-10" d="M497.84,275.73a29.89,29.89,0,0,0-15.47,14.17,69.16,69.16,0,0,0-6.12,19.29h-136a56.41,56.41,0,0,0-6.53.37h0c.23-45.27,8.08-79.17,17.51-104.49h-37V121H430.31a41.92,41.92,0,0,1,32.35,15.2,41.1,41.1,0,0,1,5.88,9.34,36,36,0,0,0,2.38,6.56h0c7.4,15.51,24.91,23.68,39.82,24.32a39.63,39.63,0,0,0,15-2.56,41.88,41.88,0,0,1,13.69-2.46c23.41-.29,42.56,19.41,42.56,42.83v74.13h-84.1Z"/><path class="cls-7" d="M554.63,737.67a15.5,15.5,0,1,1-15.51,15.5A15.49,15.49,0,0,1,554.63,737.67Z"/><path d="M528.12,430.2,549,467.67l-14,21.52a176.77,176.77,0,0,1-145.33,80.39A190.39,190.39,0,0,0,398,513.3V442.14A51,51,0,0,0,426,424.82h93A10.48,10.48,0,0,1,528.12,430.2Z"/><path class="cls-7" d="M470.92,152.06a36,36,0,0,1-2.38-6.56A40.68,40.68,0,0,1,470.92,152.06Z"/><path class="cls-8" d="M453.55,370.1A89,89,0,0,1,398,424.82V513.3a189,189,0,0,1-55.68,134.42L261.14,729l-62-8.78c57.73-67.74,88.59-101.63,116.52-136.61a99.06,99.06,0,0,0,21.59-64.67c-2.27-79-29-185.18,14-208.21v-1.49H452.82a89.23,89.23,0,0,1,.73,60.91Z"/><path class="cls-8" d="M351.21,309.19v1.49c-43,23-16.28,129.2-14,208.21a99.06,99.06,0,0,1-21.59,64.67c-27.93,35-58.79,68.87-116.52,136.61l-67.77-9.6a413.59,413.59,0,0,1,59.67-75L260.6,566a74,74,0,0,0,21.81-52.66V367a57.81,57.81,0,0,1,51.29-57.44,56.41,56.41,0,0,1,6.53-.37Z"/><path class="cls-7" d="M70.47,400.23h0l-5.33-2.75a20.71,20.71,0,0,1-10.91-22l.35-2h0l-2.38-1.23a20.71,20.71,0,0,1-10.91-22l6-34.61A56.61,56.61,0,0,1,63.5,285L195.38,156A122.43,122.43,0,0,1,281.45,121h32.72v84.1H281.45a38.8,38.8,0,0,0-27.29,11.12L150.37,317.63c-2.18,20.55,4.07,44.13,7.8,55.89a10.09,10.09,0,0,1,.49,3.1,10.23,10.23,0,0,1-18.47,6.06c-6-8.2-14.59-22.55-16.11-39.34l-23.59,37.58a18.07,18.07,0,0,0-1.23,17.5,12.47,12.47,0,0,1-4.18,15.78,12.79,12.79,0,0,1-13.08.61l-.74-.38A20.67,20.67,0,0,1,70.47,400.23Z"/><path d="M282.41,443.47V513.3A74,74,0,0,1,260.6,566L257,569.61H220.57l24.09-126.14Z"/><path class="cls-7" d="M246.94,743.15C224,766.07,284.78,745.94,271.8,786H93.11c11.38-27.42,23.79-52.28,38.21-75.45L261.14,729Z"/><path class="cls-7" d="M244.66,443.47,220.57,569.61H202c-32.55,0-23.61,43.54-66.83,43.54l37-169.68Z"/><line class="cls-6" x1="497.84" y1="309.19" x2="497.84" y2="275.73"/><path class="cls-6" d="M734.53,554.07A149.46,149.46,0,0,0,716.85,451.9l-3-5.23"/><path class="cls-6" d="M705.09,131.18a42.12,42.12,0,0,1,41.78,4.28l110.75,79.86a14.88,14.88,0,0,0,11.8,2.47l117.86-25.14"/><path class="cls-6" d="M1017.35,223.28a13.66,13.66,0,0,1-14.17-5.11"/><path class="cls-6" d="M1036.82,190.59a13.67,13.67,0,0,1,4.67,26.88l-6.53,1.58"/><path class="cls-6" d="M1035.42,219h0v0Z"/><path class="cls-6" d="M1036,246.92l-.06.17,0,.1"/><path class="cls-6" d="M1006.85,274.41l-.24.07c-.59.14-1.19.29-1.79.42L887,300a98.15,98.15,0,0,1-20.57,2.18,99.16,99.16,0,0,1-57.94-18.68L723.12,222l-56.46,96.1V356"/><line class="cls-6" x1="524.88" y1="719.23" x2="599.07" y2="557.65"/><polygon class="cls-6" points="662.27 722.3 662.24 722.37 662.24 722.38 662.27 722.3"/><path class="cls-6" d="M662.21,722.44h0l0,0Z"/><path class="cls-6" d="M662.21,722.44l-.09.19"/><path class="cls-6" d="M661.84,723.24c.36-.77.38-.81.16-.35a.59.59,0,0,0,0-.08"/><path class="cls-6" d="M661.74,723.45c.35-.75.31-.65-.2.44"/><path class="cls-6" d="M661.26,724.5c0-.09.1-.2.14-.29"/><line class="cls-6" x1="661.11" y1="724.84" x2="661.23" y2="724.57"/><path class="cls-6" d="M660.49,726.18l.1-.22c0-.09.09-.19.14-.28"/><path class="cls-6" d="M660.73,725.68,657,733.86c-12,26,45.6,20.82,34.43,52.16H494.22l30.66-66.79"/><path class="cls-6" d="M660.73,725.68l.28-.63.1-.21"/><path class="cls-6" d="M661.23,724.57l-.08.2a.21.21,0,0,0,0,.07"/><line class="cls-6" x1="661.23" y1="724.57" x2="661.26" y2="724.5"/><line class="cls-6" x1="661.74" y1="723.45" x2="661.26" y2="724.5"/><line class="cls-6" x1="661.74" y1="723.45" x2="661.84" y2="723.24"/><line class="cls-6" x1="662.04" y1="722.81" x2="661.84" y2="723.24"/><line class="cls-6" x1="662.04" y1="722.81" x2="662.12" y2="722.63"/><line class="cls-6" x1="706.23" y1="626.55" x2="662.12" y2="722.63"/><path class="cls-6" d="M261.14,729l-14.2,14.2C224,766.07,284.78,745.94,271.8,786H93.11c11.38-27.42,23.8-52.28,38.21-75.45a413.59,413.59,0,0,1,59.67-75L260.6,566a74,74,0,0,0,21.81-52.66V367a57.81,57.81,0,0,1,51.29-57.44,56.41,56.41,0,0,1,6.53-.37H519a126.17,126.17,0,0,1,104,54.72q3.33,4.84,6.23,10l93.11,167.26c3.65,6.55,7.8,10.48,12.27,12.86,17.67,9.41,40.31-5.44,56.62,21.92L654.57,657.32,528.12,430.2a10.48,10.48,0,0,0-9.16-5.38H398V513.3a189,189,0,0,1-55.68,134.42Z"/><path class="cls-6" d="M426,424.82A51,51,0,0,1,398,442.14"/><path class="cls-6" d="M282.41,443.47H172.14l-37,169.68c43.22,0,34.28-43.54,66.83-43.54H257"/><path class="cls-6" d="M389.61,569.58a176.77,176.77,0,0,0,145.33-80.39l14-21.52"/><line class="cls-6" x1="666.66" y1="318.1" x2="581.94" y2="318.1"/><path class="cls-6" d="M470.92,152.07c7.4,15.51,24.91,23.68,39.82,24.32a39.63,39.63,0,0,0,15-2.56,41.88,41.88,0,0,1,13.69-2.46c23.41-.29,42.56,19.41,42.56,42.83V326.05"/><path class="cls-6" d="M468.54,145.5a36,36,0,0,0,2.38,6.56"/><path class="cls-6" d="M476.25,309.19a69.16,69.16,0,0,1,6.12-19.29,29.89,29.89,0,0,1,15.47-14.17h0a32.9,32.9,0,0,1,4.26-1.46A30.25,30.25,0,0,0,524,240.08"/><line class="cls-6" x1="314.17" y1="120.96" x2="314.17" y2="205.06"/><line class="cls-6" x1="497.84" y1="288.33" x2="581.94" y2="288.33"/><path class="cls-6" d="M470.92,152.07h0a41.65,41.65,0,0,0-2.38-6.56A42.11,42.11,0,0,0,430.31,121H281.45A122.43,122.43,0,0,0,195.38,156L63.5,285a56.61,56.61,0,0,0-16.19,30.76l-6,34.61a20.71,20.71,0,0,0,10.91,22l2.38,1.23"/><path class="cls-6" d="M63.39,322.91l-9.17,52.6a20.71,20.71,0,0,0,10.91,22l5.33,2.75"/><path class="cls-6" d="M79.51,339.85l-9.16,52.61a20.7,20.7,0,0,0,10.91,22l.74.38a12.79,12.79,0,0,0,13.08-.61,12.47,12.47,0,0,0,4.18-15.78,18.07,18.07,0,0,1,1.23-17.5l23.59-37.58c1.52,16.79,10.1,31.14,16.11,39.34a10.23,10.23,0,0,0,18.47-6.06,10.09,10.09,0,0,0-.49-3.1c-3.73-11.76-10-35.34-7.8-55.89L254.16,216.18a38.8,38.8,0,0,1,27.29-11.12h69.76c-9.43,25.32-17.28,59.22-17.51,104.49"/><line class="cls-6" x1="220.57" y1="569.61" x2="244.66" y2="443.47"/><line class="cls-6" x1="524.88" y1="719.23" x2="663.68" y2="719.23"/><path class="cls-6" d="M570.12,753.17a15.5,15.5,0,1,0-15.49,15.5A15.49,15.49,0,0,0,570.12,753.17Z"/><line class="cls-6" x1="672.05" y1="562.47" x2="718.11" y2="533.74"/><line class="cls-6" x1="619.88" y1="595.02" x2="672.05" y2="562.48"/><line class="cls-6" x1="131.32" y1="710.57" x2="261.14" y2="728.95"/><line class="cls-6" x1="697.34" y1="574.95" x2="713.44" y2="554.07"/><line class="cls-6" x1="710.23" y1="580.98" x2="723.5" y2="560.85"/><line class="cls-6" x1="211.87" y1="741.26" x2="234.92" y2="743.5"/><line class="cls-6" x1="209.63" y1="752.14" x2="232.61" y2="754.7"/><path class="cls-6" d="M199.09,720.17c57.73-67.74,88.59-101.63,116.52-136.61a99.06,99.06,0,0,0,21.59-64.67c-2.27-79-29-185.18,14-208.21"/><path class="cls-6" d="M452.82,309.19A88.79,88.79,0,0,1,398,424.82"/><path class="cls-6" d="M453.54,370.1h71.69a65.62,65.62,0,0,1,57.15,33.39l89.67,159h0"/><path class="cls-6" d="M622.92,363.91h18.23a44.92,44.92,0,0,0,33.08-14.52l25.62-27.85a10.63,10.63,0,0,1,17,12.55l-14.92,25.53a3.36,3.36,0,0,0,2.9,5.06H789A13.67,13.67,0,1,1,789,392H717.92"/><line class="cls-6" x1="716.32" y1="419.34" x2="761.21" y2="419.34"/><path class="cls-6" d="M690.4,446.67A22.51,22.51,0,0,0,709,436.82a50.67,50.67,0,0,0,7.3-17.48,81.2,81.2,0,0,0,1.88-18.06q0-5-.27-9.27c-1-16-4.48-23.67-7.27-27.33"/><line class="cls-6" x1="669.63" y1="446.67" x2="680.96" y2="446.67"/><line class="cls-6" x1="751.88" y1="446.67" x2="680.96" y2="446.67"/><circle class="cls-6" cx="761.21" cy="405.68" r="13.67"/><circle class="cls-6" cx="751.88" cy="433.01" r="13.67"/><path class="cls-6" d="M711.31,129l-6.22,2.21c-26.9,9.58-45.55,16-67.74,7.21-13.27-5.23-21.75-19-35.32-32.08"/><line class="cls-6" x1="785.73" y1="267.15" x2="831.43" y2="196.43"/><path class="cls-6" d="M1034,247.4a12,12,0,0,1,2-.31A13,13,0,0,1,1049.6,257l.31,1.29a13,13,0,0,1-9.59,15.69l-20.55,4.95a13,13,0,0,1-15.7-9.58l-.3-1.3a13,13,0,0,1,9.59-15.68l2.46-.6"/><path class="cls-6" d="M1035.41,219a13,13,0,0,1,15.16,9.7l.31,1.29a13,13,0,0,1-9.58,15.69l-5.3,1.28h0l-20.13,4.84h0a13,13,0,0,1-15.64-9.6l-.31-1.29a13,13,0,0,1,9.6-15.69l25.49-6.14Z"/><path class="cls-6" d="M984.16,193.32l38.25-9.32a12.32,12.32,0,0,1,1.7-.29,12.86,12.86,0,0,1,12.71,6.88A13,13,0,0,1,1038,194a12.35,12.35,0,0,1,.25,2.48,12.79,12.79,0,0,1-8.41,12L992.66,222s-4.77,29.57-32,32.94"/><path class="cls-6" d="M1024.11,77.49c-65.22,73.29-97.95-13.13-170.84,45.28,76.06-30.53,69.4,83.38,170.84,34.77"/><line class="cls-6" x1="1024.11" y1="66.99" x2="1024.11" y2="183.71"/><line class="cls-6" x1="1024.11" y1="277.89" x2="1024.11" y2="335.3"/><path class="cls-6" d="M642.37,72.67l7.6,3.25A45.73,45.73,0,1,0,734.46,42.1"/><path class="cls-6" d="M642.37,72.67l-.1,0c-.21-.1-.42-.18-.63-.3A16.25,16.25,0,0,1,653.37,42.1c9.52,3.08,18.45,21.15,18.45,21.15h9.34V42.1h82.21S744.48,2,691.75,2c-27.46,0-45.44,19.65-50.83,41.28"/><path class="cls-6" d="M641.64,72.35a37.33,37.33,0,0,0,18.7,21.92h0"/><path class="cls-6" d="M462.67,136.15A52.92,52.92,0,0,0,480,121c12.48,13,36.76,8.16,39.42-6.56a46.22,46.22,0,0,0,13.93,14.72A45.8,45.8,0,0,0,597.79,67"/><path class="cls-6" d="M327.49,121a64.89,64.89,0,0,1,98.59-72.41,52.62,52.62,0,0,1,75,10.38,30.78,30.78,0,0,1,16,4.87c5.34-30.09,60.45-39.49,91.25-1.1q-5.68,2-10.52,4.25A87.69,87.69,0,0,0,572.67,84a18.22,18.22,0,1,0-20,24.8c-5.37,7.16-11.14,14.11-19.27,20.28"/><line class="cls-6" x1="80.52" y1="600.89" x2="2" y2="600.89"/><line class="cls-6" x1="84.94" y1="567.07" x2="50.1" y2="567.07"/><line class="cls-6" x1="89.36" y1="533.26" x2="71.36" y2="533.26"/></g></g></svg>