<svg xmlns="http://www.w3.org/2000/svg" xmlns:xlink="http://www.w3.org/1999/xlink" viewBox="0 0 833.87 882.6"><defs><style>.cls-1,.cls-2,.cls-9{fill:none;}.cls-2,.cls-9{stroke:#000;stroke-linecap:round;stroke-linejoin:round;}.cls-2{stroke-width:1.5px;}.cls-3{fill:#fff;}.cls-4{fill:#ffb2e5;}.cls-5{fill:#d7ccff;}.cls-6{fill:url(#New_Pattern_2);}.cls-7{fill:#8282d9;}.cls-8{fill:url(#New_Pattern);}.cls-9{stroke-width:4px;}</style><pattern id="New_Pattern_2" data-name="New Pattern 2" width="40" height="40" patternTransform="translate(0 -30)" patternUnits="userSpaceOnUse" viewBox="0 0 40 40"><rect class="cls-1" width="40" height="40"/><path d="M36.18,30a1.9,1.9,0,0,0,1.91,1.91V28.09A1.9,1.9,0,0,0,36.18,30Z"/><path d="M40,33.82a1.9,1.9,0,0,0,1.91-1.91H38.09A1.9,1.9,0,0,0,40,33.82Z"/><path d="M40,26.18a1.9,1.9,0,0,0-1.91,1.91h3.82A1.9,1.9,0,0,0,40,26.18Z"/><path d="M16.18,40a1.9,1.9,0,0,0,1.91,1.91V38.09A1.9,1.9,0,0,0,16.18,40Z"/><path d="M21.91,38.09v3.82a1.91,1.91,0,0,0,0-3.82Z"/><path d="M20,36.18a1.9,1.9,0,0,0-1.91,1.91h3.82A1.9,1.9,0,0,0,20,36.18Z"/><path d="M1.91,28.09v3.82a1.91,1.91,0,0,0,0-3.82Z"/><path d="M36.18,10a1.9,1.9,0,0,0,1.91,1.91V8.09A1.9,1.9,0,0,0,36.18,10Z"/><path d="M40,13.82a1.9,1.9,0,0,0,1.91-1.91H38.09A1.9,1.9,0,0,0,40,13.82Z"/><path d="M40,6.18a1.9,1.9,0,0,0-1.91,1.91h3.82A1.9,1.9,0,0,0,40,6.18Z"/><path d="M18.79,16.37a1.92,1.92,0,0,0-1.21,2.42l3.63-1.21A1.92,1.92,0,0,0,18.79,16.37Z"/><path d="M22.42,21.21l-3.63,1.21a1.91,1.91,0,0,0,3.63-1.21Z"/><path d="M16.37,21.21a1.92,1.92,0,0,0,2.42,1.21l-1.21-3.63A1.92,1.92,0,0,0,16.37,21.21Z"/><path d="M23.63,18.79a1.92,1.92,0,0,0-2.42-1.21l1.21,3.63A1.92,1.92,0,0,0,23.63,18.79Z"/><path d="M1.91,8.09v3.82a1.91,1.91,0,0,0,0-3.82Z"/><path d="M20,3.82a1.9,1.9,0,0,0,1.91-1.91H18.09A1.9,1.9,0,0,0,20,3.82Z"/><path d="M0,33.82a1.9,1.9,0,0,0,1.91-1.91H-1.91A1.9,1.9,0,0,0,0,33.82Z"/><path d="M0,26.18a1.9,1.9,0,0,0-1.91,1.91H1.91A1.9,1.9,0,0,0,0,26.18Z"/><path d="M0,13.82a1.9,1.9,0,0,0,1.91-1.91H-1.91A1.9,1.9,0,0,0,0,13.82Z"/><path d="M0,6.18A1.9,1.9,0,0,0-1.91,8.09H1.91A1.9,1.9,0,0,0,0,6.18Z"/><path d="M16.18,0a1.9,1.9,0,0,0,1.91,1.91V-1.91A1.9,1.9,0,0,0,16.18,0Z"/><path d="M21.91-1.91V1.91A1.9,1.9,0,0,0,23.82,0,1.9,1.9,0,0,0,21.91-1.91Z"/></pattern><pattern id="New_Pattern" data-name="New Pattern" width="70" height="50" patternTransform="translate(0 -30)" patternUnits="userSpaceOnUse" viewBox="0 0 70 50"><rect class="cls-1" width="70" height="50"/><path class="cls-2" d="M8.89,100c-.05-7.08.29-14.17.29-21.25,0-4.32-.37-17.48-.29-28.09"/><path class="cls-2" d="M22.94,99.84c0-1.65.09-3.31.09-5,0-2.48-.21-5-.21-7.45s0-3.83.05-7.28c0-1.44-.06-2.9-.06-4.35,0-3.1.31-4.62.31-7.37,0-1.4-.27-4.94-.27-8.33q0-1.61.09-3.21V50.11"/><path class="cls-2" d="M36.74,99.84c0-9.46.33-18.09.33-27.56,0-3.7-.15-7.46-.15-11.2,0-3.35-.1-7.29-.18-10.75"/><path class="cls-2" d="M50.93,99.75c0-1.24-.07-2.75-.07-4,0-1.92,0-3.86,0-5.79,0-3.87,0-7.66,0-11.51a8.42,8.42,0,0,1-.08-1.22c0-.32.18-6.68.18-8,0-2.2-.21-3.25-.21-5.64,0-1.3.06-2.65.17-3.86,0-2.89,0-5.89,0-9.05"/><path class="cls-2" d="M65,99.71c0-8.34-.55-15.73-.36-24.06.18-8.13.16-17.71.36-25.19"/><path class="cls-2" d="M8.89,50c-.05-7.08.29-14.17.29-21.25,0-4.32-.37-17.48-.29-28.09"/><path class="cls-2" d="M22.94,49.84c0-1.65.09-3.31.09-5,0-2.48-.21-5-.21-7.45s0-3.83.05-7.28c0-1.44-.06-2.9-.06-4.35,0-3.1.31-4.62.31-7.37,0-1.4-.27-4.94-.27-8.33q0-1.6.09-3.21V.11"/><path class="cls-2" d="M36.74,49.84c0-9.46.33-18.09.33-27.56,0-3.7-.15-7.46-.15-11.2,0-3.35-.1-7.29-.18-10.75"/><path class="cls-2" d="M50.93,49.75c0-1.24-.07-2.75-.07-4,0-1.92,0-3.86,0-5.79,0-3.87,0-7.66,0-11.51a8.42,8.42,0,0,1-.08-1.22c0-.32.18-6.68.18-8,0-2.2-.21-3.25-.21-5.64,0-1.3.06-2.65.17-3.86,0-2.89,0-5.89,0-9"/><path class="cls-2" d="M65,49.71c0-8.34-.55-15.73-.36-24.06.18-8.13.16-17.71.36-25.19"/><path class="cls-2" d="M8.89,0c-.05-7.08.29-14.17.29-21.25,0-4.32-.37-17.48-.29-28.09"/><path class="cls-2" d="M22.94-.16c0-1.65.09-3.31.09-5,0-2.48-.21-5-.21-7.45s0-3.83.05-7.28c0-1.44-.06-2.9-.06-4.35,0-3.1.31-4.62.31-7.37,0-1.4-.27-4.94-.27-8.33q0-1.61.09-3.21v-6.71"/><path class="cls-2" d="M36.74-.16c0-9.46.33-18.09.33-27.56,0-3.7-.15-7.46-.15-11.2,0-3.35-.1-7.29-.18-10.75"/><path class="cls-2" d="M50.93-.25c0-1.24-.07-2.75-.07-4,0-1.92,0-3.86,0-5.79,0-3.87,0-7.66,0-11.51a8.42,8.42,0,0,1-.08-1.22c0-.32.18-6.68.18-8,0-2.2-.21-3.25-.21-5.64,0-1.3.06-2.65.17-3.86,0-2.89,0-5.89,0-9.05"/><path class="cls-2" d="M65-.29c0-8.34-.55-15.73-.36-24.06.18-8.13.16-17.71.36-25.19"/></pattern></defs><g id="Layer_2" data-name="Layer 2"><g id="illustrations"><path d="M722.19,425.3a20.31,20.31,0,0,0-33-15.86c-3.06-13.46-12-24.67-34.65-31.51A67.09,67.09,0,1,1,696.5,497.38h-.64c-9.33-15.13-8.64-32.32-7.1-49.05a115.37,115.37,0,0,0,20.42-4.07A20.29,20.29,0,0,0,722.19,425.3Z"/><polygon points="540.34 203.92 540.34 310.55 433.71 310.55 433.71 262.71 492.51 203.92 540.34 203.92"/><path class="cls-3" d="M2,489.32A11.34,11.34,0,0,1,13.33,478h164a11.33,11.33,0,0,1,3.12,22.23,11.1,11.1,0,0,1-3.12.44h-164A11.32,11.32,0,0,1,2,489.34Z"/><path class="cls-3" d="M381.78,420.79a5.28,5.28,0,0,0-5.28-5.29H332.22a5.29,5.29,0,0,0,0,10.58H376.5a5.27,5.27,0,0,0,5.28-5.29Zm0-20.9a5.28,5.28,0,0,0-5.28-5.29H332.22a5.29,5.29,0,1,0,0,10.57H376.5a5.27,5.27,0,0,0,5.28-5.28Zm0,41.8a5.27,5.27,0,0,0-5.28-5.28H332.22a5.29,5.29,0,1,0,0,10.57H376.5a5.27,5.27,0,0,0,5.28-5.29Zm5.47,32.63H306.43c-.16-16.5,0-52.89.05-71A21.65,21.65,0,0,0,301,388.83V367.69H407.67V467.83a17,17,0,0,0-9.77-.74,17.17,17.17,0,0,0-10.23,6.66Z"/><polygon points="303.04 259.67 317.42 243.08 330.77 254.65 354.24 231.19 369.76 246.71 331.84 284.63 303.04 259.67"/><path class="cls-3" d="M325.24,27.1a14.21,14.21,0,1,1,9.12,3.31A14.18,14.18,0,0,1,325.24,27.1Z"/><path class="cls-3" d="M409.05,468.42a17.22,17.22,0,0,1,8.8,21L415.3,497a18.2,18.2,0,0,1-4.75.63,17.87,17.87,0,0,1-12.65-30.5,17.33,17.33,0,0,1,9.77.74C408.14,468,408.6,468.2,409.05,468.42Z"/><polygon class="cls-3" points="190.46 245.26 208.45 248.65 195.79 261.87 198.12 280.03 181.63 272.07 165.08 279.91 167.55 261.76 154.99 248.44 173.01 245.19 181.79 229.13 190.46 245.26"/><rect class="cls-4" x="171.49" y="612.87" width="74.54" height="74.54" transform="translate(-398.55 337.98) rotate(-44.99)"/><path d="M376.5,436.41a5.29,5.29,0,1,1,0,10.57H332.22a5.29,5.29,0,0,1-5.29-5.29,5.29,5.29,0,0,1,5.29-5.28Z"/><path class="cls-5" d="M464.13,379.11a7.49,7.49,0,0,0,0,10.6L476.42,402l-12.29,12.3a7.5,7.5,0,1,0,10.6,10.6L487,412.61l12.29,12.29a7.5,7.5,0,1,0,10.6-10.6L497.63,402l12.29-12.29a7.5,7.5,0,1,0-10.6-10.6L487,391.4l-12.3-12.29A7.49,7.49,0,0,0,464.13,379.11Zm76.21-30.42V455.32H433.71V348.69Z"/><path d="M10.16,500.21a11.45,11.45,0,0,0,3.17.45h164a11.1,11.1,0,0,0,3.12-.44v65a47.08,47.08,0,0,1-18.65,37.53l-22,16.67a41.84,41.84,0,0,0,0,69.54l22,16.67a47.08,47.08,0,0,1,18.65,37.53v65a11.1,11.1,0,0,0-3.12-.44h-5.05c0-63.92-43.95-91.5-77-91.5s-77,27.58-77,91.5h-5a11.45,11.45,0,0,0-3.17.45v-65a47.08,47.08,0,0,1,18.65-37.53l22-16.67a41.84,41.84,0,0,0,0-69.54l-22-16.67a47.08,47.08,0,0,1-18.65-37.53Z"/><path d="M376.5,415.5a5.29,5.29,0,0,1,0,10.58H332.22a5.29,5.29,0,0,1,0-10.58Z"/><polygon points="489.21 880.6 496.73 830.7 761.54 830.7 783.05 880.6 489.21 880.6"/><path class="cls-3" d="M95.35,716.24c33,0,77,27.58,77,91.5H18.38C18.38,743.82,62.33,716.24,95.35,716.24Z"/><path class="cls-6" d="M95.35,716.24c33,0,77,27.58,77,91.5H18.38C18.38,743.82,62.33,716.24,95.35,716.24Z"/><path class="cls-3" d="M674,257.76a24.5,24.5,0,1,1-24.5,24.5A24.5,24.5,0,0,1,674,257.76Z"/><path class="cls-3" d="M2,819.06a11.32,11.32,0,0,1,8.16-10.87,11.45,11.45,0,0,1,3.17-.45h164a11.1,11.1,0,0,1,3.12.44,11.33,11.33,0,0,1-3.12,22.22h-164A11.33,11.33,0,0,1,2,819.08Z"/><circle class="cls-3" cx="262.61" cy="730.31" r="18.43"/><path class="cls-4" d="M496.73,830.7l10.52-69.77,12.52-25.25L413.58,685.57,476.8,550.85a92.56,92.56,0,0,1,145.57-29.64,99.63,99.63,0,0,0,50.76,24.17l7.27,1.16a123.25,123.25,0,0,0,55.27-3.63,80.94,80.94,0,0,1,64.51,7.68,64.48,64.48,0,0,1,28.46,75.67L761.54,830.7Z"/><path class="cls-4" d="M317.42,243.08,303,259.67l28.8,25,37.92-37.92-15.52-15.52-23.47,23.46Zm70.25-39.16V310.55H281V203.92Z"/><path d="M376.5,394.6a5.29,5.29,0,1,1,0,10.57H332.22a5.29,5.29,0,1,1,0-10.57Z"/><path class="cls-3" d="M288.49,381.89a21.61,21.61,0,0,1,7.45,2.72c-.75,18-8.44,32.16-17.81,32.16a9.53,9.53,0,0,1-3.37-.62l3.17-26.51a9,9,0,0,1,10-7.83Z"/><polygon class="cls-3" points="433.71 203.92 492.51 203.92 433.71 262.71 433.71 203.92"/><path d="M192.88,408.29c17,8.17,31.44,30.92,31.44,47H136.67c0-16.11,14.48-38.86,31.43-47a17.11,17.11,0,0,0,24.78,0Z"/><path class="cls-3" d="M344.33,508.34c.73,0,1.45,0,2.17.05C345.77,508.39,345.05,508.37,344.33,508.34Z"/><path class="cls-7" d="M235,203.92V310.55H128.37V203.92Zm-67.45,57.84-2.47,18.15,16.55-7.84,16.49,8-2.33-18.16,12.66-13.22-18-3.39-8.67-16.13L173,245.19l-18,3.25Z"/><path class="cls-7" d="M279.16,551.26c-3.21-17.1-6-34.68-8-48.51a195.19,195.19,0,0,1-.65-51.22l4.22-35.38a9.53,9.53,0,0,0,3.37.62c9.37,0,17.06-14.16,17.81-32.16a21.41,21.41,0,0,1,5.1,4.22,21.65,21.65,0,0,1,5.44,14.46c-.08,18.14,0,75.82,0,77.29.38,13.43,16.77,26.89,37.8,27.76.72,0,1.44,0,2.17.05a29.54,29.54,0,0,0,24.55-11.89l16.62-22.75a17.17,17.17,0,0,1,10.23-6.66,17.87,17.87,0,0,0,12.65,30.5,18.2,18.2,0,0,0,4.75-.63l-11.57,34.32a42.92,42.92,0,0,0-1.79,20,43.91,43.91,0,0,0,.91,4.51c2.75,10.59,8.51,34.59,25,99.45l-14.24,30.35,106.19,50.11-38.56,77.74a74.92,74.92,0,0,1-67.52,42.07,78.8,78.8,0,0,1-8.37-.45A75,75,0,0,1,340,798.23S281.25,562.43,279.16,551.26Z"/><path class="cls-7" d="M701.88,405a20.3,20.3,0,0,1,7.3,39.25,115.37,115.37,0,0,1-20.42,4.07c-1.54,16.73-2.23,33.92,7.1,49.05a67.09,67.09,0,0,1-41.3-119.44c22.61,6.84,31.59,18.05,34.65,31.51A20.2,20.2,0,0,1,701.88,405Z"/><path class="cls-3" d="M711.09,166.64A19.73,19.73,0,0,0,725,180.52l10.1,2.74L725,186a19.72,19.72,0,0,0-13.87,13.88L708.36,210l-2.73-10.08A19.72,19.72,0,0,0,691.76,186l-10.1-2.74,10.1-2.74a19.73,19.73,0,0,0,13.87-13.88l2.73-10.08Z"/><path class="cls-3" d="M509.92,379.11a7.49,7.49,0,0,1,0,10.6L497.63,402l12.29,12.3a7.5,7.5,0,1,1-10.6,10.6L487,412.61l-12.3,12.29a7.5,7.5,0,1,1-10.6-10.6L476.42,402l-12.29-12.29a7.5,7.5,0,1,1,10.6-10.6L487,391.4l12.29-12.29a7.48,7.48,0,0,1,10.6,0Z"/><path class="cls-3" d="M128.37,203.92V310.55H235V203.92Zm259.3,106.63V203.92H281V310.55Zm152.67,0V203.92H433.71V310.55Zm0,144.77V348.69H433.71V455.32Zm-305.34,0V348.69H128.37V455.32Zm-54.51,44.9A11.33,11.33,0,0,0,177.37,478H69.47V132.07H599.25V506A92.58,92.58,0,0,0,476.8,550.85l-.19.41H401.94a42.92,42.92,0,0,1,1.79-20l14.12-41.9a17.22,17.22,0,0,0-8.8-21,14,14,0,0,0-1.38-.59V367.69H301v21.14a21.43,21.43,0,0,0-12.55-6.94l-.53-.08a9,9,0,0,0-10,7.83l-7.39,61.89a195.19,195.19,0,0,0,.65,51.22c2,13.83,4.76,31.41,8,48.51H180.49Z"/><path class="cls-8" d="M128.37,203.92V310.55H235V203.92Zm259.3,106.63V203.92H281V310.55Zm152.67,0V203.92H433.71V310.55Zm0,144.77V348.69H433.71V455.32Zm-305.34,0V348.69H128.37V455.32Zm-54.51,44.9A11.33,11.33,0,0,0,177.37,478H69.47V132.07H599.25V506A92.58,92.58,0,0,0,476.8,550.85l-.19.41H401.94a42.92,42.92,0,0,1,1.79-20l14.12-41.9a17.22,17.22,0,0,0-8.8-21,14,14,0,0,0-1.38-.59V367.69H301v21.14a21.43,21.43,0,0,0-12.55-6.94l-.53-.08a9,9,0,0,0-10,7.83l-7.39,61.89a195.19,195.19,0,0,0,.65,51.22c2,13.83,4.76,31.41,8,48.51H180.49Z"/><path class="cls-8" d="M306.43,474.32h80.82l-16.2,22.18a29,29,0,0,1-24.55,11.89c-.72,0-1.44,0-2.17-.05-21-.58-37.42-14.33-37.8-27.76C306.49,479.11,306.46,477,306.43,474.32Z"/><path class="cls-3" d="M180.49,379.34a17.13,17.13,0,1,1-17.12,17.13A17.13,17.13,0,0,1,180.49,379.34Z"/><path class="cls-3" d="M163.37,396.47a17.08,17.08,0,0,0,4.73,11.82c-16.95,8.17-31.43,30.92-31.43,47h-8.3V348.69H235V455.32H224.32c0-16.11-14.49-38.86-31.44-47a17.12,17.12,0,1,0-29.51-11.82Z"/><path class="cls-9" d="M708.36,156.56l-2.73,10.08a19.73,19.73,0,0,1-13.87,13.88l-10.1,2.74,10.1,2.74a19.72,19.72,0,0,1,13.87,13.88L708.36,210l2.73-10.08A19.72,19.72,0,0,1,725,186l10.1-2.74L725,180.52a19.73,19.73,0,0,1-13.87-13.88Z"/><line class="cls-9" x1="279.16" y1="551.26" x2="180.49" y2="551.26"/><polyline class="cls-9" points="69.47 477.99 69.47 132.07 599.25 132.07 599.25 506.04"/><line class="cls-9" x1="476.61" y1="551.26" x2="401.93" y2="551.26"/><rect class="cls-9" x="128.37" y="203.92" width="106.63" height="106.63"/><rect class="cls-9" x="281.04" y="203.92" width="106.63" height="106.63"/><polygon class="cls-9" points="492.51 203.92 540.34 203.92 540.34 310.55 433.71 310.55 433.71 203.92 492.51 203.92"/><polygon class="cls-9" points="136.67 455.32 128.37 455.32 128.37 348.69 235 348.69 235 455.32 136.67 455.32"/><line class="cls-9" x1="387.25" y1="474.32" x2="306.43" y2="474.32"/><path class="cls-9" d="M343.39,27.17a14.21,14.21,0,1,0-9,3.24A14.18,14.18,0,0,0,343.39,27.17Z"/><line class="cls-9" x1="237.4" y1="132.07" x2="325.24" y2="27.1"/><polyline class="cls-9" points="343.39 27.16 343.39 27.17 429.92 132.07"/><rect class="cls-9" x="171.49" y="612.87" width="74.54" height="74.54" transform="translate(-398.58 338.04) rotate(-45)"/><circle class="cls-9" cx="262.61" cy="730.31" r="18.43"/><path class="cls-9" d="M10.16,500.21v65a47.08,47.08,0,0,0,18.65,37.53l22,16.67a41.84,41.84,0,0,1,0,69.54l-22,16.67a47.08,47.08,0,0,0-18.65,37.53v65"/><path class="cls-9" d="M180.49,500.22v65a47.08,47.08,0,0,1-18.65,37.53l-22,16.67a41.84,41.84,0,0,0,0,69.54l22,16.67a47.08,47.08,0,0,1,18.65,37.53v65"/><path class="cls-9" d="M180.49,500.22a11.47,11.47,0,0,1-3.12.44h-164a11.45,11.45,0,0,1-3.17-.45A11.34,11.34,0,0,1,2,489.34v0A11.34,11.34,0,0,1,13.33,478h164a11.33,11.33,0,0,1,3.12,22.23Z"/><path class="cls-9" d="M180.49,808.18a11.1,11.1,0,0,0-3.12-.44h-164a11.45,11.45,0,0,0-3.17.45A11.31,11.31,0,0,0,2,819.06v0A11.33,11.33,0,0,0,13.33,830.4h164a11.33,11.33,0,0,0,3.12-22.22Z"/><path class="cls-9" d="M18.38,807.74c0-63.92,44-91.5,77-91.5s77,27.58,77,91.5"/><path class="cls-9" d="M698.51,282.26A24.5,24.5,0,1,0,674,306.75,24.5,24.5,0,0,0,698.51,282.26Z"/><path class="cls-9" d="M396.14,722.73,476.8,550.85a92.56,92.56,0,0,1,145.57-29.64,99.63,99.63,0,0,0,50.76,24.17l7.27,1.16a123.25,123.25,0,0,0,55.27-3.63,80.94,80.94,0,0,1,64.51,7.68,64.48,64.48,0,0,1,28.46,75.67L761.54,830.7l21.51,49.9"/><line class="cls-9" x1="413.58" y1="685.57" x2="519.77" y2="735.68"/><line class="cls-9" x1="761.54" y1="830.7" x2="496.73" y2="830.7"/><polyline class="cls-9" points="783.05 880.6 489.21 880.6 507.25 760.93"/><path class="cls-9" d="M695.86,497.37h.64a67.09,67.09,0,1,0-67.08-67.09C629.42,467.13,659.11,496.33,695.86,497.37Z"/><path class="cls-9" d="M705.49,445.29a19.76,19.76,0,0,0,3.69-1,20.3,20.3,0,1,0-20-34.81c-3.06-13.46-12-24.67-34.65-31.51"/><path class="cls-9" d="M709.18,444.25a115.37,115.37,0,0,1-20.42,4.07c-1.54,16.73-2.23,33.92,7.1,49.05"/><path class="cls-9" d="M344.33,508.34c.73,0,1.45,0,2.17.05a29,29,0,0,0,24.55-11.89l16.62-22.75a17.17,17.17,0,0,1,20-5.92c.47.18.93.37,1.38.59a17.22,17.22,0,0,1,8.8,21l-14.12,41.9a43.06,43.06,0,0,0-1.79,20,43.91,43.91,0,0,0,.91,4.51c2.75,10.59,8.51,34.59,25,99.45"/><path class="cls-9" d="M346.5,508.39c-.73,0-1.45,0-2.17-.05-21-.87-37.42-14.33-37.8-27.76,0-1.47-.13-59.15,0-77.29a21.52,21.52,0,0,0-18-21.4l-.53-.08a9,9,0,0,0-10,7.83l-7.39,61.89a195.19,195.19,0,0,0,.65,51.22c2,13.83,4.76,31.41,8,48.51,2.09,11.17,4.38,22.13,6.78,31.72L340,798.23A75,75,0,0,0,405.32,855a78.8,78.8,0,0,0,8.37.45,74.92,74.92,0,0,0,67.52-42.07l90.68-182.8"/><path class="cls-9" d="M397.9,467.09a17.87,17.87,0,0,0,12.65,30.5,18.2,18.2,0,0,0,4.75-.63"/><path class="cls-9" d="M274.76,416.15a9.53,9.53,0,0,0,3.37.62c9.37,0,17.06-14.16,17.81-32.16"/><polygon class="cls-9" points="208.45 248.65 195.79 261.87 198.12 280.03 181.63 272.07 165.08 279.91 167.55 261.76 154.99 248.44 173.01 245.19 181.79 229.13 190.46 245.26 208.45 248.65"/><polygon class="cls-9" points="331.84 284.63 303.04 259.67 317.42 243.08 330.77 254.65 354.24 231.19 369.76 246.71 331.84 284.63"/><line class="cls-9" x1="433.71" y1="262.71" x2="492.51" y2="203.92"/><path class="cls-9" d="M192.88,408.29a17.11,17.11,0,1,0-12.39,5.31A17.1,17.1,0,0,0,192.88,408.29Z"/><path class="cls-9" d="M136.67,455.32c0-16.11,14.48-38.86,31.43-47"/><path class="cls-9" d="M224.32,455.32c0-16.11-14.49-38.86-31.44-47"/><path class="cls-9" d="M376.5,405.17H332.22a5.29,5.29,0,1,1,0-10.57H376.5a5.29,5.29,0,1,1,0,10.57Z"/><path class="cls-9" d="M376.5,426.08H332.22a5.29,5.29,0,0,1,0-10.58H376.5a5.29,5.29,0,0,1,0,10.58Z"/><path class="cls-9" d="M376.5,447H332.22a5.29,5.29,0,0,1-5.29-5.29,5.29,5.29,0,0,1,5.29-5.28H376.5a5.29,5.29,0,1,1,0,10.57Z"/><polyline class="cls-9" points="301.04 388.83 301.04 367.69 407.67 367.69 407.67 467.82"/><path class="cls-9" d="M497.63,402l12.29-12.29a7.5,7.5,0,1,0-10.6-10.6L487,391.4l-12.3-12.29a7.5,7.5,0,1,0-10.6,10.6L476.42,402l-12.29,12.3a7.5,7.5,0,1,0,10.6,10.6L487,412.61l12.29,12.29a7.5,7.5,0,1,0,10.6-10.6Z"/><rect class="cls-9" x="433.71" y="348.69" width="106.63" height="106.63"/></g></g></svg>