<svg xmlns="http://www.w3.org/2000/svg" xmlns:xlink="http://www.w3.org/1999/xlink" viewBox="0 0 1005.51 902.57"><defs><style>.cls-1,.cls-2,.cls-8{fill:none;}.cls-2,.cls-8{stroke:#000;stroke-linecap:round;stroke-linejoin:round;}.cls-2{stroke-width:1.5px;}.cls-3{fill:#fff;}.cls-4{fill:#8282d9;}.cls-5{fill:url(#New_Pattern);}.cls-6{fill:url(#New_Pattern_2);}.cls-7{fill:#ffb2e5;}.cls-8{stroke-width:4px;}.cls-9{fill:#d7ccff;}</style><pattern id="New_Pattern" data-name="New Pattern" width="70" height="50" patternTransform="translate(0 30)" patternUnits="userSpaceOnUse" viewBox="0 0 70 50"><rect class="cls-1" width="70" height="50"/><path class="cls-2" d="M8.89,100c-.05-7.08.29-14.17.29-21.25,0-4.32-.37-17.48-.29-28.09"/><path class="cls-2" d="M22.94,99.84c0-1.65.09-3.31.09-5,0-2.48-.21-5-.21-7.45s0-3.83.05-7.28c0-1.44-.06-2.9-.06-4.35,0-3.1.31-4.62.31-7.37,0-1.4-.27-4.94-.27-8.33q0-1.61.09-3.21V50.11"/><path class="cls-2" d="M36.74,99.84c0-9.46.33-18.09.33-27.56,0-3.7-.15-7.46-.15-11.2,0-3.35-.1-7.29-.18-10.75"/><path class="cls-2" d="M50.93,99.75c0-1.24-.07-2.75-.07-4,0-1.92,0-3.86,0-5.79,0-3.87,0-7.66,0-11.51a8.42,8.42,0,0,1-.08-1.22c0-.32.18-6.68.18-8,0-2.2-.21-3.25-.21-5.64,0-1.3.06-2.65.17-3.86,0-2.89,0-5.89,0-9.05"/><path class="cls-2" d="M65,99.71c0-8.34-.55-15.73-.36-24.06.18-8.13.16-17.71.36-25.19"/><path class="cls-2" d="M8.89,50c-.05-7.08.29-14.17.29-21.25,0-4.32-.37-17.48-.29-28.09"/><path class="cls-2" d="M22.94,49.84c0-1.65.09-3.31.09-5,0-2.48-.21-5-.21-7.45s0-3.83.05-7.28c0-1.44-.06-2.9-.06-4.35,0-3.1.31-4.62.31-7.37,0-1.4-.27-4.94-.27-8.33q0-1.6.09-3.21V.11"/><path class="cls-2" d="M36.74,49.84c0-9.46.33-18.09.33-27.56,0-3.7-.15-7.46-.15-11.2,0-3.35-.1-7.29-.18-10.75"/><path class="cls-2" d="M50.93,49.75c0-1.24-.07-2.75-.07-4,0-1.92,0-3.86,0-5.79,0-3.87,0-7.66,0-11.51a8.42,8.42,0,0,1-.08-1.22c0-.32.18-6.68.18-8,0-2.2-.21-3.25-.21-5.64,0-1.3.06-2.65.17-3.86,0-2.89,0-5.89,0-9"/><path class="cls-2" d="M65,49.71c0-8.34-.55-15.73-.36-24.06.18-8.13.16-17.71.36-25.19"/><path class="cls-2" d="M8.89,0c-.05-7.08.29-14.17.29-21.25,0-4.32-.37-17.48-.29-28.09"/><path class="cls-2" d="M22.94-.16c0-1.65.09-3.31.09-5,0-2.48-.21-5-.21-7.45s0-3.83.05-7.28c0-1.44-.06-2.9-.06-4.35,0-3.1.31-4.62.31-7.37,0-1.4-.27-4.94-.27-8.33q0-1.61.09-3.21v-6.71"/><path class="cls-2" d="M36.74-.16c0-9.46.33-18.09.33-27.56,0-3.7-.15-7.46-.15-11.2,0-3.35-.1-7.29-.18-10.75"/><path class="cls-2" d="M50.93-.25c0-1.24-.07-2.75-.07-4,0-1.92,0-3.86,0-5.79,0-3.87,0-7.66,0-11.51a8.42,8.42,0,0,1-.08-1.22c0-.32.18-6.68.18-8,0-2.2-.21-3.25-.21-5.64,0-1.3.06-2.65.17-3.86,0-2.89,0-5.89,0-9.05"/><path class="cls-2" d="M65-.29c0-8.34-.55-15.73-.36-24.06.18-8.13.16-17.71.36-25.19"/></pattern><pattern id="New_Pattern_2" data-name="New Pattern 2" width="40" height="40" patternTransform="translate(-631.22 1137.46)" patternUnits="userSpaceOnUse" viewBox="0 0 40 40"><rect class="cls-1" width="40" height="40"/><path d="M36.18,30a1.9,1.9,0,0,0,1.91,1.91V28.09A1.9,1.9,0,0,0,36.18,30Z"/><path d="M40,33.82a1.9,1.9,0,0,0,1.91-1.91H38.09A1.9,1.9,0,0,0,40,33.82Z"/><path d="M40,26.18a1.9,1.9,0,0,0-1.91,1.91h3.82A1.9,1.9,0,0,0,40,26.18Z"/><path d="M16.18,40a1.9,1.9,0,0,0,1.91,1.91V38.09A1.9,1.9,0,0,0,16.18,40Z"/><path d="M21.91,38.09v3.82a1.91,1.91,0,0,0,0-3.82Z"/><path d="M20,36.18a1.9,1.9,0,0,0-1.91,1.91h3.82A1.9,1.9,0,0,0,20,36.18Z"/><path d="M1.91,28.09v3.82a1.91,1.91,0,0,0,0-3.82Z"/><path d="M36.18,10a1.9,1.9,0,0,0,1.91,1.91V8.09A1.9,1.9,0,0,0,36.18,10Z"/><path d="M40,13.82a1.9,1.9,0,0,0,1.91-1.91H38.09A1.9,1.9,0,0,0,40,13.82Z"/><path d="M40,6.18a1.9,1.9,0,0,0-1.91,1.91h3.82A1.9,1.9,0,0,0,40,6.18Z"/><path d="M18.79,16.37a1.92,1.92,0,0,0-1.21,2.42l3.63-1.21A1.92,1.92,0,0,0,18.79,16.37Z"/><path d="M22.42,21.21l-3.63,1.21a1.91,1.91,0,0,0,3.63-1.21Z"/><path d="M16.37,21.21a1.92,1.92,0,0,0,2.42,1.21l-1.21-3.63A1.92,1.92,0,0,0,16.37,21.21Z"/><path d="M23.63,18.79a1.92,1.92,0,0,0-2.42-1.21l1.21,3.63A1.92,1.92,0,0,0,23.63,18.79Z"/><path d="M1.91,8.09v3.82a1.91,1.91,0,0,0,0-3.82Z"/><path d="M20,3.82a1.9,1.9,0,0,0,1.91-1.91H18.09A1.9,1.9,0,0,0,20,3.82Z"/><path d="M0,33.82a1.9,1.9,0,0,0,1.91-1.91H-1.91A1.9,1.9,0,0,0,0,33.82Z"/><path d="M0,26.18a1.9,1.9,0,0,0-1.91,1.91H1.91A1.9,1.9,0,0,0,0,26.18Z"/><path d="M0,13.82a1.9,1.9,0,0,0,1.91-1.91H-1.91A1.9,1.9,0,0,0,0,13.82Z"/><path d="M0,6.18A1.9,1.9,0,0,0-1.91,8.09H1.91A1.9,1.9,0,0,0,0,6.18Z"/><path d="M16.18,0a1.9,1.9,0,0,0,1.91,1.91V-1.91A1.9,1.9,0,0,0,16.18,0Z"/><path d="M21.91-1.91V1.91A1.9,1.9,0,0,0,23.82,0,1.9,1.9,0,0,0,21.91-1.91Z"/></pattern></defs><g id="Layer_2" data-name="Layer 2"><g id="illustrations"><path class="cls-3" d="M1003.06,369.5a20.3,20.3,0,0,1-14.79,23.87c-13.43,3.51-28.21,8.31-51.17,23.22.44-.38.87-.77,1.29-1.18,0,0,0,0,0,0,.34-.33.68-.65,1-1,.56-.56,1.1-1.15,1.63-1.73.32-.34.62-.68.91-1a.35.35,0,0,0,.1-.11c.25-.3.51-.6.74-.89a51.27,51.27,0,0,0,3.4-4.75,48.47,48.47,0,0,0,7.46-25.9c0-1.57-.08-3.11-.22-4.65,18.21-5.18,31-6.49,48.86-9.28h0s0,.09,0,.12Z"/><path class="cls-3" d="M1002.33,366.06h0c-17.82,2.79-30.65,4.1-48.86,9.28a48.47,48.47,0,0,0-12.81-28.51c17.69-2.21,33.55-.92,51.24-1.47A45.94,45.94,0,0,1,1002.33,366.06Z"/><path class="cls-3" d="M991.89,345.36c-17.69.55-33.55-.74-51.24,1.47a48.53,48.53,0,0,0-34.25-15.55c16.85-3.19,35.78-2.68,54.22-1.42A45.76,45.76,0,0,1,991.89,345.36Z"/><path class="cls-3" d="M953.46,375.34c.14,1.54.22,3.08.22,4.65a48.47,48.47,0,0,1-7.46,25.9,56.92,56.92,0,0,1-3.4,4.75c-.24.3-.49.6-.74.89a.35.35,0,0,1-.1.11c-.29.35-.59.69-.91,1-.53.58-1.07,1.17-1.63,1.73-.34.34-.68.66-1,1,0,0,0,0,0,0-.42.41-.85.8-1.29,1.18a48.66,48.66,0,0,1-17.7,10h-.07l-.22.08c-.87.22-1.75.46-2.6.7l-.07,0c-8.35,2.34-16.08,4.74-23,7V393.52A72.31,72.31,0,0,0,873.21,343c-1.28-1.34-2.6-2.62-4-3.84h0c1.88-13.8.85-27.76-3.15-43.7a18.18,18.18,0,0,1,35.28-8.81,156.7,156.7,0,0,1,5,44.62h0a47.75,47.75,0,0,1,34.25,15.55A48.47,48.47,0,0,1,953.46,375.34Z"/><path class="cls-3" d="M942.08,411.53c.25-.29.51-.59.74-.89C942.59,410.93,942.33,411.23,942.08,411.53Z"/><path class="cls-3" d="M941.07,412.67c.32-.34.62-.68.91-1C941.69,412,941.39,412.33,941.07,412.67Z"/><path class="cls-3" d="M938.42,415.39c.35-.33.68-.65,1-1C939.1,414.74,938.77,415.06,938.42,415.39Z"/><path class="cls-3" d="M937.1,416.59c.44-.38.87-.77,1.29-1.18C938,415.82,937.54,416.21,937.1,416.59Z"/><path class="cls-3" d="M919.33,426.55a1,1,0,0,1-.22.08Z"/><path class="cls-3" d="M915.92,750.07a34.18,34.18,0,0,1-4.18,32.33l-3.64,5.05L764.43,683.22V604.41a3.1,3.1,0,0,1,4.87-2.55l3,2h0c23,15.55,41.69,25.33,64.39,34.24,1.75.69,3.54,1.38,5.34,2.05a21.6,21.6,0,0,0,25-7.38l10.81-14.58A29.62,29.62,0,0,1,904,606.31c3.69.31,7.82.53,12.11.57C888.77,662.78,905.09,722.09,915.92,750.07ZM821.7,662a18.15,18.15,0,1,0-18.15,18.15A18.15,18.15,0,0,0,821.7,662Z"/><path class="cls-3" d="M893.48,444.91a72.42,72.42,0,0,1,7.21,63.6l-7.21,20.28Z"/><path class="cls-3" d="M842.59,167.53c19.53,9.81,30.39,33,16.51,50-31.25,38.15-28.51,40.25-34,49L742.75,398.91h0l-24,38.56c-24.09,38.76-71.08,45.69-105,26.68-17.65-9.91-31.74-26.85-37.19-50l-17.92-76.09c35.16-14.26,96.38-13.59,96.38-13.59l5.44,23.12c30.41-49.43,47.66-76.73,57.81-92.87,13.47-21.4,14.46-23.2,17.1-31a.54.54,0,0,0,0-.1A37.45,37.45,0,0,0,736,200a99,99,0,0,0-10.15-21.32A18.18,18.18,0,1,1,757,159.85,139.09,139.09,0,0,1,770.27,188c6.56-5.07,14.18-11,33.16-20.43A43,43,0,0,1,842.59,167.53Z"/><path class="cls-3" d="M823.56,862.93a32.11,32.11,0,0,1,2.6,27.39l-3.7,10.25-158.89-101,25.94-77a7,7,0,0,1,8.23-4.56,6.79,6.79,0,0,1,2.61,1.23l47.44,36.1a29.5,29.5,0,0,0,36-.25c10.82-8.39,24.79-17.33,35.62-17.63a15,15,0,0,1,7.42,1.52C790,791.53,810.52,840.94,823.56,862.93Z"/><path d="M823.45,726.05l-4,11.36h0c-10.83.3-24.8,9.24-35.62,17.63a29.5,29.5,0,0,1-36,.25l-47.44-36.1a6.79,6.79,0,0,0-2.61-1.23L762.4,535.85l-186.84,2.27,196.75-72.57V603.91l-3-2a3.1,3.1,0,0,0-4.87,2.55v78.81Z"/><circle class="cls-4" cx="803.55" cy="662" r="18.15"/><path class="cls-3" d="M718.08,105.35c11.78,0,21.33,7.61,21.33,17s-9.55,17-21.33,17a24.19,24.19,0,0,1-15.27-5.14A47.37,47.37,0,1,1,638.1,66.52h0a24.57,24.57,0,0,0,4.61,2.07L698.5,87c-1.5,9.58,3.49,15.71,14.08,19A26.79,26.79,0,0,1,718.08,105.35Z"/><path class="cls-3" d="M732.26,620.73,697.74,718a7,7,0,0,0-8.23,4.56l-25.94,77,1.13.72H96a53.9,53.9,0,1,1,13.82-106c38.15,9.91,36.77,10.08,40.1,10.08a14.5,14.5,0,0,0,14.3-12.1l8.13-48.46a88.78,88.78,0,0,1,21.88-45.26,301.28,301.28,0,0,0,200.37,75.89H605.69V537.75l43.76-.53a120.18,120.18,0,0,1-2.68,31c-2.47,9.09-5.45,22.55-5.45,35.16,0,24.66,11.33,33.84,27,33.84C692.83,637.25,702,622.27,732.26,620.73Z"/><path class="cls-5" d="M732.26,620.73,697.74,718a7,7,0,0,0-8.23,4.56l-25.94,77,1.13.72H96a53.9,53.9,0,1,1,13.82-106c38.15,9.91,36.77,10.08,40.1,10.08a14.5,14.5,0,0,0,14.3-12.1l8.13-48.46a88.78,88.78,0,0,1,21.88-45.26,301.28,301.28,0,0,0,200.37,75.89H605.69V537.75l43.76-.53a120.18,120.18,0,0,1-2.68,31c-2.47,9.09-5.45,22.55-5.45,35.16,0,24.66,11.33,33.84,27,33.84C692.83,637.25,702,622.27,732.26,620.73Z"/><path class="cls-4" d="M558.67,338.06l8,34.1h0c-15,5.64-32.86,12.46-51,19.73-15.88,6.37-32,13.06-46.83,19.62-11.16,4.92-21.54,9.78-30.47,14.33-2.84-41.18-2.06-85.49,8.1-128.94A295.65,295.65,0,0,1,461,251.23q3.91-9.48,8.63-18.8a263.67,263.67,0,0,1,49.68-68.2h0q8.43-8.4,17.95-16.43a50.49,50.49,0,0,1,18.7-10,51.51,51.51,0,0,1,49.68,12.41,49.71,49.71,0,0,1,9.7,12.89c17.89,45.16,48.08,19.92,77.35,38.21a38.86,38.86,0,0,1,7.53,6.36c9.93,13.33,15.19,30.06,18,47.09-10.15,16.14-27.4,43.44-57.81,92.87l-5.44-23.12S593.83,323.8,558.67,338.06Z"/><path d="M712.58,105.35v.58C702,102.69,697,96.56,698.5,87l-55.79-18.4a24.57,24.57,0,0,1-4.61-2.07,24.91,24.91,0,1,1,33.38-8.11A47.37,47.37,0,0,1,712.58,105.35Z"/><path d="M605.69,537.75V674.41H556V543.33a96.85,96.85,0,0,0,18.62-4.87l.94-.34Z"/><path d="M605.69,69.48v80.68h0A51.51,51.51,0,0,0,556,137.76V69.48Z"/><path class="cls-3" d="M556,543.34V674.41H394.61a301.28,301.28,0,0,1-200.37-75.89A89.94,89.94,0,0,1,290.74,574c60.76,21,59,21.66,65.2,21.66A20.65,20.65,0,0,0,376,579.92l16.34-66.07a118.36,118.36,0,0,1,7.41-21.19H454c1.46,2.76,3.06,5.43,4.77,8a98.73,98.73,0,0,0,60.6,41.56,97.3,97.3,0,0,0,36.65,1.1Z"/><path class="cls-3" d="M556,69.48v68.28a50.49,50.49,0,0,0-18.7,10q-9.54,8-17.95,16.43h0a263.67,263.67,0,0,0-49.68,68.2q-4.73,9.31-8.63,18.8H394.61a120.72,120.72,0,0,0,0,241.43h5.14a118.36,118.36,0,0,0-7.41,21.19L376,579.92a20.65,20.65,0,0,1-20.06,15.69c-6.18,0-4.44-.7-65.2-21.66a89.94,89.94,0,0,0-96.5,24.57A302.89,302.89,0,0,1,100,303.28a297.84,297.84,0,0,1,16.42-50.15A302.64,302.64,0,0,1,394.61,69.48Z"/><path class="cls-6" d="M556,69.48v68.28a50.49,50.49,0,0,0-18.7,10q-9.54,8-17.95,16.43h0a263.67,263.67,0,0,0-49.68,68.2q-4.73,9.31-8.63,18.8H394.61a120.72,120.72,0,0,0,0,241.43h5.14a118.36,118.36,0,0,0-7.41,21.19L376,579.92a20.65,20.65,0,0,1-20.06,15.69c-6.18,0-4.44-.7-65.2-21.66a89.94,89.94,0,0,0-96.5,24.57A302.89,302.89,0,0,1,100,303.28a297.84,297.84,0,0,1,16.42-50.15A302.64,302.64,0,0,1,394.61,69.48Z"/><path class="cls-7" d="M873.21,343c-1.28-1.34-2.6-2.62-4-3.84A72.59,72.59,0,0,0,797,324.43l-10.09,3.44-44.16,71h0l-24,38.56c-24.09,38.76-71.08,45.69-105,26.68-17.65-9.91-31.74-26.85-37.19-50l-9.89-42h0c-15,5.64-32.86,12.46-51,19.73-15.88,6.37-32,13.06-46.83,19.62-11.16,4.92-21.54,9.78-30.47,14.33l.36,5c.36,4.66.83,9.2,1.42,13.57a194.78,194.78,0,0,0,5.35,26.42c.46,1.59.91,3.17,1.39,4.7a97.42,97.42,0,0,0,7.1,17.14c1.46,2.76,3.06,5.43,4.77,8a98.73,98.73,0,0,0,60.6,41.56,98.24,98.24,0,0,0,55.27-3.77l197.69-72.91V603.92c23,15.55,41.69,25.33,64.39,34.24,1.75.69,3.54,1.38,5.34,2.05a21.6,21.6,0,0,0,25-7.38l10.81-14.58a29.75,29.75,0,0,1,15.68-10.89V393.52A72.31,72.31,0,0,0,873.21,343Z"/><path class="cls-3" d="M454,492.66h-9.69a120.06,120.06,0,0,1-40.94-7.15,120.36,120.36,0,0,1,36.79-41.11,194.78,194.78,0,0,0,5.35,26.42c.46,1.59.91,3.17,1.39,4.7A97.42,97.42,0,0,0,454,492.66Z"/><path d="M394.61,251.23h49.68a120.72,120.72,0,0,0-40.94,234.28c-1.27,2.33-2.48,4.72-3.6,7.15h-5.14a120.72,120.72,0,0,1,0-241.43Z"/><path d="M444.29,492.66H399.75c1.12-2.43,2.33-4.82,3.6-7.15A120.06,120.06,0,0,0,444.29,492.66Z"/><polyline class="cls-8" points="556 674.41 605.69 674.41 605.69 537.75"/><path class="cls-8" d="M444.29,492.66a120.72,120.72,0,0,1,0-241.43"/><path class="cls-8" d="M461,251.23H394.61a120.72,120.72,0,0,0,0,241.43H454"/><path class="cls-8" d="M556,543.34V674.41H394.61A302.69,302.69,0,0,1,100,303.28a297.84,297.84,0,0,1,16.42-50.15A302.64,302.64,0,0,1,394.61,69.48H556v68.28"/><polyline class="cls-8" points="605.69 150.16 605.69 69.48 556.01 69.48"/><path class="cls-8" d="M458.75,500.67q-2.56-3.87-4.77-8a98.18,98.18,0,0,1-7.1-17.14c-.48-1.53-.93-3.11-1.39-4.7a196.64,196.64,0,0,1-5.35-26.42q-.88-6.57-1.42-13.57l-.36-5"/><path class="cls-8" d="M458.75,500.67c11-1.36,19.91-6.85,19.91-31.55,0-1.52,0-5.21,0-5.72,0-17.69-4.93-34.79-9.82-51.89"/><path class="cls-8" d="M438.35,425.84h0c8.93-4.55,19.31-9.4,30.47-14.33,14.8-6.55,30.94-13.26,46.83-19.62,18.17-7.28,36-14.09,51-19.73"/><path class="cls-8" d="M772.31,603.91h0c23,15.55,41.69,25.34,64.39,34.24,1.75.69,3.54,1.38,5.34,2.05a21.6,21.6,0,0,0,25-7.38l10.81-14.58A29.62,29.62,0,0,1,904,606.31c3.69.31,7.82.53,12.11.57-27.34,55.9-11,115.21-.19,143.19a34.18,34.18,0,0,1-4.18,32.33l-3.64,5.05-84.65-61.4"/><path class="cls-8" d="M819.41,737.42a15,15,0,0,1,7.42,1.52c-36.88,52.59-16.31,102-3.27,124a32.11,32.11,0,0,1,2.6,27.39l-3.7,10.25-158.89-101,25.94-77a7,7,0,0,1,8.23-4.56,6.79,6.79,0,0,1,2.61,1.23l47.44,36.1a29.5,29.5,0,0,0,36-.25C794.61,746.66,808.58,737.74,819.41,737.42Z"/><circle class="cls-8" cx="803.55" cy="662" r="18.15"/><path class="cls-8" d="M805.23,195.2c11.5-9.07,24.88-18.83,37.36-27.67"/><path class="cls-8" d="M828.28,219.21c10.88-11.94,22.5-23.67,33-33.88"/><path class="cls-8" d="M1002.33,366.06s0,.09,0,.12l.71,3.32a20.3,20.3,0,0,1-14.79,23.87c-13.43,3.51-71.83,23.58-94.79,38.49"/><path class="cls-8" d="M940.65,346.83c17.69-2.21,33.55-.92,51.24-1.47a45.94,45.94,0,0,1,10.44,20.7h0c-17.82,2.79-30.65,4.1-48.86,9.28"/><path class="cls-8" d="M869.22,339.18h0c1.88-13.8.85-27.76-3.15-43.7a18.18,18.18,0,0,1,35.28-8.81,156.7,156.7,0,0,1,5,44.62h0c16.85-3.19,35.78-2.68,54.22-1.42a45.76,45.76,0,0,1,31.27,15.5"/><path class="cls-8" d="M786.91,327.87,797,324.43c26.48-9,53.45-1.89,72.22,14.75,1.38,1.23,2.71,2.5,4,3.84a72.31,72.31,0,0,1,20.27,50.5V607.36"/><path class="cls-8" d="M836.7,638.16c-2.09-21.53-2.93-43.22-3.52-64.76,0-2.48.89-58.4.89-83.85,0-65.59,1.39-101.87-26.69-101.87-21.35,0-43.17,4.33-64.63,11.23"/><path class="cls-8" d="M566.7,372.16l-8-34.1c35.16-14.26,96.38-13.59,96.38-13.59l5.44,23.12c30.41-49.43,47.65-76.74,57.81-92.87,13.46-21.4,14.46-23.2,17.1-31a.54.54,0,0,0,0-.1A37.45,37.45,0,0,0,736,200a99,99,0,0,0-10.15-21.32A18.18,18.18,0,1,1,757,159.85,139.09,139.09,0,0,1,770.27,188c6.56-5.07,14.18-11,33.16-20.43a43,43,0,0,1,39.16,0c19.53,9.82,30.39,33,16.51,50-31.25,38.15-28.51,40.25-34,49L742.75,398.91h0l-24,38.56c-24.09,38.76-71.08,45.69-105,26.68"/><path class="cls-8" d="M697.74,718,762.4,535.85l-186.84,2.27,196.75-72.57V603.91l-3-2a3.1,3.1,0,0,0-4.87,2.55v78.81l59,42.83-4,11.36h0"/><path class="cls-8" d="M712.58,105.93a26.79,26.79,0,0,1,5.5-.58c11.78,0,21.33,7.61,21.33,17s-9.55,17-21.33,17a24.19,24.19,0,0,1-15.27-5.14A47.37,47.37,0,1,1,638.1,66.52h0"/><path class="cls-8" d="M438.36,425.84c-2.84-41.18-2.06-85.49,8.1-128.94A295.65,295.65,0,0,1,461,251.23q3.91-9.48,8.63-18.8a263.67,263.67,0,0,1,49.68-68.2h0q8.43-8.4,17.95-16.43a50.63,50.63,0,0,1,18.7-10,51.62,51.62,0,0,1,49.68,12.41,49.88,49.88,0,0,1,9.7,12.89c17.89,45.16,48.08,19.92,77.35,38.21a38.86,38.86,0,0,1,7.53,6.36c9.93,13.33,15.19,30.06,18,47.09"/><path class="cls-8" d="M638.1,66.51a24.91,24.91,0,1,1,33.38-8.11,47.37,47.37,0,0,1,41.1,46.95v.58C702,102.69,697,96.56,698.5,87l-55.79-18.4A24.57,24.57,0,0,1,638.1,66.51Z"/><path class="cls-8" d="M566.69,372.16h0l9.89,42c5.45,23.15,19.54,40.09,37.19,50-26.17,16.15-45.9,28.42-55.14,28.42-36.73,0-42.21-56.9-43-100.68"/><path class="cls-8" d="M575.56,538.12l-.94.34a98.31,98.31,0,0,1-115.87-37.79"/><path class="cls-8" d="M893.48,444.91a72.42,72.42,0,0,1,7.21,63.6l-7.21,20.28"/><path class="cls-8" d="M718,115.44a14.17,14.17,0,0,1,3.38-.43c5.73,0,9.49,4.11,9.49,10.07a14.83,14.83,0,0,1-.14,2.08"/><line class="cls-8" x1="558.67" y1="338.06" x2="540.15" y2="259.43"/><path class="cls-8" d="M649.45,537.22a120.18,120.18,0,0,1-2.68,31c-2.47,9.09-5.45,22.55-5.45,35.16,0,24.66,11.33,33.84,27,33.84,24.48,0,33.65-15,63.91-16.52"/><path class="cls-8" d="M664.7,800.26H96a53.9,53.9,0,1,1,13.82-106c38.15,9.91,36.77,10.08,40.1,10.08a14.5,14.5,0,0,0,14.3-12.1l8.13-48.46a88.78,88.78,0,0,1,21.88-45.26A89.94,89.94,0,0,1,290.74,574c60.76,21,59,21.66,65.2,21.66A20.65,20.65,0,0,0,376,579.92l16.34-66.07a117.58,117.58,0,0,1,7.41-21.19c1.12-2.43,2.33-4.82,3.6-7.15a120.47,120.47,0,0,1,36.79-41.11"/><rect class="cls-7" x="17.31" y="417.69" width="179.11" height="53.73"/><path class="cls-9" d="M209.27,235.92A108.68,108.68,0,1,0,98.6,385.3c3.31.3,6.69.46,10.08.46A108.71,108.71,0,0,0,209.27,235.92ZM74.49,277.1a34.2,34.2,0,1,1,34.19,34.19A34.18,34.18,0,0,1,74.49,277.1Z"/><circle class="cls-8" cx="108.68" cy="277.1" r="34.19" transform="translate(-82.05 48.59) rotate(-18.43)"/><path d="M217.35,277.1a108.6,108.6,0,0,0-57.46-95.88,302.35,302.35,0,0,0-39.81,63.63,34.2,34.2,0,0,1-21.52,64.92,303.16,303.16,0,0,0-6.42,62.17c0,4.22.11,8.42.28,12.6q3.06.46,6.18.76c3.31.3,6.69.46,10.08.46A108.67,108.67,0,0,0,217.35,277.1Z"/><path d="M108.91,471.42h87.51V417.69H95.6A300,300,0,0,0,108.91,471.42Z"/><path class="cls-8" d="M198,75.45l-30.7-8.34a17.74,17.74,0,0,1-12.35-12.3c0-.05-8.33-30.76-8.33-30.76l-8.34,30.69a17.67,17.67,0,0,1-12.35,12.37L95.19,75.45l30.72,8.34a17.67,17.67,0,0,1,12.35,12.37l8.34,30.7s8.32-30.71,8.33-30.77a17.78,17.78,0,0,1,12.35-12.3Z"/><path d="M277,35.65l-18.24-5a10.52,10.52,0,0,1-7.34-7.31l-5-18.28s-4.95,18.22-4.95,18.24a10.52,10.52,0,0,1-7.34,7.35l-18.26,5,18.26,5A10.49,10.49,0,0,1,241.5,48s4.95,18.24,4.95,18.24l5-18.28a10.52,10.52,0,0,1,7.34-7.31Z"/><path class="cls-4" d="M270.88,30.55l-18.25-5a10.54,10.54,0,0,1-7.34-7.31L240.34,0s-5,18.22-5,18.24A10.49,10.49,0,0,1,228,25.59l-18.25,5,18.25,5a10.52,10.52,0,0,1,7.34,7.35s5,18.24,5,18.24l4.95-18.28a10.54,10.54,0,0,1,7.34-7.31Z"/><path class="cls-8" d="M161.89,659.48a30.74,30.74,0,1,1-30.73,30.73A30.73,30.73,0,0,1,161.89,659.48Z"/><rect class="cls-8" x="106.52" y="610.29" width="23.54" height="23.54" transform="translate(-501.86 494.12) rotate(-67.58)"/></g></g></svg>