<svg xmlns="http://www.w3.org/2000/svg" xmlns:xlink="http://www.w3.org/1999/xlink" viewBox="0 0 886.21 943.79"><defs><style>.cls-1,.cls-2,.cls-9{fill:none;}.cls-2,.cls-9{stroke:#000;stroke-linecap:round;stroke-linejoin:round;}.cls-2{stroke-width:1.5px;}.cls-3{fill:#fff;}.cls-4{fill:url(#New_Pattern_2);}.cls-5{fill:#ffb2e5;}.cls-6{fill:#8282d9;}.cls-7{fill:#d7ccff;}.cls-8{fill:url(#New_Pattern);}.cls-9{stroke-width:4px;}</style><pattern id="New_Pattern_2" data-name="New Pattern 2" width="40" height="40" patternTransform="translate(-14.16 -22.94) scale(1.02)" patternUnits="userSpaceOnUse" viewBox="0 0 40 40"><rect class="cls-1" width="40" height="40"/><path d="M36.18,30a1.9,1.9,0,0,0,1.91,1.91V28.09A1.9,1.9,0,0,0,36.18,30Z"/><path d="M40,33.82a1.9,1.9,0,0,0,1.91-1.91H38.09A1.9,1.9,0,0,0,40,33.82Z"/><path d="M40,26.18a1.9,1.9,0,0,0-1.91,1.91h3.82A1.9,1.9,0,0,0,40,26.18Z"/><path d="M16.18,40a1.9,1.9,0,0,0,1.91,1.91V38.09A1.9,1.9,0,0,0,16.18,40Z"/><path d="M21.91,38.09v3.82a1.91,1.91,0,0,0,0-3.82Z"/><path d="M20,36.18a1.9,1.9,0,0,0-1.91,1.91h3.82A1.9,1.9,0,0,0,20,36.18Z"/><path d="M1.91,28.09v3.82a1.91,1.91,0,0,0,0-3.82Z"/><path d="M36.18,10a1.9,1.9,0,0,0,1.91,1.91V8.09A1.9,1.9,0,0,0,36.18,10Z"/><path d="M40,13.82a1.9,1.9,0,0,0,1.91-1.91H38.09A1.9,1.9,0,0,0,40,13.82Z"/><path d="M40,6.18a1.9,1.9,0,0,0-1.91,1.91h3.82A1.9,1.9,0,0,0,40,6.18Z"/><path d="M18.79,16.37a1.92,1.92,0,0,0-1.21,2.42l3.63-1.21A1.92,1.92,0,0,0,18.79,16.37Z"/><path d="M22.42,21.21l-3.63,1.21a1.91,1.91,0,0,0,3.63-1.21Z"/><path d="M16.37,21.21a1.92,1.92,0,0,0,2.42,1.21l-1.21-3.63A1.92,1.92,0,0,0,16.37,21.21Z"/><path d="M23.63,18.79a1.92,1.92,0,0,0-2.42-1.21l1.21,3.63A1.92,1.92,0,0,0,23.63,18.79Z"/><path d="M1.91,8.09v3.82a1.91,1.91,0,0,0,0-3.82Z"/><path d="M20,3.82a1.9,1.9,0,0,0,1.91-1.91H18.09A1.9,1.9,0,0,0,20,3.82Z"/><path d="M0,33.82a1.9,1.9,0,0,0,1.91-1.91H-1.91A1.9,1.9,0,0,0,0,33.82Z"/><path d="M0,26.18a1.9,1.9,0,0,0-1.91,1.91H1.91A1.9,1.9,0,0,0,0,26.18Z"/><path d="M0,13.82a1.9,1.9,0,0,0,1.91-1.91H-1.91A1.9,1.9,0,0,0,0,13.82Z"/><path d="M0,6.18A1.9,1.9,0,0,0-1.91,8.09H1.91A1.9,1.9,0,0,0,0,6.18Z"/><path d="M16.18,0a1.9,1.9,0,0,0,1.91,1.91V-1.91A1.9,1.9,0,0,0,16.18,0Z"/><path d="M21.91-1.91V1.91A1.9,1.9,0,0,0,23.82,0,1.9,1.9,0,0,0,21.91-1.91Z"/></pattern><pattern id="New_Pattern" data-name="New Pattern" width="70" height="50" patternTransform="translate(-65.15 -33.13) scale(1.02)" patternUnits="userSpaceOnUse" viewBox="0 0 70 50"><rect class="cls-1" width="70" height="50"/><path class="cls-2" d="M8.89,100c-.05-7.08.29-14.17.29-21.25,0-4.32-.37-17.48-.29-28.09"/><path class="cls-2" d="M22.94,99.84c0-1.65.09-3.31.09-5,0-2.48-.21-5-.21-7.45s0-3.83.05-7.28c0-1.44-.06-2.9-.06-4.35,0-3.1.31-4.62.31-7.37,0-1.4-.27-4.94-.27-8.33q0-1.61.09-3.21V50.11"/><path class="cls-2" d="M36.74,99.84c0-9.46.33-18.09.33-27.56,0-3.7-.15-7.46-.15-11.2,0-3.35-.1-7.29-.18-10.75"/><path class="cls-2" d="M50.93,99.75c0-1.24-.07-2.75-.07-4,0-1.92,0-3.86,0-5.79,0-3.87,0-7.66,0-11.51a8.42,8.42,0,0,1-.08-1.22c0-.32.18-6.68.18-8,0-2.2-.21-3.25-.21-5.64,0-1.3.06-2.65.17-3.86,0-2.89,0-5.89,0-9.05"/><path class="cls-2" d="M65,99.71c0-8.34-.55-15.73-.36-24.06.18-8.13.16-17.71.36-25.19"/><path class="cls-2" d="M8.89,50c-.05-7.08.29-14.17.29-21.25,0-4.32-.37-17.48-.29-28.09"/><path class="cls-2" d="M22.94,49.84c0-1.65.09-3.31.09-5,0-2.48-.21-5-.21-7.45s0-3.83.05-7.28c0-1.44-.06-2.9-.06-4.35,0-3.1.31-4.62.31-7.37,0-1.4-.27-4.94-.27-8.33q0-1.6.09-3.21V.11"/><path class="cls-2" d="M36.74,49.84c0-9.46.33-18.09.33-27.56,0-3.7-.15-7.46-.15-11.2,0-3.35-.1-7.29-.18-10.75"/><path class="cls-2" d="M50.93,49.75c0-1.24-.07-2.75-.07-4,0-1.92,0-3.86,0-5.79,0-3.87,0-7.66,0-11.51a8.42,8.42,0,0,1-.08-1.22c0-.32.18-6.68.18-8,0-2.2-.21-3.25-.21-5.64,0-1.3.06-2.65.17-3.86,0-2.89,0-5.89,0-9"/><path class="cls-2" d="M65,49.71c0-8.34-.55-15.73-.36-24.06.18-8.13.16-17.71.36-25.19"/><path class="cls-2" d="M8.89,0c-.05-7.08.29-14.17.29-21.25,0-4.32-.37-17.48-.29-28.09"/><path class="cls-2" d="M22.94-.16c0-1.65.09-3.31.09-5,0-2.48-.21-5-.21-7.45s0-3.83.05-7.28c0-1.44-.06-2.9-.06-4.35,0-3.1.31-4.62.31-7.37,0-1.4-.27-4.94-.27-8.33q0-1.61.09-3.21v-6.71"/><path class="cls-2" d="M36.74-.16c0-9.46.33-18.09.33-27.56,0-3.7-.15-7.46-.15-11.2,0-3.35-.1-7.29-.18-10.75"/><path class="cls-2" d="M50.93-.25c0-1.24-.07-2.75-.07-4,0-1.92,0-3.86,0-5.79,0-3.87,0-7.66,0-11.51a8.42,8.42,0,0,1-.08-1.22c0-.32.18-6.68.18-8,0-2.2-.21-3.25-.21-5.64,0-1.3.06-2.65.17-3.86,0-2.89,0-5.89,0-9.05"/><path class="cls-2" d="M65-.29c0-8.34-.55-15.73-.36-24.06.18-8.13.16-17.71.36-25.19"/></pattern></defs><g id="Layer_2" data-name="Layer 2"><g id="illustrations"><path class="cls-3" d="M884.21,162V384.77H636.1V162ZM827.12,248.7l-27.45-27.38-50,50.13-29.08-27.17L693.2,271.74l57.41,53.66Z"/><path class="cls-4" d="M884.21,162V384.77H636.1V162ZM827.12,248.7l-27.45-27.38-50,50.13-29.08-27.17L693.2,271.74l57.41,53.66Z"/><path class="cls-5" d="M832.05,607.57V829.91H640.64A69.08,69.08,0,0,0,584,781.79V607.12h248.1Zm-47.89,80.48-27.45-27.38-50,50.14-29.07-27.18L650.24,711.1l57.4,53.66Z"/><path class="cls-3" d="M832.05,384.77V607.12H584V384.77ZM784.16,466.7l-27.45-27.38-50,50.13-29.07-27.17-27.39,27.46,57.4,53.67Z"/><polygon class="cls-6" points="799.67 221.32 827.12 248.7 750.61 325.4 693.2 271.74 720.59 244.28 749.66 271.45 799.67 221.32"/><polygon class="cls-7" points="756.71 439.32 784.16 466.7 707.64 543.4 650.24 489.74 677.63 462.28 706.7 489.45 756.71 439.32"/><polygon points="756.71 660.67 784.16 688.05 707.64 764.76 650.24 711.1 677.63 683.63 706.7 710.8 756.71 660.67"/><path class="cls-6" d="M643.67,850.2H505.59a69,69,0,0,1,69-69,68.28,68.28,0,0,1,9.32.63,69,69,0,0,1,59.72,68.41Z"/><path class="cls-3" d="M584,627.13V781.79a68.28,68.28,0,0,0-9.32-.63,69.07,69.07,0,0,0-66,48.75H249.79c14.65-31.71,27.57-57.22,63.66-57.22l4.71,0c56.17,0,28.08-65.49,80.13-65.49,15.93,0,32.13,7,48,7,65.83,0,10.91-86.9,85.11-86.9,11.87,0,23.83,2.4,35.36,2.4A54.14,54.14,0,0,0,584,627.13Z"/><path class="cls-8" d="M584,627.13V781.79a68.28,68.28,0,0,0-9.32-.63,69.07,69.07,0,0,0-66,48.75H249.79c14.65-31.71,27.57-57.22,63.66-57.22l4.71,0c56.17,0,28.08-65.49,80.13-65.49,15.93,0,32.13,7,48,7,65.83,0,10.91-86.9,85.11-86.9,11.87,0,23.83,2.4,35.36,2.4A54.14,54.14,0,0,0,584,627.13Z"/><line class="cls-9" x1="583.95" y1="607.57" x2="583.95" y2="781.79"/><line class="cls-9" x1="832.05" y1="607.12" x2="583.95" y2="607.12"/><polyline class="cls-9" points="640.64 829.91 832.05 829.91 832.05 607.57"/><polyline class="cls-9" points="832.05 607.57 832.05 384.77 583.95 384.77 583.95 607.57"/><polyline class="cls-9" points="636.11 384.77 636.11 161.96 884.21 161.96 884.21 384.77 832.05 384.77"/><polygon class="cls-9" points="693.2 271.74 720.59 244.28 749.66 271.45 799.67 221.32 827.12 248.7 750.61 325.4 693.2 271.74"/><polygon class="cls-9" points="650.24 489.74 677.63 462.28 706.7 489.45 756.71 439.32 784.16 466.7 707.64 543.4 650.24 489.74"/><polygon class="cls-9" points="650.24 711.1 677.63 683.63 706.7 710.8 756.71 660.67 784.16 688.05 707.64 764.76 650.24 711.1"/><path class="cls-9" d="M508.62,829.91a69,69,0,0,0-3,20.29H643.67A69,69,0,0,0,584,781.79a68.28,68.28,0,0,0-9.32-.63A69,69,0,0,0,508.62,829.91Z"/><path class="cls-9" d="M508.62,829.91H249.79c14.65-31.71,27.57-57.22,63.66-57.22l4.71,0c56.17,0,28.08-65.49,80.13-65.49,15.93,0,32.13,7,48,7,65.83,0,10.91-86.9,85.11-86.9,11.87,0,23.83,2.4,35.36,2.4A54.14,54.14,0,0,0,584,627.13"/><path class="cls-6" d="M650.46,591.47l11.88,7.45a13.44,13.44,0,0,1-14.28,22.78l-10.81-6.77a12.84,12.84,0,0,1-13.55,21.82l-151.13-93a107.22,107.22,0,0,1-40.83-48.34L414.49,455,492,423.65l16.63,39a24,24,0,0,0,9.14,10.82l60.49,38.87a19,19,0,0,0,15,2.43c12.47-3.18,26.5-8.06,32.39-10.3a11.18,11.18,0,0,1,13.83,4.89,10.89,10.89,0,0,1-4.82,14.94c-3.76,1.84-12.42,6.15-18.48,12.66l48.13,33.6c9.31,6.49,3.64,17.34,3.76,16.39A12.53,12.53,0,0,1,650.46,591.47Z"/><path class="cls-3" d="M567,269.21l-7.55,2.05a14.72,14.72,0,0,0-10.36,10.37l-2,7.54-2-7.54a14.72,14.72,0,0,0-10.37-10.37l-7.54-2.05,7.54-2A14.73,14.73,0,0,0,545,256.78l2-7.53,2,7.53a14.73,14.73,0,0,0,10.36,10.38Z"/><path class="cls-3" d="M553.32,177.74l-13.87,3.76a27.08,27.08,0,0,0-19.07,19.07l-3.75,13.86-3.76-13.86a27.07,27.07,0,0,0-19.05-19.07l-13.89-3.76L493.82,174a27.1,27.1,0,0,0,19.05-19.08L516.63,141l3.75,13.85A27.11,27.11,0,0,0,539.45,174Z"/><path class="cls-5" d="M380.46,302.13A41.36,41.36,0,0,1,391.72,295a41.78,41.78,0,0,1,54.82,22L492,423.65,414.49,455l-20.31-47.63L382.3,463.6H219.74l25.14-98.14H157V281.9h74.64l13.81,10.85,9-10.74a41.59,41.59,0,0,1,28,13.73l0,0a69.71,69.71,0,0,0,52,23.2A73.42,73.42,0,0,0,380.46,302.13Z"/><path class="cls-3" d="M479.24,915.05a15.53,15.53,0,0,1,10.5,17.83L488,941.79H327l7.61-45.06h55.94A59.2,59.2,0,0,0,423.05,887l21.49-14.11C440.28,898.12,463.59,910,479.24,915.05Z"/><path d="M469.93,674.13a52.22,52.22,0,0,1,3.28,28.76l-28.67,170L423.05,887a59.2,59.2,0,0,1-32.52,9.74H334.59l29.84-177a68.2,68.2,0,0,0-4.28-37.51L305.32,550.48,276,665A84.56,84.56,0,0,1,194,728.62H72c-9.85-10.65-25-22.16-25-49V624.15H170.44a10.49,10.49,0,0,0,10.18-7.89L219.74,463.6H382.3Z"/><path class="cls-3" d="M231.65,281.9,122.94,196.49v-45.9a36.6,36.6,0,0,0,27.15-29.74l22.77-7.95s1.84,17.25,16.41,18.38a9.55,9.55,0,0,0,10.11-7.58l31.09,24.42L353.14,2l80,67.16L334.4,186.79c-16,0-34.83,6.32-34.83,29.79a16.65,16.65,0,1,0-15,29.54l-39.14,46.63Z"/><path d="M386.36,183.91a13.76,13.76,0,0,1-3.61,19.53l-4.05,2.68a21.41,21.41,0,0,1-11.77,3.53H331.3L299.57,231V216.58c0-23.47,18.85-29.75,34.83-29.79a62.48,62.48,0,0,1,10.75.91,21.62,21.62,0,0,0,14.94-2.7l8-4.83a13.76,13.76,0,0,1,18.3,3.74Z"/><path class="cls-6" d="M299.57,227v4l31.73-21.36h33A39.1,39.1,0,1,1,296.81,246a16.66,16.66,0,0,1-12.21.12,16.65,16.65,0,1,1,15-29.54Z"/><path class="cls-6" d="M177.46,90.29a10.73,10.73,0,0,1,11.9,6.22l9.4,21.37a9.41,9.41,0,0,1,.62,5.82,9.55,9.55,0,0,1-10.11,7.58c-14.57-1.13-16.41-18.38-16.41-18.38l-22.77,7.95a36.6,36.6,0,0,1-27.15,29.74V281.9H157v83.56H101.24a61.87,61.87,0,0,1-61.87-61.88V169.82A77.9,77.9,0,0,1,90.5,96.66l56.34-20.6a10.73,10.73,0,0,1,13.51,5.76l.55,1.23L163,82.3a10.72,10.72,0,0,1,13.51,5.76Z"/><path class="cls-3" d="M114.37,497.06l-11.72,3.18a22.87,22.87,0,0,0-16.11,16.12l-3.16,11.7-3.18-11.7a22.85,22.85,0,0,0-16.1-16.12l-11.73-3.18,11.73-3.18a22.89,22.89,0,0,0,16.1-16.12l3.18-11.7,3.16,11.7a22.9,22.9,0,0,0,16.11,16.12Z"/><path class="cls-3" d="M47.06,679.64c0,26.82,15.1,38.33,25,49-19.62,0-29.65,15.15-38.35,27.64-9.78,14-8.08,20.83-31.66,20.83V624.15H47.06Z"/><path class="cls-9" d="M249.52,347.35l-68.9,268.91a10.49,10.49,0,0,1-10.18,7.89H2V722"/><line class="cls-9" x1="394.18" y1="407.36" x2="403.49" y2="363.34"/><path class="cls-9" d="M444.54,872.88l28.67-170a52.22,52.22,0,0,0-3.28-28.76L382.3,463.6l11.88-56.23"/><path class="cls-9" d="M394.18,407.36h0l37.56,88.08a107.22,107.22,0,0,0,40.83,48.34l151.13,93a12.84,12.84,0,0,0,13.55-21.82"/><path class="cls-9" d="M282.41,295.77a69.71,69.71,0,0,0,52,23.2,73.42,73.42,0,0,0,46-16.84"/><path class="cls-9" d="M244.88,365.46H101.24a61.87,61.87,0,0,1-61.87-61.88V169.82A77.9,77.9,0,0,1,90.5,96.66l56.34-20.6a10.73,10.73,0,0,1,13.51,5.76l.55,1.23"/><path class="cls-9" d="M116.45,99.32,163,82.3a10.72,10.72,0,0,1,13.51,5.76l1,2.23"/><path class="cls-9" d="M282.48,295.78l0,0a41.59,41.59,0,0,0-28-13.73"/><path class="cls-9" d="M231.66,281.9H122.94V150.59a36.6,36.6,0,0,0,27.15-29.74l22.77-7.95s1.84,17.25,16.41,18.38a9.55,9.55,0,0,0,10.11-7.58,9.41,9.41,0,0,0-.62-5.82l-9.4-21.37a10.74,10.74,0,0,0-11.9-6.22,11.7,11.7,0,0,0-1.61.45l-42.52,15.55"/><polyline class="cls-9" points="199.38 123.7 230.47 148.12 353.14 2 433.15 69.16 334.4 186.79"/><polyline class="cls-9" points="284.6 246.12 245.46 292.75 122.94 196.49"/><path class="cls-9" d="M299.57,216.58a16.64,16.64,0,0,0-25.66,14,16.64,16.64,0,0,0,16.66,16.65,16.41,16.41,0,0,0,6.24-1.22,39.1,39.1,0,1,0,67.48-36.35"/><path class="cls-9" d="M299.57,216.58V231l31.73-21.36h35.63a21.41,21.41,0,0,0,11.77-3.53l4.05-2.68a13.76,13.76,0,0,0-14.69-23.27l-8,4.83a21.62,21.62,0,0,1-14.94,2.7,62.48,62.48,0,0,0-10.75-.91C318.42,186.84,299.57,193.11,299.57,216.58Z"/><path class="cls-9" d="M283.71,227c0-5,13.85-7.79,15.86,0"/><line class="cls-9" x1="382.3" y1="463.6" x2="219.74" y2="463.6"/><line class="cls-9" x1="645.64" y1="588.45" x2="616.43" y2="570.14"/><path class="cls-9" d="M600.62,592l47.44,29.74a13.44,13.44,0,0,0,14.28-22.78l-11.88-7.45"/><path class="cls-9" d="M380.4,302.18l.06-.05A41.36,41.36,0,0,1,391.72,295a41.78,41.78,0,0,1,54.82,22l62.07,145.58a24,24,0,0,0,9.14,10.82l60.49,38.87a19,19,0,0,0,15,2.43c12.47-3.18,26.5-8.06,32.39-10.3a11.18,11.18,0,0,1,13.83,4.89,10.89,10.89,0,0,1-4.82,14.94c-3.76,1.84-12.42,6.15-18.48,12.66l48.13,33.6c9.31,6.49,3.64,17.34,3.76,16.39a12.53,12.53,0,0,1-17.59,4.5l-4.82-3"/><path class="cls-9" d="M72,728.62H194A84.56,84.56,0,0,0,276,665l29.36-114.54,54.83,131.75a68.2,68.2,0,0,1,4.28,37.51L327,941.79H488l1.77-8.91a15.53,15.53,0,0,0-10.5-17.83c-15.65-5.07-39-16.93-34.7-42.17L423.05,887a59.2,59.2,0,0,1-32.52,9.74H334.59"/><path class="cls-9" d="M2,722v55.06c23.58,0,21.88-6.81,31.66-20.83,8.7-12.49,18.73-27.64,38.35-27.64-9.85-10.65-25-22.16-25-49V624.15"/><line class="cls-9" x1="414.49" y1="455" x2="491.98" y2="423.65"/><line class="cls-9" x1="157.01" y1="281.9" x2="157.01" y2="365.46"/><path class="cls-9" d="M516.63,141l-3.76,13.85A27.1,27.1,0,0,1,493.82,174l-13.89,3.77,13.89,3.76a27.07,27.07,0,0,1,19.05,19.07l3.76,13.86,3.75-13.86a27.08,27.08,0,0,1,19.07-19.07l13.87-3.76L539.45,174a27.11,27.11,0,0,1-19.07-19.08Z"/><path class="cls-9" d="M83.38,466.06l-3.18,11.7a22.89,22.89,0,0,1-16.1,16.12l-11.73,3.18,11.73,3.18a22.85,22.85,0,0,1,16.1,16.12l3.18,11.7,3.16-11.7a22.87,22.87,0,0,1,16.11-16.12l11.72-3.18-11.72-3.18a22.9,22.9,0,0,1-16.11-16.12Z"/><path class="cls-9" d="M547,249.25l-2,7.53a14.73,14.73,0,0,1-10.37,10.38l-7.54,2,7.54,2.05A14.72,14.72,0,0,1,545,281.63l2,7.54,2-7.54a14.72,14.72,0,0,1,10.36-10.37l7.55-2.05-7.55-2a14.73,14.73,0,0,1-10.36-10.38Z"/></g></g></svg>