<svg xmlns="http://www.w3.org/2000/svg" xmlns:xlink="http://www.w3.org/1999/xlink" viewBox="0 0 926.79 924.52"><defs><style>.cls-1,.cls-7{fill:none;}.cls-2{fill:#ffb2e5;}.cls-3{fill:#fff;}.cls-4{fill:#8282d9;}.cls-5{fill:#d7ccff;}.cls-6{fill:url(#New_Pattern_2);}.cls-7{stroke:#000;stroke-linecap:round;stroke-linejoin:round;stroke-width:4px;}</style><pattern id="New_Pattern_2" data-name="New Pattern 2" width="40" height="40" patternTransform="translate(0 -30)" patternUnits="userSpaceOnUse" viewBox="0 0 40 40"><rect class="cls-1" width="40" height="40"/><path d="M36.18,30a1.9,1.9,0,0,0,1.91,1.91V28.09A1.9,1.9,0,0,0,36.18,30Z"/><path d="M40,33.82a1.9,1.9,0,0,0,1.91-1.91H38.09A1.9,1.9,0,0,0,40,33.82Z"/><path d="M40,26.18a1.9,1.9,0,0,0-1.91,1.91h3.82A1.9,1.9,0,0,0,40,26.18Z"/><path d="M16.18,40a1.9,1.9,0,0,0,1.91,1.91V38.09A1.9,1.9,0,0,0,16.18,40Z"/><path d="M21.91,38.09v3.82a1.91,1.91,0,0,0,0-3.82Z"/><path d="M20,36.18a1.9,1.9,0,0,0-1.91,1.91h3.82A1.9,1.9,0,0,0,20,36.18Z"/><path d="M1.91,28.09v3.82a1.91,1.91,0,0,0,0-3.82Z"/><path d="M36.18,10a1.9,1.9,0,0,0,1.91,1.91V8.09A1.9,1.9,0,0,0,36.18,10Z"/><path d="M40,13.82a1.9,1.9,0,0,0,1.91-1.91H38.09A1.9,1.9,0,0,0,40,13.82Z"/><path d="M40,6.18a1.9,1.9,0,0,0-1.91,1.91h3.82A1.9,1.9,0,0,0,40,6.18Z"/><path d="M18.79,16.37a1.92,1.92,0,0,0-1.21,2.42l3.63-1.21A1.92,1.92,0,0,0,18.79,16.37Z"/><path d="M22.42,21.21l-3.63,1.21a1.91,1.91,0,0,0,3.63-1.21Z"/><path d="M16.37,21.21a1.92,1.92,0,0,0,2.42,1.21l-1.21-3.63A1.92,1.92,0,0,0,16.37,21.21Z"/><path d="M23.63,18.79a1.92,1.92,0,0,0-2.42-1.21l1.21,3.63A1.92,1.92,0,0,0,23.63,18.79Z"/><path d="M1.91,8.09v3.82a1.91,1.91,0,0,0,0-3.82Z"/><path d="M20,3.82a1.9,1.9,0,0,0,1.91-1.91H18.09A1.9,1.9,0,0,0,20,3.82Z"/><path d="M0,33.82a1.9,1.9,0,0,0,1.91-1.91H-1.91A1.9,1.9,0,0,0,0,33.82Z"/><path d="M0,26.18a1.9,1.9,0,0,0-1.91,1.91H1.91A1.9,1.9,0,0,0,0,26.18Z"/><path d="M0,13.82a1.9,1.9,0,0,0,1.91-1.91H-1.91A1.9,1.9,0,0,0,0,13.82Z"/><path d="M0,6.18A1.9,1.9,0,0,0-1.91,8.09H1.91A1.9,1.9,0,0,0,0,6.18Z"/><path d="M16.18,0a1.9,1.9,0,0,0,1.91,1.91V-1.91A1.9,1.9,0,0,0,16.18,0Z"/><path d="M21.91-1.91V1.91A1.9,1.9,0,0,0,23.82,0,1.9,1.9,0,0,0,21.91-1.91Z"/></pattern></defs><g id="Layer_2" data-name="Layer 2"><g id="illustrations"><path class="cls-2" d="M871.67,412.26a53.12,53.12,0,0,1,0,106.24h-.45l18.29-18.57-77.19-14.27,5.87,32.84H748.63a53.12,53.12,0,1,1,0-106.24Z"/><polygon class="cls-3" points="909.96 558.07 884.11 583.92 845.16 544.98 826.35 564.09 812.32 485.66 889.51 499.93 870.81 518.92 909.96 558.07"/><path class="cls-3" d="M897.58,307.08l-19.08,5.18a37.2,37.2,0,0,0-26.19,26.2l-5.14,19-5.15-19a37.21,37.21,0,0,0-26.19-26.2l-19.06-5.18,19.06-5.17A37.31,37.31,0,0,0,842,275.7l5.15-19,5.14,19a37.3,37.3,0,0,0,26.19,26.21Z"/><path class="cls-3" d="M740.19,731.82l-11.91,3.23a23.26,23.26,0,0,0-16.36,16.36l-3.2,11.88-3.22-11.88a23.26,23.26,0,0,0-16.36-16.36l-11.9-3.23,11.9-3.23a23.32,23.32,0,0,0,16.36-16.37l3.22-11.88,3.2,11.88a23.32,23.32,0,0,0,16.36,16.37Z"/><path class="cls-4" d="M119.55,374.22a23.6,23.6,0,0,0-21.49-13.79h-26V266.11H219.92c-1.45,13.39-2.38,26.71-3,39.73h-47.8V521.53H415.57V305.84H367.76c-.6-13-1.53-26.34-3-39.73H736.71V413.6a53.14,53.14,0,0,0,0,103.56v76.21A24.59,24.59,0,0,1,712.12,618h-63V592a23.63,23.63,0,0,0-13.8-21.51,22.9,22.9,0,0,0-9.41-2.05h-.58A23.46,23.46,0,0,0,602.12,592V575a23.6,23.6,0,0,0-15.64-22.25,22.65,22.65,0,0,0-7.58-1.31h-.58A23.45,23.45,0,0,0,555.11,575v17a23.6,23.6,0,0,0-14.2-21.68,22.65,22.65,0,0,0-9-1.88h-.58A23.46,23.46,0,0,0,508.1,592v26H96.65a24.59,24.59,0,0,1-24.59-24.59V501.46h26a23.46,23.46,0,0,0,23.55-23.21v-.58a22.81,22.81,0,0,0-1.87-9h0a23.59,23.59,0,0,0-21.67-14.2h17a23.46,23.46,0,0,0,23.55-23.21v-.58a22.56,22.56,0,0,0-1.32-7.6,23.56,23.56,0,0,0-22.23-15.62h-17a23.46,23.46,0,0,0,23.55-23.21v-.58A22.57,22.57,0,0,0,119.55,374.22Zm512.06-9.42a16.92,16.92,0,0,0-12-28.89H601.81a16.93,16.93,0,1,0,0,33.85h17.83A16.85,16.85,0,0,0,631.61,364.8Zm0,58.38a16.93,16.93,0,0,0-12-28.9h-45a16.93,16.93,0,0,0,0,33.86h45A16.85,16.85,0,0,0,631.61,423.18ZM552.72,364.8a16.92,16.92,0,0,0-12-28.89H471.23a16.93,16.93,0,1,0,0,33.85h69.52A16.83,16.83,0,0,0,552.72,364.8Zm0,116.76a16.93,16.93,0,0,0-12-28.9H471.23a16.93,16.93,0,1,0,0,33.86h69.52A16.83,16.83,0,0,0,552.72,481.56ZM525,423.18a16.93,16.93,0,0,0-12-28.9H471.23a16.93,16.93,0,1,0,0,33.86h41.82A16.83,16.83,0,0,0,525,423.18Z"/><path class="cls-3" d="M736.71,222.78v43.33H364.78c-2.65-24.71-7-49.67-14.17-73.5H706.55A30.16,30.16,0,0,1,736.71,222.78ZM692.14,232a10.37,10.37,0,1,0-10.37,10.37A10.38,10.38,0,0,0,692.14,232Zm-39.95,0a10.37,10.37,0,1,0-10.37,10.37A10.37,10.37,0,0,0,652.19,232Zm-39.94,0a10.37,10.37,0,1,0-10.37,10.37A10.37,10.37,0,0,0,612.25,232Z"/><circle class="cls-2" cx="681.77" cy="231.99" r="10.37"/><path class="cls-3" d="M649.12,618h27c0,67.69-95.23,87.67-142.3,54.06-15.45-11-25.71-27.84-25.71-50.63V598.56a21.73,21.73,0,0,0,32.81-28.28A23.6,23.6,0,0,1,555.11,592v-6.5a22.77,22.77,0,0,0,31.37-32.75A23.6,23.6,0,0,1,602.12,575v23.33a21.73,21.73,0,0,0,33.2-27.84A23.63,23.63,0,0,1,649.12,592Z"/><circle class="cls-4" cx="641.82" cy="231.99" r="10.37"/><path class="cls-2" d="M335.32,152.92a204,204,0,0,0-19.63-32.69l-1.14-1.53c23.5-.88,44.7,3.8,56.67,10.87a129.19,129.19,0,0,0,130.33,0,76.78,76.78,0,0,1,80.37,1.84,253.66,253.66,0,0,1,65.22,61.2H350.61A266.46,266.46,0,0,0,335.32,152.92Z"/><path class="cls-3" d="M635.32,570.45a21.73,21.73,0,0,1-33.2,27.84V592a23.46,23.46,0,0,1,23.21-23.55h.58A22.9,22.9,0,0,1,635.32,570.45Z"/><path class="cls-3" d="M636.57,352.83a16.93,16.93,0,0,1-16.93,16.93H601.81a16.93,16.93,0,0,1,0-33.85h17.83A16.93,16.93,0,0,1,636.57,352.83Z"/><path class="cls-5" d="M636.57,411.21a16.93,16.93,0,0,1-16.93,16.93h-45a16.93,16.93,0,0,1,0-33.86h45A16.93,16.93,0,0,1,636.57,411.21Z"/><circle cx="601.88" cy="231.99" r="10.37"/><path class="cls-3" d="M586.48,552.71a22.76,22.76,0,0,1-31.37,32.75V575a23.45,23.45,0,0,1,23.21-23.56h.58A22.65,22.65,0,0,1,586.48,552.71Z"/><path class="cls-5" d="M557.68,352.83a16.93,16.93,0,0,1-16.93,16.93H471.23a16.93,16.93,0,0,1,0-33.85h69.52A16.93,16.93,0,0,1,557.68,352.83Z"/><path class="cls-5" d="M557.68,469.59a16.93,16.93,0,0,1-16.93,16.93H471.23a16.93,16.93,0,0,1,0-33.86h69.52A16.93,16.93,0,0,1,557.68,469.59Z"/><path class="cls-3" d="M540.91,570.28a21.73,21.73,0,0,1-32.81,28.28V592a23.46,23.46,0,0,1,23.21-23.55h.58A22.65,22.65,0,0,1,540.91,570.28Z"/><path class="cls-3" d="M533.81,672,499.53,798.94a57.2,57.2,0,0,0-46.28,40.53h-120L393,618H508.1v3.43C508.1,644.18,518.36,661,533.81,672Z"/><path class="cls-3" d="M530,411.21a16.93,16.93,0,0,1-16.93,16.93H471.23a16.93,16.93,0,0,1,0-33.86h41.82A16.93,16.93,0,0,1,530,411.21Z"/><path d="M492.86,823.63c-11.07,41,33.71,52.57,31.28,98.89H310.78l22.43-83h120a57.2,57.2,0,0,1,46.28-40.53Z"/><path d="M505.21,60.56c0,.69,0,1.39,0,2.07-13.18-6.85-26.79-22.2-26.79-35.16C463.55,43,440.7,49.52,408.62,55.18c0-15.56-14.7-20.09-14.7-20.09A58.56,58.56,0,0,1,505.21,60.56Z"/><path class="cls-3" d="M505.17,62.63A58.56,58.56,0,0,1,389.85,74.81a21,21,0,0,1-3.75.33,20.78,20.78,0,1,1,7.82-40s14.7,4.53,14.7,20.09C440.7,49.52,463.55,43,478.38,27.47,478.38,40.43,492,55.78,505.17,62.63Z"/><path class="cls-2" d="M415.57,520.3v1.23H169.14V520.3a140,140,0,0,1,57.2-57.59,68,68,0,0,1,34-44,32.48,32.48,0,0,1,6.05-24.43h52a32.26,32.26,0,0,1,6.44,19.4,33.36,33.36,0,0,1-.38,5,68,68,0,0,1,34,44A140,140,0,0,1,415.57,520.3Z"/><path d="M415.57,394.28v126a140,140,0,0,0-57.21-57.59,68,68,0,0,0-34-44,33.36,33.36,0,0,0,.38-5,32.26,32.26,0,0,0-6.44-19.4Z"/><path class="cls-3" d="M415.57,368.38v25.9H368.71c0-17.37.26-37.19,0-58.37C383.13,335.91,403.06,351.83,415.57,368.38Z"/><path d="M415.57,305.84v62.54c-12.51-16.55-32.44-32.47-46.91-32.47-.15-9.77-.42-19.83-.9-30.07Z"/><path class="cls-3" d="M393,618l-22.16,82.17H280.29c-3.35-21.24-19.42-34.69-40.54-35V618Z"/><path class="cls-3" d="M368.66,335.91c.31,21.18,0,41,0,58.37H216c0-17.37-.26-37.19,0-58.37.15-9.77.42-19.83.9-30.07.6-13,1.53-26.34,3-39.73,2.65-24.71,7-49.67,14.17-73.5a266.46,266.46,0,0,1,15.29-39.69h85.94a266.46,266.46,0,0,1,15.29,39.69c7.15,23.83,11.52,48.79,14.17,73.5,1.45,13.39,2.38,26.71,3,39.73C368.24,316.08,368.51,326.14,368.66,335.91ZM332.4,245.77a40.05,40.05,0,1,0-40,40.06A40,40,0,0,0,332.4,245.77Z"/><path class="cls-6" d="M368.66,335.91c.31,21.18,0,41,0,58.37H216c0-17.37-.26-37.19,0-58.37.15-9.77.42-19.83.9-30.07.6-13,1.53-26.34,3-39.73,2.65-24.71,7-49.67,14.17-73.5a266.46,266.46,0,0,1,15.29-39.69h85.94a266.46,266.46,0,0,1,15.29,39.69c7.15,23.83,11.52,48.79,14.17,73.5,1.45,13.39,2.38,26.71,3,39.73C368.24,316.08,368.51,326.14,368.66,335.91ZM332.4,245.77a40.05,40.05,0,1,0-40,40.06A40,40,0,0,0,332.4,245.77Z"/><path class="cls-3" d="M335.32,152.92H249.38A197.5,197.5,0,0,1,261.63,131l.06-.09a188.26,188.26,0,0,1,30.64-36.59h0a174.21,174.21,0,0,1,22.18,24.41l1.14,1.53A204,204,0,0,1,335.32,152.92Z"/><path d="M292.35,205.72a40.06,40.06,0,1,1-40.05,40.05A40,40,0,0,1,292.35,205.72Z"/><path d="M280.29,700.13h-24.7c-41,.14-52.57,48.31-98.88,58.55V618h83v47.12C260.87,665.44,276.94,678.89,280.29,700.13Z"/><path d="M216,394.28h50.37a32.48,32.48,0,0,0-6.05,24.43,68,68,0,0,0-34,44,140,140,0,0,0-57.2,57.59v-126Z"/><path class="cls-2" d="M249.38,152.92a266.46,266.46,0,0,0-15.29,39.69H206.8c10.31-31.15,31.09-50.55,54.83-61.64A211.73,211.73,0,0,0,249.38,152.92Z"/><path class="cls-3" d="M206.8,192.61h27.29c-7.15,23.83-11.52,48.79-14.17,73.5H72.06V222.78a30.16,30.16,0,0,1,30.16-30.17Z"/><path d="M216.93,305.84h0c-.48,10.24-.75,20.3-.9,30.07-14.46,0-34.4,15.92-46.9,32.47V305.84Z"/><path class="cls-3" d="M216,394.28H169.14v-25.9c12.5-16.55,32.44-32.47,46.9-32.47C215.73,357.09,216,376.91,216,394.28Z"/><path class="cls-3" d="M140.24,108.75l-14,3.8A27.33,27.33,0,0,0,107,131.8l-3.78,14-3.79-14a27.33,27.33,0,0,0-19.23-19.25l-14-3.8,14-3.8A27.4,27.4,0,0,0,99.42,85.7l3.79-14,3.78,14A27.4,27.4,0,0,0,126.22,105Z"/><path class="cls-3" d="M138.61,430.91v.33a23.46,23.46,0,0,1-23.55,23.21H104.55a22.77,22.77,0,0,1,32.74-31.39,22.56,22.56,0,0,1,1.32,7.6Z"/><path class="cls-3" d="M91.73,407.44h23.33a23.56,23.56,0,0,1,22.23,15.62,22.77,22.77,0,0,0-32.74,31.39H98.06a23.59,23.59,0,0,1,21.67,14.2,21.73,21.73,0,0,0-28.27,32.81H68.62c-92.21,0-86.48-168,3.44-168v27h26a23.6,23.6,0,0,1,21.49,13.79,21.74,21.74,0,0,0-27.82,33.22Z"/><path class="cls-3" d="M121.61,477.91v.34a23.46,23.46,0,0,1-23.55,23.21h-6.6a21.73,21.73,0,0,1,28.27-32.81h0a22.81,22.81,0,0,1,1.87,9Z"/><path class="cls-3" d="M121.61,383.9v.33a23.46,23.46,0,0,1-23.55,23.21H91.73a21.74,21.74,0,0,1,27.82-33.22,22.57,22.57,0,0,1,2.06,9.43Z"/><path class="cls-7" d="M72.06,360.35V222.78a30.16,30.16,0,0,1,30.16-30.17H234.09"/><path class="cls-7" d="M350.61,192.61H706.55a30.16,30.16,0,0,1,30.16,30.17V413.6"/><path class="cls-7" d="M736.71,517.16v76.21A24.59,24.59,0,0,1,712.12,618h-63"/><path class="cls-7" d="M508.1,618H96.65a24.59,24.59,0,0,1-24.59-24.59V501.46"/><line class="cls-7" x1="72.06" y1="266.11" x2="219.92" y2="266.11"/><line class="cls-7" x1="364.78" y1="266.11" x2="736.71" y2="266.11"/><path class="cls-7" d="M335.32,152.92a204,204,0,0,0-19.63-32.69l-1.14-1.53a174.21,174.21,0,0,0-22.18-24.41h0a188.26,188.26,0,0,0-30.64,36.59l-.06.09a199.12,199.12,0,0,0-12.25,21.95,267.56,267.56,0,0,0-15.29,39.69c-7.15,23.83-11.51,48.79-14.17,73.5-1.44,13.39-2.37,26.71-3,39.73-.47,10.24-.75,20.3-.9,30.07-.32,21.18,0,41,0,58.37H368.71c0-17.37.27-37.19,0-58.37-.14-9.77-.42-19.83-.9-30.07-.6-13-1.53-26.34-3-39.73-2.66-24.71-7-49.67-14.17-73.5A266.46,266.46,0,0,0,335.32,152.92Z"/><circle class="cls-7" cx="601.88" cy="231.99" r="10.37"/><circle class="cls-7" cx="641.82" cy="231.99" r="10.37"/><circle class="cls-7" cx="681.77" cy="231.99" r="10.37"/><path class="cls-7" d="M647.14,192.61a253.66,253.66,0,0,0-65.22-61.2,76.78,76.78,0,0,0-80.37-1.84,129.19,129.19,0,0,1-130.33,0c-12-7.07-33.17-11.75-56.67-10.87"/><path class="cls-7" d="M261.63,131c-23.74,11.09-44.25,30.58-54.83,61.64-.07.2-.14.39-.2.59"/><path class="cls-7" d="M390.63,43.48a11.76,11.76,0,0,0-15.27,6"/><path class="cls-7" d="M393.92,35.09a20.78,20.78,0,1,0-4.07,39.72A58.56,58.56,0,0,0,505.17,62.63c0-.68,0-1.38,0-2.07A58.56,58.56,0,0,0,393.92,35.09Z"/><path class="cls-7" d="M393.92,35.09s14.7,4.53,14.7,20.09C440.7,49.52,463.55,43,478.38,27.47c0,13,13.61,28.31,26.79,35.16"/><polyline class="cls-7" points="367.76 305.84 415.57 305.84 415.57 521.53 169.14 521.53 169.14 305.84 216.93 305.84"/><path class="cls-7" d="M415.57,520.3a140,140,0,0,0-57.21-57.59,68,68,0,0,0-34-44,33.36,33.36,0,0,0,.38-5,32.26,32.26,0,0,0-6.44-19.4"/><path class="cls-7" d="M266.36,394.28a32.48,32.48,0,0,0-6.05,24.43,68,68,0,0,0-34,44,140,140,0,0,0-57.2,57.59"/><path class="cls-7" d="M216,335.91c-14.46,0-34.4,15.92-46.9,32.47"/><line class="cls-7" x1="169.14" y1="394.28" x2="215.99" y2="394.28"/><path class="cls-7" d="M368.66,335.91c14.47,0,34.4,15.92,46.91,32.47"/><line class="cls-7" x1="415.57" y1="394.28" x2="368.71" y2="394.28"/><path class="cls-7" d="M540.75,369.76H471.23a16.93,16.93,0,0,1,0-33.85h69.52a16.93,16.93,0,0,1,0,33.85Z"/><path class="cls-7" d="M619.64,369.76H601.81a16.93,16.93,0,0,1,0-33.85h17.83a16.93,16.93,0,0,1,0,33.85Z"/><path class="cls-7" d="M513.05,428.14H471.23a16.93,16.93,0,0,1,0-33.86h41.82a16.93,16.93,0,0,1,0,33.86Z"/><path class="cls-7" d="M619.64,428.14h-45a16.93,16.93,0,0,1,0-33.86h45a16.93,16.93,0,0,1,0,33.86Z"/><path class="cls-7" d="M540.75,486.52H471.23a16.93,16.93,0,0,1,0-33.86h69.52a16.93,16.93,0,0,1,0,33.86Z"/><path class="cls-7" d="M98.06,454.45h17a23.46,23.46,0,0,0,23.55-23.21v-.58a22.56,22.56,0,0,0-1.32-7.6,23.6,23.6,0,0,0-22.23-15.62h-17"/><path class="cls-7" d="M68.62,407.44H98.06a23.46,23.46,0,0,0,23.55-23.21v-.58a22.57,22.57,0,0,0-2.06-9.43,23.64,23.64,0,0,0-21.49-13.79H68.62"/><path class="cls-7" d="M119.73,468.65a23.59,23.59,0,0,0-21.67-14.2H68.62"/><path class="cls-7" d="M68.62,501.46H98.06a23.46,23.46,0,0,0,23.55-23.21v-.58a22.81,22.81,0,0,0-1.87-9"/><path class="cls-7" d="M72.06,333.45c-89.92,0-95.65,168-3.44,168"/><path class="cls-7" d="M119.57,374.23h0a21.74,21.74,0,0,0-27.82,33.22"/><path class="cls-7" d="M119.74,468.65h0a21.73,21.73,0,0,0-28.27,32.81"/><path class="cls-7" d="M137.31,423.08l0,0a22.77,22.77,0,0,0-32.74,31.39"/><path class="cls-7" d="M555.11,592V575a23.45,23.45,0,0,1,23.21-23.56h.58a22.65,22.65,0,0,1,7.58,1.31A23.61,23.61,0,0,1,602.12,575v17"/><path class="cls-7" d="M602.12,621.39V592a23.46,23.46,0,0,1,23.21-23.55h.58a22.9,22.9,0,0,1,9.41,2.05A23.63,23.63,0,0,1,649.12,592v29.43"/><path class="cls-7" d="M508.1,621.39V592a23.46,23.46,0,0,1,23.21-23.55h.58a22.65,22.65,0,0,1,9,1.88A23.61,23.61,0,0,1,555.11,592v29.43"/><path class="cls-7" d="M676.11,618c0,67.69-95.23,87.67-142.3,54.06-15.45-11-25.71-27.84-25.71-50.63"/><path class="cls-7" d="M635.32,570.45a21.73,21.73,0,0,1-33.2,27.84"/><path class="cls-7" d="M540.91,570.28a21.73,21.73,0,0,1-32.81,28.28"/><path class="cls-7" d="M586.48,552.71a22.76,22.76,0,0,1-31.37,32.75"/><path class="cls-7" d="M393,618,310.78,922.52H524.14c2.43-46.32-42.35-57.91-31.28-98.89L533.81,672"/><path class="cls-7" d="M333.21,839.47h120a57.2,57.2,0,0,1,46.28-40.53"/><path class="cls-7" d="M156.71,618V758.68c46.31-10.24,57.9-58.41,98.88-58.55H370.88"/><path class="cls-7" d="M239.75,618v47.12c21.12.36,37.19,13.81,40.54,35"/><path class="cls-7" d="M332.4,245.77a40.05,40.05,0,1,0-40,40.06A40,40,0,0,0,332.4,245.77Z"/><line class="cls-7" x1="249.37" y1="152.92" x2="335.33" y2="152.92"/><path class="cls-7" d="M818.19,518.5H748.63a53.12,53.12,0,1,1,0-106.24h123a53.12,53.12,0,0,1,0,106.24h-.45"/><polygon class="cls-7" points="871.22 518.5 889.51 499.93 812.32 485.66 826.35 564.09 845.16 544.98 884.11 583.92 909.96 558.07 870.81 518.92 871.22 518.5"/><path class="cls-7" d="M847.17,256.68l-5.15,19a37.31,37.31,0,0,1-26.19,26.21l-19.06,5.17,19.06,5.18A37.21,37.21,0,0,1,842,338.46l5.15,19,5.14-19a37.2,37.2,0,0,1,26.19-26.2l19.08-5.18-19.08-5.17a37.3,37.3,0,0,1-26.19-26.21Z"/><path class="cls-7" d="M103.21,71.72l-3.79,14A27.4,27.4,0,0,1,80.19,105l-14,3.8,14,3.8A27.33,27.33,0,0,1,99.42,131.8l3.79,14,3.78-14a27.33,27.33,0,0,1,19.23-19.25l14-3.8-14-3.8A27.4,27.4,0,0,1,107,85.7Z"/><path class="cls-7" d="M708.72,700.34l-3.22,11.88a23.32,23.32,0,0,1-16.36,16.37l-11.9,3.23,11.9,3.23a23.26,23.26,0,0,1,16.36,16.36l3.22,11.88,3.2-11.88a23.26,23.26,0,0,1,16.36-16.36l11.91-3.23-11.91-3.23a23.32,23.32,0,0,1-16.36-16.37Z"/><line class="cls-7" x1="93.71" y1="754.87" x2="15.18" y2="754.87"/><line class="cls-7" x1="93.71" y1="721.05" x2="58.87" y2="721.05"/><line class="cls-7" x1="93.71" y1="687.24" x2="75.7" y2="687.24"/></g></g></svg>