<svg xmlns="http://www.w3.org/2000/svg" xmlns:xlink="http://www.w3.org/1999/xlink" viewBox="0 0 806.64 835.94"><defs><style>.cls-1,.cls-3{fill:none;}.cls-2,.cls-8{fill:#ffb2e5;}.cls-3,.cls-8{stroke:#000;stroke-linecap:round;stroke-linejoin:round;stroke-width:4px;}.cls-4{fill:#fff;}.cls-5{fill:url(#New_Pattern_2);}.cls-6{fill:#d7ccff;}.cls-7{fill:#8282d9;}</style><pattern id="New_Pattern_2" data-name="New Pattern 2" width="40" height="40" patternTransform="translate(0 30)" patternUnits="userSpaceOnUse" viewBox="0 0 40 40"><rect class="cls-1" width="40" height="40"/><path d="M36.18,30a1.9,1.9,0,0,0,1.91,1.91V28.09A1.9,1.9,0,0,0,36.18,30Z"/><path d="M40,33.82a1.9,1.9,0,0,0,1.91-1.91H38.09A1.9,1.9,0,0,0,40,33.82Z"/><path d="M40,26.18a1.9,1.9,0,0,0-1.91,1.91h3.82A1.9,1.9,0,0,0,40,26.18Z"/><path d="M16.18,40a1.9,1.9,0,0,0,1.91,1.91V38.09A1.9,1.9,0,0,0,16.18,40Z"/><path d="M21.91,38.09v3.82a1.91,1.91,0,0,0,0-3.82Z"/><path d="M20,36.18a1.9,1.9,0,0,0-1.91,1.91h3.82A1.9,1.9,0,0,0,20,36.18Z"/><path d="M1.91,28.09v3.82a1.91,1.91,0,0,0,0-3.82Z"/><path d="M36.18,10a1.9,1.9,0,0,0,1.91,1.91V8.09A1.9,1.9,0,0,0,36.18,10Z"/><path d="M40,13.82a1.9,1.9,0,0,0,1.91-1.91H38.09A1.9,1.9,0,0,0,40,13.82Z"/><path d="M40,6.18a1.9,1.9,0,0,0-1.91,1.91h3.82A1.9,1.9,0,0,0,40,6.18Z"/><path d="M18.79,16.37a1.92,1.92,0,0,0-1.21,2.42l3.63-1.21A1.92,1.92,0,0,0,18.79,16.37Z"/><path d="M22.42,21.21l-3.63,1.21a1.91,1.91,0,0,0,3.63-1.21Z"/><path d="M16.37,21.21a1.92,1.92,0,0,0,2.42,1.21l-1.21-3.63A1.92,1.92,0,0,0,16.37,21.21Z"/><path d="M23.63,18.79a1.92,1.92,0,0,0-2.42-1.21l1.21,3.63A1.92,1.92,0,0,0,23.63,18.79Z"/><path d="M1.91,8.09v3.82a1.91,1.91,0,0,0,0-3.82Z"/><path d="M20,3.82a1.9,1.9,0,0,0,1.91-1.91H18.09A1.9,1.9,0,0,0,20,3.82Z"/><path d="M0,33.82a1.9,1.9,0,0,0,1.91-1.91H-1.91A1.9,1.9,0,0,0,0,33.82Z"/><path d="M0,26.18a1.9,1.9,0,0,0-1.91,1.91H1.91A1.9,1.9,0,0,0,0,26.18Z"/><path d="M0,13.82a1.9,1.9,0,0,0,1.91-1.91H-1.91A1.9,1.9,0,0,0,0,13.82Z"/><path d="M0,6.18A1.9,1.9,0,0,0-1.91,8.09H1.91A1.9,1.9,0,0,0,0,6.18Z"/><path d="M16.18,0a1.9,1.9,0,0,0,1.91,1.91V-1.91A1.9,1.9,0,0,0,16.18,0Z"/><path d="M21.91-1.91V1.91A1.9,1.9,0,0,0,23.82,0,1.9,1.9,0,0,0,21.91-1.91Z"/></pattern></defs><g id="Layer_2" data-name="Layer 2"><g id="illustrations"><path d="M380,115.9l-27.57,7.51-.12,0a16.28,16.28,0,0,0-11.13,11.1l-.05.13-7.48,27.61-7.49-27.61s0,0,0-.07A16,16,0,0,0,315,123.43l-.1,0-27.6-7.51,27.6-7.5.1,0a16,16,0,0,0,11.15-11.16s0,0,0-.08l7.49-27.6,7.48,27.6a.78.78,0,0,1,.05.14,15.83,15.83,0,0,0,11.13,11.1l.12,0Z"/><path d="M380,115.9l-27.57-7.5-.12,0a15.83,15.83,0,0,1-11.13-11.1.78.78,0,0,0-.05-.14l-7.48-27.6-7.49,27.6s0,0,0,.08A16,16,0,0,1,315,108.38l-.1,0-27.6,7.5,27.6,7.51.1,0a16,16,0,0,1,11.15,11.16s0,0,0,.07l7.49,27.61,7.48-27.61.05-.13a16.28,16.28,0,0,1,11.13-11.1l.12,0Z"/><path class="cls-2" d="M370.24,107.37l-27.58,7.5-.11,0A16.26,16.26,0,0,0,331.42,126a1.21,1.21,0,0,1-.05.14l-7.48,27.6-7.49-27.6s0,0,0-.07a15.93,15.93,0,0,0-11.15-11.16.29.29,0,0,0-.1,0l-27.6-7.5,27.6-7.5a.17.17,0,0,0,.1,0,15.93,15.93,0,0,0,11.15-11.16s0-.05,0-.07L323.89,61l7.48,27.6.05.14a15.8,15.8,0,0,0,11.13,11.09l.11,0Z"/><path class="cls-2" d="M370.24,107.37l-27.58-7.5-.11,0a15.8,15.8,0,0,1-11.13-11.09l-.05-.14L323.89,61l-7.49,27.6s0,0,0,.07a15.93,15.93,0,0,1-11.15,11.16.17.17,0,0,1-.1,0l-27.6,7.5,27.6,7.5a.29.29,0,0,1,.1,0,15.93,15.93,0,0,1,11.15,11.16s0,0,0,.07l7.49,27.6,7.48-27.6a1.21,1.21,0,0,0,.05-.14,16.26,16.26,0,0,1,11.13-11.09l.11,0Z"/><path class="cls-3" d="M269.57,52.43l-12-3.26-.05,0a7,7,0,0,1-4.86-4.83.15.15,0,0,1,0-.06l-3.27-12-3.26,12a0,0,0,0,0,0,0,7,7,0,0,1-4.86,4.86l0,0-12,3.26,12,3.27h0a7,7,0,0,1,4.86,4.87,0,0,0,0,0,0,0l3.26,12,3.27-12a.13.13,0,0,1,0-.06,7,7,0,0,1,4.86-4.84h.05Z"/><polygon points="645.59 687.09 645.59 717.52 637.22 709.15 622.25 724.11 608.57 710.43 623.53 695.46 615.15 687.09 645.59 687.09"/><polyline class="cls-3" points="703.48 724.11 730.53 724.11 730.53 751.17"/><line class="cls-3" x1="730.53" y1="724.11" x2="683.62" y2="771.03"/><path class="cls-4" d="M804.64,285v406l-84.32-84.35a64.55,64.55,0,1,0-93.24,1.21L446,788.88a95.52,95.52,0,0,1-135.08,0l-45.32-45.33a49.78,49.78,0,0,0-70.4,0l-47.86,47.86L2,646.1,43.09,605H257.78V461.08a94.63,94.63,0,0,1,39.75,23.8l45.7,45.71a49.78,49.78,0,0,0,70.4,0L529,415.23,456.6,342.84,430.73,285Z"/><path class="cls-5" d="M804.64,285v406l-84.32-84.35a64.55,64.55,0,1,0-93.24,1.21L446,788.88a95.52,95.52,0,0,1-135.08,0l-45.32-45.33a49.78,49.78,0,0,0-70.4,0l-47.86,47.86L2,646.1,43.09,605H257.78V461.08a94.63,94.63,0,0,1,39.75,23.8l45.7,45.71a49.78,49.78,0,0,0,70.4,0L529,415.23,456.6,342.84,430.73,285Z"/><path d="M737.68,562.53a64.28,64.28,0,0,1-17.36,44l-46-46-47.22,47.23a64.55,64.55,0,1,1,110.6-45.24Z"/><path class="cls-6" d="M674.3,560.54l46,46a64.52,64.52,0,0,1-93.24,1.21Z"/><path class="cls-4" d="M707.08,284.93H643v-.06a24.84,24.84,0,0,1-22.58-14.47L564.4,148.63l41.24-17.78h0c5.42,14,11.11,30.15,17.85,47.62,10,26.07,22.45,55.17,39.81,84.92,11.83,7,16.57,10.62,32.68,10.62a11.09,11.09,0,0,1,11.09,10.86Z"/><path class="cls-2" d="M605.64,130.85,564.4,148.63l5.13,11.15v28.7H492c-5.87-21.19-21.3-50.54-30.46-66.94A21.52,21.52,0,0,1,490.33,92a20,20,0,0,0,15.23,1.68c4.86-1.4,8.9-4.11,13.05-7.09,10.21-7.31,21.17-16.19,46.95-10.9C583.18,79.31,593.79,100.15,605.64,130.85Z"/><path class="cls-4" d="M569.53,159.78l17.36,37.7a123.23,123.23,0,0,1-12.27,3.34c-.33-.39-.66-.78-1-1.16a16.55,16.55,0,0,1-4.09-11Z"/><path class="cls-7" d="M395,406.4a.25.25,0,0,1,0-.09s0,0,0,0l0-.06L343.58,291.31a63,63,0,0,1,57.52-88.64h93.26A55.32,55.32,0,0,0,492,188.48h77.53v.16a16.55,16.55,0,0,0,4.09,11c.34.38.67.77,1,1.16a50.84,50.84,0,0,1,11.82,34.93,51.45,51.45,0,0,1-46.92,49h-.21c-.51,0-1,.07-1.56.1-.29,0-.59,0-.88,0s-.6.1-.9.1H430.73L468,368.41l-41.61,34.8A35.75,35.75,0,0,1,397,410.94c-.09-.22-.18-.42-.28-.62s-.22-.5-.33-.74c0-.07-.07-.15-.1-.23l-.07-.15s0,0,0-.06l-.07-.15h0v0l0-.05v0l-.1-.24-.22-.49a.08.08,0,0,0,0-.05l0,0-.09-.2-.09-.18a0,0,0,0,0,0,0l-.25-.57a1.87,1.87,0,0,1-.12-.27h0a.61.61,0,0,1-.05-.12l-.1-.23A0,0,0,0,1,395,406.4Z"/><path class="cls-4" d="M537.75,284.83l-.32,0h-.56C537.16,284.85,537.46,284.85,537.75,284.83Z"/><path class="cls-4" d="M536,285c.3,0,.6-.09.9-.1-.57,0-1.14.1-1.7.1s-1.08,0-1.61,0Z"/><path class="cls-4" d="M535.17,285h-1.61C534.09,285,534.63,285,535.17,285Z"/><path class="cls-4" d="M526.81,31.38c0,3.15-1.92,6.4-6.19,11.51a12.27,12.27,0,0,0-.68,14.89l.06.07a24.28,24.28,0,0,1-16.43,8.63,21.78,21.78,0,0,1-3.34.1,24.58,24.58,0,0,1-21.75-15.75,24.06,24.06,0,0,1-1.54-7.07,24.41,24.41,0,0,1,31-25c0,.71,0,1.43,0,2.14a61.81,61.81,0,0,0,1.36,12.88c3.72-3.73,7.92-6.55,12.4-6.55C524.4,27.21,526.81,28.3,526.81,31.38Z"/><path d="M476.94,43.76a24.06,24.06,0,0,0,1.54,7.07h0a27.54,27.54,0,0,1-4.06-14.19c0-7.45,3.48-15,8.33-20.24C490.76,7.67,502.62,2,513,2c20.48,0,30.16,16.2,35,31.17a11.71,11.71,0,0,0,9.54,7.94c21.11,3,38.88,16.6,46.69,46.43a11.73,11.73,0,0,0,8.57,8.37c18.75,4.65,34.69,18.61,36.93,39.27v.34c0,15.84-10.65,31-26.28,42.95-6.74-17.47-12.43-33.58-17.85-47.62h0c-11.85-30.7-22.46-51.54-40.08-55.16-25.78-5.29-36.74,3.59-46.95,10.9-5.64-4.38-10.92-10.7-15-20v-.06A24.28,24.28,0,0,0,520,57.85l-.06-.07a12.27,12.27,0,0,1,.68-14.89c4.27-5.11,6.19-8.36,6.19-11.51s-2.41-4.17-5.11-4.17c-4.48,0-8.68,2.82-12.4,6.55a61.81,61.81,0,0,1-1.36-12.88c0-.71,0-1.43,0-2.14a24.41,24.41,0,0,0-31,25Z"/><path d="M398.69,414.79c3.61,8.12,2.27,17.06.33,25.89H294c0-17.05,28.65-25,28.65-40.19V389.9l9.73,11.84A35.75,35.75,0,0,0,360,414.79Z"/><path class="cls-4" d="M398.52,414.43l0,0A.11.11,0,0,1,398.52,414.43Z"/><path class="cls-7" d="M394.9,406.28s0,0,0,0a.25.25,0,0,0,0,.09,0,0,0,0,0,0,0l.1.23a.61.61,0,0,0,.05.12h0a1.87,1.87,0,0,0,.12.27l.25.57a0,0,0,0,1,0,0l.09.18.09.2,0,0a.08.08,0,0,1,0,.05l.22.49.1.24v0s0,0,0,.05h0s0,0,0,0h0a.14.14,0,0,1,0,.06l.07.15.07.15c0,.08.07.16.1.23.11.24.22.48.33.74s.19.4.28.62c0,.06,0,.12.08.19l0,0c.13.28.26.58.4.9l1,2.24a.61.61,0,0,1,0,.12.11.11,0,0,0,0,0l.14.29s0,0,0,0H360a35.75,35.75,0,0,1-27.62-13.05l-9.73-11.84V267.12a64.51,64.51,0,0,1,64.45-64.45h14a63,63,0,0,0-57.52,88.64l51.28,114.91Z"/><path d="M397.47,412.07c-.14-.32-.27-.62-.4-.9l0,0c0-.07-.05-.13-.08-.19a35.75,35.75,0,0,0,29.42-7.73L468,368.41l13.58,30.4-44.8,40s-19.58,17.48-38.1,35.12c-6.15-9.27-2.34-21.16.34-33.25,1.94-8.83,3.28-17.77-.33-25.89,0,0,0,0,0,0l-.14-.29,0,0a.61.61,0,0,0,0-.12Z"/><path class="cls-4" d="M396.17,409.14s0,0,0,.06l-.07-.15Z"/><path class="cls-4" d="M396.1,409l.07.15-.05-.09A.14.14,0,0,0,396.1,409Z"/><path class="cls-4" d="M396.09,409s0,0,0,0Z"/><path class="cls-4" d="M396.05,408.89l0,.05h0S396.06,408.91,396.05,408.89Z"/><path class="cls-4" d="M396,408.87v0Z"/><polygon class="cls-4" points="395.12 406.78 395.12 406.79 395.11 406.78 395.12 406.78"/><path d="M257.78,563.13V605H7.43V399.17H257.78Zm-50.71-62.74,2.9-39-39,2.91,13.88,13.88L142,520.9,105.13,484a6.16,6.16,0,0,0-8.72,0l-43,43a6.17,6.17,0,0,0,8.72,8.72l38.68-38.68L137.69,534a6.14,6.14,0,0,0,8.71,0l47.12-47.13Z"/><path class="cls-4" d="M130.3,106.73A119.06,119.06,0,1,1,11.24,225.79,119.06,119.06,0,0,1,130.3,106.73Zm50.37,139.82q0-12.15-6.47-19.17A37.45,37.45,0,0,0,159,217.25a145.77,145.77,0,0,0-21.54-5.51,90.11,90.11,0,0,1-14.21-3.59c-2.87-1.11-4.31-2.8-4.31-5q0-7,14.53-7t31.13,8.3l11.33-27.3q-13.26-7.5-32.41-9.26V150.76H121v17.4q-19,2.72-29.13,12.77A32.78,32.78,0,0,0,81.69,205q0,12.14,6.39,19.23a36.59,36.59,0,0,0,15,10.22,163.26,163.26,0,0,0,21.54,5.82,93.84,93.84,0,0,1,14.45,3.84c2.92,1.17,4.39,2.93,4.39,5.26,0,2-1.11,3.55-3.35,4.55s-6,1.52-11.18,1.52a70.09,70.09,0,0,1-19-2.79,77.16,77.16,0,0,1-17.87-7.43L79.94,272.73a69.23,69.23,0,0,0,18.12,7.49A107.17,107.17,0,0,0,121,283.9v16.92h22.51V283.1q17.88-3.19,27.54-13.17A32.56,32.56,0,0,0,180.67,246.55Z"/><path class="cls-4" d="M210,461.35l-2.9,39-13.55-13.54L146.4,534a6.14,6.14,0,0,1-8.71,0l-36.92-36.9L62.09,535.76A6.17,6.17,0,0,1,53.37,527l43-43a6.16,6.16,0,0,1,8.72,0L142,520.9l42.77-42.76-13.88-13.88Z"/><path class="cls-7" d="M174.2,227.38q6.47,7,6.47,19.17A32.56,32.56,0,0,1,171,269.93q-9.66,10-27.54,13.17v17.72H121V283.9a107.17,107.17,0,0,1-22.9-3.68,69.23,69.23,0,0,1-18.12-7.49l12.13-27.47a77.16,77.16,0,0,0,17.87,7.43,70.09,70.09,0,0,0,19,2.79q7.83,0,11.18-1.52c2.24-1,3.35-2.52,3.35-4.55,0-2.33-1.47-4.09-4.39-5.26a93.84,93.84,0,0,0-14.45-3.84,163.26,163.26,0,0,1-21.54-5.82,36.59,36.59,0,0,1-15-10.22q-6.39-7.1-6.39-19.23a32.78,32.78,0,0,1,10.14-24.11Q102,170.87,121,168.16v-17.4h22.51v17.08q19.17,1.75,32.41,9.26l-11.33,27.3q-16.44-8.29-31.13-8.3-14.53,0-14.53,7c0,2.23,1.44,3.92,4.31,5a90.11,90.11,0,0,0,14.21,3.59A145.77,145.77,0,0,1,159,217.25,37.45,37.45,0,0,1,174.2,227.38Z"/><path class="cls-3" d="M456.6,342.84,529,415.23,413.63,530.59a49.78,49.78,0,0,1-70.4,0l-45.7-45.71a94.63,94.63,0,0,0-39.75-23.8"/><path class="cls-3" d="M43.09,605,2,646.1,147.31,791.41l47.86-47.86a49.78,49.78,0,0,1,70.4,0l45.32,45.33a95.52,95.52,0,0,0,135.08,0L674.3,560.54,804.64,690.91V285H430.73"/><circle class="cls-3" cx="130.3" cy="225.79" r="119.06"/><polygon class="cls-3" points="257.78 461.08 257.78 605 7.43 605 7.43 399.17 257.78 399.17 257.78 461.08"/><path class="cls-3" d="M539.52,284.72a51.45,51.45,0,0,0,46.92-49,50.84,50.84,0,0,0-11.82-34.93c-.33-.39-.66-.78-1-1.16a16.55,16.55,0,0,1-4.09-11V159.78"/><path class="cls-3" d="M533.56,285c.53,0,1.07,0,1.61,0s1.13-.09,1.7-.1h.56l.32,0"/><line class="cls-3" x1="492" y1="188.48" x2="569.53" y2="188.48"/><path class="cls-3" d="M401.1,202.67h-14a64.51,64.51,0,0,0-64.45,64.45V400.49c0,15.17-28.65,23.14-28.65,40.19H399"/><path class="cls-3" d="M398.69,414.79H360a35.75,35.75,0,0,1-27.62-13.05l-9.73-11.84"/><path class="cls-3" d="M468,368.41l-41.61,34.8A35.75,35.75,0,0,1,397,410.94"/><path class="cls-3" d="M643,284.87a24.84,24.84,0,0,1-22.58-14.47L564.4,148.63l41.24-17.78"/><path class="cls-3" d="M401.1,202.67h93.26A55.32,55.32,0,0,0,492,188.48c-5.88-21.19-21.3-50.54-30.46-66.94A21.52,21.52,0,0,1,490.33,92a20,20,0,0,0,15.23,1.68c4.86-1.4,8.9-4.11,13.05-7.09,10.2-7.32,21.17-16.19,46.95-10.9,17.62,3.62,28.23,24.46,40.08,55.16h0c5.42,14,11.11,30.15,17.85,47.62,10,26.07,22.45,55.17,39.81,84.92,11.83,7,16.57,10.62,32.68,10.62a11.09,11.09,0,0,1,11.09,10.86v.06"/><path class="cls-3" d="M394.9,406.28l0-.06L343.58,291.31a63,63,0,0,1,57.52-88.64"/><path class="cls-3" d="M394.94,406.37l0-.05h0Z"/><path class="cls-3" d="M394.91,406.31s0,0,0,0Z"/><line class="cls-3" x1="395.12" y1="406.79" x2="395.11" y2="406.78"/><path class="cls-3" d="M395.11,406.78h0a.61.61,0,0,1-.05-.12l-.1-.23a0,0,0,0,1,0,0,.25.25,0,0,1,0-.09"/><polygon class="cls-3" points="395.11 406.78 395.12 406.78 395.12 406.79 395.11 406.78"/><path class="cls-3" d="M395.72,408.14a.08.08,0,0,0,0-.05l0,0-.09-.2-.09-.18a0,0,0,0,0,0,0l-.25-.57a1.87,1.87,0,0,1-.12-.27"/><path class="cls-3" d="M395.72,408.14l.22.49"/><path class="cls-3" d="M396.17,409.14l-.05-.09"/><path class="cls-3" d="M396.12,409.05l.07.15"/><path class="cls-3" d="M396.12,409.05a.14.14,0,0,0,0-.06Z"/><path class="cls-3" d="M396.05,408.89l0,.05v0Z"/><path class="cls-3" d="M396.05,408.89v0Z"/><path class="cls-3" d="M396.36,409.58c0-.07-.07-.15-.1-.23l-.07-.15s0,0,0-.06l-.07-.15h0s0,0,0,0h0s0,0,0-.05v0l-.1-.24"/><path class="cls-3" d="M396.36,409.58c.11.24.22.48.33.74"/><path class="cls-3" d="M396.69,410.32c.1.2.19.4.28.62"/><path class="cls-3" d="M397.47,412.07c-.14-.32-.27-.62-.4-.9l0,0c0-.07-.05-.13-.08-.19"/><path class="cls-3" d="M398.54,414.47a.11.11,0,0,1,0,0Z"/><path class="cls-3" d="M539.52,284.72h-.21c-.51,0-1,.07-1.56.1-.29,0-.59,0-.88,0s-.6.1-.9.1H430.73l50.85,113.85-44.8,40s-19.58,17.48-38.1,35.12c-6.15-9.27-2.33-21.16.34-33.25,2-8.83,3.28-17.77-.33-25.89,0,0,0,0,0,0l-.14-.29,0,0a.61.61,0,0,0,0-.12c-.06-.14-.78-1.77-1-2.24"/><path class="cls-3" d="M478.48,50.83a24.06,24.06,0,0,1-1.54-7.07,24.41,24.41,0,0,1,31-25c0,.71,0,1.43,0,2.14a61.81,61.81,0,0,0,1.36,12.88c3.72-3.73,7.92-6.55,12.4-6.55,2.7,0,5.11,1.09,5.11,4.17s-1.92,6.4-6.19,11.51a12.27,12.27,0,0,0-.68,14.89l.06.07a24.55,24.55,0,0,1-16.43,8.63,23.13,23.13,0,0,1-3.34.1A24.58,24.58,0,0,1,478.48,50.83Z"/><path class="cls-3" d="M503.58,66.54c4.11,9.35,9.39,15.67,15,20"/><path class="cls-3" d="M478.47,50.83a27.54,27.54,0,0,1-4.06-14.19c0-7.45,3.48-15,8.33-20.24C490.76,7.67,502.62,2,513,2c20.48,0,30.16,16.2,35,31.17a11.71,11.71,0,0,0,9.54,7.94c21.11,3,38.88,16.6,46.69,46.43a11.73,11.73,0,0,0,8.57,8.37c18.75,4.65,34.69,18.61,36.93,39.27v.34c0,15.84-10.65,31-26.28,42.95"/><path class="cls-3" d="M586.89,197.48a123.23,123.23,0,0,1-12.27,3.34"/><path class="cls-3" d="M171,269.93q-9.66,10-27.54,13.17v17.72H121V283.9a107.17,107.17,0,0,1-22.9-3.68,69.23,69.23,0,0,1-18.12-7.49l12.13-27.47a77.16,77.16,0,0,0,17.87,7.43,70.09,70.09,0,0,0,19,2.79q7.83,0,11.18-1.52c2.24-1,3.35-2.52,3.35-4.55,0-2.33-1.47-4.09-4.39-5.26a93.84,93.84,0,0,0-14.45-3.84,163.26,163.26,0,0,1-21.54-5.82,36.59,36.59,0,0,1-15-10.22q-6.39-7.1-6.39-19.23a32.78,32.78,0,0,1,10.14-24.11Q102,170.87,121,168.16v-17.4h22.51v17.08q19.17,1.75,32.41,9.26l-11.33,27.3q-16.44-8.29-31.13-8.3-14.53,0-14.53,7c0,2.23,1.44,3.92,4.31,5a90.11,90.11,0,0,0,14.21,3.59A145.77,145.77,0,0,1,159,217.25a37.45,37.45,0,0,1,15.25,10.13q6.47,7,6.47,19.17A32.56,32.56,0,0,1,171,269.93Z"/><path class="cls-3" d="M210,461.35l-39,2.91,13.88,13.88L142,520.9,105.13,484a6.16,6.16,0,0,0-8.72,0l-43,43a6.17,6.17,0,0,0,8.72,8.72l38.68-38.68L137.69,534a6.14,6.14,0,0,0,8.71,0l47.12-47.13,13.55,13.54Z"/><path class="cls-3" d="M720.32,606.56a64.52,64.52,0,1,0-47.2,20.53A64.34,64.34,0,0,0,720.32,606.56Z"/><polygon class="cls-2" points="564.4 639.77 564.4 805.06 518.93 759.6 444.59 833.94 370.24 759.6 444.59 685.25 399.12 639.77 564.4 639.77"/><polygon class="cls-8" points="564.4 639.77 399.12 639.77 444.59 685.25 370.24 759.6 444.59 833.94 518.93 759.6 564.4 805.06 564.4 639.77"/></g></g></svg>