<svg xmlns="http://www.w3.org/2000/svg" xmlns:xlink="http://www.w3.org/1999/xlink" viewBox="0 0 1117.4 944.77"><defs><style>.cls-1,.cls-2,.cls-9{fill:none;}.cls-2,.cls-9{stroke:#000;stroke-linecap:round;stroke-linejoin:round;}.cls-2{stroke-width:1.5px;}.cls-3{fill:url(#New_Pattern);}.cls-4{fill:url(#New_Pattern_2);}.cls-5{fill:#fff;}.cls-6{fill:#8282d9;}.cls-7{fill:#ffb2e5;}.cls-8{fill:#d7ccff;}.cls-9{stroke-width:4px;}</style><pattern id="New_Pattern" data-name="New Pattern" width="70" height="50" patternTransform="translate(-3.99 10.4) scale(1.02)" patternUnits="userSpaceOnUse" viewBox="0 0 70 50"><rect class="cls-1" width="70" height="50"/><path class="cls-2" d="M8.89,100c-.05-7.08.29-14.17.29-21.25,0-4.32-.37-17.48-.29-28.09"/><path class="cls-2" d="M22.94,99.84c0-1.65.09-3.31.09-5,0-2.48-.21-5-.21-7.45s0-3.83.05-7.28c0-1.44-.06-2.9-.06-4.35,0-3.1.31-4.62.31-7.37,0-1.4-.27-4.94-.27-8.33q0-1.61.09-3.21V50.11"/><path class="cls-2" d="M36.74,99.84c0-9.46.33-18.09.33-27.56,0-3.7-.15-7.46-.15-11.2,0-3.35-.1-7.29-.18-10.75"/><path class="cls-2" d="M50.93,99.75c0-1.24-.07-2.75-.07-4,0-1.92,0-3.86,0-5.79,0-3.87,0-7.66,0-11.51a8.42,8.42,0,0,1-.08-1.22c0-.32.18-6.68.18-8,0-2.2-.21-3.25-.21-5.64,0-1.3.06-2.65.17-3.86,0-2.89,0-5.89,0-9.05"/><path class="cls-2" d="M65,99.71c0-8.34-.55-15.73-.36-24.06.18-8.13.16-17.71.36-25.19"/><path class="cls-2" d="M8.89,50c-.05-7.08.29-14.17.29-21.25,0-4.32-.37-17.48-.29-28.09"/><path class="cls-2" d="M22.94,49.84c0-1.65.09-3.31.09-5,0-2.48-.21-5-.21-7.45s0-3.83.05-7.28c0-1.44-.06-2.9-.06-4.35,0-3.1.31-4.62.31-7.37,0-1.4-.27-4.94-.27-8.33q0-1.6.09-3.21V.11"/><path class="cls-2" d="M36.74,49.84c0-9.46.33-18.09.33-27.56,0-3.7-.15-7.46-.15-11.2,0-3.35-.1-7.29-.18-10.75"/><path class="cls-2" d="M50.93,49.75c0-1.24-.07-2.75-.07-4,0-1.92,0-3.86,0-5.79,0-3.87,0-7.66,0-11.51a8.42,8.42,0,0,1-.08-1.22c0-.32.18-6.68.18-8,0-2.2-.21-3.25-.21-5.64,0-1.3.06-2.65.17-3.86,0-2.89,0-5.89,0-9"/><path class="cls-2" d="M65,49.71c0-8.34-.55-15.73-.36-24.06.18-8.13.16-17.71.36-25.19"/><path class="cls-2" d="M8.89,0c-.05-7.08.29-14.17.29-21.25,0-4.32-.37-17.48-.29-28.09"/><path class="cls-2" d="M22.94-.16c0-1.65.09-3.31.09-5,0-2.48-.21-5-.21-7.45s0-3.83.05-7.28c0-1.44-.06-2.9-.06-4.35,0-3.1.31-4.62.31-7.37,0-1.4-.27-4.94-.27-8.33q0-1.61.09-3.21v-6.71"/><path class="cls-2" d="M36.74-.16c0-9.46.33-18.09.33-27.56,0-3.7-.15-7.46-.15-11.2,0-3.35-.1-7.29-.18-10.75"/><path class="cls-2" d="M50.93-.25c0-1.24-.07-2.75-.07-4,0-1.92,0-3.86,0-5.79,0-3.87,0-7.66,0-11.51a8.42,8.42,0,0,1-.08-1.22c0-.32.18-6.68.18-8,0-2.2-.21-3.25-.21-5.64,0-1.3.06-2.65.17-3.86,0-2.89,0-5.89,0-9.05"/><path class="cls-2" d="M65-.29c0-8.34-.55-15.73-.36-24.06.18-8.13.16-17.71.36-25.19"/></pattern><pattern id="New_Pattern_2" data-name="New Pattern 2" width="40" height="40" patternTransform="translate(-3.99 -10.1) scale(1.02)" patternUnits="userSpaceOnUse" viewBox="0 0 40 40"><rect class="cls-1" width="40" height="40"/><path d="M36.18,30a1.9,1.9,0,0,0,1.91,1.91V28.09A1.9,1.9,0,0,0,36.18,30Z"/><path d="M40,33.82a1.9,1.9,0,0,0,1.91-1.91H38.09A1.9,1.9,0,0,0,40,33.82Z"/><path d="M40,26.18a1.9,1.9,0,0,0-1.91,1.91h3.82A1.9,1.9,0,0,0,40,26.18Z"/><path d="M16.18,40a1.9,1.9,0,0,0,1.91,1.91V38.09A1.9,1.9,0,0,0,16.18,40Z"/><path d="M21.91,38.09v3.82a1.91,1.91,0,0,0,0-3.82Z"/><path d="M20,36.18a1.9,1.9,0,0,0-1.91,1.91h3.82A1.9,1.9,0,0,0,20,36.18Z"/><path d="M1.91,28.09v3.82a1.91,1.91,0,0,0,0-3.82Z"/><path d="M36.18,10a1.9,1.9,0,0,0,1.91,1.91V8.09A1.9,1.9,0,0,0,36.18,10Z"/><path d="M40,13.82a1.9,1.9,0,0,0,1.91-1.91H38.09A1.9,1.9,0,0,0,40,13.82Z"/><path d="M40,6.18a1.9,1.9,0,0,0-1.91,1.91h3.82A1.9,1.9,0,0,0,40,6.18Z"/><path d="M18.79,16.37a1.92,1.92,0,0,0-1.21,2.42l3.63-1.21A1.92,1.92,0,0,0,18.79,16.37Z"/><path d="M22.42,21.21l-3.63,1.21a1.91,1.91,0,0,0,3.63-1.21Z"/><path d="M16.37,21.21a1.92,1.92,0,0,0,2.42,1.21l-1.21-3.63A1.92,1.92,0,0,0,16.37,21.21Z"/><path d="M23.63,18.79a1.92,1.92,0,0,0-2.42-1.21l1.21,3.63A1.92,1.92,0,0,0,23.63,18.79Z"/><path d="M1.91,8.09v3.82a1.91,1.91,0,0,0,0-3.82Z"/><path d="M20,3.82a1.9,1.9,0,0,0,1.91-1.91H18.09A1.9,1.9,0,0,0,20,3.82Z"/><path d="M0,33.82a1.9,1.9,0,0,0,1.91-1.91H-1.91A1.9,1.9,0,0,0,0,33.82Z"/><path d="M0,26.18a1.9,1.9,0,0,0-1.91,1.91H1.91A1.9,1.9,0,0,0,0,26.18Z"/><path d="M0,13.82a1.9,1.9,0,0,0,1.91-1.91H-1.91A1.9,1.9,0,0,0,0,13.82Z"/><path d="M0,6.18A1.9,1.9,0,0,0-1.91,8.09H1.91A1.9,1.9,0,0,0,0,6.18Z"/><path d="M16.18,0a1.9,1.9,0,0,0,1.91,1.91V-1.91A1.9,1.9,0,0,0,16.18,0Z"/><path d="M21.91-1.91V1.91A1.9,1.9,0,0,0,23.82,0,1.9,1.9,0,0,0,21.91-1.91Z"/></pattern></defs><g id="Layer_2" data-name="Layer 2"><g id="illustrations"><path class="cls-3" d="M1104.94,449.93V564.48H1030a39.64,39.64,0,0,0-39.63-39.64V491.65a96.49,96.49,0,0,0,35.31-41.72Z"/><path class="cls-4" d="M860.08,432l.56,51.81c-1.55.2-13.73,1.75-23.75,2.83a24.39,24.39,0,0,0-19.43,13.88L806,525.13a24.33,24.33,0,0,0,1.78,23.79c5.6,8.41,12.21,18.75,13,20.08l-40.15,32.74c-1.13-1.08-9.93-9.63-17-16.81a24.35,24.35,0,0,0-23-6.52l-26.39,6.32A24.34,24.34,0,0,0,696.77,601c-3.09,9.6-7,21.22-7.56,22.7l-50.63-11c.13-1.56,1.34-13.77,2.51-23.79a24.33,24.33,0,0,0-9.21-22L610.49,550.2a24.4,24.4,0,0,0-23.6-3.56c-9.43,3.59-21,7.74-22.46,8.25l-23-46.43,20.18-12.87a24.36,24.36,0,0,0,11.48-20.93l-.3-27.13a24.35,24.35,0,0,0-11.94-20.66c-8.68-5.14-19.12-11.59-20.45-12.43l22-46.92c1.48.48,13.13,4.38,22.63,7.75a24.35,24.35,0,0,0,23.52-4.07l21-17.14a24.36,24.36,0,0,0,8.71-22.23c-1.39-10-2.86-22.17-3-23.73L685.61,296c.54,1.46,4.76,13,8,22.53a24.35,24.35,0,0,0,17.84,15.84L738,340.14a24.65,24.65,0,0,0,22.81-7l.34-.35c6.87-7.24,15.23-15.74,16.32-16.82l40.86,31.86c-.8,1.34-7.18,11.82-12.59,20.35A24.33,24.33,0,0,0,804.5,392l12,24.32a24.37,24.37,0,0,0,19.71,13.44C846.3,430.58,858.52,431.86,860.08,432ZM754.26,503.41a71.05,71.05,0,1,0-108.69,4,69.72,69.72,0,0,0,9,8.32,71,71,0,0,0,96.33-8.32Q752.64,505.5,754.26,503.41Z"/><path class="cls-3" d="M848.38,868.55l35.88,56.21a53.26,53.26,0,0,1-37,14.88H732.57a53.49,53.49,0,0,1,0-107h92.91Z"/><path class="cls-5" d="M1104.94,449.93V564.48H1030a39.64,39.64,0,0,0-39.63-39.64V491.65a96.49,96.49,0,0,0,35.31-41.72Z"/><path class="cls-4" d="M1104.94,449.93V564.48H1030a39.64,39.64,0,0,0-39.63-39.64V491.65a96.49,96.49,0,0,0,35.31-41.72Z"/><path class="cls-5" d="M990.39,449.93h35.31a96.49,96.49,0,0,1-35.31,41.72Z"/><path d="M990.39,524.84A39.64,39.64,0,0,1,1030,564.48H990.39Z"/><path class="cls-5" d="M990.39,524.84v39.64H1030a39.64,39.64,0,1,1-39.63-39.64Z"/><path class="cls-6" d="M912.63,76.31l-11,3a21.48,21.48,0,0,0-15.11,15.12l-3,11-3-11a21.45,21.45,0,0,0-15.09-15.12l-11-3,11-3a21.46,21.46,0,0,0,15.09-15.11l3-11,3,11a21.48,21.48,0,0,0,15.11,15.11Z"/><path d="M860.08,432l.56,51.81c-1.55.2-13.73,1.75-23.75,2.83a24.39,24.39,0,0,0-19.43,13.88L806,525.13a24.33,24.33,0,0,0,1.78,23.79c5.6,8.41,12.21,18.75,13,20.08l-40.15,32.74c-1.13-1.08-9.93-9.63-17-16.81a24.35,24.35,0,0,0-23-6.52l-26.39,6.32A24.34,24.34,0,0,0,696.77,601c-3.09,9.6-7,21.22-7.56,22.7l-50.63-11c.13-1.56,1.34-13.77,2.51-23.79a24.33,24.33,0,0,0-9.21-22L610.49,550.2a24.4,24.4,0,0,0-23.6-3.56c-9.43,3.59-21,7.74-22.46,8.25l-23-46.43,20.18-12.87a24.36,24.36,0,0,0,11.48-20.93l-.3-27.13a24.35,24.35,0,0,0-11.94-20.66c-8.68-5.14-19.12-11.59-20.45-12.43l22-46.92c1.48.48,13.13,4.38,22.63,7.75a24.35,24.35,0,0,0,23.52-4.07l21-17.14a24.36,24.36,0,0,0,8.71-22.23c-1.39-10-2.86-22.17-3-23.73L685.61,296c.54,1.46,4.76,13,8,22.53a24.35,24.35,0,0,0,17.84,15.84L738,340.14a24.65,24.65,0,0,0,22.81-7l.34-.35c6.87-7.24,15.23-15.74,16.32-16.82l40.86,31.86c-.8,1.34-7.18,11.82-12.59,20.35A24.33,24.33,0,0,0,804.5,392l12,24.32a24.37,24.37,0,0,0,19.71,13.44C846.3,430.58,858.52,431.86,860.08,432ZM754.26,503.41a71.05,71.05,0,1,0-108.69,4,69.72,69.72,0,0,0,9,8.32,71,71,0,0,0,96.33-8.32Q752.64,505.5,754.26,503.41Z"/><path d="M836.65,23.18l-8,2.18a15.7,15.7,0,0,0-11,11l-2.16,8-2.17-8a15.67,15.67,0,0,0-11-11l-8-2.18,8-2.17a15.66,15.66,0,0,0,11-11l2.17-8,2.16,8a15.68,15.68,0,0,0,11,11Z"/><path class="cls-7" d="M801.09,93.25,774,100.64a53.44,53.44,0,0,0-37.18,37c0,.1,0,.19-.08.3l-7.33,27-7.34-27a53,53,0,0,0-37.24-37.3l-27.1-7.39,27.1-7.35A53,53,0,0,0,722,48.63l7.34-27.07,7.33,27.07A53,53,0,0,0,774,85.9Z"/><path class="cls-5" d="M741.92,403.69a71.05,71.05,0,0,1,12.34,99.72q-1.62,2.08-3.39,4H645.57a71.05,71.05,0,0,1,96.35-103.74Z"/><path class="cls-5" d="M559.48,187.2,761.16,332.74h0l-.34.35a24.65,24.65,0,0,1-22.81,7l-26.52-5.75a24.35,24.35,0,0,1-17.84-15.84c-3.29-9.54-7.51-21.07-8-22.53L635.22,308.1c.18,1.56,1.65,13.74,3,23.73a24.36,24.36,0,0,1-8.71,22.23l-21,17.14A24.35,24.35,0,0,1,585,375.27c-9.5-3.37-21.15-7.27-22.63-7.75l-22,46.92c1.33.84,11.77,7.29,20.45,12.43a24.35,24.35,0,0,1,11.94,20.66l.3,27.13a24.36,24.36,0,0,1-11.48,20.93l-1.45.91h0L468.75,256.92A64.35,64.35,0,0,0,560.4,195,65.3,65.3,0,0,0,559.48,187.2Z"/><path class="cls-8" d="M560.4,195a64.18,64.18,0,1,1-.92-7.84A65.3,65.3,0,0,1,560.4,195Zm-62.68,30.19a26.54,26.54,0,1,0-28-25A26.54,26.54,0,0,0,497.72,225.23Z"/><path d="M522.69,197.21a26.54,26.54,0,1,1-28-25A26.54,26.54,0,0,1,522.69,197.21Z"/><path class="cls-5" d="M468.75,256.92l91.41,239.57h0c-6.64,4.15-13.92,8.84-17.16,10.93H224.3a108.42,108.42,0,1,1,36.13-210.66,254.48,254.48,0,0,1-3.48-42C257,115.15,370.09,2,509.67,2A252,252,0,0,1,694.4,82.25a53,53,0,0,1-9.62,3.65l-27.1,7.35,27.1,7.39A53,53,0,0,1,722,137.94l7.34,27s7.38-27.24,7.41-27.34a134.05,134.05,0,0,1,162.51,185.3,96.27,96.27,0,0,1,126.42,127H990.39v41.72a95.72,95.72,0,0,1-52.81,15.78H814.24l3.22-6.87a24.39,24.39,0,0,1,19.43-13.88c10-1.08,22.2-2.63,23.75-2.83L860.08,432c-1.56-.18-13.78-1.46-23.83-2.32a24.37,24.37,0,0,1-19.71-13.44L804.5,392a24.33,24.33,0,0,1,1.26-23.82c5.41-8.53,11.79-19,12.59-20.35l-40.86-31.86c-1.09,1.08-9.45,9.58-16.32,16.82h0L559.48,187.2a64.32,64.32,0,1,0-90.73,69.72Z"/><line class="cls-9" x1="645.57" y1="507.43" x2="750.87" y2="507.43"/><path class="cls-9" d="M814.24,507.43H937.58a95.72,95.72,0,0,0,52.81-15.78A96.21,96.21,0,0,0,937.58,315a95.72,95.72,0,0,0-38.3,7.93,134.07,134.07,0,0,0-162.51-185.3"/><path class="cls-9" d="M694.4,82.25A252,252,0,0,0,509.67,2C370.09,2,257,115.15,257,254.72a254.48,254.48,0,0,0,3.48,42A108.43,108.43,0,1,0,224.3,507.43H543"/><path class="cls-9" d="M560.16,496.5l1.45-.91a24.36,24.36,0,0,0,11.48-20.93l-.3-27.13a24.35,24.35,0,0,0-11.94-20.66c-8.68-5.14-19.12-11.59-20.45-12.43l22-46.92c1.48.48,13.13,4.38,22.63,7.75a24.35,24.35,0,0,0,23.52-4.07l21-17.14a24.36,24.36,0,0,0,8.71-22.23c-1.39-10-2.86-22.17-3-23.73L685.61,296c.54,1.46,4.76,13,8,22.53a24.35,24.35,0,0,0,17.84,15.84L738,340.14a24.65,24.65,0,0,0,22.81-7l.34-.35c6.87-7.24,15.23-15.74,16.32-16.82l40.86,31.86c-.8,1.34-7.18,11.82-12.59,20.35A24.33,24.33,0,0,0,804.5,392l12,24.32a24.37,24.37,0,0,0,19.71,13.44c10,.86,22.27,2.14,23.83,2.32l.56,51.81c-1.55.2-13.73,1.75-23.75,2.83a24.39,24.39,0,0,0-19.43,13.88L806,525.13a24.33,24.33,0,0,0,1.78,23.79c5.6,8.41,12.21,18.75,13,20.08l-40.15,32.74c-1.13-1.08-9.93-9.63-17-16.81a24.35,24.35,0,0,0-23-6.52l-26.39,6.32A24.34,24.34,0,0,0,696.77,601c-3.09,9.6-7,21.22-7.56,22.7l-50.63-11c.13-1.56,1.34-13.77,2.51-23.79a24.33,24.33,0,0,0-9.21-22L610.49,550.2a24.4,24.4,0,0,0-23.6-3.56c-9.43,3.59-21,7.74-22.46,8.25l-23-46.43C541.68,508.31,553.52,500.65,560.16,496.5Z"/><path class="cls-9" d="M750.87,507.43q1.77-1.94,3.39-4a71.15,71.15,0,1,0-3.39,4Z"/><path class="cls-9" d="M468.75,256.92A64.35,64.35,0,0,0,560.4,195a65.3,65.3,0,0,0-.92-7.84,64.32,64.32,0,1,0-90.73,69.72Z"/><path class="cls-9" d="M522.69,197.21a26.54,26.54,0,1,0-25,28A26.53,26.53,0,0,0,522.69,197.21Z"/><line class="cls-9" x1="468.75" y1="256.92" x2="560.16" y2="496.49"/><line class="cls-9" x1="559.48" y1="187.2" x2="761.16" y2="332.74"/><polygon class="cls-9" points="1025.7 449.93 1104.94 449.93 1104.94 564.48 990.39 564.48 990.39 449.93 1025.7 449.93"/><path class="cls-9" d="M1030,564.48a39.64,39.64,0,1,0-39.63,39.65A39.64,39.64,0,0,0,1030,564.48Z"/><path class="cls-9" d="M736.77,137.64a53.44,53.44,0,0,1,37.18-37l27.14-7.39L774,85.9a53,53,0,0,1-37.26-37.27l-7.33-27.07L722,48.63A53,53,0,0,1,684.78,85.9l-27.1,7.35,27.1,7.39A53,53,0,0,1,722,137.94l7.34,27S736.74,137.74,736.77,137.64Z"/><path class="cls-9" d="M883.55,47.25l-3,11a21.46,21.46,0,0,1-15.09,15.11l-11,3,11,3a21.45,21.45,0,0,1,15.09,15.12l3,11,3-11a21.48,21.48,0,0,1,15.11-15.12l11-3-11-3a21.48,21.48,0,0,1-15.11-15.11Z"/><path class="cls-9" d="M815.46,2l-2.17,8a15.66,15.66,0,0,1-11,11l-8,2.17,8,2.18a15.67,15.67,0,0,1,11,11l2.17,8,2.16-8a15.7,15.7,0,0,1,11-11l8-2.18-8-2.17a15.68,15.68,0,0,1-11-11Z"/><path d="M1115.4,939.64H893.76l-45.38-71.09H985.17a16.11,16.11,0,0,0,16.11-16.11v-30L1032,870.6C1071.75,932.81,1115.4,892.48,1115.4,939.64Z"/><path class="cls-6" d="M1001.28,822.41v30a16.11,16.11,0,0,1-16.11,16.11H848.38L759.93,730,612.66,877.25a251.33,251.33,0,0,1-31,26.44c-3.12,2.24-6.61,4.63-10.47,7.07h0a181.11,181.11,0,0,1-98.51,28.87,196.52,196.52,0,0,1-122.4-42.71,60.19,60.19,0,0,0,24.51-65.29l-10.33-38.95h0L395.08,785,407,830a60.15,60.15,0,0,0,73.55,42.72l5.38-1.42a60.16,60.16,0,0,0,42.72-73.55l-11.46-43.2,17.76-4.44a77.34,77.34,0,0,0,38.35,13.69q3,.24,6,.24A77.37,77.37,0,0,0,634,741.34L824.58,550.8A77.29,77.29,0,0,1,838,566.63Z"/><path class="cls-5" d="M903.57,468a20.42,20.42,0,0,1,3,7,21.74,21.74,0,0,1-38-8.07l6.47-4.38A20.49,20.49,0,0,1,903.57,468Z"/><path class="cls-5" d="M886.72,411.06a20.42,20.42,0,0,1,4.76,7.46,21.74,21.74,0,0,1-41.05-.15l7.31-7.31a20.46,20.46,0,0,1,29,0Z"/><path class="cls-5" d="M848.38,868.55l35.88,56.21a53.26,53.26,0,0,1-37,14.88H732.57a53.49,53.49,0,0,1,0-107h92.91Z"/><path class="cls-3" d="M848.38,868.55l35.88,56.21a53.26,53.26,0,0,1-37,14.88H732.57a53.49,53.49,0,0,1,0-107h92.91Z"/><path class="cls-5" d="M862.44,407.54a20.48,20.48,0,0,0-4.7,3.52l-6.68,6.69h0a21.71,21.71,0,0,1-23.2-8.95h0l7-4.86A20.87,20.87,0,0,1,862.44,407.54Z"/><path class="cls-5" d="M845.86,418.37a21.57,21.57,0,0,0,5.19-.63h0l-.63.62a21.74,21.74,0,0,0,41.05.15A20.48,20.48,0,0,1,886.72,440l-45.53,45.53L868.63,467a21.74,21.74,0,0,0,38,8.07,20.49,20.49,0,0,1-8.47,21.44l-48.43,32.73A143.38,143.38,0,0,0,829,546.41L634,741.34A77.37,77.37,0,0,1,579.28,764q-3,0-6-.24a77.44,77.44,0,0,1-56.58-31.52l-40.22-55,85.52-74,21.42,29.29L749,466.93a171.7,171.7,0,0,1,25.33-20.87l53.48-37.28h0A21.69,21.69,0,0,0,845.86,418.37Z"/><polygon class="cls-5" points="759.93 729.98 825.48 832.67 657.24 832.67 759.93 729.98"/><path class="cls-6" d="M571.18,910.76c3.86-2.44,7.35-4.83,10.47-7.07a251.33,251.33,0,0,0,31-26.44l44.58-44.58h75.33a53.49,53.49,0,0,0,0,107H472.66a181.11,181.11,0,0,0,98.51-28.87Z"/><path class="cls-7" d="M238.17,670.15H167.75L222.51,496c.5-1.61,11.73-58.11,73.65-46.37l.33.06a86.45,86.45,0,0,1,47.73,27.09,52.31,52.31,0,0,0,54.92,14.34c38.19-12.78,82.44,2.16,97.46,22.73L562,603.26l-85.52,74,40.22,55a77.09,77.09,0,0,0,18.23,17.83l-170.5,42.57h0l-76.11,19C287.94,810.65,238.17,670.15,238.17,670.15Z"/><path class="cls-6" d="M528.64,797.75a60.16,60.16,0,0,1-42.72,73.55l-5.38,1.42A60.15,60.15,0,0,1,407,830l-11.91-45,122.1-30.49Z"/><path class="cls-5" d="M422.62,332.74A58.71,58.71,0,0,1,401.7,446.31a59.81,59.81,0,0,1-10.61-.95c8.77-21.45,11.19-47-3.84-66.43,7.29-8.58,19.28-24.42,30.81-40,.05-.08.12-.16.18-.25C419.66,336.65,421.17,334.7,422.62,332.74Z"/><path d="M424,320.76a30.51,30.51,0,0,1-2.29,11.65,33.11,33.11,0,0,1-3.5,6.27c-.06.09-.13.17-.18.25-11.53,15.58-23.52,31.42-30.81,40,15,19.39,12.61,45,3.84,66.43a58.73,58.73,0,0,1-22.22-106.45A30.56,30.56,0,1,1,424,320.76Z"/><path class="cls-5" d="M421.75,332.41c.3.1.58.21.87.33l-4.38,5.94a30.25,30.25,0,0,0,3.5-6.27Z"/><path class="cls-6" d="M374.77,831.64a60.19,60.19,0,0,1-24.51,65.29,196.26,196.26,0,0,1-61.93-85.24l76.11-19Z"/><path class="cls-5" d="M238.17,670.15l25.28,71.39L213,902a58.28,58.28,0,0,1-55.58,40.79H19.56A17.57,17.57,0,0,1,3.28,918.62h0a22.49,22.49,0,0,0,29.06-13.3l56.08-9.22a19,19,0,0,0,12.16-12.35l67.16-213.6Z"/><path class="cls-5" d="M16.73,907.88l15.62-2.56a22.49,22.49,0,0,1-29.06,13.3,17.53,17.53,0,0,1,13.44-10.74Z"/><line class="cls-9" x1="472.66" y1="939.64" x2="732.57" y2="939.64"/><path class="cls-9" d="M848.38,868.55H985.17a16.11,16.11,0,0,0,16.11-16.11v-30"/><path class="cls-9" d="M571.47,910.64a1.78,1.78,0,0,1-.29.12"/><path class="cls-9" d="M824.58,550.8A77.29,77.29,0,0,1,838,566.63l194,304c39.71,62.21,83.36,21.88,83.36,69H893.76L759.93,730,612.66,877.25a251.33,251.33,0,0,1-31,26.44c-3.12,2.24-6.61,4.63-10.47,7.07h0a181.11,181.11,0,0,1-98.51,28.87A196.76,196.76,0,0,1,288.33,811.69c-.39-1-66.89-188.78-66.89-188.78"/><path class="cls-9" d="M884.26,924.76a53.26,53.26,0,0,1-37,14.88H732.57a53.49,53.49,0,0,1,0-107h92.91"/><line class="cls-9" x1="732.57" y1="832.67" x2="657.24" y2="832.67"/><line class="cls-9" x1="364.44" y1="792.68" x2="534.94" y2="750.11"/><line class="cls-9" x1="288.33" y1="811.69" x2="364.44" y2="792.69"/><line class="cls-9" x1="476.49" y1="677.28" x2="562.01" y2="603.26"/><line class="cls-9" x1="167.75" y1="670.15" x2="238.17" y2="670.15"/><path class="cls-9" d="M811.85,505.43l63.25-42.81a20.49,20.49,0,1,1,23,33.89l-48.43,32.73A143.38,143.38,0,0,0,829,546.41L634,741.34A77.37,77.37,0,0,1,579.28,764q-3,0-6-.24a77.44,77.44,0,0,1-56.58-31.52L451,642.43"/><path class="cls-9" d="M3.29,918.62a17.53,17.53,0,0,1,13.44-10.74l71.7-11.78a19,19,0,0,0,12.16-12.35L222.51,496c.5-1.61,11.73-58.11,73.65-46.37l.33.06a86.45,86.45,0,0,1,47.73,27.09,52.31,52.31,0,0,0,54.92,14.34c38.19-12.78,82.44,2.16,97.46,22.73l86.83,118.74L749,466.93a171.7,171.7,0,0,1,25.33-20.87l60.45-42.14a20.87,20.87,0,0,1,27.62,3.62"/><path class="cls-9" d="M263.45,741.54,213,902a58.28,58.28,0,0,1-55.58,40.79H19.56A17.57,17.57,0,0,1,3.28,918.62"/><path class="cls-9" d="M786.67,482.13l71.07-71.07a20.49,20.49,0,1,1,29,29l-45.53,45.53"/><path class="cls-9" d="M906.63,475.06h0a21.74,21.74,0,0,1-38-8.07"/><path class="cls-9" d="M891.48,418.52a21.74,21.74,0,0,1-41.05-.15"/><path class="cls-9" d="M851.05,417.74a21.71,21.71,0,0,1-23.2-8.95"/><path class="cls-9" d="M418.24,338.68a30.57,30.57,0,1,0-49.37.23,58.73,58.73,0,0,0,22.22,106.45,59.81,59.81,0,0,0,10.61.95,58.7,58.7,0,0,0,58.7-58.71c0-25.06-15.87-46-37.78-54.86-.29-.11-.57-.23-.87-.33"/><path class="cls-9" d="M391.09,445.36c8.77-21.45,11.19-47-3.84-66.43,7.29-8.58,19.28-24.42,30.81-40,.05-.08.12-.16.18-.25,1.42-2,2.93-4,4.38-5.94h0"/><path class="cls-9" d="M517.18,754.55l11.46,43.2a60.16,60.16,0,0,1-42.72,73.55l-5.38,1.42A60.15,60.15,0,0,1,407,830l-11.91-45"/><path class="cls-9" d="M364.44,792.68h0l10.33,38.95a60.19,60.19,0,0,1-24.51,65.29"/><path class="cls-9" d="M32.35,905.32a22.49,22.49,0,0,1-29.06,13.3h0"/></g></g></svg>