<svg xmlns="http://www.w3.org/2000/svg" xmlns:xlink="http://www.w3.org/1999/xlink" viewBox="0 0 892.65 879.45"><defs><style>.cls-1,.cls-2,.cls-7{fill:none;}.cls-10,.cls-2,.cls-3,.cls-6,.cls-7,.cls-9{stroke:#000;stroke-linecap:round;stroke-linejoin:round;}.cls-2{stroke-width:1.5px;}.cls-3,.cls-5{fill:#fff;}.cls-10,.cls-3,.cls-6,.cls-7,.cls-9{stroke-width:4px;}.cls-4{fill:#8282d9;}.cls-6{fill:url(#New_Pattern_2);}.cls-8{fill:#d7ccff;}.cls-11,.cls-9{fill:#ffb2e5;}.cls-12{fill:url(#New_Pattern);}</style><pattern id="New_Pattern_2" data-name="New Pattern 2" width="40" height="40" patternTransform="translate(-2480.02 -232.88)" patternUnits="userSpaceOnUse" viewBox="0 0 40 40"><rect class="cls-1" width="40" height="40"/><path d="M36.18,30a1.9,1.9,0,0,0,1.91,1.91V28.09A1.9,1.9,0,0,0,36.18,30Z"/><path d="M40,33.82a1.9,1.9,0,0,0,1.91-1.91H38.09A1.9,1.9,0,0,0,40,33.82Z"/><path d="M40,26.18a1.9,1.9,0,0,0-1.91,1.91h3.82A1.9,1.9,0,0,0,40,26.18Z"/><path d="M16.18,40a1.9,1.9,0,0,0,1.91,1.91V38.09A1.9,1.9,0,0,0,16.18,40Z"/><path d="M21.91,38.09v3.82a1.91,1.91,0,0,0,0-3.82Z"/><path d="M20,36.18a1.9,1.9,0,0,0-1.91,1.91h3.82A1.9,1.9,0,0,0,20,36.18Z"/><path d="M1.91,28.09v3.82a1.91,1.91,0,0,0,0-3.82Z"/><path d="M36.18,10a1.9,1.9,0,0,0,1.91,1.91V8.09A1.9,1.9,0,0,0,36.18,10Z"/><path d="M40,13.82a1.9,1.9,0,0,0,1.91-1.91H38.09A1.9,1.9,0,0,0,40,13.82Z"/><path d="M40,6.18a1.9,1.9,0,0,0-1.91,1.91h3.82A1.9,1.9,0,0,0,40,6.18Z"/><path d="M18.79,16.37a1.92,1.92,0,0,0-1.21,2.42l3.63-1.21A1.92,1.92,0,0,0,18.79,16.37Z"/><path d="M22.42,21.21l-3.63,1.21a1.91,1.91,0,0,0,3.63-1.21Z"/><path d="M16.37,21.21a1.92,1.92,0,0,0,2.42,1.21l-1.21-3.63A1.92,1.92,0,0,0,16.37,21.21Z"/><path d="M23.63,18.79a1.92,1.92,0,0,0-2.42-1.21l1.21,3.63A1.92,1.92,0,0,0,23.63,18.79Z"/><path d="M1.91,8.09v3.82a1.91,1.91,0,0,0,0-3.82Z"/><path d="M20,3.82a1.9,1.9,0,0,0,1.91-1.91H18.09A1.9,1.9,0,0,0,20,3.82Z"/><path d="M0,33.82a1.9,1.9,0,0,0,1.91-1.91H-1.91A1.9,1.9,0,0,0,0,33.82Z"/><path d="M0,26.18a1.9,1.9,0,0,0-1.91,1.91H1.91A1.9,1.9,0,0,0,0,26.18Z"/><path d="M0,13.82a1.9,1.9,0,0,0,1.91-1.91H-1.91A1.9,1.9,0,0,0,0,13.82Z"/><path d="M0,6.18A1.9,1.9,0,0,0-1.91,8.09H1.91A1.9,1.9,0,0,0,0,6.18Z"/><path d="M16.18,0a1.9,1.9,0,0,0,1.91,1.91V-1.91A1.9,1.9,0,0,0,16.18,0Z"/><path d="M21.91-1.91V1.91A1.9,1.9,0,0,0,23.82,0,1.9,1.9,0,0,0,21.91-1.91Z"/></pattern><pattern id="New_Pattern" data-name="New Pattern" width="70" height="50" patternTransform="translate(-2184.02 -372.88)" patternUnits="userSpaceOnUse" viewBox="0 0 70 50"><rect class="cls-1" width="70" height="50"/><path class="cls-2" d="M8.89,100c-.05-7.08.29-14.17.29-21.25,0-4.32-.37-17.48-.29-28.09"/><path class="cls-2" d="M22.94,99.84c0-1.65.09-3.31.09-5,0-2.48-.21-5-.21-7.45s0-3.83.05-7.28c0-1.44-.06-2.9-.06-4.35,0-3.1.31-4.62.31-7.37,0-1.4-.27-4.94-.27-8.33q0-1.61.09-3.21V50.11"/><path class="cls-2" d="M36.74,99.84c0-9.46.33-18.09.33-27.56,0-3.7-.15-7.46-.15-11.2,0-3.35-.1-7.29-.18-10.75"/><path class="cls-2" d="M50.93,99.75c0-1.24-.07-2.75-.07-4,0-1.92,0-3.86,0-5.79,0-3.87,0-7.66,0-11.51a8.42,8.42,0,0,1-.08-1.22c0-.32.18-6.68.18-8,0-2.2-.21-3.25-.21-5.64,0-1.3.06-2.65.17-3.86,0-2.89,0-5.89,0-9.05"/><path class="cls-2" d="M65,99.71c0-8.34-.55-15.73-.36-24.06.18-8.13.16-17.71.36-25.19"/><path class="cls-2" d="M8.89,50c-.05-7.08.29-14.17.29-21.25,0-4.32-.37-17.48-.29-28.09"/><path class="cls-2" d="M22.94,49.84c0-1.65.09-3.31.09-5,0-2.48-.21-5-.21-7.45s0-3.83.05-7.28c0-1.44-.06-2.9-.06-4.35,0-3.1.31-4.62.31-7.37,0-1.4-.27-4.94-.27-8.33q0-1.6.09-3.21V.11"/><path class="cls-2" d="M36.74,49.84c0-9.46.33-18.09.33-27.56,0-3.7-.15-7.46-.15-11.2,0-3.35-.1-7.29-.18-10.75"/><path class="cls-2" d="M50.93,49.75c0-1.24-.07-2.75-.07-4,0-1.92,0-3.86,0-5.79,0-3.87,0-7.66,0-11.51a8.42,8.42,0,0,1-.08-1.22c0-.32.18-6.68.18-8,0-2.2-.21-3.25-.21-5.64,0-1.3.06-2.65.17-3.86,0-2.89,0-5.89,0-9"/><path class="cls-2" d="M65,49.71c0-8.34-.55-15.73-.36-24.06.18-8.13.16-17.71.36-25.19"/><path class="cls-2" d="M8.89,0c-.05-7.08.29-14.17.29-21.25,0-4.32-.37-17.48-.29-28.09"/><path class="cls-2" d="M22.94-.16c0-1.65.09-3.31.09-5,0-2.48-.21-5-.21-7.45s0-3.83.05-7.28c0-1.44-.06-2.9-.06-4.35,0-3.1.31-4.62.31-7.37,0-1.4-.27-4.94-.27-8.33q0-1.61.09-3.21v-6.71"/><path class="cls-2" d="M36.74-.16c0-9.46.33-18.09.33-27.56,0-3.7-.15-7.46-.15-11.2,0-3.35-.1-7.29-.18-10.75"/><path class="cls-2" d="M50.93-.25c0-1.24-.07-2.75-.07-4,0-1.92,0-3.86,0-5.79,0-3.87,0-7.66,0-11.51a8.42,8.42,0,0,1-.08-1.22c0-.32.18-6.68.18-8,0-2.2-.21-3.25-.21-5.64,0-1.3.06-2.65.17-3.86,0-2.89,0-5.89,0-9.05"/><path class="cls-2" d="M65-.29c0-8.34-.55-15.73-.36-24.06.18-8.13.16-17.71.36-25.19"/></pattern></defs><g id="Layer_2" data-name="Layer 2"><g id="illustrations"><rect class="cls-3" x="243.1" y="594.12" width="24.84" height="238.28"/><path class="cls-4" d="M333.57,371.49v76.3H229.81c-.12-.9-.24-1.8-.32-2.7-3.5-38.9,30.74-31,29.16-48.33s-21.35-29.51-41.16-41.09c-12.34-5.93-33-20.31-33-35.75,0-10.3,9.83-14.6,20-14.6,19.53,0,40.71,13,66.28,13A33.26,33.26,0,0,0,282,316.66c2.76-.37,5.51-.72,8.28-1,14-1.29,28.9,2.49,43.34,9.26Z"/><path class="cls-5" d="M333.57,257.27V325c-14.44-6.77-29.29-10.55-43.34-9.26-2.77.25-5.52.6-8.28,1a33.26,33.26,0,0,1-11.18,1.62c-25.57,0-46.75-13-66.28-13-10.16,0-20,4.3-20,14.6,0,15.44,20.65,29.82,33,35.75,19.81,11.58,39.57,23.74,41.16,41.09s-32.66,9.43-29.16,48.33c.08.9.2,1.8.32,2.7H131.34c12.1-23.11,40-31,40-54.45,0-30.43-76.51-33.73-76.51-77.64,0-35.17,33.42-34.42,33.64-34.43,7.49-.54,15.15-.94,22.07-1.57,17.38-1.6,34.36-9.1,33-23.81-2.44-26.57-38.93-32.14-76-43.06a86.67,86.67,0,0,0,25.75-41.66c28.51,9.45,55,6.86,77.59,26.06s27.51,74.65,61,71.59c12.94-1.18,24.46-12.82,39.33-14.19A59.09,59.09,0,0,1,333.57,257.27Z"/><path class="cls-3" d="M333.57,257.27V325c-14.44-6.77-29.29-10.55-43.34-9.26-2.77.25-5.52.6-8.28,1a33.26,33.26,0,0,1-11.18,1.62c-25.57,0-46.75-13-66.28-13-10.16,0-20,4.3-20,14.6,0,15.44,20.65,29.82,33,35.75,19.81,11.58,39.57,23.74,41.16,41.09s-32.66,9.43-29.16,48.33c.08.9.2,1.8.32,2.7H131.34c12.1-23.11,40-31,40-54.45,0-30.43-76.51-33.73-76.51-77.64,0-35.17,33.42-34.42,33.64-34.43,7.49-.54,15.15-.94,22.07-1.57,17.38-1.6,34.36-9.1,33-23.81-2.44-26.57-38.93-32.14-76-43.06a86.67,86.67,0,0,0,25.75-41.66c28.51,9.45,55,6.86,77.59,26.06s27.51,74.65,61,71.59c12.94-1.18,24.46-12.82,39.33-14.19A59.09,59.09,0,0,1,333.57,257.27Z"/><path class="cls-6" d="M333.57,257.27V325c-14.44-6.77-29.29-10.55-43.34-9.26-2.77.25-5.52.6-8.28,1a33.26,33.26,0,0,1-11.18,1.62c-25.57,0-46.75-13-66.28-13-10.16,0-20,4.3-20,14.6,0,15.44,20.65,29.82,33,35.75,19.81,11.58,39.57,23.74,41.16,41.09s-32.66,9.43-29.16,48.33c.08.9.2,1.8.32,2.7H131.34c12.1-23.11,40-31,40-54.45,0-30.43-76.51-33.73-76.51-77.64,0-35.17,33.42-34.42,33.64-34.43,7.49-.54,15.15-.94,22.07-1.57,17.38-1.6,34.36-9.1,33-23.81-2.44-26.57-38.93-32.14-76-43.06a86.67,86.67,0,0,0,25.75-41.66c28.51,9.45,55,6.86,77.59,26.06s27.51,74.65,61,71.59c12.94-1.18,24.46-12.82,39.33-14.19A59.09,59.09,0,0,1,333.57,257.27Z"/><path class="cls-4" d="M333.57,235v22.24a59.09,59.09,0,0,0-22.28-2.64c-14.87,1.37-26.39,13-39.33,14.19-33.51,3.06-38.44-52.44-61-71.59s-49.08-16.61-77.59-26.06a86.76,86.76,0,0,0,3.05-22.88H333.57Z"/><path class="cls-5" d="M94.83,315.7c0,43.92,76.51,47.21,76.51,77.64,0,23.5-27.9,31.34-40,54.45H49.68V235a86.32,86.32,0,0,0,57.92-22.18c37,10.92,73.52,16.48,76,43.06,1.34,14.71-15.64,22.21-33,23.81-6.92.63-14.58,1.05-22.07,1.57C128.25,281.28,94.83,280.53,94.83,315.7Z"/><path class="cls-7" d="M333.57,257.27v-109H136.4A86.72,86.72,0,0,1,49.68,235V447.79H333.57Z"/><path class="cls-7" d="M333.57,257.27a59.09,59.09,0,0,0-22.28-2.64c-14.87,1.37-26.39,13-39.33,14.19-33.51,3.06-38.44-52.44-61-71.59s-49.08-16.61-77.59-26.06"/><path class="cls-7" d="M333.57,325c-14.44-6.77-29.29-10.55-43.34-9.26-2.77.25-5.52.6-8.28,1a33.26,33.26,0,0,1-11.18,1.62c-25.57,0-46.75-13-66.28-13-10.16,0-20,4.3-20,14.6,0,15.44,20.65,29.82,33,35.75,19.81,11.58,39.57,23.74,41.16,41.09s-32.66,9.43-29.16,48.33c.08.9.2,1.8.32,2.7"/><path class="cls-7" d="M107.6,212.83c37,10.92,73.52,16.49,76,43.06,1.34,14.71-15.64,22.21-33,23.81-6.92.63-14.58,1-22.07,1.57-.22,0-33.64-.74-33.64,34.43,0,43.91,76.51,47.21,76.51,77.64,0,23.5-27.9,31.34-40,54.45"/><path class="cls-5" d="M890.65,326.36,824.13,441.55H663.79l66.52-115.19ZM815,369.53c.1-14.07-9.66-24.1-25.57-24.1a43.36,43.36,0,0,0-10,1.24h0c-17.41,4.2-34.53,18.63-41,35.78-7.75,20.45,2.54,37,23,37s43.32-16.58,51.07-37A36.82,36.82,0,0,0,815,369.53Z"/><rect x="693" y="441.55" width="131.13" height="12.49"/><path d="M789.46,345.43c15.91,0,25.67,10,25.57,24.1l-39.61,12.93,4-35.78h0A43.36,43.36,0,0,1,789.46,345.43Z"/><path class="cls-8" d="M775.42,382.46,815,369.53a36.82,36.82,0,0,1-2.58,12.93c-7.75,20.45-30.62,37-51.07,37s-30.74-16.58-23-37c6.51-17.15,23.63-31.58,41-35.78Z"/><rect class="cls-5" x="533.04" y="441.55" width="159.95" height="12.49"/><polyline class="cls-7" points="663.78 441.55 730.31 326.36 890.65 326.36 824.13 441.55"/><path class="cls-7" d="M779.43,346.67a43.36,43.36,0,0,1,10-1.24c15.91,0,25.66,10,25.57,24.1a36.82,36.82,0,0,1-2.58,12.93c-7.75,20.45-30.62,37-51.07,37s-30.74-16.58-23-37c6.51-17.15,23.63-31.58,41-35.78Z"/><polyline class="cls-7" points="779.43 346.67 779.43 346.68 775.42 382.46 815.03 369.53"/><rect class="cls-7" x="693" y="441.55" width="131.13" height="12.49"/><polyline class="cls-7" points="693 454.04 533.04 454.04 533.04 441.55 693 441.55"/><rect class="cls-3" x="171.06" y="549.59" width="168.53" height="61.87" rx="26.97"/><path class="cls-9" d="M519.67,317.43c-22.86-72.61-74.5-42.37-106.35-74.23-18.78-18.77-13-48.13-61.95-65.35h0a57.34,57.34,0,0,0-74,33.26L246.47,294a47.46,47.46,0,0,1,31.61,44.73V445.33A71.94,71.94,0,0,0,350,517.27h38.8a112.42,112.42,0,0,0,103.12-67.65C511.22,405.24,529.81,349.64,519.67,317.43Z"/><path d="M741.29,846.22H607a86.57,86.57,0,0,0-85.62-74q-4.08,0-8,.38l3.83-26h96.56a41.91,41.91,0,0,0,36.06-20.54l18.06-30.45v61.73a36.83,36.83,0,0,0,7.23,22C693.61,805.27,741.29,815.08,741.29,846.22Z"/><path class="cls-5" d="M593.74,441.55a74.09,74.09,0,0,1,74.11,74.1v180l-18.06,30.45a41.91,41.91,0,0,1-36.06,20.54H517.17l13.64-92.39,90.85-94.09a70,70,0,0,0-50.38-118.65Z"/><path class="cls-5" d="M641.31,511.57a69.75,69.75,0,0,1-19.65,48.63L478.82,708.13h-.54L444,716.9a41.92,41.92,0,0,1-40-11l-63.13-63.13,130-98.78L342.42,585.78a86.29,86.29,0,1,1,38.8-144.23H571.28A70,70,0,0,1,641.31,511.57Z"/><path class="cls-4" d="M593.74,441.55a74.09,74.09,0,0,1,74.11,74.1v180l-18.06,30.45a41.91,41.91,0,0,1-36.06,20.54H517.17l13.64-92.39,90.85-94.09a70,70,0,0,0-50.38-118.65Z"/><path class="cls-4" d="M641.31,511.57a69.75,69.75,0,0,1-19.65,48.63L478.82,708.13h-.54L444,716.9a41.92,41.92,0,0,1-40-11l-63.13-63.13,130-98.78L342.42,585.78a86.29,86.29,0,1,1,38.8-144.23H571.28A70,70,0,0,1,641.31,511.57Z"/><path d="M607,846.22H564.49a45,45,0,0,0-57.6-29.92l6.45-43.65q4-.37,8-.38A86.57,86.57,0,0,1,607,846.22Z"/><path d="M564.49,846.22h-62l4.41-29.92a45,45,0,0,1,57.6,29.92Z"/><path d="M478.82,708.13l-11,11.37h0l-9.18,9.5c-67.43,64.2-7.82,98.21-34,148.45L323,775.74a81.4,81.4,0,0,0-6.29-108.06q-1.89-1.89-3.85-3.61l28-21.28L404,705.92a41.92,41.92,0,0,0,40,11l34.29-8.77Z"/><path d="M316.69,667.68A81.4,81.4,0,0,1,323,775.74l-28.06-28.06a42.24,42.24,0,0,0-14.53-58.95l32.45-24.66Q314.8,665.8,316.69,667.68Z"/><path d="M289,695.37a42.24,42.24,0,0,1,5.91,52.31l-39.77-39.77,25.24-19.18A42.07,42.07,0,0,1,289,695.37Z"/><path class="cls-7" d="M467.84,719.5,621.66,560.2a70,70,0,0,0-50.38-118.65"/><line class="cls-7" x1="448.26" y1="739.77" x2="467.83" y2="719.5"/><path class="cls-7" d="M530.81,654.29,502.48,846.22H741.29c0-31.14-47.69-41-66.21-66.79a36.83,36.83,0,0,1-7.23-22V515.65a74.09,74.09,0,0,0-74.11-74.1H381.22a86.22,86.22,0,1,0-38.8,144.23L470.81,544,255.15,707.91,424.69,877.45c26.14-50.24-33.47-84.25,34-148.45"/><path class="cls-7" d="M517.17,746.68h96.56a41.91,41.91,0,0,0,36.06-20.54l18.06-30.45"/><path class="cls-7" d="M340.84,642.79,404,705.92a41.92,41.92,0,0,0,40,11l34.29-8.77h.54"/><path class="cls-7" d="M675.08,779.43s10.51-43.24,12.48-47.54a8.56,8.56,0,0,1,15.55,7.17c-2,4.22-27.22,39.25-28,40.35Z"/><path class="cls-7" d="M675.08,779.43s43.25-10.5,47.54-12.48a8.55,8.55,0,1,0-7.15-15.54c-4.23,1.94-39.26,27.22-40.36,28Z"/><path class="cls-7" d="M426.23,781.61c1.29-.79,38-23.18,42.4-24.79a8.56,8.56,0,0,1,5.93,16.07C470.19,774.5,427.56,781.4,426.23,781.61Z"/><path class="cls-7" d="M426.23,781.61h0Z"/><path class="cls-7" d="M426.23,781.63c1.29.79,38,23.18,42.4,24.79a8.56,8.56,0,0,0,5.93-16.06C470.19,788.74,427.56,781.84,426.23,781.63Z"/><path class="cls-7" d="M607,846.22a86.57,86.57,0,0,0-85.62-74q-4.08,0-8,.38"/><path class="cls-7" d="M564.49,846.22a45,45,0,0,0-57.6-29.92"/><path class="cls-7" d="M323,775.74a81.4,81.4,0,0,0-6.29-108.06q-1.89-1.89-3.85-3.61"/><path class="cls-7" d="M294.92,747.68a42.24,42.24,0,0,0-14.53-58.95"/><path class="cls-5" d="M708.12,390.28a13.29,13.29,0,0,1-1.27,19.62L698,400a20.19,20.19,0,0,1-5.34-13.39,16.58,16.58,0,0,1,2.82-9.49Z"/><path class="cls-5" d="M655.22,381.44A25,25,0,0,1,649.46,400l-2.43,2.9h0l-1.29-.33a28,28,0,0,0-28.09,8.85l-3.59,4.18a13.92,13.92,0,0,1-2.75-4.31h0L615.8,406l-1.29-.34a28,28,0,0,0-28.09,8.87l-3.59,4.16a13.93,13.93,0,0,1-.82-18.11l5.35-6.87a5.5,5.5,0,0,0-.43-7.27L580.51,380A37.95,37.95,0,0,1,524,374.54c-4.82,3.8-110.27,86-204.82,101.44-43.61,7.12-76-7.42-79-8.11a57.36,57.36,0,0,1-31.36-73.21L246.47,294l108.12,38.31L343,363.35,506,300.5a133.15,133.15,0,0,1,47.93-8.93h26.56a76.39,76.39,0,0,1,55,23.37l60,62.22a16.58,16.58,0,0,0-2.82,9.49A20.19,20.19,0,0,0,698,400l8.87,9.86a13.09,13.09,0,0,1-3.94,2.13c-7.92,2.66-17.61,2.44-26.45-7.41C670.71,398.23,663.1,389.93,655.22,381.44Z"/><path class="cls-5" d="M647,402.92l-10,11.92A15.47,15.47,0,0,1,615.49,417a14.09,14.09,0,0,1-1.44-1.33l3.59-4.18a28,28,0,0,1,28.09-8.85Z"/><path class="cls-5" d="M615.8,406l-10,11.91A15.44,15.44,0,0,1,584.27,420a13,13,0,0,1-1.44-1.33l3.59-4.16a28,28,0,0,1,28.09-8.87Z"/><path class="cls-7" d="M580.51,380A37.95,37.95,0,0,1,524,374.54c-4.82,3.8-110.27,86-204.82,101.44-43.61,7.12-76-7.42-79-8.11a57.36,57.36,0,0,1-31.36-73.21L246.47,294l108.12,38.31L343,363.35,506,300.5a133.15,133.15,0,0,1,47.93-8.93h26.56a76.39,76.39,0,0,1,55,23.37l72.68,75.34a13.29,13.29,0,0,1-1.27,19.62,13.09,13.09,0,0,1-3.94,2.13c-7.92,2.66-17.61,2.44-26.45-7.41-5.75-6.39-13.36-14.69-21.24-23.18"/><path class="cls-7" d="M615.81,406l2.43-2.91a25.06,25.06,0,0,0-1.11-33.49L598,349.67"/><path class="cls-7" d="M567.43,366.9l19.5,19.49a5.5,5.5,0,0,1,.43,7.27L582,400.53a14,14,0,0,0,.82,18.11,13,13,0,0,0,1.44,1.33,15.44,15.44,0,0,0,21.51-2.11l10-11.91"/><path class="cls-7" d="M582.83,418.64l3.59-4.16a28,28,0,0,1,28.09-8.87l1.29.34h0"/><path class="cls-7" d="M647,402.92l2.43-2.9a25.06,25.06,0,0,0-1.11-33.49l-19.12-19.89"/><path class="cls-7" d="M611.3,411.31a14.11,14.11,0,0,0,2.75,4.31,15.37,15.37,0,0,0,23-.78l10-11.92"/><path class="cls-7" d="M614.05,415.62l3.59-4.18a28,28,0,0,1,28.09-8.85l1.29.33h0"/><path class="cls-7" d="M695.46,377.16a16.58,16.58,0,0,0-2.82,9.49A20.19,20.19,0,0,0,698,400l8.87,9.86"/><circle class="cls-3" cx="443.23" cy="148.28" r="54.96" transform="translate(263.9 579.89) rotate(-85.93)"/><path class="cls-10" d="M404,142.87a53.21,53.21,0,0,0,3.12,14.85l-21.2,7.46a47.45,47.45,0,0,1-8.19-26.58c0-28.22,25.16-51.1,56.19-51.1,1.52,0,3,.06,4.5.16a42.2,42.2,0,0,0,32.44-12,31.83,31.83,0,1,1,9.73,52.17,28.43,28.43,0,0,0-15.82-2.17c-18,3.06-17.36,17.88-17.36,17.88l-11,3.87a16.78,16.78,0,0,0-16.18-22.72C410.72,125,403.55,133.4,404,142.87Z"/><path class="cls-10" d="M426.13,142.37a7.56,7.56,0,0,0-7.51-6.71,7.84,7.84,0,0,0-2.07.28"/><path class="cls-5" d="M761.8,93.13a91,91,0,0,1-33.39,70.5H613A91.12,91.12,0,1,1,761.8,93.13Z"/><path class="cls-4" d="M613,163.63H728.41c-17.75,27.26-23.67,45.09-29,77.32H642C636.63,208.72,630.7,190.89,613,163.63Zm79,22.54a5,5,0,0,0-9.82-2.07A298,298,0,0,0,677,220.74a5,5,0,0,0,4.56,5.42,3.31,3.31,0,0,0,.44,0,5,5,0,0,0,5-4.57A286,286,0,0,1,692,186.17Zm-32.2,40a5,5,0,0,0,4.57-5.42,296.09,296.09,0,0,0-5.17-36.64,5,5,0,0,0-9.82,2.07,290.3,290.3,0,0,1,5,35.44,5,5,0,0,0,5,4.57A3,3,0,0,0,659.79,226.16Z"/><path d="M722.43,93.32l-26.73,7.27A15.28,15.28,0,0,0,685,111.29s0,.11,0,.15l-7.22,26.65-7.24-26.65s0,0,0-.08a15.37,15.37,0,0,0-10.75-10.77l-26.74-7.27,26.64-7.24.1,0a15.37,15.37,0,0,0,10.75-10.77s0-.05,0-.08l7.24-26.64,7.22,26.64c0,.05,0,.09,0,.15a15.44,15.44,0,0,0,10.75,10.7l.1,0Z"/><path class="cls-11" d="M712.43,86.32,685.7,93.59A15.26,15.26,0,0,0,675,104.29a.66.66,0,0,1-.05.15l-7.21,26.65-7.24-26.65s0-.06,0-.08a15.37,15.37,0,0,0-10.75-10.77l-26.74-7.27,26.64-7.24.1,0a15.37,15.37,0,0,0,10.75-10.77s0-.05,0-.08l7.24-26.64,7.21,26.64a.66.66,0,0,1,.05.15,15.44,15.44,0,0,0,10.75,10.7l.1,0Z"/><path d="M688.11,180.23a5,5,0,0,1,3.88,5.94,286,286,0,0,0-5,35.44,5,5,0,0,1-5,4.57,3.31,3.31,0,0,1-.44,0,5,5,0,0,1-4.56-5.42,298,298,0,0,1,5.17-36.64A5,5,0,0,1,688.11,180.23Z"/><path d="M649.38,241H692a22,22,0,0,1-42.6,0Z"/><path d="M664.36,220.74a5,5,0,0,1-4.57,5.42,3,3,0,0,1-.43,0,5,5,0,0,1-5-4.57,290.3,290.3,0,0,0-5-35.44,5,5,0,0,1,9.82-2.07A296.09,296.09,0,0,1,664.36,220.74Z"/><path class="cls-7" d="M728.41,163.63a91.12,91.12,0,1,0-115.45,0"/><path class="cls-7" d="M649.38,241a22,22,0,0,0,42.6,0"/><path class="cls-7" d="M613,163.63c17.74,27.26,23.67,45.09,29,77.32h57.37c5.38-32.23,11.3-50.06,29-77.32Z"/><path class="cls-7" d="M682,226.18a3.31,3.31,0,0,1-.44,0,5,5,0,0,1-4.56-5.42,298,298,0,0,1,5.17-36.64,5,5,0,0,1,9.82,2.07,286,286,0,0,0-5,35.44A5,5,0,0,1,682,226.18Z"/><path class="cls-7" d="M659.36,226.18a5,5,0,0,1-5-4.57,290.3,290.3,0,0,0-5-35.44,5,5,0,0,1,9.82-2.07,296.09,296.09,0,0,1,5.17,36.64,5,5,0,0,1-4.57,5.42A3,3,0,0,1,659.36,226.18Z"/><path class="cls-7" d="M818,244.23l-24-6.52a13.87,13.87,0,0,1-9.65-9.61l-6.52-24s-6.51,24-6.51,24a13.82,13.82,0,0,1-9.66,9.67l-24,6.52,24,6.52a13.85,13.85,0,0,1,9.66,9.67s6.51,24,6.51,24l6.52-24.05a13.88,13.88,0,0,1,9.65-9.62Z"/><path class="cls-7" d="M590.05,220.47l-13.51-3.68a7.79,7.79,0,0,1-5.44-5.41s-3.67-13.53-3.67-13.53l-3.66,13.5a7.78,7.78,0,0,1-5.44,5.44l-13.52,3.68,13.52,3.67a7.78,7.78,0,0,1,5.44,5.44l3.66,13.51s3.67-13.52,3.67-13.54a7.81,7.81,0,0,1,5.44-5.41Z"/><path class="cls-9" d="M333.34,846.22c-5.75-21.33-24.59-37-47-37H224.67c-22.37,0-41.21,15.65-47,37Z"/><path class="cls-12" d="M85.58,412.93v83.58A83.59,83.59,0,0,1,2,412.93Z"/><path class="cls-7" d="M85.58,496.51A83.59,83.59,0,0,1,2,412.93H85.58Z"/><rect class="cls-10" x="49.68" y="412.93" width="35.9" height="34.87"/></g></g></svg>