<svg xmlns="http://www.w3.org/2000/svg" xmlns:xlink="http://www.w3.org/1999/xlink" viewBox="0 0 1031.1 914.18"><defs><style>.cls-1,.cls-7{fill:none;}.cls-2{fill:#d7ccff;}.cls-3{fill:#fff;}.cls-4{fill:#8282d9;}.cls-5{fill:#ffb2e5;}.cls-6{fill:url(#New_Pattern_2);}.cls-7{stroke:#000;stroke-linecap:round;stroke-linejoin:round;stroke-width:4px;}</style><pattern id="New_Pattern_2" data-name="New Pattern 2" width="40" height="40" patternTransform="translate(0 -30)" patternUnits="userSpaceOnUse" viewBox="0 0 40 40"><rect class="cls-1" width="40" height="40"/><path d="M36.18,30a1.9,1.9,0,0,0,1.91,1.91V28.09A1.9,1.9,0,0,0,36.18,30Z"/><path d="M40,33.82a1.9,1.9,0,0,0,1.91-1.91H38.09A1.9,1.9,0,0,0,40,33.82Z"/><path d="M40,26.18a1.9,1.9,0,0,0-1.91,1.91h3.82A1.9,1.9,0,0,0,40,26.18Z"/><path d="M16.18,40a1.9,1.9,0,0,0,1.91,1.91V38.09A1.9,1.9,0,0,0,16.18,40Z"/><path d="M21.91,38.09v3.82a1.91,1.91,0,0,0,0-3.82Z"/><path d="M20,36.18a1.9,1.9,0,0,0-1.91,1.91h3.82A1.9,1.9,0,0,0,20,36.18Z"/><path d="M1.91,28.09v3.82a1.91,1.91,0,0,0,0-3.82Z"/><path d="M36.18,10a1.9,1.9,0,0,0,1.91,1.91V8.09A1.9,1.9,0,0,0,36.18,10Z"/><path d="M40,13.82a1.9,1.9,0,0,0,1.91-1.91H38.09A1.9,1.9,0,0,0,40,13.82Z"/><path d="M40,6.18a1.9,1.9,0,0,0-1.91,1.91h3.82A1.9,1.9,0,0,0,40,6.18Z"/><path d="M18.79,16.37a1.92,1.92,0,0,0-1.21,2.42l3.63-1.21A1.92,1.92,0,0,0,18.79,16.37Z"/><path d="M22.42,21.21l-3.63,1.21a1.91,1.91,0,0,0,3.63-1.21Z"/><path d="M16.37,21.21a1.92,1.92,0,0,0,2.42,1.21l-1.21-3.63A1.92,1.92,0,0,0,16.37,21.21Z"/><path d="M23.63,18.79a1.92,1.92,0,0,0-2.42-1.21l1.21,3.63A1.92,1.92,0,0,0,23.63,18.79Z"/><path d="M1.91,8.09v3.82a1.91,1.91,0,0,0,0-3.82Z"/><path d="M20,3.82a1.9,1.9,0,0,0,1.91-1.91H18.09A1.9,1.9,0,0,0,20,3.82Z"/><path d="M0,33.82a1.9,1.9,0,0,0,1.91-1.91H-1.91A1.9,1.9,0,0,0,0,33.82Z"/><path d="M0,26.18a1.9,1.9,0,0,0-1.91,1.91H1.91A1.9,1.9,0,0,0,0,26.18Z"/><path d="M0,13.82a1.9,1.9,0,0,0,1.91-1.91H-1.91A1.9,1.9,0,0,0,0,13.82Z"/><path d="M0,6.18A1.9,1.9,0,0,0-1.91,8.09H1.91A1.9,1.9,0,0,0,0,6.18Z"/><path d="M16.18,0a1.9,1.9,0,0,0,1.91,1.91V-1.91A1.9,1.9,0,0,0,16.18,0Z"/><path d="M21.91-1.91V1.91A1.9,1.9,0,0,0,23.82,0,1.9,1.9,0,0,0,21.91-1.91Z"/></pattern></defs><g id="Layer_2" data-name="Layer 2"><g id="illustrations"><path class="cls-2" d="M1029.1,727.56H954.71c-1.52-55.19-8.94-96.46-19.73-144.94h71.29C1023.85,634,1029.1,686.89,1029.1,727.56Z"/><path class="cls-3" d="M1006.27,582.62H935c10.79,48.48,18.21,89.75,19.73,144.94H869.07l-47.14-43c-7.09-56.75-22.34-126-52.8-188a261.69,261.69,0,0,0,2.52-96.42q3.87.3,7.65.67a74.87,74.87,0,0,1,49.39,26.21,80.35,80.35,0,0,0,62,28.17A73.74,73.74,0,0,1,946,478.46C974.32,509,993.53,545.4,1006.27,582.62Z"/><path class="cls-3" d="M964.75,814.77a56,56,0,1,1-75.46,82.79c-1.27-1.15-2.53-2.42-3.67-3.66l-83.09-91.17V709.54L758.09,754,701.5,691.89l61.24-61.24Z"/><path class="cls-2" d="M811.61,358.88a19,19,0,0,1,7-36.73,18.38,18.38,0,0,1,3.08.25A18.86,18.86,0,0,1,830.1,326h20.39a12.8,12.8,0,0,0,12.11-17,12.83,12.83,0,0,0,9.37-8.48,12.81,12.81,0,0,0,21.21-2.21,12.81,12.81,0,0,0,21,2.5,12.84,12.84,0,0,0,12.07,8.5,12.68,12.68,0,0,0,5.47-1.23,12.82,12.82,0,0,0,11.61,7.38,60.42,60.42,0,1,1-111.59,46c-1.62-.05-3.34-.13-5.1-.25a93.67,93.67,0,0,1-11-1.33l-.27,0A21.28,21.28,0,0,1,811.61,358.88Z"/><path class="cls-3" d="M945.41,361.75A57.11,57.11,0,0,1,947,375.38c0,13.78-4.27,24.94-9.52,24.94-3.78,0-7-5.76-8.58-14.11l-.05-.06a60.76,60.76,0,0,0,16.58-24.41Z"/><path d="M940.22,309.79a59.14,59.14,0,0,1,3.07,5.72,12.82,12.82,0,0,1-11.61-7.38,12.68,12.68,0,0,1-5.47,1.23,12.84,12.84,0,0,1-12.07-8.5,12.81,12.81,0,0,1-21-2.5A12.81,12.81,0,0,1,872,300.57a12.83,12.83,0,0,1-9.37,8.48,12.8,12.8,0,0,1-12.11,17H830.1a18.86,18.86,0,0,0-8.43-3.63C816,316,817.84,303.76,826.13,294c6.34-7.48,14.75-11.44,21.58-10.87a11,11,0,0,1,15.22-9.54A11,11,0,0,1,881,271.16a11,11,0,0,1,17,.65A11,11,0,0,1,914.67,277a11.4,11.4,0,0,1,2.2-.22,11,11,0,0,1,10.25,7A12.8,12.8,0,0,1,939,296.54a13.17,13.17,0,0,1-.39,3.17A13.18,13.18,0,0,0,940.22,309.79Z"/><path class="cls-3" d="M826.6,361.29a56.63,56.63,0,0,1,1.66,14.09c0,13.78-4.26,24.94-9.52,24.94s-9.51-11.16-9.51-24.94a53.25,53.25,0,0,1,2.38-16.5,21.28,21.28,0,0,0,3.68,1l.27,0A93.67,93.67,0,0,0,826.6,361.29Z"/><path class="cls-4" d="M821.93,684.59l-97.56-88.92h0a258,258,0,0,0,44.78-99C799.59,558.55,814.84,627.84,821.93,684.59Z"/><path d="M802.53,802.73V872.2H639.87l57.79-57.8a33.28,33.28,0,1,0,47.07-47.07l57.8-57.79Z"/><path class="cls-3" d="M734.06,438.83A222.57,222.57,0,0,0,730,399.21,218.84,218.84,0,0,0,604,241.82a89.85,89.85,0,0,0-6-13.2c.34-.19,10.46-5.89,12.3-28.45,84,33,146.6,108.49,161.31,200A259.63,259.63,0,0,1,485.84,699.43l5.4-40.52a221.84,221.84,0,0,0,24.31,1.34c120.7,0,218.54-97.85,218.54-218.54Q734.09,440.27,734.06,438.83Z"/><path class="cls-3" d="M758.47,233.94a11.27,11.27,0,1,1-11.26,11.26A11.27,11.27,0,0,1,758.47,233.94Z"/><path class="cls-2" d="M724.37,595.67l38.37,35L701.5,691.89,666.08,653v0a260.53,260.53,0,0,0,58.28-57.34Z"/><path class="cls-4" d="M701.5,691.89,758.09,754,745,767.08H476.83l9-67.65a262.54,262.54,0,0,0,29.71,1.68A258.21,258.21,0,0,0,666.07,653v0Z"/><path class="cls-4" d="M734.06,438.83q0,1.44,0,2.88c0,120.69-97.84,218.54-218.54,218.54a221.84,221.84,0,0,1-24.31-1.34l14.92-112L338.08,569.26A217.17,217.17,0,0,1,297.85,461a307.25,307.25,0,0,1,41.22-52.41q4.92-5,10.1-9.72a87.59,87.59,0,0,1,109.93-6.26,110.81,110.81,0,0,0,128.9,0,87.6,87.6,0,0,1,109.94,6.26c.77.7,1.53,1.4,2.28,2.11A286.41,286.41,0,0,1,734.06,438.83Z"/><path class="cls-3" d="M730,399.21a217.15,217.15,0,0,1,4.11,39.62,286.41,286.41,0,0,0-33.84-37.9Q715.55,399.56,730,399.21Z"/><path class="cls-5" d="M741.52,134.58A49.28,49.28,0,0,1,729,167.51c-6.29-16-16.61-27.33-25.88-32.77a15,15,0,1,0-22.12-.06c-9.28,5.38-19.62,16.73-25.94,32.69a49.47,49.47,0,1,1,86.5-32.79Z"/><path class="cls-3" d="M729,167.51a49.47,49.47,0,0,1-73.94-.14c6.32-16,16.66-27.31,25.94-32.69a15,15,0,0,0,22.12.06C712.35,140.18,722.67,151.55,729,167.51Z"/><path class="cls-3" d="M692.05,109.58a15,15,0,1,1-15,15A15,15,0,0,1,692.05,109.58Z"/><path d="M585.65,167.18c14.14.4,25.1,12.47,25,26.61,0,2.26-.12,4.39-.28,6.38-1.84,22.56-12,28.26-12.3,28.45h-111a19.29,19.29,0,0,0-17.84,12,19.27,19.27,0,0,1-17.83,12l-19.6.68a88.68,88.68,0,0,1,4.8-15.36,89.94,89.94,0,0,1,63-53.18c-.1-.62-.19-1.25-.26-1.88a37.51,37.51,0,0,1-.12-7.58,36.4,36.4,0,0,1,71.9-4.05A25.55,25.55,0,0,1,585.65,167.18Z"/><circle cx="570.24" cy="835.14" r="40.48"/><path class="cls-3" d="M598,228.62A89.79,89.79,0,0,1,518.27,362c-38.44-.53-71.12-25.56-83.34-59.93l-25.53,2.19A30.42,30.42,0,0,1,379,273.8c0-.95,0-1.89.14-2.81a30.41,30.41,0,0,1,52.69-17.77l19.6-.68a19.27,19.27,0,0,0,17.83-12,19.29,19.29,0,0,1,17.84-12Z"/><path class="cls-3" d="M521.6,87.71l-14.1,3.83a27.53,27.53,0,0,0-19.37,19.37L484.32,125l-3.81-14.08a27.5,27.5,0,0,0-19.36-19.37l-14.1-3.83,14.1-3.82a27.53,27.53,0,0,0,19.36-19.38l3.81-14.07,3.81,14.07A27.56,27.56,0,0,0,507.5,83.89Z"/><polygon class="cls-3" points="236.88 616.91 206.73 586.76 506.16 546.88 466.28 846.3 388.35 768.37 284.52 872.2 209.92 797.6 244.8 797.6 244.8 704.55 284.66 664.69 236.88 616.91"/><polygon class="cls-6" points="236.88 616.91 206.73 586.76 506.16 546.88 466.28 846.3 388.35 768.37 284.52 872.2 209.92 797.6 244.8 797.6 244.8 704.55 284.66 664.69 236.88 616.91"/><path class="cls-3" d="M499.59,184.68a89.94,89.94,0,0,0-63,53.18q-8.58,3.33-16.8,7.34A30.45,30.45,0,0,0,379.11,271,218.11,218.11,0,0,0,297,441.71q0,9.72.84,19.24a217.17,217.17,0,0,0,40.23,108.31l-45,6a258.22,258.22,0,0,1-37-133.54,261.44,261.44,0,0,1,2.29-34.59C274.65,285.46,375.17,190.47,499.32,182.8h0C499.4,183.43,499.49,184.06,499.59,184.68Z"/><polygon class="cls-3" points="442.01 875.62 334.78 875.62 388.39 822 442.01 875.62"/><path class="cls-3" d="M436.6,237.86a88.68,88.68,0,0,0-4.8,15.36,30.49,30.49,0,0,0-12-8Q428,241.2,436.6,237.86Z"/><polygon class="cls-3" points="428.2 25.37 403.54 50.03 380.58 50.03 405.24 25.37 428.2 25.37"/><path class="cls-3" d="M409.4,304.22l5.23-.45A30,30,0,0,1,409.4,304.22Z"/><polygon class="cls-3" points="405.24 25.37 404.83 25.78 404.83 25.37 405.24 25.37"/><polygon class="cls-3" points="404.83 25.37 404.83 25.78 380.58 50.03 380.17 50.03 380.17 26.66 404.83 2 404.83 25.37"/><polygon class="cls-3" points="380.58 50.03 380.17 50.44 380.17 50.03 380.58 50.03"/><path class="cls-4" d="M367.85,62.77a81.93,81.93,0,1,1-58.18-24.25A81.67,81.67,0,0,1,367.85,62.77ZM344.67,86a49.15,49.15,0,1,0,14.16,34.51A49,49,0,0,0,344.67,86Z"/><path class="cls-3" d="M321.5,109.12a16.39,16.39,0,1,0,4.56,11.34A16.34,16.34,0,0,0,321.5,109.12ZM344.67,86a49.15,49.15,0,1,1-35-14.65A49,49,0,0,1,344.67,86Z"/><path class="cls-3" d="M339.06,408.53h0A307.25,307.25,0,0,0,297.85,461q-.84-9.51-.84-19.24a219.44,219.44,0,0,1,2.9-35.66Q318.72,406.47,339.06,408.53Z"/><path class="cls-4" d="M321.5,109.12a16.39,16.39,0,1,1-11.83-5.05A16.36,16.36,0,0,1,321.5,109.12Z"/><path class="cls-4" d="M293.12,575.25l-47.29,6.3a533,533,0,0,1,22-62.72A257.83,257.83,0,0,0,293.12,575.25Z"/><path class="cls-4" d="M284.66,664.69,244.8,704.55V681.71H225.54c2.62-20.36,6.3-42.25,11.34-64.8Z"/><path class="cls-3" d="M256.15,441.71a259.19,259.19,0,0,0,11.66,77.12,533,533,0,0,0-22,62.72l-39.1,5.21,30.15,30.15c-5,22.55-8.72,44.44-11.34,64.8H147.68v45.85H76.39c1.52-54,8.94-94.44,19.73-141.91H24.83c12.75-36.45,32-72.14,60.32-102,14.35-15.09,34.46-23,55.28-22.72a81.08,81.08,0,0,0,62-27.58A75.37,75.37,0,0,1,251.8,407.7c2.19-.21,6.64-.58,6.64-.58A261.44,261.44,0,0,0,256.15,441.71Z"/><path class="cls-3" d="M256.15,255.3l-9,2.44a17.58,17.58,0,0,0-12.37,12.37l-2.43,9-2.43-9a17.56,17.56,0,0,0-12.36-12.37l-9-2.44,9-2.45a17.58,17.58,0,0,0,12.36-12.37l2.43-9,2.43,9a17.6,17.6,0,0,0,12.37,12.37Z"/><polygon class="cls-2" points="244.8 704.55 244.8 797.6 209.92 797.6 180.84 768.52 244.8 704.55"/><polygon points="244.8 681.71 244.8 704.55 180.84 768.52 209.92 797.6 147.68 797.6 147.68 681.71 244.8 681.71"/><path d="M216.57,330.75l-.9,0a21.23,21.23,0,0,0-10.85,3l-24.75,11.18V324.8H109.58a10.47,10.47,0,0,1-10.49-10.49v-9.12A34.24,34.24,0,0,1,133.33,271,13.67,13.67,0,0,1,147,284.63a11.15,11.15,0,0,0,10.57,11.13C174.48,296.64,206.72,302.15,216.57,330.75Z"/><path d="M209.25,372.48a21.84,21.84,0,0,0,7.18,1c-5.88,20.09-19,28.54-29.33,32.1A57.19,57.19,0,0,0,209.25,372.48Z"/><path class="cls-5" d="M108,324.8v-.12a10.57,10.57,0,0,0,1.6.12h70.49v20.07l24.75-11.18a21.23,21.23,0,0,1,10.85-3l.9,0a21.37,21.37,0,0,1,1.11,42.62c-.42,0-.84.06-1.25.08a21.33,21.33,0,0,1-7.18-1A57.17,57.17,0,1,1,108,324.8Z"/><path class="cls-5" d="M24.83,585.65H96.12c-10.79,47.47-18.21,87.87-19.73,141.91H2C2,687.74,7.25,636,24.83,585.65Z"/><polyline class="cls-7" points="380.17 50.44 380.17 26.66 404.83 2 404.83 25.78"/><polyline class="cls-7" points="404.83 25.37 428.2 25.37 403.54 50.03 380.17 50.03"/><path class="cls-7" d="M484.32,50.44l-3.81,14.07a27.53,27.53,0,0,1-19.36,19.38l-14.1,3.82,14.1,3.83a27.5,27.5,0,0,1,19.36,19.37L484.32,125l3.81-14.08A27.53,27.53,0,0,1,507.5,91.54l14.1-3.83-14.1-3.82a27.56,27.56,0,0,1-19.37-19.38Z"/><path class="cls-7" d="M232.35,231.5l-2.43,9a17.58,17.58,0,0,1-12.36,12.37l-9,2.45,9,2.44a17.56,17.56,0,0,1,12.36,12.37l2.43,9,2.43-9a17.58,17.58,0,0,1,12.37-12.37l9-2.44-9-2.45a17.6,17.6,0,0,1-12.37-12.37Z"/><path class="cls-7" d="M431.8,253.22l19.6-.68a19.27,19.27,0,0,0,17.83-12,19.29,19.29,0,0,1,17.84-12H598c.34-.19,10.47-5.89,12.3-28.45.16-2,.26-4.12.28-6.38.13-14.14-10.83-26.21-25-26.61a25.55,25.55,0,0,0-14.54,4,36.4,36.4,0,0,0-71.9,4.05,37.51,37.51,0,0,0,.12,7.58c.07.63.16,1.26.26,1.88a89.94,89.94,0,0,0-63,53.18,88.68,88.68,0,0,0-4.8,15.36A30.42,30.42,0,0,0,379.11,271c-.09.92-.14,1.86-.14,2.81a30.42,30.42,0,0,0,30.43,30.42,30,30,0,0,0,5.23-.45"/><path class="cls-7" d="M409.4,304.22,434.93,302c12.22,34.37,44.9,59.4,83.34,59.93A89.74,89.74,0,0,0,598,228.62"/><path class="cls-7" d="M422.62,265.38A15.26,15.26,0,0,0,394.27,271"/><polyline class="cls-7" points="532.59 258.45 532.59 295.29 516.79 295.29"/><path class="cls-7" d="M485.84,699.43a262.54,262.54,0,0,0,29.71,1.68A259.59,259.59,0,0,0,771.65,400.2c-14.73-91.54-77.33-167-161.31-200"/><path class="cls-7" d="M499.32,182.8c-124.15,7.67-224.66,102.66-240.88,224.32a261.33,261.33,0,0,0,9.37,111.71,257.83,257.83,0,0,0,25.31,56.42"/><path class="cls-7" d="M491.24,658.91a221.84,221.84,0,0,0,24.31,1.34c120.7,0,218.54-97.85,218.54-218.54q0-1.44,0-2.88A223.5,223.5,0,0,0,730,399.21,219,219,0,0,0,604,241.82"/><path class="cls-7" d="M436.6,237.86q-8.58,3.33-16.8,7.34"/><path class="cls-7" d="M379.11,271A218.11,218.11,0,0,0,297,441.71q0,9.72.84,19.24a217.45,217.45,0,0,0,40.23,108.31"/><path class="cls-7" d="M724.37,595.67l240.38,219.1a56,56,0,1,1-75.46,82.79c-1.27-1.15-2.53-2.42-3.67-3.66l-83.09-91.17"/><line class="cls-7" x1="701.5" y1="691.89" x2="762.74" y2="630.65"/><polygon class="cls-7" points="209.92 797.6 284.52 872.2 388.35 768.37 466.28 846.3 506.16 546.88 206.73 586.76 284.66 664.69 180.84 768.52 209.92 797.6"/><polygon class="cls-7" points="334.78 875.62 388.39 822 442.01 875.62 334.78 875.62"/><circle class="cls-7" cx="570.24" cy="835.14" r="40.48"/><path class="cls-7" d="M745,767.08l57.54-57.54V872.2H639.87l57.79-57.8a33.28,33.28,0,1,0,47.07-47.07Z"/><path class="cls-7" d="M326.06,120.46a16.39,16.39,0,1,0-16.39,16.39A16.36,16.36,0,0,0,326.06,120.46Z"/><path class="cls-7" d="M358.83,120.46a49.16,49.16,0,1,0-49.16,49.16A49,49,0,0,0,358.83,120.46Z"/><path class="cls-7" d="M391.61,120.46a81.94,81.94,0,1,0-81.94,81.94A81.67,81.67,0,0,0,391.61,120.46Z"/><line class="cls-7" x1="405.24" y1="25.37" x2="310.16" y2="120.46"/><path class="cls-7" d="M729,167.51A49.47,49.47,0,1,0,692.05,184,49.28,49.28,0,0,0,729,167.51Z"/><path class="cls-7" d="M703.08,134.74a15,15,0,1,0-11,4.84A15,15,0,0,0,703.08,134.74Z"/><path class="cls-7" d="M729,167.51c-6.29-16-16.61-27.33-25.88-32.77"/><path class="cls-7" d="M681,134.68c-9.28,5.38-19.62,16.73-25.94,32.69"/><path class="cls-7" d="M769.74,245.2a11.27,11.27,0,1,0-11.27,11.27A11.27,11.27,0,0,0,769.74,245.2Z"/><line class="cls-7" x1="476.83" y1="767.08" x2="744.99" y2="767.08"/><line class="cls-7" x1="758.09" y1="753.98" x2="666.08" y2="653.02"/><path class="cls-7" d="M821.93,684.59c-7.09-56.75-22.34-126-52.8-188"/><path class="cls-7" d="M734.08,438.85l0,0a292.53,292.53,0,0,0-33.84-37.9c-.75-.71-1.51-1.41-2.28-2.11A87.6,87.6,0,0,0,588,392.56a110.81,110.81,0,0,1-128.9,0,87.59,87.59,0,0,0-109.93,6.26c-3.46,3.15-6.81,6.39-10.1,9.72A309.93,309.93,0,0,0,297.85,461"/><path class="cls-7" d="M267.81,518.83a533,533,0,0,0-22,62.72"/><path class="cls-7" d="M236.88,616.91c-5,22.55-8.72,44.44-11.34,64.8"/><path class="cls-7" d="M147.68,727.56H2C2,687.74,7.24,636,24.83,585.65c12.74-36.45,32-72.14,60.32-102,14.35-15.09,34.46-23,55.28-22.72a81.08,81.08,0,0,0,62-27.58A75.37,75.37,0,0,1,251.8,407.7q3.28-.31,6.63-.58"/><path class="cls-7" d="M299.9,406.05h0q18.81.42,39.15,2.48"/><path class="cls-7" d="M869.07,727.56h160c0-40.67-5.24-93.54-22.83-144.94C993.53,545.4,974.32,509,946,478.46a73.74,73.74,0,0,0-55.27-23.21,80.35,80.35,0,0,1-62-28.17,74.87,74.87,0,0,0-49.39-26.21q-3.78-.37-7.65-.67"/><path class="cls-7" d="M730,399.21h0q-14.41.38-29.73,1.72"/><path class="cls-7" d="M24.83,585.65H96.12c-10.79,47.47-18.21,87.87-19.73,141.91"/><path class="cls-7" d="M1006.27,582.62H935c10.79,48.48,18.21,89.75,19.73,144.94"/><path class="cls-7" d="M227.41,349.63a12,12,0,0,0-21.22-4.88"/><path class="cls-7" d="M108,324.8a57.17,57.17,0,1,0,101.28,47.68,21.33,21.33,0,0,0,7.18,1c.41,0,.83,0,1.25-.08a21.37,21.37,0,0,0-1.11-42.62l-.9,0a21.23,21.23,0,0,0-10.85,3l-24.75,11.18V324.8H109.58a10.47,10.47,0,0,1-10.49-10.49v-9.12A34.24,34.24,0,0,1,133.33,271,13.67,13.67,0,0,1,147,284.63a11.15,11.15,0,0,0,10.57,11.13c16.91.88,49.15,6.39,59,35"/><path class="cls-7" d="M216.43,373.45c-5.88,20.09-19,28.54-29.33,32.1"/><polyline class="cls-7" points="145.25 343.06 136.6 371.43 147.68 371.43"/><path class="cls-7" d="M821.67,322.4C816,316,817.84,303.76,826.13,294c6.34-7.48,14.75-11.44,21.58-10.87a11,11,0,0,1,15.22-9.54A11,11,0,0,1,881,271.16a11,11,0,0,1,17,.65A11,11,0,0,1,914.67,277a11.4,11.4,0,0,1,2.2-.22,11,11,0,0,1,10.25,7A12.8,12.8,0,0,1,939,296.54a13.17,13.17,0,0,1-.39,3.17,13.18,13.18,0,0,0,1.59,10.08,59.14,59.14,0,0,1,3.07,5.72,60.36,60.36,0,0,1,5.68,27.8,59.73,59.73,0,0,1-3.58,18.43,60.42,60.42,0,0,1-113.69-.2c-1.62-.05-3.34-.13-5.1-.25a93.67,93.67,0,0,1-11-1.33"/><path class="cls-7" d="M827.36,335.08a9.69,9.69,0,0,0-17.23,6.1v0"/><path class="cls-7" d="M893.35,326.7v26.52a4.93,4.93,0,0,1-4.93,4.93h-6.58"/><path class="cls-7" d="M815.56,360l-.27,0a21.28,21.28,0,0,1-3.68-1,19,19,0,0,1,7-36.73,18.38,18.38,0,0,1,3.08.25A19,19,0,0,1,830.1,326h20.39a12.8,12.8,0,0,0,12.11-17,12.83,12.83,0,0,0,9.37-8.48,12.81,12.81,0,0,0,21.21-2.21,12.81,12.81,0,0,0,21,2.5,12.84,12.84,0,0,0,12.07,8.5,12.68,12.68,0,0,0,5.47-1.23,12.82,12.82,0,0,0,11.61,7.38h0"/><path class="cls-7" d="M826.6,361.29a56.63,56.63,0,0,1,1.66,14.09c0,13.78-4.26,24.94-9.52,24.94s-9.51-11.16-9.51-24.94a53.25,53.25,0,0,1,2.38-16.5c1.43-4.25,3.4-7.2,5.63-8.13"/><path class="cls-7" d="M945.41,361.75A57.11,57.11,0,0,1,947,375.38c0,13.78-4.27,24.94-9.52,24.94-3.78,0-7-5.76-8.58-14.11"/><polygon class="cls-7" points="244.8 704.55 244.8 797.6 147.68 797.6 147.68 681.71 244.8 681.71 244.8 704.55"/></g></g></svg>