<svg xmlns="http://www.w3.org/2000/svg" xmlns:xlink="http://www.w3.org/1999/xlink" viewBox="0 0 973.78 802.75"><defs><style>.cls-1,.cls-2,.cls-3{fill:none;}.cls-2,.cls-3{stroke:#000;stroke-linecap:round;stroke-linejoin:round;}.cls-2{stroke-width:1.5px;}.cls-3{stroke-width:4px;}.cls-4{fill:#373a3a;}.cls-5{fill:#fff;}.cls-6{fill:#ffb2e5;}.cls-7{fill:#8282d9;}.cls-8{fill:#d7ccff;}.cls-9{fill:url(#New_Pattern_2);}.cls-10{fill:url(#New_Pattern);}</style><pattern id="New_Pattern_2" data-name="New Pattern 2" width="40" height="40" patternTransform="translate(-2480.02 117.12)" patternUnits="userSpaceOnUse" viewBox="0 0 40 40"><rect class="cls-1" width="40" height="40"/><path d="M36.18,30a1.9,1.9,0,0,0,1.91,1.91V28.09A1.9,1.9,0,0,0,36.18,30Z"/><path d="M40,33.82a1.9,1.9,0,0,0,1.91-1.91H38.09A1.9,1.9,0,0,0,40,33.82Z"/><path d="M40,26.18a1.9,1.9,0,0,0-1.91,1.91h3.82A1.9,1.9,0,0,0,40,26.18Z"/><path d="M16.18,40a1.9,1.9,0,0,0,1.91,1.91V38.09A1.9,1.9,0,0,0,16.18,40Z"/><path d="M21.91,38.09v3.82a1.91,1.91,0,0,0,0-3.82Z"/><path d="M20,36.18a1.9,1.9,0,0,0-1.91,1.91h3.82A1.9,1.9,0,0,0,20,36.18Z"/><path d="M1.91,28.09v3.82a1.91,1.91,0,0,0,0-3.82Z"/><path d="M36.18,10a1.9,1.9,0,0,0,1.91,1.91V8.09A1.9,1.9,0,0,0,36.18,10Z"/><path d="M40,13.82a1.9,1.9,0,0,0,1.91-1.91H38.09A1.9,1.9,0,0,0,40,13.82Z"/><path d="M40,6.18a1.9,1.9,0,0,0-1.91,1.91h3.82A1.9,1.9,0,0,0,40,6.18Z"/><path d="M18.79,16.37a1.92,1.92,0,0,0-1.21,2.42l3.63-1.21A1.92,1.92,0,0,0,18.79,16.37Z"/><path d="M22.42,21.21l-3.63,1.21a1.91,1.91,0,0,0,3.63-1.21Z"/><path d="M16.37,21.21a1.92,1.92,0,0,0,2.42,1.21l-1.21-3.63A1.92,1.92,0,0,0,16.37,21.21Z"/><path d="M23.63,18.79a1.92,1.92,0,0,0-2.42-1.21l1.21,3.63A1.92,1.92,0,0,0,23.63,18.79Z"/><path d="M1.91,8.09v3.82a1.91,1.91,0,0,0,0-3.82Z"/><path d="M20,3.82a1.9,1.9,0,0,0,1.91-1.91H18.09A1.9,1.9,0,0,0,20,3.82Z"/><path d="M0,33.82a1.9,1.9,0,0,0,1.91-1.91H-1.91A1.9,1.9,0,0,0,0,33.82Z"/><path d="M0,26.18a1.9,1.9,0,0,0-1.91,1.91H1.91A1.9,1.9,0,0,0,0,26.18Z"/><path d="M0,13.82a1.9,1.9,0,0,0,1.91-1.91H-1.91A1.9,1.9,0,0,0,0,13.82Z"/><path d="M0,6.18A1.9,1.9,0,0,0-1.91,8.09H1.91A1.9,1.9,0,0,0,0,6.18Z"/><path d="M16.18,0a1.9,1.9,0,0,0,1.91,1.91V-1.91A1.9,1.9,0,0,0,16.18,0Z"/><path d="M21.91-1.91V1.91A1.9,1.9,0,0,0,23.82,0,1.9,1.9,0,0,0,21.91-1.91Z"/></pattern><pattern id="New_Pattern" data-name="New Pattern" width="70" height="50" patternTransform="translate(-2184.02 -372.88)" patternUnits="userSpaceOnUse" viewBox="0 0 70 50"><rect class="cls-1" width="70" height="50"/><path class="cls-2" d="M8.89,100c-.05-7.08.29-14.17.29-21.25,0-4.32-.37-17.48-.29-28.09"/><path class="cls-2" d="M22.94,99.84c0-1.65.09-3.31.09-5,0-2.48-.21-5-.21-7.45s0-3.83.05-7.28c0-1.44-.06-2.9-.06-4.35,0-3.1.31-4.62.31-7.37,0-1.4-.27-4.94-.27-8.33q0-1.61.09-3.21V50.11"/><path class="cls-2" d="M36.74,99.84c0-9.46.33-18.09.33-27.56,0-3.7-.15-7.46-.15-11.2,0-3.35-.1-7.29-.18-10.75"/><path class="cls-2" d="M50.93,99.75c0-1.24-.07-2.75-.07-4,0-1.92,0-3.86,0-5.79,0-3.87,0-7.66,0-11.51a8.42,8.42,0,0,1-.08-1.22c0-.32.18-6.68.18-8,0-2.2-.21-3.25-.21-5.64,0-1.3.06-2.65.17-3.86,0-2.89,0-5.89,0-9.05"/><path class="cls-2" d="M65,99.71c0-8.34-.55-15.73-.36-24.06.18-8.13.16-17.71.36-25.19"/><path class="cls-2" d="M8.89,50c-.05-7.08.29-14.17.29-21.25,0-4.32-.37-17.48-.29-28.09"/><path class="cls-2" d="M22.94,49.84c0-1.65.09-3.31.09-5,0-2.48-.21-5-.21-7.45s0-3.83.05-7.28c0-1.44-.06-2.9-.06-4.35,0-3.1.31-4.62.31-7.37,0-1.4-.27-4.94-.27-8.33q0-1.6.09-3.21V.11"/><path class="cls-2" d="M36.74,49.84c0-9.46.33-18.09.33-27.56,0-3.7-.15-7.46-.15-11.2,0-3.35-.1-7.29-.18-10.75"/><path class="cls-2" d="M50.93,49.75c0-1.24-.07-2.75-.07-4,0-1.92,0-3.86,0-5.79,0-3.87,0-7.66,0-11.51a8.42,8.42,0,0,1-.08-1.22c0-.32.18-6.68.18-8,0-2.2-.21-3.25-.21-5.64,0-1.3.06-2.65.17-3.86,0-2.89,0-5.89,0-9"/><path class="cls-2" d="M65,49.71c0-8.34-.55-15.73-.36-24.06.18-8.13.16-17.71.36-25.19"/><path class="cls-2" d="M8.89,0c-.05-7.08.29-14.17.29-21.25,0-4.32-.37-17.48-.29-28.09"/><path class="cls-2" d="M22.94-.16c0-1.65.09-3.31.09-5,0-2.48-.21-5-.21-7.45s0-3.83.05-7.28c0-1.44-.06-2.9-.06-4.35,0-3.1.31-4.62.31-7.37,0-1.4-.27-4.94-.27-8.33q0-1.61.09-3.21v-6.71"/><path class="cls-2" d="M36.74-.16c0-9.46.33-18.09.33-27.56,0-3.7-.15-7.46-.15-11.2,0-3.35-.1-7.29-.18-10.75"/><path class="cls-2" d="M50.93-.25c0-1.24-.07-2.75-.07-4,0-1.92,0-3.86,0-5.79,0-3.87,0-7.66,0-11.51a8.42,8.42,0,0,1-.08-1.22c0-.32.18-6.68.18-8,0-2.2-.21-3.25-.21-5.64,0-1.3.06-2.65.17-3.86,0-2.89,0-5.89,0-9.05"/><path class="cls-2" d="M65-.29c0-8.34-.55-15.73-.36-24.06.18-8.13.16-17.71.36-25.19"/></pattern></defs><g id="Layer_2" data-name="Layer 2"><g id="illustrations"><path class="cls-3" d="M423.69,39.48,401.31,33.4a12.93,12.93,0,0,1-9-9L386.23,2s-6.07,22.36-6.08,22.38a12.9,12.9,0,0,1-9,9l-22.4,6.08,22.4,6.08a12.9,12.9,0,0,1,9,9S386.23,77,386.23,77l6.08-22.43a12.93,12.93,0,0,1,9-9Z"/><path class="cls-4" d="M402.56,119.32l-8.33-2.27a4.79,4.79,0,0,1-3.35-3.33s-2.27-8.36-2.27-8.36l-2.26,8.34a4.8,4.8,0,0,1-3.35,3.35l-8.34,2.27,8.34,2.26a4.83,4.83,0,0,1,3.35,3.36l2.26,8.34s2.26-8.34,2.27-8.36a4.82,4.82,0,0,1,3.35-3.34Z"/><path class="cls-3" d="M654.71,79.38l-13.13-3.56a7.6,7.6,0,0,1-5.28-5.26s-3.56-13.15-3.56-13.15-3.56,13.11-3.56,13.12a7.57,7.57,0,0,1-5.28,5.29l-13.13,3.56L623.9,83a7.57,7.57,0,0,1,5.28,5.29s3.56,13.12,3.56,13.12,3.56-13.13,3.56-13.15A7.6,7.6,0,0,1,641.58,83Z"/><path class="cls-5" d="M971.78,752.48h0a48.29,48.29,0,0,1-48.28,48.26h-641a46.9,46.9,0,0,1-46.92-46.81v-.1c0-24.86,19.16-45.15,50.18-45.15,20,0,25.64,8.08,38.05,8.08,29.91,0,20.59-63.4,71.72-63.46h.14c23.48,0,38.9,32,62.36,32,33.51,0,48.73-41.51,73.85-72.38,14.89-18.29,33.28-32.86,61-32.86H593c35.37,0,51,16.47,60.83,36.75,15.84,32.7,16.55,75.39,60.45,75.39,28.31,0,42.4-36.33,73.13-36.33.92,0,1.81,0,2.68.07,55.48,2.49,12.92,88.47,69.94,88.47,14,0,28.24-8.49,43.63-15.08,9.76-4.18,20-7.59,31-7.59C953.35,721.78,971.78,731,971.78,752.48Z"/><path class="cls-5" d="M874,375.32a39,39,0,1,1-66.28-3.92,36.21,36.21,0,0,1,5.16-6,1.85,1.85,0,0,1,.28-.28l66.79-65.46L848,276.75l42.84-43.1C903,243.9,915.17,254.49,926,264.1a45.49,45.49,0,0,1-1.16,69.13Z"/><path class="cls-6" d="M823.16,429.18l80.47,300.19C888.24,736,874,744.45,860,744.45c-57,0-14.46-85.83-69.94-88.47L730.53,420.57,653.8,616.85C644,596.57,628.34,580.13,593,580.1V538.8l75.32-181.64h0c44.26,6.46,87,5.64,136,1.76l3.35,12.48h0a39,39,0,0,0,15.47,57.78Z"/><path class="cls-7" d="M890.82,233.65,848,276.75l-37-26.59-12.46,59.46a71.56,71.56,0,0,0,2.85,39.5c.76,2,1.41,4.08,2,6.19l1,3.61c-49.05,3.88-91.77,4.7-136-1.76h0s4.9-11.76,5.2-12.43c6.84-15.07,9.38-31.76,6.34-48a190.86,190.86,0,0,1-3.32-35.26,178.44,178.44,0,0,1,2.72-31.21H621.91V175.69h14c33.65,0,53.37-22.26,78.13,2.51,8.76,8.75,14.71,19.19,35.56,19.19,35.88,0,43.89-22.24,72.65-13.13C834.57,188.17,862.71,210,890.82,233.65Z"/><path d="M814,172.14H723.42l5.89-27.37a33.79,33.79,0,0,0,59-5.81l8.22-2.43a11,11,0,0,0,8.33-7.65A186.53,186.53,0,0,1,814,172.14Z"/><path class="cls-5" d="M805.28,125.71a10.94,10.94,0,0,1-.46,3.17,11.09,11.09,0,0,1-8.33,7.65L788.27,139a33.78,33.78,0,0,1-63.35-23.22h64.55a11,11,0,0,1,9.91.2A11,11,0,0,1,805.28,125.71Z"/><path d="M799.39,115.93h0a11,11,0,0,0-9.91-.2H717.76s6.57-28.95,42.82-28.95C779.18,86.79,791.4,100,799.39,115.93Z"/><path class="cls-5" d="M541.06,108.52a60.09,60.09,0,0,0-19.72-15.84V76.61L490.79,108.9a8.24,8.24,0,0,1-13-10L485.12,87h0l4.37-7.08-2.4-1.52a21.18,21.18,0,0,1-9.57-21.25l.75-4.69A21.18,21.18,0,0,1,489.49,37l38.84-20a30.88,30.88,0,0,1,35.17,4.82,31.74,31.74,0,0,1,9.62,18.75l18.25,123.6a13.49,13.49,0,0,0,13.35,11.52h17.19v54.57H584.37a65.35,65.35,0,0,0-45.81-32l-1.14-9.83a60.12,60.12,0,0,0,3.64-79.93Z"/><path d="M593,538.8v41.3h-.09c-27.71,0-46.1,14.57-61,32.86V377.55H593Z"/><path class="cls-5" d="M593,262.65V281.3a65.23,65.23,0,0,1-30.3,55.11v28.75a12.38,12.38,0,1,1-24.76,0V345.77a67.31,67.31,0,0,1-10.21.78H490.62v18.61a12.39,12.39,0,1,1-24.77,0V346.55h-5a67.31,67.31,0,0,1-7-.36v19a12.39,12.39,0,1,1-24.77,0V338.33A65.33,65.33,0,0,1,419,331.39h10.77a34.19,34.19,0,1,0,0-68.38H408.56a34.19,34.19,0,0,0-13,2.56v-2.92a65.28,65.28,0,0,1,65.27-65.26h1.65q1.91,1.19,3.88,2.24a65.2,65.2,0,0,0-25.67,13.66h39.41a65.11,65.11,0,0,1,42.69-15.89h4.93a65.05,65.05,0,0,1,56.67,32.87A64.92,64.92,0,0,1,593,262.65Z"/><path class="cls-8" d="M554.53,146.44a60.16,60.16,0,0,1-28.19,50.95h-3.57a65,65,0,0,0-33.08,9,59.68,59.68,0,0,1-23.35-6.76q-2-1.05-3.88-2.24A60.14,60.14,0,0,1,485.12,87l-7.33,11.89a8.24,8.24,0,0,0,13,10l19.39-20.49a60.17,60.17,0,0,1,44.35,58Z"/><path class="cls-5" d="M531.89,377.55V613c-25.12,30.87-40.34,72.38-73.85,72.38-23.46,0-38.88-32-62.36-32h-.14V377.55Z"/><path class="cls-9" d="M531.89,377.55V613c-25.12,30.87-40.34,72.38-73.85,72.38-23.46,0-38.88-32-62.36-32h-.14V377.55Z"/><path class="cls-5" d="M525.87,346.55v18.61a12.38,12.38,0,1,1-24.76,0V346.55Z"/><path d="M489.69,206.38a65.49,65.49,0,0,0-9.61,6.9H440.67a65.2,65.2,0,0,1,25.67-13.66A59.68,59.68,0,0,0,489.69,206.38Z"/><path d="M429.74,263a34.19,34.19,0,1,1,0,68.38H408.56a34.19,34.19,0,1,0,0-68.38Z"/><path class="cls-5" d="M408.56,263a34.14,34.14,0,1,1-13,2.56A34.2,34.2,0,0,1,408.56,263Zm15.14,34.18a6.45,6.45,0,1,0-6.45,6.45A6.44,6.44,0,0,0,423.7,297.19Zm-22.2,0a6.44,6.44,0,1,0-6.45,6.45A6.44,6.44,0,0,0,401.5,297.19Z"/><path d="M417.25,290.76a6.44,6.44,0,1,1-6.44,6.43A6.44,6.44,0,0,1,417.25,290.76Z"/><path class="cls-5" d="M416.49,214.73h0a65.09,65.09,0,0,0-16,22.87h0A83.87,83.87,0,0,1,399,220c0-5.57-.29-17.56,5.39-17.56C408.34,202.43,412.71,208.08,416.49,214.73Z"/><path d="M395.05,290.76a6.44,6.44,0,1,1-6.43,6.43A6.44,6.44,0,0,1,395.05,290.76Z"/><path class="cls-3" d="M395.54,653.31c-51.13.06-41.81,63.46-71.72,63.46-12.41,0-18.1-8.08-38.05-8.08-31,0-50.18,20.29-50.18,45.15v.1a46.9,46.9,0,0,0,46.92,46.81h641a48.29,48.29,0,0,0,48.28-48.26h0c0-21.52-18.43-30.7-37.18-30.7-11,0-21.21,3.41-31,7.59C888.24,736,874,744.45,860,744.45c-57,0-14.46-86-69.94-88.47-.87,0-1.76-.07-2.68-.07-30.73,0-44.82,36.33-73.13,36.33-43.9,0-44.61-42.68-60.45-75.39C644,596.57,628.34,580.12,593,580.1h-.09c-27.71,0-46.1,14.57-61,32.86-25.13,30.87-40.34,72.38-73.85,72.38-23.46,0-38.88-32-62.36-32Z"/><polyline class="cls-3" points="395.54 653.31 395.54 377.55 592.97 377.55 592.97 580.1"/><line class="cls-3" x1="531.89" y1="377.55" x2="531.89" y2="612.96"/><path class="cls-3" d="M525.87,346.55v18.61a12.38,12.38,0,1,1-24.76,0V346.55"/><path class="cls-3" d="M408.56,331.39a34.2,34.2,0,1,0-34.19-34.2A34.2,34.2,0,0,0,408.56,331.39Z"/><path class="cls-3" d="M401.5,297.19a6.44,6.44,0,1,0-6.45,6.45A6.44,6.44,0,0,0,401.5,297.19Z"/><path class="cls-3" d="M423.7,297.19a6.45,6.45,0,1,0-6.45,6.45A6.44,6.44,0,0,0,423.7,297.19Z"/><path class="cls-3" d="M395.54,265.57v-2.92a65.28,65.28,0,0,1,65.27-65.26h1.65"/><path class="cls-3" d="M527.7,197.39a65.05,65.05,0,0,1,56.67,32.87,65,65,0,0,1,8.6,32.39V281.3a65.23,65.23,0,0,1-30.3,55.11v28.75a12.38,12.38,0,1,1-24.76,0V345.77a67.31,67.31,0,0,1-10.21.78H490.62v18.61a12.39,12.39,0,1,1-24.77,0V346.55h-5a67.31,67.31,0,0,1-7-.36v19a12.39,12.39,0,1,1-24.77,0V338.33A65.33,65.33,0,0,1,419,331.39"/><path class="cls-3" d="M466.34,199.62a65.2,65.2,0,0,0-25.67,13.66h39.41a65.11,65.11,0,0,1,42.69-15.89H531"/><path class="cls-3" d="M408.56,263h21.18a34.19,34.19,0,1,1,0,68.38H408.56"/><line class="cls-3" x1="416.68" y1="248.17" x2="462.34" y2="248.17"/><path class="cls-3" d="M400.52,237.61A83.87,83.87,0,0,1,399,220c0-5.57-.29-17.56,5.39-17.56,3.92,0,8.29,5.65,12.07,12.3"/><path class="cls-3" d="M493.17,229.49c7.11-7,21.9-19.18,29.56-19.18,3.22,0,4.89,2.17,4.89,6.44,0,10.6-13.07,29.45-22.19,35.42"/><path class="cls-3" d="M526.34,197.39a60.15,60.15,0,0,0-16.16-109"/><path class="cls-3" d="M485.12,87a60.14,60.14,0,0,0-22.66,110.36q1.91,1.19,3.88,2.24a59.89,59.89,0,0,0,23.35,6.76"/><path class="cls-3" d="M489.85,79.39,485.13,87h0l-7.33,11.89a8.24,8.24,0,0,0,13,10l30.55-32.29V92.67"/><line class="cls-3" x1="502.67" y1="58.6" x2="489.85" y2="79.37"/><path class="cls-3" d="M490.67,52.41c-1.27,5.83-2.48,11.1-2.48,16.54a30.61,30.61,0,0,0,1.66,10.42v0"/><path class="cls-3" d="M549,84a115,115,0,0,0-7.92,24.49"/><line class="cls-3" x1="537.42" y1="188.45" x2="538.56" y2="198.28"/><path class="cls-3" d="M584.37,230.26h94.86a178.44,178.44,0,0,0-2.72,31.21,190.86,190.86,0,0,0,3.32,35.26c3,16.24.5,32.93-6.34,48C673.19,345.4,593,538.8,593,538.8"/><polyline class="cls-3" points="653.8 616.86 730.53 420.57 790.06 655.98"/><line class="cls-3" x1="802.58" y1="352.41" x2="807.68" y2="371.4"/><line class="cls-3" x1="823.16" y1="429.18" x2="903.63" y2="729.37"/><path class="cls-3" d="M668.3,357.16c44.26,6.46,87,5.64,136,1.76"/><path class="cls-3" d="M489,79.62l-1.89-1.2a21.18,21.18,0,0,1-9.57-21.25l.75-4.69A21.18,21.18,0,0,1,489.49,37l38.84-20a30.88,30.88,0,0,1,35.17,4.82,31.74,31.74,0,0,1,9.62,18.75l18.25,123.6a13.49,13.49,0,0,0,13.35,11.52h31.16c33.65,0,53.37-22.26,78.13,2.51,8.76,8.75,14.71,19.19,35.56,19.19,35.88,0,43.89-22.24,72.65-13.13,12.35,3.91,40.5,25.74,68.6,49.39C903,243.9,915.17,254.49,926,264.1a45.49,45.49,0,0,1-1.16,69.13L856.24,390a11.26,11.26,0,0,0-4.07,9.28l.24,4.86a7,7,0,0,0,7,6.67H862"/><path class="cls-3" d="M803.36,355.31c-.57-2.11-1.22-4.18-2-6.19a71.56,71.56,0,0,1-2.85-39.5L811,250.16l68.93,49.54-66.79,65.46"/><path class="cls-3" d="M813.13,365.16a1.85,1.85,0,0,0-.28.28,37.12,37.12,0,0,0-5.16,6A39,39,0,1,0,874,375.32"/><line class="cls-3" x1="621.91" y1="175.69" x2="621.91" y2="230.26"/><line class="cls-3" x1="847.98" y1="276.75" x2="890.82" y2="233.65"/><path class="cls-3" d="M724.92,115.74A33.78,33.78,0,0,0,788.27,139l8.22-2.43a11.09,11.09,0,0,0,8.33-7.65,10.94,10.94,0,0,0,.46-3.17,11.06,11.06,0,0,0-5.9-9.77,11,11,0,0,0-9.91-.2H717.76s6.57-28.95,42.82-28.95c18.6,0,30.82,13.16,38.81,29.14"/><path class="cls-3" d="M804.82,128.88A186.53,186.53,0,0,1,814,172.14H723.42l5.89-27.37"/><path class="cls-3" d="M792.66,121.59l.53,0c3.12,0,4.75,2.55,5.78,5.37"/><path d="M507.46,161.35q-3.22,3.3-9.37,4.22v6h-6.53v-5.82a34.14,34.14,0,0,1-7.72-1.38,22.41,22.41,0,0,1-6-2.75l3.53-7.94a22.79,22.79,0,0,0,5.93,2.72,22.55,22.55,0,0,0,6.63,1c4.13,0,6.2-1,6.2-3.1a2.56,2.56,0,0,0-1.77-2.42,32.1,32.1,0,0,0-5.68-1.66,55,55,0,0,1-7.18-2,12,12,0,0,1-4.94-3.4,9.17,9.17,0,0,1-2.07-6.31,10.9,10.9,0,0,1,3.37-8q3.38-3.33,9.73-4.1v-6h6.53v5.87a31.12,31.12,0,0,1,6,1.09,21.72,21.72,0,0,1,5.08,2.12l-3.31,8a22.15,22.15,0,0,0-10.55-2.94,8.79,8.79,0,0,0-4.68,1,2.86,2.86,0,0,0-1.46,2.47,2.46,2.46,0,0,0,1.74,2.28,30.71,30.71,0,0,0,5.6,1.58,54.31,54.31,0,0,1,7.2,2,12.54,12.54,0,0,1,4.95,3.37,9,9,0,0,1,2.09,6.28A10.73,10.73,0,0,1,507.46,161.35Z"/><path class="cls-7" d="M428.25,465.06A136.18,136.18,0,0,1,442.92,549l-24.32,167a48.39,48.39,0,0,0-25.31,23.86h-94l41.37-193.12a62.51,62.51,0,0,0-9-47.52L272.3,409.19l-7.81,30.19L235,366.57a48.4,48.4,0,0,0,27.51-43.75,49.05,49.05,0,0,0-.45-6.44h86.72Z"/><path d="M436.93,784.44a8,8,0,0,1-4.87,14.24H286.67l12.61-58.9h94a48.39,48.39,0,0,1,25.31-23.86l-4.86,33.35a26.75,26.75,0,0,0,10.07,25Z"/><path class="cls-5" d="M143,243.78l-15.77,19.16-62.4-46.31,58.71-74.3a60.46,60.46,0,0,1,80.17-13.39c11.46,7.39,22.43,14.27,41.8,14.27,30.94,0,53.5-33.37,79.85-.32,22.59,28.35,3.58,89.34,23.42,173.49H262a48.62,48.62,0,0,0-45.19-41.75,47.18,47.18,0,0,0-4.9,0l16.41-34.83H168.82l19.79,42a48.66,48.66,0,0,0-11.29,9.72H164.75Z"/><path class="cls-10" d="M143,243.78l-15.77,19.16-62.4-46.31,58.71-74.3a60.46,60.46,0,0,1,80.17-13.39c11.46,7.39,22.43,14.27,41.8,14.27,30.94,0,53.5-33.37,79.85-.32,22.59,28.35,3.58,89.34,23.42,173.49H262a48.62,48.62,0,0,0-45.19-41.75,47.18,47.18,0,0,0-4.9,0l16.41-34.83H168.82l19.79,42a48.66,48.66,0,0,0-11.29,9.72H164.75Z"/><path class="cls-6" d="M272.3,409.19l24.05,36.43L281,533.31a66.92,66.92,0,0,1-54.86,54.48l14.23-55.07A71.82,71.82,0,0,0,267.19,446l-2.7-6.66Z"/><path d="M208.74,72.48l-4-10.69,17.52,16.45A35.84,35.84,0,0,0,241,87.58c32,5.19,44.68-21.61,44.68-21.61,7.25,10.33,18.54,32.48-4.49,47.12-30.9,19.64-67.12-7.58-67.12-7.58l1.4-15.23Z"/><path class="cls-5" d="M267.19,446a71.72,71.72,0,1,1-133,0l30.3-74.76h49.61A48.26,48.26,0,0,0,235,366.57ZM245.8,461.18a45.1,45.1,0,1,0-45.1,45.11A45.11,45.11,0,0,0,245.8,461.18Z"/><path class="cls-6" d="M103.67,291.55h73.65a48.66,48.66,0,0,1,11.29-9.72A48,48,0,0,1,212,274.61a47.18,47.18,0,0,1,4.9,0,48.36,48.36,0,0,1-2.72,96.65H58.62A56.64,56.64,0,0,1,13,348.81a55.81,55.81,0,0,1,1-67.87l50.81-64.31,62.4,46.31Z"/><path class="cls-7" d="M240.37,532.72l-53.5,207.06H86.08A48.17,48.17,0,0,0,69.59,714l62.49-220.13a71.74,71.74,0,0,0,108.29,38.87Z"/><path d="M200.7,416.07a45.11,45.11,0,1,1-45.1,45.11A45.11,45.11,0,0,1,200.7,416.07Z"/><path class="cls-5" d="M228.36,239.78,212,274.61a48,48,0,0,0-23.34,7.22l-19.79-42Z"/><path class="cls-6" d="M245.23,22.34a40.51,40.51,0,0,0-40.49,39.45l17.52,16.45A35.84,35.84,0,0,0,241,87.58c32,5.19,44.68-21.61,44.68-21.61q.12-1.55.12-3.12A40.52,40.52,0,0,0,245.23,22.34Z"/><path class="cls-6" d="M183.13,76a15.45,15.45,0,0,0,15.45,15.44,17.39,17.39,0,0,0,2.06-.13l14.78-1L204.74,61.79A15.47,15.47,0,0,0,183.13,76Z"/><path d="M186.87,739.78l-15.22,58.9H38.16a8,8,0,0,1-5.32-13.87l16.63-15a26.74,26.74,0,0,0,7.84-12.58L69.59,714a48.17,48.17,0,0,1,16.49,25.8Z"/><path class="cls-3" d="M88.65,291.55h88.67A48.27,48.27,0,0,1,212,274.61a47.18,47.18,0,0,1,4.9,0,48.36,48.36,0,0,1-2.72,96.65H58.62A56.64,56.64,0,0,1,13,348.81a55.81,55.81,0,0,1,1-67.87L123.52,142.33a60.46,60.46,0,0,1,80.17-13.39c11.46,7.39,22.43,14.27,41.8,14.27,30.94,0,53.5-33.37,79.85-.32,22.59,28.35,3.58,89.34,23.42,173.49l79.49,148.68A136.18,136.18,0,0,1,442.92,549L413.74,749.27a26.75,26.75,0,0,0,10.07,25l13.12,10.19a8,8,0,0,1-4.87,14.24H286.67l54-252a62.51,62.51,0,0,0-9-47.52L272.3,409.19l-7.81,30.19"/><path class="cls-3" d="M240.37,532.72l-68.72,266H38.16a8,8,0,0,1-5.32-13.87l16.63-15a26.74,26.74,0,0,0,7.84-12.58l74.77-263.42"/><line class="cls-3" x1="103.67" y1="291.55" x2="161.41" y2="221.39"/><line class="cls-3" x1="127.21" y1="262.94" x2="64.81" y2="216.63"/><path class="cls-3" d="M235,366.57,267.19,446a71.72,71.72,0,1,1-133,0l30.3-74.76"/><polyline class="cls-3" points="188.61 281.83 168.82 239.78 228.36 239.78 211.95 274.61"/><path class="cls-3" d="M245.8,461.18a45.1,45.1,0,1,0-45.1,45.11A45.11,45.11,0,0,0,245.8,461.18Z"/><line class="cls-3" x1="200.56" y1="91.28" x2="215.42" y2="90.28"/><path class="cls-3" d="M285.63,66q.12-1.55.12-3.12a40.51,40.51,0,0,0-81-1.06,15.45,15.45,0,1,0-6.16,29.62,17.39,17.39,0,0,0,2.06-.13"/><path class="cls-3" d="M204.74,61.79l17.52,16.45A35.84,35.84,0,0,0,241,87.58c32,5.19,44.68-21.61,44.68-21.61,7.25,10.33,18.54,32.48-4.49,47.12-30.9,19.64-67.12-7.58-67.12-7.58l1.4-15.23Z"/><path class="cls-3" d="M193.17,73.82c3-4,10.09-4.08,15.57-1.34h0"/><path class="cls-3" d="M418.6,715.92a48.39,48.39,0,0,0-25.31,23.86h-94"/><path class="cls-3" d="M186.87,739.78H86.08A48.17,48.17,0,0,0,69.59,714"/><line class="cls-3" x1="348.76" y1="316.38" x2="262.04" y2="316.38"/><line class="cls-3" x1="142.98" y1="243.78" x2="164.75" y2="291.55"/><path class="cls-3" d="M296.35,445.62,281,533.31a66.92,66.92,0,0,1-54.86,54.48"/><path class="cls-5" d="M213.52,477.07c-2.2,2.23-5.39,3.67-9.57,4.29v6.16h-6.66v-5.93a34.81,34.81,0,0,1-7.87-1.42,22.78,22.78,0,0,1-6.16-2.8l3.61-8.1a23.34,23.34,0,0,0,6,2.78,23.09,23.09,0,0,0,6.77,1.05q6.31,0,6.32-3.16a2.62,2.62,0,0,0-1.8-2.47,32.78,32.78,0,0,0-5.8-1.69,55.65,55.65,0,0,1-7.32-2,12.34,12.34,0,0,1-5.05-3.46,9.41,9.41,0,0,1-2.11-6.44,11.12,11.12,0,0,1,3.44-8.18q3.45-3.41,9.93-4.19v-6.1H204v6a33.06,33.06,0,0,1,6.07,1.11,23.12,23.12,0,0,1,5.19,2.16l-3.38,8.16a22.6,22.6,0,0,0-10.77-3,9.1,9.1,0,0,0-4.77,1,2.93,2.93,0,0,0-1.49,2.53,2.51,2.51,0,0,0,1.77,2.33,32.24,32.24,0,0,0,5.72,1.61,52.62,52.62,0,0,1,7.34,2,12.62,12.62,0,0,1,5.05,3.44,9.16,9.16,0,0,1,2.14,6.41A11,11,0,0,1,213.52,477.07Z"/></g></g></svg>