<svg xmlns="http://www.w3.org/2000/svg" xmlns:xlink="http://www.w3.org/1999/xlink" viewBox="0 0 940.24 910.29"><defs><style>.cls-1,.cls-2,.cls-9{fill:none;}.cls-2,.cls-9{stroke:#000;stroke-linecap:round;stroke-linejoin:round;}.cls-2{stroke-width:1.5px;}.cls-3{fill:#fff;}.cls-4{fill:url(#New_Pattern);}.cls-5{fill:#8282d9;}.cls-6{fill:#ffb2e5;}.cls-7{fill:url(#New_Pattern_2);}.cls-8{fill:#d7ccff;}.cls-9{stroke-width:4px;}</style><pattern id="New_Pattern" data-name="New Pattern" width="70" height="50" patternTransform="translate(-55.7 -36.79) scale(1.02)" patternUnits="userSpaceOnUse" viewBox="0 0 70 50"><rect class="cls-1" width="70" height="50"/><path class="cls-2" d="M8.89,100c-.05-7.08.29-14.17.29-21.25,0-4.32-.37-17.48-.29-28.09"/><path class="cls-2" d="M22.94,99.84c0-1.65.09-3.31.09-5,0-2.48-.21-5-.21-7.45s0-3.83.05-7.28c0-1.44-.06-2.9-.06-4.35,0-3.1.31-4.62.31-7.37,0-1.4-.27-4.94-.27-8.33q0-1.61.09-3.21V50.11"/><path class="cls-2" d="M36.74,99.84c0-9.46.33-18.09.33-27.56,0-3.7-.15-7.46-.15-11.2,0-3.35-.1-7.29-.18-10.75"/><path class="cls-2" d="M50.93,99.75c0-1.24-.07-2.75-.07-4,0-1.92,0-3.86,0-5.79,0-3.87,0-7.66,0-11.51a8.42,8.42,0,0,1-.08-1.22c0-.32.18-6.68.18-8,0-2.2-.21-3.25-.21-5.64,0-1.3.06-2.65.17-3.86,0-2.89,0-5.89,0-9.05"/><path class="cls-2" d="M65,99.71c0-8.34-.55-15.73-.36-24.06.18-8.13.16-17.71.36-25.19"/><path class="cls-2" d="M8.89,50c-.05-7.08.29-14.17.29-21.25,0-4.32-.37-17.48-.29-28.09"/><path class="cls-2" d="M22.94,49.84c0-1.65.09-3.31.09-5,0-2.48-.21-5-.21-7.45s0-3.83.05-7.28c0-1.44-.06-2.9-.06-4.35,0-3.1.31-4.62.31-7.37,0-1.4-.27-4.94-.27-8.33q0-1.6.09-3.21V.11"/><path class="cls-2" d="M36.74,49.84c0-9.46.33-18.09.33-27.56,0-3.7-.15-7.46-.15-11.2,0-3.35-.1-7.29-.18-10.75"/><path class="cls-2" d="M50.93,49.75c0-1.24-.07-2.75-.07-4,0-1.92,0-3.86,0-5.79,0-3.87,0-7.66,0-11.51a8.42,8.42,0,0,1-.08-1.22c0-.32.18-6.68.18-8,0-2.2-.21-3.25-.21-5.64,0-1.3.06-2.65.17-3.86,0-2.89,0-5.89,0-9"/><path class="cls-2" d="M65,49.71c0-8.34-.55-15.73-.36-24.06.18-8.13.16-17.71.36-25.19"/><path class="cls-2" d="M8.89,0c-.05-7.08.29-14.17.29-21.25,0-4.32-.37-17.48-.29-28.09"/><path class="cls-2" d="M22.94-.16c0-1.65.09-3.31.09-5,0-2.48-.21-5-.21-7.45s0-3.83.05-7.28c0-1.44-.06-2.9-.06-4.35,0-3.1.31-4.62.31-7.37,0-1.4-.27-4.94-.27-8.33q0-1.61.09-3.21v-6.71"/><path class="cls-2" d="M36.74-.16c0-9.46.33-18.09.33-27.56,0-3.7-.15-7.46-.15-11.2,0-3.35-.1-7.29-.18-10.75"/><path class="cls-2" d="M50.93-.25c0-1.24-.07-2.75-.07-4,0-1.92,0-3.86,0-5.79,0-3.87,0-7.66,0-11.51a8.42,8.42,0,0,1-.08-1.22c0-.32.18-6.68.18-8,0-2.2-.21-3.25-.21-5.64,0-1.3.06-2.65.17-3.86,0-2.89,0-5.89,0-9.05"/><path class="cls-2" d="M65-.29c0-8.34-.55-15.73-.36-24.06.18-8.13.16-17.71.36-25.19"/></pattern><pattern id="New_Pattern_2" data-name="New Pattern 2" width="40" height="40" patternTransform="translate(-35.24 -36.79) scale(1.02)" patternUnits="userSpaceOnUse" viewBox="0 0 40 40"><rect class="cls-1" width="40" height="40"/><path d="M36.18,30a1.9,1.9,0,0,0,1.91,1.91V28.09A1.9,1.9,0,0,0,36.18,30Z"/><path d="M40,33.82a1.9,1.9,0,0,0,1.91-1.91H38.09A1.9,1.9,0,0,0,40,33.82Z"/><path d="M40,26.18a1.9,1.9,0,0,0-1.91,1.91h3.82A1.9,1.9,0,0,0,40,26.18Z"/><path d="M16.18,40a1.9,1.9,0,0,0,1.91,1.91V38.09A1.9,1.9,0,0,0,16.18,40Z"/><path d="M21.91,38.09v3.82a1.91,1.91,0,0,0,0-3.82Z"/><path d="M20,36.18a1.9,1.9,0,0,0-1.91,1.91h3.82A1.9,1.9,0,0,0,20,36.18Z"/><path d="M1.91,28.09v3.82a1.91,1.91,0,0,0,0-3.82Z"/><path d="M36.18,10a1.9,1.9,0,0,0,1.91,1.91V8.09A1.9,1.9,0,0,0,36.18,10Z"/><path d="M40,13.82a1.9,1.9,0,0,0,1.91-1.91H38.09A1.9,1.9,0,0,0,40,13.82Z"/><path d="M40,6.18a1.9,1.9,0,0,0-1.91,1.91h3.82A1.9,1.9,0,0,0,40,6.18Z"/><path d="M18.79,16.37a1.92,1.92,0,0,0-1.21,2.42l3.63-1.21A1.92,1.92,0,0,0,18.79,16.37Z"/><path d="M22.42,21.21l-3.63,1.21a1.91,1.91,0,0,0,3.63-1.21Z"/><path d="M16.37,21.21a1.92,1.92,0,0,0,2.42,1.21l-1.21-3.63A1.92,1.92,0,0,0,16.37,21.21Z"/><path d="M23.63,18.79a1.92,1.92,0,0,0-2.42-1.21l1.21,3.63A1.92,1.92,0,0,0,23.63,18.79Z"/><path d="M1.91,8.09v3.82a1.91,1.91,0,0,0,0-3.82Z"/><path d="M20,3.82a1.9,1.9,0,0,0,1.91-1.91H18.09A1.9,1.9,0,0,0,20,3.82Z"/><path d="M0,33.82a1.9,1.9,0,0,0,1.91-1.91H-1.91A1.9,1.9,0,0,0,0,33.82Z"/><path d="M0,26.18a1.9,1.9,0,0,0-1.91,1.91H1.91A1.9,1.9,0,0,0,0,26.18Z"/><path d="M0,13.82a1.9,1.9,0,0,0,1.91-1.91H-1.91A1.9,1.9,0,0,0,0,13.82Z"/><path d="M0,6.18A1.9,1.9,0,0,0-1.91,8.09H1.91A1.9,1.9,0,0,0,0,6.18Z"/><path d="M16.18,0a1.9,1.9,0,0,0,1.91,1.91V-1.91A1.9,1.9,0,0,0,16.18,0Z"/><path d="M21.91-1.91V1.91A1.9,1.9,0,0,0,23.82,0,1.9,1.9,0,0,0,21.91-1.91Z"/></pattern></defs><g id="Layer_2" data-name="Layer 2"><g id="illustrations"><path class="cls-3" d="M927.17,664.77a25.05,25.05,0,0,1-14,45.84H787.48a25,25,0,0,1-16-5.75l6.88-17.34H882A56.19,56.19,0,0,0,927.17,664.77Z"/><path class="cls-3" d="M502,582.3v326H467.7c0-24.44-30.58-35.65-40.58-54.63a29.92,29.92,0,0,1-1.72-3.94l-52-267.42Z"/><path class="cls-4" d="M927.17,664.77a25.05,25.05,0,0,1-14,45.84H787.48a25,25,0,0,1-16-5.75l6.88-17.34H882A56.19,56.19,0,0,0,927.17,664.77Z"/><polygon class="cls-3" points="935.35 564.02 935.35 582.3 373.42 582.3 369.87 564.02 935.35 564.02"/><path class="cls-5" d="M764.66,722.13,712.5,853.66H591.25l84-211.28a106.43,106.43,0,0,1,30.13-42,105,105,0,0,1,9.18-7,106.57,106.57,0,0,1,21.08-11.12H909.75A56.28,56.28,0,0,1,882,687.52H778.39Z"/><path class="cls-6" d="M850.5,460l44.34-22,24.77,64a45.57,45.57,0,0,1-71.22,51.84c-12.26-10-25.5-23-39.37-38-29.93-32.46-62.82-74.74-95.26-118.74a124.86,124.86,0,0,1-17.83-34.17l-8-23.66a23.45,23.45,0,0,1,1.6-18.69l4.71-8.7h0A34.91,34.91,0,0,0,717.56,328l5.28-27.12a8.92,8.92,0,0,1,17.65,1c.44,5.59,1.18,13.38,2.37,21.24,1.83,12,4.68,24.22,9.06,29Z"/><path class="cls-3" d="M907.47,908.29h-53l-19.13-39.66V866.7a62.62,62.62,0,0,1,12.26-1.2,63.19,63.19,0,0,1,59.86,42.79Z"/><path class="cls-3" d="M869.94,373.58,894.84,438,850.5,460l-88.78-97.17c8.36-3.29,16.4-9.51,26.6-16,1-.63,1.95-1.21,3-1.76a55.41,55.41,0,0,1,78.66,28.53Z"/><path class="cls-3" d="M703.84,490.1H676V477.82H637.19V408.17a51.13,51.13,0,0,1,56.88-50.77l1.86,5.49a124.86,124.86,0,0,0,17.83,34.17c32.44,44,65.33,86.28,95.26,118.74H712.28a8.44,8.44,0,0,1-8.44-8.44Z"/><path class="cls-7" d="M869.94,373.58,894.84,438,850.5,460l-88.78-97.17c8.36-3.29,16.4-9.51,26.6-16,1-.63,1.95-1.21,3-1.76a55.41,55.41,0,0,1,78.66,28.53Z"/><path class="cls-6" d="M877.06,564H676V490.1h27.84v17.26a8.44,8.44,0,0,0,8.44,8.44H809c13.87,15.05,27.11,28,39.37,38A45.28,45.28,0,0,0,877.06,564Z"/><path d="M871.69,328A41.88,41.88,0,0,1,860,357.06a55.56,55.56,0,0,0-68.71-12A41.8,41.8,0,0,1,787.66,328a42.54,42.54,0,0,1,.74-7.88c-13.2,1.93-23.93-1.89-32.73-11.54-7.73-8.49-14-21.47-19.11-39,0,0-46.76,18-46.9,18h0A19.38,19.38,0,1,1,695.48,255L724.06,243c28.49-12,43.8,15.76,43.8,15.76,22.16-7.73,42.6.59,50.51,28.79A42.08,42.08,0,0,1,871.69,328Z"/><path class="cls-3" d="M859.87,710.61V866.69a63.55,63.55,0,0,0-12.26-1.19,62.62,62.62,0,0,0-12.26,1.2V710.61Z"/><path class="cls-3" d="M859,187.45l-8.94,2.44a17.47,17.47,0,0,0-12.29,12.3l-2.42,8.93-2.42-8.93a17.47,17.47,0,0,0-12.29-12.3l-8.94-2.44,8.94-2.42a17.47,17.47,0,0,0,12.29-12.3l2.42-8.93,2.42,8.93A17.47,17.47,0,0,0,850.06,185Z"/><polygon points="835.35 868.63 854.48 908.29 690.84 908.29 712.5 853.66 828.13 853.66 835.35 868.63"/><path class="cls-3" d="M835.35,866.7v1.93l-.85-1.77Z"/><polygon class="cls-5" points="764.66 722.13 828.13 853.66 712.5 853.66 764.66 722.13"/><path class="cls-8" d="M818.85,124l-13.26,3.6a25.89,25.89,0,0,0-18.22,18.21L783.79,159l-3.58-13.24A25.88,25.88,0,0,0,762,127.57L748.74,124l13.26-3.6a25.89,25.89,0,0,0,18.21-18.22l3.58-13.23,3.58,13.23a25.9,25.9,0,0,0,18.22,18.22Z"/><path class="cls-7" d="M703.84,490.1H676V477.82H637.19V408.17a51.13,51.13,0,0,1,56.88-50.77l1.86,5.49a124.86,124.86,0,0,0,17.83,34.17c32.44,44,65.33,86.28,95.26,118.74H712.28a8.44,8.44,0,0,1-8.44-8.44Z"/><path class="cls-6" d="M791.28,345.05c-1,.55-2,1.13-3,1.76-10.2,6.51-18.24,12.73-26.6,16l-9.8-10.72c-4.38-4.8-7.23-17-9.06-29a35,35,0,0,0,12.81-14.54c8.8,9.65,19.53,13.47,32.73,11.54a42.54,42.54,0,0,0-.74,7.88A41.8,41.8,0,0,0,791.28,345.05Z"/><path class="cls-3" d="M753.52,180.5a11.33,11.33,0,1,1-11.33,11.33A11.32,11.32,0,0,1,753.52,180.5Z"/><path class="cls-6" d="M755.67,308.55a35,35,0,0,1-12.81,14.54c-1.19-7.86-1.93-15.65-2.37-21.24a8.92,8.92,0,0,0-17.65-1L717.56,328a35,35,0,0,1-28.43-34.33,35.42,35.42,0,0,1,.52-6,0,0,0,0,0,0,0,3.35,3.35,0,0,0,.38-.14l46.52-17.91C741.69,287.08,747.94,300.06,755.67,308.55Z"/><path d="M688.54,582.3h47.08a106.57,106.57,0,0,0-21.08,11.12,105,105,0,0,0-9.18,7A56.09,56.09,0,0,0,688.54,582.3Z"/><path d="M712.5,853.66l-21.66,54.63H512.29c0-9.66,9.62-16.82,22.21-23.13,20.8-10.4,49.71-18.44,56.75-31.5Z"/><path class="cls-3" d="M676.94,89.09a36.19,36.19,0,1,1-35.22,61.39,26.31,26.31,0,0,1-20.65,9.94c-.59,0-1.18,0-1.75-.06a26.46,26.46,0,0,1-22.43-15.67,26.44,26.44,0,0,1-47.15,2.37,26.53,26.53,0,0,1-15.3,12.23,26.49,26.49,0,0,1-30.3-11.62,37.57,37.57,0,1,1-30.85-62.92,47.55,47.55,0,0,1,42.82-64.13A47.82,47.82,0,0,1,533,23.07a28.25,28.25,0,0,1,54.17-1.59A37.35,37.35,0,0,1,649.6,45.32a37.93,37.93,0,0,1-.3,9.61,22.41,22.41,0,0,1,27.64,34.16Z"/><path class="cls-5" d="M688.54,582.3a56.09,56.09,0,0,1,16.82,18.09,106.43,106.43,0,0,0-30.13,42l-33.49,84.26-35.6-73.32a56.27,56.27,0,0,1,18.82-71Z"/><path class="cls-3" d="M689.66,287.59a0,0,0,0,1,0,0h0Z"/><rect class="cls-3" x="591.08" y="542.47" width="84.92" height="21.55"/><rect class="cls-3" x="591.08" y="520.92" width="84.92" height="21.56"/><rect class="cls-8" x="591.08" y="499.37" width="84.92" height="21.55"/><polygon class="cls-3" points="676 490.1 676 499.37 591.08 499.37 591.08 477.82 676 477.82 676 490.1"/><path class="cls-5" d="M664.85,197.86l-135.8,95.78,28.09-78.33H510l24.42-56a26.53,26.53,0,0,0,15.3-12.23,26.44,26.44,0,0,0,47.15-2.37,26.41,26.41,0,0,0,22.43,15.67l-17.89,37.5Z"/><path class="cls-6" d="M517.78,486a11.77,11.77,0,0,0-21.91,4.33l-.08.64A11.77,11.77,0,0,0,476,498l-.32,2.52-54.51-66.15a298,298,0,0,1-41.23-66l70.42-30.24h0l3.45,8.06a113.62,113.62,0,0,0,16.72,27.44l75.85,92a38.06,38.06,0,0,1,7.78,15.75.24.24,0,0,1,0,.08c2.35,7.26,2.54,18.12,2.18,27a20.46,20.46,0,0,1-16,19.11c-2.56.57-5.28,1.09-8,1.51-2.08.32-4.17.57-6.2.73a12,12,0,0,1-3.65.1,11.8,11.8,0,0,1-10.18-13.17l3.23-25.27A11.6,11.6,0,0,1,517.78,486Z"/><path class="cls-6" d="M539.56,548.07a11.77,11.77,0,1,1-22,8.36L507,528.54a11.88,11.88,0,0,0,6.82-4.46h0a11.76,11.76,0,0,0,8.72,5.85,12,12,0,0,0,3.65-.1c2-.16,4.12-.41,6.2-.73Z"/><path class="cls-3" d="M534.37,884.9l.13.26c-12.59,6.31-22.21,13.47-22.21,23.13H502v-326h32.37Z"/><path class="cls-6" d="M517.78,486a11.6,11.6,0,0,0-2.22,5.51l-3.23,25.27a11.72,11.72,0,0,0,1.46,7.32h0a11.88,11.88,0,0,1-6.82,4.46,11.39,11.39,0,0,1-4.13.2,11.79,11.79,0,0,1-9.57-7.63,11.66,11.66,0,0,1-.62-5.53l3.23-25.27A11.77,11.77,0,0,1,517.78,486Z"/><path class="cls-4" d="M502,582.3v326H467.7c0-24.44-30.58-35.65-40.58-54.63a29.92,29.92,0,0,1-1.72-3.94l-52-267.42Z"/><path class="cls-6" d="M495.79,491l-3.15,24.63a11.66,11.66,0,0,0,.62,5.53,11.77,11.77,0,0,1-18.85-10.82L476,498a11.77,11.77,0,0,1,19.81-7Z"/><path d="M467.7,908.29H330.9V853.66h96.22C437.12,872.64,467.7,883.85,467.7,908.29Z"/><polygon points="434.16 520.92 462.48 564.02 405.85 564.02 434.16 520.92"/><path class="cls-3" d="M365.23,334.37,339.5,407.84H156.73c.08-17.52.65-34.81,1.84-51.73C162.65,298.28,174.1,244.7,199,200.84c6.19-10.92,14.73-16.38,23.11-19,12.43-3.94,25.73,1.36,33,12.15,12.61,18.6,38.83,22.62,56.87,10.33l.1-.06a57.31,57.31,0,0,1,48.4-7.87,59,59,0,0,1,5.68,2c11,4.58,19.81,10.1,26.66,16.7a38.14,38.14,0,0,1,10.94,14.56l46.58,108.5h0l-70.42,30.24C378.93,366.22,369.31,343.86,365.23,334.37Z"/><path class="cls-5" d="M252.68,520.33V848.65a15.49,15.49,0,0,0,.84,5H156.71c0-74.56,0-444.24,0-445.82H339.5L369.86,564h0l55.53,285.7a29.92,29.92,0,0,0,1.72,3.94H330.9v-2.13Z"/><path class="cls-6" d="M371.09,143.66a45.3,45.3,0,0,1-10.59,52.69,57.31,57.31,0,0,0-48.4,7.87l-.1.06a45.2,45.2,0,0,1-27.09-41.43,44.52,44.52,0,0,1,.88-8.86c-2.41,22.48,35,40.94,59.61,12.39a39.4,39.4,0,0,1,14.07-10.53,21.55,21.55,0,0,0,11.53-12Z"/><path d="M353.77,128.33a10.85,10.85,0,0,1,14.72-5.83,11.11,11.11,0,0,1,5.35,14.12L371,143.85a21.55,21.55,0,0,1-11.53,12,39.4,39.4,0,0,0-14.07,10.53c-24.63,28.55-62,10.09-59.61-12.39,0,0,0-.08,0-.11a45.93,45.93,0,0,1,1.73-6.21l17-43.57a11.07,11.07,0,0,1,13.73-6.64A10.84,10.84,0,0,1,325.61,108l.32-.81A16.8,16.8,0,0,1,348.45,98c8.25,3.68,11.89,13.45,8.61,21.88Z"/><path d="M301.13,908.29H156.71V853.66h96.81C260,872.71,301.13,885.75,301.13,908.29Z"/><path class="cls-3" d="M288.5,145.17l-1,2.5C287.83,146.82,288.16,146,288.5,145.17Z"/><path class="cls-3" d="M287.53,147.67a45.93,45.93,0,0,0-1.73,6.21A21.12,21.12,0,0,1,287.53,147.67Z"/><path class="cls-3" d="M156.73,407.84c0,1.58,0,75.65,0,129.57a94.87,94.87,0,0,1-34.78,3L37.37,455.86a94.38,94.38,0,0,1,11.29-55H108V355a94.9,94.9,0,0,1,50.54,1.11C157.38,373,156.81,390.32,156.73,407.84Z"/><rect class="cls-5" x="104.14" y="270.87" width="35.56" height="35.56"/><path d="M37.37,455.86l84.56,84.56c-33,7-50.36,15.69-77.91,35.35l-42-42C21.67,506.22,30.38,488.82,37.37,455.86Zm41.37,74.4a5.2,5.2,0,1,0-5.68-8.71,309.62,309.62,0,0,0-30.62,23,5.19,5.19,0,0,0-.63,7.32,2,2,0,0,0,.31.33,5.18,5.18,0,0,0,7,.32A297.07,297.07,0,0,1,78.74,530.26ZM56.22,504.71A5.19,5.19,0,1,0,47.53,499a299.63,299.63,0,0,1-22.31,29.62,5.24,5.24,0,0,0,.31,7,3.39,3.39,0,0,0,.34.31,5.18,5.18,0,0,0,7.31-.64A303.1,303.1,0,0,0,56.22,504.71Z"/><path class="cls-8" d="M108,355v45.82H48.66A94.6,94.6,0,0,1,108,355Z"/><path class="cls-3" d="M108,329.69V355a94.6,94.6,0,0,0-59.37,45.82H36.9V329.69Z"/><path class="cls-3" d="M80.26,523.07a5.19,5.19,0,0,1-1.52,7.19,297.07,297.07,0,0,0-29.62,22.3,5.18,5.18,0,0,1-7-.32,2,2,0,0,1-.31-.33,5.19,5.19,0,0,1,.63-7.32,309.62,309.62,0,0,1,30.62-23A5.22,5.22,0,0,1,80.26,523.07Z"/><path class="cls-3" d="M54.71,497.52a5.19,5.19,0,0,1,1.51,7.19,303.1,303.1,0,0,1-23,30.62,5.18,5.18,0,0,1-7.31.64,3.39,3.39,0,0,1-.34-.31,5.24,5.24,0,0,1-.31-7A299.63,299.63,0,0,0,47.53,499,5.18,5.18,0,0,1,54.71,497.52Z"/><path class="cls-5" d="M7.4,539.17l31.21,31.2A22.78,22.78,0,0,1,7.4,539.17Z"/><path class="cls-9" d="M619.32,160.36c.57,0,1.16.06,1.75.06a26.31,26.31,0,0,0,20.65-9.94,36.19,36.19,0,1,0,35.22-61.39A22.41,22.41,0,0,0,649.3,54.93a37.93,37.93,0,0,0,.3-9.61,37.35,37.35,0,0,0-62.45-23.84A28.25,28.25,0,0,0,533,23.07a47.53,47.53,0,0,0-62.62,42.58,47.29,47.29,0,0,0,2.93,19.1,37.58,37.58,0,1,0,30.85,62.92,26.43,26.43,0,0,0,45.6-.61,26.44,26.44,0,0,0,47.15-2.37A26.46,26.46,0,0,0,619.32,160.36Z"/><path class="cls-9" d="M492.5,127a13.19,13.19,0,0,0-19.56-16.35"/><path class="cls-9" d="M633.83,82.59a13.18,13.18,0,0,0,23.44-10"/><path class="cls-9" d="M507.49,62.67a13,13,0,0,0-4.18,2.54A13.16,13.16,0,0,0,510,88"/><path class="cls-9" d="M610.77,90.62a13.17,13.17,0,0,0-24.22-7.88"/><path class="cls-9" d="M656.77,127.51a12.93,12.93,0,0,0-.48-4.87,13.17,13.17,0,0,0-23.48-3.79"/><path class="cls-9" d="M601.81,36.51a13.19,13.19,0,0,0,14.53,16.21,13.06,13.06,0,0,0,7.84-4"/><path class="cls-9" d="M570.75,112.55a13.17,13.17,0,0,0,15.47,15.32,13,13,0,0,0,7.58-4.46"/><path class="cls-9" d="M564.66,52.91A13,13,0,0,0,565,48a13.18,13.18,0,0,0-22.56-7.56"/><path class="cls-9" d="M565,79.24A13.17,13.17,0,0,0,543,92"/><path class="cls-9" d="M526.06,123.2a13.18,13.18,0,0,0,24.87-5.56"/><polyline class="cls-9" points="534.44 159.29 510.02 215.31 557.14 215.31 529.05 293.64 664.85 197.86 601.43 197.86 619.32 160.36"/><polyline class="cls-9" points="369.86 564.02 339.5 407.84 365.24 334.37"/><path class="cls-9" d="M211.31,471.86c11.14,24.22,21.23,34.86,41.37,48.47l78.22,331.2v56.76H467.7c0-24.44-30.63-35.62-40.58-54.63a28.13,28.13,0,0,1-1.72-3.94L369.87,564"/><line class="cls-9" x1="156.71" y1="853.66" x2="253.52" y2="853.66"/><line class="cls-9" x1="330.9" y1="853.66" x2="427.12" y2="853.66"/><line class="cls-9" x1="339.5" y1="407.84" x2="156.72" y2="407.84"/><path class="cls-9" d="M392.84,215.06a38.14,38.14,0,0,1,10.94,14.56l50,116.56a113.62,113.62,0,0,0,16.72,27.44l75.85,92a38.06,38.06,0,0,1,7.78,15.75"/><path class="cls-9" d="M475.66,500.49l-54.51-66.15a299.35,299.35,0,0,1-41.23-66c-1-2.14-45.49-105.77-46.57-108.31"/><path class="cls-9" d="M252.68,520.33V848.65a15.49,15.49,0,0,0,.84,5c6.47,19.05,47.61,32.09,47.61,54.63H156.71s.67-535.26,1.86-552.18C162.66,298.28,174.1,244.7,199,200.84c6.19-10.92,14.73-16.38,23.11-19,12.43-3.94,25.73,1.36,33,12.15,12.61,18.6,38.83,22.62,56.87,10.33l.1-.06a57.34,57.34,0,0,1,48.4-7.87,59,59,0,0,1,5.68,2c11,4.58,19.87,10,26.66,16.7l.09.09"/><path class="cls-9" d="M121.93,540.42a94.87,94.87,0,0,0,34.78-3"/><path class="cls-9" d="M158.57,356.11a94.37,94.37,0,0,0-121.2,99.75"/><path class="cls-9" d="M7.4,539.17a22.78,22.78,0,0,0,31.21,31.2"/><path class="cls-9" d="M37.37,455.86c-7,33-15.7,50.36-35.37,77.9l42,42c27.55-19.66,44.94-28.38,77.91-35.35Z"/><path class="cls-9" d="M42.12,552.24a2,2,0,0,1-.31-.33,5.19,5.19,0,0,1,.63-7.32,309.62,309.62,0,0,1,30.62-23,5.2,5.2,0,1,1,5.68,8.71,297.07,297.07,0,0,0-29.62,22.3A5.18,5.18,0,0,1,42.12,552.24Z"/><path class="cls-9" d="M25.53,535.66a5.24,5.24,0,0,1-.31-7A299.63,299.63,0,0,0,47.53,499a5.19,5.19,0,1,1,8.69,5.68,303.1,303.1,0,0,1-23,30.62,5.18,5.18,0,0,1-7.31.64A3.39,3.39,0,0,1,25.53,535.66Z"/><polygon class="cls-9" points="108.03 355 108.03 400.82 36.9 400.82 36.9 329.69 108.03 329.69 108.03 355"/><rect class="cls-9" x="104.14" y="270.87" width="35.56" height="35.56"/><path class="cls-9" d="M285.79,154a44.52,44.52,0,0,0-.88,8.86A45.2,45.2,0,0,0,312,204.28"/><path class="cls-9" d="M288.5,145.17c-.34.82-.67,1.65-1,2.5a45.93,45.93,0,0,0-1.73,6.21"/><path class="cls-9" d="M360.5,196.35a45.3,45.3,0,0,0,10.59-52.69"/><path class="cls-9" d="M353.77,128.33l3.29-8.43c3.28-8.43-.36-18.2-8.61-21.88a16.8,16.8,0,0,0-22.52,9.21l-.32.81a10.84,10.84,0,0,0-7.33-10.58,11.07,11.07,0,0,0-13.73,6.64l-17,43.57a21.12,21.12,0,0,0-1.73,6.21s0,.07,0,.11c-2.41,22.48,35,40.94,59.61,12.39a39.4,39.4,0,0,1,14.07-10.53,21.55,21.55,0,0,0,11.53-12l2.84-7.23a11.11,11.11,0,0,0-5.35-14.12,10.85,10.85,0,0,0-14.72,5.83l0,0Z"/><path class="cls-9" d="M637.19,477.82V408.17a51.13,51.13,0,0,1,56.88-50.77"/><path class="cls-9" d="M761.72,362.83c8.36-3.29,16.4-9.51,26.6-16,1-.63,1.95-1.21,3-1.76a55.41,55.41,0,0,1,78.66,28.53L919.61,502a45.57,45.57,0,0,1-71.22,51.84c-12.26-10-25.5-23-39.37-38-29.93-32.46-62.82-74.74-95.26-118.74a124.86,124.86,0,0,1-17.83-34.17l-8-23.66a23.45,23.45,0,0,1,1.6-18.69l4.71-8.7"/><line class="cls-9" x1="850.5" y1="460" x2="894.84" y2="437.97"/><path class="cls-9" d="M714.62,343.08l8.22-42.23a8.92,8.92,0,0,1,17.65,1c.44,5.59,1.18,13.38,2.37,21.24,1.83,12,4.68,24.22,9.06,29L870.14,481.5"/><path class="cls-9" d="M742.86,323.09a35,35,0,0,0,12.81-14.54"/><path class="cls-9" d="M690,287.45l46.52-17.91c5.13,17.54,11.38,30.52,19.11,39,8.8,9.65,19.53,13.47,32.73,11.54a42.54,42.54,0,0,0-.74,7.88,41.8,41.8,0,0,0,3.62,17.08"/><path class="cls-9" d="M717.56,328a35,35,0,0,1-28.43-34.33,35.42,35.42,0,0,1,.52-6h0"/><path class="cls-9" d="M860,357.06a42,42,0,0,0-41.62-69.56C810.46,259.3,790,251,767.86,258.71c0,0-15.31-27.74-43.8-15.76L695.48,255a19.38,19.38,0,1,0-5.83,32.59,0,0,0,0,0,0,0,3.35,3.35,0,0,0,.38-.14"/><polyline class="cls-9" points="373.42 582.3 935.35 582.3 935.35 564.02 369.86 564.02"/><polyline class="cls-9" points="591.08 564.02 591.08 477.82 676 477.82 676 564.02"/><line class="cls-9" x1="676" y1="499.37" x2="591.08" y2="499.37"/><line class="cls-9" x1="676" y1="520.92" x2="591.08" y2="520.92"/><line class="cls-9" x1="676" y1="542.47" x2="591.08" y2="542.47"/><path class="cls-9" d="M703.84,448.61v58.75a8.44,8.44,0,0,0,8.44,8.44H809"/><line class="cls-9" x1="676" y1="490.1" x2="703.84" y2="490.1"/><path class="cls-9" d="M493.26,521.11a11.77,11.77,0,0,1-18.85-10.82L476,498a11.77,11.77,0,0,1,19.81-7"/><path class="cls-9" d="M513.78,524.08a11.88,11.88,0,0,1-6.82,4.46,11.62,11.62,0,0,1-4.13.2,11.79,11.79,0,0,1-9.57-7.63,11.66,11.66,0,0,1-.62-5.53l3.23-25.27A11.77,11.77,0,0,1,517.78,486"/><path class="cls-9" d="M532.36,529.1l7.2,19a11.77,11.77,0,1,1-22,8.36L507,528.54"/><path class="cls-9" d="M526.21,529.82h-.05c2-.16,4.12-.41,6.2-.73,2.73-.42,5.45-.94,8-1.51a20.46,20.46,0,0,0,16-19.11c.36-8.87.17-19.73-2.18-27a.24.24,0,0,0,0-.08"/><path class="cls-9" d="M546.17,505.61h-8.69l1.42-11.14A11.76,11.76,0,0,0,517.78,486a11.6,11.6,0,0,0-2.22,5.51l-3.23,25.27a11.8,11.8,0,0,0,10.18,13.17,12,12,0,0,0,3.65-.1"/><line class="cls-9" x1="379.92" y1="368.36" x2="450.34" y2="338.12"/><line class="cls-9" x1="534.37" y1="884.9" x2="534.37" y2="582.3"/><path class="cls-9" d="M909.75,582.3A56.28,56.28,0,0,1,882,687.52H778.39L690.84,908.29"/><path class="cls-9" d="M591.25,853.66l84-211.28a107.13,107.13,0,0,1,60.39-60.08"/><path class="cls-9" d="M688.54,582.3a56.09,56.09,0,0,1,16.82,18.09"/><path class="cls-9" d="M641.74,726.64l-35.6-73.32a56.27,56.27,0,0,1,18.82-71"/><path class="cls-9" d="M764.65,722.1v0l89.82,186.16H512.29c0-9.66,9.62-16.82,22.21-23.13,20.8-10.4,49.71-18.44,56.75-31.5H828.13"/><line class="cls-9" x1="467.7" y1="908.29" x2="512.29" y2="908.29"/><path class="cls-9" d="M854.48,908.29h53a63.19,63.19,0,0,0-59.86-42.79,65.93,65.93,0,0,0-12.26,1.2l-.85.16"/><line class="cls-9" x1="859.87" y1="710.61" x2="859.87" y2="866.69"/><line class="cls-9" x1="835.35" y1="868.63" x2="835.35" y2="710.61"/><path class="cls-9" d="M927.17,664.77a25.05,25.05,0,0,1-14,45.84H787.48a25,25,0,0,1-16-5.75"/><line class="cls-9" x1="502" y1="582.3" x2="502" y2="908.29"/><path class="cls-9" d="M783.79,88.92l-3.58,13.23A25.89,25.89,0,0,1,762,120.37L748.74,124l13.26,3.6a25.88,25.88,0,0,1,18.21,18.21L783.79,159l3.58-13.24a25.89,25.89,0,0,1,18.22-18.21l13.26-3.6-13.26-3.6a25.9,25.9,0,0,1-18.22-18.22Z"/><path class="cls-9" d="M835.35,163.8l-2.42,8.93A17.47,17.47,0,0,1,820.64,185l-8.94,2.42,8.94,2.44a17.47,17.47,0,0,1,12.29,12.3l2.42,8.93,2.42-8.93a17.47,17.47,0,0,1,12.29-12.3l8.94-2.44L850.06,185a17.47,17.47,0,0,1-12.29-12.3Z"/><path class="cls-9" d="M764.85,191.83a11.33,11.33,0,1,0-11.33,11.33A11.32,11.32,0,0,0,764.85,191.83Z"/><polyline class="cls-9" points="405.85 564.02 434.16 520.92 462.48 564.02"/></g></g></svg>