<svg xmlns="http://www.w3.org/2000/svg" xmlns:xlink="http://www.w3.org/1999/xlink" viewBox="0 0 986.27 861.14"><defs><style>.cls-1,.cls-2,.cls-9{fill:none;}.cls-10,.cls-2,.cls-9{stroke:#000;stroke-linecap:round;stroke-linejoin:round;}.cls-2{stroke-width:1.5px;}.cls-10,.cls-3{fill:#fff;}.cls-4{fill:#ffb2e5;}.cls-5{fill:#8282d9;}.cls-6{fill:url(#New_Pattern_2);}.cls-7{fill:url(#New_Pattern);}.cls-8{fill:#d7ccff;}.cls-10,.cls-9{stroke-width:4px;}</style><pattern id="New_Pattern_2" data-name="New Pattern 2" width="40" height="40" patternTransform="translate(0 30)" patternUnits="userSpaceOnUse" viewBox="0 0 40 40"><rect class="cls-1" width="40" height="40"/><path d="M36.18,30a1.9,1.9,0,0,0,1.91,1.91V28.09A1.9,1.9,0,0,0,36.18,30Z"/><path d="M40,33.82a1.9,1.9,0,0,0,1.91-1.91H38.09A1.9,1.9,0,0,0,40,33.82Z"/><path d="M40,26.18a1.9,1.9,0,0,0-1.91,1.91h3.82A1.9,1.9,0,0,0,40,26.18Z"/><path d="M16.18,40a1.9,1.9,0,0,0,1.91,1.91V38.09A1.9,1.9,0,0,0,16.18,40Z"/><path d="M21.91,38.09v3.82a1.91,1.91,0,0,0,0-3.82Z"/><path d="M20,36.18a1.9,1.9,0,0,0-1.91,1.91h3.82A1.9,1.9,0,0,0,20,36.18Z"/><path d="M1.91,28.09v3.82a1.91,1.91,0,0,0,0-3.82Z"/><path d="M36.18,10a1.9,1.9,0,0,0,1.91,1.91V8.09A1.9,1.9,0,0,0,36.18,10Z"/><path d="M40,13.82a1.9,1.9,0,0,0,1.91-1.91H38.09A1.9,1.9,0,0,0,40,13.82Z"/><path d="M40,6.18a1.9,1.9,0,0,0-1.91,1.91h3.82A1.9,1.9,0,0,0,40,6.18Z"/><path d="M18.79,16.37a1.92,1.92,0,0,0-1.21,2.42l3.63-1.21A1.92,1.92,0,0,0,18.79,16.37Z"/><path d="M22.42,21.21l-3.63,1.21a1.91,1.91,0,0,0,3.63-1.21Z"/><path d="M16.37,21.21a1.92,1.92,0,0,0,2.42,1.21l-1.21-3.63A1.92,1.92,0,0,0,16.37,21.21Z"/><path d="M23.63,18.79a1.92,1.92,0,0,0-2.42-1.21l1.21,3.63A1.92,1.92,0,0,0,23.63,18.79Z"/><path d="M1.91,8.09v3.82a1.91,1.91,0,0,0,0-3.82Z"/><path d="M20,3.82a1.9,1.9,0,0,0,1.91-1.91H18.09A1.9,1.9,0,0,0,20,3.82Z"/><path d="M0,33.82a1.9,1.9,0,0,0,1.91-1.91H-1.91A1.9,1.9,0,0,0,0,33.82Z"/><path d="M0,26.18a1.9,1.9,0,0,0-1.91,1.91H1.91A1.9,1.9,0,0,0,0,26.18Z"/><path d="M0,13.82a1.9,1.9,0,0,0,1.91-1.91H-1.91A1.9,1.9,0,0,0,0,13.82Z"/><path d="M0,6.18A1.9,1.9,0,0,0-1.91,8.09H1.91A1.9,1.9,0,0,0,0,6.18Z"/><path d="M16.18,0a1.9,1.9,0,0,0,1.91,1.91V-1.91A1.9,1.9,0,0,0,16.18,0Z"/><path d="M21.91-1.91V1.91A1.9,1.9,0,0,0,23.82,0,1.9,1.9,0,0,0,21.91-1.91Z"/></pattern><pattern id="New_Pattern" data-name="New Pattern" width="70" height="50" patternTransform="translate(0 30)" patternUnits="userSpaceOnUse" viewBox="0 0 70 50"><rect class="cls-1" width="70" height="50"/><path class="cls-2" d="M8.89,100c-.05-7.08.29-14.17.29-21.25,0-4.32-.37-17.48-.29-28.09"/><path class="cls-2" d="M22.94,99.84c0-1.65.09-3.31.09-5,0-2.48-.21-5-.21-7.45s0-3.83.05-7.28c0-1.44-.06-2.9-.06-4.35,0-3.1.31-4.62.31-7.37,0-1.4-.27-4.94-.27-8.33q0-1.61.09-3.21V50.11"/><path class="cls-2" d="M36.74,99.84c0-9.46.33-18.09.33-27.56,0-3.7-.15-7.46-.15-11.2,0-3.35-.1-7.29-.18-10.75"/><path class="cls-2" d="M50.93,99.75c0-1.24-.07-2.75-.07-4,0-1.92,0-3.86,0-5.79,0-3.87,0-7.66,0-11.51a8.42,8.42,0,0,1-.08-1.22c0-.32.18-6.68.18-8,0-2.2-.21-3.25-.21-5.64,0-1.3.06-2.65.17-3.86,0-2.89,0-5.89,0-9.05"/><path class="cls-2" d="M65,99.71c0-8.34-.55-15.73-.36-24.06.18-8.13.16-17.71.36-25.19"/><path class="cls-2" d="M8.89,50c-.05-7.08.29-14.17.29-21.25,0-4.32-.37-17.48-.29-28.09"/><path class="cls-2" d="M22.94,49.84c0-1.65.09-3.31.09-5,0-2.48-.21-5-.21-7.45s0-3.83.05-7.28c0-1.44-.06-2.9-.06-4.35,0-3.1.31-4.62.31-7.37,0-1.4-.27-4.94-.27-8.33q0-1.6.09-3.21V.11"/><path class="cls-2" d="M36.74,49.84c0-9.46.33-18.09.33-27.56,0-3.7-.15-7.46-.15-11.2,0-3.35-.1-7.29-.18-10.75"/><path class="cls-2" d="M50.93,49.75c0-1.24-.07-2.75-.07-4,0-1.92,0-3.86,0-5.79,0-3.87,0-7.66,0-11.51a8.42,8.42,0,0,1-.08-1.22c0-.32.18-6.68.18-8,0-2.2-.21-3.25-.21-5.64,0-1.3.06-2.65.17-3.86,0-2.89,0-5.89,0-9"/><path class="cls-2" d="M65,49.71c0-8.34-.55-15.73-.36-24.06.18-8.13.16-17.71.36-25.19"/><path class="cls-2" d="M8.89,0c-.05-7.08.29-14.17.29-21.25,0-4.32-.37-17.48-.29-28.09"/><path class="cls-2" d="M22.94-.16c0-1.65.09-3.31.09-5,0-2.48-.21-5-.21-7.45s0-3.83.05-7.28c0-1.44-.06-2.9-.06-4.35,0-3.1.31-4.62.31-7.37,0-1.4-.27-4.94-.27-8.33q0-1.61.09-3.21v-6.71"/><path class="cls-2" d="M36.74-.16c0-9.46.33-18.09.33-27.56,0-3.7-.15-7.46-.15-11.2,0-3.35-.1-7.29-.18-10.75"/><path class="cls-2" d="M50.93-.25c0-1.24-.07-2.75-.07-4,0-1.92,0-3.86,0-5.79,0-3.87,0-7.66,0-11.51a8.42,8.42,0,0,1-.08-1.22c0-.32.18-6.68.18-8,0-2.2-.21-3.25-.21-5.64,0-1.3.06-2.65.17-3.86,0-2.89,0-5.89,0-9.05"/><path class="cls-2" d="M65-.29c0-8.34-.55-15.73-.36-24.06.18-8.13.16-17.71.36-25.19"/></pattern></defs><g id="Layer_2" data-name="Layer 2"><g id="illustrations"><path class="cls-3" d="M912.81,464.6l3.36,9.93a16.31,16.31,0,0,1-5.28,18c-4.66,3.69-11.37,8.63-20.61,14.63a16.18,16.18,0,0,1-16.49.73,40.42,40.42,0,0,1-4-2.48c-16.81-11.69-21-32.7-21.09-46.93a30.55,30.55,0,0,1,7.05-20.38l64.35-83.45-23.49-21.06,44.24-45.74q12.07,11.92,26.19,26.44c19.94,20.51,23.69,51.31,5.44,73.35Z"/><path d="M972.92,856.52H902.19a50.87,50.87,0,0,0,30.51-27.8,53.93,53.93,0,0,0,2-5.42C948,830.55,967.18,835.12,972.92,856.52Z"/><path class="cls-4" d="M917.79,265.59c7,6.59,14.67,14,23,22.26l-44.24,45.74-44.63-40v108H702V288l-53.3,31.49-36.39-51.94h0c21.77-15.38,43-31.6,59.21-40.32a55.64,55.64,0,0,1,53.74.46c61.8,35.1,78.74-6.76,116.33-6.76C871.62,220.93,896.71,246.74,917.79,265.59Z"/><path class="cls-3" d="M914.46,765.82a51,51,0,0,1,20.27,57.47,53.93,53.93,0,0,1-2,5.42,51,51,0,0,1-62.81,27.8c-1.48-.49-2.95-1-4.41-1.7-1.05-.46-2.18-1-3.19-1.54L610.83,720.88l33.93-74.8L906.61,761.5A50.87,50.87,0,0,1,914.46,765.82Z"/><path class="cls-5" d="M869.77,505.42l44.7,260.39h0a50.87,50.87,0,0,0-7.85-4.32l-98.92-43.61L777,495.14,749.74,692.35l-90.82-40,43-250.73H852l5.81,33.86-2,2.65a30.55,30.55,0,0,0-7.05,20.38c.08,14.23,4.28,35.24,21.09,46.93Z"/><path d="M869.89,856.51H826.81l-3.26-23.65s40.88,21.48,41.93,21.94C866.94,855.46,868.41,856,869.89,856.51Z"/><path d="M815.09,179.49a38.55,38.55,0,0,1-9,24.83,27,27,0,0,1-9.59-12,11.91,11.91,0,1,0-16.4-14.15c-12.07-5.68-23-16.4-29.2-27.64h0a38.65,38.65,0,0,1,64.21,29Z"/><path class="cls-3" d="M806.07,204.32a38.65,38.65,0,1,1-55.19-53.8c6.19,11.24,17.13,22,29.2,27.64a11.91,11.91,0,1,1,16.4,14.15A27,27,0,0,0,806.07,204.32Z"/><path class="cls-5" d="M736.67,787.13l-2,14.48H679.28a37.58,37.58,0,0,1-28.46-13l-12.69-14.7h-.07l6.08-35.44h0Z"/><path d="M632.66,805.35l5.4-31.49h.07l12.69,14.7a37.58,37.58,0,0,0,28.46,13h55.39l-7.58,54.91H581c8.59-32.06,47.36-26.36,51.2-48.45Z"/><path class="cls-3" d="M383.58,264.22a293.54,293.54,0,0,0-33.81-5.31,250.49,250.49,0,0,1,41.47-17.48h0c8.09-2.5,14.42-3.83,17.89-3.91a48.35,48.35,0,0,1,18.23,2.63l135.91,49.58a20.88,20.88,0,0,0,17.87-1.62c10.19-6,20.73-13.2,31.12-20.55h0l36.39,51.94-36.29,21.44a82,82,0,0,1-70.28,6.39L527,341.77a296,296,0,0,0-78.16-55c-4.27,4.05-10.78,6.64-18.08,6.64a26.75,26.75,0,0,1-17.16-5.83c-6.87-1.42-21-3.93-33.37-3.45a9.46,9.46,0,0,1-2.55-18.65C379.41,265.05,381.4,264.62,383.58,264.22Z"/><path class="cls-4" d="M644.76,646.08l-33.93,74.8-36.06-19a292.52,292.52,0,0,0,30.68-73.14Z"/><path class="cls-3" d="M615.44,552.36a294.54,294.54,0,0,1-115.68,234.2h0a294.93,294.93,0,1,1-179.21-529.1q14.81,0,29.22,1.44a293.54,293.54,0,0,1,33.81,5.31c-2.18.4-4.17.83-5.93,1.24a9.46,9.46,0,0,0,2.55,18.65c12.33-.48,26.5,2,33.37,3.45a26.75,26.75,0,0,0,17.16,5.83c7.3,0,13.81-2.59,18.08-6.64a296,296,0,0,1,78.16,55q5.21,5.09,10.11,10.43A293.71,293.71,0,0,1,615.44,552.36Zm-55.85,0a239.35,239.35,0,1,0-86,183.66A237.93,237.93,0,0,0,559.59,552.36Z"/><path class="cls-6" d="M615.44,552.36a294.54,294.54,0,0,1-115.68,234.2h0a294.93,294.93,0,1,1-179.21-529.1q14.81,0,29.22,1.44a293.54,293.54,0,0,1,33.81,5.31c-2.18.4-4.17.83-5.93,1.24a9.46,9.46,0,0,0,2.55,18.65c12.33-.48,26.5,2,33.37,3.45a26.75,26.75,0,0,0,17.16,5.83c7.3,0,13.81-2.59,18.08-6.64a296,296,0,0,1,78.16,55q5.21,5.09,10.11,10.43A293.71,293.71,0,0,1,615.44,552.36Zm-55.85,0a239.35,239.35,0,1,0-86,183.66A237.93,237.93,0,0,0,559.59,552.36Z"/><path class="cls-3" d="M537.09,345.49v6.7h0q-4.89-5.34-10.11-10.43Z"/><path class="cls-3" d="M537.09,90.35V280.09L427.36,240.14a48.35,48.35,0,0,0-18.23-2.63c-3.47.08-9.8,1.41-17.89,3.91a115.25,115.25,0,1,0-218,55.43A295.39,295.39,0,0,0,104,352.2h0V90.35ZM495.55,207.06V146.57H433.16v60.49Z"/><path class="cls-7" d="M537.09,90.35V280.09L427.36,240.14a48.35,48.35,0,0,0-18.23-2.63c-3.47.08-9.8,1.41-17.89,3.91a115.25,115.25,0,1,0-218,55.43A295.39,295.39,0,0,0,104,352.2h0V90.35ZM495.55,207.06V146.57H433.16v60.49Z"/><path d="M519.92,420.44H451.33V391.71H394.51v28.73H121.18A240.08,240.08,0,0,1,211,339.84a115.25,115.25,0,0,0,154.34-22.33A239.15,239.15,0,0,1,519.92,420.44Z"/><path d="M509.72,847.25H433.64a113.84,113.84,0,0,0-2.06-21.61,295,295,0,0,0,68.18-39.07A188.62,188.62,0,0,1,509.72,847.25Z"/><rect class="cls-3" x="433.16" y="186.9" width="62.39" height="20.16"/><rect class="cls-5" x="433.16" y="166.73" width="62.39" height="20.16"/><rect class="cls-4" x="433.16" y="146.57" width="62.39" height="20.16"/><polygon class="cls-5" points="451.33 420.44 451.33 597.4 394.51 597.4 394.51 391.71 451.33 391.71 451.33 420.44"/><path class="cls-4" d="M320.55,658.09a188.89,188.89,0,0,1,153,77.93,238.61,238.61,0,0,1-66,39,113.09,113.09,0,0,0-174.1,0,238.37,238.37,0,0,1-66-39A188.92,188.92,0,0,1,320.55,658.09Z"/><path class="cls-5" d="M391.24,241.42h0a250.49,250.49,0,0,0-41.47,17.48q-14.41-1.44-29.22-1.44a293.6,293.6,0,0,0-147.31,39.38,114.84,114.84,0,0,1-12.45-52.17H276l79-84A114.91,114.91,0,0,1,391.24,241.42Z"/><path class="cls-3" d="M355,160.71l-79,84-83.89-79a115.22,115.22,0,0,1,162.84-5Z"/><rect class="cls-5" x="292.14" y="470.56" width="56.83" height="126.84"/><path class="cls-3" d="M320.51,2a12.8,12.8,0,1,1-12.79,12.8A12.8,12.8,0,0,1,320.51,2Z"/><path class="cls-3" d="M365.35,317.51A115.25,115.25,0,0,1,211,339.84a237.86,237.86,0,0,1,109.54-26.52A240.3,240.3,0,0,1,365.35,317.51Z"/><path class="cls-8" d="M276,244.68H160.79a114.83,114.83,0,0,1,31.35-79Z"/><rect class="cls-5" x="187.49" y="521.87" width="56.83" height="75.54"/><path d="M209.53,825.64a113,113,0,0,0-2.07,21.61H131.39a188.67,188.67,0,0,1,10-60.69A294.28,294.28,0,0,0,209.53,825.64Z"/><path class="cls-9" d="M499.76,786.56a296.21,296.21,0,0,0,75-84.67A295,295,0,0,0,537.08,352.2q-4.91-5.32-10.11-10.43a296,296,0,0,0-78.16-55c-4.27,4.05-10.78,6.64-18.08,6.64a26.75,26.75,0,0,1-17.16-5.83c-6.87-1.42-21-3.93-33.37-3.45a9.46,9.46,0,0,1-2.55-18.65c1.76-.41,3.75-.84,5.93-1.24,11.57-2.11,28.3-3.45,42.21,2.14"/><path class="cls-9" d="M383.58,264.22a295.73,295.73,0,0,0-33.81-5.31q-14.43-1.43-29.22-1.44a295,295,0,1,0,179.21,529.1"/><path class="cls-9" d="M473.56,736a238.09,238.09,0,1,0-66,39A238.58,238.58,0,0,0,473.56,736Z"/><line class="cls-9" x1="537.09" y1="345.49" x2="537.09" y2="352.19"/><line class="cls-9" x1="519.92" y1="420.44" x2="451.33" y2="420.44"/><line class="cls-9" x1="394.51" y1="420.44" x2="121.18" y2="420.44"/><polyline class="cls-9" points="104.01 352.19 104.01 90.35 537.09 90.35 537.09 280.09"/><line class="cls-9" x1="248.49" y1="90.35" x2="311.69" y2="24.07"/><line class="cls-9" x1="329.34" y1="24.07" x2="392.52" y2="90.35"/><path class="cls-9" d="M329.34,24.07a12.77,12.77,0,1,0-8.83,3.54A12.78,12.78,0,0,0,329.34,24.07Z"/><path class="cls-9" d="M167.53,736a189.19,189.19,0,0,1,306,0"/><path class="cls-9" d="M499.76,786.56h0a188.62,188.62,0,0,1,10,60.68H433.64a113.84,113.84,0,0,0-2.06-21.61"/><path class="cls-9" d="M407.6,775.06a113.09,113.09,0,0,0-174.1,0"/><path class="cls-9" d="M209.53,825.64a113,113,0,0,0-2.07,21.61H131.39a188.67,188.67,0,0,1,10-60.69"/><path class="cls-9" d="M734.67,801.61H679.28a37.58,37.58,0,0,1-28.46-13l-12.69-14.7"/><line class="cls-9" x1="869.77" y1="505.42" x2="914.47" y2="765.81"/><path class="cls-9" d="M934.73,823.29c13.27,7.26,32.45,11.83,38.19,33.23H902.19"/><polyline class="cls-9" points="869.89 856.52 826.8 856.52 823.55 832.87"/><path class="cls-9" d="M852,401.59v-108l68.12,61.08L855.73,438.1a30.55,30.55,0,0,0-7.05,20.38"/><path class="cls-9" d="M912.81,464.6l3.36,9.93a16.31,16.31,0,0,1-5.28,18c-4.66,3.69-11.37,8.63-20.61,14.63a16.18,16.18,0,0,1-16.49.73,42.37,42.37,0,0,1-4-2.48c-16.78-11.72-21-32.7-21.09-46.93V458"/><polyline class="cls-9" points="807.68 717.89 776.95 495.14 749.74 692.35"/><line class="cls-9" x1="632.66" y1="805.35" x2="644.14" y2="738.42"/><path class="cls-9" d="M736.67,787.13l-9.58,69.39H581c8.59-32.06,47.36-26.36,51.2-48.45,0,0,.77-4.4.89-5.1.09-.53.16-1,.14-.85,0-.14,0-.27.07-.39.15-.83.17-1,.07-.37,0-.11,0-.24.06-.34.33-1.8.43-2.51.41-2.33a.13.13,0,0,1,0-.06v-.06a1.78,1.78,0,0,1,0-.2l0-.12"/><polyline class="cls-9" points="658.92 652.32 701.95 401.59 851.96 401.59 857.77 435.45"/><path class="cls-9" d="M702,401.59V288l-89.59,52.93a82,82,0,0,1-70.28,6.39L527,341.77"/><path class="cls-9" d="M450.36,248.19l112.91,41.53a20.88,20.88,0,0,0,17.87-1.62c10.19-6,20.72-13.2,31.12-20.55,21.76-15.39,43-31.6,59.21-40.32a55.64,55.64,0,0,1,53.74.46c61.8,35.1,78.74-6.76,116.33-6.76,30.08,0,55.17,25.81,76.25,44.66,7,6.59,14.67,14,23,22.26,8,8,16.77,16.74,26.19,26.44,19.94,20.51,23.69,51.31,5.44,73.35l-67.08,86.53"/><path class="cls-9" d="M750.88,150.52a38.64,38.64,0,1,0,25.56-9.67,38.54,38.54,0,0,0-25.56,9.67Z"/><path class="cls-9" d="M750.88,150.51h0c6.19,11.24,17.13,22,29.2,27.64a11.91,11.91,0,1,1,16.4,14.15,27,27,0,0,0,9.59,12"/><line class="cls-9" x1="896.59" y1="333.59" x2="940.83" y2="287.85"/><line class="cls-9" x1="612.26" y1="267.56" x2="648.65" y2="319.5"/><path class="cls-9" d="M391.24,241.43a250.49,250.49,0,0,0-41.47,17.48"/><path class="cls-9" d="M450.36,248.19l-23-8.05a48.35,48.35,0,0,0-18.23-2.63c-3.47.08-9.8,1.41-17.89,3.91"/><path class="cls-9" d="M391.24,241.43h0a115.25,115.25,0,1,0-218,55.43"/><path class="cls-9" d="M211,339.84a115.25,115.25,0,0,0,154.34-22.33"/><polygon class="cls-9" points="495.55 186.9 495.55 207.06 433.16 207.06 433.16 146.57 495.55 146.57 495.55 186.9"/><line class="cls-9" x1="495.55" y1="166.73" x2="433.16" y2="166.73"/><line class="cls-9" x1="495.55" y1="186.9" x2="433.16" y2="186.9"/><polyline class="cls-9" points="160.79 244.68 276.03 244.68 354.98 160.71"/><line class="cls-9" x1="276.03" y1="244.68" x2="192.14" y2="165.67"/><rect class="cls-9" x="187.49" y="521.87" width="56.83" height="75.54"/><rect class="cls-9" x="292.14" y="470.56" width="56.83" height="126.84"/><polygon class="cls-9" points="451.33 420.44 451.33 597.4 394.51 597.4 394.51 391.71 451.33 391.71 451.33 420.44"/><path class="cls-9" d="M605.45,628.75,906.61,761.5a51.73,51.73,0,0,1,7.85,4.32,51,51,0,0,1,20.27,57.47,53.93,53.93,0,0,1-2,5.42,51,51,0,0,1-62.81,27.8c-1.48-.5-2.95-1-4.41-1.7-1.05-.46-2.18-1-3.19-1.54L574.77,701.89"/><polyline class="cls-9" points="644.76 646.08 610.83 720.88 610.83 720.89"/><polyline class="cls-9" points="188.64 620.27 188.64 628.75 451.33 628.75 451.33 620.27"/><line class="cls-9" x1="320.42" y1="628.75" x2="320.55" y2="620.27"/><path d="M691.81,128.65l-23.32-6.33a13.47,13.47,0,0,1-9.38-9.35s-6.34-23.37-6.34-23.37-6.32,23.3-6.33,23.32a13.45,13.45,0,0,1-9.38,9.4l-23.34,6.33L637.06,135a13.45,13.45,0,0,1,9.38,9.4s6.33,23.32,6.33,23.32,6.32-23.33,6.34-23.37a13.47,13.47,0,0,1,9.38-9.35Z"/><path class="cls-5" d="M683.81,121.65l-23.32-6.33a13.47,13.47,0,0,1-9.38-9.35s-6.34-23.37-6.34-23.37-6.32,23.3-6.33,23.32a13.45,13.45,0,0,1-9.38,9.4l-23.34,6.33L629.06,128a13.45,13.45,0,0,1,9.38,9.4s6.33,23.32,6.33,23.32,6.32-23.33,6.34-23.37a13.47,13.47,0,0,1,9.38-9.35Z"/><path class="cls-10" d="M605.72,40.71l-14.93-4.06a8.59,8.59,0,0,1-6-6s-4.06-15-4.06-15-4.05,14.91-4.05,14.93a8.58,8.58,0,0,1-6,6l-14.94,4.06,14.94,4a8.61,8.61,0,0,1,6,6l4.05,14.92,4.06-15a8.61,8.61,0,0,1,6-6Z"/><path class="cls-10" d="M52.67,308.25l-15.13-4.11a8.76,8.76,0,0,1-6.09-6.07s-4.11-15.16-4.11-15.16S23.24,298,23.23,298a8.72,8.72,0,0,1-6.09,6.1L2,308.25l15.14,4.11a8.7,8.7,0,0,1,6.09,6.1s4.11,15.13,4.11,15.13l4.11-15.17a8.75,8.75,0,0,1,6.09-6.06Z"/></g></g></svg>