<svg xmlns="http://www.w3.org/2000/svg" xmlns:xlink="http://www.w3.org/1999/xlink" viewBox="0 0 929.89 921.91"><defs><style>.cls-1,.cls-2,.cls-9{fill:none;}.cls-2,.cls-9{stroke:#000;stroke-linecap:round;stroke-linejoin:round;}.cls-2{stroke-width:1.5px;}.cls-3{fill:#ffb2e5;}.cls-4{fill:#8282d9;}.cls-5{fill:#fff;}.cls-6{fill:url(#New_Pattern);}.cls-7{fill:#d7ccff;}.cls-8{fill:url(#New_Pattern_2);}.cls-9{stroke-width:4px;}</style><pattern id="New_Pattern" data-name="New Pattern" width="70" height="50" patternTransform="translate(-77.35 -35.26) scale(1.07)" patternUnits="userSpaceOnUse" viewBox="0 0 70 50"><rect class="cls-1" width="70" height="50"/><path class="cls-2" d="M8.89,100c-.05-7.08.29-14.17.29-21.25,0-4.32-.37-17.48-.29-28.09"/><path class="cls-2" d="M22.94,99.84c0-1.65.09-3.31.09-5,0-2.48-.21-5-.21-7.45s0-3.83.05-7.28c0-1.44-.06-2.9-.06-4.35,0-3.1.31-4.62.31-7.37,0-1.4-.27-4.94-.27-8.33q0-1.61.09-3.21V50.11"/><path class="cls-2" d="M36.74,99.84c0-9.46.33-18.09.33-27.56,0-3.7-.15-7.46-.15-11.2,0-3.35-.1-7.29-.18-10.75"/><path class="cls-2" d="M50.93,99.75c0-1.24-.07-2.75-.07-4,0-1.92,0-3.86,0-5.79,0-3.87,0-7.66,0-11.51a8.42,8.42,0,0,1-.08-1.22c0-.32.18-6.68.18-8,0-2.2-.21-3.25-.21-5.64,0-1.3.06-2.65.17-3.86,0-2.89,0-5.89,0-9.05"/><path class="cls-2" d="M65,99.71c0-8.34-.55-15.73-.36-24.06.18-8.13.16-17.71.36-25.19"/><path class="cls-2" d="M8.89,50c-.05-7.08.29-14.17.29-21.25,0-4.32-.37-17.48-.29-28.09"/><path class="cls-2" d="M22.94,49.84c0-1.65.09-3.31.09-5,0-2.48-.21-5-.21-7.45s0-3.83.05-7.28c0-1.44-.06-2.9-.06-4.35,0-3.1.31-4.62.31-7.37,0-1.4-.27-4.94-.27-8.33q0-1.6.09-3.21V.11"/><path class="cls-2" d="M36.74,49.84c0-9.46.33-18.09.33-27.56,0-3.7-.15-7.46-.15-11.2,0-3.35-.1-7.29-.18-10.75"/><path class="cls-2" d="M50.93,49.75c0-1.24-.07-2.75-.07-4,0-1.92,0-3.86,0-5.79,0-3.87,0-7.66,0-11.51a8.42,8.42,0,0,1-.08-1.22c0-.32.18-6.68.18-8,0-2.2-.21-3.25-.21-5.64,0-1.3.06-2.65.17-3.86,0-2.89,0-5.89,0-9"/><path class="cls-2" d="M65,49.71c0-8.34-.55-15.73-.36-24.06.18-8.13.16-17.71.36-25.19"/><path class="cls-2" d="M8.89,0c-.05-7.08.29-14.17.29-21.25,0-4.32-.37-17.48-.29-28.09"/><path class="cls-2" d="M22.94-.16c0-1.65.09-3.31.09-5,0-2.48-.21-5-.21-7.45s0-3.83.05-7.28c0-1.44-.06-2.9-.06-4.35,0-3.1.31-4.62.31-7.37,0-1.4-.27-4.94-.27-8.33q0-1.61.09-3.21v-6.71"/><path class="cls-2" d="M36.74-.16c0-9.46.33-18.09.33-27.56,0-3.7-.15-7.46-.15-11.2,0-3.35-.1-7.29-.18-10.75"/><path class="cls-2" d="M50.93-.25c0-1.24-.07-2.75-.07-4,0-1.92,0-3.86,0-5.79,0-3.87,0-7.66,0-11.51a8.42,8.42,0,0,1-.08-1.22c0-.32.18-6.68.18-8,0-2.2-.21-3.25-.21-5.64,0-1.3.06-2.65.17-3.86,0-2.89,0-5.89,0-9.05"/><path class="cls-2" d="M65-.29c0-8.34-.55-15.73-.36-24.06.18-8.13.16-17.71.36-25.19"/></pattern><pattern id="New_Pattern_2" data-name="New Pattern 2" width="40" height="40" patternTransform="translate(-66.69 -24.61) scale(1.07)" patternUnits="userSpaceOnUse" viewBox="0 0 40 40"><rect class="cls-1" width="40" height="40"/><path d="M36.18,30a1.9,1.9,0,0,0,1.91,1.91V28.09A1.9,1.9,0,0,0,36.18,30Z"/><path d="M40,33.82a1.9,1.9,0,0,0,1.91-1.91H38.09A1.9,1.9,0,0,0,40,33.82Z"/><path d="M40,26.18a1.9,1.9,0,0,0-1.91,1.91h3.82A1.9,1.9,0,0,0,40,26.18Z"/><path d="M16.18,40a1.9,1.9,0,0,0,1.91,1.91V38.09A1.9,1.9,0,0,0,16.18,40Z"/><path d="M21.91,38.09v3.82a1.91,1.91,0,0,0,0-3.82Z"/><path d="M20,36.18a1.9,1.9,0,0,0-1.91,1.91h3.82A1.9,1.9,0,0,0,20,36.18Z"/><path d="M1.91,28.09v3.82a1.91,1.91,0,0,0,0-3.82Z"/><path d="M36.18,10a1.9,1.9,0,0,0,1.91,1.91V8.09A1.9,1.9,0,0,0,36.18,10Z"/><path d="M40,13.82a1.9,1.9,0,0,0,1.91-1.91H38.09A1.9,1.9,0,0,0,40,13.82Z"/><path d="M40,6.18a1.9,1.9,0,0,0-1.91,1.91h3.82A1.9,1.9,0,0,0,40,6.18Z"/><path d="M18.79,16.37a1.92,1.92,0,0,0-1.21,2.42l3.63-1.21A1.92,1.92,0,0,0,18.79,16.37Z"/><path d="M22.42,21.21l-3.63,1.21a1.91,1.91,0,0,0,3.63-1.21Z"/><path d="M16.37,21.21a1.92,1.92,0,0,0,2.42,1.21l-1.21-3.63A1.92,1.92,0,0,0,16.37,21.21Z"/><path d="M23.63,18.79a1.92,1.92,0,0,0-2.42-1.21l1.21,3.63A1.92,1.92,0,0,0,23.63,18.79Z"/><path d="M1.91,8.09v3.82a1.91,1.91,0,0,0,0-3.82Z"/><path d="M20,3.82a1.9,1.9,0,0,0,1.91-1.91H18.09A1.9,1.9,0,0,0,20,3.82Z"/><path d="M0,33.82a1.9,1.9,0,0,0,1.91-1.91H-1.91A1.9,1.9,0,0,0,0,33.82Z"/><path d="M0,26.18a1.9,1.9,0,0,0-1.91,1.91H1.91A1.9,1.9,0,0,0,0,26.18Z"/><path d="M0,13.82a1.9,1.9,0,0,0,1.91-1.91H-1.91A1.9,1.9,0,0,0,0,13.82Z"/><path d="M0,6.18A1.9,1.9,0,0,0-1.91,8.09H1.91A1.9,1.9,0,0,0,0,6.18Z"/><path d="M16.18,0a1.9,1.9,0,0,0,1.91,1.91V-1.91A1.9,1.9,0,0,0,16.18,0Z"/><path d="M21.91-1.91V1.91A1.9,1.9,0,0,0,23.82,0,1.9,1.9,0,0,0,21.91-1.91Z"/></pattern></defs><g id="Layer_2" data-name="Layer 2"><g id="illustrations"><path class="cls-3" d="M817.86,614.45H673.6a291,291,0,0,0-31.68-29V568.79c-2.42,4.73-4.6,8.76-6.2,11.89A289.76,289.76,0,0,0,480.4,523.62l-21.91-39.14,94.18-49.86,19.9,35.53,64.11-125.31c16.07-31.43,41.11-29,47.73-29,23.5,0,40.2,8.87,54.92,19h0c19.29,13.34,35.19,28.89,58.53,29.62,29.95.92,73.36-49.4,114.35-8.57l.08.08a53.15,53.15,0,0,1,15.6,37.67V565a163.34,163.34,0,0,1-31.42,96.3l-44.16,60.46Z"/><path class="cls-4" d="M852.31,721.75l44.83,139.67H559l15.88-47.17H753a290.15,290.15,0,0,0-79.36-199.8H817.86Z"/><path d="M866.45,324.66H776.59l.77-67.18a16.79,16.79,0,1,0,.35-30l.23-20.12H698.51s9.77-24.48,40.82-36.14a100.67,100.67,0,0,1,35.71-6c17.65,0,33.86,8.5,45.88,20.52C853.39,218.2,833,261.33,866.45,324.66Z"/><path class="cls-5" d="M785.1,225.8a16.78,16.78,0,1,1-7.74,31.68L777,288.89a53.82,53.82,0,0,1-67.11-52.11,53.52,53.52,0,0,1,8.74-29.38h59.31l-.23,20.12A16.63,16.63,0,0,1,785.1,225.8Z"/><path class="cls-5" d="M753,814.25H652.42V704.83H611.75l30.17-90.38H673.6A290.15,290.15,0,0,1,753,814.25Z"/><path class="cls-5" d="M596.43,103.74a57.47,57.47,0,0,1-6.25,26.15l-30.63-15.43h0a23.29,23.29,0,0,0,2.6-10.72A23.52,23.52,0,1,0,518.52,116L489.38,134h0a57.82,57.82,0,1,1,107.06-30.3Z"/><path class="cls-5" d="M442,379.31a15.44,15.44,0,0,0-19.35-5.86l-1.76.77a15.44,15.44,0,0,0-7.78,20.38l17.41,38.14a52.68,52.68,0,0,0,4,8.92l1.67,3H365.68L363.46,414h0l21.45-9.84-32.16-176,8.47-39.69h0a66.5,66.5,0,0,0,7.77-3.54c24.28-13,54.34-7.82,72.18,13.17a198.75,198.75,0,0,1,12.6,16.53c30.76,45,46.75,104.54,55,151.81-.08.25-.17.49-.25.75l-32.35-72.28A16.37,16.37,0,0,0,453.82,287l0,0c-7.84,4-10.91,13.67-7.32,21.7l24.47,54.68c-4.38-4.6-12.24-6-18.37-3.31l-1.77.79A15.42,15.42,0,0,0,443,381.21,13.3,13.3,0,0,0,442,379.31Z"/><path class="cls-5" d="M313.47,188.44l8.47,39.69L302.69,333.48c-47.44-12.69-88.35,28-129.48,28-2.19,0-4.31-.1-6.36-.28a527,527,0,0,1,17.07-68.34,60.82,60.82,0,0,0,43.54-87.28c2-2.56,4-5.06,6-7.5,17.86-21,47.91-26.2,72.19-13.17a66.5,66.5,0,0,0,7.77,3.54Z"/><path class="cls-5" d="M297.84,682.56l20.08,57.22a161.11,161.11,0,0,0-18.12,74.47H170.52a290.33,290.33,0,0,1,87.09-207.71h0Q265.33,599,273.57,592A620.94,620.94,0,0,0,297.84,682.56Z"/><path class="cls-6" d="M753,814.25H652.42V704.83H611.75l30.17-90.38H673.6A290.15,290.15,0,0,1,753,814.25Z"/><path class="cls-5" d="M547.18,333.66c-.15-.14-.32-.26-.48-.39-6.76-5.31-16.63-3.87-22.19,2.69-6.15,7.29-11.53,18.31-15.73,30.44-8.25-47.27-24.24-106.85-55-151.81V21.07H739.33V171.26c-31.05,11.66-40.82,36.14-40.82,36.14h20.12a53.75,53.75,0,0,0,20.7,77.32v50.16c-14.72-10.17-31.42-19-54.92-19-6.62,0-31.66-2.43-47.73,29L619,379.31H538.25c2.78-8.61,6.09-16.14,9.16-20.68a21.88,21.88,0,0,1,1.64-2.17A16,16,0,0,0,547.18,333.66Zm157.39-216.8L690.48,81,676.4,116.86ZM686,271V216.21H660.57V271ZM673.37,133.67,649.87,73.8l-23.52,59.87ZM645.87,271v-44H620.45v44Zm-40.11,0V237.38H580.34V271ZM590.18,129.89A57.76,57.76,0,1,0,558.59,158,57.47,57.47,0,0,0,590.18,129.89ZM565.64,271v-67.3H540.23V271Zm-40.12,0v-44H500.1v44Z"/><polygon class="cls-5" points="690.48 80.99 704.57 116.86 676.4 116.86 690.48 80.99"/><rect x="660.57" y="216.21" width="25.41" height="54.83"/><path class="cls-3" d="M673.6,614.45H641.92v-29A291,291,0,0,1,673.6,614.45Z"/><polygon class="cls-4" points="649.87 73.8 673.37 133.67 626.35 133.67 649.87 73.8"/><path d="M652.42,704.83V814.25H623.68a161.36,161.36,0,0,0-42.56-109.42Z"/><rect x="620.45" y="227.07" width="25.42" height="43.97"/><path class="cls-5" d="M641.92,585.46v29l-30.17,90.38H581.12A162.18,162.18,0,0,0,403.86,663l-5.48-15.65a514.23,514.23,0,0,1-25.51-110.45A290.61,290.61,0,0,1,461.74,523q9.39,0,18.66.59l37.36,66.69a64.62,64.62,0,0,0,56.47,33.1h1.24a64.78,64.78,0,0,0,56.42-35.25l3.83-7.47C637.81,582.25,639.88,583.83,641.92,585.46Z"/><path class="cls-5" d="M641.92,568.79v16.67c-2-1.63-4.11-3.21-6.2-4.78C637.32,577.55,639.5,573.52,641.92,568.79Z"/><path class="cls-4" d="M635.72,580.68l-3.83,7.47a64.78,64.78,0,0,1-56.42,35.25h-1.24a64.62,64.62,0,0,1-56.47-33.1L480.4,523.62A289.76,289.76,0,0,1,635.72,580.68Z"/><path class="cls-7" d="M623.68,814.25H543V704.83h38.1A161.36,161.36,0,0,1,623.68,814.25Z"/><rect x="580.34" y="237.38" width="25.42" height="33.66"/><path class="cls-6" d="M596.43,103.74a57.47,57.47,0,0,1-6.25,26.15l-30.63-15.43h0a23.29,23.29,0,0,0,2.6-10.72A23.52,23.52,0,1,0,518.52,116L489.38,134h0a57.82,57.82,0,1,1,107.06-30.3Z"/><path d="M559.55,114.46l30.63,15.43A57.91,57.91,0,0,1,558.59,158l-12.05-32.11h0a23.53,23.53,0,0,0,13-11.42Z"/><rect x="540.23" y="203.74" width="25.41" height="67.3"/><path class="cls-5" d="M562.14,103.74a23.29,23.29,0,0,1-2.6,10.72,23.5,23.5,0,1,1,2.6-10.72Z"/><path class="cls-7" d="M546.54,125.89,558.59,158a57.87,57.87,0,0,1-69.22-24h0L518.52,116a23.55,23.55,0,0,0,28,9.92Z"/><path class="cls-5" d="M470.93,363.36l-24.47-54.68c-3.59-8-.52-17.72,7.32-21.7l0,0a16.37,16.37,0,0,1,22.36,7.91l32.35,72.28c.08-.26.17-.5.25-.75,4.21-12.13,9.58-23.15,15.73-30.44,5.56-6.56,15.43-8,22.19-2.69.16.13.33.25.48.39a17.33,17.33,0,0,0-5.46,5.07c-4.53,6.49-4,14.66,1.12,18.25a9.34,9.34,0,0,0,4.57,1.65c-3.07,4.54-6.38,12.07-9.16,20.68h0c-1.15,3.53-2.21,7.26-3.15,11a23.3,23.3,0,0,0,2.3,17l15.28,27.28-94.18,49.86-24-42.82a52.68,52.68,0,0,1-4-8.92L413.11,394.6a15.44,15.44,0,0,1,7.78-20.38l1.76-.77A15.44,15.44,0,0,1,442,379.31a13.3,13.3,0,0,1,1,1.9,15.42,15.42,0,0,1,7.76-20.37l1.77-.79C458.69,357.32,466.55,358.76,470.93,363.36Z"/><path class="cls-5" d="M547.18,333.66a16,16,0,0,1,1.87,22.8,21.88,21.88,0,0,0-1.64,2.17,9.34,9.34,0,0,1-4.57-1.65c-5.15-3.59-5.65-11.76-1.12-18.25A17.33,17.33,0,0,1,547.18,333.66Z"/><rect x="500.1" y="227.07" width="25.42" height="43.97"/><path class="cls-8" d="M442,379.31a15.44,15.44,0,0,0-19.35-5.86l-1.76.77a15.44,15.44,0,0,0-7.78,20.38l17.41,38.14a52.68,52.68,0,0,0,4,8.92l1.67,3H365.68L363.46,414h0l21.45-9.84-32.16-176,8.47-39.69h0a66.5,66.5,0,0,0,7.77-3.54c24.28-13,54.34-7.82,72.18,13.17a198.75,198.75,0,0,1,12.6,16.53c30.76,45,46.75,104.54,55,151.81-.08.25-.17.49-.25.75l-32.35-72.28A16.37,16.37,0,0,0,453.82,287l0,0c-7.84,4-10.91,13.67-7.32,21.7l24.47,54.68c-4.38-4.6-12.24-6-18.37-3.31l-1.77.79A15.42,15.42,0,0,0,443,381.21,13.3,13.3,0,0,0,442,379.31Z"/><path class="cls-5" d="M420.79,893.75l-.59,2.71A18.56,18.56,0,0,1,389.45,906a18.54,18.54,0,0,1-21.64,13.52c-10.19-2.06-16.58-12.54-14.32-22.68l8.28-37.19A14,14,0,0,0,359,847.74a53.19,53.19,0,0,1-8.82-15.86l-32.3-92.1A162.49,162.49,0,0,1,403.86,663l46.9,133.67a52.8,52.8,0,0,1,2.75,22.89l-5.89,59c-1,10.16-9.9,18-20.07,17.11A18.64,18.64,0,0,1,420.79,893.75Z"/><path class="cls-3" d="M398.38,647.3,403.86,663a162.49,162.49,0,0,0-85.94,76.83l-20.08-57.22A620.94,620.94,0,0,1,273.57,592a290.5,290.5,0,0,1,99.3-55.11A514.23,514.23,0,0,0,398.38,647.3Z"/><path class="cls-5" d="M385.91,119.09a40,40,0,0,1-.32,5c0-4.95-.2-9.43-.56-13.51A41.39,41.39,0,0,1,385.91,119.09Z"/><path d="M385,110.62c.36,4.08.56,8.56.56,13.51-17-5-17-25-17-25h-49A19.09,19.09,0,0,1,301,75.66c2.7-11.54,16.79-16.07,26.12-8.78l.16.13a16.59,16.59,0,0,0,10.38,3.51l24.13-.29s19.62.22,23.25,40.36A0,0,0,0,0,385,110.62Z"/><path class="cls-3" d="M352.76,228.13l32.16,176L363.47,414h0L362.09,395A53.13,53.13,0,0,0,347,361.45c-15.45-15.69-30.14-24.19-44.26-28l19.25-105.35Z"/><path class="cls-4" d="M385.59,124.13a40.53,40.53,0,1,1-74.33-26.92,19.06,19.06,0,0,0,8.28,1.88h49S368.54,119.09,385.59,124.13Z"/><path class="cls-5" d="M371.43,523q.63,6.91,1.44,13.82A290.5,290.5,0,0,0,273.57,592a621,621,0,0,1-9-68.93Z"/><path class="cls-4" d="M264.55,523a621,621,0,0,0,9,68.93q-8.24,7-15.95,14.58H96.33L73.3,523H2V366.23A53.27,53.27,0,0,1,55.27,313c54.62,0,67.41,44.29,111.58,48.22,2.05.18,4.17.28,6.36.28,41.13,0,82-40.67,129.48-28,14.12,3.78,28.81,12.28,44.26,28A53.13,53.13,0,0,1,362.09,395s9.08,125.13,9.34,128.07Z"/><path d="M359,847.74a14,14,0,0,1,2.73,11.92l-.4,1.76h-265V606.54H257.61a290.33,290.33,0,0,0-87.09,207.71H299.8a161.11,161.11,0,0,1,18.12-74.47l32.3,92.1A53.19,53.19,0,0,0,359,847.74Z"/><path class="cls-3" d="M361.23,188.43h0l-8.47,39.69H321.94l-8.47-39.69h0a67.14,67.14,0,0,0,47.76,0Z"/><path class="cls-8" d="M313.47,188.44l8.47,39.69L302.69,333.48c-47.44-12.69-88.35,28-129.48,28-2.19,0-4.31-.1-6.36-.28a527,527,0,0,1,17.07-68.34,60.82,60.82,0,0,0,43.54-87.28c2-2.56,4-5.06,6-7.5,17.86-21,47.91-26.2,72.19-13.17a66.5,66.5,0,0,0,7.77,3.54Z"/><path class="cls-6" d="M297.84,682.56l20.08,57.22a161.11,161.11,0,0,0-18.12,74.47H170.52a290.33,290.33,0,0,1,87.09-207.71h0Q265.33,599,273.57,592A620.94,620.94,0,0,0,297.84,682.56Z"/><rect class="cls-5" x="246.63" y="8.63" width="32" height="32" transform="translate(59.51 192.92) rotate(-45)"/><circle class="cls-5" cx="250.54" cy="103.74" r="12.09"/><path class="cls-5" d="M227.46,205.56a60.82,60.82,0,0,1-43.54,87.28,61.83,61.83,0,0,1-10.71.93,60.75,60.75,0,0,1-51.35-28.25c80.27-12,40.38-69.55,76.74-87.77A60.94,60.94,0,0,1,227.46,205.56Z"/><path d="M198.6,177.75c-36.36,18.22,3.53,75.79-76.74,87.77a60.8,60.8,0,0,1,76.74-87.77Z"/><path class="cls-5" d="M96.33,606.54v54.89A123.29,123.29,0,0,1,2,541.74V523H73.3Z"/><path class="cls-9" d="M183.92,292.84a61,61,0,1,0-10.71.93A61.83,61.83,0,0,0,183.92,292.84Z"/><path class="cls-9" d="M121.86,265.52c80.27-12,40.38-69.55,76.74-87.77"/><path class="cls-9" d="M96.33,661.43A123.29,123.29,0,0,1,2,541.74V366.23A53.27,53.27,0,0,1,55.27,313c54.62,0,67.41,44.3,111.58,48.22,2.05.18,4.17.28,6.36.28,41.13,0,82-40.68,129.48-28,14.12,3.78,28.81,12.28,44.26,28A53.13,53.13,0,0,1,362.09,395s10.24,137.29,10.78,141.89A515.43,515.43,0,0,0,398.38,647.3l52.38,149.32a52.8,52.8,0,0,1,2.75,22.89l-5.89,59c-1,10.16-9.9,18-20.07,17.11a18.64,18.64,0,0,1-6.76-1.9"/><polyline class="cls-9" points="42.61 411.75 96.33 606.54 96.33 861.41 361.37 861.41"/><line class="cls-9" x1="96.33" y1="606.54" x2="257.61" y2="606.54"/><path class="cls-9" d="M434.5,832.15l-14.3,64.31A18.56,18.56,0,0,1,389.45,906"/><path class="cls-9" d="M257.52,426c2.51,34.71,7,96.67,7,97a645.91,645.91,0,0,0,9,68.93,620.94,620.94,0,0,0,24.27,90.6l52.38,149.32A53.19,53.19,0,0,0,359,847.74a14,14,0,0,1,2.73,11.92l-8.28,37.19c-2.26,10.14,4.13,20.62,14.32,22.68A18.54,18.54,0,0,0,389.45,906a5.8,5.8,0,0,0,.16-.63l14.31-64.3"/><line class="cls-9" x1="2" y1="523.03" x2="73.3" y2="523.03"/><line class="cls-9" x1="264.54" y1="523.03" x2="371.44" y2="523.03"/><path class="cls-9" d="M442,379.31l.24-.26"/><path class="cls-9" d="M704.7,445.79,631.89,588.15a64.78,64.78,0,0,1-56.42,35.25h-1.24a64.62,64.62,0,0,1-56.47-33.1L434.5,441.66a52.68,52.68,0,0,1-4-8.92L413.11,394.6a15.44,15.44,0,0,1,7.78-20.38l1.76-.77A15.44,15.44,0,0,1,442,379.31a13.3,13.3,0,0,1,1,1.9,15.42,15.42,0,0,1,7.76-20.37l1.77-.79c6.13-2.73,14-1.29,18.37,3.31"/><polyline class="cls-9" points="879.63 469.82 817.86 614.45 897.14 861.41 559.04 861.41 574.91 814.25"/><polyline class="cls-9" points="611.75 704.83 641.92 614.45 641.92 568.77"/><line class="cls-9" x1="641.92" y1="614.45" x2="817.86" y2="614.45"/><path class="cls-9" d="M739.33,334.89c19.29,13.34,35.19,28.89,58.53,29.62,29.95.92,73.36-49.4,114.35-8.57l.08.08a53.15,53.15,0,0,1,15.6,37.67V565a163.34,163.34,0,0,1-31.42,96.3l-44.16,60.46"/><path class="cls-9" d="M538.24,379.31c-1.15,3.53-2.21,7.26-3.15,11a23.3,23.3,0,0,0,2.3,17l35.18,62.81,64.11-125.31c16.07-31.43,41.11-29,47.73-29,23.5,0,40.2,8.87,54.92,19"/><path class="cls-9" d="M472.93,367.83l-26.47-59.15c-3.59-8-.52-17.72,7.32-21.7l0,0a16.37,16.37,0,0,1,22.36,7.91l32.35,72.28c.08-.26.17-.5.25-.75,4.21-12.13,9.58-23.15,15.73-30.44,5.56-6.56,15.43-8,22.19-2.69.16.13.33.25.48.39a16,16,0,0,1,1.87,22.8,21.88,21.88,0,0,0-1.64,2.17c-3.07,4.54-6.38,12.07-9.16,20.68"/><path class="cls-9" d="M547.41,358.63a9.34,9.34,0,0,1-4.57-1.65c-5.15-3.59-5.65-11.76-1.12-18.25a17.33,17.33,0,0,1,5.46-5.07,0,0,0,0,1,0,0"/><path class="cls-9" d="M623.68,814.25a161.94,161.94,0,1,0-323.88,0H170.52a290.33,290.33,0,0,1,87.09-207.71h0Q265.33,599,273.57,592A290.31,290.31,0,0,1,461.74,523q9.39,0,18.66.59a288.8,288.8,0,0,1,155.32,57.06c2.09,1.56,4.15,3.16,6.2,4.78a297,297,0,0,1,31.68,29A290.22,290.22,0,0,1,753,814.25H652.42"/><path class="cls-9" d="M227.46,205.56c2-2.56,4-5.06,6-7.5,17.86-21,47.91-26.2,72.19-13.17a67.1,67.1,0,0,0,63.3,0c24.28-13,54.34-7.82,72.18,13.17a196.6,196.6,0,0,1,12.6,16.53c30.76,45,46.75,104.54,55,151.81"/><line class="cls-9" x1="538.24" y1="379.31" x2="619.04" y2="379.31"/><path class="cls-9" d="M777,288.89a53.82,53.82,0,0,1-67.11-52.11,53.52,53.52,0,0,1,8.74-29.38"/><line class="cls-9" x1="739.33" y1="334.89" x2="739.33" y2="284.72"/><polyline class="cls-9" points="739.33 171.25 739.33 21.07 453.78 21.07 453.78 214.59"/><line class="cls-9" x1="453.78" y1="286.96" x2="453.78" y2="286.98"/><line class="cls-9" x1="436.17" y1="444.63" x2="365.69" y2="444.63"/><path class="cls-9" d="M166.85,361.18a527,527,0,0,1,17.07-68.34"/><path class="cls-9" d="M311.26,97.21a40.52,40.52,0,1,0,74.65,21.88,41.39,41.39,0,0,0-.88-8.47"/><path class="cls-9" d="M385.59,124.13c-17-5-17-25-17-25h-49A19.09,19.09,0,0,1,301,75.66c2.7-11.54,16.79-16.07,26.12-8.78l.16.13a16.59,16.59,0,0,0,10.38,3.51l24.13-.29s19.62.22,23.25,40.36a0,0,0,0,0,0,0C385.39,114.7,385.59,119.18,385.59,124.13Z"/><rect class="cls-9" x="246.63" y="8.63" width="32" height="32" transform="translate(59.51 192.92) rotate(-45)"/><circle class="cls-9" cx="250.54" cy="103.74" r="12.09" transform="translate(58.82 295.51) rotate(-67.5)"/><polygon class="cls-9" points="574.91 814.25 543.02 814.25 543.02 704.83 652.42 704.83 652.42 814.25 574.91 814.25"/><polyline class="cls-9" points="361.23 188.44 352.75 228.13 384.92 404.17 363.47 414.01"/><polyline class="cls-9" points="302.69 333.48 321.94 228.13 313.47 188.44"/><line class="cls-9" x1="321.94" y1="228.13" x2="352.76" y2="228.13"/><path class="cls-9" d="M718.63,207.4h59.31l-.23,20.12a16.77,16.77,0,1,1-.35,30l-.77,67.18h89.86C833,261.33,853.39,218.2,820.92,185.73c-12-12-28.23-20.52-45.88-20.52a100.67,100.67,0,0,0-35.71,6c-31,11.67-40.82,36.14-40.82,36.14Z"/><path class="cls-9" d="M590.18,129.89A57.76,57.76,0,1,0,558.59,158,58.06,58.06,0,0,0,590.18,129.89Z"/><path class="cls-9" d="M559.54,114.46a23.29,23.29,0,0,0,2.6-10.72,23.57,23.57,0,1,0-2.6,10.72Z"/><line class="cls-9" x1="546.54" y1="125.89" x2="558.59" y2="158"/><line class="cls-9" x1="489.38" y1="134.03" x2="518.52" y2="115.96"/><line class="cls-9" x1="559.55" y1="114.46" x2="590.18" y2="129.89"/><polygon class="cls-9" points="673.37 133.67 649.87 73.8 626.35 133.67 673.37 133.67"/><polygon class="cls-9" points="704.57 116.86 690.48 80.99 676.4 116.86 704.57 116.86"/><rect class="cls-9" x="500.1" y="227.07" width="25.42" height="43.97"/><rect class="cls-9" x="540.23" y="203.74" width="25.41" height="67.3"/><rect class="cls-9" x="580.34" y="237.38" width="25.42" height="33.66"/><rect class="cls-9" x="620.45" y="227.07" width="25.42" height="43.97"/><rect class="cls-9" x="660.57" y="216.21" width="25.41" height="54.83"/><line class="cls-9" x1="458.49" y1="484.48" x2="552.67" y2="434.62"/></g></g></svg>